0, 0, Header, 1, 5, 1024
1, 0, Start_track
1, 0, Time_signature, 4, 2, 24, 8
1, 0, Key_signature, 4, "major"
1, 0, Tempo, 625000
1, 4096, Time_signature, 4, 2, 24, 8
1, 4096, Key_signature, 4, "major"
1, 8192, Time_signature, 4, 2, 24, 8
1, 8192, Key_signature, 4, "major"
1, 12288, Time_signature, 4, 2, 24, 8
1, 12288, Key_signature, 4, "major"
1, 16384, Time_signature, 4, 2, 24, 8
1, 16384, Key_signature, 4, "major"
1, 20480, Time_signature, 4, 2, 24, 8
1, 20480, Key_signature, 4, "major"
1, 24576, Time_signature, 4, 2, 24, 8
1, 24576, Key_signature, 4, "major"
1, 28672, Time_signature, 4, 2, 24, 8
1, 28672, Key_signature, 4, "major"
1, 32768, Time_signature, 4, 2, 24, 8
1, 32768, Key_signature, 4, "major"
1, 36864, Time_signature, 4, 2, 24, 8
1, 36864, Key_signature, 4, "major"
1, 40960, Time_signature, 4, 2, 24, 8
1, 40960, Key_signature, 4, "major"
1, 45056, Time_signature, 4, 2, 24, 8
1, 45056, Key_signature, 4, "major"
1, 49152, Time_signature, 4, 2, 24, 8
1, 49152, Key_signature, 4, "major"
1, 53248, Time_signature, 4, 2, 24, 8
1, 53248, Key_signature, 4, "major"
1, 57344, Time_signature, 4, 2, 24, 8
1, 57344, Key_signature, 4, "major"
1, 60416, End_track
2, 0, Start_track
2, 3072, Note_on_c, 0, 71, 64
2, 4096, Note_off_c, 0, 71, 0
2, 4096, Note_on_c, 0, 71, 64
2, 5120, Note_off_c, 0, 71, 0
2, 5120, Note_on_c, 0, 71, 64
2, 6144, Note_off_c, 0, 71, 0
2, 6144, Note_on_c, 0, 71, 64
2, 7168, Note_off_c, 0, 71, 0
2, 7168, Note_on_c, 0, 74, 64
2, 8192, Note_off_c, 0, 74, 0
2, 8192, Note_on_c, 0, 73, 64
2, 9216, Note_off_c, 0, 73, 0
2, 9216, Note_on_c, 0, 71, 64
2, 10240, Note_off_c, 0, 71, 0
2, 10240, Note_on_c, 0, 69, 64
2, 11264, Note_off_c, 0, 69, 0
2, 11264, Note_on_c, 0, 71, 64
2, 12288, Note_off_c, 0, 71, 0
2, 12288, Note_on_c, 0, 68, 64
2, 13312, Note_off_c, 0, 68, 0
2, 13312, Note_on_c, 0, 64, 64
2, 13824, Note_off_c, 0, 64, 0
2, 13824, Note_on_c, 0, 66, 64
2, 14336, Note_off_c, 0, 66, 0
2, 14336, Note_on_c, 0, 68, 64
2, 15360, Note_off_c, 0, 68, 0
2, 15360, Note_on_c, 0, 70, 64
2, 16384, Note_off_c, 0, 70, 0
2, 16384, Note_on_c, 0, 71, 64
2, 17408, Note_off_c, 0, 71, 0
2, 17408, Note_on_c, 0, 73, 64
2, 18432, Note_off_c, 0, 73, 0
2, 18432, Note_on_c, 0, 71, 64
2, 19456, Note_off_c, 0, 71, 0
2, 19456, Note_on_c, 0, 71, 64
2, 20480, Note_off_c, 0, 71, 0
2, 20480, Note_on_c, 0, 71, 64
2, 21504, Note_off_c, 0, 71, 0
2, 21504, Note_on_c, 0, 71, 64
2, 22528, Note_off_c, 0, 71, 0
2, 22528, Note_on_c, 0, 71, 64
2, 23552, Note_off_c, 0, 71, 0
2, 23552, Note_on_c, 0, 74, 64
2, 24576, Note_off_c, 0, 74, 0
2, 24576, Note_on_c, 0, 73, 64
2, 25600, Note_off_c, 0, 73, 0
2, 25600, Note_on_c, 0, 71, 64
2, 26624, Note_off_c, 0, 71, 0
2, 26624, Note_on_c, 0, 69, 64
2, 27648, Note_off_c, 0, 69, 0
2, 27648, Note_on_c, 0, 71, 64
2, 28672, Note_off_c, 0, 71, 0
2, 28672, Note_on_c, 0, 68, 64
2, 29696, Note_off_c, 0, 68, 0
2, 29696, Note_on_c, 0, 64, 64
2, 30208, Note_off_c, 0, 64, 0
2, 30208, Note_on_c, 0, 66, 64
2, 30720, Note_off_c, 0, 66, 0
2, 30720, Note_on_c, 0, 68, 64
2, 31744, Note_off_c, 0, 68, 0
2, 31744, Note_on_c, 0, 70, 64
2, 32768, Note_off_c, 0, 70, 0
2, 32768, Note_on_c, 0, 71, 64
2, 33792, Note_off_c, 0, 71, 0
2, 33792, Note_on_c, 0, 73, 64
2, 34816, Note_off_c, 0, 73, 0
2, 34816, Note_on_c, 0, 71, 64
2, 35840, Note_off_c, 0, 71, 0
2, 35840, Note_on_c, 0, 71, 64
2, 36864, Note_off_c, 0, 71, 0
2, 36864, Note_on_c, 0, 76, 64
2, 37888, Note_off_c, 0, 76, 0
2, 37888, Note_on_c, 0, 75, 64
2, 38912, Note_off_c, 0, 75, 0
2, 38912, Note_on_c, 0, 73, 64
2, 39936, Note_off_c, 0, 73, 0
2, 39936, Note_on_c, 0, 75, 64
2, 40960, Note_off_c, 0, 75, 0
2, 40960, Note_on_c, 0, 76, 64
2, 41472, Note_off_c, 0, 76, 0
2, 41472, Note_on_c, 0, 75, 64
2, 41984, Note_off_c, 0, 75, 0
2, 41984, Note_on_c, 0, 73, 64
2, 43008, Note_off_c, 0, 73, 0
2, 43008, Note_on_c, 0, 71, 64
2, 44032, Note_off_c, 0, 71, 0
2, 44032, Note_on_c, 0, 71, 64
2, 45056, Note_off_c, 0, 71, 0
2, 45056, Note_on_c, 0, 76, 64
2, 46080, Note_off_c, 0, 76, 0
2, 46080, Note_on_c, 0, 71, 64
2, 47104, Note_off_c, 0, 71, 0
2, 47104, Note_on_c, 0, 73, 64
2, 48128, Note_off_c, 0, 73, 0
2, 48128, Note_on_c, 0, 68, 64
2, 48640, Note_off_c, 0, 68, 0
2, 48640, Note_on_c, 0, 69, 64
2, 49152, Note_off_c, 0, 69, 0
2, 49152, Note_on_c, 0, 71, 64
2, 50176, Note_off_c, 0, 71, 0
2, 50176, Note_on_c, 0, 69, 64
2, 51200, Note_off_c, 0, 69, 0
2, 51200, Note_on_c, 0, 68, 64
2, 52224, Note_off_c, 0, 68, 0
2, 52224, Note_on_c, 0, 68, 64
2, 53248, Note_off_c, 0, 68, 0
2, 53248, Note_on_c, 0, 66, 64
2, 54272, Note_off_c, 0, 66, 0
2, 54272, Note_on_c, 0, 69, 64
2, 55296, Note_off_c, 0, 69, 0
2, 55296, Note_on_c, 0, 68, 64
2, 56320, Note_off_c, 0, 68, 0
2, 56320, Note_on_c, 0, 66, 64
2, 57344, Note_off_c, 0, 66, 0
2, 57344, Note_on_c, 0, 61, 64
2, 58368, Note_off_c, 0, 61, 0
2, 58368, Note_on_c, 0, 63, 64
2, 59392, Note_off_c, 0, 63, 0
2, 59392, Note_on_c, 0, 64, 64
2, 60416, Note_off_c, 0, 64, 0
2, 60416, End_track
3, 0, Start_track
3, 3072, Note_on_c, 1, 68, 64
3, 4096, Note_off_c, 1, 68, 0
3, 4096, Note_on_c, 1, 66, 64
3, 4608, Note_off_c, 1, 66, 0
3, 4608, Note_on_c, 1, 68, 64
3, 5120, Note_off_c, 1, 68, 0
3, 5120, Note_on_c, 1, 69, 64
3, 6144, Note_off_c, 1, 69, 0
3, 6144, Note_on_c, 1, 68, 64
3, 7168, Note_off_c, 1, 68, 0
3, 7168, Note_on_c, 1, 66, 64
3, 8192, Note_off_c, 1, 66, 0
3, 8192, Note_on_c, 1, 64, 64
3, 8704, Note_off_c, 1, 64, 0
3, 8704, Note_on_c, 1, 69, 64
3, 9216, Note_off_c, 1, 69, 0
3, 9216, Note_on_c, 1, 69, 64
3, 9728, Note_off_c, 1, 69, 0
3, 9728, Note_on_c, 1, 68, 64
3, 10240, Note_off_c, 1, 68, 0
3, 10240, Note_on_c, 1, 64, 64
3, 11264, Note_off_c, 1, 64, 0
3, 11264, Note_on_c, 1, 66, 64
3, 12288, Note_off_c, 1, 66, 0
3, 12288, Note_on_c, 1, 64, 64
3, 13312, Note_off_c, 1, 64, 0
3, 13312, Note_on_c, 1, 64, 64
3, 13824, Note_off_c, 1, 64, 0
3, 13824, Note_on_c, 1, 63, 64
3, 14336, Note_off_c, 1, 63, 0
3, 14336, Note_on_c, 1, 64, 64
3, 15360, Note_off_c, 1, 64, 0
3, 15360, Note_on_c, 1, 61, 64
3, 16384, Note_off_c, 1, 61, 0
3, 16384, Note_on_c, 1, 66, 64
3, 16896, Note_off_c, 1, 66, 0
3, 16896, Note_on_c, 1, 64, 64
3, 17152, Note_off_c, 1, 64, 0
3, 17152, Note_on_c, 1, 63, 64
3, 17408, Note_off_c, 1, 63, 0
3, 17408, Note_on_c, 1, 64, 64
3, 18432, Note_off_c, 1, 64, 0
3, 18432, Note_on_c, 1, 63, 64
3, 19456, Note_off_c, 1, 63, 0
3, 19456, Note_on_c, 1, 68, 64
3, 20480, Note_off_c, 1, 68, 0
3, 20480, Note_on_c, 1, 66, 64
3, 20992, Note_off_c, 1, 66, 0
3, 20992, Note_on_c, 1, 68, 64
3, 21504, Note_off_c, 1, 68, 0
3, 21504, Note_on_c, 1, 69, 64
3, 22528, Note_off_c, 1, 69, 0
3, 22528, Note_on_c, 1, 68, 64
3, 23552, Note_off_c, 1, 68, 0
3, 23552, Note_on_c, 1, 66, 64
3, 24576, Note_off_c, 1, 66, 0
3, 24576, Note_on_c, 1, 64, 64
3, 25088, Note_off_c, 1, 64, 0
3, 25088, Note_on_c, 1, 69, 64
3, 25600, Note_off_c, 1, 69, 0
3, 25600, Note_on_c, 1, 69, 64
3, 26112, Note_off_c, 1, 69, 0
3, 26112, Note_on_c, 1, 68, 64
3, 26624, Note_off_c, 1, 68, 0
3, 26624, Note_on_c, 1, 64, 64
3, 27648, Note_off_c, 1, 64, 0
3, 27648, Note_on_c, 1, 66, 64
3, 28672, Note_off_c, 1, 66, 0
3, 28672, Note_on_c, 1, 64, 64
3, 29696, Note_off_c, 1, 64, 0
3, 29696, Note_on_c, 1, 64, 64
3, 30208, Note_off_c, 1, 64, 0
3, 30208, Note_on_c, 1, 63, 64
3, 30720, Note_off_c, 1, 63, 0
3, 30720, Note_on_c, 1, 64, 64
3, 31744, Note_off_c, 1, 64, 0
3, 31744, Note_on_c, 1, 61, 64
3, 32768, Note_off_c, 1, 61, 0
3, 32768, Note_on_c, 1, 66, 64
3, 33280, Note_off_c, 1, 66, 0
3, 33280, Note_on_c, 1, 64, 64
3, 33536, Note_off_c, 1, 64, 0
3, 33536, Note_on_c, 1, 63, 64
3, 33792, Note_off_c, 1, 63, 0
3, 33792, Note_on_c, 1, 64, 64
3, 34816, Note_off_c, 1, 64, 0
3, 34816, Note_on_c, 1, 63, 64
3, 35840, Note_off_c, 1, 63, 0
3, 35840, Note_on_c, 1, 64, 64
3, 36352, Note_off_c, 1, 64, 0
3, 36352, Note_on_c, 1, 66, 64
3, 36864, Note_off_c, 1, 66, 0
3, 36864, Note_on_c, 1, 68, 64
3, 37376, Note_off_c, 1, 68, 0
3, 37376, Note_on_c, 1, 70, 64
3, 37888, Note_off_c, 1, 70, 0
3, 37888, Note_on_c, 1, 71, 64
3, 38912, Note_off_c, 1, 71, 0
3, 38912, Note_on_c, 1, 70, 64
3, 39936, Note_off_c, 1, 70, 0
3, 39936, Note_on_c, 1, 71, 64
3, 40960, Note_off_c, 1, 71, 0
3, 40960, Note_on_c, 1, 71, 64
3, 41984, Note_off_c, 1, 71, 0
3, 41984, Note_on_c, 1, 66, 64
3, 43008, Note_off_c, 1, 66, 0
3, 43008, Note_on_c, 1, 66, 64
3, 44032, Note_off_c, 1, 66, 0
3, 44032, Note_on_c, 1, 68, 64
3, 45056, Note_off_c, 1, 68, 0
3, 45056, Note_on_c, 1, 64, 64
3, 45568, Note_off_c, 1, 64, 0
3, 45568, Note_on_c, 1, 66, 64
3, 46080, Note_off_c, 1, 66, 0
3, 46080, Note_on_c, 1, 68, 64
3, 47104, Note_off_c, 1, 68, 0
3, 47104, Note_on_c, 1, 69, 64
3, 48128, Note_off_c, 1, 69, 0
3, 48128, Note_on_c, 1, 64, 64
3, 48640, Note_off_c, 1, 64, 0
3, 48640, Note_on_c, 1, 66, 64
3, 49152, Note_off_c, 1, 66, 0
3, 49152, Note_on_c, 1, 68, 64
3, 50176, Note_off_c, 1, 68, 0
3, 50176, Note_on_c, 1, 66, 64
3, 51200, Note_off_c, 1, 66, 0
3, 51200, Note_on_c, 1, 65, 64
3, 52224, Note_off_c, 1, 65, 0
3, 52224, Note_on_c, 1, 64, 64
3, 53248, Note_off_c, 1, 64, 0
3, 53248, Note_on_c, 1, 63, 64
3, 54272, Note_off_c, 1, 63, 0
3, 54272, Note_on_c, 1, 64, 64
3, 55296, Note_off_c, 1, 64, 0
3, 55296, Note_on_c, 1, 64, 64
3, 56320, Note_off_c, 1, 64, 0
3, 56320, Note_on_c, 1, 63, 64
3, 56832, Note_off_c, 1, 63, 0
3, 56832, Note_on_c, 1, 59, 64
3, 57344, Note_off_c, 1, 59, 0
3, 57344, Note_on_c, 1, 61, 64
3, 58368, Note_off_c, 1, 61, 0
3, 58368, Note_on_c, 1, 59, 64
3, 59392, Note_off_c, 1, 59, 0
3, 59392, Note_on_c, 1, 59, 64
3, 60416, Note_off_c, 1, 59, 0
3, 60416, End_track
4, 0, Start_track
4, 3072, Note_on_c, 2, 64, 64
4, 4096, Note_off_c, 2, 64, 0
4, 4096, Note_on_c, 2, 66, 64
4, 5120, Note_off_c, 2, 66, 0
4, 5120, Note_on_c, 2, 64, 64
4, 5632, Note_off_c, 2, 64, 0
4, 5632, Note_on_c, 2, 63, 64
4, 6144, Note_off_c, 2, 63, 0
4, 6144, Note_on_c, 2, 64, 64
4, 7168, Note_off_c, 2, 64, 0
4, 7168, Note_on_c, 2, 57, 64
4, 7680, Note_off_c, 2, 57, 0
4, 7680, Note_on_c, 2, 59, 64
4, 8192, Note_off_c, 2, 59, 0
4, 8192, Note_on_c, 2, 61, 64
4, 8448, Note_off_c, 2, 61, 0
4, 8448, Note_on_c, 2, 62, 64
4, 8704, Note_off_c, 2, 62, 0
4, 8704, Note_on_c, 2, 64, 64
4, 9728, Note_off_c, 2, 64, 0
4, 9728, Note_on_c, 2, 62, 64
4, 10240, Note_off_c, 2, 62, 0
4, 10240, Note_on_c, 2, 61, 64
4, 11264, Note_off_c, 2, 61, 0
4, 11264, Note_on_c, 2, 59, 64
4, 12288, Note_off_c, 2, 59, 0
4, 12288, Note_on_c, 2, 59, 64
4, 13312, Note_off_c, 2, 59, 0
4, 13312, Note_on_c, 2, 59, 64
4, 13824, Note_off_c, 2, 59, 0
4, 13824, Note_on_c, 2, 57, 64
4, 14336, Note_off_c, 2, 57, 0
4, 14336, Note_on_c, 2, 56, 64
4, 15360, Note_off_c, 2, 56, 0
4, 15360, Note_on_c, 2, 54, 64
4, 16384, Note_off_c, 2, 54, 0
4, 16384, Note_on_c, 2, 54, 64
4, 16896, Note_off_c, 2, 54, 0
4, 16896, Note_on_c, 2, 59, 64
4, 17920, Note_off_c, 2, 59, 0
4, 17920, Note_on_c, 2, 58, 64
4, 18432, Note_off_c, 2, 58, 0
4, 18432, Note_on_c, 2, 54, 64
4, 19456, Note_off_c, 2, 54, 0
4, 19456, Note_on_c, 2, 64, 64
4, 20480, Note_off_c, 2, 64, 0
4, 20480, Note_on_c, 2, 66, 64
4, 21504, Note_off_c, 2, 66, 0
4, 21504, Note_on_c, 2, 64, 64
4, 22016, Note_off_c, 2, 64, 0
4, 22016, Note_on_c, 2, 63, 64
4, 22528, Note_off_c, 2, 63, 0
4, 22528, Note_on_c, 2, 64, 64
4, 23552, Note_off_c, 2, 64, 0
4, 23552, Note_on_c, 2, 57, 64
4, 24064, Note_off_c, 2, 57, 0
4, 24064, Note_on_c, 2, 59, 64
4, 24576, Note_off_c, 2, 59, 0
4, 24576, Note_on_c, 2, 61, 64
4, 24832, Note_off_c, 2, 61, 0
4, 24832, Note_on_c, 2, 62, 64
4, 25088, Note_off_c, 2, 62, 0
4, 25088, Note_on_c, 2, 64, 64
4, 26112, Note_off_c, 2, 64, 0
4, 26112, Note_on_c, 2, 62, 64
4, 26624, Note_off_c, 2, 62, 0
4, 26624, Note_on_c, 2, 61, 64
4, 27648, Note_off_c, 2, 61, 0
4, 27648, Note_on_c, 2, 59, 64
4, 28672, Note_off_c, 2, 59, 0
4, 28672, Note_on_c, 2, 59, 64
4, 29696, Note_off_c, 2, 59, 0
4, 29696, Note_on_c, 2, 59, 64
4, 30208, Note_off_c, 2, 59, 0
4, 30208, Note_on_c, 2, 57, 64
4, 30720, Note_off_c, 2, 57, 0
4, 30720, Note_on_c, 2, 56, 64
4, 31744, Note_off_c, 2, 56, 0
4, 31744, Note_on_c, 2, 54, 64
4, 32768, Note_off_c, 2, 54, 0
4, 32768, Note_on_c, 2, 54, 64
4, 33280, Note_off_c, 2, 54, 0
4, 33280, Note_on_c, 2, 59, 64
4, 34304, Note_off_c, 2, 59, 0
4, 34304, Note_on_c, 2, 58, 64
4, 34816, Note_off_c, 2, 58, 0
4, 34816, Note_on_c, 2, 54, 64
4, 35840, Note_off_c, 2, 54, 0
4, 35840, Note_on_c, 2, 56, 64
4, 36864, Note_off_c, 2, 56, 0
4, 36864, Note_on_c, 2, 61, 64
4, 37888, Note_off_c, 2, 61, 0
4, 37888, Note_on_c, 2, 54, 64
4, 38912, Note_off_c, 2, 54, 0
4, 38912, Note_on_c, 2, 66, 64
4, 39936, Note_off_c, 2, 66, 0
4, 39936, Note_on_c, 2, 66, 64
4, 40960, Note_off_c, 2, 66, 0
4, 40960, Note_on_c, 2, 59, 64
4, 41984, Note_off_c, 2, 59, 0
4, 41984, Note_on_c, 2, 58, 64
4, 43008, Note_off_c, 2, 58, 0
4, 43008, Note_on_c, 2, 63, 64
4, 44032, Note_off_c, 2, 63, 0
4, 44032, Note_on_c, 2, 64, 64
4, 45056, Note_off_c, 2, 64, 0
4, 45056, Note_on_c, 2, 59, 64
4, 46080, Note_off_c, 2, 59, 0
4, 46080, Note_on_c, 2, 64, 64
4, 47104, Note_off_c, 2, 64, 0
4, 47104, Note_on_c, 2, 64, 64
4, 48128, Note_off_c, 2, 64, 0
4, 48128, Note_on_c, 2, 61, 64
4, 49152, Note_off_c, 2, 61, 0
4, 49152, Note_on_c, 2, 62, 64
4, 50176, Note_off_c, 2, 62, 0
4, 50176, Note_on_c, 2, 61, 64
4, 51200, Note_off_c, 2, 61, 0
4, 51200, Note_on_c, 2, 61, 64
4, 52224, Note_off_c, 2, 61, 0
4, 52224, Note_on_c, 2, 59, 64
4, 53248, Note_off_c, 2, 59, 0
4, 53248, Note_on_c, 2, 59, 64
4, 54272, Note_off_c, 2, 59, 0
4, 54272, Note_on_c, 2, 61, 64
4, 55296, Note_off_c, 2, 61, 0
4, 55296, Note_on_c, 2, 59, 64
4, 56320, Note_off_c, 2, 59, 0
4, 56320, Note_on_c, 2, 59, 64
4, 57344, Note_off_c, 2, 59, 0
4, 57344, Note_on_c, 2, 54, 64
4, 59392, Note_off_c, 2, 54, 0
4, 59392, Note_on_c, 2, 56, 64
4, 60416, Note_off_c, 2, 56, 0
4, 60416, End_track
5, 0, Start_track
5, 3072, Note_on_c, 3, 52, 64
5, 4096, Note_off_c, 3, 52, 0
5, 4096, Note_on_c, 3, 51, 64
5, 5120, Note_off_c, 3, 51, 0
5, 5120, Note_on_c, 3, 47, 64
5, 6144, Note_off_c, 3, 47, 0
5, 6144, Note_on_c, 3, 52, 64
5, 7168, Note_off_c, 3, 52, 0
5, 7168, Note_on_c, 3, 54, 64
5, 7680, Note_off_c, 3, 54, 0
5, 7680, Note_on_c, 3, 56, 64
5, 8192, Note_off_c, 3, 56, 0
5, 8192, Note_on_c, 3, 57, 64
5, 9216, Note_off_c, 3, 57, 0
5, 9216, Note_on_c, 3, 52, 64
5, 10240, Note_off_c, 3, 52, 0
5, 10240, Note_on_c, 3, 45, 64
5, 11264, Note_off_c, 3, 45, 0
5, 11264, Note_on_c, 3, 51, 64
5, 12288, Note_off_c, 3, 51, 0
5, 12288, Note_on_c, 3, 52, 64
5, 12800, Note_off_c, 3, 52, 0
5, 12800, Note_on_c, 3, 54, 64
5, 13312, Note_off_c, 3, 54, 0
5, 13312, Note_on_c, 3, 56, 64
5, 14336, Note_off_c, 3, 56, 0
5, 14336, Note_on_c, 3, 49, 64
5, 15360, Note_off_c, 3, 49, 0
5, 15360, Note_on_c, 3, 54, 64
5, 15872, Note_off_c, 3, 54, 0
5, 15872, Note_on_c, 3, 52, 64
5, 16384, Note_off_c, 3, 52, 0
5, 16384, Note_on_c, 3, 51, 64
5, 16896, Note_off_c, 3, 51, 0
5, 16896, Note_on_c, 3, 49, 64
5, 17152, Note_off_c, 3, 49, 0
5, 17152, Note_on_c, 3, 47, 64
5, 17408, Note_off_c, 3, 47, 0
5, 17408, Note_on_c, 3, 54, 64
5, 18432, Note_off_c, 3, 54, 0
5, 18432, Note_on_c, 3, 47, 64
5, 19456, Note_off_c, 3, 47, 0
5, 19456, Note_on_c, 3, 52, 64
5, 20480, Note_off_c, 3, 52, 0
5, 20480, Note_on_c, 3, 51, 64
5, 21504, Note_off_c, 3, 51, 0
5, 21504, Note_on_c, 3, 47, 64
5, 22528, Note_off_c, 3, 47, 0
5, 22528, Note_on_c, 3, 52, 64
5, 23552, Note_off_c, 3, 52, 0
5, 23552, Note_on_c, 3, 54, 64
5, 24064, Note_off_c, 3, 54, 0
5, 24064, Note_on_c, 3, 56, 64
5, 24576, Note_off_c, 3, 56, 0
5, 24576, Note_on_c, 3, 57, 64
5, 25600, Note_off_c, 3, 57, 0
5, 25600, Note_on_c, 3, 52, 64
5, 26624, Note_off_c, 3, 52, 0
5, 26624, Note_on_c, 3, 45, 64
5, 27648, Note_off_c, 3, 45, 0
5, 27648, Note_on_c, 3, 51, 64
5, 28672, Note_off_c, 3, 51, 0
5, 28672, Note_on_c, 3, 52, 64
5, 29184, Note_off_c, 3, 52, 0
5, 29184, Note_on_c, 3, 54, 64
5, 29696, Note_off_c, 3, 54, 0
5, 29696, Note_on_c, 3, 56, 64
5, 30720, Note_off_c, 3, 56, 0
5, 30720, Note_on_c, 3, 49, 64
5, 31744, Note_off_c, 3, 49, 0
5, 31744, Note_on_c, 3, 54, 64
5, 32256, Note_off_c, 3, 54, 0
5, 32256, Note_on_c, 3, 52, 64
5, 32768, Note_off_c, 3, 52, 0
5, 32768, Note_on_c, 3, 51, 64
5, 33280, Note_off_c, 3, 51, 0
5, 33280, Note_on_c, 3, 49, 64
5, 33536, Note_off_c, 3, 49, 0
5, 33536, Note_on_c, 3, 47, 64
5, 33792, Note_off_c, 3, 47, 0
5, 33792, Note_on_c, 3, 54, 64
5, 34816, Note_off_c, 3, 54, 0
5, 34816, Note_on_c, 3, 47, 64
5, 35840, Note_off_c, 3, 47, 0
5, 35840, Note_on_c, 3, 52, 64
5, 36864, Note_off_c, 3, 52, 0
5, 36864, Note_on_c, 3, 49, 64
5, 37888, Note_off_c, 3, 49, 0
5, 37888, Note_on_c, 3, 51, 64
5, 38400, Note_off_c, 3, 51, 0
5, 38400, Note_on_c, 3, 52, 64
5, 38912, Note_off_c, 3, 52, 0
5, 38912, Note_on_c, 3, 54, 64
5, 39936, Note_off_c, 3, 54, 0
5, 39936, Note_on_c, 3, 59, 64
5, 40960, Note_off_c, 3, 59, 0
5, 40960, Note_on_c, 3, 56, 64
5, 41472, Note_off_c, 3, 56, 0
5, 41472, Note_on_c, 3, 52, 64
5, 41984, Note_off_c, 3, 52, 0
5, 41984, Note_on_c, 3, 54, 64
5, 43008, Note_off_c, 3, 54, 0
5, 43008, Note_on_c, 3, 47, 64
5, 44032, Note_off_c, 3, 47, 0
5, 44032, Note_on_c, 3, 52, 64
5, 45056, Note_off_c, 3, 52, 0
5, 45056, Note_on_c, 3, 56, 64
5, 46080, Note_off_c, 3, 56, 0
5, 46080, Note_on_c, 3, 52, 64
5, 47104, Note_off_c, 3, 52, 0
5, 47104, Note_on_c, 3, 57, 64
5, 47616, Note_off_c, 3, 57, 0
5, 47616, Note_on_c, 3, 59, 64
5, 48128, Note_off_c, 3, 59, 0
5, 48128, Note_on_c, 3, 61, 64
5, 49152, Note_off_c, 3, 61, 0
5, 49152, Note_on_c, 3, 53, 64
5, 50176, Note_off_c, 3, 53, 0
5, 50176, Note_on_c, 3, 54, 64
5, 51200, Note_off_c, 3, 54, 0
5, 51200, Note_on_c, 3, 49, 64
5, 52224, Note_off_c, 3, 49, 0
5, 52224, Note_on_c, 3, 52, 64
5, 53248, Note_off_c, 3, 52, 0
5, 53248, Note_on_c, 3, 47, 64
5, 54272, Note_off_c, 3, 47, 0
5, 54272, Note_on_c, 3, 49, 64
5, 54784, Note_off_c, 3, 49, 0
5, 54784, Note_on_c, 3, 51, 64
5, 55296, Note_off_c, 3, 51, 0
5, 55296, Note_on_c, 3, 52, 64
5, 56320, Note_off_c, 3, 52, 0
5, 56320, Note_on_c, 3, 47, 64
5, 57344, Note_off_c, 3, 47, 0
5, 57344, Note_on_c, 3, 46, 64
5, 58368, Note_off_c, 3, 46, 0
5, 58368, Note_on_c, 3, 47, 64
5, 59392, Note_off_c, 3, 47, 0
5, 59392, Note_on_c, 3, 40, 64
5, 60416, Note_off_c, 3, 40, 0
5, 60416, End_track
0, 0, End_of_file
