0, 0, Header, 1, 5, 1024
1, 0, Start_track
1, 0, Time_signature, 4, 2, 24, 8
1, 0, Key_signature, -1, "major"
1, 0, Tempo, 625000
1, 4096, Time_signature, 4, 2, 24, 8
1, 4096, Key_signature, -1, "major"
1, 8192, Time_signature, 4, 2, 24, 8
1, 8192, Key_signature, -1, "major"
1, 12288, Time_signature, 4, 2, 24, 8
1, 12288, Key_signature, -1, "major"
1, 16384, Time_signature, 4, 2, 24, 8
1, 16384, Key_signature, -1, "major"
1, 20480, Time_signature, 4, 2, 24, 8
1, 20480, Key_signature, -1, "major"
1, 24576, Time_signature, 4, 2, 24, 8
1, 24576, Key_signature, -1, "major"
1, 28672, Time_signature, 4, 2, 24, 8
1, 28672, Key_signature, -1, "major"
1, 32768, Time_signature, 4, 2, 24, 8
1, 32768, Key_signature, -1, "major"
1, 35840, End_track
2, 0, Start_track
2, 3072, Note_on_c, 0, 65, 64
2, 4096, Note_off_c, 0, 65, 0
2, 4096, Note_on_c, 0, 69, 64
2, 5120, Note_off_c, 0, 69, 0
2, 5120, Note_on_c, 0, 67, 64
2, 6144, Note_off_c, 0, 67, 0
2, 6144, Note_on_c, 0, 69, 64
2, 7168, Note_off_c, 0, 69, 0
2, 7168, Note_on_c, 0, 70, 64
2, 8192, Note_off_c, 0, 70, 0
2, 8192, Note_on_c, 0, 72, 64
2, 10240, Note_off_c, 0, 72, 0
2, 10240, Note_on_c, 0, 69, 64
2, 11264, Note_off_c, 0, 69, 0
2, 11264, Note_on_c, 0, 74, 64
2, 12288, Note_off_c, 0, 74, 0
2, 12288, Note_on_c, 0, 72, 64
2, 13312, Note_off_c, 0, 72, 0
2, 13312, Note_on_c, 0, 70, 64
2, 14336, Note_off_c, 0, 70, 0
2, 14336, Note_on_c, 0, 69, 64
2, 15360, Note_off_c, 0, 69, 0
2, 15360, Note_on_c, 0, 67, 64
2, 16384, Note_off_c, 0, 67, 0
2, 16384, Note_on_c, 0, 69, 64
2, 18432, Note_off_c, 0, 69, 0
2, 19456, Note_on_c, 0, 72, 64
2, 20480, Note_off_c, 0, 72, 0
2, 20480, Note_on_c, 0, 74, 64
2, 21504, Note_off_c, 0, 74, 0
2, 21504, Note_on_c, 0, 76, 64
2, 22528, Note_off_c, 0, 76, 0
2, 22528, Note_on_c, 0, 77, 64
2, 23552, Note_off_c, 0, 77, 0
2, 23552, Note_on_c, 0, 76, 64
2, 24576, Note_off_c, 0, 76, 0
2, 24576, Note_on_c, 0, 74, 64
2, 26624, Note_off_c, 0, 74, 0
2, 26624, Note_on_c, 0, 72, 64
2, 27648, Note_off_c, 0, 72, 0
2, 27648, Note_on_c, 0, 69, 64
2, 28672, Note_off_c, 0, 69, 0
2, 28672, Note_on_c, 0, 70, 64
2, 29696, Note_off_c, 0, 70, 0
2, 29696, Note_on_c, 0, 69, 64
2, 30720, Note_off_c, 0, 69, 0
2, 30720, Note_on_c, 0, 67, 64
2, 31744, Note_off_c, 0, 67, 0
2, 31744, Note_on_c, 0, 67, 64
2, 32768, Note_off_c, 0, 67, 0
2, 32768, Note_on_c, 0, 65, 64
2, 35840, Note_off_c, 0, 65, 0
2, 35840, End_track
3, 0, Start_track
3, 3072, Note_on_c, 1, 60, 64
3, 4096, Note_off_c, 1, 60, 0
3, 4096, Note_on_c, 1, 65, 64
3, 5120, Note_off_c, 1, 65, 0
3, 5120, Note_on_c, 1, 67, 64
3, 6144, Note_off_c, 1, 67, 0
3, 6144, Note_on_c, 1, 65, 64
3, 7168, Note_off_c, 1, 65, 0
3, 7168, Note_on_c, 1, 65, 64
3, 8192, Note_off_c, 1, 65, 0
3, 8192, Note_on_c, 1, 64, 64
3, 8704, Note_off_c, 1, 64, 0
3, 8704, Note_on_c, 1, 65, 64
3, 9216, Note_off_c, 1, 65, 0
3, 9216, Note_on_c, 1, 67, 64
3, 9728, Note_off_c, 1, 67, 0
3, 9728, Note_on_c, 1, 64, 64
3, 10240, Note_off_c, 1, 64, 0
3, 10240, Note_on_c, 1, 65, 64
3, 11264, Note_off_c, 1, 65, 0
3, 11264, Note_on_c, 1, 65, 64
3, 12288, Note_off_c, 1, 65, 0
3, 12288, Note_on_c, 1, 65, 64
3, 13824, Note_off_c, 1, 65, 0
3, 13824, Note_on_c, 1, 64, 64
3, 14336, Note_off_c, 1, 64, 0
3, 14336, Note_on_c, 1, 65, 64
3, 15872, Note_off_c, 1, 65, 0
3, 15872, Note_on_c, 1, 64, 64
3, 16384, Note_off_c, 1, 64, 0
3, 16384, Note_on_c, 1, 65, 64
3, 18432, Note_off_c, 1, 65, 0
3, 19456, Note_on_c, 1, 69, 64
3, 20992, Note_off_c, 1, 69, 0
3, 20992, Note_on_c, 1, 67, 64
3, 22016, Note_off_c, 1, 67, 0
3, 22016, Note_on_c, 1, 72, 64
3, 22272, Note_off_c, 1, 72, 0
3, 22272, Note_on_c, 1, 70, 64
3, 22528, Note_off_c, 1, 70, 0
3, 22528, Note_on_c, 1, 69, 64
3, 23552, Note_off_c, 1, 69, 0
3, 23552, Note_on_c, 1, 69, 64
3, 24576, Note_off_c, 1, 69, 0
3, 24576, Note_on_c, 1, 69, 64
3, 25600, Note_off_c, 1, 69, 0
3, 25600, Note_on_c, 1, 67, 64
3, 26624, Note_off_c, 1, 67, 0
3, 26624, Note_on_c, 1, 67, 64
3, 27648, Note_off_c, 1, 67, 0
3, 27648, Note_on_c, 1, 65, 64
3, 29184, Note_off_c, 1, 65, 0
3, 29184, Note_on_c, 1, 64, 64
3, 29696, Note_off_c, 1, 64, 0
3, 29696, Note_on_c, 1, 65, 64
3, 30720, Note_off_c, 1, 65, 0
3, 30720, Note_on_c, 1, 65, 64
3, 31744, Note_off_c, 1, 65, 0
3, 31744, Note_on_c, 1, 64, 64
3, 32768, Note_off_c, 1, 64, 0
3, 32768, Note_on_c, 1, 60, 64
3, 35840, Note_off_c, 1, 60, 0
3, 35840, End_track
4, 0, Start_track
4, 3072, Note_on_c, 2, 57, 64
4, 4096, Note_off_c, 2, 57, 0
4, 4096, Note_on_c, 2, 60, 64
4, 5120, Note_off_c, 2, 60, 0
4, 5120, Note_on_c, 2, 60, 64
4, 6144, Note_off_c, 2, 60, 0
4, 6144, Note_on_c, 2, 60, 64
4, 7168, Note_off_c, 2, 60, 0
4, 7168, Note_on_c, 2, 62, 64
4, 8192, Note_off_c, 2, 62, 0
4, 8192, Note_on_c, 2, 55, 64
4, 9216, Note_off_c, 2, 55, 0
4, 9216, Note_on_c, 2, 60, 64
4, 10240, Note_off_c, 2, 60, 0
4, 10240, Note_on_c, 2, 60, 64
4, 11264, Note_off_c, 2, 60, 0
4, 11264, Note_on_c, 2, 58, 64
4, 12288, Note_off_c, 2, 58, 0
4, 12288, Note_on_c, 2, 60, 64
4, 13312, Note_off_c, 2, 60, 0
4, 13312, Note_on_c, 2, 62, 64
4, 13824, Note_off_c, 2, 62, 0
4, 13824, Note_on_c, 2, 58, 64
4, 14336, Note_off_c, 2, 58, 0
4, 14336, Note_on_c, 2, 60, 64
4, 15360, Note_off_c, 2, 60, 0
4, 15360, Note_on_c, 2, 60, 64
4, 16384, Note_off_c, 2, 60, 0
4, 16384, Note_on_c, 2, 60, 64
4, 18432, Note_off_c, 2, 60, 0
4, 19456, Note_on_c, 2, 65, 64
4, 20480, Note_off_c, 2, 65, 0
4, 20480, Note_on_c, 2, 65, 64
4, 21504, Note_off_c, 2, 65, 0
4, 21504, Note_on_c, 2, 64, 64
4, 23040, Note_off_c, 2, 64, 0
4, 23040, Note_on_c, 2, 62, 64
4, 23552, Note_off_c, 2, 62, 0
4, 23552, Note_on_c, 2, 60, 64
4, 25600, Note_off_c, 2, 60, 0
4, 25600, Note_on_c, 2, 59, 64
4, 26624, Note_off_c, 2, 59, 0
4, 26624, Note_on_c, 2, 64, 64
4, 27648, Note_off_c, 2, 64, 0
4, 27648, Note_on_c, 2, 60, 64
4, 28672, Note_off_c, 2, 60, 0
4, 28672, Note_on_c, 2, 58, 64
4, 29696, Note_off_c, 2, 58, 0
4, 29696, Note_on_c, 2, 60, 64
4, 30720, Note_off_c, 2, 60, 0
4, 30720, Note_on_c, 2, 61, 64
4, 31744, Note_off_c, 2, 61, 0
4, 31744, Note_on_c, 2, 60, 64
4, 32512, Note_off_c, 2, 60, 0
4, 32512, Note_on_c, 2, 58, 64
4, 32768, Note_off_c, 2, 58, 0
4, 32768, Note_on_c, 2, 57, 64
4, 35840, Note_off_c, 2, 57, 0
4, 35840, End_track
5, 0, Start_track
5, 3072, Note_on_c, 3, 41, 64
5, 4096, Note_off_c, 3, 41, 0
5, 4096, Note_on_c, 3, 53, 64
5, 5120, Note_off_c, 3, 53, 0
5, 5120, Note_on_c, 3, 52, 64
5, 6144, Note_off_c, 3, 52, 0
5, 6144, Note_on_c, 3, 51, 64
5, 7168, Note_off_c, 3, 51, 0
5, 7168, Note_on_c, 3, 50, 64
5, 8192, Note_off_c, 3, 50, 0
5, 8192, Note_on_c, 3, 48, 64
5, 8704, Note_off_c, 3, 48, 0
5, 8704, Note_on_c, 3, 50, 64
5, 9216, Note_off_c, 3, 50, 0
5, 9216, Note_on_c, 3, 52, 64
5, 9728, Note_off_c, 3, 52, 0
5, 9728, Note_on_c, 3, 48, 64
5, 10240, Note_off_c, 3, 48, 0
5, 10240, Note_on_c, 3, 53, 64
5, 11264, Note_off_c, 3, 53, 0
5, 11264, Note_on_c, 3, 46, 64
5, 12288, Note_off_c, 3, 46, 0
5, 12288, Note_on_c, 3, 45, 64
5, 13312, Note_off_c, 3, 45, 0
5, 13312, Note_on_c, 3, 43, 64
5, 14336, Note_off_c, 3, 43, 0
5, 14336, Note_on_c, 3, 41, 64
5, 14848, Note_off_c, 3, 41, 0
5, 14848, Note_on_c, 3, 45, 64
5, 15360, Note_off_c, 3, 45, 0
5, 15360, Note_on_c, 3, 48, 64
5, 16384, Note_off_c, 3, 48, 0
5, 16384, Note_on_c, 3, 41, 64
5, 18432, Note_off_c, 3, 41, 0
5, 19456, Note_on_c, 3, 57, 64
5, 20480, Note_off_c, 3, 57, 0
5, 20480, Note_on_c, 3, 47, 64
5, 21504, Note_off_c, 3, 47, 0
5, 21504, Note_on_c, 3, 48, 64
5, 22528, Note_off_c, 3, 48, 0
5, 22528, Note_on_c, 3, 50, 64
5, 23040, Note_off_c, 3, 50, 0
5, 23040, Note_on_c, 3, 53, 64
5, 23552, Note_off_c, 3, 53, 0
5, 23552, Note_on_c, 3, 57, 64
5, 24064, Note_off_c, 3, 57, 0
5, 24064, Note_on_c, 3, 55, 64
5, 24576, Note_off_c, 3, 55, 0
5, 24576, Note_on_c, 3, 53, 64
5, 25088, Note_off_c, 3, 53, 0
5, 25088, Note_on_c, 3, 50, 64
5, 25600, Note_off_c, 3, 50, 0
5, 25600, Note_on_c, 3, 55, 64
5, 26624, Note_off_c, 3, 55, 0
5, 26624, Note_on_c, 3, 48, 64
5, 27648, Note_off_c, 3, 48, 0
5, 27648, Note_on_c, 3, 41, 64
5, 28672, Note_off_c, 3, 41, 0
5, 28672, Note_on_c, 3, 43, 64
5, 29696, Note_off_c, 3, 43, 0
5, 29696, Note_on_c, 3, 45, 64
5, 30720, Note_off_c, 3, 45, 0
5, 30720, Note_on_c, 3, 46, 64
5, 31744, Note_off_c, 3, 46, 0
5, 31744, Note_on_c, 3, 48, 64
5, 32768, Note_off_c, 3, 48, 0
5, 32768, Note_on_c, 3, 41, 64
5, 35840, Note_off_c, 3, 41, 0
5, 35840, End_track
0, 0, End_of_file
