0, 0, Header, 1, 4, 120
1, 0, Start_track
1, 0, Key_signature, -1, "major"
1, 0, Tempo, 1071428
1, 0, Time_signature, 3, 3, 12, 8
1, 10620, Tempo, 833333
1, 10620, Time_signature, 4, 2, 24, 8
1, 10620, End_track
2, 0, Start_track
2, 0, Title_t, "Right Hand"
2, 180, Note_on_c, 1, 65, 64
2, 209, Note_on_c, 1, 65, 0
2, 210, Note_on_c, 1, 64, 64
2, 239, Note_on_c, 1, 64, 0
2, 240, Note_on_c, 1, 65, 64
2, 269, Note_on_c, 1, 65, 0
2, 270, Note_on_c, 1, 67, 64
2, 299, Note_on_c, 1, 67, 0
2, 300, Note_on_c, 1, 69, 64
2, 329, Note_on_c, 1, 69, 0
2, 330, Note_on_c, 1, 70, 64
2, 359, Note_on_c, 1, 70, 0
2, 360, Note_on_c, 1, 72, 64
2, 360, Note_on_c, 1, 69, 64
2, 389, Note_on_c, 1, 69, 0
2, 389, Note_on_c, 1, 72, 0
2, 420, Note_on_c, 1, 72, 64
2, 420, Note_on_c, 1, 69, 64
2, 449, Note_on_c, 1, 69, 0
2, 449, Note_on_c, 1, 72, 0
2, 480, Note_on_c, 1, 72, 64
2, 480, Note_on_c, 1, 69, 64
2, 509, Note_on_c, 1, 69, 0
2, 509, Note_on_c, 1, 72, 0
2, 540, Note_on_c, 1, 72, 64
2, 540, Note_on_c, 1, 69, 64
2, 599, Note_on_c, 1, 69, 0
2, 599, Note_on_c, 1, 72, 0
2, 600, Note_on_c, 1, 74, 64
2, 600, Note_on_c, 1, 70, 64
2, 629, Note_on_c, 1, 70, 0
2, 629, Note_on_c, 1, 74, 0
2, 630, Note_on_c, 1, 72, 64
2, 630, Note_on_c, 1, 69, 64
2, 659, Note_on_c, 1, 69, 0
2, 659, Note_on_c, 1, 72, 0
2, 660, Note_on_c, 1, 70, 64
2, 660, Note_on_c, 1, 67, 64
2, 689, Note_on_c, 1, 67, 0
2, 689, Note_on_c, 1, 70, 0
2, 690, Note_on_c, 1, 69, 64
2, 690, Note_on_c, 1, 65, 64
2, 719, Note_on_c, 1, 65, 0
2, 719, Note_on_c, 1, 69, 0
2, 720, Note_on_c, 1, 67, 64
2, 720, Note_on_c, 1, 64, 64
2, 899, Note_on_c, 1, 64, 0
2, 899, Note_on_c, 1, 67, 0
2, 900, Note_on_c, 1, 65, 64
2, 919, Note_on_c, 1, 65, 0
2, 920, Note_on_c, 1, 69, 64
2, 939, Note_on_c, 1, 69, 0
2, 940, Note_on_c, 1, 72, 64
2, 959, Note_on_c, 1, 72, 0
2, 960, Note_on_c, 1, 65, 64
2, 979, Note_on_c, 1, 65, 0
2, 980, Note_on_c, 1, 69, 64
2, 999, Note_on_c, 1, 69, 0
2, 1000, Note_on_c, 1, 72, 64
2, 1019, Note_on_c, 1, 72, 0
2, 1020, Note_on_c, 1, 65, 64
2, 1039, Note_on_c, 1, 65, 0
2, 1040, Note_on_c, 1, 69, 64
2, 1059, Note_on_c, 1, 69, 0
2, 1060, Note_on_c, 1, 72, 64
2, 1079, Note_on_c, 1, 72, 0
2, 1080, Note_on_c, 1, 65, 64
2, 1099, Note_on_c, 1, 65, 0
2, 1100, Note_on_c, 1, 70, 64
2, 1119, Note_on_c, 1, 70, 0
2, 1120, Note_on_c, 1, 74, 64
2, 1139, Note_on_c, 1, 74, 0
2, 1140, Note_on_c, 1, 65, 64
2, 1159, Note_on_c, 1, 65, 0
2, 1160, Note_on_c, 1, 70, 64
2, 1179, Note_on_c, 1, 70, 0
2, 1180, Note_on_c, 1, 74, 64
2, 1199, Note_on_c, 1, 74, 0
2, 1200, Note_on_c, 1, 65, 64
2, 1219, Note_on_c, 1, 65, 0
2, 1220, Note_on_c, 1, 70, 64
2, 1239, Note_on_c, 1, 70, 0
2, 1240, Note_on_c, 1, 74, 64
2, 1259, Note_on_c, 1, 74, 0
2, 1260, Note_on_c, 1, 67, 64
2, 1279, Note_on_c, 1, 67, 0
2, 1280, Note_on_c, 1, 71, 64
2, 1299, Note_on_c, 1, 71, 0
2, 1300, Note_on_c, 1, 74, 64
2, 1319, Note_on_c, 1, 74, 0
2, 1320, Note_on_c, 1, 67, 64
2, 1339, Note_on_c, 1, 67, 0
2, 1340, Note_on_c, 1, 71, 64
2, 1359, Note_on_c, 1, 71, 0
2, 1360, Note_on_c, 1, 74, 64
2, 1379, Note_on_c, 1, 74, 0
2, 1380, Note_on_c, 1, 67, 64
2, 1399, Note_on_c, 1, 67, 0
2, 1400, Note_on_c, 1, 71, 64
2, 1419, Note_on_c, 1, 71, 0
2, 1420, Note_on_c, 1, 74, 64
2, 1439, Note_on_c, 1, 74, 0
2, 1440, Note_on_c, 1, 67, 64
2, 1459, Note_on_c, 1, 67, 0
2, 1460, Note_on_c, 1, 72, 64
2, 1479, Note_on_c, 1, 72, 0
2, 1480, Note_on_c, 1, 76, 64
2, 1499, Note_on_c, 1, 76, 0
2, 1500, Note_on_c, 1, 67, 64
2, 1519, Note_on_c, 1, 67, 0
2, 1520, Note_on_c, 1, 72, 64
2, 1539, Note_on_c, 1, 72, 0
2, 1540, Note_on_c, 1, 76, 64
2, 1559, Note_on_c, 1, 76, 0
2, 1560, Note_on_c, 1, 67, 64
2, 1579, Note_on_c, 1, 67, 0
2, 1580, Note_on_c, 1, 72, 64
2, 1599, Note_on_c, 1, 72, 0
2, 1600, Note_on_c, 1, 76, 64
2, 1619, Note_on_c, 1, 76, 0
2, 1620, Note_on_c, 1, 69, 64
2, 1639, Note_on_c, 1, 69, 0
2, 1640, Note_on_c, 1, 73, 64
2, 1659, Note_on_c, 1, 73, 0
2, 1660, Note_on_c, 1, 76, 64
2, 1679, Note_on_c, 1, 76, 0
2, 1680, Note_on_c, 1, 69, 64
2, 1699, Note_on_c, 1, 69, 0
2, 1700, Note_on_c, 1, 73, 64
2, 1719, Note_on_c, 1, 73, 0
2, 1720, Note_on_c, 1, 76, 64
2, 1739, Note_on_c, 1, 76, 0
2, 1740, Note_on_c, 1, 69, 64
2, 1759, Note_on_c, 1, 69, 0
2, 1760, Note_on_c, 1, 73, 64
2, 1779, Note_on_c, 1, 73, 0
2, 1780, Note_on_c, 1, 76, 64
2, 1799, Note_on_c, 1, 76, 0
2, 1800, Note_on_c, 1, 69, 64
2, 1819, Note_on_c, 1, 69, 0
2, 1820, Note_on_c, 1, 74, 64
2, 1839, Note_on_c, 1, 74, 0
2, 1840, Note_on_c, 1, 77, 64
2, 1859, Note_on_c, 1, 77, 0
2, 1860, Note_on_c, 1, 69, 64
2, 1879, Note_on_c, 1, 69, 0
2, 1880, Note_on_c, 1, 74, 64
2, 1899, Note_on_c, 1, 74, 0
2, 1900, Note_on_c, 1, 77, 64
2, 1919, Note_on_c, 1, 77, 0
2, 1920, Note_on_c, 1, 69, 64
2, 1939, Note_on_c, 1, 69, 0
2, 1940, Note_on_c, 1, 74, 64
2, 1959, Note_on_c, 1, 74, 0
2, 1960, Note_on_c, 1, 77, 64
2, 1979, Note_on_c, 1, 77, 0
2, 1980, Note_on_c, 1, 70, 64
2, 1999, Note_on_c, 1, 70, 0
2, 2000, Note_on_c, 1, 74, 64
2, 2019, Note_on_c, 1, 74, 0
2, 2020, Note_on_c, 1, 79, 64
2, 2039, Note_on_c, 1, 79, 0
2, 2040, Note_on_c, 1, 70, 64
2, 2059, Note_on_c, 1, 70, 0
2, 2060, Note_on_c, 1, 74, 64
2, 2079, Note_on_c, 1, 74, 0
2, 2080, Note_on_c, 1, 79, 64
2, 2099, Note_on_c, 1, 79, 0
2, 2100, Note_on_c, 1, 70, 64
2, 2119, Note_on_c, 1, 70, 0
2, 2120, Note_on_c, 1, 74, 64
2, 2139, Note_on_c, 1, 74, 0
2, 2140, Note_on_c, 1, 79, 64
2, 2159, Note_on_c, 1, 79, 0
2, 2160, Note_on_c, 1, 76, 64
2, 2189, Note_on_c, 1, 76, 0
2, 2190, Note_on_c, 1, 72, 64
2, 2219, Note_on_c, 1, 72, 0
2, 2220, Note_on_c, 1, 74, 64
2, 2249, Note_on_c, 1, 74, 0
2, 2250, Note_on_c, 1, 76, 64
2, 2279, Note_on_c, 1, 76, 0
2, 2280, Note_on_c, 1, 77, 64
2, 2369, Note_on_c, 1, 77, 0
2, 2370, Note_on_c, 1, 70, 64
2, 2399, Note_on_c, 1, 70, 0
2, 2400, Note_on_c, 1, 69, 64
2, 2414, Note_on_c, 1, 69, 0
2, 2415, Note_on_c, 1, 67, 64
2, 2429, Note_on_c, 1, 67, 0
2, 2430, Note_on_c, 1, 69, 64
2, 2444, Note_on_c, 1, 69, 0
2, 2445, Note_on_c, 1, 67, 64
2, 2459, Note_on_c, 1, 67, 0
2, 2460, Note_on_c, 1, 69, 64
2, 2474, Note_on_c, 1, 69, 0
2, 2475, Note_on_c, 1, 67, 64
2, 2504, Note_on_c, 1, 67, 0
2, 2505, Note_on_c, 1, 65, 64
2, 2519, Note_on_c, 1, 65, 0
2, 2520, Note_on_c, 1, 65, 64
2, 2669, Note_on_c, 1, 65, 0
2, 2700, Note_on_c, 1, 69, 64
2, 2759, Note_on_c, 1, 69, 0
2, 2760, Note_on_c, 1, 72, 64
2, 2819, Note_on_c, 1, 72, 0
2, 2820, Note_on_c, 1, 69, 64
2, 2879, Note_on_c, 1, 69, 0
2, 2880, Note_on_c, 1, 67, 64
2, 2939, Note_on_c, 1, 67, 0
2, 2940, Note_on_c, 1, 72, 64
2, 2999, Note_on_c, 1, 72, 0
2, 3000, Note_on_c, 1, 67, 64
2, 3059, Note_on_c, 1, 67, 0
2, 3060, Note_on_c, 1, 69, 64
2, 3119, Note_on_c, 1, 69, 0
2, 3120, Note_on_c, 1, 72, 64
2, 3179, Note_on_c, 1, 72, 0
2, 3180, Note_on_c, 1, 69, 64
2, 3239, Note_on_c, 1, 69, 0
2, 3240, Note_on_c, 1, 64, 64
2, 3240, Note_on_c, 1, 67, 64
2, 3269, Note_on_c, 1, 67, 0
2, 3269, Note_on_c, 1, 64, 0
2, 3270, Note_on_c, 1, 65, 64
2, 3270, Note_on_c, 1, 62, 64
2, 3299, Note_on_c, 1, 62, 0
2, 3299, Note_on_c, 1, 65, 0
2, 3300, Note_on_c, 1, 67, 64
2, 3300, Note_on_c, 1, 64, 64
2, 3389, Note_on_c, 1, 64, 0
2, 3389, Note_on_c, 1, 67, 0
2, 3420, Note_on_c, 1, 70, 64
2, 3479, Note_on_c, 1, 70, 0
2, 3480, Note_on_c, 1, 74, 64
2, 3539, Note_on_c, 1, 74, 0
2, 3540, Note_on_c, 1, 70, 64
2, 3599, Note_on_c, 1, 70, 0
2, 3600, Note_on_c, 1, 69, 64
2, 3659, Note_on_c, 1, 69, 0
2, 3660, Note_on_c, 1, 74, 64
2, 3719, Note_on_c, 1, 74, 0
2, 3720, Note_on_c, 1, 69, 64
2, 3779, Note_on_c, 1, 69, 0
2, 3780, Note_on_c, 1, 70, 64
2, 3839, Note_on_c, 1, 70, 0
2, 3840, Note_on_c, 1, 74, 64
2, 3899, Note_on_c, 1, 74, 0
2, 3900, Note_on_c, 1, 70, 64
2, 3959, Note_on_c, 1, 70, 0
2, 3960, Note_on_c, 1, 66, 64
2, 3960, Note_on_c, 1, 69, 64
2, 3989, Note_on_c, 1, 69, 0
2, 3989, Note_on_c, 1, 66, 0
2, 3990, Note_on_c, 1, 64, 64
2, 3990, Note_on_c, 1, 67, 64
2, 4019, Note_on_c, 1, 67, 0
2, 4019, Note_on_c, 1, 64, 0
2, 4020, Note_on_c, 1, 69, 64
2, 4020, Note_on_c, 1, 66, 64
2, 4109, Note_on_c, 1, 66, 0
2, 4109, Note_on_c, 1, 69, 0
2, 4140, Note_on_c, 1, 62, 64
2, 4159, Note_on_c, 1, 62, 0
2, 4160, Note_on_c, 1, 67, 64
2, 4179, Note_on_c, 1, 67, 0
2, 4180, Note_on_c, 1, 70, 64
2, 4199, Note_on_c, 1, 70, 0
2, 4200, Note_on_c, 1, 62, 64
2, 4219, Note_on_c, 1, 62, 0
2, 4220, Note_on_c, 1, 67, 64
2, 4239, Note_on_c, 1, 67, 0
2, 4240, Note_on_c, 1, 70, 64
2, 4259, Note_on_c, 1, 70, 0
2, 4260, Note_on_c, 1, 62, 64
2, 4279, Note_on_c, 1, 62, 0
2, 4280, Note_on_c, 1, 67, 64
2, 4299, Note_on_c, 1, 67, 0
2, 4300, Note_on_c, 1, 70, 64
2, 4319, Note_on_c, 1, 70, 0
2, 4320, Note_on_c, 1, 66, 64
2, 4339, Note_on_c, 1, 66, 0
2, 4340, Note_on_c, 1, 69, 64
2, 4359, Note_on_c, 1, 69, 0
2, 4360, Note_on_c, 1, 72, 64
2, 4379, Note_on_c, 1, 72, 0
2, 4380, Note_on_c, 1, 66, 64
2, 4399, Note_on_c, 1, 66, 0
2, 4400, Note_on_c, 1, 69, 64
2, 4419, Note_on_c, 1, 69, 0
2, 4420, Note_on_c, 1, 72, 64
2, 4439, Note_on_c, 1, 72, 0
2, 4440, Note_on_c, 1, 66, 64
2, 4459, Note_on_c, 1, 66, 0
2, 4460, Note_on_c, 1, 69, 64
2, 4479, Note_on_c, 1, 69, 0
2, 4480, Note_on_c, 1, 72, 64
2, 4499, Note_on_c, 1, 72, 0
2, 4500, Note_on_c, 1, 62, 64
2, 4519, Note_on_c, 1, 62, 0
2, 4520, Note_on_c, 1, 67, 64
2, 4539, Note_on_c, 1, 67, 0
2, 4540, Note_on_c, 1, 70, 64
2, 4559, Note_on_c, 1, 70, 0
2, 4560, Note_on_c, 1, 62, 64
2, 4579, Note_on_c, 1, 62, 0
2, 4580, Note_on_c, 1, 67, 64
2, 4599, Note_on_c, 1, 67, 0
2, 4600, Note_on_c, 1, 70, 64
2, 4619, Note_on_c, 1, 70, 0
2, 4620, Note_on_c, 1, 62, 64
2, 4639, Note_on_c, 1, 62, 0
2, 4640, Note_on_c, 1, 67, 64
2, 4659, Note_on_c, 1, 67, 0
2, 4660, Note_on_c, 1, 70, 64
2, 4679, Note_on_c, 1, 70, 0
2, 4680, Note_on_c, 1, 61, 64
2, 4699, Note_on_c, 1, 61, 0
2, 4700, Note_on_c, 1, 64, 64
2, 4719, Note_on_c, 1, 64, 0
2, 4720, Note_on_c, 1, 69, 64
2, 4739, Note_on_c, 1, 69, 0
2, 4740, Note_on_c, 1, 61, 64
2, 4759, Note_on_c, 1, 61, 0
2, 4760, Note_on_c, 1, 64, 64
2, 4779, Note_on_c, 1, 64, 0
2, 4780, Note_on_c, 1, 69, 64
2, 4799, Note_on_c, 1, 69, 0
2, 4800, Note_on_c, 1, 62, 64
2, 4819, Note_on_c, 1, 62, 0
2, 4820, Note_on_c, 1, 65, 64
2, 4839, Note_on_c, 1, 65, 0
2, 4840, Note_on_c, 1, 69, 64
2, 4859, Note_on_c, 1, 69, 0
2, 4860, Note_on_c, 1, 67, 64
2, 4889, Note_on_c, 1, 67, 0
2, 4890, Note_on_c, 1, 65, 64
2, 4919, Note_on_c, 1, 65, 0
2, 4920, Note_on_c, 1, 64, 64
2, 4949, Note_on_c, 1, 64, 0
2, 4950, Note_on_c, 1, 74, 64
2, 4979, Note_on_c, 1, 74, 0
2, 4980, Note_on_c, 1, 73, 64
2, 5009, Note_on_c, 1, 73, 0
2, 5010, Note_on_c, 1, 67, 64
2, 5039, Note_on_c, 1, 67, 0
2, 5040, Note_on_c, 1, 74, 64
2, 5040, Note_on_c, 1, 65, 64
2, 5189, Note_on_c, 1, 65, 0
2, 5189, Note_on_c, 1, 74, 0
2, 5220, Note_on_c, 1, 60, 64
2, 5239, Note_on_c, 1, 60, 0
2, 5240, Note_on_c, 1, 65, 64
2, 5259, Note_on_c, 1, 65, 0
2, 5260, Note_on_c, 1, 69, 64
2, 5279, Note_on_c, 1, 69, 0
2, 5280, Note_on_c, 1, 60, 64
2, 5299, Note_on_c, 1, 60, 0
2, 5300, Note_on_c, 1, 65, 64
2, 5319, Note_on_c, 1, 65, 0
2, 5320, Note_on_c, 1, 69, 64
2, 5339, Note_on_c, 1, 69, 0
2, 5340, Note_on_c, 1, 60, 64
2, 5359, Note_on_c, 1, 60, 0
2, 5360, Note_on_c, 1, 65, 64
2, 5379, Note_on_c, 1, 65, 0
2, 5380, Note_on_c, 1, 69, 64
2, 5399, Note_on_c, 1, 69, 0
2, 5400, Note_on_c, 1, 64, 64
2, 5419, Note_on_c, 1, 64, 0
2, 5420, Note_on_c, 1, 67, 64
2, 5439, Note_on_c, 1, 67, 0
2, 5440, Note_on_c, 1, 70, 64
2, 5459, Note_on_c, 1, 70, 0
2, 5460, Note_on_c, 1, 64, 64
2, 5479, Note_on_c, 1, 64, 0
2, 5480, Note_on_c, 1, 67, 64
2, 5499, Note_on_c, 1, 67, 0
2, 5500, Note_on_c, 1, 70, 64
2, 5519, Note_on_c, 1, 70, 0
2, 5520, Note_on_c, 1, 64, 64
2, 5539, Note_on_c, 1, 64, 0
2, 5540, Note_on_c, 1, 67, 64
2, 5559, Note_on_c, 1, 67, 0
2, 5560, Note_on_c, 1, 70, 64
2, 5579, Note_on_c, 1, 70, 0
2, 5580, Note_on_c, 1, 60, 64
2, 5599, Note_on_c, 1, 60, 0
2, 5600, Note_on_c, 1, 65, 64
2, 5619, Note_on_c, 1, 65, 0
2, 5620, Note_on_c, 1, 69, 64
2, 5639, Note_on_c, 1, 69, 0
2, 5640, Note_on_c, 1, 60, 64
2, 5659, Note_on_c, 1, 60, 0
2, 5660, Note_on_c, 1, 65, 64
2, 5679, Note_on_c, 1, 65, 0
2, 5680, Note_on_c, 1, 69, 64
2, 5699, Note_on_c, 1, 69, 0
2, 5700, Note_on_c, 1, 60, 64
2, 5719, Note_on_c, 1, 60, 0
2, 5720, Note_on_c, 1, 65, 64
2, 5739, Note_on_c, 1, 65, 0
2, 5740, Note_on_c, 1, 69, 64
2, 5759, Note_on_c, 1, 69, 0
2, 5760, Note_on_c, 1, 59, 64
2, 5779, Note_on_c, 1, 59, 0
2, 5780, Note_on_c, 1, 62, 64
2, 5799, Note_on_c, 1, 62, 0
2, 5800, Note_on_c, 1, 67, 64
2, 5819, Note_on_c, 1, 67, 0
2, 5820, Note_on_c, 1, 59, 64
2, 5839, Note_on_c, 1, 59, 0
2, 5840, Note_on_c, 1, 62, 64
2, 5859, Note_on_c, 1, 62, 0
2, 5860, Note_on_c, 1, 67, 64
2, 5879, Note_on_c, 1, 67, 0
2, 5880, Note_on_c, 1, 60, 64
2, 5899, Note_on_c, 1, 60, 0
2, 5900, Note_on_c, 1, 64, 64
2, 5919, Note_on_c, 1, 64, 0
2, 5920, Note_on_c, 1, 67, 64
2, 5939, Note_on_c, 1, 67, 0
2, 5940, Note_on_c, 1, 65, 64
2, 5969, Note_on_c, 1, 65, 0
2, 5970, Note_on_c, 1, 64, 64
2, 5999, Note_on_c, 1, 64, 0
2, 6000, Note_on_c, 1, 62, 64
2, 6029, Note_on_c, 1, 62, 0
2, 6030, Note_on_c, 1, 72, 64
2, 6059, Note_on_c, 1, 72, 0
2, 6060, Note_on_c, 1, 71, 64
2, 6089, Note_on_c, 1, 71, 0
2, 6090, Note_on_c, 1, 65, 64
2, 6119, Note_on_c, 1, 65, 0
2, 6120, Note_on_c, 1, 64, 64
2, 6120, Note_on_c, 1, 72, 64
2, 6269, Note_on_c, 1, 72, 0
2, 6269, Note_on_c, 1, 64, 0
2, 6300, Note_on_c, 1, 60, 64
2, 6319, Note_on_c, 1, 60, 0
2, 6320, Note_on_c, 1, 64, 64
2, 6339, Note_on_c, 1, 64, 0
2, 6340, Note_on_c, 1, 67, 64
2, 6359, Note_on_c, 1, 67, 0
2, 6360, Note_on_c, 1, 60, 64
2, 6379, Note_on_c, 1, 60, 0
2, 6380, Note_on_c, 1, 64, 64
2, 6399, Note_on_c, 1, 64, 0
2, 6400, Note_on_c, 1, 67, 64
2, 6419, Note_on_c, 1, 67, 0
2, 6420, Note_on_c, 1, 60, 64
2, 6439, Note_on_c, 1, 60, 0
2, 6440, Note_on_c, 1, 64, 64
2, 6459, Note_on_c, 1, 64, 0
2, 6460, Note_on_c, 1, 67, 64
2, 6479, Note_on_c, 1, 67, 0
2, 6480, Note_on_c, 1, 60, 64
2, 6499, Note_on_c, 1, 60, 0
2, 6500, Note_on_c, 1, 65, 64
2, 6519, Note_on_c, 1, 65, 0
2, 6520, Note_on_c, 1, 69, 64
2, 6539, Note_on_c, 1, 69, 0
2, 6540, Note_on_c, 1, 60, 64
2, 6559, Note_on_c, 1, 60, 0
2, 6560, Note_on_c, 1, 65, 64
2, 6579, Note_on_c, 1, 65, 0
2, 6580, Note_on_c, 1, 69, 64
2, 6599, Note_on_c, 1, 69, 0
2, 6600, Note_on_c, 1, 60, 64
2, 6619, Note_on_c, 1, 60, 0
2, 6620, Note_on_c, 1, 65, 64
2, 6639, Note_on_c, 1, 65, 0
2, 6640, Note_on_c, 1, 69, 64
2, 6659, Note_on_c, 1, 69, 0
2, 6660, Note_on_c, 1, 62, 64
2, 6679, Note_on_c, 1, 62, 0
2, 6680, Note_on_c, 1, 66, 64
2, 6699, Note_on_c, 1, 66, 0
2, 6700, Note_on_c, 1, 69, 64
2, 6719, Note_on_c, 1, 69, 0
2, 6720, Note_on_c, 1, 62, 64
2, 6739, Note_on_c, 1, 62, 0
2, 6740, Note_on_c, 1, 66, 64
2, 6759, Note_on_c, 1, 66, 0
2, 6760, Note_on_c, 1, 69, 64
2, 6779, Note_on_c, 1, 69, 0
2, 6780, Note_on_c, 1, 62, 64
2, 6799, Note_on_c, 1, 62, 0
2, 6800, Note_on_c, 1, 66, 64
2, 6819, Note_on_c, 1, 66, 0
2, 6820, Note_on_c, 1, 69, 64
2, 6839, Note_on_c, 1, 69, 0
2, 6840, Note_on_c, 1, 62, 64
2, 6859, Note_on_c, 1, 62, 0
2, 6860, Note_on_c, 1, 67, 64
2, 6879, Note_on_c, 1, 67, 0
2, 6880, Note_on_c, 1, 71, 64
2, 6899, Note_on_c, 1, 71, 0
2, 6900, Note_on_c, 1, 62, 64
2, 6919, Note_on_c, 1, 62, 0
2, 6920, Note_on_c, 1, 67, 64
2, 6939, Note_on_c, 1, 67, 0
2, 6940, Note_on_c, 1, 71, 64
2, 6959, Note_on_c, 1, 71, 0
2, 6960, Note_on_c, 1, 62, 64
2, 6979, Note_on_c, 1, 62, 0
2, 6980, Note_on_c, 1, 67, 64
2, 6999, Note_on_c, 1, 67, 0
2, 7000, Note_on_c, 1, 71, 64
2, 7019, Note_on_c, 1, 71, 0
2, 7020, Note_on_c, 1, 64, 64
2, 7039, Note_on_c, 1, 64, 0
2, 7040, Note_on_c, 1, 68, 64
2, 7059, Note_on_c, 1, 68, 0
2, 7060, Note_on_c, 1, 71, 64
2, 7079, Note_on_c, 1, 71, 0
2, 7080, Note_on_c, 1, 64, 64
2, 7099, Note_on_c, 1, 64, 0
2, 7100, Note_on_c, 1, 68, 64
2, 7119, Note_on_c, 1, 68, 0
2, 7120, Note_on_c, 1, 71, 64
2, 7139, Note_on_c, 1, 71, 0
2, 7140, Note_on_c, 1, 64, 64
2, 7159, Note_on_c, 1, 64, 0
2, 7160, Note_on_c, 1, 68, 64
2, 7179, Note_on_c, 1, 68, 0
2, 7180, Note_on_c, 1, 71, 64
2, 7199, Note_on_c, 1, 71, 0
2, 7200, Note_on_c, 1, 64, 64
2, 7219, Note_on_c, 1, 64, 0
2, 7220, Note_on_c, 1, 69, 64
2, 7239, Note_on_c, 1, 69, 0
2, 7240, Note_on_c, 1, 72, 64
2, 7259, Note_on_c, 1, 72, 0
2, 7260, Note_on_c, 1, 64, 64
2, 7279, Note_on_c, 1, 64, 0
2, 7280, Note_on_c, 1, 69, 64
2, 7299, Note_on_c, 1, 69, 0
2, 7300, Note_on_c, 1, 72, 64
2, 7319, Note_on_c, 1, 72, 0
2, 7320, Note_on_c, 1, 64, 64
2, 7339, Note_on_c, 1, 64, 0
2, 7340, Note_on_c, 1, 69, 64
2, 7359, Note_on_c, 1, 69, 0
2, 7360, Note_on_c, 1, 72, 64
2, 7379, Note_on_c, 1, 72, 0
2, 7380, Note_on_c, 1, 66, 64
2, 7399, Note_on_c, 1, 66, 0
2, 7400, Note_on_c, 1, 69, 64
2, 7419, Note_on_c, 1, 69, 0
2, 7420, Note_on_c, 1, 71, 64
2, 7439, Note_on_c, 1, 71, 0
2, 7440, Note_on_c, 1, 66, 64
2, 7459, Note_on_c, 1, 66, 0
2, 7460, Note_on_c, 1, 69, 64
2, 7479, Note_on_c, 1, 69, 0
2, 7480, Note_on_c, 1, 71, 64
2, 7499, Note_on_c, 1, 71, 0
2, 7500, Note_on_c, 1, 66, 64
2, 7519, Note_on_c, 1, 66, 0
2, 7520, Note_on_c, 1, 69, 64
2, 7539, Note_on_c, 1, 69, 0
2, 7540, Note_on_c, 1, 71, 64
2, 7559, Note_on_c, 1, 71, 0
2, 7560, Note_on_c, 1, 68, 64
2, 7589, Note_on_c, 1, 68, 0
2, 7590, Note_on_c, 1, 64, 64
2, 7619, Note_on_c, 1, 64, 0
2, 7620, Note_on_c, 1, 66, 64
2, 7649, Note_on_c, 1, 66, 0
2, 7650, Note_on_c, 1, 68, 64
2, 7679, Note_on_c, 1, 68, 0
2, 7680, Note_on_c, 1, 69, 64
2, 7709, Note_on_c, 1, 69, 0
2, 7710, Note_on_c, 1, 71, 64
2, 7739, Note_on_c, 1, 71, 0
2, 7740, Note_on_c, 1, 72, 64
2, 7769, Note_on_c, 1, 72, 0
2, 7770, Note_on_c, 1, 74, 64
2, 7799, Note_on_c, 1, 74, 0
2, 7800, Note_on_c, 1, 72, 64
2, 7814, Note_on_c, 1, 72, 0
2, 7815, Note_on_c, 1, 71, 64
2, 7829, Note_on_c, 1, 71, 0
2, 7830, Note_on_c, 1, 72, 64
2, 7844, Note_on_c, 1, 72, 0
2, 7845, Note_on_c, 1, 71, 64
2, 7859, Note_on_c, 1, 71, 0
2, 7860, Note_on_c, 1, 72, 64
2, 7874, Note_on_c, 1, 72, 0
2, 7875, Note_on_c, 1, 71, 64
2, 7904, Note_on_c, 1, 71, 0
2, 7905, Note_on_c, 1, 69, 64
2, 7912, Note_on_c, 1, 69, 0
2, 7920, Note_on_c, 1, 69, 64
2, 7920, Note_on_c, 1, 64, 64
2, 8069, Note_on_c, 1, 64, 0
2, 8069, Note_on_c, 1, 69, 0
2, 8100, Note_on_c, 1, 65, 64
2, 8129, Note_on_c, 1, 65, 0
2, 8130, Note_on_c, 1, 64, 64
2, 8159, Note_on_c, 1, 64, 0
2, 8160, Note_on_c, 1, 65, 64
2, 8189, Note_on_c, 1, 65, 0
2, 8190, Note_on_c, 1, 67, 64
2, 8219, Note_on_c, 1, 67, 0
2, 8220, Note_on_c, 1, 69, 64
2, 8249, Note_on_c, 1, 69, 0
2, 8250, Note_on_c, 1, 70, 64
2, 8279, Note_on_c, 1, 70, 0
2, 8280, Note_on_c, 1, 72, 64
2, 8280, Note_on_c, 1, 69, 64
2, 8309, Note_on_c, 1, 69, 0
2, 8309, Note_on_c, 1, 72, 0
2, 8340, Note_on_c, 1, 72, 64
2, 8340, Note_on_c, 1, 69, 64
2, 8369, Note_on_c, 1, 69, 0
2, 8369, Note_on_c, 1, 72, 0
2, 8400, Note_on_c, 1, 72, 64
2, 8400, Note_on_c, 1, 69, 64
2, 8429, Note_on_c, 1, 69, 0
2, 8429, Note_on_c, 1, 72, 0
2, 8460, Note_on_c, 1, 72, 64
2, 8460, Note_on_c, 1, 69, 64
2, 8519, Note_on_c, 1, 69, 0
2, 8519, Note_on_c, 1, 72, 0
2, 8520, Note_on_c, 1, 74, 64
2, 8520, Note_on_c, 1, 70, 64
2, 8549, Note_on_c, 1, 70, 0
2, 8549, Note_on_c, 1, 74, 0
2, 8550, Note_on_c, 1, 72, 64
2, 8550, Note_on_c, 1, 69, 64
2, 8579, Note_on_c, 1, 69, 0
2, 8579, Note_on_c, 1, 72, 0
2, 8580, Note_on_c, 1, 70, 64
2, 8580, Note_on_c, 1, 67, 64
2, 8609, Note_on_c, 1, 67, 0
2, 8609, Note_on_c, 1, 70, 0
2, 8610, Note_on_c, 1, 69, 64
2, 8610, Note_on_c, 1, 65, 64
2, 8639, Note_on_c, 1, 65, 0
2, 8639, Note_on_c, 1, 69, 0
2, 8640, Note_on_c, 1, 67, 64
2, 8640, Note_on_c, 1, 64, 64
2, 8819, Note_on_c, 1, 64, 0
2, 8819, Note_on_c, 1, 67, 0
2, 8820, Note_on_c, 1, 65, 64
2, 8839, Note_on_c, 1, 65, 0
2, 8840, Note_on_c, 1, 69, 64
2, 8859, Note_on_c, 1, 69, 0
2, 8860, Note_on_c, 1, 72, 64
2, 8879, Note_on_c, 1, 72, 0
2, 8880, Note_on_c, 1, 65, 64
2, 8899, Note_on_c, 1, 65, 0
2, 8900, Note_on_c, 1, 69, 64
2, 8919, Note_on_c, 1, 69, 0
2, 8920, Note_on_c, 1, 72, 64
2, 8939, Note_on_c, 1, 72, 0
2, 8940, Note_on_c, 1, 65, 64
2, 8959, Note_on_c, 1, 65, 0
2, 8960, Note_on_c, 1, 69, 64
2, 8979, Note_on_c, 1, 69, 0
2, 8980, Note_on_c, 1, 72, 64
2, 8999, Note_on_c, 1, 72, 0
2, 9000, Note_on_c, 1, 65, 64
2, 9019, Note_on_c, 1, 65, 0
2, 9020, Note_on_c, 1, 70, 64
2, 9039, Note_on_c, 1, 70, 0
2, 9040, Note_on_c, 1, 74, 64
2, 9059, Note_on_c, 1, 74, 0
2, 9060, Note_on_c, 1, 65, 64
2, 9079, Note_on_c, 1, 65, 0
2, 9080, Note_on_c, 1, 70, 64
2, 9099, Note_on_c, 1, 70, 0
2, 9100, Note_on_c, 1, 74, 64
2, 9119, Note_on_c, 1, 74, 0
2, 9120, Note_on_c, 1, 65, 64
2, 9139, Note_on_c, 1, 65, 0
2, 9140, Note_on_c, 1, 70, 64
2, 9159, Note_on_c, 1, 70, 0
2, 9160, Note_on_c, 1, 74, 64
2, 9179, Note_on_c, 1, 74, 0
2, 9180, Note_on_c, 1, 67, 64
2, 9199, Note_on_c, 1, 67, 0
2, 9200, Note_on_c, 1, 71, 64
2, 9219, Note_on_c, 1, 71, 0
2, 9220, Note_on_c, 1, 74, 64
2, 9239, Note_on_c, 1, 74, 0
2, 9240, Note_on_c, 1, 67, 64
2, 9259, Note_on_c, 1, 67, 0
2, 9260, Note_on_c, 1, 71, 64
2, 9279, Note_on_c, 1, 71, 0
2, 9280, Note_on_c, 1, 74, 64
2, 9299, Note_on_c, 1, 74, 0
2, 9300, Note_on_c, 1, 67, 64
2, 9319, Note_on_c, 1, 67, 0
2, 9320, Note_on_c, 1, 71, 64
2, 9339, Note_on_c, 1, 71, 0
2, 9340, Note_on_c, 1, 74, 64
2, 9359, Note_on_c, 1, 74, 0
2, 9360, Note_on_c, 1, 67, 64
2, 9379, Note_on_c, 1, 67, 0
2, 9380, Note_on_c, 1, 72, 64
2, 9399, Note_on_c, 1, 72, 0
2, 9400, Note_on_c, 1, 76, 64
2, 9419, Note_on_c, 1, 76, 0
2, 9420, Note_on_c, 1, 67, 64
2, 9439, Note_on_c, 1, 67, 0
2, 9440, Note_on_c, 1, 72, 64
2, 9459, Note_on_c, 1, 72, 0
2, 9460, Note_on_c, 1, 76, 64
2, 9479, Note_on_c, 1, 76, 0
2, 9480, Note_on_c, 1, 67, 64
2, 9499, Note_on_c, 1, 67, 0
2, 9500, Note_on_c, 1, 72, 64
2, 9519, Note_on_c, 1, 72, 0
2, 9520, Note_on_c, 1, 76, 64
2, 9539, Note_on_c, 1, 76, 0
2, 9540, Note_on_c, 1, 69, 64
2, 9559, Note_on_c, 1, 69, 0
2, 9560, Note_on_c, 1, 73, 64
2, 9579, Note_on_c, 1, 73, 0
2, 9580, Note_on_c, 1, 76, 64
2, 9599, Note_on_c, 1, 76, 0
2, 9600, Note_on_c, 1, 69, 64
2, 9619, Note_on_c, 1, 69, 0
2, 9620, Note_on_c, 1, 73, 64
2, 9639, Note_on_c, 1, 73, 0
2, 9640, Note_on_c, 1, 76, 64
2, 9659, Note_on_c, 1, 76, 0
2, 9660, Note_on_c, 1, 69, 64
2, 9679, Note_on_c, 1, 69, 0
2, 9680, Note_on_c, 1, 73, 64
2, 9699, Note_on_c, 1, 73, 0
2, 9700, Note_on_c, 1, 76, 64
2, 9719, Note_on_c, 1, 76, 0
2, 9720, Note_on_c, 1, 69, 64
2, 9739, Note_on_c, 1, 69, 0
2, 9740, Note_on_c, 1, 74, 64
2, 9759, Note_on_c, 1, 74, 0
2, 9760, Note_on_c, 1, 77, 64
2, 9779, Note_on_c, 1, 77, 0
2, 9780, Note_on_c, 1, 69, 64
2, 9799, Note_on_c, 1, 69, 0
2, 9800, Note_on_c, 1, 74, 64
2, 9819, Note_on_c, 1, 74, 0
2, 9820, Note_on_c, 1, 77, 64
2, 9839, Note_on_c, 1, 77, 0
2, 9840, Note_on_c, 1, 69, 64
2, 9859, Note_on_c, 1, 69, 0
2, 9860, Note_on_c, 1, 74, 64
2, 9879, Note_on_c, 1, 74, 0
2, 9880, Note_on_c, 1, 77, 64
2, 9899, Note_on_c, 1, 77, 0
2, 9900, Note_on_c, 1, 70, 64
2, 9919, Note_on_c, 1, 70, 0
2, 9920, Note_on_c, 1, 74, 64
2, 9939, Note_on_c, 1, 74, 0
2, 9940, Note_on_c, 1, 79, 64
2, 9959, Note_on_c, 1, 79, 0
2, 9960, Note_on_c, 1, 70, 64
2, 9979, Note_on_c, 1, 70, 0
2, 9980, Note_on_c, 1, 74, 64
2, 9999, Note_on_c, 1, 74, 0
2, 10000, Note_on_c, 1, 79, 64
2, 10019, Note_on_c, 1, 79, 0
2, 10020, Note_on_c, 1, 70, 64
2, 10039, Note_on_c, 1, 70, 0
2, 10040, Note_on_c, 1, 74, 64
2, 10059, Note_on_c, 1, 74, 0
2, 10060, Note_on_c, 1, 79, 64
2, 10079, Note_on_c, 1, 79, 0
2, 10080, Note_on_c, 1, 76, 64
2, 10109, Note_on_c, 1, 76, 0
2, 10110, Note_on_c, 1, 72, 64
2, 10139, Note_on_c, 1, 72, 0
2, 10140, Note_on_c, 1, 74, 64
2, 10169, Note_on_c, 1, 74, 0
2, 10170, Note_on_c, 1, 76, 64
2, 10199, Note_on_c, 1, 76, 0
2, 10200, Note_on_c, 1, 77, 64
2, 10289, Note_on_c, 1, 77, 0
2, 10290, Note_on_c, 1, 70, 64
2, 10319, Note_on_c, 1, 70, 0
2, 10320, Note_on_c, 1, 69, 64
2, 10334, Note_on_c, 1, 69, 0
2, 10335, Note_on_c, 1, 67, 64
2, 10349, Note_on_c, 1, 67, 0
2, 10350, Note_on_c, 1, 69, 64
2, 10364, Note_on_c, 1, 69, 0
2, 10365, Note_on_c, 1, 67, 64
2, 10379, Note_on_c, 1, 67, 0
2, 10380, Note_on_c, 1, 69, 64
2, 10394, Note_on_c, 1, 69, 0
2, 10395, Note_on_c, 1, 67, 64
2, 10424, Note_on_c, 1, 67, 0
2, 10425, Note_on_c, 1, 65, 64
2, 10432, Note_on_c, 1, 65, 0
2, 10440, Note_on_c, 1, 65, 64
2, 10739, Note_on_c, 1, 65, 0
2, 12180, Note_on_c, 1, 60, 64
2, 12239, Note_on_c, 1, 60, 0
2, 12240, Note_on_c, 1, 62, 64
2, 12299, Note_on_c, 1, 62, 0
2, 12300, Note_on_c, 1, 60, 64
2, 12359, Note_on_c, 1, 60, 0
2, 12360, Note_on_c, 1, 62, 64
2, 12419, Note_on_c, 1, 62, 0
2, 12420, Note_on_c, 1, 64, 64
2, 12479, Note_on_c, 1, 64, 0
2, 12480, Note_on_c, 1, 65, 64
2, 12509, Note_on_c, 1, 65, 0
2, 12510, Note_on_c, 1, 67, 64
2, 12539, Note_on_c, 1, 67, 0
2, 12540, Note_on_c, 1, 65, 64
2, 12569, Note_on_c, 1, 65, 0
2, 12570, Note_on_c, 1, 67, 64
2, 12599, Note_on_c, 1, 67, 0
2, 12600, Note_on_c, 1, 65, 64
2, 12629, Note_on_c, 1, 65, 0
2, 12630, Note_on_c, 1, 67, 64
2, 12659, Note_on_c, 1, 67, 0
2, 12660, Note_on_c, 1, 65, 64
2, 12689, Note_on_c, 1, 65, 0
2, 12690, Note_on_c, 1, 67, 64
2, 12719, Note_on_c, 1, 67, 0
2, 12720, Note_on_c, 1, 64, 64
2, 12749, Note_on_c, 1, 64, 0
2, 12750, Note_on_c, 1, 65, 64
2, 12779, Note_on_c, 1, 65, 0
2, 12780, Note_on_c, 1, 64, 64
2, 12809, Note_on_c, 1, 64, 0
2, 12810, Note_on_c, 1, 65, 64
2, 12839, Note_on_c, 1, 65, 0
2, 12840, Note_on_c, 1, 64, 64
2, 12869, Note_on_c, 1, 64, 0
2, 12870, Note_on_c, 1, 65, 64
2, 12899, Note_on_c, 1, 65, 0
2, 12900, Note_on_c, 1, 64, 64
2, 12929, Note_on_c, 1, 64, 0
2, 12930, Note_on_c, 1, 65, 64
2, 12959, Note_on_c, 1, 65, 0
2, 12960, Note_on_c, 1, 62, 64
2, 13019, Note_on_c, 1, 62, 0
2, 13020, Note_on_c, 1, 64, 64
2, 13049, Note_on_c, 1, 64, 0
2, 13050, Note_on_c, 1, 65, 64
2, 13079, Note_on_c, 1, 65, 0
2, 13080, Note_on_c, 1, 67, 64
2, 13139, Note_on_c, 1, 67, 0
2, 13140, Note_on_c, 1, 65, 64
2, 13199, Note_on_c, 1, 65, 0
2, 13200, Note_on_c, 1, 64, 64
2, 13259, Note_on_c, 1, 64, 0
2, 13260, Note_on_c, 1, 60, 64
2, 13319, Note_on_c, 1, 60, 0
2, 13320, Note_on_c, 1, 65, 64
2, 13559, Note_on_c, 1, 65, 0
2, 13560, Note_on_c, 1, 65, 64
2, 13574, Note_on_c, 1, 65, 0
2, 13575, Note_on_c, 1, 64, 64
2, 13589, Note_on_c, 1, 64, 0
2, 13590, Note_on_c, 1, 65, 64
2, 13604, Note_on_c, 1, 65, 0
2, 13605, Note_on_c, 1, 64, 64
2, 13619, Note_on_c, 1, 64, 0
2, 13620, Note_on_c, 1, 65, 64
2, 13634, Note_on_c, 1, 65, 0
2, 13635, Note_on_c, 1, 64, 64
2, 13679, Note_on_c, 1, 64, 0
2, 13680, Note_on_c, 1, 65, 64
2, 13799, Note_on_c, 1, 65, 0
2, 13860, Note_on_c, 1, 65, 64
2, 13919, Note_on_c, 1, 65, 0
2, 13920, Note_on_c, 1, 67, 64
2, 13979, Note_on_c, 1, 67, 0
2, 13980, Note_on_c, 1, 65, 64
2, 14039, Note_on_c, 1, 65, 0
2, 14040, Note_on_c, 1, 67, 64
2, 14099, Note_on_c, 1, 67, 0
2, 14100, Note_on_c, 1, 69, 64
2, 14159, Note_on_c, 1, 69, 0
2, 14160, Note_on_c, 1, 70, 64
2, 14189, Note_on_c, 1, 70, 0
2, 14190, Note_on_c, 1, 72, 64
2, 14219, Note_on_c, 1, 72, 0
2, 14220, Note_on_c, 1, 70, 64
2, 14249, Note_on_c, 1, 70, 0
2, 14250, Note_on_c, 1, 72, 64
2, 14279, Note_on_c, 1, 72, 0
2, 14280, Note_on_c, 1, 70, 64
2, 14309, Note_on_c, 1, 70, 0
2, 14310, Note_on_c, 1, 72, 64
2, 14339, Note_on_c, 1, 72, 0
2, 14340, Note_on_c, 1, 70, 64
2, 14369, Note_on_c, 1, 70, 0
2, 14370, Note_on_c, 1, 72, 64
2, 14399, Note_on_c, 1, 72, 0
2, 14400, Note_on_c, 1, 69, 64
2, 14429, Note_on_c, 1, 69, 0
2, 14430, Note_on_c, 1, 70, 64
2, 14459, Note_on_c, 1, 70, 0
2, 14460, Note_on_c, 1, 69, 64
2, 14489, Note_on_c, 1, 69, 0
2, 14490, Note_on_c, 1, 70, 64
2, 14519, Note_on_c, 1, 70, 0
2, 14520, Note_on_c, 1, 69, 64
2, 14549, Note_on_c, 1, 69, 0
2, 14550, Note_on_c, 1, 70, 64
2, 14579, Note_on_c, 1, 70, 0
2, 14580, Note_on_c, 1, 69, 64
2, 14609, Note_on_c, 1, 69, 0
2, 14610, Note_on_c, 1, 70, 64
2, 14639, Note_on_c, 1, 70, 0
2, 14640, Note_on_c, 1, 67, 64
2, 14699, Note_on_c, 1, 67, 0
2, 14700, Note_on_c, 1, 69, 64
2, 14729, Note_on_c, 1, 69, 0
2, 14730, Note_on_c, 1, 70, 64
2, 14759, Note_on_c, 1, 70, 0
2, 14760, Note_on_c, 1, 72, 64
2, 14819, Note_on_c, 1, 72, 0
2, 14820, Note_on_c, 1, 70, 64
2, 14879, Note_on_c, 1, 70, 0
2, 14880, Note_on_c, 1, 69, 64
2, 14939, Note_on_c, 1, 69, 0
2, 14940, Note_on_c, 1, 65, 64
2, 14999, Note_on_c, 1, 65, 0
2, 15000, Note_on_c, 1, 72, 64
2, 15060, Note_on_c, 1, 67, 64
2, 15089, Note_on_c, 1, 67, 0
2, 15120, Note_on_c, 1, 65, 64
2, 15239, Note_on_c, 1, 72, 0
2, 15240, Note_on_c, 1, 70, 64
2, 15299, Note_on_c, 1, 65, 0
2, 15300, Note_on_c, 1, 60, 64
2, 15329, Note_on_c, 1, 60, 0
2, 15359, Note_on_c, 1, 70, 0
2, 15360, Note_on_c, 1, 69, 64
2, 15360, Note_on_c, 1, 60, 64
2, 15479, Note_on_c, 1, 60, 0
2, 15480, Note_on_c, 1, 62, 64
2, 15599, Note_on_c, 1, 69, 0
2, 15600, Note_on_c, 1, 67, 64
2, 15719, Note_on_c, 1, 62, 0
2, 15720, Note_on_c, 1, 60, 64
2, 15839, Note_on_c, 1, 67, 0
2, 15840, Note_on_c, 1, 65, 64
2, 15899, Note_on_c, 1, 60, 0
2, 15900, Note_on_c, 1, 62, 64
2, 15929, Note_on_c, 1, 62, 0
2, 15930, Note_on_c, 1, 60, 64
2, 15944, Note_on_c, 1, 60, 0
2, 15960, Note_on_c, 1, 60, 64
2, 15974, Note_on_c, 1, 60, 0
2, 15975, Note_on_c, 1, 59, 64
2, 15989, Note_on_c, 1, 59, 0
2, 15990, Note_on_c, 1, 60, 64
2, 16004, Note_on_c, 1, 60, 0
2, 16005, Note_on_c, 1, 59, 64
2, 16019, Note_on_c, 1, 59, 0
2, 16020, Note_on_c, 1, 60, 64
2, 16034, Note_on_c, 1, 60, 0
2, 16035, Note_on_c, 1, 59, 64
2, 16079, Note_on_c, 1, 59, 0
2, 16079, Note_on_c, 1, 65, 0
2, 16080, Note_on_c, 1, 64, 64
2, 16080, Note_on_c, 1, 60, 64
2, 16199, Note_on_c, 1, 60, 0
2, 16199, Note_on_c, 1, 64, 0
2, 16200, Note_on_c, 1, 65, 64
2, 16439, Note_on_c, 1, 65, 0
2, 16440, Note_on_c, 1, 63, 64
2, 16499, Note_on_c, 1, 63, 0
2, 16500, Note_on_c, 1, 60, 64
2, 16559, Note_on_c, 1, 60, 0
2, 16560, Note_on_c, 1, 62, 64
2, 16679, Note_on_c, 1, 62, 0
2, 16680, Note_on_c, 1, 67, 64
2, 16829, Note_on_c, 1, 67, 0
2, 16830, Note_on_c, 1, 69, 64
2, 16859, Note_on_c, 1, 69, 0
2, 16860, Note_on_c, 1, 67, 64
2, 16889, Note_on_c, 1, 67, 0
2, 16890, Note_on_c, 1, 69, 64
2, 16919, Note_on_c, 1, 69, 0
2, 16920, Note_on_c, 1, 65, 64
2, 16949, Note_on_c, 1, 65, 0
2, 16950, Note_on_c, 1, 67, 64
2, 16979, Note_on_c, 1, 67, 0
2, 16980, Note_on_c, 1, 65, 64
2, 17009, Note_on_c, 1, 65, 0
2, 17010, Note_on_c, 1, 67, 64
2, 17039, Note_on_c, 1, 67, 0
2, 17040, Note_on_c, 1, 64, 64
2, 17189, Note_on_c, 1, 64, 0
2, 17220, Note_on_c, 1, 72, 64
2, 17220, Note_on_c, 1, 64, 64
2, 17279, Note_on_c, 1, 64, 0
2, 17279, Note_on_c, 1, 72, 0
2, 17280, Note_on_c, 1, 74, 64
2, 17339, Note_on_c, 1, 74, 0
2, 17340, Note_on_c, 1, 72, 64
2, 17399, Note_on_c, 1, 72, 0
2, 17400, Note_on_c, 1, 74, 64
2, 17459, Note_on_c, 1, 74, 0
2, 17460, Note_on_c, 1, 76, 64
2, 17519, Note_on_c, 1, 76, 0
2, 17520, Note_on_c, 1, 77, 64
2, 17520, Note_on_c, 1, 69, 64
2, 17549, Note_on_c, 1, 69, 0
2, 17549, Note_on_c, 1, 77, 0
2, 17550, Note_on_c, 1, 79, 64
2, 17579, Note_on_c, 1, 79, 0
2, 17580, Note_on_c, 1, 69, 64
2, 17580, Note_on_c, 1, 77, 64
2, 17609, Note_on_c, 1, 77, 0
2, 17609, Note_on_c, 1, 69, 0
2, 17610, Note_on_c, 1, 79, 64
2, 17639, Note_on_c, 1, 79, 0
2, 17640, Note_on_c, 1, 77, 64
2, 17640, Note_on_c, 1, 71, 64
2, 17669, Note_on_c, 1, 71, 0
2, 17669, Note_on_c, 1, 77, 0
2, 17670, Note_on_c, 1, 79, 64
2, 17699, Note_on_c, 1, 79, 0
2, 17700, Note_on_c, 1, 77, 64
2, 17700, Note_on_c, 1, 71, 64
2, 17729, Note_on_c, 1, 71, 0
2, 17729, Note_on_c, 1, 77, 0
2, 17730, Note_on_c, 1, 79, 64
2, 17759, Note_on_c, 1, 79, 0
2, 17760, Note_on_c, 1, 76, 64
2, 17760, Note_on_c, 1, 67, 64
2, 17789, Note_on_c, 1, 67, 0
2, 17789, Note_on_c, 1, 76, 0
2, 17790, Note_on_c, 1, 77, 64
2, 17819, Note_on_c, 1, 77, 0
2, 17820, Note_on_c, 1, 67, 64
2, 17820, Note_on_c, 1, 76, 64
2, 17849, Note_on_c, 1, 76, 0
2, 17849, Note_on_c, 1, 67, 0
2, 17850, Note_on_c, 1, 77, 64
2, 17879, Note_on_c, 1, 77, 0
2, 17880, Note_on_c, 1, 76, 64
2, 17880, Note_on_c, 1, 67, 64
2, 17909, Note_on_c, 1, 67, 0
2, 17909, Note_on_c, 1, 76, 0
2, 17910, Note_on_c, 1, 77, 64
2, 17939, Note_on_c, 1, 77, 0
2, 17940, Note_on_c, 1, 67, 64
2, 17940, Note_on_c, 1, 76, 64
2, 17969, Note_on_c, 1, 76, 0
2, 17969, Note_on_c, 1, 67, 0
2, 17970, Note_on_c, 1, 77, 64
2, 17999, Note_on_c, 1, 77, 0
2, 18000, Note_on_c, 1, 74, 64
2, 18000, Note_on_c, 1, 67, 64
2, 18059, Note_on_c, 1, 74, 0
2, 18060, Note_on_c, 1, 76, 64
2, 18089, Note_on_c, 1, 76, 0
2, 18090, Note_on_c, 1, 77, 64
2, 18119, Note_on_c, 1, 77, 0
2, 18120, Note_on_c, 1, 79, 64
2, 18179, Note_on_c, 1, 79, 0
2, 18179, Note_on_c, 1, 67, 0
2, 18180, Note_on_c, 1, 77, 64
2, 18180, Note_on_c, 1, 74, 64
2, 18239, Note_on_c, 1, 77, 0
2, 18240, Note_on_c, 1, 76, 64
2, 18299, Note_on_c, 1, 76, 0
2, 18299, Note_on_c, 1, 74, 0
2, 18300, Note_on_c, 1, 72, 64
2, 18329, Note_on_c, 1, 72, 0
2, 18330, Note_on_c, 1, 71, 64
2, 18359, Note_on_c, 1, 71, 0
2, 18360, Note_on_c, 1, 72, 64
2, 18420, Note_on_c, 1, 76, 64
2, 18479, Note_on_c, 1, 76, 0
2, 18480, Note_on_c, 1, 77, 64
2, 18599, Note_on_c, 1, 72, 0
2, 18600, Note_on_c, 1, 70, 64
2, 18659, Note_on_c, 1, 77, 0
2, 18660, Note_on_c, 1, 79, 64
2, 18719, Note_on_c, 1, 79, 0
2, 18720, Note_on_c, 1, 72, 64
2, 18779, Note_on_c, 1, 70, 0
2, 18780, Note_on_c, 1, 69, 64
2, 18809, Note_on_c, 1, 69, 0
2, 18810, Note_on_c, 1, 67, 64
2, 18839, Note_on_c, 1, 67, 0
2, 18840, Note_on_c, 1, 69, 64
2, 18869, Note_on_c, 1, 69, 0
2, 18899, Note_on_c, 1, 72, 0
2, 18900, Note_on_c, 1, 65, 64
2, 18900, Note_on_c, 1, 74, 64
2, 18959, Note_on_c, 1, 74, 0
2, 18959, Note_on_c, 1, 65, 0
2, 18960, Note_on_c, 1, 75, 64
2, 18960, Note_on_c, 1, 67, 64
2, 19019, Note_on_c, 1, 67, 0
2, 19020, Note_on_c, 1, 65, 64
2, 19079, Note_on_c, 1, 65, 0
2, 19079, Note_on_c, 1, 75, 0
2, 19080, Note_on_c, 1, 67, 64
2, 19139, Note_on_c, 1, 67, 0
2, 19140, Note_on_c, 1, 72, 64
2, 19140, Note_on_c, 1, 69, 64
2, 19199, Note_on_c, 1, 69, 0
2, 19199, Note_on_c, 1, 72, 0
2, 19200, Note_on_c, 1, 74, 64
2, 19200, Note_on_c, 1, 70, 64
2, 19259, Note_on_c, 1, 70, 0
2, 19259, Note_on_c, 1, 74, 0
2, 19260, Note_on_c, 1, 72, 64
2, 19260, Note_on_c, 1, 69, 64
2, 19319, Note_on_c, 1, 69, 0
2, 19319, Note_on_c, 1, 72, 0
2, 19320, Note_on_c, 1, 70, 64
2, 19320, Note_on_c, 1, 74, 64
2, 19379, Note_on_c, 1, 74, 0
2, 19379, Note_on_c, 1, 70, 0
2, 19380, Note_on_c, 1, 67, 64
2, 19380, Note_on_c, 1, 76, 64
2, 19439, Note_on_c, 1, 76, 0
2, 19439, Note_on_c, 1, 67, 0
2, 19440, Note_on_c, 1, 77, 64
2, 19440, Note_on_c, 1, 69, 64
2, 19499, Note_on_c, 1, 69, 0
2, 19499, Note_on_c, 1, 77, 0
2, 19500, Note_on_c, 1, 76, 64
2, 19500, Note_on_c, 1, 67, 64
2, 19559, Note_on_c, 1, 67, 0
2, 19559, Note_on_c, 1, 76, 0
2, 19560, Note_on_c, 1, 77, 64
2, 19560, Note_on_c, 1, 69, 64
2, 19619, Note_on_c, 1, 69, 0
2, 19620, Note_on_c, 1, 72, 64
2, 19679, Note_on_c, 1, 72, 0
2, 19680, Note_on_c, 1, 70, 64
2, 19799, Note_on_c, 1, 77, 0
2, 19800, Note_on_c, 1, 75, 64
2, 19859, Note_on_c, 1, 70, 0
2, 19860, Note_on_c, 1, 65, 64
2, 19889, Note_on_c, 1, 65, 0
2, 19919, Note_on_c, 1, 75, 0
2, 19920, Note_on_c, 1, 74, 64
2, 19920, Note_on_c, 1, 65, 64
2, 20039, Note_on_c, 1, 65, 0
2, 20040, Note_on_c, 1, 67, 64
2, 20159, Note_on_c, 1, 74, 0
2, 20160, Note_on_c, 1, 72, 64
2, 20279, Note_on_c, 1, 67, 0
2, 20280, Note_on_c, 1, 65, 64
2, 20399, Note_on_c, 1, 72, 0
2, 20400, Note_on_c, 1, 70, 64
2, 20459, Note_on_c, 1, 65, 0
2, 20460, Note_on_c, 1, 67, 64
2, 20489, Note_on_c, 1, 67, 0
2, 20490, Note_on_c, 1, 65, 64
2, 20519, Note_on_c, 1, 65, 0
2, 20639, Note_on_c, 1, 70, 0
2, 20640, Note_on_c, 1, 69, 64
2, 20669, Note_on_c, 1, 69, 0
2, 20670, Note_on_c, 1, 70, 64
2, 20699, Note_on_c, 1, 70, 0
2, 20700, Note_on_c, 1, 69, 64
2, 20729, Note_on_c, 1, 69, 0
2, 20730, Note_on_c, 1, 70, 64
2, 20759, Note_on_c, 1, 70, 0
2, 20760, Note_on_c, 1, 69, 64
2, 20789, Note_on_c, 1, 69, 0
2, 20790, Note_on_c, 1, 70, 64
2, 20819, Note_on_c, 1, 70, 0
2, 20820, Note_on_c, 1, 69, 64
2, 20849, Note_on_c, 1, 69, 0
2, 20850, Note_on_c, 1, 70, 64
2, 20879, Note_on_c, 1, 70, 0
2, 20880, Note_on_c, 1, 67, 64
2, 20909, Note_on_c, 1, 67, 0
2, 20910, Note_on_c, 1, 69, 64
2, 20939, Note_on_c, 1, 69, 0
2, 20940, Note_on_c, 1, 67, 64
2, 20969, Note_on_c, 1, 67, 0
2, 20970, Note_on_c, 1, 69, 64
2, 20999, Note_on_c, 1, 69, 0
2, 21000, Note_on_c, 1, 67, 64
2, 21029, Note_on_c, 1, 67, 0
2, 21030, Note_on_c, 1, 69, 64
2, 21059, Note_on_c, 1, 69, 0
2, 21060, Note_on_c, 1, 67, 64
2, 21089, Note_on_c, 1, 67, 0
2, 21090, Note_on_c, 1, 70, 64
2, 21119, Note_on_c, 1, 70, 0
2, 21120, Note_on_c, 1, 69, 64
2, 21149, Note_on_c, 1, 69, 0
2, 21150, Note_on_c, 1, 70, 64
2, 21179, Note_on_c, 1, 70, 0
2, 21180, Note_on_c, 1, 69, 64
2, 21209, Note_on_c, 1, 69, 0
2, 21210, Note_on_c, 1, 70, 64
2, 21239, Note_on_c, 1, 70, 0
2, 21240, Note_on_c, 1, 69, 64
2, 21269, Note_on_c, 1, 69, 0
2, 21270, Note_on_c, 1, 70, 64
2, 21299, Note_on_c, 1, 70, 0
2, 21300, Note_on_c, 1, 69, 64
2, 21329, Note_on_c, 1, 69, 0
2, 21330, Note_on_c, 1, 70, 64
2, 21359, Note_on_c, 1, 70, 0
2, 21360, Note_on_c, 1, 67, 64
2, 21479, Note_on_c, 1, 67, 0
2, 21540, Note_on_c, 1, 64, 64
2, 21540, Note_on_c, 1, 72, 64
2, 21599, Note_on_c, 1, 64, 0
2, 21600, Note_on_c, 1, 65, 64
2, 21719, Note_on_c, 1, 72, 0
2, 21720, Note_on_c, 1, 70, 64
2, 21779, Note_on_c, 1, 65, 0
2, 21780, Note_on_c, 1, 60, 64
2, 21809, Note_on_c, 1, 60, 0
2, 21839, Note_on_c, 1, 70, 0
2, 21840, Note_on_c, 1, 69, 64
2, 22019, Note_on_c, 1, 69, 0
2, 22020, Note_on_c, 1, 71, 64
2, 22079, Note_on_c, 1, 71, 0
2, 22080, Note_on_c, 1, 67, 64
2, 22080, Note_on_c, 1, 72, 64
2, 22199, Note_on_c, 1, 72, 0
2, 22199, Note_on_c, 1, 67, 0
2, 22260, Note_on_c, 1, 67, 64
2, 22260, Note_on_c, 1, 72, 64
2, 22289, Note_on_c, 1, 72, 0
2, 22319, Note_on_c, 1, 67, 0
2, 22320, Note_on_c, 1, 72, 64
2, 22320, Note_on_c, 1, 65, 64
2, 22439, Note_on_c, 1, 65, 0
2, 22439, Note_on_c, 1, 72, 0
2, 22500, Note_on_c, 1, 70, 64
2, 22500, Note_on_c, 1, 65, 64
2, 22529, Note_on_c, 1, 70, 0
2, 22559, Note_on_c, 1, 65, 0
2, 22560, Note_on_c, 1, 70, 64
2, 22560, Note_on_c, 1, 67, 64
2, 22679, Note_on_c, 1, 67, 0
2, 22679, Note_on_c, 1, 70, 0
2, 22740, Note_on_c, 1, 69, 64
2, 22799, Note_on_c, 1, 69, 0
2, 22800, Note_on_c, 1, 67, 64
2, 22919, Note_on_c, 1, 67, 0
2, 22980, Note_on_c, 1, 72, 64
2, 23039, Note_on_c, 1, 72, 0
2, 23040, Note_on_c, 1, 74, 64
2, 23099, Note_on_c, 1, 74, 0
2, 23100, Note_on_c, 1, 72, 64
2, 23159, Note_on_c, 1, 72, 0
2, 23160, Note_on_c, 1, 74, 64
2, 23219, Note_on_c, 1, 74, 0
2, 23220, Note_on_c, 1, 76, 64
2, 23279, Note_on_c, 1, 76, 0
2, 23280, Note_on_c, 1, 69, 64
2, 23280, Note_on_c, 1, 77, 64
2, 23309, Note_on_c, 1, 77, 0
2, 23309, Note_on_c, 1, 69, 0
2, 23310, Note_on_c, 1, 79, 64
2, 23339, Note_on_c, 1, 79, 0
2, 23340, Note_on_c, 1, 69, 64
2, 23340, Note_on_c, 1, 77, 64
2, 23369, Note_on_c, 1, 77, 0
2, 23369, Note_on_c, 1, 69, 0
2, 23370, Note_on_c, 1, 79, 64
2, 23399, Note_on_c, 1, 79, 0
2, 23400, Note_on_c, 1, 69, 64
2, 23400, Note_on_c, 1, 77, 64
2, 23429, Note_on_c, 1, 77, 0
2, 23429, Note_on_c, 1, 69, 0
2, 23430, Note_on_c, 1, 79, 64
2, 23459, Note_on_c, 1, 79, 0
2, 23460, Note_on_c, 1, 77, 64
2, 23460, Note_on_c, 1, 69, 64
2, 23489, Note_on_c, 1, 69, 0
2, 23489, Note_on_c, 1, 77, 0
2, 23490, Note_on_c, 1, 79, 64
2, 23519, Note_on_c, 1, 79, 0
2, 23520, Note_on_c, 1, 75, 64
2, 23520, Note_on_c, 1, 70, 64
2, 23639, Note_on_c, 1, 70, 0
2, 23639, Note_on_c, 1, 75, 0
2, 23700, Note_on_c, 1, 65, 64
2, 23700, Note_on_c, 1, 75, 64
2, 23729, Note_on_c, 1, 65, 0
2, 23759, Note_on_c, 1, 75, 0
2, 23760, Note_on_c, 1, 74, 64
2, 23760, Note_on_c, 1, 65, 64
2, 23819, Note_on_c, 1, 74, 0
2, 23820, Note_on_c, 1, 72, 64
2, 23879, Note_on_c, 1, 72, 0
2, 23879, Note_on_c, 1, 65, 0
2, 23880, Note_on_c, 1, 70, 64
2, 23880, Note_on_c, 1, 67, 64
2, 23939, Note_on_c, 1, 67, 0
2, 23939, Note_on_c, 1, 70, 0
2, 23940, Note_on_c, 1, 69, 64
2, 23940, Note_on_c, 1, 65, 64
2, 23999, Note_on_c, 1, 65, 0
2, 23999, Note_on_c, 1, 69, 0
2, 24000, Note_on_c, 1, 64, 64
2, 24000, Note_on_c, 1, 67, 64
2, 24119, Note_on_c, 1, 67, 0
2, 24119, Note_on_c, 1, 64, 0
2, 24120, Note_on_c, 1, 69, 64
2, 24120, Note_on_c, 1, 65, 64
2, 24239, Note_on_c, 1, 69, 0
2, 24240, Note_on_c, 1, 67, 64
2, 24359, Note_on_c, 1, 65, 0
2, 24360, Note_on_c, 1, 65, 64
2, 24374, Note_on_c, 1, 65, 0
2, 24375, Note_on_c, 1, 64, 64
2, 24389, Note_on_c, 1, 64, 0
2, 24390, Note_on_c, 1, 65, 64
2, 24404, Note_on_c, 1, 65, 0
2, 24405, Note_on_c, 1, 64, 64
2, 24419, Note_on_c, 1, 64, 0
2, 24420, Note_on_c, 1, 65, 64
2, 24434, Note_on_c, 1, 65, 0
2, 24435, Note_on_c, 1, 64, 64
2, 24479, Note_on_c, 1, 64, 0
2, 24479, Note_on_c, 1, 67, 0
2, 24480, Note_on_c, 1, 60, 64
2, 24480, Note_on_c, 1, 65, 64
2, 25079, Note_on_c, 1, 65, 0
2, 25079, Note_on_c, 1, 60, 0
2, 25079, End_track
3, 0, Start_track
3, 0, Title_t, "Left Hand"
3, 360, Note_on_c, 1, 53, 64
3, 389, Note_on_c, 1, 53, 0
3, 390, Note_on_c, 1, 52, 64
3, 419, Note_on_c, 1, 52, 0
3, 420, Note_on_c, 1, 53, 64
3, 449, Note_on_c, 1, 53, 0
3, 450, Note_on_c, 1, 55, 64
3, 479, Note_on_c, 1, 55, 0
3, 480, Note_on_c, 1, 57, 64
3, 509, Note_on_c, 1, 57, 0
3, 510, Note_on_c, 1, 58, 64
3, 539, Note_on_c, 1, 58, 0
3, 540, Note_on_c, 1, 60, 64
3, 569, Note_on_c, 1, 60, 0
3, 600, Note_on_c, 1, 60, 64
3, 629, Note_on_c, 1, 60, 0
3, 660, Note_on_c, 1, 60, 64
3, 689, Note_on_c, 1, 60, 0
3, 720, Note_on_c, 1, 60, 64
3, 749, Note_on_c, 1, 60, 0
3, 750, Note_on_c, 1, 62, 64
3, 779, Note_on_c, 1, 62, 0
3, 780, Note_on_c, 1, 60, 64
3, 809, Note_on_c, 1, 60, 0
3, 810, Note_on_c, 1, 58, 64
3, 839, Note_on_c, 1, 58, 0
3, 840, Note_on_c, 1, 57, 64
3, 869, Note_on_c, 1, 57, 0
3, 870, Note_on_c, 1, 55, 64
3, 899, Note_on_c, 1, 55, 0
3, 900, Note_on_c, 1, 53, 64
3, 959, Note_on_c, 1, 53, 0
3, 960, Note_on_c, 1, 57, 64
3, 1019, Note_on_c, 1, 57, 0
3, 1020, Note_on_c, 1, 53, 64
3, 1079, Note_on_c, 1, 53, 0
3, 1080, Note_on_c, 1, 58, 64
3, 1139, Note_on_c, 1, 58, 0
3, 1140, Note_on_c, 1, 62, 64
3, 1199, Note_on_c, 1, 62, 0
3, 1200, Note_on_c, 1, 58, 64
3, 1259, Note_on_c, 1, 58, 0
3, 1260, Note_on_c, 1, 55, 64
3, 1319, Note_on_c, 1, 55, 0
3, 1320, Note_on_c, 1, 59, 64
3, 1379, Note_on_c, 1, 59, 0
3, 1380, Note_on_c, 1, 55, 64
3, 1439, Note_on_c, 1, 55, 0
3, 1440, Note_on_c, 1, 60, 64
3, 1499, Note_on_c, 1, 60, 0
3, 1500, Note_on_c, 1, 64, 64
3, 1559, Note_on_c, 1, 64, 0
3, 1560, Note_on_c, 1, 60, 64
3, 1619, Note_on_c, 1, 60, 0
3, 1620, Note_on_c, 1, 57, 64
3, 1679, Note_on_c, 1, 57, 0
3, 1680, Note_on_c, 1, 61, 64
3, 1739, Note_on_c, 1, 61, 0
3, 1740, Note_on_c, 1, 57, 64
3, 1799, Note_on_c, 1, 57, 0
3, 1800, Note_on_c, 1, 62, 64
3, 1859, Note_on_c, 1, 62, 0
3, 1860, Note_on_c, 1, 65, 64
3, 1919, Note_on_c, 1, 65, 0
3, 1920, Note_on_c, 1, 62, 64
3, 1979, Note_on_c, 1, 62, 0
3, 1980, Note_on_c, 1, 58, 64
3, 2039, Note_on_c, 1, 58, 0
3, 2040, Note_on_c, 1, 62, 64
3, 2099, Note_on_c, 1, 62, 0
3, 2100, Note_on_c, 1, 58, 64
3, 2129, Note_on_c, 1, 58, 0
3, 2160, Note_on_c, 1, 67, 64
3, 2160, Note_on_c, 1, 60, 64
3, 2160, Note_on_c, 1, 58, 64
3, 2279, Note_on_c, 1, 58, 0
3, 2279, Note_on_c, 1, 60, 0
3, 2279, Note_on_c, 1, 67, 0
3, 2280, Note_on_c, 1, 65, 64
3, 2280, Note_on_c, 1, 60, 64
3, 2280, Note_on_c, 1, 57, 64
3, 2309, Note_on_c, 1, 57, 0
3, 2309, Note_on_c, 1, 60, 0
3, 2309, Note_on_c, 1, 65, 0
3, 2340, Note_on_c, 1, 65, 64
3, 2340, Note_on_c, 1, 62, 64
3, 2340, Note_on_c, 1, 58, 64
3, 2399, Note_on_c, 1, 58, 0
3, 2399, Note_on_c, 1, 62, 0
3, 2400, Note_on_c, 1, 60, 64
3, 2459, Note_on_c, 1, 65, 0
3, 2460, Note_on_c, 1, 64, 64
3, 2519, Note_on_c, 1, 64, 0
3, 2519, Note_on_c, 1, 60, 0
3, 2520, Note_on_c, 1, 60, 64
3, 2520, Note_on_c, 1, 57, 64
3, 2520, Note_on_c, 1, 53, 64
3, 2669, Note_on_c, 1, 53, 0
3, 2669, Note_on_c, 1, 57, 0
3, 2669, Note_on_c, 1, 60, 0
3, 2700, Note_on_c, 1, 53, 64
3, 2719, Note_on_c, 1, 53, 0
3, 2720, Note_on_c, 1, 57, 64
3, 2739, Note_on_c, 1, 57, 0
3, 2740, Note_on_c, 1, 60, 64
3, 2759, Note_on_c, 1, 60, 0
3, 2760, Note_on_c, 1, 53, 64
3, 2779, Note_on_c, 1, 53, 0
3, 2780, Note_on_c, 1, 57, 64
3, 2799, Note_on_c, 1, 57, 0
3, 2800, Note_on_c, 1, 60, 64
3, 2819, Note_on_c, 1, 60, 0
3, 2820, Note_on_c, 1, 53, 64
3, 2839, Note_on_c, 1, 53, 0
3, 2840, Note_on_c, 1, 57, 64
3, 2859, Note_on_c, 1, 57, 0
3, 2860, Note_on_c, 1, 60, 64
3, 2879, Note_on_c, 1, 60, 0
3, 2880, Note_on_c, 1, 52, 64
3, 2899, Note_on_c, 1, 52, 0
3, 2900, Note_on_c, 1, 55, 64
3, 2919, Note_on_c, 1, 55, 0
3, 2920, Note_on_c, 1, 60, 64
3, 2939, Note_on_c, 1, 60, 0
3, 2940, Note_on_c, 1, 52, 64
3, 2959, Note_on_c, 1, 52, 0
3, 2960, Note_on_c, 1, 55, 64
3, 2979, Note_on_c, 1, 55, 0
3, 2980, Note_on_c, 1, 60, 64
3, 2999, Note_on_c, 1, 60, 0
3, 3000, Note_on_c, 1, 52, 64
3, 3019, Note_on_c, 1, 52, 0
3, 3020, Note_on_c, 1, 55, 64
3, 3039, Note_on_c, 1, 55, 0
3, 3040, Note_on_c, 1, 60, 64
3, 3059, Note_on_c, 1, 60, 0
3, 3060, Note_on_c, 1, 53, 64
3, 3079, Note_on_c, 1, 53, 0
3, 3080, Note_on_c, 1, 57, 64
3, 3099, Note_on_c, 1, 57, 0
3, 3100, Note_on_c, 1, 60, 64
3, 3119, Note_on_c, 1, 60, 0
3, 3120, Note_on_c, 1, 53, 64
3, 3139, Note_on_c, 1, 53, 0
3, 3140, Note_on_c, 1, 57, 64
3, 3159, Note_on_c, 1, 57, 0
3, 3160, Note_on_c, 1, 60, 64
3, 3179, Note_on_c, 1, 60, 0
3, 3180, Note_on_c, 1, 53, 64
3, 3199, Note_on_c, 1, 53, 0
3, 3200, Note_on_c, 1, 57, 64
3, 3219, Note_on_c, 1, 57, 0
3, 3220, Note_on_c, 1, 60, 64
3, 3239, Note_on_c, 1, 60, 0
3, 3240, Note_on_c, 1, 48, 64
3, 3329, Note_on_c, 1, 48, 0
3, 3330, Note_on_c, 1, 60, 64
3, 3359, Note_on_c, 1, 60, 0
3, 3360, Note_on_c, 1, 58, 64
3, 3389, Note_on_c, 1, 58, 0
3, 3390, Note_on_c, 1, 57, 64
3, 3419, Note_on_c, 1, 57, 0
3, 3420, Note_on_c, 1, 55, 64
3, 3439, Note_on_c, 1, 55, 0
3, 3440, Note_on_c, 1, 58, 64
3, 3459, Note_on_c, 1, 58, 0
3, 3460, Note_on_c, 1, 62, 64
3, 3479, Note_on_c, 1, 62, 0
3, 3480, Note_on_c, 1, 55, 64
3, 3499, Note_on_c, 1, 55, 0
3, 3500, Note_on_c, 1, 58, 64
3, 3519, Note_on_c, 1, 58, 0
3, 3520, Note_on_c, 1, 62, 64
3, 3539, Note_on_c, 1, 62, 0
3, 3540, Note_on_c, 1, 55, 64
3, 3559, Note_on_c, 1, 55, 0
3, 3560, Note_on_c, 1, 58, 64
3, 3579, Note_on_c, 1, 58, 0
3, 3580, Note_on_c, 1, 62, 64
3, 3599, Note_on_c, 1, 62, 0
3, 3600, Note_on_c, 1, 54, 64
3, 3619, Note_on_c, 1, 54, 0
3, 3620, Note_on_c, 1, 57, 64
3, 3639, Note_on_c, 1, 57, 0
3, 3640, Note_on_c, 1, 62, 64
3, 3659, Note_on_c, 1, 62, 0
3, 3660, Note_on_c, 1, 54, 64
3, 3679, Note_on_c, 1, 54, 0
3, 3680, Note_on_c, 1, 57, 64
3, 3699, Note_on_c, 1, 57, 0
3, 3700, Note_on_c, 1, 62, 64
3, 3719, Note_on_c, 1, 62, 0
3, 3720, Note_on_c, 1, 54, 64
3, 3739, Note_on_c, 1, 54, 0
3, 3740, Note_on_c, 1, 57, 64
3, 3759, Note_on_c, 1, 57, 0
3, 3760, Note_on_c, 1, 62, 64
3, 3779, Note_on_c, 1, 62, 0
3, 3780, Note_on_c, 1, 55, 64
3, 3799, Note_on_c, 1, 55, 0
3, 3800, Note_on_c, 1, 58, 64
3, 3819, Note_on_c, 1, 58, 0
3, 3820, Note_on_c, 1, 62, 64
3, 3839, Note_on_c, 1, 62, 0
3, 3840, Note_on_c, 1, 55, 64
3, 3859, Note_on_c, 1, 55, 0
3, 3860, Note_on_c, 1, 58, 64
3, 3879, Note_on_c, 1, 58, 0
3, 3880, Note_on_c, 1, 62, 64
3, 3899, Note_on_c, 1, 62, 0
3, 3900, Note_on_c, 1, 55, 64
3, 3919, Note_on_c, 1, 55, 0
3, 3920, Note_on_c, 1, 58, 64
3, 3939, Note_on_c, 1, 58, 0
3, 3940, Note_on_c, 1, 62, 64
3, 3959, Note_on_c, 1, 62, 0
3, 3960, Note_on_c, 1, 50, 64
3, 4049, Note_on_c, 1, 50, 0
3, 4050, Note_on_c, 1, 51, 64
3, 4079, Note_on_c, 1, 51, 0
3, 4080, Note_on_c, 1, 50, 64
3, 4109, Note_on_c, 1, 50, 0
3, 4110, Note_on_c, 1, 48, 64
3, 4139, Note_on_c, 1, 48, 0
3, 4140, Note_on_c, 1, 46, 64
3, 4159, Note_on_c, 1, 46, 0
3, 4160, Note_on_c, 1, 50, 64
3, 4179, Note_on_c, 1, 50, 0
3, 4180, Note_on_c, 1, 55, 64
3, 4199, Note_on_c, 1, 55, 0
3, 4200, Note_on_c, 1, 46, 64
3, 4219, Note_on_c, 1, 46, 0
3, 4220, Note_on_c, 1, 50, 64
3, 4239, Note_on_c, 1, 50, 0
3, 4240, Note_on_c, 1, 55, 64
3, 4259, Note_on_c, 1, 55, 0
3, 4260, Note_on_c, 1, 46, 64
3, 4279, Note_on_c, 1, 46, 0
3, 4280, Note_on_c, 1, 50, 64
3, 4299, Note_on_c, 1, 50, 0
3, 4300, Note_on_c, 1, 55, 64
3, 4319, Note_on_c, 1, 55, 0
3, 4320, Note_on_c, 1, 45, 64
3, 4339, Note_on_c, 1, 45, 0
3, 4340, Note_on_c, 1, 48, 64
3, 4359, Note_on_c, 1, 48, 0
3, 4360, Note_on_c, 1, 51, 64
3, 4379, Note_on_c, 1, 51, 0
3, 4380, Note_on_c, 1, 45, 64
3, 4399, Note_on_c, 1, 45, 0
3, 4400, Note_on_c, 1, 48, 64
3, 4419, Note_on_c, 1, 48, 0
3, 4420, Note_on_c, 1, 51, 64
3, 4439, Note_on_c, 1, 51, 0
3, 4440, Note_on_c, 1, 45, 64
3, 4459, Note_on_c, 1, 45, 0
3, 4460, Note_on_c, 1, 48, 64
3, 4479, Note_on_c, 1, 48, 0
3, 4480, Note_on_c, 1, 51, 64
3, 4499, Note_on_c, 1, 51, 0
3, 4500, Note_on_c, 1, 46, 64
3, 4519, Note_on_c, 1, 46, 0
3, 4520, Note_on_c, 1, 50, 64
3, 4539, Note_on_c, 1, 50, 0
3, 4540, Note_on_c, 1, 55, 64
3, 4559, Note_on_c, 1, 55, 0
3, 4560, Note_on_c, 1, 46, 64
3, 4579, Note_on_c, 1, 46, 0
3, 4580, Note_on_c, 1, 50, 64
3, 4599, Note_on_c, 1, 50, 0
3, 4600, Note_on_c, 1, 55, 64
3, 4619, Note_on_c, 1, 55, 0
3, 4620, Note_on_c, 1, 46, 64
3, 4639, Note_on_c, 1, 46, 0
3, 4640, Note_on_c, 1, 50, 64
3, 4659, Note_on_c, 1, 50, 0
3, 4660, Note_on_c, 1, 55, 64
3, 4670, Note_on_c, 1, 55, 0
3, 4680, Note_on_c, 1, 55, 64
3, 4799, Note_on_c, 1, 55, 0
3, 4800, Note_on_c, 1, 53, 64
3, 4859, Note_on_c, 1, 53, 0
3, 4860, Note_on_c, 1, 52, 64
3, 4919, Note_on_c, 1, 52, 0
3, 4920, Note_on_c, 1, 57, 64
3, 4979, Note_on_c, 1, 57, 0
3, 4980, Note_on_c, 1, 45, 64
3, 5039, Note_on_c, 1, 45, 0
3, 5040, Note_on_c, 1, 50, 64
3, 5099, Note_on_c, 1, 50, 0
3, 5100, Note_on_c, 1, 38, 64
3, 5114, Note_on_c, 1, 38, 0
3, 5130, Note_on_c, 1, 50, 64
3, 5159, Note_on_c, 1, 50, 0
3, 5160, Note_on_c, 1, 48, 64
3, 5189, Note_on_c, 1, 48, 0
3, 5190, Note_on_c, 1, 46, 64
3, 5219, Note_on_c, 1, 46, 0
3, 5220, Note_on_c, 1, 45, 64
3, 5239, Note_on_c, 1, 45, 0
3, 5240, Note_on_c, 1, 48, 64
3, 5259, Note_on_c, 1, 48, 0
3, 5260, Note_on_c, 1, 53, 64
3, 5279, Note_on_c, 1, 53, 0
3, 5280, Note_on_c, 1, 45, 64
3, 5299, Note_on_c, 1, 45, 0
3, 5300, Note_on_c, 1, 48, 64
3, 5319, Note_on_c, 1, 48, 0
3, 5320, Note_on_c, 1, 53, 64
3, 5339, Note_on_c, 1, 53, 0
3, 5340, Note_on_c, 1, 45, 64
3, 5359, Note_on_c, 1, 45, 0
3, 5360, Note_on_c, 1, 48, 64
3, 5379, Note_on_c, 1, 48, 0
3, 5380, Note_on_c, 1, 53, 64
3, 5399, Note_on_c, 1, 53, 0
3, 5400, Note_on_c, 1, 43, 64
3, 5419, Note_on_c, 1, 43, 0
3, 5420, Note_on_c, 1, 46, 64
3, 5439, Note_on_c, 1, 46, 0
3, 5440, Note_on_c, 1, 52, 64
3, 5459, Note_on_c, 1, 52, 0
3, 5460, Note_on_c, 1, 43, 64
3, 5479, Note_on_c, 1, 43, 0
3, 5480, Note_on_c, 1, 46, 64
3, 5499, Note_on_c, 1, 46, 0
3, 5500, Note_on_c, 1, 52, 64
3, 5519, Note_on_c, 1, 52, 0
3, 5520, Note_on_c, 1, 43, 64
3, 5539, Note_on_c, 1, 43, 0
3, 5540, Note_on_c, 1, 46, 64
3, 5559, Note_on_c, 1, 46, 0
3, 5560, Note_on_c, 1, 52, 64
3, 5579, Note_on_c, 1, 52, 0
3, 5580, Note_on_c, 1, 45, 64
3, 5599, Note_on_c, 1, 45, 0
3, 5600, Note_on_c, 1, 48, 64
3, 5619, Note_on_c, 1, 48, 0
3, 5620, Note_on_c, 1, 53, 64
3, 5639, Note_on_c, 1, 53, 0
3, 5640, Note_on_c, 1, 45, 64
3, 5659, Note_on_c, 1, 45, 0
3, 5660, Note_on_c, 1, 48, 64
3, 5679, Note_on_c, 1, 48, 0
3, 5680, Note_on_c, 1, 53, 64
3, 5699, Note_on_c, 1, 53, 0
3, 5700, Note_on_c, 1, 45, 64
3, 5719, Note_on_c, 1, 45, 0
3, 5720, Note_on_c, 1, 48, 64
3, 5739, Note_on_c, 1, 48, 0
3, 5740, Note_on_c, 1, 53, 64
3, 5750, Note_on_c, 1, 53, 0
3, 5760, Note_on_c, 1, 53, 64
3, 5879, Note_on_c, 1, 53, 0
3, 5880, Note_on_c, 1, 52, 64
3, 5939, Note_on_c, 1, 52, 0
3, 5940, Note_on_c, 1, 50, 64
3, 5999, Note_on_c, 1, 50, 0
3, 6000, Note_on_c, 1, 55, 64
3, 6059, Note_on_c, 1, 55, 0
3, 6060, Note_on_c, 1, 43, 64
3, 6119, Note_on_c, 1, 43, 0
3, 6120, Note_on_c, 1, 48, 64
3, 6149, Note_on_c, 1, 48, 0
3, 6180, Note_on_c, 1, 36, 64
3, 6239, Note_on_c, 1, 36, 0
3, 6300, Note_on_c, 1, 48, 64
3, 6359, Note_on_c, 1, 48, 0
3, 6360, Note_on_c, 1, 52, 64
3, 6419, Note_on_c, 1, 52, 0
3, 6420, Note_on_c, 1, 48, 64
3, 6479, Note_on_c, 1, 48, 0
3, 6480, Note_on_c, 1, 53, 64
3, 6539, Note_on_c, 1, 53, 0
3, 6540, Note_on_c, 1, 57, 64
3, 6599, Note_on_c, 1, 57, 0
3, 6600, Note_on_c, 1, 53, 64
3, 6659, Note_on_c, 1, 53, 0
3, 6660, Note_on_c, 1, 50, 64
3, 6719, Note_on_c, 1, 50, 0
3, 6720, Note_on_c, 1, 54, 64
3, 6779, Note_on_c, 1, 54, 0
3, 6780, Note_on_c, 1, 50, 64
3, 6839, Note_on_c, 1, 50, 0
3, 6840, Note_on_c, 1, 55, 64
3, 6899, Note_on_c, 1, 55, 0
3, 6900, Note_on_c, 1, 59, 64
3, 6959, Note_on_c, 1, 59, 0
3, 6960, Note_on_c, 1, 55, 64
3, 7019, Note_on_c, 1, 55, 0
3, 7020, Note_on_c, 1, 52, 64
3, 7079, Note_on_c, 1, 52, 0
3, 7080, Note_on_c, 1, 56, 64
3, 7139, Note_on_c, 1, 56, 0
3, 7140, Note_on_c, 1, 52, 64
3, 7199, Note_on_c, 1, 52, 0
3, 7200, Note_on_c, 1, 57, 64
3, 7259, Note_on_c, 1, 57, 0
3, 7260, Note_on_c, 1, 60, 64
3, 7319, Note_on_c, 1, 60, 0
3, 7320, Note_on_c, 1, 57, 64
3, 7379, Note_on_c, 1, 57, 0
3, 7380, Note_on_c, 1, 59, 64
3, 7380, Note_on_c, 1, 54, 64
3, 7559, Note_on_c, 1, 54, 0
3, 7560, Note_on_c, 1, 52, 64
3, 7679, Note_on_c, 1, 59, 0
3, 7680, Note_on_c, 1, 57, 64
3, 7859, Note_on_c, 1, 57, 0
3, 7860, Note_on_c, 1, 56, 64
3, 7919, Note_on_c, 1, 56, 0
3, 7919, Note_on_c, 1, 52, 0
3, 7920, Note_on_c, 1, 69, 64
3, 7920, Note_on_c, 1, 60, 64
3, 7920, Note_on_c, 1, 52, 64
3, 8069, Note_on_c, 1, 52, 0
3, 8069, Note_on_c, 1, 60, 0
3, 8069, Note_on_c, 1, 69, 0
3, 8280, Note_on_c, 1, 53, 64
3, 8309, Note_on_c, 1, 53, 0
3, 8310, Note_on_c, 1, 52, 64
3, 8339, Note_on_c, 1, 52, 0
3, 8340, Note_on_c, 1, 53, 64
3, 8369, Note_on_c, 1, 53, 0
3, 8370, Note_on_c, 1, 55, 64
3, 8399, Note_on_c, 1, 55, 0
3, 8400, Note_on_c, 1, 57, 64
3, 8429, Note_on_c, 1, 57, 0
3, 8430, Note_on_c, 1, 58, 64
3, 8459, Note_on_c, 1, 58, 0
3, 8460, Note_on_c, 1, 60, 64
3, 8489, Note_on_c, 1, 60, 0
3, 8520, Note_on_c, 1, 60, 64
3, 8549, Note_on_c, 1, 60, 0
3, 8580, Note_on_c, 1, 60, 64
3, 8609, Note_on_c, 1, 60, 0
3, 8640, Note_on_c, 1, 60, 64
3, 8669, Note_on_c, 1, 60, 0
3, 8670, Note_on_c, 1, 62, 64
3, 8699, Note_on_c, 1, 62, 0
3, 8700, Note_on_c, 1, 60, 64
3, 8729, Note_on_c, 1, 60, 0
3, 8730, Note_on_c, 1, 58, 64
3, 8759, Note_on_c, 1, 58, 0
3, 8760, Note_on_c, 1, 57, 64
3, 8789, Note_on_c, 1, 57, 0
3, 8790, Note_on_c, 1, 55, 64
3, 8819, Note_on_c, 1, 55, 0
3, 8820, Note_on_c, 1, 53, 64
3, 8879, Note_on_c, 1, 53, 0
3, 8880, Note_on_c, 1, 57, 64
3, 8939, Note_on_c, 1, 57, 0
3, 8940, Note_on_c, 1, 53, 64
3, 8999, Note_on_c, 1, 53, 0
3, 9000, Note_on_c, 1, 58, 64
3, 9059, Note_on_c, 1, 58, 0
3, 9060, Note_on_c, 1, 62, 64
3, 9119, Note_on_c, 1, 62, 0
3, 9120, Note_on_c, 1, 58, 64
3, 9179, Note_on_c, 1, 58, 0
3, 9180, Note_on_c, 1, 55, 64
3, 9239, Note_on_c, 1, 55, 0
3, 9240, Note_on_c, 1, 59, 64
3, 9299, Note_on_c, 1, 59, 0
3, 9300, Note_on_c, 1, 55, 64
3, 9359, Note_on_c, 1, 55, 0
3, 9360, Note_on_c, 1, 60, 64
3, 9419, Note_on_c, 1, 60, 0
3, 9420, Note_on_c, 1, 64, 64
3, 9479, Note_on_c, 1, 64, 0
3, 9480, Note_on_c, 1, 60, 64
3, 9539, Note_on_c, 1, 60, 0
3, 9540, Note_on_c, 1, 57, 64
3, 9599, Note_on_c, 1, 57, 0
3, 9600, Note_on_c, 1, 61, 64
3, 9659, Note_on_c, 1, 61, 0
3, 9660, Note_on_c, 1, 57, 64
3, 9719, Note_on_c, 1, 57, 0
3, 9720, Note_on_c, 1, 62, 64
3, 9779, Note_on_c, 1, 62, 0
3, 9780, Note_on_c, 1, 65, 64
3, 9839, Note_on_c, 1, 65, 0
3, 9840, Note_on_c, 1, 62, 64
3, 9899, Note_on_c, 1, 62, 0
3, 9900, Note_on_c, 1, 58, 64
3, 9959, Note_on_c, 1, 58, 0
3, 9960, Note_on_c, 1, 62, 64
3, 10019, Note_on_c, 1, 62, 0
3, 10020, Note_on_c, 1, 58, 64
3, 10049, Note_on_c, 1, 58, 0
3, 10080, Note_on_c, 1, 67, 64
3, 10080, Note_on_c, 1, 60, 64
3, 10080, Note_on_c, 1, 58, 64
3, 10199, Note_on_c, 1, 58, 0
3, 10199, Note_on_c, 1, 60, 0
3, 10199, Note_on_c, 1, 67, 0
3, 10200, Note_on_c, 1, 65, 64
3, 10200, Note_on_c, 1, 57, 64
3, 10200, Note_on_c, 1, 60, 64
3, 10259, Note_on_c, 1, 60, 0
3, 10259, Note_on_c, 1, 57, 0
3, 10259, Note_on_c, 1, 65, 0
3, 10260, Note_on_c, 1, 65, 64
3, 10260, Note_on_c, 1, 62, 64
3, 10260, Note_on_c, 1, 58, 64
3, 10319, Note_on_c, 1, 58, 0
3, 10319, Note_on_c, 1, 62, 0
3, 10320, Note_on_c, 1, 60, 64
3, 10379, Note_on_c, 1, 65, 0
3, 10380, Note_on_c, 1, 64, 64
3, 10439, Note_on_c, 1, 64, 0
3, 10439, Note_on_c, 1, 60, 0
3, 10440, Note_on_c, 1, 53, 64
3, 10440, Note_on_c, 1, 57, 64
3, 10440, Note_on_c, 1, 60, 64
3, 10739, Note_on_c, 1, 60, 0
3, 10739, Note_on_c, 1, 57, 0
3, 10739, Note_on_c, 1, 53, 0
3, 10980, Note_on_c, 1, 53, 64
3, 11039, Note_on_c, 1, 53, 0
3, 11040, Note_on_c, 1, 55, 64
3, 11099, Note_on_c, 1, 55, 0
3, 11100, Note_on_c, 1, 53, 64
3, 11159, Note_on_c, 1, 53, 0
3, 11160, Note_on_c, 1, 55, 64
3, 11219, Note_on_c, 1, 55, 0
3, 11220, Note_on_c, 1, 57, 64
3, 11279, Note_on_c, 1, 57, 0
3, 11280, Note_on_c, 1, 58, 64
3, 11309, Note_on_c, 1, 58, 0
3, 11310, Note_on_c, 1, 60, 64
3, 11339, Note_on_c, 1, 60, 0
3, 11340, Note_on_c, 1, 58, 64
3, 11369, Note_on_c, 1, 58, 0
3, 11370, Note_on_c, 1, 60, 64
3, 11399, Note_on_c, 1, 60, 0
3, 11400, Note_on_c, 1, 58, 64
3, 11429, Note_on_c, 1, 58, 0
3, 11430, Note_on_c, 1, 60, 64
3, 11459, Note_on_c, 1, 60, 0
3, 11460, Note_on_c, 1, 58, 64
3, 11489, Note_on_c, 1, 58, 0
3, 11490, Note_on_c, 1, 60, 64
3, 11519, Note_on_c, 1, 60, 0
3, 11520, Note_on_c, 1, 57, 64
3, 11549, Note_on_c, 1, 57, 0
3, 11550, Note_on_c, 1, 58, 64
3, 11579, Note_on_c, 1, 58, 0
3, 11580, Note_on_c, 1, 57, 64
3, 11609, Note_on_c, 1, 57, 0
3, 11610, Note_on_c, 1, 58, 64
3, 11639, Note_on_c, 1, 58, 0
3, 11640, Note_on_c, 1, 57, 64
3, 11669, Note_on_c, 1, 57, 0
3, 11670, Note_on_c, 1, 58, 64
3, 11699, Note_on_c, 1, 58, 0
3, 11700, Note_on_c, 1, 57, 64
3, 11729, Note_on_c, 1, 57, 0
3, 11730, Note_on_c, 1, 58, 64
3, 11759, Note_on_c, 1, 58, 0
3, 11760, Note_on_c, 1, 55, 64
3, 11819, Note_on_c, 1, 55, 0
3, 11820, Note_on_c, 1, 57, 64
3, 11849, Note_on_c, 1, 57, 0
3, 11850, Note_on_c, 1, 58, 64
3, 11879, Note_on_c, 1, 58, 0
3, 11880, Note_on_c, 1, 60, 64
3, 11939, Note_on_c, 1, 60, 0
3, 11940, Note_on_c, 1, 58, 64
3, 11999, Note_on_c, 1, 58, 0
3, 12000, Note_on_c, 1, 57, 64
3, 12059, Note_on_c, 1, 57, 0
3, 12060, Note_on_c, 1, 55, 64
3, 12119, Note_on_c, 1, 55, 0
3, 12120, Note_on_c, 1, 57, 64
3, 12179, Note_on_c, 1, 57, 0
3, 12180, Note_on_c, 1, 53, 64
3, 12239, Note_on_c, 1, 53, 0
3, 12240, Note_on_c, 1, 58, 64
3, 12299, Note_on_c, 1, 58, 0
3, 12300, Note_on_c, 1, 57, 64
3, 12359, Note_on_c, 1, 57, 0
3, 12360, Note_on_c, 1, 58, 64
3, 12419, Note_on_c, 1, 58, 0
3, 12420, Note_on_c, 1, 55, 64
3, 12479, Note_on_c, 1, 55, 0
3, 12480, Note_on_c, 1, 57, 64
3, 12599, Note_on_c, 1, 57, 0
3, 12600, Note_on_c, 1, 62, 64
3, 12719, Note_on_c, 1, 62, 0
3, 12720, Note_on_c, 1, 55, 64
3, 12839, Note_on_c, 1, 55, 0
3, 12840, Note_on_c, 1, 60, 64
3, 13079, Note_on_c, 1, 60, 0
3, 13080, Note_on_c, 1, 59, 64
3, 13199, Note_on_c, 1, 59, 0
3, 13200, Note_on_c, 1, 58, 64
3, 13319, Note_on_c, 1, 58, 0
3, 13320, Note_on_c, 1, 57, 64
3, 13379, Note_on_c, 1, 57, 0
3, 13380, Note_on_c, 1, 53, 64
3, 13439, Note_on_c, 1, 53, 0
3, 13440, Note_on_c, 1, 55, 64
3, 13499, Note_on_c, 1, 55, 0
3, 13500, Note_on_c, 1, 57, 64
3, 13529, Note_on_c, 1, 57, 0
3, 13530, Note_on_c, 1, 58, 64
3, 13559, Note_on_c, 1, 58, 0
3, 13560, Note_on_c, 1, 60, 64
3, 13619, Note_on_c, 1, 60, 0
3, 13620, Note_on_c, 1, 58, 64
3, 13679, Note_on_c, 1, 58, 0
3, 13680, Note_on_c, 1, 57, 64
3, 13739, Note_on_c, 1, 57, 0
3, 13740, Note_on_c, 1, 55, 64
3, 13799, Note_on_c, 1, 55, 0
3, 13800, Note_on_c, 1, 57, 64
3, 13800, Note_on_c, 1, 53, 64
3, 13919, Note_on_c, 1, 57, 0
3, 13920, Note_on_c, 1, 55, 64
3, 14039, Note_on_c, 1, 53, 0
3, 14040, Note_on_c, 1, 51, 64
3, 14159, Note_on_c, 1, 51, 0
3, 14159, Note_on_c, 1, 55, 0
3, 14160, Note_on_c, 1, 53, 64
3, 14160, Note_on_c, 1, 50, 64
3, 14279, Note_on_c, 1, 50, 0
3, 14279, Note_on_c, 1, 53, 0
3, 14280, Note_on_c, 1, 55, 64
3, 14399, Note_on_c, 1, 55, 0
3, 14400, Note_on_c, 1, 52, 64
3, 14400, Note_on_c, 1, 48, 64
3, 14519, Note_on_c, 1, 48, 0
3, 14519, Note_on_c, 1, 52, 0
3, 14520, Note_on_c, 1, 53, 64
3, 14640, Note_on_c, 1, 55, 64
3, 14759, Note_on_c, 1, 53, 0
3, 14760, Note_on_c, 1, 52, 64
3, 14879, Note_on_c, 1, 52, 0
3, 14879, Note_on_c, 1, 55, 0
3, 14880, Note_on_c, 1, 53, 64
3, 14999, Note_on_c, 1, 53, 0
3, 15060, Note_on_c, 1, 52, 64
3, 15119, Note_on_c, 1, 52, 0
3, 15120, Note_on_c, 1, 53, 64
3, 15179, Note_on_c, 1, 53, 0
3, 15180, Note_on_c, 1, 52, 64
3, 15239, Note_on_c, 1, 52, 0
3, 15240, Note_on_c, 1, 53, 64
3, 15299, Note_on_c, 1, 53, 0
3, 15300, Note_on_c, 1, 55, 64
3, 15359, Note_on_c, 1, 55, 0
3, 15360, Note_on_c, 1, 57, 64
3, 15479, Note_on_c, 1, 57, 0
3, 15480, Note_on_c, 1, 62, 64
3, 15599, Note_on_c, 1, 62, 0
3, 15600, Note_on_c, 1, 55, 64
3, 15839, Note_on_c, 1, 55, 0
3, 15840, Note_on_c, 1, 57, 64
3, 15959, Note_on_c, 1, 57, 0
3, 15960, Note_on_c, 1, 55, 64
3, 16019, Note_on_c, 1, 55, 0
3, 16080, Note_on_c, 1, 55, 64
3, 16199, Note_on_c, 1, 55, 0
3, 16260, Note_on_c, 1, 53, 64
3, 16319, Note_on_c, 1, 53, 0
3, 16320, Note_on_c, 1, 55, 64
3, 16379, Note_on_c, 1, 55, 0
3, 16380, Note_on_c, 1, 53, 64
3, 16439, Note_on_c, 1, 53, 0
3, 16440, Note_on_c, 1, 55, 64
3, 16499, Note_on_c, 1, 55, 0
3, 16500, Note_on_c, 1, 57, 64
3, 16559, Note_on_c, 1, 57, 0
3, 16560, Note_on_c, 1, 58, 64
3, 16589, Note_on_c, 1, 58, 0
3, 16590, Note_on_c, 1, 60, 64
3, 16619, Note_on_c, 1, 60, 0
3, 16620, Note_on_c, 1, 58, 64
3, 16649, Note_on_c, 1, 58, 0
3, 16650, Note_on_c, 1, 60, 64
3, 16679, Note_on_c, 1, 60, 0
3, 16680, Note_on_c, 1, 58, 64
3, 16709, Note_on_c, 1, 58, 0
3, 16710, Note_on_c, 1, 60, 64
3, 16739, Note_on_c, 1, 60, 0
3, 16740, Note_on_c, 1, 58, 64
3, 16769, Note_on_c, 1, 58, 0
3, 16770, Note_on_c, 1, 60, 64
3, 16799, Note_on_c, 1, 60, 0
3, 16800, Note_on_c, 1, 57, 64
3, 16919, Note_on_c, 1, 57, 0
3, 16920, Note_on_c, 1, 62, 64
3, 17099, Note_on_c, 1, 62, 0
3, 17100, Note_on_c, 1, 60, 64
3, 17129, Note_on_c, 1, 60, 0
3, 17130, Note_on_c, 1, 59, 64
3, 17159, Note_on_c, 1, 59, 0
3, 17160, Note_on_c, 1, 60, 64
3, 17279, Note_on_c, 1, 60, 0
3, 17280, Note_on_c, 1, 65, 64
3, 17280, Note_on_c, 1, 58, 64
3, 17339, Note_on_c, 1, 65, 0
3, 17340, Note_on_c, 1, 64, 64
3, 17399, Note_on_c, 1, 64, 0
3, 17400, Note_on_c, 1, 65, 64
3, 17459, Note_on_c, 1, 65, 0
3, 17459, Note_on_c, 1, 58, 0
3, 17460, Note_on_c, 1, 67, 64
3, 17460, Note_on_c, 1, 58, 64
3, 17519, Note_on_c, 1, 58, 0
3, 17519, Note_on_c, 1, 67, 0
3, 17520, Note_on_c, 1, 60, 64
3, 17639, Note_on_c, 1, 60, 0
3, 17640, Note_on_c, 1, 62, 64
3, 17759, Note_on_c, 1, 62, 0
3, 17760, Note_on_c, 1, 55, 64
3, 17879, Note_on_c, 1, 55, 0
3, 17880, Note_on_c, 1, 60, 64
3, 18119, Note_on_c, 1, 60, 0
3, 18120, Note_on_c, 1, 59, 64
3, 18239, Note_on_c, 1, 59, 0
3, 18240, Note_on_c, 1, 60, 64
3, 18359, Note_on_c, 1, 60, 0
3, 18420, Note_on_c, 1, 60, 64
3, 18479, Note_on_c, 1, 60, 0
3, 18480, Note_on_c, 1, 62, 64
3, 18539, Note_on_c, 1, 62, 0
3, 18540, Note_on_c, 1, 60, 64
3, 18599, Note_on_c, 1, 60, 0
3, 18600, Note_on_c, 1, 62, 64
3, 18659, Note_on_c, 1, 62, 0
3, 18660, Note_on_c, 1, 64, 64
3, 18719, Note_on_c, 1, 64, 0
3, 18720, Note_on_c, 1, 65, 64
3, 18839, Note_on_c, 1, 65, 0
3, 18900, Note_on_c, 1, 62, 64
3, 18959, Note_on_c, 1, 62, 0
3, 18960, Note_on_c, 1, 60, 64
3, 19079, Note_on_c, 1, 60, 0
3, 19140, Note_on_c, 1, 53, 64
3, 19199, Note_on_c, 1, 53, 0
3, 19200, Note_on_c, 1, 58, 64
3, 19349, Note_on_c, 1, 58, 0
3, 19380, Note_on_c, 1, 60, 64
3, 19439, Note_on_c, 1, 60, 0
3, 19440, Note_on_c, 1, 65, 64
3, 19559, Note_on_c, 1, 65, 0
3, 19620, Note_on_c, 1, 57, 64
3, 19679, Note_on_c, 1, 57, 0
3, 19680, Note_on_c, 1, 58, 64
3, 19739, Note_on_c, 1, 58, 0
3, 19740, Note_on_c, 1, 57, 64
3, 19799, Note_on_c, 1, 57, 0
3, 19800, Note_on_c, 1, 58, 64
3, 19859, Note_on_c, 1, 58, 0
3, 19860, Note_on_c, 1, 60, 64
3, 19919, Note_on_c, 1, 60, 0
3, 19920, Note_on_c, 1, 58, 64
3, 20159, Note_on_c, 1, 58, 0
3, 20160, Note_on_c, 1, 60, 64
3, 20399, Note_on_c, 1, 60, 0
3, 20400, Note_on_c, 1, 62, 64
3, 20519, Note_on_c, 1, 62, 0
3, 20520, Note_on_c, 1, 60, 64
3, 20520, Note_on_c, 1, 65, 64
3, 20534, Note_on_c, 1, 65, 0
3, 20535, Note_on_c, 1, 64, 64
3, 20549, Note_on_c, 1, 64, 0
3, 20550, Note_on_c, 1, 65, 64
3, 20564, Note_on_c, 1, 65, 0
3, 20565, Note_on_c, 1, 64, 64
3, 20579, Note_on_c, 1, 64, 0
3, 20579, Note_on_c, 1, 60, 0
3, 20580, Note_on_c, 1, 65, 64
3, 20594, Note_on_c, 1, 65, 0
3, 20595, Note_on_c, 1, 64, 64
3, 20624, Note_on_c, 1, 64, 0
3, 20625, Note_on_c, 1, 65, 64
3, 20632, Note_on_c, 1, 65, 0
3, 20640, Note_on_c, 1, 65, 64
3, 20640, Note_on_c, 1, 60, 64
3, 20669, Note_on_c, 1, 65, 0
3, 20700, Note_on_c, 1, 65, 64
3, 20729, Note_on_c, 1, 65, 0
3, 20759, Note_on_c, 1, 60, 0
3, 20760, Note_on_c, 1, 65, 64
3, 20789, Note_on_c, 1, 65, 0
3, 20820, Note_on_c, 1, 65, 64
3, 20879, Note_on_c, 1, 65, 0
3, 20880, Note_on_c, 1, 64, 64
3, 20880, Note_on_c, 1, 60, 64
3, 20909, Note_on_c, 1, 64, 0
3, 20940, Note_on_c, 1, 64, 64
3, 20969, Note_on_c, 1, 64, 0
3, 20999, Note_on_c, 1, 60, 0
3, 21000, Note_on_c, 1, 64, 64
3, 21029, Note_on_c, 1, 64, 0
3, 21060, Note_on_c, 1, 64, 64
3, 21119, Note_on_c, 1, 64, 0
3, 21120, Note_on_c, 1, 65, 64
3, 21120, Note_on_c, 1, 60, 64
3, 21149, Note_on_c, 1, 65, 0
3, 21180, Note_on_c, 1, 65, 64
3, 21209, Note_on_c, 1, 65, 0
3, 21239, Note_on_c, 1, 60, 0
3, 21240, Note_on_c, 1, 65, 64
3, 21269, Note_on_c, 1, 65, 0
3, 21300, Note_on_c, 1, 65, 64
3, 21359, Note_on_c, 1, 65, 0
3, 21360, Note_on_c, 1, 60, 64
3, 21360, Note_on_c, 1, 64, 64
3, 21479, Note_on_c, 1, 64, 0
3, 21479, Note_on_c, 1, 60, 0
3, 21540, Note_on_c, 1, 55, 64
3, 21599, Note_on_c, 1, 55, 0
3, 21600, Note_on_c, 1, 53, 64
3, 21659, Note_on_c, 1, 53, 0
3, 21660, Note_on_c, 1, 52, 64
3, 21719, Note_on_c, 1, 52, 0
3, 21720, Note_on_c, 1, 53, 64
3, 21779, Note_on_c, 1, 53, 0
3, 21780, Note_on_c, 1, 55, 64
3, 21839, Note_on_c, 1, 55, 0
3, 21840, Note_on_c, 1, 60, 64
3, 21840, Note_on_c, 1, 53, 64
3, 21959, Note_on_c, 1, 53, 0
3, 21959, Note_on_c, 1, 60, 0
3, 21960, Note_on_c, 1, 62, 64
3, 22079, Note_on_c, 1, 62, 0
3, 22080, Note_on_c, 1, 60, 64
3, 22199, Note_on_c, 1, 60, 0
3, 22260, Note_on_c, 1, 60, 64
3, 22319, Note_on_c, 1, 60, 0
3, 22320, Note_on_c, 1, 62, 64
3, 22439, Note_on_c, 1, 62, 0
3, 22500, Note_on_c, 1, 62, 64
3, 22559, Note_on_c, 1, 62, 0
3, 22560, Note_on_c, 1, 64, 64
3, 22679, Note_on_c, 1, 64, 0
3, 22740, Note_on_c, 1, 60, 64
3, 22740, Note_on_c, 1, 65, 64
3, 22769, Note_on_c, 1, 60, 0
3, 22800, Note_on_c, 1, 60, 64
3, 22859, Note_on_c, 1, 65, 0
3, 22860, Note_on_c, 1, 64, 64
3, 22889, Note_on_c, 1, 64, 0
3, 22890, Note_on_c, 1, 62, 64
3, 22919, Note_on_c, 1, 62, 0
3, 22919, Note_on_c, 1, 60, 0
3, 22920, Note_on_c, 1, 64, 64
3, 22979, Note_on_c, 1, 64, 0
3, 22980, Note_on_c, 1, 57, 64
3, 22980, Note_on_c, 1, 60, 64
3, 22980, Note_on_c, 1, 65, 64
3, 23009, Note_on_c, 1, 65, 0
3, 23039, Note_on_c, 1, 60, 0
3, 23039, Note_on_c, 1, 57, 0
3, 23040, Note_on_c, 1, 58, 64
3, 23040, Note_on_c, 1, 65, 64
3, 23099, Note_on_c, 1, 65, 0
3, 23100, Note_on_c, 1, 64, 64
3, 23159, Note_on_c, 1, 64, 0
3, 23160, Note_on_c, 1, 65, 64
3, 23219, Note_on_c, 1, 65, 0
3, 23219, Note_on_c, 1, 58, 0
3, 23220, Note_on_c, 1, 67, 64
3, 23220, Note_on_c, 1, 58, 64
3, 23279, Note_on_c, 1, 58, 0
3, 23279, Note_on_c, 1, 67, 0
3, 23280, Note_on_c, 1, 60, 64
3, 23280, Note_on_c, 1, 57, 64
3, 23399, Note_on_c, 1, 57, 0
3, 23399, Note_on_c, 1, 60, 0
3, 23460, Note_on_c, 1, 60, 64
3, 23460, Note_on_c, 1, 57, 64
3, 23519, Note_on_c, 1, 57, 0
3, 23519, Note_on_c, 1, 60, 0
3, 23520, Note_on_c, 1, 58, 64
3, 23520, Note_on_c, 1, 55, 64
3, 23579, Note_on_c, 1, 55, 0
3, 23579, Note_on_c, 1, 58, 0
3, 23580, Note_on_c, 1, 57, 64
3, 23580, Note_on_c, 1, 53, 64
3, 23639, Note_on_c, 1, 53, 0
3, 23639, Note_on_c, 1, 57, 0
3, 23640, Note_on_c, 1, 67, 64
3, 23640, Note_on_c, 1, 58, 64
3, 23699, Note_on_c, 1, 58, 0
3, 23699, Note_on_c, 1, 67, 0
3, 23700, Note_on_c, 1, 60, 64
3, 23700, Note_on_c, 1, 57, 64
3, 23759, Note_on_c, 1, 57, 0
3, 23759, Note_on_c, 1, 60, 0
3, 23760, Note_on_c, 1, 62, 64
3, 23760, Note_on_c, 1, 58, 64
3, 23879, Note_on_c, 1, 58, 0
3, 23879, Note_on_c, 1, 62, 0
3, 24000, Note_on_c, 1, 60, 64
3, 24000, Note_on_c, 1, 58, 64
3, 24119, Note_on_c, 1, 58, 0
3, 24119, Note_on_c, 1, 60, 0
3, 24120, Note_on_c, 1, 60, 64
3, 24120, Note_on_c, 1, 57, 64
3, 24179, Note_on_c, 1, 57, 0
3, 24180, Note_on_c, 1, 58, 64
3, 24239, Note_on_c, 1, 58, 0
3, 24239, Note_on_c, 1, 60, 0
3, 24240, Note_on_c, 1, 60, 64
3, 24419, Note_on_c, 1, 60, 0
3, 24420, Note_on_c, 1, 58, 64
3, 24479, Note_on_c, 1, 58, 0
3, 24480, Note_on_c, 1, 57, 64
3, 25079, Note_on_c, 1, 57, 0
3, 25079, End_track
4, 0, Start_track
4, 0, Title_t, "Pedal"
4, 900, Note_on_c, 1, 29, 64
4, 1019, Note_on_c, 1, 29, 0
4, 1080, Note_on_c, 1, 34, 64
4, 1199, Note_on_c, 1, 34, 0
4, 1260, Note_on_c, 1, 31, 64
4, 1379, Note_on_c, 1, 31, 0
4, 1440, Note_on_c, 1, 36, 64
4, 1559, Note_on_c, 1, 36, 0
4, 1620, Note_on_c, 1, 33, 64
4, 1739, Note_on_c, 1, 33, 0
4, 1800, Note_on_c, 1, 38, 64
4, 1919, Note_on_c, 1, 38, 0
4, 1980, Note_on_c, 1, 34, 64
4, 2099, Note_on_c, 1, 34, 0
4, 2160, Note_on_c, 1, 34, 64
4, 2279, Note_on_c, 1, 34, 0
4, 2280, Note_on_c, 1, 33, 64
4, 2339, Note_on_c, 1, 33, 0
4, 2340, Note_on_c, 1, 34, 64
4, 2399, Note_on_c, 1, 34, 0
4, 2400, Note_on_c, 1, 36, 64
4, 2519, Note_on_c, 1, 36, 0
4, 2520, Note_on_c, 1, 29, 64
4, 2669, Note_on_c, 1, 29, 0
4, 6300, Note_on_c, 1, 36, 64
4, 6419, Note_on_c, 1, 36, 0
4, 6480, Note_on_c, 1, 29, 64
4, 6599, Note_on_c, 1, 29, 0
4, 6660, Note_on_c, 1, 38, 64
4, 6779, Note_on_c, 1, 38, 0
4, 6840, Note_on_c, 1, 31, 64
4, 6959, Note_on_c, 1, 31, 0
4, 7020, Note_on_c, 1, 40, 64
4, 7139, Note_on_c, 1, 40, 0
4, 7200, Note_on_c, 1, 33, 64
4, 7319, Note_on_c, 1, 33, 0
4, 7380, Note_on_c, 1, 39, 64
4, 7559, Note_on_c, 1, 39, 0
4, 7560, Note_on_c, 1, 40, 64
4, 7619, Note_on_c, 1, 40, 0
4, 7620, Note_on_c, 1, 38, 64
4, 7679, Note_on_c, 1, 38, 0
4, 7680, Note_on_c, 1, 36, 64
4, 7739, Note_on_c, 1, 36, 0
4, 7740, Note_on_c, 1, 33, 64
4, 7799, Note_on_c, 1, 33, 0
4, 7800, Note_on_c, 1, 40, 64
4, 7919, Note_on_c, 1, 40, 0
4, 7920, Note_on_c, 1, 33, 64
4, 8069, Note_on_c, 1, 33, 0
4, 8820, Note_on_c, 1, 29, 64
4, 8939, Note_on_c, 1, 29, 0
4, 9000, Note_on_c, 1, 34, 64
4, 9119, Note_on_c, 1, 34, 0
4, 9180, Note_on_c, 1, 31, 64
4, 9299, Note_on_c, 1, 31, 0
4, 9360, Note_on_c, 1, 36, 64
4, 9479, Note_on_c, 1, 36, 0
4, 9540, Note_on_c, 1, 33, 64
4, 9659, Note_on_c, 1, 33, 0
4, 9720, Note_on_c, 1, 38, 64
4, 9839, Note_on_c, 1, 38, 0
4, 9900, Note_on_c, 1, 34, 64
4, 10019, Note_on_c, 1, 34, 0
4, 10080, Note_on_c, 1, 34, 64
4, 10199, Note_on_c, 1, 34, 0
4, 10200, Note_on_c, 1, 33, 64
4, 10259, Note_on_c, 1, 33, 0
4, 10260, Note_on_c, 1, 34, 64
4, 10319, Note_on_c, 1, 34, 0
4, 10320, Note_on_c, 1, 36, 64
4, 10439, Note_on_c, 1, 36, 0
4, 10440, Note_on_c, 1, 29, 64
4, 10739, Note_on_c, 1, 29, 0
4, 15060, Note_on_c, 1, 36, 64
4, 15119, Note_on_c, 1, 36, 0
4, 15120, Note_on_c, 1, 38, 64
4, 15179, Note_on_c, 1, 38, 0
4, 15180, Note_on_c, 1, 36, 64
4, 15239, Note_on_c, 1, 36, 0
4, 15240, Note_on_c, 1, 38, 64
4, 15299, Note_on_c, 1, 38, 0
4, 15300, Note_on_c, 1, 40, 64
4, 15359, Note_on_c, 1, 40, 0
4, 15360, Note_on_c, 1, 41, 64
4, 15389, Note_on_c, 1, 41, 0
4, 15390, Note_on_c, 1, 43, 64
4, 15419, Note_on_c, 1, 43, 0
4, 15420, Note_on_c, 1, 41, 64
4, 15449, Note_on_c, 1, 41, 0
4, 15450, Note_on_c, 1, 43, 64
4, 15479, Note_on_c, 1, 43, 0
4, 15480, Note_on_c, 1, 41, 64
4, 15509, Note_on_c, 1, 41, 0
4, 15510, Note_on_c, 1, 43, 64
4, 15539, Note_on_c, 1, 43, 0
4, 15540, Note_on_c, 1, 41, 64
4, 15569, Note_on_c, 1, 41, 0
4, 15570, Note_on_c, 1, 43, 64
4, 15599, Note_on_c, 1, 43, 0
4, 15600, Note_on_c, 1, 40, 64
4, 15629, Note_on_c, 1, 40, 0
4, 15630, Note_on_c, 1, 41, 64
4, 15659, Note_on_c, 1, 41, 0
4, 15660, Note_on_c, 1, 40, 64
4, 15689, Note_on_c, 1, 40, 0
4, 15690, Note_on_c, 1, 41, 64
4, 15719, Note_on_c, 1, 41, 0
4, 15720, Note_on_c, 1, 40, 64
4, 15749, Note_on_c, 1, 40, 0
4, 15750, Note_on_c, 1, 41, 64
4, 15779, Note_on_c, 1, 41, 0
4, 15780, Note_on_c, 1, 40, 64
4, 15809, Note_on_c, 1, 40, 0
4, 15810, Note_on_c, 1, 41, 64
4, 15839, Note_on_c, 1, 41, 0
4, 15840, Note_on_c, 1, 38, 64
4, 15959, Note_on_c, 1, 38, 0
4, 15960, Note_on_c, 1, 43, 64
4, 16079, Note_on_c, 1, 43, 0
4, 16080, Note_on_c, 1, 36, 64
4, 16559, Note_on_c, 1, 36, 0
4, 16560, Note_on_c, 1, 43, 64
4, 16799, Note_on_c, 1, 43, 0
4, 16800, Note_on_c, 1, 38, 64
4, 17039, Note_on_c, 1, 38, 0
4, 17040, Note_on_c, 1, 45, 64
4, 17459, Note_on_c, 1, 45, 0
4, 17460, Note_on_c, 1, 43, 64
4, 17519, Note_on_c, 1, 43, 0
4, 17520, Note_on_c, 1, 41, 64
4, 17639, Note_on_c, 1, 41, 0
4, 17640, Note_on_c, 1, 38, 64
4, 17759, Note_on_c, 1, 38, 0
4, 17760, Note_on_c, 1, 40, 64
4, 17879, Note_on_c, 1, 40, 0
4, 17880, Note_on_c, 1, 36, 64
4, 17999, Note_on_c, 1, 36, 0
4, 18000, Note_on_c, 1, 43, 64
4, 18239, Note_on_c, 1, 43, 0
4, 18240, Note_on_c, 1, 36, 64
4, 18359, Note_on_c, 1, 36, 0
4, 19620, Note_on_c, 1, 41, 64
4, 19679, Note_on_c, 1, 41, 0
4, 19680, Note_on_c, 1, 43, 64
4, 19739, Note_on_c, 1, 43, 0
4, 19740, Note_on_c, 1, 41, 64
4, 19799, Note_on_c, 1, 41, 0
4, 19800, Note_on_c, 1, 43, 64
4, 19859, Note_on_c, 1, 43, 0
4, 19860, Note_on_c, 1, 45, 64
4, 19919, Note_on_c, 1, 45, 0
4, 19920, Note_on_c, 1, 46, 64
4, 19949, Note_on_c, 1, 46, 0
4, 19950, Note_on_c, 1, 48, 64
4, 19979, Note_on_c, 1, 48, 0
4, 19980, Note_on_c, 1, 46, 64
4, 20009, Note_on_c, 1, 46, 0
4, 20010, Note_on_c, 1, 48, 64
4, 20039, Note_on_c, 1, 48, 0
4, 20040, Note_on_c, 1, 46, 64
4, 20069, Note_on_c, 1, 46, 0
4, 20070, Note_on_c, 1, 48, 64
4, 20099, Note_on_c, 1, 48, 0
4, 20100, Note_on_c, 1, 46, 64
4, 20129, Note_on_c, 1, 46, 0
4, 20130, Note_on_c, 1, 48, 64
4, 20159, Note_on_c, 1, 48, 0
4, 20160, Note_on_c, 1, 45, 64
4, 20189, Note_on_c, 1, 45, 0
4, 20190, Note_on_c, 1, 46, 64
4, 20219, Note_on_c, 1, 46, 0
4, 20220, Note_on_c, 1, 45, 64
4, 20249, Note_on_c, 1, 45, 0
4, 20250, Note_on_c, 1, 46, 64
4, 20279, Note_on_c, 1, 46, 0
4, 20280, Note_on_c, 1, 45, 64
4, 20309, Note_on_c, 1, 45, 0
4, 20310, Note_on_c, 1, 46, 64
4, 20339, Note_on_c, 1, 46, 0
4, 20340, Note_on_c, 1, 45, 64
4, 20369, Note_on_c, 1, 45, 0
4, 20370, Note_on_c, 1, 46, 64
4, 20399, Note_on_c, 1, 46, 0
4, 20400, Note_on_c, 1, 43, 64
4, 20519, Note_on_c, 1, 43, 0
4, 20520, Note_on_c, 1, 36, 64
4, 20639, Note_on_c, 1, 36, 0
4, 20640, Note_on_c, 1, 41, 64
4, 20759, Note_on_c, 1, 41, 0
4, 20880, Note_on_c, 1, 36, 64
4, 20999, Note_on_c, 1, 36, 0
4, 21120, Note_on_c, 1, 41, 64
4, 21239, Note_on_c, 1, 41, 0
4, 21360, Note_on_c, 1, 36, 64
4, 21479, Note_on_c, 1, 36, 0
4, 21540, Note_on_c, 1, 36, 64
4, 21599, Note_on_c, 1, 36, 0
4, 21600, Note_on_c, 1, 38, 64
4, 21659, Note_on_c, 1, 38, 0
4, 21660, Note_on_c, 1, 36, 64
4, 21719, Note_on_c, 1, 36, 0
4, 21720, Note_on_c, 1, 38, 64
4, 21779, Note_on_c, 1, 38, 0
4, 21780, Note_on_c, 1, 40, 64
4, 21839, Note_on_c, 1, 40, 0
4, 21840, Note_on_c, 1, 41, 64
4, 21869, Note_on_c, 1, 41, 0
4, 21870, Note_on_c, 1, 43, 64
4, 21899, Note_on_c, 1, 43, 0
4, 21900, Note_on_c, 1, 41, 64
4, 21929, Note_on_c, 1, 41, 0
4, 21930, Note_on_c, 1, 43, 64
4, 21959, Note_on_c, 1, 43, 0
4, 21960, Note_on_c, 1, 41, 64
4, 21989, Note_on_c, 1, 41, 0
4, 21990, Note_on_c, 1, 43, 64
4, 22019, Note_on_c, 1, 43, 0
4, 22020, Note_on_c, 1, 41, 64
4, 22049, Note_on_c, 1, 41, 0
4, 22050, Note_on_c, 1, 43, 64
4, 22079, Note_on_c, 1, 43, 0
4, 22080, Note_on_c, 1, 40, 64
4, 22109, Note_on_c, 1, 40, 0
4, 22110, Note_on_c, 1, 41, 64
4, 22139, Note_on_c, 1, 41, 0
4, 22140, Note_on_c, 1, 40, 64
4, 22169, Note_on_c, 1, 40, 0
4, 22170, Note_on_c, 1, 41, 64
4, 22199, Note_on_c, 1, 41, 0
4, 22200, Note_on_c, 1, 40, 64
4, 22229, Note_on_c, 1, 40, 0
4, 22230, Note_on_c, 1, 41, 64
4, 22259, Note_on_c, 1, 41, 0
4, 22260, Note_on_c, 1, 40, 64
4, 22289, Note_on_c, 1, 40, 0
4, 22290, Note_on_c, 1, 41, 64
4, 22319, Note_on_c, 1, 41, 0
4, 22320, Note_on_c, 1, 38, 64
4, 22349, Note_on_c, 1, 38, 0
4, 22350, Note_on_c, 1, 40, 64
4, 22379, Note_on_c, 1, 40, 0
4, 22380, Note_on_c, 1, 38, 64
4, 22409, Note_on_c, 1, 38, 0
4, 22410, Note_on_c, 1, 40, 64
4, 22439, Note_on_c, 1, 40, 0
4, 22440, Note_on_c, 1, 38, 64
4, 22469, Note_on_c, 1, 38, 0
4, 22470, Note_on_c, 1, 40, 64
4, 22499, Note_on_c, 1, 40, 0
4, 22500, Note_on_c, 1, 38, 64
4, 22529, Note_on_c, 1, 38, 0
4, 22530, Note_on_c, 1, 40, 64
4, 22559, Note_on_c, 1, 40, 0
4, 22560, Note_on_c, 1, 36, 64
4, 22589, Note_on_c, 1, 36, 0
4, 22590, Note_on_c, 1, 38, 64
4, 22619, Note_on_c, 1, 38, 0
4, 22620, Note_on_c, 1, 36, 64
4, 22649, Note_on_c, 1, 36, 0
4, 22650, Note_on_c, 1, 38, 64
4, 22679, Note_on_c, 1, 38, 0
4, 22680, Note_on_c, 1, 36, 64
4, 22709, Note_on_c, 1, 36, 0
4, 22710, Note_on_c, 1, 38, 64
4, 22739, Note_on_c, 1, 38, 0
4, 22740, Note_on_c, 1, 36, 64
4, 22769, Note_on_c, 1, 36, 0
4, 22770, Note_on_c, 1, 38, 64
4, 22799, Note_on_c, 1, 38, 0
4, 22800, Note_on_c, 1, 36, 64
4, 22919, Note_on_c, 1, 36, 0
4, 22980, Note_on_c, 1, 33, 64
4, 23039, Note_on_c, 1, 33, 0
4, 23040, Note_on_c, 1, 34, 64
4, 23159, Note_on_c, 1, 34, 0
4, 23220, Note_on_c, 1, 34, 64
4, 23279, Note_on_c, 1, 34, 0
4, 23280, Note_on_c, 1, 33, 64
4, 23399, Note_on_c, 1, 33, 0
4, 23460, Note_on_c, 1, 33, 64
4, 23519, Note_on_c, 1, 33, 0
4, 23520, Note_on_c, 1, 31, 64
4, 23579, Note_on_c, 1, 31, 0
4, 23580, Note_on_c, 1, 29, 64
4, 23639, Note_on_c, 1, 29, 0
4, 23640, Note_on_c, 1, 31, 64
4, 23699, Note_on_c, 1, 31, 0
4, 23700, Note_on_c, 1, 33, 64
4, 23759, Note_on_c, 1, 33, 0
4, 23760, Note_on_c, 1, 34, 64
4, 24119, Note_on_c, 1, 34, 0
4, 24120, Note_on_c, 1, 33, 64
4, 24179, Note_on_c, 1, 33, 0
4, 24180, Note_on_c, 1, 34, 64
4, 24239, Note_on_c, 1, 34, 0
4, 24240, Note_on_c, 1, 36, 64
4, 24479, Note_on_c, 1, 36, 0
4, 24480, Note_on_c, 1, 29, 64
4, 25079, Note_on_c, 1, 29, 0
4, 25079, End_track
0, 0, End_of_file
