0, 0, Header, 1, 4, 120
1, 0, Start_track
1, 0, Key_signature, 0, "major"
1, 0, Tempo, 384615
1, 0, Time_signature, 4, 2, 24, 8
1, 54240, Tempo, 384615
1, 54271, Tempo, 387096
1, 54303, Tempo, 389610
1, 54335, Tempo, 392156
1, 54367, Tempo, 394736
1, 54399, Tempo, 397350
1, 54431, Tempo, 400000
1, 54463, Tempo, 402684
1, 54495, Tempo, 405405
1, 54527, Tempo, 408163
1, 54559, Tempo, 410958
1, 54591, Tempo, 413793
1, 54623, Tempo, 416666
1, 54655, Tempo, 419580
1, 54687, Tempo, 422535
1, 54719, Tempo, 425531
1, 54751, Tempo, 428571
1, 54783, Tempo, 431654
1, 54815, Tempo, 434782
1, 54847, Tempo, 437956
1, 54879, Tempo, 441176
1, 54911, Tempo, 444444
1, 54943, Tempo, 447761
1, 54975, Tempo, 451127
1, 55007, Tempo, 454545
1, 55039, Tempo, 458015
1, 55071, Tempo, 461538
1, 55103, Tempo, 465116
1, 55135, Tempo, 468750
1, 55167, Tempo, 472440
1, 55199, Tempo, 476190
1, 81120, End_track
2, 0, Start_track
2, 0, Title_t, ""
2, 0, Instrument_name_t, "Pipe Organ"
2, 60, Note_on_c, 1, 72, 64
2, 119, Note_on_c, 1, 72, 0
2, 120, Note_on_c, 1, 71, 64
2, 179, Note_on_c, 1, 71, 0
2, 180, Note_on_c, 1, 72, 64
2, 239, Note_on_c, 1, 72, 0
2, 240, Note_on_c, 1, 67, 64
2, 299, Note_on_c, 1, 67, 0
2, 300, Note_on_c, 1, 72, 64
2, 359, Note_on_c, 1, 72, 0
2, 360, Note_on_c, 1, 71, 64
2, 419, Note_on_c, 1, 71, 0
2, 420, Note_on_c, 1, 72, 64
2, 479, Note_on_c, 1, 72, 0
2, 480, Note_on_c, 1, 64, 64
2, 719, Note_on_c, 1, 64, 0
2, 1020, Note_on_c, 1, 72, 64
2, 1079, Note_on_c, 1, 72, 0
2, 1080, Note_on_c, 1, 71, 64
2, 1139, Note_on_c, 1, 71, 0
2, 1140, Note_on_c, 1, 72, 64
2, 1199, Note_on_c, 1, 72, 0
2, 1200, Note_on_c, 1, 67, 64
2, 1259, Note_on_c, 1, 67, 0
2, 1260, Note_on_c, 1, 72, 64
2, 1319, Note_on_c, 1, 72, 0
2, 1320, Note_on_c, 1, 71, 64
2, 1379, Note_on_c, 1, 71, 0
2, 1380, Note_on_c, 1, 72, 64
2, 1439, Note_on_c, 1, 72, 0
2, 1440, Note_on_c, 1, 69, 64
2, 1499, Note_on_c, 1, 69, 0
2, 1500, Note_on_c, 1, 65, 64
2, 1559, Note_on_c, 1, 65, 0
2, 1560, Note_on_c, 1, 64, 64
2, 1619, Note_on_c, 1, 64, 0
2, 1620, Note_on_c, 1, 65, 64
2, 1679, Note_on_c, 1, 65, 0
2, 1680, Note_on_c, 1, 60, 64
2, 1739, Note_on_c, 1, 60, 0
2, 1740, Note_on_c, 1, 65, 64
2, 1799, Note_on_c, 1, 65, 0
2, 1800, Note_on_c, 1, 64, 64
2, 1859, Note_on_c, 1, 64, 0
2, 1860, Note_on_c, 1, 65, 64
2, 1919, Note_on_c, 1, 65, 0
2, 1920, Note_on_c, 1, 62, 64
2, 1979, Note_on_c, 1, 62, 0
2, 1980, Note_on_c, 1, 74, 64
2, 2039, Note_on_c, 1, 74, 0
2, 2040, Note_on_c, 1, 72, 64
2, 2099, Note_on_c, 1, 72, 0
2, 2100, Note_on_c, 1, 74, 64
2, 2159, Note_on_c, 1, 74, 0
2, 2160, Note_on_c, 1, 69, 64
2, 2219, Note_on_c, 1, 69, 0
2, 2220, Note_on_c, 1, 74, 64
2, 2279, Note_on_c, 1, 74, 0
2, 2280, Note_on_c, 1, 72, 64
2, 2339, Note_on_c, 1, 72, 0
2, 2340, Note_on_c, 1, 74, 64
2, 2399, Note_on_c, 1, 74, 0
2, 2400, Note_on_c, 1, 71, 64
2, 2459, Note_on_c, 1, 71, 0
2, 2460, Note_on_c, 1, 67, 64
2, 2519, Note_on_c, 1, 67, 0
2, 2520, Note_on_c, 1, 66, 64
2, 2579, Note_on_c, 1, 66, 0
2, 2580, Note_on_c, 1, 67, 64
2, 2639, Note_on_c, 1, 67, 0
2, 2640, Note_on_c, 1, 62, 64
2, 2699, Note_on_c, 1, 62, 0
2, 2700, Note_on_c, 1, 67, 64
2, 2759, Note_on_c, 1, 67, 0
2, 2760, Note_on_c, 1, 66, 64
2, 2819, Note_on_c, 1, 66, 0
2, 2820, Note_on_c, 1, 67, 64
2, 2879, Note_on_c, 1, 67, 0
2, 2880, Note_on_c, 1, 64, 64
2, 2939, Note_on_c, 1, 64, 0
2, 2940, Note_on_c, 1, 76, 64
2, 2999, Note_on_c, 1, 76, 0
2, 3000, Note_on_c, 1, 74, 64
2, 3059, Note_on_c, 1, 74, 0
2, 3060, Note_on_c, 1, 76, 64
2, 3119, Note_on_c, 1, 76, 0
2, 3120, Note_on_c, 1, 71, 64
2, 3179, Note_on_c, 1, 71, 0
2, 3180, Note_on_c, 1, 76, 64
2, 3239, Note_on_c, 1, 76, 0
2, 3240, Note_on_c, 1, 74, 64
2, 3299, Note_on_c, 1, 74, 0
2, 3300, Note_on_c, 1, 76, 64
2, 3359, Note_on_c, 1, 76, 0
2, 3360, Note_on_c, 1, 72, 64
2, 3419, Note_on_c, 1, 72, 0
2, 3420, Note_on_c, 1, 69, 64
2, 3479, Note_on_c, 1, 69, 0
2, 3480, Note_on_c, 1, 68, 64
2, 3539, Note_on_c, 1, 68, 0
2, 3540, Note_on_c, 1, 69, 64
2, 3599, Note_on_c, 1, 69, 0
2, 3600, Note_on_c, 1, 64, 64
2, 3659, Note_on_c, 1, 64, 0
2, 3660, Note_on_c, 1, 69, 64
2, 3719, Note_on_c, 1, 69, 0
2, 3720, Note_on_c, 1, 68, 64
2, 3779, Note_on_c, 1, 68, 0
2, 3780, Note_on_c, 1, 69, 64
2, 3839, Note_on_c, 1, 69, 0
2, 3840, Note_on_c, 1, 72, 64
2, 3899, Note_on_c, 1, 72, 0
2, 3900, Note_on_c, 1, 66, 64
2, 3959, Note_on_c, 1, 66, 0
2, 3960, Note_on_c, 1, 64, 64
2, 4019, Note_on_c, 1, 64, 0
2, 4020, Note_on_c, 1, 66, 64
2, 4079, Note_on_c, 1, 66, 0
2, 4080, Note_on_c, 1, 72, 64
2, 4139, Note_on_c, 1, 72, 0
2, 4140, Note_on_c, 1, 66, 64
2, 4199, Note_on_c, 1, 66, 0
2, 4200, Note_on_c, 1, 64, 64
2, 4259, Note_on_c, 1, 64, 0
2, 4260, Note_on_c, 1, 66, 64
2, 4319, Note_on_c, 1, 66, 0
2, 4320, Note_on_c, 1, 71, 64
2, 4379, Note_on_c, 1, 71, 0
2, 4380, Note_on_c, 1, 67, 64
2, 4439, Note_on_c, 1, 67, 0
2, 4440, Note_on_c, 1, 66, 64
2, 4499, Note_on_c, 1, 66, 0
2, 4500, Note_on_c, 1, 67, 64
2, 4559, Note_on_c, 1, 67, 0
2, 4560, Note_on_c, 1, 71, 64
2, 4619, Note_on_c, 1, 71, 0
2, 4620, Note_on_c, 1, 67, 64
2, 4679, Note_on_c, 1, 67, 0
2, 4680, Note_on_c, 1, 66, 64
2, 4739, Note_on_c, 1, 66, 0
2, 4740, Note_on_c, 1, 67, 64
2, 4799, Note_on_c, 1, 67, 0
2, 4800, Note_on_c, 1, 71, 64
2, 4859, Note_on_c, 1, 71, 0
2, 4860, Note_on_c, 1, 64, 64
2, 4919, Note_on_c, 1, 64, 0
2, 4920, Note_on_c, 1, 62, 64
2, 4979, Note_on_c, 1, 62, 0
2, 4980, Note_on_c, 1, 64, 64
2, 5039, Note_on_c, 1, 64, 0
2, 5040, Note_on_c, 1, 71, 64
2, 5099, Note_on_c, 1, 71, 0
2, 5100, Note_on_c, 1, 64, 64
2, 5159, Note_on_c, 1, 64, 0
2, 5160, Note_on_c, 1, 62, 64
2, 5219, Note_on_c, 1, 62, 0
2, 5220, Note_on_c, 1, 64, 64
2, 5279, Note_on_c, 1, 64, 0
2, 5280, Note_on_c, 1, 69, 64
2, 5339, Note_on_c, 1, 69, 0
2, 5340, Note_on_c, 1, 66, 64
2, 5399, Note_on_c, 1, 66, 0
2, 5400, Note_on_c, 1, 64, 64
2, 5459, Note_on_c, 1, 64, 0
2, 5460, Note_on_c, 1, 66, 64
2, 5519, Note_on_c, 1, 66, 0
2, 5520, Note_on_c, 1, 69, 64
2, 5579, Note_on_c, 1, 69, 0
2, 5580, Note_on_c, 1, 66, 64
2, 5639, Note_on_c, 1, 66, 0
2, 5640, Note_on_c, 1, 64, 64
2, 5699, Note_on_c, 1, 64, 0
2, 5700, Note_on_c, 1, 66, 64
2, 5759, Note_on_c, 1, 66, 0
2, 5760, Note_on_c, 1, 69, 64
2, 5819, Note_on_c, 1, 69, 0
2, 5820, Note_on_c, 1, 62, 64
2, 5879, Note_on_c, 1, 62, 0
2, 5880, Note_on_c, 1, 60, 64
2, 5939, Note_on_c, 1, 60, 0
2, 5940, Note_on_c, 1, 62, 64
2, 5999, Note_on_c, 1, 62, 0
2, 6000, Note_on_c, 1, 69, 64
2, 6059, Note_on_c, 1, 69, 0
2, 6060, Note_on_c, 1, 62, 64
2, 6119, Note_on_c, 1, 62, 0
2, 6120, Note_on_c, 1, 60, 64
2, 6179, Note_on_c, 1, 60, 0
2, 6180, Note_on_c, 1, 62, 64
2, 6239, Note_on_c, 1, 62, 0
2, 6240, Note_on_c, 1, 67, 64
2, 6299, Note_on_c, 1, 67, 0
2, 6300, Note_on_c, 1, 64, 64
2, 6359, Note_on_c, 1, 64, 0
2, 6360, Note_on_c, 1, 62, 64
2, 6419, Note_on_c, 1, 62, 0
2, 6420, Note_on_c, 1, 64, 64
2, 6479, Note_on_c, 1, 64, 0
2, 6480, Note_on_c, 1, 67, 64
2, 6539, Note_on_c, 1, 67, 0
2, 6540, Note_on_c, 1, 64, 64
2, 6599, Note_on_c, 1, 64, 0
2, 6600, Note_on_c, 1, 62, 64
2, 6659, Note_on_c, 1, 62, 0
2, 6660, Note_on_c, 1, 64, 64
2, 6719, Note_on_c, 1, 64, 0
2, 6720, Note_on_c, 1, 67, 64
2, 6779, Note_on_c, 1, 67, 0
2, 6780, Note_on_c, 1, 61, 64
2, 6839, Note_on_c, 1, 61, 0
2, 6840, Note_on_c, 1, 59, 64
2, 6899, Note_on_c, 1, 59, 0
2, 6900, Note_on_c, 1, 61, 64
2, 6959, Note_on_c, 1, 61, 0
2, 6960, Note_on_c, 1, 67, 64
2, 7019, Note_on_c, 1, 67, 0
2, 7020, Note_on_c, 1, 61, 64
2, 7079, Note_on_c, 1, 61, 0
2, 7080, Note_on_c, 1, 59, 64
2, 7139, Note_on_c, 1, 59, 0
2, 7140, Note_on_c, 1, 61, 64
2, 7199, Note_on_c, 1, 61, 0
2, 7200, Note_on_c, 1, 66, 64
2, 7259, Note_on_c, 1, 66, 0
2, 7260, Note_on_c, 1, 62, 64
2, 7319, Note_on_c, 1, 62, 0
2, 7320, Note_on_c, 1, 61, 64
2, 7379, Note_on_c, 1, 61, 0
2, 7380, Note_on_c, 1, 62, 64
2, 7439, Note_on_c, 1, 62, 0
2, 7440, Note_on_c, 1, 66, 64
2, 7499, Note_on_c, 1, 66, 0
2, 7500, Note_on_c, 1, 62, 64
2, 7559, Note_on_c, 1, 62, 0
2, 7560, Note_on_c, 1, 61, 64
2, 7619, Note_on_c, 1, 61, 0
2, 7620, Note_on_c, 1, 62, 64
2, 7679, Note_on_c, 1, 62, 0
2, 7680, Note_on_c, 1, 67, 64
2, 7739, Note_on_c, 1, 67, 0
2, 7740, Note_on_c, 1, 66, 64
2, 7799, Note_on_c, 1, 66, 0
2, 7800, Note_on_c, 1, 67, 64
2, 7859, Note_on_c, 1, 67, 0
2, 7860, Note_on_c, 1, 62, 64
2, 7919, Note_on_c, 1, 62, 0
2, 7920, Note_on_c, 1, 69, 64
2, 7979, Note_on_c, 1, 69, 0
2, 7980, Note_on_c, 1, 67, 64
2, 8039, Note_on_c, 1, 67, 0
2, 8040, Note_on_c, 1, 69, 64
2, 8099, Note_on_c, 1, 69, 0
2, 8100, Note_on_c, 1, 62, 64
2, 8159, Note_on_c, 1, 62, 0
2, 8160, Note_on_c, 1, 71, 64
2, 8219, Note_on_c, 1, 71, 0
2, 8220, Note_on_c, 1, 69, 64
2, 8279, Note_on_c, 1, 69, 0
2, 8280, Note_on_c, 1, 71, 64
2, 8339, Note_on_c, 1, 71, 0
2, 8340, Note_on_c, 1, 62, 64
2, 8399, Note_on_c, 1, 62, 0
2, 8400, Note_on_c, 1, 72, 64
2, 8459, Note_on_c, 1, 72, 0
2, 8460, Note_on_c, 1, 71, 64
2, 8519, Note_on_c, 1, 71, 0
2, 8520, Note_on_c, 1, 72, 64
2, 8579, Note_on_c, 1, 72, 0
2, 8580, Note_on_c, 1, 62, 64
2, 8639, Note_on_c, 1, 62, 0
2, 8640, Note_on_c, 1, 74, 64
2, 8700, Note_on_c, 1, 66, 64
2, 8759, Note_on_c, 1, 66, 0
2, 8760, Note_on_c, 1, 67, 64
2, 8819, Note_on_c, 1, 67, 0
2, 8820, Note_on_c, 1, 69, 64
2, 8879, Note_on_c, 1, 69, 0
2, 8880, Note_on_c, 1, 71, 64
2, 8999, Note_on_c, 1, 71, 0
2, 8999, Note_on_c, 1, 74, 0
2, 9000, Note_on_c, 1, 74, 64
2, 9119, Note_on_c, 1, 74, 0
2, 9120, Note_on_c, 1, 76, 64
2, 9179, Note_on_c, 1, 76, 0
2, 9180, Note_on_c, 1, 79, 64
2, 9239, Note_on_c, 1, 79, 0
2, 9240, Note_on_c, 1, 74, 64
2, 9299, Note_on_c, 1, 74, 0
2, 9300, Note_on_c, 1, 79, 64
2, 9359, Note_on_c, 1, 79, 0
2, 9360, Note_on_c, 1, 72, 64
2, 9419, Note_on_c, 1, 72, 0
2, 9420, Note_on_c, 1, 79, 64
2, 9479, Note_on_c, 1, 79, 0
2, 9480, Note_on_c, 1, 71, 64
2, 9539, Note_on_c, 1, 71, 0
2, 9540, Note_on_c, 1, 79, 64
2, 9599, Note_on_c, 1, 79, 0
2, 9600, Note_on_c, 1, 69, 64
2, 9839, Note_on_c, 1, 69, 0
2, 9960, Note_on_c, 1, 71, 64
2, 9960, Note_on_c, 1, 67, 64
2, 10079, Note_on_c, 1, 67, 0
2, 10079, Note_on_c, 1, 71, 0
2, 10080, Note_on_c, 1, 72, 64
2, 10080, Note_on_c, 1, 69, 64
2, 10139, Note_on_c, 1, 72, 0
2, 10140, Note_on_c, 1, 74, 64
2, 10199, Note_on_c, 1, 74, 0
2, 10199, Note_on_c, 1, 69, 0
2, 10200, Note_on_c, 1, 71, 64
2, 10200, Note_on_c, 1, 67, 64
2, 10259, Note_on_c, 1, 71, 0
2, 10260, Note_on_c, 1, 72, 64
2, 10319, Note_on_c, 1, 72, 0
2, 10319, Note_on_c, 1, 67, 0
2, 10320, Note_on_c, 1, 71, 64
2, 10349, Note_on_c, 1, 71, 0
2, 10350, Note_on_c, 1, 69, 64
2, 10379, Note_on_c, 1, 69, 0
2, 10380, Note_on_c, 1, 71, 64
2, 10409, Note_on_c, 1, 71, 0
2, 10410, Note_on_c, 1, 69, 64
2, 10439, Note_on_c, 1, 69, 0
2, 10440, Note_on_c, 1, 71, 64
2, 10469, Note_on_c, 1, 71, 0
2, 10470, Note_on_c, 1, 69, 64
2, 10529, Note_on_c, 1, 69, 0
2, 10530, Note_on_c, 1, 67, 64
2, 10559, Note_on_c, 1, 67, 0
2, 10560, Note_on_c, 1, 67, 64
2, 10560, Note_on_c, 1, 62, 64
2, 10560, Note_on_c, 1, 59, 64
2, 10799, Note_on_c, 1, 59, 0
2, 10799, Note_on_c, 1, 62, 0
2, 10799, Note_on_c, 1, 67, 0
2, 11580, Note_on_c, 1, 72, 64
2, 11639, Note_on_c, 1, 72, 0
2, 11640, Note_on_c, 1, 71, 64
2, 11699, Note_on_c, 1, 71, 0
2, 11700, Note_on_c, 1, 72, 64
2, 11759, Note_on_c, 1, 72, 0
2, 11760, Note_on_c, 1, 67, 64
2, 11819, Note_on_c, 1, 67, 0
2, 11820, Note_on_c, 1, 72, 64
2, 11879, Note_on_c, 1, 72, 0
2, 11880, Note_on_c, 1, 71, 64
2, 11939, Note_on_c, 1, 71, 0
2, 11940, Note_on_c, 1, 72, 64
2, 11999, Note_on_c, 1, 72, 0
2, 12000, Note_on_c, 1, 64, 64
2, 12239, Note_on_c, 1, 64, 0
2, 12540, Note_on_c, 1, 72, 64
2, 12599, Note_on_c, 1, 72, 0
2, 12600, Note_on_c, 1, 71, 64
2, 12659, Note_on_c, 1, 71, 0
2, 12660, Note_on_c, 1, 72, 64
2, 12719, Note_on_c, 1, 72, 0
2, 12720, Note_on_c, 1, 67, 64
2, 12779, Note_on_c, 1, 67, 0
2, 12780, Note_on_c, 1, 72, 64
2, 12839, Note_on_c, 1, 72, 0
2, 12840, Note_on_c, 1, 71, 64
2, 12899, Note_on_c, 1, 71, 0
2, 12900, Note_on_c, 1, 72, 64
2, 12959, Note_on_c, 1, 72, 0
2, 12960, Note_on_c, 1, 69, 64
2, 13019, Note_on_c, 1, 69, 0
2, 13020, Note_on_c, 1, 65, 64
2, 13079, Note_on_c, 1, 65, 0
2, 13080, Note_on_c, 1, 64, 64
2, 13139, Note_on_c, 1, 64, 0
2, 13140, Note_on_c, 1, 65, 64
2, 13199, Note_on_c, 1, 65, 0
2, 13200, Note_on_c, 1, 60, 64
2, 13259, Note_on_c, 1, 60, 0
2, 13260, Note_on_c, 1, 65, 64
2, 13319, Note_on_c, 1, 65, 0
2, 13320, Note_on_c, 1, 64, 64
2, 13379, Note_on_c, 1, 64, 0
2, 13380, Note_on_c, 1, 65, 64
2, 13439, Note_on_c, 1, 65, 0
2, 13440, Note_on_c, 1, 62, 64
2, 13499, Note_on_c, 1, 62, 0
2, 13500, Note_on_c, 1, 74, 64
2, 13559, Note_on_c, 1, 74, 0
2, 13560, Note_on_c, 1, 72, 64
2, 13619, Note_on_c, 1, 72, 0
2, 13620, Note_on_c, 1, 74, 64
2, 13679, Note_on_c, 1, 74, 0
2, 13680, Note_on_c, 1, 69, 64
2, 13739, Note_on_c, 1, 69, 0
2, 13740, Note_on_c, 1, 74, 64
2, 13799, Note_on_c, 1, 74, 0
2, 13800, Note_on_c, 1, 72, 64
2, 13859, Note_on_c, 1, 72, 0
2, 13860, Note_on_c, 1, 74, 64
2, 13919, Note_on_c, 1, 74, 0
2, 13920, Note_on_c, 1, 71, 64
2, 13979, Note_on_c, 1, 71, 0
2, 13980, Note_on_c, 1, 67, 64
2, 14039, Note_on_c, 1, 67, 0
2, 14040, Note_on_c, 1, 66, 64
2, 14099, Note_on_c, 1, 66, 0
2, 14100, Note_on_c, 1, 67, 64
2, 14159, Note_on_c, 1, 67, 0
2, 14160, Note_on_c, 1, 62, 64
2, 14219, Note_on_c, 1, 62, 0
2, 14220, Note_on_c, 1, 67, 64
2, 14279, Note_on_c, 1, 67, 0
2, 14280, Note_on_c, 1, 66, 64
2, 14339, Note_on_c, 1, 66, 0
2, 14340, Note_on_c, 1, 67, 64
2, 14399, Note_on_c, 1, 67, 0
2, 14400, Note_on_c, 1, 64, 64
2, 14459, Note_on_c, 1, 64, 0
2, 14460, Note_on_c, 1, 76, 64
2, 14519, Note_on_c, 1, 76, 0
2, 14520, Note_on_c, 1, 74, 64
2, 14579, Note_on_c, 1, 74, 0
2, 14580, Note_on_c, 1, 76, 64
2, 14639, Note_on_c, 1, 76, 0
2, 14640, Note_on_c, 1, 71, 64
2, 14699, Note_on_c, 1, 71, 0
2, 14700, Note_on_c, 1, 76, 64
2, 14759, Note_on_c, 1, 76, 0
2, 14760, Note_on_c, 1, 74, 64
2, 14819, Note_on_c, 1, 74, 0
2, 14820, Note_on_c, 1, 76, 64
2, 14879, Note_on_c, 1, 76, 0
2, 14880, Note_on_c, 1, 72, 64
2, 14939, Note_on_c, 1, 72, 0
2, 14940, Note_on_c, 1, 69, 64
2, 14999, Note_on_c, 1, 69, 0
2, 15000, Note_on_c, 1, 68, 64
2, 15059, Note_on_c, 1, 68, 0
2, 15060, Note_on_c, 1, 69, 64
2, 15119, Note_on_c, 1, 69, 0
2, 15120, Note_on_c, 1, 64, 64
2, 15179, Note_on_c, 1, 64, 0
2, 15180, Note_on_c, 1, 69, 64
2, 15239, Note_on_c, 1, 69, 0
2, 15240, Note_on_c, 1, 68, 64
2, 15299, Note_on_c, 1, 68, 0
2, 15300, Note_on_c, 1, 69, 64
2, 15359, Note_on_c, 1, 69, 0
2, 15360, Note_on_c, 1, 72, 64
2, 15419, Note_on_c, 1, 72, 0
2, 15420, Note_on_c, 1, 66, 64
2, 15479, Note_on_c, 1, 66, 0
2, 15480, Note_on_c, 1, 64, 64
2, 15539, Note_on_c, 1, 64, 0
2, 15540, Note_on_c, 1, 66, 64
2, 15599, Note_on_c, 1, 66, 0
2, 15600, Note_on_c, 1, 72, 64
2, 15659, Note_on_c, 1, 72, 0
2, 15660, Note_on_c, 1, 66, 64
2, 15719, Note_on_c, 1, 66, 0
2, 15720, Note_on_c, 1, 64, 64
2, 15779, Note_on_c, 1, 64, 0
2, 15780, Note_on_c, 1, 66, 64
2, 15839, Note_on_c, 1, 66, 0
2, 15840, Note_on_c, 1, 71, 64
2, 15899, Note_on_c, 1, 71, 0
2, 15900, Note_on_c, 1, 67, 64
2, 15959, Note_on_c, 1, 67, 0
2, 15960, Note_on_c, 1, 66, 64
2, 16019, Note_on_c, 1, 66, 0
2, 16020, Note_on_c, 1, 67, 64
2, 16079, Note_on_c, 1, 67, 0
2, 16080, Note_on_c, 1, 71, 64
2, 16139, Note_on_c, 1, 71, 0
2, 16140, Note_on_c, 1, 67, 64
2, 16199, Note_on_c, 1, 67, 0
2, 16200, Note_on_c, 1, 66, 64
2, 16259, Note_on_c, 1, 66, 0
2, 16260, Note_on_c, 1, 67, 64
2, 16319, Note_on_c, 1, 67, 0
2, 16320, Note_on_c, 1, 71, 64
2, 16379, Note_on_c, 1, 71, 0
2, 16380, Note_on_c, 1, 64, 64
2, 16439, Note_on_c, 1, 64, 0
2, 16440, Note_on_c, 1, 62, 64
2, 16499, Note_on_c, 1, 62, 0
2, 16500, Note_on_c, 1, 64, 64
2, 16559, Note_on_c, 1, 64, 0
2, 16560, Note_on_c, 1, 71, 64
2, 16619, Note_on_c, 1, 71, 0
2, 16620, Note_on_c, 1, 64, 64
2, 16679, Note_on_c, 1, 64, 0
2, 16680, Note_on_c, 1, 62, 64
2, 16739, Note_on_c, 1, 62, 0
2, 16740, Note_on_c, 1, 64, 64
2, 16799, Note_on_c, 1, 64, 0
2, 16800, Note_on_c, 1, 69, 64
2, 16859, Note_on_c, 1, 69, 0
2, 16860, Note_on_c, 1, 66, 64
2, 16919, Note_on_c, 1, 66, 0
2, 16920, Note_on_c, 1, 64, 64
2, 16979, Note_on_c, 1, 64, 0
2, 16980, Note_on_c, 1, 66, 64
2, 17039, Note_on_c, 1, 66, 0
2, 17040, Note_on_c, 1, 69, 64
2, 17099, Note_on_c, 1, 69, 0
2, 17100, Note_on_c, 1, 66, 64
2, 17159, Note_on_c, 1, 66, 0
2, 17160, Note_on_c, 1, 64, 64
2, 17219, Note_on_c, 1, 64, 0
2, 17220, Note_on_c, 1, 66, 64
2, 17279, Note_on_c, 1, 66, 0
2, 17280, Note_on_c, 1, 69, 64
2, 17339, Note_on_c, 1, 69, 0
2, 17340, Note_on_c, 1, 62, 64
2, 17399, Note_on_c, 1, 62, 0
2, 17400, Note_on_c, 1, 60, 64
2, 17459, Note_on_c, 1, 60, 0
2, 17460, Note_on_c, 1, 62, 64
2, 17519, Note_on_c, 1, 62, 0
2, 17520, Note_on_c, 1, 69, 64
2, 17579, Note_on_c, 1, 69, 0
2, 17580, Note_on_c, 1, 62, 64
2, 17639, Note_on_c, 1, 62, 0
2, 17640, Note_on_c, 1, 60, 64
2, 17699, Note_on_c, 1, 60, 0
2, 17700, Note_on_c, 1, 62, 64
2, 17759, Note_on_c, 1, 62, 0
2, 17760, Note_on_c, 1, 67, 64
2, 17819, Note_on_c, 1, 67, 0
2, 17820, Note_on_c, 1, 64, 64
2, 17879, Note_on_c, 1, 64, 0
2, 17880, Note_on_c, 1, 62, 64
2, 17939, Note_on_c, 1, 62, 0
2, 17940, Note_on_c, 1, 64, 64
2, 17999, Note_on_c, 1, 64, 0
2, 18000, Note_on_c, 1, 67, 64
2, 18059, Note_on_c, 1, 67, 0
2, 18060, Note_on_c, 1, 64, 64
2, 18119, Note_on_c, 1, 64, 0
2, 18120, Note_on_c, 1, 62, 64
2, 18179, Note_on_c, 1, 62, 0
2, 18180, Note_on_c, 1, 64, 64
2, 18239, Note_on_c, 1, 64, 0
2, 18240, Note_on_c, 1, 67, 64
2, 18299, Note_on_c, 1, 67, 0
2, 18300, Note_on_c, 1, 61, 64
2, 18359, Note_on_c, 1, 61, 0
2, 18360, Note_on_c, 1, 59, 64
2, 18419, Note_on_c, 1, 59, 0
2, 18420, Note_on_c, 1, 61, 64
2, 18479, Note_on_c, 1, 61, 0
2, 18480, Note_on_c, 1, 67, 64
2, 18539, Note_on_c, 1, 67, 0
2, 18540, Note_on_c, 1, 61, 64
2, 18599, Note_on_c, 1, 61, 0
2, 18600, Note_on_c, 1, 59, 64
2, 18659, Note_on_c, 1, 59, 0
2, 18660, Note_on_c, 1, 61, 64
2, 18719, Note_on_c, 1, 61, 0
2, 18720, Note_on_c, 1, 66, 64
2, 18779, Note_on_c, 1, 66, 0
2, 18780, Note_on_c, 1, 62, 64
2, 18839, Note_on_c, 1, 62, 0
2, 18840, Note_on_c, 1, 61, 64
2, 18899, Note_on_c, 1, 61, 0
2, 18900, Note_on_c, 1, 62, 64
2, 18959, Note_on_c, 1, 62, 0
2, 18960, Note_on_c, 1, 66, 64
2, 19019, Note_on_c, 1, 66, 0
2, 19020, Note_on_c, 1, 62, 64
2, 19079, Note_on_c, 1, 62, 0
2, 19080, Note_on_c, 1, 61, 64
2, 19139, Note_on_c, 1, 61, 0
2, 19140, Note_on_c, 1, 62, 64
2, 19199, Note_on_c, 1, 62, 0
2, 19200, Note_on_c, 1, 67, 64
2, 19259, Note_on_c, 1, 67, 0
2, 19260, Note_on_c, 1, 66, 64
2, 19319, Note_on_c, 1, 66, 0
2, 19320, Note_on_c, 1, 67, 64
2, 19379, Note_on_c, 1, 67, 0
2, 19380, Note_on_c, 1, 62, 64
2, 19439, Note_on_c, 1, 62, 0
2, 19440, Note_on_c, 1, 69, 64
2, 19499, Note_on_c, 1, 69, 0
2, 19500, Note_on_c, 1, 67, 64
2, 19559, Note_on_c, 1, 67, 0
2, 19560, Note_on_c, 1, 69, 64
2, 19619, Note_on_c, 1, 69, 0
2, 19620, Note_on_c, 1, 62, 64
2, 19679, Note_on_c, 1, 62, 0
2, 19680, Note_on_c, 1, 71, 64
2, 19739, Note_on_c, 1, 71, 0
2, 19740, Note_on_c, 1, 69, 64
2, 19799, Note_on_c, 1, 69, 0
2, 19800, Note_on_c, 1, 71, 64
2, 19859, Note_on_c, 1, 71, 0
2, 19860, Note_on_c, 1, 62, 64
2, 19919, Note_on_c, 1, 62, 0
2, 19920, Note_on_c, 1, 72, 64
2, 19979, Note_on_c, 1, 72, 0
2, 19980, Note_on_c, 1, 71, 64
2, 20039, Note_on_c, 1, 71, 0
2, 20040, Note_on_c, 1, 72, 64
2, 20099, Note_on_c, 1, 72, 0
2, 20100, Note_on_c, 1, 62, 64
2, 20159, Note_on_c, 1, 62, 0
2, 20160, Note_on_c, 1, 74, 64
2, 20220, Note_on_c, 1, 66, 64
2, 20279, Note_on_c, 1, 66, 0
2, 20280, Note_on_c, 1, 67, 64
2, 20339, Note_on_c, 1, 67, 0
2, 20340, Note_on_c, 1, 69, 64
2, 20399, Note_on_c, 1, 69, 0
2, 20400, Note_on_c, 1, 71, 64
2, 20519, Note_on_c, 1, 71, 0
2, 20519, Note_on_c, 1, 74, 0
2, 20520, Note_on_c, 1, 74, 64
2, 20639, Note_on_c, 1, 74, 0
2, 20640, Note_on_c, 1, 76, 64
2, 20699, Note_on_c, 1, 76, 0
2, 20700, Note_on_c, 1, 79, 64
2, 20759, Note_on_c, 1, 79, 0
2, 20760, Note_on_c, 1, 74, 64
2, 20819, Note_on_c, 1, 74, 0
2, 20820, Note_on_c, 1, 79, 64
2, 20879, Note_on_c, 1, 79, 0
2, 20880, Note_on_c, 1, 72, 64
2, 20939, Note_on_c, 1, 72, 0
2, 20940, Note_on_c, 1, 79, 64
2, 20999, Note_on_c, 1, 79, 0
2, 21000, Note_on_c, 1, 71, 64
2, 21059, Note_on_c, 1, 71, 0
2, 21060, Note_on_c, 1, 79, 64
2, 21119, Note_on_c, 1, 79, 0
2, 21120, Note_on_c, 1, 69, 64
2, 21359, Note_on_c, 1, 69, 0
2, 21480, Note_on_c, 1, 71, 64
2, 21480, Note_on_c, 1, 67, 64
2, 21599, Note_on_c, 1, 67, 0
2, 21599, Note_on_c, 1, 71, 0
2, 21600, Note_on_c, 1, 72, 64
2, 21600, Note_on_c, 1, 69, 64
2, 21659, Note_on_c, 1, 72, 0
2, 21660, Note_on_c, 1, 74, 64
2, 21719, Note_on_c, 1, 74, 0
2, 21719, Note_on_c, 1, 69, 0
2, 21720, Note_on_c, 1, 71, 64
2, 21720, Note_on_c, 1, 67, 64
2, 21779, Note_on_c, 1, 71, 0
2, 21780, Note_on_c, 1, 72, 64
2, 21839, Note_on_c, 1, 72, 0
2, 21839, Note_on_c, 1, 67, 0
2, 21840, Note_on_c, 1, 71, 64
2, 21869, Note_on_c, 1, 71, 0
2, 21870, Note_on_c, 1, 69, 64
2, 21899, Note_on_c, 1, 69, 0
2, 21900, Note_on_c, 1, 71, 64
2, 21929, Note_on_c, 1, 71, 0
2, 21930, Note_on_c, 1, 69, 64
2, 21959, Note_on_c, 1, 69, 0
2, 21960, Note_on_c, 1, 71, 64
2, 21989, Note_on_c, 1, 71, 0
2, 21990, Note_on_c, 1, 69, 64
2, 22049, Note_on_c, 1, 69, 0
2, 22050, Note_on_c, 1, 67, 64
2, 22079, Note_on_c, 1, 67, 0
2, 22080, Note_on_c, 1, 67, 64
2, 22080, Note_on_c, 1, 62, 64
2, 22080, Note_on_c, 1, 59, 64
2, 22319, Note_on_c, 1, 62, 0
2, 22319, Note_on_c, 1, 67, 0
2, 22320, Note_on_c, 1, 59, 0
2, 23100, Note_on_c, 1, 72, 64
2, 23159, Note_on_c, 1, 72, 0
2, 23160, Note_on_c, 1, 71, 64
2, 23219, Note_on_c, 1, 71, 0
2, 23220, Note_on_c, 1, 72, 64
2, 23279, Note_on_c, 1, 72, 0
2, 23280, Note_on_c, 1, 67, 64
2, 23339, Note_on_c, 1, 67, 0
2, 23340, Note_on_c, 1, 72, 64
2, 23399, Note_on_c, 1, 72, 0
2, 23400, Note_on_c, 1, 71, 64
2, 23459, Note_on_c, 1, 71, 0
2, 23460, Note_on_c, 1, 72, 64
2, 23519, Note_on_c, 1, 72, 0
2, 23520, Note_on_c, 1, 69, 64
2, 23520, Note_on_c, 1, 60, 64
2, 23520, Note_on_c, 1, 65, 64
2, 23759, Note_on_c, 1, 65, 0
2, 23759, Note_on_c, 1, 60, 0
2, 23759, Note_on_c, 1, 69, 0
2, 24060, Note_on_c, 1, 71, 64
2, 24119, Note_on_c, 1, 71, 0
2, 24120, Note_on_c, 1, 69, 64
2, 24179, Note_on_c, 1, 69, 0
2, 24180, Note_on_c, 1, 71, 64
2, 24239, Note_on_c, 1, 71, 0
2, 24240, Note_on_c, 1, 65, 64
2, 24299, Note_on_c, 1, 65, 0
2, 24300, Note_on_c, 1, 71, 64
2, 24359, Note_on_c, 1, 71, 0
2, 24360, Note_on_c, 1, 69, 64
2, 24419, Note_on_c, 1, 69, 0
2, 24420, Note_on_c, 1, 71, 64
2, 24479, Note_on_c, 1, 71, 0
2, 24480, Note_on_c, 1, 68, 64
2, 24480, Note_on_c, 1, 64, 64
2, 24480, Note_on_c, 1, 59, 64
2, 24719, Note_on_c, 1, 59, 0
2, 24719, Note_on_c, 1, 64, 0
2, 24719, Note_on_c, 1, 68, 0
2, 24960, Note_on_c, 1, 69, 64
2, 25019, Note_on_c, 1, 69, 0
2, 25020, Note_on_c, 1, 64, 64
2, 25079, Note_on_c, 1, 64, 0
2, 25080, Note_on_c, 1, 62, 64
2, 25139, Note_on_c, 1, 62, 0
2, 25140, Note_on_c, 1, 64, 64
2, 25199, Note_on_c, 1, 64, 0
2, 25200, Note_on_c, 1, 69, 64
2, 25259, Note_on_c, 1, 69, 0
2, 25260, Note_on_c, 1, 64, 64
2, 25319, Note_on_c, 1, 64, 0
2, 25320, Note_on_c, 1, 62, 64
2, 25379, Note_on_c, 1, 62, 0
2, 25380, Note_on_c, 1, 64, 64
2, 25439, Note_on_c, 1, 64, 0
2, 25440, Note_on_c, 1, 68, 64
2, 25499, Note_on_c, 1, 68, 0
2, 25500, Note_on_c, 1, 62, 64
2, 25559, Note_on_c, 1, 62, 0
2, 25560, Note_on_c, 1, 60, 64
2, 25619, Note_on_c, 1, 60, 0
2, 25620, Note_on_c, 1, 62, 64
2, 25679, Note_on_c, 1, 62, 0
2, 25680, Note_on_c, 1, 68, 64
2, 25739, Note_on_c, 1, 68, 0
2, 25740, Note_on_c, 1, 62, 64
2, 25799, Note_on_c, 1, 62, 0
2, 25800, Note_on_c, 1, 60, 64
2, 25859, Note_on_c, 1, 60, 0
2, 25860, Note_on_c, 1, 62, 64
2, 25919, Note_on_c, 1, 62, 0
2, 25920, Note_on_c, 1, 69, 64
2, 25979, Note_on_c, 1, 69, 0
2, 25980, Note_on_c, 1, 64, 64
2, 26039, Note_on_c, 1, 64, 0
2, 26040, Note_on_c, 1, 62, 64
2, 26099, Note_on_c, 1, 62, 0
2, 26100, Note_on_c, 1, 64, 64
2, 26159, Note_on_c, 1, 64, 0
2, 26160, Note_on_c, 1, 69, 64
2, 26219, Note_on_c, 1, 69, 0
2, 26220, Note_on_c, 1, 64, 64
2, 26279, Note_on_c, 1, 64, 0
2, 26280, Note_on_c, 1, 62, 64
2, 26339, Note_on_c, 1, 62, 0
2, 26340, Note_on_c, 1, 64, 64
2, 26399, Note_on_c, 1, 64, 0
2, 26400, Note_on_c, 1, 71, 64
2, 26459, Note_on_c, 1, 71, 0
2, 26460, Note_on_c, 1, 68, 64
2, 26519, Note_on_c, 1, 68, 0
2, 26520, Note_on_c, 1, 66, 64
2, 26579, Note_on_c, 1, 66, 0
2, 26580, Note_on_c, 1, 68, 64
2, 26639, Note_on_c, 1, 68, 0
2, 26640, Note_on_c, 1, 71, 64
2, 26699, Note_on_c, 1, 71, 0
2, 26700, Note_on_c, 1, 68, 64
2, 26759, Note_on_c, 1, 68, 0
2, 26760, Note_on_c, 1, 66, 64
2, 26819, Note_on_c, 1, 66, 0
2, 26820, Note_on_c, 1, 68, 64
2, 26879, Note_on_c, 1, 68, 0
2, 26880, Note_on_c, 1, 72, 64
2, 26999, Note_on_c, 1, 72, 0
2, 27000, Note_on_c, 1, 71, 64
2, 27119, Note_on_c, 1, 71, 0
2, 27120, Note_on_c, 1, 72, 64
2, 27239, Note_on_c, 1, 72, 0
2, 27240, Note_on_c, 1, 74, 64
2, 27359, Note_on_c, 1, 74, 0
2, 27360, Note_on_c, 1, 71, 64
2, 27479, Note_on_c, 1, 71, 0
2, 27480, Note_on_c, 1, 69, 64
2, 27599, Note_on_c, 1, 69, 0
2, 27600, Note_on_c, 1, 71, 64
2, 27719, Note_on_c, 1, 71, 0
2, 27720, Note_on_c, 1, 72, 64
2, 27839, Note_on_c, 1, 72, 0
2, 27840, Note_on_c, 1, 69, 64
2, 27959, Note_on_c, 1, 69, 0
2, 27960, Note_on_c, 1, 68, 64
2, 28079, Note_on_c, 1, 68, 0
2, 28080, Note_on_c, 1, 69, 64
2, 28199, Note_on_c, 1, 69, 0
2, 28200, Note_on_c, 1, 71, 64
2, 28319, Note_on_c, 1, 71, 0
2, 28320, Note_on_c, 1, 68, 64
2, 28439, Note_on_c, 1, 68, 0
2, 28440, Note_on_c, 1, 64, 64
2, 28559, Note_on_c, 1, 64, 0
2, 28560, Note_on_c, 1, 72, 64
2, 28680, Note_on_c, 1, 69, 64
2, 28799, Note_on_c, 1, 69, 0
2, 28799, Note_on_c, 1, 72, 0
2, 28800, Note_on_c, 1, 71, 64
2, 28800, Note_on_c, 1, 65, 64
2, 28919, Note_on_c, 1, 71, 0
2, 28920, Note_on_c, 1, 69, 64
2, 29039, Note_on_c, 1, 69, 0
2, 29039, Note_on_c, 1, 65, 0
2, 29040, Note_on_c, 1, 68, 64
2, 29219, Note_on_c, 1, 68, 0
2, 29220, Note_on_c, 1, 69, 64
2, 29279, Note_on_c, 1, 69, 0
2, 29280, Note_on_c, 1, 69, 64
2, 29280, Note_on_c, 1, 64, 64
2, 29280, Note_on_c, 1, 60, 64
2, 29519, Note_on_c, 1, 60, 0
2, 29519, Note_on_c, 1, 64, 0
2, 29519, Note_on_c, 1, 69, 0
2, 29820, Note_on_c, 1, 76, 64
2, 29879, Note_on_c, 1, 76, 0
2, 29880, Note_on_c, 1, 74, 64
2, 29939, Note_on_c, 1, 74, 0
2, 29940, Note_on_c, 1, 76, 64
2, 29999, Note_on_c, 1, 76, 0
2, 30000, Note_on_c, 1, 71, 64
2, 30059, Note_on_c, 1, 71, 0
2, 30060, Note_on_c, 1, 76, 64
2, 30119, Note_on_c, 1, 76, 0
2, 30120, Note_on_c, 1, 74, 64
2, 30179, Note_on_c, 1, 74, 0
2, 30180, Note_on_c, 1, 76, 64
2, 30239, Note_on_c, 1, 76, 0
2, 30240, Note_on_c, 1, 72, 64
2, 30240, Note_on_c, 1, 69, 64
2, 30240, Note_on_c, 1, 64, 64
2, 30479, Note_on_c, 1, 64, 0
2, 30479, Note_on_c, 1, 69, 0
2, 30479, Note_on_c, 1, 72, 0
2, 30780, Note_on_c, 1, 79, 64
2, 30839, Note_on_c, 1, 79, 0
2, 30840, Note_on_c, 1, 77, 64
2, 30899, Note_on_c, 1, 77, 0
2, 30900, Note_on_c, 1, 79, 64
2, 30959, Note_on_c, 1, 79, 0
2, 30960, Note_on_c, 1, 74, 64
2, 31019, Note_on_c, 1, 74, 0
2, 31020, Note_on_c, 1, 79, 64
2, 31079, Note_on_c, 1, 79, 0
2, 31080, Note_on_c, 1, 77, 64
2, 31139, Note_on_c, 1, 77, 0
2, 31140, Note_on_c, 1, 79, 64
2, 31199, Note_on_c, 1, 79, 0
2, 31200, Note_on_c, 1, 76, 64
2, 31259, Note_on_c, 1, 76, 0
2, 31260, Note_on_c, 1, 72, 64
2, 31319, Note_on_c, 1, 72, 0
2, 31320, Note_on_c, 1, 71, 64
2, 31379, Note_on_c, 1, 71, 0
2, 31380, Note_on_c, 1, 72, 64
2, 31439, Note_on_c, 1, 72, 0
2, 31440, Note_on_c, 1, 67, 64
2, 31499, Note_on_c, 1, 67, 0
2, 31500, Note_on_c, 1, 72, 64
2, 31559, Note_on_c, 1, 72, 0
2, 31560, Note_on_c, 1, 71, 64
2, 31619, Note_on_c, 1, 71, 0
2, 31620, Note_on_c, 1, 72, 64
2, 31679, Note_on_c, 1, 72, 0
2, 31680, Note_on_c, 1, 64, 64
2, 31919, Note_on_c, 1, 64, 0
2, 32220, Note_on_c, 1, 72, 64
2, 32279, Note_on_c, 1, 72, 0
2, 32280, Note_on_c, 1, 71, 64
2, 32339, Note_on_c, 1, 71, 0
2, 32340, Note_on_c, 1, 72, 64
2, 32399, Note_on_c, 1, 72, 0
2, 32400, Note_on_c, 1, 67, 64
2, 32459, Note_on_c, 1, 67, 0
2, 32460, Note_on_c, 1, 72, 64
2, 32519, Note_on_c, 1, 72, 0
2, 32520, Note_on_c, 1, 71, 64
2, 32579, Note_on_c, 1, 71, 0
2, 32580, Note_on_c, 1, 72, 64
2, 32639, Note_on_c, 1, 72, 0
2, 32640, Note_on_c, 1, 69, 64
2, 32699, Note_on_c, 1, 69, 0
2, 32700, Note_on_c, 1, 65, 64
2, 32759, Note_on_c, 1, 65, 0
2, 32760, Note_on_c, 1, 64, 64
2, 32819, Note_on_c, 1, 64, 0
2, 32820, Note_on_c, 1, 65, 64
2, 32879, Note_on_c, 1, 65, 0
2, 32880, Note_on_c, 1, 69, 64
2, 32939, Note_on_c, 1, 69, 0
2, 32940, Note_on_c, 1, 65, 64
2, 32999, Note_on_c, 1, 65, 0
2, 33000, Note_on_c, 1, 64, 64
2, 33059, Note_on_c, 1, 64, 0
2, 33060, Note_on_c, 1, 65, 64
2, 33119, Note_on_c, 1, 65, 0
2, 33180, Note_on_c, 1, 74, 64
2, 33239, Note_on_c, 1, 74, 0
2, 33240, Note_on_c, 1, 72, 64
2, 33299, Note_on_c, 1, 72, 0
2, 33300, Note_on_c, 1, 74, 64
2, 33359, Note_on_c, 1, 74, 0
2, 33360, Note_on_c, 1, 69, 64
2, 33419, Note_on_c, 1, 69, 0
2, 33420, Note_on_c, 1, 74, 64
2, 33479, Note_on_c, 1, 74, 0
2, 33480, Note_on_c, 1, 72, 64
2, 33539, Note_on_c, 1, 72, 0
2, 33540, Note_on_c, 1, 74, 64
2, 33599, Note_on_c, 1, 74, 0
2, 33600, Note_on_c, 1, 71, 64
2, 33659, Note_on_c, 1, 71, 0
2, 33660, Note_on_c, 1, 67, 64
2, 33719, Note_on_c, 1, 67, 0
2, 33720, Note_on_c, 1, 66, 64
2, 33779, Note_on_c, 1, 66, 0
2, 33780, Note_on_c, 1, 67, 64
2, 33839, Note_on_c, 1, 67, 0
2, 33840, Note_on_c, 1, 71, 64
2, 33899, Note_on_c, 1, 71, 0
2, 33900, Note_on_c, 1, 67, 64
2, 33959, Note_on_c, 1, 67, 0
2, 33960, Note_on_c, 1, 66, 64
2, 34019, Note_on_c, 1, 66, 0
2, 34020, Note_on_c, 1, 67, 64
2, 34079, Note_on_c, 1, 67, 0
2, 34140, Note_on_c, 1, 76, 64
2, 34199, Note_on_c, 1, 76, 0
2, 34200, Note_on_c, 1, 74, 64
2, 34259, Note_on_c, 1, 74, 0
2, 34260, Note_on_c, 1, 76, 64
2, 34319, Note_on_c, 1, 76, 0
2, 34320, Note_on_c, 1, 71, 64
2, 34379, Note_on_c, 1, 71, 0
2, 34380, Note_on_c, 1, 76, 64
2, 34439, Note_on_c, 1, 76, 0
2, 34440, Note_on_c, 1, 74, 64
2, 34499, Note_on_c, 1, 74, 0
2, 34500, Note_on_c, 1, 76, 64
2, 34559, Note_on_c, 1, 76, 0
2, 34560, Note_on_c, 1, 72, 64
2, 34619, Note_on_c, 1, 72, 0
2, 34620, Note_on_c, 1, 69, 64
2, 34679, Note_on_c, 1, 69, 0
2, 34680, Note_on_c, 1, 68, 64
2, 34739, Note_on_c, 1, 68, 0
2, 34740, Note_on_c, 1, 69, 64
2, 34799, Note_on_c, 1, 69, 0
2, 34800, Note_on_c, 1, 72, 64
2, 34859, Note_on_c, 1, 72, 0
2, 34860, Note_on_c, 1, 69, 64
2, 34919, Note_on_c, 1, 69, 0
2, 34920, Note_on_c, 1, 68, 64
2, 34979, Note_on_c, 1, 68, 0
2, 34980, Note_on_c, 1, 69, 64
2, 35039, Note_on_c, 1, 69, 0
2, 35100, Note_on_c, 1, 79, 64
2, 35159, Note_on_c, 1, 79, 0
2, 35160, Note_on_c, 1, 77, 64
2, 35219, Note_on_c, 1, 77, 0
2, 35220, Note_on_c, 1, 79, 64
2, 35279, Note_on_c, 1, 79, 0
2, 35280, Note_on_c, 1, 74, 64
2, 35339, Note_on_c, 1, 74, 0
2, 35340, Note_on_c, 1, 79, 64
2, 35399, Note_on_c, 1, 79, 0
2, 35400, Note_on_c, 1, 77, 64
2, 35459, Note_on_c, 1, 77, 0
2, 35460, Note_on_c, 1, 79, 64
2, 35519, Note_on_c, 1, 79, 0
2, 35520, Note_on_c, 1, 76, 64
2, 35579, Note_on_c, 1, 76, 0
2, 35580, Note_on_c, 1, 79, 64
2, 35639, Note_on_c, 1, 79, 0
2, 35640, Note_on_c, 1, 76, 64
2, 35699, Note_on_c, 1, 76, 0
2, 35700, Note_on_c, 1, 79, 64
2, 35759, Note_on_c, 1, 79, 0
2, 35760, Note_on_c, 1, 77, 64
2, 35819, Note_on_c, 1, 77, 0
2, 35820, Note_on_c, 1, 81, 64
2, 35879, Note_on_c, 1, 81, 0
2, 35880, Note_on_c, 1, 77, 64
2, 35939, Note_on_c, 1, 77, 0
2, 35940, Note_on_c, 1, 81, 64
2, 35999, Note_on_c, 1, 81, 0
2, 36000, Note_on_c, 1, 74, 64
2, 36059, Note_on_c, 1, 74, 0
2, 36060, Note_on_c, 1, 77, 64
2, 36119, Note_on_c, 1, 77, 0
2, 36120, Note_on_c, 1, 74, 64
2, 36179, Note_on_c, 1, 74, 0
2, 36180, Note_on_c, 1, 77, 64
2, 36239, Note_on_c, 1, 77, 0
2, 36240, Note_on_c, 1, 76, 64
2, 36299, Note_on_c, 1, 76, 0
2, 36300, Note_on_c, 1, 79, 64
2, 36359, Note_on_c, 1, 79, 0
2, 36360, Note_on_c, 1, 76, 64
2, 36419, Note_on_c, 1, 76, 0
2, 36420, Note_on_c, 1, 79, 64
2, 36479, Note_on_c, 1, 79, 0
2, 36480, Note_on_c, 1, 72, 64
2, 36539, Note_on_c, 1, 72, 0
2, 36540, Note_on_c, 1, 76, 64
2, 36599, Note_on_c, 1, 76, 0
2, 36600, Note_on_c, 1, 72, 64
2, 36659, Note_on_c, 1, 72, 0
2, 36660, Note_on_c, 1, 76, 64
2, 36719, Note_on_c, 1, 76, 0
2, 36720, Note_on_c, 1, 74, 64
2, 36779, Note_on_c, 1, 74, 0
2, 36780, Note_on_c, 1, 77, 64
2, 36839, Note_on_c, 1, 77, 0
2, 36840, Note_on_c, 1, 74, 64
2, 36899, Note_on_c, 1, 74, 0
2, 36900, Note_on_c, 1, 77, 64
2, 36959, Note_on_c, 1, 77, 0
2, 36960, Note_on_c, 1, 71, 64
2, 37019, Note_on_c, 1, 71, 0
2, 37020, Note_on_c, 1, 67, 64
2, 37079, Note_on_c, 1, 67, 0
2, 37080, Note_on_c, 1, 69, 64
2, 37139, Note_on_c, 1, 69, 0
2, 37140, Note_on_c, 1, 71, 64
2, 37199, Note_on_c, 1, 71, 0
2, 37200, Note_on_c, 1, 72, 64
2, 37200, Note_on_c, 1, 67, 64
2, 37679, Note_on_c, 1, 72, 0
2, 37680, Note_on_c, 1, 71, 64
2, 37799, Note_on_c, 1, 67, 0
2, 37800, Note_on_c, 1, 65, 64
2, 37919, Note_on_c, 1, 65, 0
2, 37919, Note_on_c, 1, 71, 0
2, 37920, Note_on_c, 1, 72, 64
2, 37920, Note_on_c, 1, 67, 64
2, 37920, Note_on_c, 1, 64, 64
2, 38279, Note_on_c, 1, 64, 0
2, 38279, Note_on_c, 1, 67, 0
2, 38279, Note_on_c, 1, 72, 0
2, 38460, Note_on_c, 1, 72, 64
2, 38519, Note_on_c, 1, 72, 0
2, 38520, Note_on_c, 1, 71, 64
2, 38579, Note_on_c, 1, 71, 0
2, 38580, Note_on_c, 1, 72, 64
2, 38639, Note_on_c, 1, 72, 0
2, 38640, Note_on_c, 1, 67, 64
2, 38699, Note_on_c, 1, 67, 0
2, 38700, Note_on_c, 1, 72, 64
2, 38759, Note_on_c, 1, 72, 0
2, 38760, Note_on_c, 1, 71, 64
2, 38819, Note_on_c, 1, 71, 0
2, 38820, Note_on_c, 1, 72, 64
2, 38879, Note_on_c, 1, 72, 0
2, 38880, Note_on_c, 1, 69, 64
2, 38880, Note_on_c, 1, 60, 64
2, 38880, Note_on_c, 1, 65, 64
2, 39119, Note_on_c, 1, 65, 0
2, 39119, Note_on_c, 1, 60, 0
2, 39119, Note_on_c, 1, 69, 0
2, 39420, Note_on_c, 1, 71, 64
2, 39479, Note_on_c, 1, 71, 0
2, 39480, Note_on_c, 1, 69, 64
2, 39539, Note_on_c, 1, 69, 0
2, 39540, Note_on_c, 1, 71, 64
2, 39599, Note_on_c, 1, 71, 0
2, 39600, Note_on_c, 1, 65, 64
2, 39659, Note_on_c, 1, 65, 0
2, 39660, Note_on_c, 1, 71, 64
2, 39719, Note_on_c, 1, 71, 0
2, 39720, Note_on_c, 1, 69, 64
2, 39779, Note_on_c, 1, 69, 0
2, 39780, Note_on_c, 1, 71, 64
2, 39839, Note_on_c, 1, 71, 0
2, 39840, Note_on_c, 1, 68, 64
2, 39840, Note_on_c, 1, 64, 64
2, 39840, Note_on_c, 1, 59, 64
2, 40079, Note_on_c, 1, 59, 0
2, 40079, Note_on_c, 1, 64, 0
2, 40079, Note_on_c, 1, 68, 0
2, 40320, Note_on_c, 1, 69, 64
2, 40379, Note_on_c, 1, 69, 0
2, 40380, Note_on_c, 1, 64, 64
2, 40439, Note_on_c, 1, 64, 0
2, 40440, Note_on_c, 1, 62, 64
2, 40499, Note_on_c, 1, 62, 0
2, 40500, Note_on_c, 1, 64, 64
2, 40559, Note_on_c, 1, 64, 0
2, 40560, Note_on_c, 1, 69, 64
2, 40619, Note_on_c, 1, 69, 0
2, 40620, Note_on_c, 1, 64, 64
2, 40679, Note_on_c, 1, 64, 0
2, 40680, Note_on_c, 1, 62, 64
2, 40739, Note_on_c, 1, 62, 0
2, 40740, Note_on_c, 1, 64, 64
2, 40799, Note_on_c, 1, 64, 0
2, 40800, Note_on_c, 1, 68, 64
2, 40859, Note_on_c, 1, 68, 0
2, 40860, Note_on_c, 1, 62, 64
2, 40919, Note_on_c, 1, 62, 0
2, 40920, Note_on_c, 1, 60, 64
2, 40979, Note_on_c, 1, 60, 0
2, 40980, Note_on_c, 1, 62, 64
2, 41039, Note_on_c, 1, 62, 0
2, 41040, Note_on_c, 1, 68, 64
2, 41099, Note_on_c, 1, 68, 0
2, 41100, Note_on_c, 1, 62, 64
2, 41159, Note_on_c, 1, 62, 0
2, 41160, Note_on_c, 1, 60, 64
2, 41219, Note_on_c, 1, 60, 0
2, 41220, Note_on_c, 1, 62, 64
2, 41279, Note_on_c, 1, 62, 0
2, 41280, Note_on_c, 1, 69, 64
2, 41339, Note_on_c, 1, 69, 0
2, 41340, Note_on_c, 1, 64, 64
2, 41399, Note_on_c, 1, 64, 0
2, 41400, Note_on_c, 1, 62, 64
2, 41459, Note_on_c, 1, 62, 0
2, 41460, Note_on_c, 1, 64, 64
2, 41519, Note_on_c, 1, 64, 0
2, 41520, Note_on_c, 1, 69, 64
2, 41579, Note_on_c, 1, 69, 0
2, 41580, Note_on_c, 1, 64, 64
2, 41639, Note_on_c, 1, 64, 0
2, 41640, Note_on_c, 1, 62, 64
2, 41699, Note_on_c, 1, 62, 0
2, 41700, Note_on_c, 1, 64, 64
2, 41759, Note_on_c, 1, 64, 0
2, 41760, Note_on_c, 1, 71, 64
2, 41819, Note_on_c, 1, 71, 0
2, 41820, Note_on_c, 1, 68, 64
2, 41879, Note_on_c, 1, 68, 0
2, 41880, Note_on_c, 1, 66, 64
2, 41939, Note_on_c, 1, 66, 0
2, 41940, Note_on_c, 1, 68, 64
2, 41999, Note_on_c, 1, 68, 0
2, 42000, Note_on_c, 1, 71, 64
2, 42059, Note_on_c, 1, 71, 0
2, 42060, Note_on_c, 1, 68, 64
2, 42119, Note_on_c, 1, 68, 0
2, 42120, Note_on_c, 1, 66, 64
2, 42179, Note_on_c, 1, 66, 0
2, 42180, Note_on_c, 1, 68, 64
2, 42239, Note_on_c, 1, 68, 0
2, 42240, Note_on_c, 1, 72, 64
2, 42359, Note_on_c, 1, 72, 0
2, 42360, Note_on_c, 1, 71, 64
2, 42479, Note_on_c, 1, 71, 0
2, 42480, Note_on_c, 1, 72, 64
2, 42599, Note_on_c, 1, 72, 0
2, 42600, Note_on_c, 1, 74, 64
2, 42719, Note_on_c, 1, 74, 0
2, 42720, Note_on_c, 1, 71, 64
2, 42839, Note_on_c, 1, 71, 0
2, 42840, Note_on_c, 1, 69, 64
2, 42959, Note_on_c, 1, 69, 0
2, 42960, Note_on_c, 1, 71, 64
2, 43079, Note_on_c, 1, 71, 0
2, 43080, Note_on_c, 1, 72, 64
2, 43199, Note_on_c, 1, 72, 0
2, 43200, Note_on_c, 1, 69, 64
2, 43319, Note_on_c, 1, 69, 0
2, 43320, Note_on_c, 1, 68, 64
2, 43439, Note_on_c, 1, 68, 0
2, 43440, Note_on_c, 1, 69, 64
2, 43559, Note_on_c, 1, 69, 0
2, 43560, Note_on_c, 1, 71, 64
2, 43679, Note_on_c, 1, 71, 0
2, 43680, Note_on_c, 1, 68, 64
2, 43799, Note_on_c, 1, 68, 0
2, 43800, Note_on_c, 1, 64, 64
2, 43919, Note_on_c, 1, 64, 0
2, 43920, Note_on_c, 1, 72, 64
2, 44040, Note_on_c, 1, 69, 64
2, 44159, Note_on_c, 1, 69, 0
2, 44159, Note_on_c, 1, 72, 0
2, 44160, Note_on_c, 1, 71, 64
2, 44160, Note_on_c, 1, 65, 64
2, 44279, Note_on_c, 1, 71, 0
2, 44280, Note_on_c, 1, 69, 64
2, 44399, Note_on_c, 1, 69, 0
2, 44399, Note_on_c, 1, 65, 0
2, 44400, Note_on_c, 1, 68, 64
2, 44579, Note_on_c, 1, 68, 0
2, 44580, Note_on_c, 1, 69, 64
2, 44639, Note_on_c, 1, 69, 0
2, 44640, Note_on_c, 1, 69, 64
2, 44640, Note_on_c, 1, 64, 64
2, 44640, Note_on_c, 1, 60, 64
2, 44879, Note_on_c, 1, 60, 0
2, 44879, Note_on_c, 1, 64, 0
2, 44879, Note_on_c, 1, 69, 0
2, 45180, Note_on_c, 1, 76, 64
2, 45239, Note_on_c, 1, 76, 0
2, 45240, Note_on_c, 1, 74, 64
2, 45299, Note_on_c, 1, 74, 0
2, 45300, Note_on_c, 1, 76, 64
2, 45359, Note_on_c, 1, 76, 0
2, 45360, Note_on_c, 1, 71, 64
2, 45419, Note_on_c, 1, 71, 0
2, 45420, Note_on_c, 1, 76, 64
2, 45479, Note_on_c, 1, 76, 0
2, 45480, Note_on_c, 1, 74, 64
2, 45539, Note_on_c, 1, 74, 0
2, 45540, Note_on_c, 1, 76, 64
2, 45599, Note_on_c, 1, 76, 0
2, 45600, Note_on_c, 1, 72, 64
2, 45600, Note_on_c, 1, 69, 64
2, 45600, Note_on_c, 1, 64, 64
2, 45839, Note_on_c, 1, 64, 0
2, 45839, Note_on_c, 1, 69, 0
2, 45839, Note_on_c, 1, 72, 0
2, 46140, Note_on_c, 1, 79, 64
2, 46199, Note_on_c, 1, 79, 0
2, 46200, Note_on_c, 1, 77, 64
2, 46259, Note_on_c, 1, 77, 0
2, 46260, Note_on_c, 1, 79, 64
2, 46319, Note_on_c, 1, 79, 0
2, 46320, Note_on_c, 1, 74, 64
2, 46379, Note_on_c, 1, 74, 0
2, 46380, Note_on_c, 1, 79, 64
2, 46439, Note_on_c, 1, 79, 0
2, 46440, Note_on_c, 1, 77, 64
2, 46499, Note_on_c, 1, 77, 0
2, 46500, Note_on_c, 1, 79, 64
2, 46559, Note_on_c, 1, 79, 0
2, 46560, Note_on_c, 1, 76, 64
2, 46619, Note_on_c, 1, 76, 0
2, 46620, Note_on_c, 1, 72, 64
2, 46679, Note_on_c, 1, 72, 0
2, 46680, Note_on_c, 1, 71, 64
2, 46739, Note_on_c, 1, 71, 0
2, 46740, Note_on_c, 1, 72, 64
2, 46799, Note_on_c, 1, 72, 0
2, 46800, Note_on_c, 1, 67, 64
2, 46859, Note_on_c, 1, 67, 0
2, 46860, Note_on_c, 1, 72, 64
2, 46919, Note_on_c, 1, 72, 0
2, 46920, Note_on_c, 1, 71, 64
2, 46979, Note_on_c, 1, 71, 0
2, 46980, Note_on_c, 1, 72, 64
2, 47039, Note_on_c, 1, 72, 0
2, 47040, Note_on_c, 1, 64, 64
2, 47279, Note_on_c, 1, 64, 0
2, 47580, Note_on_c, 1, 72, 64
2, 47639, Note_on_c, 1, 72, 0
2, 47640, Note_on_c, 1, 71, 64
2, 47699, Note_on_c, 1, 71, 0
2, 47700, Note_on_c, 1, 72, 64
2, 47759, Note_on_c, 1, 72, 0
2, 47760, Note_on_c, 1, 67, 64
2, 47819, Note_on_c, 1, 67, 0
2, 47820, Note_on_c, 1, 72, 64
2, 47879, Note_on_c, 1, 72, 0
2, 47880, Note_on_c, 1, 71, 64
2, 47939, Note_on_c, 1, 71, 0
2, 47940, Note_on_c, 1, 72, 64
2, 47999, Note_on_c, 1, 72, 0
2, 48000, Note_on_c, 1, 69, 64
2, 48059, Note_on_c, 1, 69, 0
2, 48060, Note_on_c, 1, 65, 64
2, 48119, Note_on_c, 1, 65, 0
2, 48120, Note_on_c, 1, 64, 64
2, 48179, Note_on_c, 1, 64, 0
2, 48180, Note_on_c, 1, 65, 64
2, 48239, Note_on_c, 1, 65, 0
2, 48240, Note_on_c, 1, 69, 64
2, 48299, Note_on_c, 1, 69, 0
2, 48300, Note_on_c, 1, 65, 64
2, 48359, Note_on_c, 1, 65, 0
2, 48360, Note_on_c, 1, 64, 64
2, 48419, Note_on_c, 1, 64, 0
2, 48420, Note_on_c, 1, 65, 64
2, 48479, Note_on_c, 1, 65, 0
2, 48540, Note_on_c, 1, 74, 64
2, 48599, Note_on_c, 1, 74, 0
2, 48600, Note_on_c, 1, 72, 64
2, 48659, Note_on_c, 1, 72, 0
2, 48660, Note_on_c, 1, 74, 64
2, 48719, Note_on_c, 1, 74, 0
2, 48720, Note_on_c, 1, 69, 64
2, 48779, Note_on_c, 1, 69, 0
2, 48780, Note_on_c, 1, 74, 64
2, 48839, Note_on_c, 1, 74, 0
2, 48840, Note_on_c, 1, 72, 64
2, 48899, Note_on_c, 1, 72, 0
2, 48900, Note_on_c, 1, 74, 64
2, 48959, Note_on_c, 1, 74, 0
2, 48960, Note_on_c, 1, 71, 64
2, 49019, Note_on_c, 1, 71, 0
2, 49020, Note_on_c, 1, 67, 64
2, 49079, Note_on_c, 1, 67, 0
2, 49080, Note_on_c, 1, 66, 64
2, 49139, Note_on_c, 1, 66, 0
2, 49140, Note_on_c, 1, 67, 64
2, 49199, Note_on_c, 1, 67, 0
2, 49200, Note_on_c, 1, 71, 64
2, 49259, Note_on_c, 1, 71, 0
2, 49260, Note_on_c, 1, 67, 64
2, 49319, Note_on_c, 1, 67, 0
2, 49320, Note_on_c, 1, 66, 64
2, 49379, Note_on_c, 1, 66, 0
2, 49380, Note_on_c, 1, 67, 64
2, 49439, Note_on_c, 1, 67, 0
2, 49500, Note_on_c, 1, 76, 64
2, 49559, Note_on_c, 1, 76, 0
2, 49560, Note_on_c, 1, 74, 64
2, 49619, Note_on_c, 1, 74, 0
2, 49620, Note_on_c, 1, 76, 64
2, 49679, Note_on_c, 1, 76, 0
2, 49680, Note_on_c, 1, 71, 64
2, 49739, Note_on_c, 1, 71, 0
2, 49740, Note_on_c, 1, 76, 64
2, 49799, Note_on_c, 1, 76, 0
2, 49800, Note_on_c, 1, 74, 64
2, 49859, Note_on_c, 1, 74, 0
2, 49860, Note_on_c, 1, 76, 64
2, 49919, Note_on_c, 1, 76, 0
2, 49920, Note_on_c, 1, 72, 64
2, 49979, Note_on_c, 1, 72, 0
2, 49980, Note_on_c, 1, 69, 64
2, 50039, Note_on_c, 1, 69, 0
2, 50040, Note_on_c, 1, 68, 64
2, 50099, Note_on_c, 1, 68, 0
2, 50100, Note_on_c, 1, 69, 64
2, 50159, Note_on_c, 1, 69, 0
2, 50160, Note_on_c, 1, 72, 64
2, 50219, Note_on_c, 1, 72, 0
2, 50220, Note_on_c, 1, 69, 64
2, 50279, Note_on_c, 1, 69, 0
2, 50280, Note_on_c, 1, 68, 64
2, 50339, Note_on_c, 1, 68, 0
2, 50340, Note_on_c, 1, 69, 64
2, 50399, Note_on_c, 1, 69, 0
2, 50460, Note_on_c, 1, 79, 64
2, 50519, Note_on_c, 1, 79, 0
2, 50520, Note_on_c, 1, 77, 64
2, 50579, Note_on_c, 1, 77, 0
2, 50580, Note_on_c, 1, 79, 64
2, 50639, Note_on_c, 1, 79, 0
2, 50640, Note_on_c, 1, 74, 64
2, 50699, Note_on_c, 1, 74, 0
2, 50700, Note_on_c, 1, 79, 64
2, 50759, Note_on_c, 1, 79, 0
2, 50760, Note_on_c, 1, 77, 64
2, 50819, Note_on_c, 1, 77, 0
2, 50820, Note_on_c, 1, 79, 64
2, 50879, Note_on_c, 1, 79, 0
2, 50880, Note_on_c, 1, 76, 64
2, 50939, Note_on_c, 1, 76, 0
2, 50940, Note_on_c, 1, 79, 64
2, 50999, Note_on_c, 1, 79, 0
2, 51000, Note_on_c, 1, 76, 64
2, 51059, Note_on_c, 1, 76, 0
2, 51060, Note_on_c, 1, 79, 64
2, 51119, Note_on_c, 1, 79, 0
2, 51120, Note_on_c, 1, 77, 64
2, 51179, Note_on_c, 1, 77, 0
2, 51180, Note_on_c, 1, 81, 64
2, 51239, Note_on_c, 1, 81, 0
2, 51240, Note_on_c, 1, 77, 64
2, 51299, Note_on_c, 1, 77, 0
2, 51300, Note_on_c, 1, 81, 64
2, 51359, Note_on_c, 1, 81, 0
2, 51360, Note_on_c, 1, 74, 64
2, 51419, Note_on_c, 1, 74, 0
2, 51420, Note_on_c, 1, 77, 64
2, 51479, Note_on_c, 1, 77, 0
2, 51480, Note_on_c, 1, 74, 64
2, 51539, Note_on_c, 1, 74, 0
2, 51540, Note_on_c, 1, 77, 64
2, 51599, Note_on_c, 1, 77, 0
2, 51600, Note_on_c, 1, 76, 64
2, 51659, Note_on_c, 1, 76, 0
2, 51660, Note_on_c, 1, 79, 64
2, 51719, Note_on_c, 1, 79, 0
2, 51720, Note_on_c, 1, 76, 64
2, 51779, Note_on_c, 1, 76, 0
2, 51780, Note_on_c, 1, 79, 64
2, 51839, Note_on_c, 1, 79, 0
2, 51840, Note_on_c, 1, 72, 64
2, 51899, Note_on_c, 1, 72, 0
2, 51900, Note_on_c, 1, 76, 64
2, 51959, Note_on_c, 1, 76, 0
2, 51960, Note_on_c, 1, 72, 64
2, 52019, Note_on_c, 1, 72, 0
2, 52020, Note_on_c, 1, 76, 64
2, 52079, Note_on_c, 1, 76, 0
2, 52080, Note_on_c, 1, 74, 64
2, 52139, Note_on_c, 1, 74, 0
2, 52140, Note_on_c, 1, 77, 64
2, 52199, Note_on_c, 1, 77, 0
2, 52200, Note_on_c, 1, 74, 64
2, 52259, Note_on_c, 1, 74, 0
2, 52260, Note_on_c, 1, 77, 64
2, 52319, Note_on_c, 1, 77, 0
2, 52320, Note_on_c, 1, 71, 64
2, 52379, Note_on_c, 1, 71, 0
2, 52380, Note_on_c, 1, 67, 64
2, 52439, Note_on_c, 1, 67, 0
2, 52440, Note_on_c, 1, 69, 64
2, 52499, Note_on_c, 1, 69, 0
2, 52500, Note_on_c, 1, 71, 64
2, 52559, Note_on_c, 1, 71, 0
2, 52560, Note_on_c, 1, 72, 64
2, 52560, Note_on_c, 1, 67, 64
2, 53039, Note_on_c, 1, 72, 0
2, 53040, Note_on_c, 1, 71, 64
2, 53159, Note_on_c, 1, 67, 0
2, 53160, Note_on_c, 1, 65, 64
2, 53279, Note_on_c, 1, 65, 0
2, 53279, Note_on_c, 1, 71, 0
2, 53280, Note_on_c, 1, 72, 64
2, 53280, Note_on_c, 1, 67, 64
2, 53280, Note_on_c, 1, 64, 64
2, 54239, Note_on_c, 1, 64, 0
2, 54239, Note_on_c, 1, 67, 0
2, 54239, Note_on_c, 1, 72, 0
2, 54360, Note_on_c, 1, 72, 64
2, 54419, Note_on_c, 1, 72, 0
2, 54480, Note_on_c, 1, 72, 64
2, 54539, Note_on_c, 1, 72, 0
2, 54600, Note_on_c, 1, 72, 64
2, 54659, Note_on_c, 1, 72, 0
2, 54720, Note_on_c, 1, 76, 64
2, 55019, Note_on_c, 1, 76, 0
2, 55080, Note_on_c, 1, 74, 64
2, 55199, Note_on_c, 1, 74, 0
2, 55200, Note_on_c, 1, 72, 64
2, 55259, Note_on_c, 1, 72, 0
2, 55320, Note_on_c, 1, 72, 64
2, 55379, Note_on_c, 1, 72, 0
2, 55440, Note_on_c, 1, 72, 64
2, 55559, Note_on_c, 1, 72, 0
2, 55560, Note_on_c, 1, 71, 64
2, 55619, Note_on_c, 1, 71, 0
2, 55620, Note_on_c, 1, 72, 64
2, 55679, Note_on_c, 1, 72, 0
2, 55680, Note_on_c, 1, 74, 64
2, 55979, Note_on_c, 1, 74, 0
2, 56040, Note_on_c, 1, 72, 64
2, 56159, Note_on_c, 1, 72, 0
2, 56160, Note_on_c, 1, 71, 64
2, 56219, Note_on_c, 1, 71, 0
2, 56280, Note_on_c, 1, 71, 64
2, 56339, Note_on_c, 1, 71, 0
2, 56400, Note_on_c, 1, 71, 64
2, 56519, Note_on_c, 1, 71, 0
2, 56520, Note_on_c, 1, 69, 64
2, 56579, Note_on_c, 1, 69, 0
2, 56580, Note_on_c, 1, 71, 64
2, 56639, Note_on_c, 1, 71, 0
2, 56640, Note_on_c, 1, 72, 64
2, 56699, Note_on_c, 1, 72, 0
2, 56700, Note_on_c, 1, 74, 64
2, 56759, Note_on_c, 1, 74, 0
2, 56760, Note_on_c, 1, 72, 64
2, 56819, Note_on_c, 1, 72, 0
2, 56820, Note_on_c, 1, 74, 64
2, 56879, Note_on_c, 1, 74, 0
2, 56880, Note_on_c, 1, 76, 64
2, 57239, Note_on_c, 1, 76, 0
2, 57240, Note_on_c, 1, 69, 64
2, 57359, Note_on_c, 1, 69, 0
2, 57360, Note_on_c, 1, 74, 64
2, 57479, Note_on_c, 1, 74, 0
2, 57480, Note_on_c, 1, 72, 64
2, 57539, Note_on_c, 1, 72, 0
2, 57540, Note_on_c, 1, 74, 64
2, 57599, Note_on_c, 1, 74, 0
2, 57600, Note_on_c, 1, 71, 64
2, 57659, Note_on_c, 1, 71, 0
2, 57660, Note_on_c, 1, 72, 64
2, 57719, Note_on_c, 1, 72, 0
2, 57720, Note_on_c, 1, 71, 64
2, 57779, Note_on_c, 1, 71, 0
2, 57780, Note_on_c, 1, 72, 64
2, 57839, Note_on_c, 1, 72, 0
2, 57840, Note_on_c, 1, 74, 64
2, 58199, Note_on_c, 1, 74, 0
2, 58200, Note_on_c, 1, 67, 64
2, 58319, Note_on_c, 1, 67, 0
2, 58320, Note_on_c, 1, 72, 64
2, 58439, Note_on_c, 1, 72, 0
2, 58440, Note_on_c, 1, 71, 64
2, 58499, Note_on_c, 1, 71, 0
2, 58500, Note_on_c, 1, 72, 64
2, 58559, Note_on_c, 1, 72, 0
2, 58560, Note_on_c, 1, 69, 64
2, 58619, Note_on_c, 1, 69, 0
2, 58620, Note_on_c, 1, 71, 64
2, 58679, Note_on_c, 1, 71, 0
2, 58680, Note_on_c, 1, 69, 64
2, 58739, Note_on_c, 1, 69, 0
2, 58740, Note_on_c, 1, 71, 64
2, 58799, Note_on_c, 1, 71, 0
2, 58800, Note_on_c, 1, 72, 64
2, 59279, Note_on_c, 1, 72, 0
2, 59280, Note_on_c, 1, 72, 64
2, 59309, Note_on_c, 1, 72, 0
2, 59310, Note_on_c, 1, 71, 64
2, 59339, Note_on_c, 1, 71, 0
2, 59340, Note_on_c, 1, 72, 64
2, 59369, Note_on_c, 1, 72, 0
2, 59370, Note_on_c, 1, 71, 64
2, 59399, Note_on_c, 1, 71, 0
2, 59400, Note_on_c, 1, 72, 64
2, 59429, Note_on_c, 1, 72, 0
2, 59430, Note_on_c, 1, 71, 64
2, 59489, Note_on_c, 1, 71, 0
2, 59520, Note_on_c, 1, 72, 64
2, 59639, Note_on_c, 1, 72, 0
2, 59640, Note_on_c, 1, 76, 64
2, 59699, Note_on_c, 1, 76, 0
2, 59700, Note_on_c, 1, 74, 64
2, 59759, Note_on_c, 1, 74, 0
2, 59760, Note_on_c, 1, 72, 64
2, 59819, Note_on_c, 1, 72, 0
2, 59820, Note_on_c, 1, 76, 64
2, 59879, Note_on_c, 1, 76, 0
2, 59880, Note_on_c, 1, 74, 64
2, 59939, Note_on_c, 1, 74, 0
2, 59940, Note_on_c, 1, 72, 64
2, 59999, Note_on_c, 1, 72, 0
2, 60000, Note_on_c, 1, 71, 64
2, 60059, Note_on_c, 1, 71, 0
2, 60060, Note_on_c, 1, 69, 64
2, 60060, Note_on_c, 1, 72, 64
2, 60119, Note_on_c, 1, 72, 0
2, 60119, Note_on_c, 1, 69, 0
2, 60120, Note_on_c, 1, 67, 64
2, 60120, Note_on_c, 1, 71, 64
2, 60179, Note_on_c, 1, 71, 0
2, 60179, Note_on_c, 1, 67, 0
2, 60180, Note_on_c, 1, 69, 64
2, 60180, Note_on_c, 1, 72, 64
2, 60239, Note_on_c, 1, 72, 0
2, 60239, Note_on_c, 1, 69, 0
2, 60240, Note_on_c, 1, 71, 64
2, 60240, Note_on_c, 1, 74, 64
2, 60479, Note_on_c, 1, 74, 0
2, 60480, Note_on_c, 1, 76, 64
2, 60599, Note_on_c, 1, 71, 0
2, 60600, Note_on_c, 1, 64, 64
2, 60719, Note_on_c, 1, 64, 0
2, 60720, Note_on_c, 1, 69, 64
2, 60839, Note_on_c, 1, 69, 0
2, 60840, Note_on_c, 1, 67, 64
2, 60899, Note_on_c, 1, 67, 0
2, 60899, Note_on_c, 1, 76, 0
2, 60900, Note_on_c, 1, 69, 64
2, 60960, Note_on_c, 1, 66, 64
2, 61019, Note_on_c, 1, 66, 0
2, 61019, Note_on_c, 1, 69, 0
2, 61020, Note_on_c, 1, 67, 64
2, 61020, Note_on_c, 1, 71, 64
2, 61079, Note_on_c, 1, 71, 0
2, 61079, Note_on_c, 1, 67, 0
2, 61080, Note_on_c, 1, 66, 64
2, 61080, Note_on_c, 1, 69, 64
2, 61139, Note_on_c, 1, 69, 0
2, 61139, Note_on_c, 1, 66, 0
2, 61140, Note_on_c, 1, 67, 64
2, 61140, Note_on_c, 1, 71, 64
2, 61199, Note_on_c, 1, 71, 0
2, 61199, Note_on_c, 1, 67, 0
2, 61200, Note_on_c, 1, 69, 64
2, 61200, Note_on_c, 1, 72, 64
2, 61439, Note_on_c, 1, 72, 0
2, 61440, Note_on_c, 1, 74, 64
2, 61559, Note_on_c, 1, 69, 0
2, 61560, Note_on_c, 1, 71, 64
2, 61619, Note_on_c, 1, 71, 0
2, 61620, Note_on_c, 1, 69, 64
2, 61679, Note_on_c, 1, 69, 0
2, 61680, Note_on_c, 1, 67, 64
2, 61739, Note_on_c, 1, 67, 0
2, 61740, Note_on_c, 1, 69, 64
2, 61799, Note_on_c, 1, 69, 0
2, 61800, Note_on_c, 1, 67, 64
2, 61859, Note_on_c, 1, 67, 0
2, 61860, Note_on_c, 1, 65, 64
2, 61919, Note_on_c, 1, 65, 0
2, 61919, Note_on_c, 1, 74, 0
2, 61920, Note_on_c, 1, 64, 64
2, 61920, Note_on_c, 1, 72, 64
2, 61979, Note_on_c, 1, 64, 0
2, 61980, Note_on_c, 1, 65, 64
2, 62039, Note_on_c, 1, 65, 0
2, 62040, Note_on_c, 1, 64, 64
2, 62099, Note_on_c, 1, 64, 0
2, 62100, Note_on_c, 1, 65, 64
2, 62159, Note_on_c, 1, 65, 0
2, 62160, Note_on_c, 1, 67, 64
2, 62279, Note_on_c, 1, 72, 0
2, 62280, Note_on_c, 1, 70, 64
2, 62399, Note_on_c, 1, 70, 0
2, 62399, Note_on_c, 1, 67, 0
2, 62400, Note_on_c, 1, 69, 64
2, 62519, Note_on_c, 1, 69, 0
2, 62640, Note_on_c, 1, 69, 64
2, 62879, Note_on_c, 1, 69, 0
2, 62880, Note_on_c, 1, 62, 64
2, 62880, Note_on_c, 1, 71, 64
2, 62939, Note_on_c, 1, 62, 0
2, 62940, Note_on_c, 1, 64, 64
2, 62999, Note_on_c, 1, 64, 0
2, 63000, Note_on_c, 1, 62, 64
2, 63059, Note_on_c, 1, 62, 0
2, 63060, Note_on_c, 1, 64, 64
2, 63119, Note_on_c, 1, 64, 0
2, 63120, Note_on_c, 1, 65, 64
2, 63239, Note_on_c, 1, 71, 0
2, 63240, Note_on_c, 1, 69, 64
2, 63359, Note_on_c, 1, 69, 0
2, 63359, Note_on_c, 1, 65, 0
2, 63360, Note_on_c, 1, 67, 64
2, 63479, Note_on_c, 1, 67, 0
2, 63600, Note_on_c, 1, 67, 64
2, 63839, Note_on_c, 1, 67, 0
2, 63840, Note_on_c, 1, 69, 64
2, 63840, Note_on_c, 1, 60, 64
2, 63899, Note_on_c, 1, 60, 0
2, 63900, Note_on_c, 1, 62, 64
2, 63959, Note_on_c, 1, 62, 0
2, 63960, Note_on_c, 1, 60, 64
2, 64019, Note_on_c, 1, 60, 0
2, 64020, Note_on_c, 1, 62, 64
2, 64079, Note_on_c, 1, 62, 0
2, 64079, Note_on_c, 1, 69, 0
2, 64080, Note_on_c, 1, 64, 64
2, 64319, Note_on_c, 1, 64, 0
2, 64320, Note_on_c, 1, 62, 64
2, 64379, Note_on_c, 1, 62, 0
2, 64380, Note_on_c, 1, 64, 64
2, 64439, Note_on_c, 1, 64, 0
2, 64440, Note_on_c, 1, 62, 64
2, 64499, Note_on_c, 1, 62, 0
2, 64500, Note_on_c, 1, 64, 64
2, 64559, Note_on_c, 1, 64, 0
2, 64560, Note_on_c, 1, 65, 64
2, 64799, Note_on_c, 1, 65, 0
2, 64800, Note_on_c, 1, 64, 64
2, 64859, Note_on_c, 1, 64, 0
2, 64860, Note_on_c, 1, 66, 64
2, 64919, Note_on_c, 1, 66, 0
2, 64920, Note_on_c, 1, 64, 64
2, 64979, Note_on_c, 1, 64, 0
2, 64980, Note_on_c, 1, 66, 64
2, 65039, Note_on_c, 1, 66, 0
2, 65040, Note_on_c, 1, 67, 64
2, 65040, Note_on_c, 1, 62, 64
2, 65159, Note_on_c, 1, 62, 0
2, 65160, Note_on_c, 1, 64, 64
2, 65219, Note_on_c, 1, 64, 0
2, 65220, Note_on_c, 1, 62, 64
2, 65279, Note_on_c, 1, 62, 0
2, 65399, Note_on_c, 1, 67, 0
2, 65400, Note_on_c, 1, 69, 64
2, 65459, Note_on_c, 1, 69, 0
2, 65460, Note_on_c, 1, 67, 64
2, 65519, Note_on_c, 1, 67, 0
2, 65520, Note_on_c, 1, 67, 64
2, 65549, Note_on_c, 1, 67, 0
2, 65550, Note_on_c, 1, 66, 64
2, 65579, Note_on_c, 1, 66, 0
2, 65580, Note_on_c, 1, 67, 64
2, 65609, Note_on_c, 1, 67, 0
2, 65610, Note_on_c, 1, 66, 64
2, 65639, Note_on_c, 1, 66, 0
2, 65640, Note_on_c, 1, 67, 64
2, 65669, Note_on_c, 1, 67, 0
2, 65670, Note_on_c, 1, 66, 64
2, 65729, Note_on_c, 1, 66, 0
2, 65730, Note_on_c, 1, 67, 64
2, 65759, Note_on_c, 1, 67, 0
2, 65760, Note_on_c, 1, 67, 64
2, 65879, Note_on_c, 1, 67, 0
2, 65880, Note_on_c, 1, 74, 64
2, 65939, Note_on_c, 1, 74, 0
2, 66000, Note_on_c, 1, 74, 64
2, 66059, Note_on_c, 1, 74, 0
2, 66120, Note_on_c, 1, 74, 64
2, 66179, Note_on_c, 1, 74, 0
2, 66240, Note_on_c, 1, 76, 64
2, 66479, Note_on_c, 1, 76, 0
2, 66600, Note_on_c, 1, 74, 64
2, 66719, Note_on_c, 1, 74, 0
2, 66720, Note_on_c, 1, 72, 64
2, 66779, Note_on_c, 1, 72, 0
2, 66840, Note_on_c, 1, 72, 64
2, 66899, Note_on_c, 1, 72, 0
2, 66960, Note_on_c, 1, 72, 64
2, 67079, Note_on_c, 1, 72, 0
2, 67080, Note_on_c, 1, 71, 64
2, 67139, Note_on_c, 1, 71, 0
2, 67140, Note_on_c, 1, 72, 64
2, 67199, Note_on_c, 1, 72, 0
2, 67200, Note_on_c, 1, 74, 64
2, 67439, Note_on_c, 1, 74, 0
2, 67560, Note_on_c, 1, 72, 64
2, 67679, Note_on_c, 1, 72, 0
2, 67680, Note_on_c, 1, 71, 64
2, 67739, Note_on_c, 1, 71, 0
2, 67800, Note_on_c, 1, 71, 64
2, 67859, Note_on_c, 1, 71, 0
2, 67920, Note_on_c, 1, 71, 64
2, 68039, Note_on_c, 1, 71, 0
2, 68040, Note_on_c, 1, 69, 64
2, 68099, Note_on_c, 1, 69, 0
2, 68100, Note_on_c, 1, 71, 64
2, 68159, Note_on_c, 1, 71, 0
2, 68160, Note_on_c, 1, 72, 64
2, 68279, Note_on_c, 1, 72, 0
2, 68280, Note_on_c, 1, 67, 64
2, 68399, Note_on_c, 1, 67, 0
2, 68400, Note_on_c, 1, 72, 64
2, 68759, Note_on_c, 1, 72, 0
2, 68760, Note_on_c, 1, 74, 64
2, 68819, Note_on_c, 1, 74, 0
2, 68820, Note_on_c, 1, 72, 64
2, 68879, Note_on_c, 1, 72, 0
2, 68880, Note_on_c, 1, 72, 64
2, 68909, Note_on_c, 1, 72, 0
2, 68910, Note_on_c, 1, 71, 64
2, 68939, Note_on_c, 1, 71, 0
2, 68940, Note_on_c, 1, 72, 64
2, 68969, Note_on_c, 1, 72, 0
2, 68970, Note_on_c, 1, 71, 64
2, 68999, Note_on_c, 1, 71, 0
2, 69000, Note_on_c, 1, 72, 64
2, 69029, Note_on_c, 1, 72, 0
2, 69030, Note_on_c, 1, 71, 64
2, 69119, Note_on_c, 1, 71, 0
2, 69120, Note_on_c, 1, 72, 64
2, 69239, Note_on_c, 1, 72, 0
2, 69240, Note_on_c, 1, 67, 64
2, 69240, Note_on_c, 1, 76, 64
2, 69299, Note_on_c, 1, 76, 0
2, 69299, Note_on_c, 1, 67, 0
2, 69300, Note_on_c, 1, 74, 64
2, 69359, Note_on_c, 1, 74, 0
2, 69360, Note_on_c, 1, 67, 64
2, 69360, Note_on_c, 1, 72, 64
2, 69419, Note_on_c, 1, 72, 0
2, 69419, Note_on_c, 1, 67, 0
2, 69420, Note_on_c, 1, 76, 64
2, 69479, Note_on_c, 1, 76, 0
2, 69480, Note_on_c, 1, 67, 64
2, 69480, Note_on_c, 1, 74, 64
2, 69539, Note_on_c, 1, 74, 0
2, 69539, Note_on_c, 1, 67, 0
2, 69540, Note_on_c, 1, 72, 64
2, 69599, Note_on_c, 1, 72, 0
2, 69600, Note_on_c, 1, 67, 64
2, 69600, Note_on_c, 1, 71, 64
2, 69659, Note_on_c, 1, 71, 0
2, 69659, Note_on_c, 1, 67, 0
2, 69660, Note_on_c, 1, 72, 64
2, 69719, Note_on_c, 1, 72, 0
2, 69720, Note_on_c, 1, 67, 64
2, 69720, Note_on_c, 1, 71, 64
2, 69779, Note_on_c, 1, 71, 0
2, 69780, Note_on_c, 1, 72, 64
2, 69839, Note_on_c, 1, 72, 0
2, 69839, Note_on_c, 1, 67, 0
2, 69840, Note_on_c, 1, 74, 64
2, 69840, Note_on_c, 1, 65, 64
2, 70079, Note_on_c, 1, 65, 0
2, 70079, Note_on_c, 1, 74, 0
2, 70080, Note_on_c, 1, 76, 64
2, 70080, Note_on_c, 1, 64, 64
2, 70319, Note_on_c, 1, 64, 0
2, 70439, Note_on_c, 1, 76, 0
2, 70440, Note_on_c, 1, 74, 64
2, 70499, Note_on_c, 1, 74, 0
2, 70500, Note_on_c, 1, 76, 64
2, 70559, Note_on_c, 1, 76, 0
2, 70560, Note_on_c, 1, 66, 64
2, 70560, Note_on_c, 1, 69, 64
2, 70619, Note_on_c, 1, 69, 0
2, 70619, Note_on_c, 1, 66, 0
2, 70620, Note_on_c, 1, 71, 64
2, 70679, Note_on_c, 1, 71, 0
2, 70680, Note_on_c, 1, 66, 64
2, 70680, Note_on_c, 1, 69, 64
2, 70739, Note_on_c, 1, 69, 0
2, 70740, Note_on_c, 1, 71, 64
2, 70799, Note_on_c, 1, 71, 0
2, 70799, Note_on_c, 1, 66, 0
2, 70800, Note_on_c, 1, 64, 64
2, 70800, Note_on_c, 1, 72, 64
2, 71039, Note_on_c, 1, 72, 0
2, 71039, Note_on_c, 1, 64, 0
2, 71040, Note_on_c, 1, 74, 64
2, 71040, Note_on_c, 1, 62, 64
2, 71279, Note_on_c, 1, 62, 0
2, 71399, Note_on_c, 1, 74, 0
2, 71400, Note_on_c, 1, 72, 64
2, 71459, Note_on_c, 1, 72, 0
2, 71460, Note_on_c, 1, 74, 64
2, 71519, Note_on_c, 1, 74, 0
2, 71520, Note_on_c, 1, 67, 64
2, 71520, Note_on_c, 1, 64, 64
2, 71579, Note_on_c, 1, 64, 0
2, 71579, Note_on_c, 1, 67, 0
2, 71580, Note_on_c, 1, 69, 64
2, 71639, Note_on_c, 1, 69, 0
2, 71640, Note_on_c, 1, 64, 64
2, 71640, Note_on_c, 1, 67, 64
2, 71699, Note_on_c, 1, 67, 0
2, 71699, Note_on_c, 1, 64, 0
2, 71700, Note_on_c, 1, 69, 64
2, 71759, Note_on_c, 1, 69, 0
2, 71760, Note_on_c, 1, 62, 64
2, 71760, Note_on_c, 1, 71, 64
2, 71879, Note_on_c, 1, 62, 0
2, 71880, Note_on_c, 1, 64, 64
2, 71999, Note_on_c, 1, 64, 0
2, 71999, Note_on_c, 1, 71, 0
2, 72000, Note_on_c, 1, 66, 64
2, 72000, Note_on_c, 1, 69, 64
2, 72059, Note_on_c, 1, 69, 0
2, 72059, Note_on_c, 1, 66, 0
2, 72060, Note_on_c, 1, 71, 64
2, 72119, Note_on_c, 1, 71, 0
2, 72120, Note_on_c, 1, 66, 64
2, 72120, Note_on_c, 1, 69, 64
2, 72179, Note_on_c, 1, 69, 0
2, 72180, Note_on_c, 1, 71, 64
2, 72239, Note_on_c, 1, 71, 0
2, 72239, Note_on_c, 1, 66, 0
2, 72240, Note_on_c, 1, 72, 64
2, 72240, Note_on_c, 1, 64, 64
2, 72359, Note_on_c, 1, 64, 0
2, 72360, Note_on_c, 1, 66, 64
2, 72479, Note_on_c, 1, 66, 0
2, 72479, Note_on_c, 1, 72, 0
2, 72480, Note_on_c, 1, 68, 64
2, 72480, Note_on_c, 1, 71, 64
2, 72539, Note_on_c, 1, 71, 0
2, 72539, Note_on_c, 1, 68, 0
2, 72540, Note_on_c, 1, 72, 64
2, 72599, Note_on_c, 1, 72, 0
2, 72600, Note_on_c, 1, 68, 64
2, 72600, Note_on_c, 1, 71, 64
2, 72659, Note_on_c, 1, 71, 0
2, 72659, Note_on_c, 1, 68, 0
2, 72660, Note_on_c, 1, 72, 64
2, 72719, Note_on_c, 1, 72, 0
2, 72720, Note_on_c, 1, 74, 64
2, 72779, Note_on_c, 1, 74, 0
2, 72780, Note_on_c, 1, 76, 64
2, 72839, Note_on_c, 1, 76, 0
2, 72840, Note_on_c, 1, 71, 64
2, 72840, Note_on_c, 1, 74, 64
2, 72899, Note_on_c, 1, 74, 0
2, 72900, Note_on_c, 1, 76, 64
2, 72959, Note_on_c, 1, 76, 0
2, 72959, Note_on_c, 1, 71, 0
2, 72960, Note_on_c, 1, 72, 64
2, 73079, Note_on_c, 1, 72, 0
2, 73080, Note_on_c, 1, 74, 64
2, 73199, Note_on_c, 1, 74, 0
2, 73200, Note_on_c, 1, 71, 64
2, 73379, Note_on_c, 1, 71, 0
2, 73380, Note_on_c, 1, 69, 64
2, 73409, Note_on_c, 1, 69, 0
2, 73440, Note_on_c, 1, 69, 64
2, 73679, Note_on_c, 1, 69, 0
2, 74040, Note_on_c, 1, 69, 64
2, 74099, Note_on_c, 1, 69, 0
2, 74160, Note_on_c, 1, 69, 64
2, 74219, Note_on_c, 1, 69, 0
2, 74280, Note_on_c, 1, 69, 64
2, 74399, Note_on_c, 1, 69, 0
2, 74400, Note_on_c, 1, 71, 64
2, 74639, Note_on_c, 1, 71, 0
2, 74760, Note_on_c, 1, 69, 64
2, 74879, Note_on_c, 1, 69, 0
2, 74880, Note_on_c, 1, 67, 64
2, 74999, Note_on_c, 1, 67, 0
2, 75000, Note_on_c, 1, 72, 64
2, 75059, Note_on_c, 1, 72, 0
2, 75120, Note_on_c, 1, 67, 64
2, 75120, Note_on_c, 1, 72, 64
2, 75179, Note_on_c, 1, 72, 0
2, 75179, Note_on_c, 1, 67, 0
2, 75180, Note_on_c, 1, 69, 64
2, 75239, Note_on_c, 1, 69, 0
2, 75240, Note_on_c, 1, 67, 64
2, 75240, Note_on_c, 1, 72, 64
2, 75299, Note_on_c, 1, 67, 0
2, 75359, Note_on_c, 1, 72, 0
2, 75360, Note_on_c, 1, 76, 64
2, 75599, Note_on_c, 1, 76, 0
2, 75720, Note_on_c, 1, 74, 64
2, 75839, Note_on_c, 1, 74, 0
2, 75840, Note_on_c, 1, 72, 64
2, 75899, Note_on_c, 1, 72, 0
2, 75960, Note_on_c, 1, 72, 64
2, 76019, Note_on_c, 1, 72, 0
2, 76080, Note_on_c, 1, 72, 64
2, 76199, Note_on_c, 1, 72, 0
2, 76200, Note_on_c, 1, 67, 64
2, 76200, Note_on_c, 1, 71, 64
2, 76259, Note_on_c, 1, 71, 0
2, 76260, Note_on_c, 1, 72, 64
2, 76319, Note_on_c, 1, 72, 0
2, 76319, Note_on_c, 1, 67, 0
2, 76320, Note_on_c, 1, 69, 64
2, 76320, Note_on_c, 1, 74, 64
2, 76379, Note_on_c, 1, 69, 0
2, 76440, Note_on_c, 1, 69, 64
2, 76499, Note_on_c, 1, 69, 0
2, 76560, Note_on_c, 1, 69, 64
2, 76679, Note_on_c, 1, 69, 0
2, 76679, Note_on_c, 1, 74, 0
2, 76680, Note_on_c, 1, 67, 64
2, 76680, Note_on_c, 1, 72, 64
2, 76739, Note_on_c, 1, 67, 0
2, 76740, Note_on_c, 1, 69, 64
2, 76799, Note_on_c, 1, 69, 0
2, 76799, Note_on_c, 1, 72, 0
2, 76800, Note_on_c, 1, 67, 64
2, 76800, Note_on_c, 1, 71, 64
2, 76859, Note_on_c, 1, 71, 0
2, 76920, Note_on_c, 1, 71, 64
2, 76979, Note_on_c, 1, 71, 0
2, 77039, Note_on_c, 1, 67, 0
2, 77040, Note_on_c, 1, 71, 64
2, 77159, Note_on_c, 1, 71, 0
2, 77160, Note_on_c, 1, 69, 64
2, 77219, Note_on_c, 1, 69, 0
2, 77220, Note_on_c, 1, 71, 64
2, 77279, Note_on_c, 1, 71, 0
2, 77280, Note_on_c, 1, 72, 64
2, 77280, Note_on_c, 1, 67, 64
2, 77339, Note_on_c, 1, 67, 0
2, 77400, Note_on_c, 1, 67, 64
2, 77459, Note_on_c, 1, 67, 0
2, 77519, Note_on_c, 1, 72, 0
2, 77520, Note_on_c, 1, 67, 64
2, 77639, Note_on_c, 1, 67, 0
2, 77640, Note_on_c, 1, 71, 64
2, 77640, Note_on_c, 1, 65, 64
2, 77699, Note_on_c, 1, 65, 0
2, 77700, Note_on_c, 1, 67, 64
2, 77759, Note_on_c, 1, 67, 0
2, 77759, Note_on_c, 1, 71, 0
2, 77760, Note_on_c, 1, 65, 64
2, 77760, Note_on_c, 1, 69, 64
2, 77879, Note_on_c, 1, 69, 0
2, 77880, Note_on_c, 1, 71, 64
2, 77999, Note_on_c, 1, 71, 0
2, 77999, Note_on_c, 1, 65, 0
2, 78000, Note_on_c, 1, 67, 64
2, 78000, Note_on_c, 1, 72, 64
2, 78239, Note_on_c, 1, 67, 0
2, 78240, Note_on_c, 1, 67, 64
2, 78479, Note_on_c, 1, 72, 0
2, 78480, Note_on_c, 1, 71, 64
2, 78719, Note_on_c, 1, 71, 0
2, 78719, Note_on_c, 1, 67, 0
2, 78720, Note_on_c, 1, 67, 64
2, 78720, Note_on_c, 1, 72, 64
2, 80759, Note_on_c, 1, 72, 0
2, 80759, Note_on_c, 1, 67, 0
2, 81120, End_track
3, 0, Start_track
3, 0, Title_t, ""
3, 0, Instrument_name_t, "Pipe Organ"
3, 540, Note_on_c, 1, 60, 64
3, 599, Note_on_c, 1, 60, 0
3, 600, Note_on_c, 1, 59, 64
3, 659, Note_on_c, 1, 59, 0
3, 660, Note_on_c, 1, 60, 64
3, 719, Note_on_c, 1, 60, 0
3, 720, Note_on_c, 1, 55, 64
3, 779, Note_on_c, 1, 55, 0
3, 780, Note_on_c, 1, 60, 64
3, 839, Note_on_c, 1, 60, 0
3, 840, Note_on_c, 1, 59, 64
3, 899, Note_on_c, 1, 59, 0
3, 900, Note_on_c, 1, 60, 64
3, 959, Note_on_c, 1, 60, 0
3, 960, Note_on_c, 1, 55, 64
3, 960, Note_on_c, 1, 52, 64
3, 1199, Note_on_c, 1, 52, 0
3, 1199, Note_on_c, 1, 55, 0
3, 1320, Note_on_c, 1, 60, 64
3, 1320, Note_on_c, 1, 55, 64
3, 1439, Note_on_c, 1, 55, 0
3, 1440, Note_on_c, 1, 57, 64
3, 1679, Note_on_c, 1, 57, 0
3, 1679, Note_on_c, 1, 60, 0
3, 1920, Note_on_c, 1, 57, 64
3, 1920, Note_on_c, 1, 54, 64
3, 2159, Note_on_c, 1, 54, 0
3, 2159, Note_on_c, 1, 57, 0
3, 2280, Note_on_c, 1, 62, 64
3, 2280, Note_on_c, 1, 57, 64
3, 2399, Note_on_c, 1, 57, 0
3, 2400, Note_on_c, 1, 59, 64
3, 2639, Note_on_c, 1, 59, 0
3, 2639, Note_on_c, 1, 62, 0
3, 2880, Note_on_c, 1, 59, 64
3, 2880, Note_on_c, 1, 56, 64
3, 3119, Note_on_c, 1, 56, 0
3, 3119, Note_on_c, 1, 59, 0
3, 3240, Note_on_c, 1, 64, 64
3, 3240, Note_on_c, 1, 59, 64
3, 3359, Note_on_c, 1, 59, 0
3, 3360, Note_on_c, 1, 60, 64
3, 3599, Note_on_c, 1, 60, 0
3, 3599, Note_on_c, 1, 64, 0
3, 3840, Note_on_c, 1, 62, 64
3, 3840, Note_on_c, 1, 57, 64
3, 3899, Note_on_c, 1, 57, 0
3, 3899, Note_on_c, 1, 62, 0
3, 3960, Note_on_c, 1, 62, 64
3, 3960, Note_on_c, 1, 57, 64
3, 4019, Note_on_c, 1, 57, 0
3, 4019, Note_on_c, 1, 62, 0
3, 4080, Note_on_c, 1, 62, 64
3, 4080, Note_on_c, 1, 57, 64
3, 4139, Note_on_c, 1, 57, 0
3, 4139, Note_on_c, 1, 62, 0
3, 4200, Note_on_c, 1, 62, 64
3, 4200, Note_on_c, 1, 57, 64
3, 4319, Note_on_c, 1, 57, 0
3, 4320, Note_on_c, 1, 59, 64
3, 4379, Note_on_c, 1, 59, 0
3, 4379, Note_on_c, 1, 62, 0
3, 4440, Note_on_c, 1, 62, 64
3, 4440, Note_on_c, 1, 59, 64
3, 4499, Note_on_c, 1, 59, 0
3, 4499, Note_on_c, 1, 62, 0
3, 4560, Note_on_c, 1, 62, 64
3, 4560, Note_on_c, 1, 59, 64
3, 4619, Note_on_c, 1, 59, 0
3, 4619, Note_on_c, 1, 62, 0
3, 4680, Note_on_c, 1, 62, 64
3, 4680, Note_on_c, 1, 59, 64
3, 4799, Note_on_c, 1, 59, 0
3, 4799, Note_on_c, 1, 62, 0
3, 4800, Note_on_c, 1, 60, 64
3, 4800, Note_on_c, 1, 55, 64
3, 4859, Note_on_c, 1, 55, 0
3, 4859, Note_on_c, 1, 60, 0
3, 4920, Note_on_c, 1, 60, 64
3, 4920, Note_on_c, 1, 55, 64
3, 4979, Note_on_c, 1, 55, 0
3, 4979, Note_on_c, 1, 60, 0
3, 5040, Note_on_c, 1, 60, 64
3, 5040, Note_on_c, 1, 55, 64
3, 5099, Note_on_c, 1, 55, 0
3, 5099, Note_on_c, 1, 60, 0
3, 5160, Note_on_c, 1, 60, 64
3, 5160, Note_on_c, 1, 55, 64
3, 5279, Note_on_c, 1, 55, 0
3, 5280, Note_on_c, 1, 57, 64
3, 5339, Note_on_c, 1, 57, 0
3, 5339, Note_on_c, 1, 60, 0
3, 5400, Note_on_c, 1, 60, 64
3, 5400, Note_on_c, 1, 57, 64
3, 5459, Note_on_c, 1, 57, 0
3, 5459, Note_on_c, 1, 60, 0
3, 5520, Note_on_c, 1, 60, 64
3, 5520, Note_on_c, 1, 57, 64
3, 5579, Note_on_c, 1, 57, 0
3, 5579, Note_on_c, 1, 60, 0
3, 5640, Note_on_c, 1, 57, 64
3, 5640, Note_on_c, 1, 60, 64
3, 5759, Note_on_c, 1, 60, 0
3, 5759, Note_on_c, 1, 57, 0
3, 5760, Note_on_c, 1, 59, 64
3, 5760, Note_on_c, 1, 54, 64
3, 5819, Note_on_c, 1, 54, 0
3, 5819, Note_on_c, 1, 59, 0
3, 5880, Note_on_c, 1, 59, 64
3, 5880, Note_on_c, 1, 54, 64
3, 5939, Note_on_c, 1, 54, 0
3, 5939, Note_on_c, 1, 59, 0
3, 6000, Note_on_c, 1, 59, 64
3, 6000, Note_on_c, 1, 54, 64
3, 6059, Note_on_c, 1, 54, 0
3, 6059, Note_on_c, 1, 59, 0
3, 6120, Note_on_c, 1, 59, 64
3, 6120, Note_on_c, 1, 54, 64
3, 6239, Note_on_c, 1, 54, 0
3, 6240, Note_on_c, 1, 55, 64
3, 6299, Note_on_c, 1, 55, 0
3, 6299, Note_on_c, 1, 59, 0
3, 6360, Note_on_c, 1, 59, 64
3, 6360, Note_on_c, 1, 55, 64
3, 6419, Note_on_c, 1, 55, 0
3, 6419, Note_on_c, 1, 59, 0
3, 6480, Note_on_c, 1, 59, 64
3, 6480, Note_on_c, 1, 55, 64
3, 6539, Note_on_c, 1, 55, 0
3, 6539, Note_on_c, 1, 59, 0
3, 6600, Note_on_c, 1, 59, 64
3, 6600, Note_on_c, 1, 55, 64
3, 6719, Note_on_c, 1, 55, 0
3, 6719, Note_on_c, 1, 59, 0
3, 6720, Note_on_c, 1, 57, 64
3, 6720, Note_on_c, 1, 52, 64
3, 6779, Note_on_c, 1, 52, 0
3, 6779, Note_on_c, 1, 57, 0
3, 6840, Note_on_c, 1, 57, 64
3, 6840, Note_on_c, 1, 52, 64
3, 6899, Note_on_c, 1, 52, 0
3, 6899, Note_on_c, 1, 57, 0
3, 6960, Note_on_c, 1, 57, 64
3, 6960, Note_on_c, 1, 52, 64
3, 7019, Note_on_c, 1, 52, 0
3, 7019, Note_on_c, 1, 57, 0
3, 7080, Note_on_c, 1, 57, 64
3, 7080, Note_on_c, 1, 52, 64
3, 7199, Note_on_c, 1, 52, 0
3, 7200, Note_on_c, 1, 54, 64
3, 7259, Note_on_c, 1, 54, 0
3, 7259, Note_on_c, 1, 57, 0
3, 7320, Note_on_c, 1, 57, 64
3, 7320, Note_on_c, 1, 54, 64
3, 7379, Note_on_c, 1, 54, 0
3, 7379, Note_on_c, 1, 57, 0
3, 7440, Note_on_c, 1, 57, 64
3, 7440, Note_on_c, 1, 54, 64
3, 7499, Note_on_c, 1, 54, 0
3, 7499, Note_on_c, 1, 57, 0
3, 7560, Note_on_c, 1, 57, 64
3, 7560, Note_on_c, 1, 54, 64
3, 7619, Note_on_c, 1, 54, 0
3, 7619, Note_on_c, 1, 57, 0
3, 7680, Note_on_c, 1, 59, 64
3, 7680, Note_on_c, 1, 55, 64
3, 7919, Note_on_c, 1, 55, 0
3, 7919, Note_on_c, 1, 59, 0
3, 7920, Note_on_c, 1, 57, 64
3, 7920, Note_on_c, 1, 54, 64
3, 8159, Note_on_c, 1, 54, 0
3, 8159, Note_on_c, 1, 57, 0
3, 8160, Note_on_c, 1, 55, 64
3, 8399, Note_on_c, 1, 55, 0
3, 8400, Note_on_c, 1, 57, 64
3, 8400, Note_on_c, 1, 54, 64
3, 8639, Note_on_c, 1, 54, 0
3, 8639, Note_on_c, 1, 57, 0
3, 8640, Note_on_c, 1, 59, 64
3, 8640, Note_on_c, 1, 55, 64
3, 8699, Note_on_c, 1, 55, 0
3, 8699, Note_on_c, 1, 59, 0
3, 8700, Note_on_c, 1, 62, 64
3, 8759, Note_on_c, 1, 62, 0
3, 8760, Note_on_c, 1, 64, 64
3, 8819, Note_on_c, 1, 64, 0
3, 8820, Note_on_c, 1, 66, 64
3, 8879, Note_on_c, 1, 66, 0
3, 8880, Note_on_c, 1, 67, 64
3, 9000, Note_on_c, 1, 59, 64
3, 9119, Note_on_c, 1, 59, 0
3, 9120, Note_on_c, 1, 60, 64
3, 9239, Note_on_c, 1, 60, 0
3, 9240, Note_on_c, 1, 59, 64
3, 9359, Note_on_c, 1, 59, 0
3, 9360, Note_on_c, 1, 57, 64
3, 9479, Note_on_c, 1, 57, 0
3, 9480, Note_on_c, 1, 55, 64
3, 9599, Note_on_c, 1, 55, 0
3, 9600, Note_on_c, 1, 62, 64
3, 9719, Note_on_c, 1, 67, 0
3, 9720, Note_on_c, 1, 66, 64
3, 9779, Note_on_c, 1, 66, 0
3, 9780, Note_on_c, 1, 64, 64
3, 9839, Note_on_c, 1, 64, 0
3, 9840, Note_on_c, 1, 66, 64
3, 9959, Note_on_c, 1, 66, 0
3, 9959, Note_on_c, 1, 62, 0
3, 9960, Note_on_c, 1, 62, 64
3, 10079, Note_on_c, 1, 62, 0
3, 10080, Note_on_c, 1, 62, 64
3, 10199, Note_on_c, 1, 62, 0
3, 10200, Note_on_c, 1, 62, 64
3, 10200, Note_on_c, 1, 55, 64
3, 10439, Note_on_c, 1, 55, 0
3, 10440, Note_on_c, 1, 54, 64
3, 10559, Note_on_c, 1, 54, 0
3, 10559, Note_on_c, 1, 62, 0
3, 10620, Note_on_c, 1, 55, 64
3, 10679, Note_on_c, 1, 55, 0
3, 10680, Note_on_c, 1, 54, 64
3, 10739, Note_on_c, 1, 54, 0
3, 10740, Note_on_c, 1, 55, 64
3, 10799, Note_on_c, 1, 55, 0
3, 10800, Note_on_c, 1, 50, 64
3, 10859, Note_on_c, 1, 50, 0
3, 10860, Note_on_c, 1, 55, 64
3, 10919, Note_on_c, 1, 55, 0
3, 10920, Note_on_c, 1, 54, 64
3, 10979, Note_on_c, 1, 54, 0
3, 10980, Note_on_c, 1, 55, 64
3, 11039, Note_on_c, 1, 55, 0
3, 11040, Note_on_c, 1, 43, 64
3, 11279, Note_on_c, 1, 43, 0
3, 12061, Note_on_c, 1, 60, 64
3, 12117, Note_on_c, 1, 59, 64
3, 12120, Note_on_c, 1, 60, 0
3, 12179, Note_on_c, 1, 60, 64
3, 12183, Note_on_c, 1, 59, 0
3, 12238, Note_on_c, 1, 55, 64
3, 12238, Note_on_c, 1, 60, 0
3, 12298, Note_on_c, 1, 60, 64
3, 12298, Note_on_c, 1, 55, 0
3, 12353, Note_on_c, 1, 59, 64
3, 12359, Note_on_c, 1, 60, 0
3, 12412, Note_on_c, 1, 60, 64
3, 12419, Note_on_c, 1, 59, 0
3, 12472, Note_on_c, 1, 55, 64
3, 12472, Note_on_c, 1, 52, 64
3, 12474, Note_on_c, 1, 60, 0
3, 12725, Note_on_c, 1, 52, 0
3, 12725, Note_on_c, 1, 55, 0
3, 12840, Note_on_c, 1, 60, 64
3, 12840, Note_on_c, 1, 55, 64
3, 12962, Note_on_c, 1, 57, 64
3, 12962, Note_on_c, 1, 55, 0
3, 13210, Note_on_c, 1, 57, 0
3, 13213, Note_on_c, 1, 60, 0
3, 13441, Note_on_c, 1, 57, 64
3, 13441, Note_on_c, 1, 54, 64
3, 13687, Note_on_c, 1, 54, 0
3, 13687, Note_on_c, 1, 57, 0
3, 13798, Note_on_c, 1, 62, 64
3, 13799, Note_on_c, 1, 57, 64
3, 13917, Note_on_c, 1, 59, 64
3, 13920, Note_on_c, 1, 57, 0
3, 14166, Note_on_c, 1, 59, 0
3, 14166, Note_on_c, 1, 62, 0
3, 14400, Note_on_c, 1, 59, 64
3, 14400, Note_on_c, 1, 56, 64
3, 14648, Note_on_c, 1, 56, 0
3, 14648, Note_on_c, 1, 59, 0
3, 14759, Note_on_c, 1, 64, 64
3, 14759, Note_on_c, 1, 59, 64
3, 14876, Note_on_c, 1, 60, 64
3, 14881, Note_on_c, 1, 59, 0
3, 15120, Note_on_c, 1, 60, 0
3, 15120, Note_on_c, 1, 64, 0
3, 15360, Note_on_c, 1, 62, 64
3, 15360, Note_on_c, 1, 57, 64
3, 15405, Note_on_c, 1, 62, 0
3, 15409, Note_on_c, 1, 57, 0
3, 15480, Note_on_c, 1, 62, 64
3, 15480, Note_on_c, 1, 57, 64
3, 15523, Note_on_c, 1, 57, 0
3, 15523, Note_on_c, 1, 62, 0
3, 15602, Note_on_c, 1, 62, 64
3, 15602, Note_on_c, 1, 57, 64
3, 15642, Note_on_c, 1, 62, 0
3, 15646, Note_on_c, 1, 57, 0
3, 15716, Note_on_c, 1, 62, 64
3, 15716, Note_on_c, 1, 57, 64
3, 15843, Note_on_c, 1, 59, 64
3, 15843, Note_on_c, 1, 57, 0
3, 15904, Note_on_c, 1, 59, 0
3, 15904, Note_on_c, 1, 62, 0
3, 15968, Note_on_c, 1, 62, 64
3, 15968, Note_on_c, 1, 59, 64
3, 16020, Note_on_c, 1, 59, 0
3, 16020, Note_on_c, 1, 62, 0
3, 16080, Note_on_c, 1, 62, 64
3, 16080, Note_on_c, 1, 59, 64
3, 16129, Note_on_c, 1, 59, 0
3, 16129, Note_on_c, 1, 62, 0
3, 16199, Note_on_c, 1, 62, 64
3, 16199, Note_on_c, 1, 59, 64
3, 16323, Note_on_c, 1, 60, 64
3, 16323, Note_on_c, 1, 55, 64
3, 16327, Note_on_c, 1, 59, 0
3, 16327, Note_on_c, 1, 62, 0
3, 16385, Note_on_c, 1, 60, 0
3, 16385, Note_on_c, 1, 55, 0
3, 16443, Note_on_c, 1, 60, 64
3, 16445, Note_on_c, 1, 55, 64
3, 16494, Note_on_c, 1, 60, 0
3, 16498, Note_on_c, 1, 55, 0
3, 16561, Note_on_c, 1, 60, 64
3, 16565, Note_on_c, 1, 55, 64
3, 16605, Note_on_c, 1, 60, 0
3, 16608, Note_on_c, 1, 55, 0
3, 16678, Note_on_c, 1, 60, 64
3, 16678, Note_on_c, 1, 55, 64
3, 16800, Note_on_c, 1, 57, 64
3, 16800, Note_on_c, 1, 55, 0
3, 16864, Note_on_c, 1, 57, 0
3, 16864, Note_on_c, 1, 60, 0
3, 16919, Note_on_c, 1, 60, 64
3, 16923, Note_on_c, 1, 57, 64
3, 16977, Note_on_c, 1, 57, 0
3, 16977, Note_on_c, 1, 60, 0
3, 17046, Note_on_c, 1, 60, 64
3, 17046, Note_on_c, 1, 57, 64
3, 17089, Note_on_c, 1, 57, 0
3, 17095, Note_on_c, 1, 60, 0
3, 17162, Note_on_c, 1, 57, 64
3, 17166, Note_on_c, 1, 60, 64
3, 17282, Note_on_c, 1, 59, 64
3, 17282, Note_on_c, 1, 54, 64
3, 17284, Note_on_c, 1, 57, 0
3, 17288, Note_on_c, 1, 60, 0
3, 17343, Note_on_c, 1, 54, 0
3, 17345, Note_on_c, 1, 59, 0
3, 17398, Note_on_c, 1, 59, 64
3, 17400, Note_on_c, 1, 54, 64
3, 17452, Note_on_c, 1, 54, 0
3, 17455, Note_on_c, 1, 59, 0
3, 17517, Note_on_c, 1, 59, 64
3, 17517, Note_on_c, 1, 54, 64
3, 17558, Note_on_c, 1, 54, 0
3, 17563, Note_on_c, 1, 59, 0
3, 17637, Note_on_c, 1, 59, 64
3, 17637, Note_on_c, 1, 54, 64
3, 17758, Note_on_c, 1, 55, 64
3, 17763, Note_on_c, 1, 54, 0
3, 17830, Note_on_c, 1, 55, 0
3, 17830, Note_on_c, 1, 59, 0
3, 17882, Note_on_c, 1, 59, 64
3, 17882, Note_on_c, 1, 55, 64
3, 17942, Note_on_c, 1, 55, 0
3, 17942, Note_on_c, 1, 59, 0
3, 17999, Note_on_c, 1, 59, 64
3, 18003, Note_on_c, 1, 55, 64
3, 18058, Note_on_c, 1, 55, 0
3, 18061, Note_on_c, 1, 59, 0
3, 18115, Note_on_c, 1, 59, 64
3, 18119, Note_on_c, 1, 55, 64
3, 18243, Note_on_c, 1, 57, 64
3, 18243, Note_on_c, 1, 52, 64
3, 18243, Note_on_c, 1, 55, 0
3, 18246, Note_on_c, 1, 59, 0
3, 18307, Note_on_c, 1, 57, 0
3, 18307, Note_on_c, 1, 52, 0
3, 18362, Note_on_c, 1, 57, 64
3, 18362, Note_on_c, 1, 52, 64
3, 18415, Note_on_c, 1, 52, 0
3, 18415, Note_on_c, 1, 57, 0
3, 18480, Note_on_c, 1, 57, 64
3, 18480, Note_on_c, 1, 52, 64
3, 18527, Note_on_c, 1, 52, 0
3, 18527, Note_on_c, 1, 57, 0
3, 18601, Note_on_c, 1, 57, 64
3, 18601, Note_on_c, 1, 52, 64
3, 18716, Note_on_c, 1, 54, 64
3, 18719, Note_on_c, 1, 52, 0
3, 18790, Note_on_c, 1, 54, 0
3, 18790, Note_on_c, 1, 57, 0
3, 18838, Note_on_c, 1, 57, 64
3, 18841, Note_on_c, 1, 54, 64
3, 18910, Note_on_c, 1, 54, 0
3, 18914, Note_on_c, 1, 57, 0
3, 18959, Note_on_c, 1, 57, 64
3, 18963, Note_on_c, 1, 54, 64
3, 19028, Note_on_c, 1, 54, 0
3, 19028, Note_on_c, 1, 57, 0
3, 19080, Note_on_c, 1, 57, 64
3, 19080, Note_on_c, 1, 54, 64
3, 19146, Note_on_c, 1, 54, 0
3, 19148, Note_on_c, 1, 57, 0
3, 19200, Note_on_c, 1, 59, 64
3, 19200, Note_on_c, 1, 55, 64
3, 19443, Note_on_c, 1, 57, 64
3, 19447, Note_on_c, 1, 54, 64
3, 19447, Note_on_c, 1, 55, 0
3, 19449, Note_on_c, 1, 59, 0
3, 19685, Note_on_c, 1, 55, 64
3, 19685, Note_on_c, 1, 57, 0
3, 19687, Note_on_c, 1, 54, 0
3, 19924, Note_on_c, 1, 57, 64
3, 19924, Note_on_c, 1, 54, 64
3, 19927, Note_on_c, 1, 55, 0
3, 20162, Note_on_c, 1, 59, 64
3, 20162, Note_on_c, 1, 54, 0
3, 20162, Note_on_c, 1, 57, 0
3, 20165, Note_on_c, 1, 55, 64
3, 20220, Note_on_c, 1, 59, 0
3, 20223, Note_on_c, 1, 62, 64
3, 20223, Note_on_c, 1, 55, 0
3, 20283, Note_on_c, 1, 64, 64
3, 20283, Note_on_c, 1, 62, 0
3, 20345, Note_on_c, 1, 66, 64
3, 20349, Note_on_c, 1, 64, 0
3, 20411, Note_on_c, 1, 67, 64
3, 20415, Note_on_c, 1, 66, 0
3, 20531, Note_on_c, 1, 59, 64
3, 20653, Note_on_c, 1, 60, 64
3, 20653, Note_on_c, 1, 59, 0
3, 20764, Note_on_c, 1, 59, 64
3, 20767, Note_on_c, 1, 60, 0
3, 20876, Note_on_c, 1, 57, 64
3, 20876, Note_on_c, 1, 59, 0
3, 21003, Note_on_c, 1, 55, 64
3, 21003, Note_on_c, 1, 57, 0
3, 21118, Note_on_c, 1, 62, 64
3, 21118, Note_on_c, 1, 55, 0
3, 21235, Note_on_c, 1, 66, 64
3, 21239, Note_on_c, 1, 67, 0
3, 21290, Note_on_c, 1, 64, 64
3, 21293, Note_on_c, 1, 66, 0
3, 21350, Note_on_c, 1, 66, 64
3, 21350, Note_on_c, 1, 64, 0
3, 21451, Note_on_c, 1, 62, 0
3, 21455, Note_on_c, 1, 66, 0
3, 21471, Note_on_c, 1, 62, 64
3, 21575, Note_on_c, 1, 62, 0
3, 21608, Note_on_c, 1, 62, 64
3, 21708, Note_on_c, 1, 62, 0
3, 21724, Note_on_c, 1, 62, 64
3, 21724, Note_on_c, 1, 55, 64
3, 21969, Note_on_c, 1, 54, 64
3, 21971, Note_on_c, 1, 55, 0
3, 22089, Note_on_c, 1, 54, 0
3, 22089, Note_on_c, 1, 62, 0
3, 22142, Note_on_c, 1, 55, 64
3, 22201, Note_on_c, 1, 54, 64
3, 22207, Note_on_c, 1, 55, 0
3, 22257, Note_on_c, 1, 55, 64
3, 22263, Note_on_c, 1, 54, 0
3, 22312, Note_on_c, 1, 50, 64
3, 22312, Note_on_c, 1, 55, 0
3, 22368, Note_on_c, 1, 55, 64
3, 22372, Note_on_c, 1, 50, 0
3, 22426, Note_on_c, 1, 54, 64
3, 22432, Note_on_c, 1, 55, 0
3, 22484, Note_on_c, 1, 55, 64
3, 22488, Note_on_c, 1, 54, 0
3, 22542, Note_on_c, 1, 43, 64
3, 22545, Note_on_c, 1, 55, 0
3, 22794, Note_on_c, 1, 43, 0
3, 23035, Note_on_c, 1, 55, 64
3, 23035, Note_on_c, 1, 52, 64
3, 23284, Note_on_c, 1, 52, 0
3, 23284, Note_on_c, 1, 55, 0
3, 23584, Note_on_c, 1, 53, 64
3, 23641, Note_on_c, 1, 52, 64
3, 23648, Note_on_c, 1, 53, 0
3, 23700, Note_on_c, 1, 53, 64
3, 23708, Note_on_c, 1, 52, 0
3, 23762, Note_on_c, 1, 48, 64
3, 23767, Note_on_c, 1, 53, 0
3, 23823, Note_on_c, 1, 53, 64
3, 23831, Note_on_c, 1, 48, 0
3, 23883, Note_on_c, 1, 52, 64
3, 23891, Note_on_c, 1, 53, 0
3, 23946, Note_on_c, 1, 53, 64
3, 23950, Note_on_c, 1, 52, 0
3, 24003, Note_on_c, 1, 50, 64
3, 24241, Note_on_c, 1, 50, 0
3, 24241, Note_on_c, 1, 53, 0
3, 24540, Note_on_c, 1, 52, 64
3, 24599, Note_on_c, 1, 50, 64
3, 24604, Note_on_c, 1, 52, 0
3, 24660, Note_on_c, 1, 52, 64
3, 24667, Note_on_c, 1, 50, 0
3, 24722, Note_on_c, 1, 47, 64
3, 24727, Note_on_c, 1, 52, 0
3, 24779, Note_on_c, 1, 52, 64
3, 24784, Note_on_c, 1, 47, 0
3, 24843, Note_on_c, 1, 50, 64
3, 24847, Note_on_c, 1, 52, 0
3, 24899, Note_on_c, 1, 52, 64
3, 24905, Note_on_c, 1, 50, 0
3, 24952, Note_on_c, 1, 52, 0
3, 24957, Note_on_c, 1, 48, 64
3, 25018, Note_on_c, 1, 60, 64
3, 25021, Note_on_c, 1, 48, 0
3, 25075, Note_on_c, 1, 59, 64
3, 25084, Note_on_c, 1, 60, 0
3, 25141, Note_on_c, 1, 60, 64
3, 25146, Note_on_c, 1, 59, 0
3, 25198, Note_on_c, 1, 48, 64
3, 25206, Note_on_c, 1, 60, 0
3, 25255, Note_on_c, 1, 60, 64
3, 25259, Note_on_c, 1, 48, 0
3, 25316, Note_on_c, 1, 59, 64
3, 25325, Note_on_c, 1, 60, 0
3, 25379, Note_on_c, 1, 60, 64
3, 25379, Note_on_c, 1, 59, 0
3, 25439, Note_on_c, 1, 47, 64
3, 25439, Note_on_c, 1, 60, 0
3, 25496, Note_on_c, 1, 59, 64
3, 25502, Note_on_c, 1, 47, 0
3, 25557, Note_on_c, 1, 57, 64
3, 25560, Note_on_c, 1, 59, 0
3, 25620, Note_on_c, 1, 59, 64
3, 25620, Note_on_c, 1, 57, 0
3, 25677, Note_on_c, 1, 47, 64
3, 25680, Note_on_c, 1, 59, 0
3, 25733, Note_on_c, 1, 59, 64
3, 25736, Note_on_c, 1, 47, 0
3, 25793, Note_on_c, 1, 57, 64
3, 25798, Note_on_c, 1, 59, 0
3, 25856, Note_on_c, 1, 59, 64
3, 25856, Note_on_c, 1, 57, 0
3, 25913, Note_on_c, 1, 48, 64
3, 25913, Note_on_c, 1, 59, 0
3, 25974, Note_on_c, 1, 60, 64
3, 25974, Note_on_c, 1, 48, 0
3, 26034, Note_on_c, 1, 59, 64
3, 26038, Note_on_c, 1, 60, 0
3, 26100, Note_on_c, 1, 60, 64
3, 26100, Note_on_c, 1, 59, 0
3, 26157, Note_on_c, 1, 48, 64
3, 26157, Note_on_c, 1, 60, 0
3, 26214, Note_on_c, 1, 60, 64
3, 26214, Note_on_c, 1, 48, 0
3, 26271, Note_on_c, 1, 59, 64
3, 26275, Note_on_c, 1, 60, 0
3, 26332, Note_on_c, 1, 60, 64
3, 26332, Note_on_c, 1, 59, 0
3, 26393, Note_on_c, 1, 52, 64
3, 26393, Note_on_c, 1, 60, 0
3, 26450, Note_on_c, 1, 64, 64
3, 26450, Note_on_c, 1, 52, 0
3, 26511, Note_on_c, 1, 62, 64
3, 26514, Note_on_c, 1, 64, 0
3, 26580, Note_on_c, 1, 64, 64
3, 26585, Note_on_c, 1, 62, 0
3, 26637, Note_on_c, 1, 52, 64
3, 26642, Note_on_c, 1, 64, 0
3, 26697, Note_on_c, 1, 64, 64
3, 26697, Note_on_c, 1, 52, 0
3, 26755, Note_on_c, 1, 62, 64
3, 26760, Note_on_c, 1, 64, 0
3, 26815, Note_on_c, 1, 64, 64
3, 26815, Note_on_c, 1, 62, 0
3, 26876, Note_on_c, 1, 57, 64
3, 26886, Note_on_c, 1, 64, 0
3, 26938, Note_on_c, 1, 64, 64
3, 26943, Note_on_c, 1, 57, 0
3, 26998, Note_on_c, 1, 56, 64
3, 27010, Note_on_c, 1, 64, 0
3, 27064, Note_on_c, 1, 64, 64
3, 27064, Note_on_c, 1, 56, 0
3, 27123, Note_on_c, 1, 57, 64
3, 27127, Note_on_c, 1, 64, 0
3, 27176, Note_on_c, 1, 64, 64
3, 27176, Note_on_c, 1, 57, 0
3, 27242, Note_on_c, 1, 54, 64
3, 27246, Note_on_c, 1, 64, 0
3, 27300, Note_on_c, 1, 62, 64
3, 27303, Note_on_c, 1, 54, 0
3, 27360, Note_on_c, 1, 55, 64
3, 27365, Note_on_c, 1, 62, 0
3, 27417, Note_on_c, 1, 62, 64
3, 27421, Note_on_c, 1, 55, 0
3, 27477, Note_on_c, 1, 54, 64
3, 27486, Note_on_c, 1, 62, 0
3, 27542, Note_on_c, 1, 62, 64
3, 27542, Note_on_c, 1, 54, 0
3, 27602, Note_on_c, 1, 55, 64
3, 27602, Note_on_c, 1, 62, 0
3, 27659, Note_on_c, 1, 62, 64
3, 27662, Note_on_c, 1, 55, 0
3, 27716, Note_on_c, 1, 52, 64
3, 27731, Note_on_c, 1, 62, 0
3, 27777, Note_on_c, 1, 60, 64
3, 27777, Note_on_c, 1, 52, 0
3, 27840, Note_on_c, 1, 53, 64
3, 27845, Note_on_c, 1, 60, 0
3, 27895, Note_on_c, 1, 60, 64
3, 27898, Note_on_c, 1, 53, 0
3, 27951, Note_on_c, 1, 52, 64
3, 27955, Note_on_c, 1, 60, 0
3, 28009, Note_on_c, 1, 60, 64
3, 28014, Note_on_c, 1, 52, 0
3, 28070, Note_on_c, 1, 53, 64
3, 28073, Note_on_c, 1, 60, 0
3, 28130, Note_on_c, 1, 60, 64
3, 28135, Note_on_c, 1, 53, 0
3, 28192, Note_on_c, 1, 50, 64
3, 28204, Note_on_c, 1, 60, 0
3, 28250, Note_on_c, 1, 59, 64
3, 28253, Note_on_c, 1, 50, 0
3, 28314, Note_on_c, 1, 52, 64
3, 28550, Note_on_c, 1, 52, 0
3, 28554, Note_on_c, 1, 59, 0
3, 28678, Note_on_c, 1, 64, 64
3, 28799, Note_on_c, 1, 62, 64
3, 28808, Note_on_c, 1, 64, 0
3, 28921, Note_on_c, 1, 60, 64
3, 28925, Note_on_c, 1, 62, 0
3, 29038, Note_on_c, 1, 64, 64
3, 29038, Note_on_c, 1, 59, 64
3, 29043, Note_on_c, 1, 60, 0
3, 29280, Note_on_c, 1, 59, 0
3, 29280, Note_on_c, 1, 64, 0
3, 29344, Note_on_c, 1, 57, 64
3, 29398, Note_on_c, 1, 56, 64
3, 29403, Note_on_c, 1, 57, 0
3, 29459, Note_on_c, 1, 57, 64
3, 29463, Note_on_c, 1, 56, 0
3, 29520, Note_on_c, 1, 52, 64
3, 29520, Note_on_c, 1, 57, 0
3, 29574, Note_on_c, 1, 57, 64
3, 29578, Note_on_c, 1, 52, 0
3, 29634, Note_on_c, 1, 56, 64
3, 29642, Note_on_c, 1, 57, 0
3, 29690, Note_on_c, 1, 57, 64
3, 29690, Note_on_c, 1, 56, 0
3, 29747, Note_on_c, 1, 57, 0
3, 29749, Note_on_c, 1, 56, 64
3, 29755, Note_on_c, 1, 64, 64
3, 29755, Note_on_c, 1, 59, 64
3, 29823, Note_on_c, 1, 59, 0
3, 29823, Note_on_c, 1, 64, 0
3, 29823, Note_on_c, 1, 56, 0
3, 29873, Note_on_c, 1, 59, 64
3, 29879, Note_on_c, 1, 64, 64
3, 29879, Note_on_c, 1, 56, 64
3, 29944, Note_on_c, 1, 56, 0
3, 29944, Note_on_c, 1, 64, 0
3, 29944, Note_on_c, 1, 59, 0
3, 29996, Note_on_c, 1, 64, 64
3, 29996, Note_on_c, 1, 59, 64
3, 29996, Note_on_c, 1, 56, 64
3, 30065, Note_on_c, 1, 56, 0
3, 30065, Note_on_c, 1, 59, 0
3, 30065, Note_on_c, 1, 64, 0
3, 30112, Note_on_c, 1, 64, 64
3, 30117, Note_on_c, 1, 59, 64
3, 30117, Note_on_c, 1, 56, 64
3, 30188, Note_on_c, 1, 56, 0
3, 30193, Note_on_c, 1, 59, 0
3, 30193, Note_on_c, 1, 64, 0
3, 30299, Note_on_c, 1, 57, 64
3, 30358, Note_on_c, 1, 56, 64
3, 30358, Note_on_c, 1, 57, 0
3, 30411, Note_on_c, 1, 57, 64
3, 30415, Note_on_c, 1, 56, 0
3, 30473, Note_on_c, 1, 52, 64
3, 30473, Note_on_c, 1, 57, 0
3, 30528, Note_on_c, 1, 57, 64
3, 30531, Note_on_c, 1, 52, 0
3, 30585, Note_on_c, 1, 56, 64
3, 30589, Note_on_c, 1, 57, 0
3, 30642, Note_on_c, 1, 57, 64
3, 30642, Note_on_c, 1, 56, 0
3, 30699, Note_on_c, 1, 59, 64
3, 30699, Note_on_c, 1, 57, 0
3, 30702, Note_on_c, 1, 62, 64
3, 30760, Note_on_c, 1, 62, 0
3, 30760, Note_on_c, 1, 59, 0
3, 30820, Note_on_c, 1, 62, 64
3, 30820, Note_on_c, 1, 59, 64
3, 30891, Note_on_c, 1, 59, 0
3, 30891, Note_on_c, 1, 62, 0
3, 30953, Note_on_c, 1, 62, 64
3, 30953, Note_on_c, 1, 59, 64
3, 31019, Note_on_c, 1, 59, 0
3, 31019, Note_on_c, 1, 62, 0
3, 31076, Note_on_c, 1, 62, 64
3, 31076, Note_on_c, 1, 59, 64
3, 31134, Note_on_c, 1, 62, 0
3, 31141, Note_on_c, 1, 59, 0
3, 31196, Note_on_c, 1, 60, 64
3, 31196, Note_on_c, 1, 55, 64
3, 31452, Note_on_c, 1, 55, 0
3, 31452, Note_on_c, 1, 60, 0
3, 31738, Note_on_c, 1, 60, 64
3, 31797, Note_on_c, 1, 59, 64
3, 31802, Note_on_c, 1, 60, 0
3, 31857, Note_on_c, 1, 60, 64
3, 31863, Note_on_c, 1, 59, 0
3, 31920, Note_on_c, 1, 55, 64
3, 31920, Note_on_c, 1, 60, 0
3, 31978, Note_on_c, 1, 60, 64
3, 31983, Note_on_c, 1, 55, 0
3, 32032, Note_on_c, 1, 59, 64
3, 32036, Note_on_c, 1, 60, 0
3, 32100, Note_on_c, 1, 60, 64
3, 32100, Note_on_c, 1, 59, 0
3, 32160, Note_on_c, 1, 55, 64
3, 32397, Note_on_c, 1, 55, 0
3, 32397, Note_on_c, 1, 60, 0
3, 32518, Note_on_c, 1, 60, 64
3, 32518, Note_on_c, 1, 55, 64
3, 32646, Note_on_c, 1, 57, 64
3, 32646, Note_on_c, 1, 55, 0
3, 32703, Note_on_c, 1, 57, 0
3, 32703, Note_on_c, 1, 60, 0
3, 32765, Note_on_c, 1, 60, 64
3, 32765, Note_on_c, 1, 57, 64
3, 32814, Note_on_c, 1, 57, 0
3, 32822, Note_on_c, 1, 60, 0
3, 32883, Note_on_c, 1, 60, 64
3, 32883, Note_on_c, 1, 57, 64
3, 32931, Note_on_c, 1, 57, 0
3, 32936, Note_on_c, 1, 60, 0
3, 33003, Note_on_c, 1, 60, 64
3, 33003, Note_on_c, 1, 57, 64
3, 33125, Note_on_c, 1, 62, 64
3, 33125, Note_on_c, 1, 60, 0
3, 33359, Note_on_c, 1, 62, 0
3, 33364, Note_on_c, 1, 57, 0
3, 33473, Note_on_c, 1, 62, 64
3, 33473, Note_on_c, 1, 57, 64
3, 33597, Note_on_c, 1, 59, 64
3, 33597, Note_on_c, 1, 57, 0
3, 33665, Note_on_c, 1, 59, 0
3, 33665, Note_on_c, 1, 62, 0
3, 33717, Note_on_c, 1, 62, 64
3, 33717, Note_on_c, 1, 59, 64
3, 33775, Note_on_c, 1, 59, 0
3, 33775, Note_on_c, 1, 62, 0
3, 33837, Note_on_c, 1, 62, 64
3, 33837, Note_on_c, 1, 59, 64
3, 33898, Note_on_c, 1, 59, 0
3, 33898, Note_on_c, 1, 62, 0
3, 33958, Note_on_c, 1, 62, 64
3, 33958, Note_on_c, 1, 59, 64
3, 34083, Note_on_c, 1, 64, 64
3, 34083, Note_on_c, 1, 62, 0
3, 34311, Note_on_c, 1, 64, 0
3, 34311, Note_on_c, 1, 59, 0
3, 34444, Note_on_c, 1, 64, 64
3, 34444, Note_on_c, 1, 59, 64
3, 34567, Note_on_c, 1, 60, 64
3, 34567, Note_on_c, 1, 59, 0
3, 34625, Note_on_c, 1, 60, 0
3, 34629, Note_on_c, 1, 64, 0
3, 34682, Note_on_c, 1, 64, 64
3, 34682, Note_on_c, 1, 60, 64
3, 34739, Note_on_c, 1, 64, 0
3, 34745, Note_on_c, 1, 60, 0
3, 34800, Note_on_c, 1, 64, 64
3, 34800, Note_on_c, 1, 60, 64
3, 34858, Note_on_c, 1, 60, 0
3, 34858, Note_on_c, 1, 64, 0
3, 34917, Note_on_c, 1, 64, 64
3, 34917, Note_on_c, 1, 60, 64
3, 35036, Note_on_c, 1, 67, 64
3, 35036, Note_on_c, 1, 62, 64
3, 35041, Note_on_c, 1, 60, 0
3, 35041, Note_on_c, 1, 64, 0
3, 35280, Note_on_c, 1, 67, 0
3, 35280, Note_on_c, 1, 62, 0
3, 35398, Note_on_c, 1, 67, 64
3, 35398, Note_on_c, 1, 62, 64
3, 35520, Note_on_c, 1, 60, 64
3, 35520, Note_on_c, 1, 62, 0
3, 35520, Note_on_c, 1, 67, 0
3, 35575, Note_on_c, 1, 64, 64
3, 35580, Note_on_c, 1, 60, 0
3, 35641, Note_on_c, 1, 60, 64
3, 35641, Note_on_c, 1, 64, 0
3, 35701, Note_on_c, 1, 64, 64
3, 35705, Note_on_c, 1, 60, 0
3, 35759, Note_on_c, 1, 60, 64
3, 35762, Note_on_c, 1, 64, 0
3, 35816, Note_on_c, 1, 65, 64
3, 35825, Note_on_c, 1, 60, 0
3, 35879, Note_on_c, 1, 60, 64
3, 35885, Note_on_c, 1, 65, 0
3, 35941, Note_on_c, 1, 65, 64
3, 35946, Note_on_c, 1, 60, 0
3, 35998, Note_on_c, 1, 59, 64
3, 36007, Note_on_c, 1, 65, 0
3, 36055, Note_on_c, 1, 62, 64
3, 36064, Note_on_c, 1, 59, 0
3, 36113, Note_on_c, 1, 59, 64
3, 36117, Note_on_c, 1, 62, 0
3, 36175, Note_on_c, 1, 62, 64
3, 36179, Note_on_c, 1, 59, 0
3, 36235, Note_on_c, 1, 59, 64
3, 36239, Note_on_c, 1, 62, 0
3, 36298, Note_on_c, 1, 64, 64
3, 36300, Note_on_c, 1, 59, 0
3, 36357, Note_on_c, 1, 59, 64
3, 36363, Note_on_c, 1, 64, 0
3, 36419, Note_on_c, 1, 64, 64
3, 36424, Note_on_c, 1, 59, 0
3, 36477, Note_on_c, 1, 57, 64
3, 36480, Note_on_c, 1, 64, 0
3, 36536, Note_on_c, 1, 60, 64
3, 36540, Note_on_c, 1, 57, 0
3, 36598, Note_on_c, 1, 57, 64
3, 36598, Note_on_c, 1, 60, 0
3, 36660, Note_on_c, 1, 60, 64
3, 36660, Note_on_c, 1, 57, 0
3, 36720, Note_on_c, 1, 57, 64
3, 36720, Note_on_c, 1, 60, 0
3, 36778, Note_on_c, 1, 62, 64
3, 36781, Note_on_c, 1, 57, 0
3, 36838, Note_on_c, 1, 57, 64
3, 36841, Note_on_c, 1, 62, 0
3, 36899, Note_on_c, 1, 62, 64
3, 36903, Note_on_c, 1, 57, 0
3, 36965, Note_on_c, 1, 55, 64
3, 37211, Note_on_c, 1, 62, 0
3, 37266, Note_on_c, 1, 64, 64
3, 37325, Note_on_c, 1, 62, 64
3, 37329, Note_on_c, 1, 64, 0
3, 37387, Note_on_c, 1, 60, 64
3, 37387, Note_on_c, 1, 62, 0
3, 37450, Note_on_c, 1, 60, 0
3, 37453, Note_on_c, 1, 62, 64
3, 37927, Note_on_c, 1, 48, 64
3, 37932, Note_on_c, 1, 62, 0
3, 37932, Note_on_c, 1, 55, 0
3, 38286, Note_on_c, 1, 48, 0
3, 38944, Note_on_c, 1, 53, 64
3, 39001, Note_on_c, 1, 52, 64
3, 39008, Note_on_c, 1, 53, 0
3, 39060, Note_on_c, 1, 53, 64
3, 39068, Note_on_c, 1, 52, 0
3, 39122, Note_on_c, 1, 48, 64
3, 39127, Note_on_c, 1, 53, 0
3, 39183, Note_on_c, 1, 53, 64
3, 39191, Note_on_c, 1, 48, 0
3, 39243, Note_on_c, 1, 52, 64
3, 39251, Note_on_c, 1, 53, 0
3, 39306, Note_on_c, 1, 53, 64
3, 39310, Note_on_c, 1, 52, 0
3, 39363, Note_on_c, 1, 50, 64
3, 39601, Note_on_c, 1, 50, 0
3, 39601, Note_on_c, 1, 53, 0
3, 39900, Note_on_c, 1, 52, 64
3, 39959, Note_on_c, 1, 50, 64
3, 39964, Note_on_c, 1, 52, 0
3, 40020, Note_on_c, 1, 52, 64
3, 40027, Note_on_c, 1, 50, 0
3, 40082, Note_on_c, 1, 47, 64
3, 40087, Note_on_c, 1, 52, 0
3, 40139, Note_on_c, 1, 52, 64
3, 40144, Note_on_c, 1, 47, 0
3, 40203, Note_on_c, 1, 50, 64
3, 40207, Note_on_c, 1, 52, 0
3, 40259, Note_on_c, 1, 52, 64
3, 40265, Note_on_c, 1, 50, 0
3, 40312, Note_on_c, 1, 52, 0
3, 40317, Note_on_c, 1, 48, 64
3, 40378, Note_on_c, 1, 60, 64
3, 40381, Note_on_c, 1, 48, 0
3, 40435, Note_on_c, 1, 59, 64
3, 40444, Note_on_c, 1, 60, 0
3, 40501, Note_on_c, 1, 60, 64
3, 40506, Note_on_c, 1, 59, 0
3, 40558, Note_on_c, 1, 48, 64
3, 40566, Note_on_c, 1, 60, 0
3, 40615, Note_on_c, 1, 60, 64
3, 40619, Note_on_c, 1, 48, 0
3, 40676, Note_on_c, 1, 59, 64
3, 40685, Note_on_c, 1, 60, 0
3, 40739, Note_on_c, 1, 60, 64
3, 40739, Note_on_c, 1, 59, 0
3, 40799, Note_on_c, 1, 47, 64
3, 40799, Note_on_c, 1, 60, 0
3, 40856, Note_on_c, 1, 59, 64
3, 40862, Note_on_c, 1, 47, 0
3, 40917, Note_on_c, 1, 57, 64
3, 40920, Note_on_c, 1, 59, 0
3, 40980, Note_on_c, 1, 59, 64
3, 40980, Note_on_c, 1, 57, 0
3, 41037, Note_on_c, 1, 47, 64
3, 41040, Note_on_c, 1, 59, 0
3, 41093, Note_on_c, 1, 59, 64
3, 41096, Note_on_c, 1, 47, 0
3, 41153, Note_on_c, 1, 57, 64
3, 41158, Note_on_c, 1, 59, 0
3, 41216, Note_on_c, 1, 59, 64
3, 41216, Note_on_c, 1, 57, 0
3, 41273, Note_on_c, 1, 48, 64
3, 41273, Note_on_c, 1, 59, 0
3, 41334, Note_on_c, 1, 60, 64
3, 41334, Note_on_c, 1, 48, 0
3, 41394, Note_on_c, 1, 59, 64
3, 41398, Note_on_c, 1, 60, 0
3, 41460, Note_on_c, 1, 60, 64
3, 41460, Note_on_c, 1, 59, 0
3, 41517, Note_on_c, 1, 48, 64
3, 41517, Note_on_c, 1, 60, 0
3, 41574, Note_on_c, 1, 60, 64
3, 41574, Note_on_c, 1, 48, 0
3, 41631, Note_on_c, 1, 59, 64
3, 41635, Note_on_c, 1, 60, 0
3, 41692, Note_on_c, 1, 60, 64
3, 41692, Note_on_c, 1, 59, 0
3, 41753, Note_on_c, 1, 52, 64
3, 41753, Note_on_c, 1, 60, 0
3, 41810, Note_on_c, 1, 64, 64
3, 41810, Note_on_c, 1, 52, 0
3, 41871, Note_on_c, 1, 62, 64
3, 41874, Note_on_c, 1, 64, 0
3, 41940, Note_on_c, 1, 64, 64
3, 41945, Note_on_c, 1, 62, 0
3, 41997, Note_on_c, 1, 52, 64
3, 42002, Note_on_c, 1, 64, 0
3, 42057, Note_on_c, 1, 64, 64
3, 42057, Note_on_c, 1, 52, 0
3, 42115, Note_on_c, 1, 62, 64
3, 42120, Note_on_c, 1, 64, 0
3, 42175, Note_on_c, 1, 64, 64
3, 42175, Note_on_c, 1, 62, 0
3, 42236, Note_on_c, 1, 57, 64
3, 42246, Note_on_c, 1, 64, 0
3, 42298, Note_on_c, 1, 64, 64
3, 42303, Note_on_c, 1, 57, 0
3, 42358, Note_on_c, 1, 56, 64
3, 42370, Note_on_c, 1, 64, 0
3, 42424, Note_on_c, 1, 64, 64
3, 42424, Note_on_c, 1, 56, 0
3, 42483, Note_on_c, 1, 57, 64
3, 42487, Note_on_c, 1, 64, 0
3, 42536, Note_on_c, 1, 64, 64
3, 42536, Note_on_c, 1, 57, 0
3, 42602, Note_on_c, 1, 54, 64
3, 42606, Note_on_c, 1, 64, 0
3, 42660, Note_on_c, 1, 62, 64
3, 42663, Note_on_c, 1, 54, 0
3, 42720, Note_on_c, 1, 55, 64
3, 42725, Note_on_c, 1, 62, 0
3, 42777, Note_on_c, 1, 62, 64
3, 42781, Note_on_c, 1, 55, 0
3, 42837, Note_on_c, 1, 54, 64
3, 42846, Note_on_c, 1, 62, 0
3, 42902, Note_on_c, 1, 62, 64
3, 42902, Note_on_c, 1, 54, 0
3, 42962, Note_on_c, 1, 55, 64
3, 42962, Note_on_c, 1, 62, 0
3, 43019, Note_on_c, 1, 62, 64
3, 43022, Note_on_c, 1, 55, 0
3, 43076, Note_on_c, 1, 52, 64
3, 43091, Note_on_c, 1, 62, 0
3, 43137, Note_on_c, 1, 60, 64
3, 43137, Note_on_c, 1, 52, 0
3, 43200, Note_on_c, 1, 53, 64
3, 43205, Note_on_c, 1, 60, 0
3, 43255, Note_on_c, 1, 60, 64
3, 43258, Note_on_c, 1, 53, 0
3, 43311, Note_on_c, 1, 52, 64
3, 43315, Note_on_c, 1, 60, 0
3, 43369, Note_on_c, 1, 60, 64
3, 43374, Note_on_c, 1, 52, 0
3, 43430, Note_on_c, 1, 53, 64
3, 43433, Note_on_c, 1, 60, 0
3, 43490, Note_on_c, 1, 60, 64
3, 43495, Note_on_c, 1, 53, 0
3, 43552, Note_on_c, 1, 50, 64
3, 43564, Note_on_c, 1, 60, 0
3, 43610, Note_on_c, 1, 59, 64
3, 43613, Note_on_c, 1, 50, 0
3, 43674, Note_on_c, 1, 52, 64
3, 43910, Note_on_c, 1, 52, 0
3, 43914, Note_on_c, 1, 59, 0
3, 44038, Note_on_c, 1, 64, 64
3, 44159, Note_on_c, 1, 62, 64
3, 44168, Note_on_c, 1, 64, 0
3, 44281, Note_on_c, 1, 60, 64
3, 44285, Note_on_c, 1, 62, 0
3, 44398, Note_on_c, 1, 64, 64
3, 44398, Note_on_c, 1, 59, 64
3, 44403, Note_on_c, 1, 60, 0
3, 44640, Note_on_c, 1, 59, 0
3, 44640, Note_on_c, 1, 64, 0
3, 44704, Note_on_c, 1, 57, 64
3, 44758, Note_on_c, 1, 56, 64
3, 44763, Note_on_c, 1, 57, 0
3, 44819, Note_on_c, 1, 57, 64
3, 44823, Note_on_c, 1, 56, 0
3, 44880, Note_on_c, 1, 52, 64
3, 44880, Note_on_c, 1, 57, 0
3, 44934, Note_on_c, 1, 57, 64
3, 44938, Note_on_c, 1, 52, 0
3, 44994, Note_on_c, 1, 56, 64
3, 45002, Note_on_c, 1, 57, 0
3, 45050, Note_on_c, 1, 57, 64
3, 45050, Note_on_c, 1, 56, 0
3, 45107, Note_on_c, 1, 57, 0
3, 45109, Note_on_c, 1, 56, 64
3, 45115, Note_on_c, 1, 64, 64
3, 45115, Note_on_c, 1, 59, 64
3, 45183, Note_on_c, 1, 59, 0
3, 45183, Note_on_c, 1, 64, 0
3, 45183, Note_on_c, 1, 56, 0
3, 45233, Note_on_c, 1, 59, 64
3, 45239, Note_on_c, 1, 64, 64
3, 45239, Note_on_c, 1, 56, 64
3, 45304, Note_on_c, 1, 56, 0
3, 45304, Note_on_c, 1, 64, 0
3, 45304, Note_on_c, 1, 59, 0
3, 45356, Note_on_c, 1, 64, 64
3, 45356, Note_on_c, 1, 59, 64
3, 45356, Note_on_c, 1, 56, 64
3, 45425, Note_on_c, 1, 56, 0
3, 45425, Note_on_c, 1, 59, 0
3, 45425, Note_on_c, 1, 64, 0
3, 45472, Note_on_c, 1, 64, 64
3, 45477, Note_on_c, 1, 59, 64
3, 45477, Note_on_c, 1, 56, 64
3, 45548, Note_on_c, 1, 56, 0
3, 45553, Note_on_c, 1, 59, 0
3, 45553, Note_on_c, 1, 64, 0
3, 45659, Note_on_c, 1, 57, 64
3, 45718, Note_on_c, 1, 56, 64
3, 45718, Note_on_c, 1, 57, 0
3, 45771, Note_on_c, 1, 57, 64
3, 45775, Note_on_c, 1, 56, 0
3, 45833, Note_on_c, 1, 52, 64
3, 45833, Note_on_c, 1, 57, 0
3, 45888, Note_on_c, 1, 57, 64
3, 45891, Note_on_c, 1, 52, 0
3, 45945, Note_on_c, 1, 56, 64
3, 45949, Note_on_c, 1, 57, 0
3, 46002, Note_on_c, 1, 57, 64
3, 46002, Note_on_c, 1, 56, 0
3, 46059, Note_on_c, 1, 59, 64
3, 46059, Note_on_c, 1, 57, 0
3, 46062, Note_on_c, 1, 62, 64
3, 46120, Note_on_c, 1, 62, 0
3, 46120, Note_on_c, 1, 59, 0
3, 46180, Note_on_c, 1, 62, 64
3, 46180, Note_on_c, 1, 59, 64
3, 46251, Note_on_c, 1, 59, 0
3, 46251, Note_on_c, 1, 62, 0
3, 46313, Note_on_c, 1, 62, 64
3, 46313, Note_on_c, 1, 59, 64
3, 46379, Note_on_c, 1, 59, 0
3, 46379, Note_on_c, 1, 62, 0
3, 46436, Note_on_c, 1, 62, 64
3, 46436, Note_on_c, 1, 59, 64
3, 46494, Note_on_c, 1, 62, 0
3, 46501, Note_on_c, 1, 59, 0
3, 46556, Note_on_c, 1, 60, 64
3, 46556, Note_on_c, 1, 55, 64
3, 46812, Note_on_c, 1, 55, 0
3, 46812, Note_on_c, 1, 60, 0
3, 47098, Note_on_c, 1, 60, 64
3, 47157, Note_on_c, 1, 59, 64
3, 47162, Note_on_c, 1, 60, 0
3, 47217, Note_on_c, 1, 60, 64
3, 47223, Note_on_c, 1, 59, 0
3, 47280, Note_on_c, 1, 55, 64
3, 47280, Note_on_c, 1, 60, 0
3, 47338, Note_on_c, 1, 60, 64
3, 47343, Note_on_c, 1, 55, 0
3, 47392, Note_on_c, 1, 59, 64
3, 47396, Note_on_c, 1, 60, 0
3, 47460, Note_on_c, 1, 60, 64
3, 47460, Note_on_c, 1, 59, 0
3, 47520, Note_on_c, 1, 55, 64
3, 47757, Note_on_c, 1, 55, 0
3, 47757, Note_on_c, 1, 60, 0
3, 47878, Note_on_c, 1, 60, 64
3, 47878, Note_on_c, 1, 55, 64
3, 48006, Note_on_c, 1, 57, 64
3, 48006, Note_on_c, 1, 55, 0
3, 48063, Note_on_c, 1, 57, 0
3, 48063, Note_on_c, 1, 60, 0
3, 48125, Note_on_c, 1, 60, 64
3, 48125, Note_on_c, 1, 57, 64
3, 48174, Note_on_c, 1, 57, 0
3, 48182, Note_on_c, 1, 60, 0
3, 48243, Note_on_c, 1, 60, 64
3, 48243, Note_on_c, 1, 57, 64
3, 48291, Note_on_c, 1, 57, 0
3, 48296, Note_on_c, 1, 60, 0
3, 48363, Note_on_c, 1, 60, 64
3, 48363, Note_on_c, 1, 57, 64
3, 48485, Note_on_c, 1, 62, 64
3, 48485, Note_on_c, 1, 60, 0
3, 48719, Note_on_c, 1, 62, 0
3, 48724, Note_on_c, 1, 57, 0
3, 48833, Note_on_c, 1, 62, 64
3, 48833, Note_on_c, 1, 57, 64
3, 48957, Note_on_c, 1, 59, 64
3, 48957, Note_on_c, 1, 57, 0
3, 49025, Note_on_c, 1, 59, 0
3, 49025, Note_on_c, 1, 62, 0
3, 49077, Note_on_c, 1, 62, 64
3, 49077, Note_on_c, 1, 59, 64
3, 49135, Note_on_c, 1, 59, 0
3, 49135, Note_on_c, 1, 62, 0
3, 49197, Note_on_c, 1, 62, 64
3, 49197, Note_on_c, 1, 59, 64
3, 49258, Note_on_c, 1, 59, 0
3, 49258, Note_on_c, 1, 62, 0
3, 49318, Note_on_c, 1, 62, 64
3, 49318, Note_on_c, 1, 59, 64
3, 49443, Note_on_c, 1, 64, 64
3, 49443, Note_on_c, 1, 62, 0
3, 49671, Note_on_c, 1, 64, 0
3, 49671, Note_on_c, 1, 59, 0
3, 49804, Note_on_c, 1, 64, 64
3, 49804, Note_on_c, 1, 59, 64
3, 49927, Note_on_c, 1, 60, 64
3, 49927, Note_on_c, 1, 59, 0
3, 49985, Note_on_c, 1, 60, 0
3, 49989, Note_on_c, 1, 64, 0
3, 50042, Note_on_c, 1, 64, 64
3, 50042, Note_on_c, 1, 60, 64
3, 50099, Note_on_c, 1, 64, 0
3, 50105, Note_on_c, 1, 60, 0
3, 50160, Note_on_c, 1, 64, 64
3, 50160, Note_on_c, 1, 60, 64
3, 50218, Note_on_c, 1, 60, 0
3, 50218, Note_on_c, 1, 64, 0
3, 50277, Note_on_c, 1, 64, 64
3, 50277, Note_on_c, 1, 60, 64
3, 50396, Note_on_c, 1, 67, 64
3, 50396, Note_on_c, 1, 62, 64
3, 50401, Note_on_c, 1, 60, 0
3, 50401, Note_on_c, 1, 64, 0
3, 50640, Note_on_c, 1, 67, 0
3, 50640, Note_on_c, 1, 62, 0
3, 50758, Note_on_c, 1, 67, 64
3, 50758, Note_on_c, 1, 62, 64
3, 50880, Note_on_c, 1, 60, 64
3, 50880, Note_on_c, 1, 62, 0
3, 50880, Note_on_c, 1, 67, 0
3, 50935, Note_on_c, 1, 64, 64
3, 50940, Note_on_c, 1, 60, 0
3, 51001, Note_on_c, 1, 60, 64
3, 51001, Note_on_c, 1, 64, 0
3, 51061, Note_on_c, 1, 64, 64
3, 51065, Note_on_c, 1, 60, 0
3, 51119, Note_on_c, 1, 60, 64
3, 51122, Note_on_c, 1, 64, 0
3, 51176, Note_on_c, 1, 65, 64
3, 51185, Note_on_c, 1, 60, 0
3, 51239, Note_on_c, 1, 60, 64
3, 51245, Note_on_c, 1, 65, 0
3, 51301, Note_on_c, 1, 65, 64
3, 51306, Note_on_c, 1, 60, 0
3, 51358, Note_on_c, 1, 59, 64
3, 51367, Note_on_c, 1, 65, 0
3, 51415, Note_on_c, 1, 62, 64
3, 51424, Note_on_c, 1, 59, 0
3, 51473, Note_on_c, 1, 59, 64
3, 51477, Note_on_c, 1, 62, 0
3, 51535, Note_on_c, 1, 62, 64
3, 51539, Note_on_c, 1, 59, 0
3, 51595, Note_on_c, 1, 59, 64
3, 51599, Note_on_c, 1, 62, 0
3, 51658, Note_on_c, 1, 64, 64
3, 51660, Note_on_c, 1, 59, 0
3, 51717, Note_on_c, 1, 59, 64
3, 51723, Note_on_c, 1, 64, 0
3, 51779, Note_on_c, 1, 64, 64
3, 51784, Note_on_c, 1, 59, 0
3, 51837, Note_on_c, 1, 57, 64
3, 51840, Note_on_c, 1, 64, 0
3, 51896, Note_on_c, 1, 60, 64
3, 51900, Note_on_c, 1, 57, 0
3, 51958, Note_on_c, 1, 57, 64
3, 51958, Note_on_c, 1, 60, 0
3, 52020, Note_on_c, 1, 60, 64
3, 52020, Note_on_c, 1, 57, 0
3, 52080, Note_on_c, 1, 57, 64
3, 52080, Note_on_c, 1, 60, 0
3, 52138, Note_on_c, 1, 62, 64
3, 52141, Note_on_c, 1, 57, 0
3, 52198, Note_on_c, 1, 57, 64
3, 52201, Note_on_c, 1, 62, 0
3, 52259, Note_on_c, 1, 62, 64
3, 52263, Note_on_c, 1, 57, 0
3, 52325, Note_on_c, 1, 55, 64
3, 52571, Note_on_c, 1, 62, 0
3, 52626, Note_on_c, 1, 64, 64
3, 52685, Note_on_c, 1, 62, 64
3, 52689, Note_on_c, 1, 64, 0
3, 52747, Note_on_c, 1, 60, 64
3, 52747, Note_on_c, 1, 62, 0
3, 52810, Note_on_c, 1, 60, 0
3, 52813, Note_on_c, 1, 62, 64
3, 53287, Note_on_c, 1, 48, 64
3, 53292, Note_on_c, 1, 62, 0
3, 53292, Note_on_c, 1, 55, 0
3, 54246, Note_on_c, 1, 48, 0
3, 56280, Note_on_c, 1, 67, 64
3, 56339, Note_on_c, 1, 67, 0
3, 56400, Note_on_c, 1, 67, 64
3, 56459, Note_on_c, 1, 67, 0
3, 56520, Note_on_c, 1, 67, 64
3, 56639, Note_on_c, 1, 67, 0
3, 56640, Note_on_c, 1, 69, 64
3, 56879, Note_on_c, 1, 69, 0
3, 57000, Note_on_c, 1, 67, 64
3, 57119, Note_on_c, 1, 67, 0
3, 57120, Note_on_c, 1, 65, 64
3, 57179, Note_on_c, 1, 65, 0
3, 57240, Note_on_c, 1, 65, 64
3, 57299, Note_on_c, 1, 65, 0
3, 57360, Note_on_c, 1, 65, 64
3, 57479, Note_on_c, 1, 65, 0
3, 57480, Note_on_c, 1, 64, 64
3, 57539, Note_on_c, 1, 64, 0
3, 57540, Note_on_c, 1, 65, 64
3, 57599, Note_on_c, 1, 65, 0
3, 57600, Note_on_c, 1, 67, 64
3, 57839, Note_on_c, 1, 67, 0
3, 57960, Note_on_c, 1, 65, 64
3, 58079, Note_on_c, 1, 65, 0
3, 58080, Note_on_c, 1, 64, 64
3, 58139, Note_on_c, 1, 64, 0
3, 58200, Note_on_c, 1, 64, 64
3, 58259, Note_on_c, 1, 64, 0
3, 58320, Note_on_c, 1, 64, 64
3, 58439, Note_on_c, 1, 64, 0
3, 58440, Note_on_c, 1, 62, 64
3, 58499, Note_on_c, 1, 62, 0
3, 58500, Note_on_c, 1, 64, 64
3, 58559, Note_on_c, 1, 64, 0
3, 58560, Note_on_c, 1, 65, 64
3, 58679, Note_on_c, 1, 65, 0
3, 58680, Note_on_c, 1, 60, 64
3, 58739, Note_on_c, 1, 60, 0
3, 58740, Note_on_c, 1, 62, 64
3, 58799, Note_on_c, 1, 62, 0
3, 58800, Note_on_c, 1, 64, 64
3, 58859, Note_on_c, 1, 64, 0
3, 58860, Note_on_c, 1, 69, 64
3, 58919, Note_on_c, 1, 69, 0
3, 58920, Note_on_c, 1, 67, 64
3, 58979, Note_on_c, 1, 67, 0
3, 58980, Note_on_c, 1, 69, 64
3, 59039, Note_on_c, 1, 69, 0
3, 59040, Note_on_c, 1, 65, 64
3, 59159, Note_on_c, 1, 65, 0
3, 59160, Note_on_c, 1, 64, 64
3, 59219, Note_on_c, 1, 64, 0
3, 59220, Note_on_c, 1, 62, 64
3, 59279, Note_on_c, 1, 62, 0
3, 59280, Note_on_c, 1, 67, 64
3, 59399, Note_on_c, 1, 67, 0
3, 59400, Note_on_c, 1, 65, 64
3, 59519, Note_on_c, 1, 65, 0
3, 59520, Note_on_c, 1, 64, 64
3, 59639, Note_on_c, 1, 64, 0
3, 59640, Note_on_c, 1, 67, 64
3, 59640, Note_on_c, 1, 60, 64
3, 59699, Note_on_c, 1, 60, 0
3, 59699, Note_on_c, 1, 67, 0
3, 59700, Note_on_c, 1, 65, 64
3, 59759, Note_on_c, 1, 65, 0
3, 59760, Note_on_c, 1, 64, 64
3, 59760, Note_on_c, 1, 60, 64
3, 59819, Note_on_c, 1, 60, 0
3, 59819, Note_on_c, 1, 64, 0
3, 59820, Note_on_c, 1, 67, 64
3, 59879, Note_on_c, 1, 67, 0
3, 59880, Note_on_c, 1, 65, 64
3, 59880, Note_on_c, 1, 60, 64
3, 59939, Note_on_c, 1, 65, 0
3, 59940, Note_on_c, 1, 64, 64
3, 59999, Note_on_c, 1, 60, 0
3, 60000, Note_on_c, 1, 67, 64
3, 60239, Note_on_c, 1, 67, 0
3, 60239, Note_on_c, 1, 64, 0
3, 60360, Note_on_c, 1, 62, 64
3, 60479, Note_on_c, 1, 62, 0
3, 60480, Note_on_c, 1, 60, 64
3, 60539, Note_on_c, 1, 60, 0
3, 60600, Note_on_c, 1, 60, 64
3, 60659, Note_on_c, 1, 60, 0
3, 60720, Note_on_c, 1, 60, 64
3, 60839, Note_on_c, 1, 60, 0
3, 60840, Note_on_c, 1, 59, 64
3, 60899, Note_on_c, 1, 59, 0
3, 60900, Note_on_c, 1, 60, 64
3, 60959, Note_on_c, 1, 60, 0
3, 60960, Note_on_c, 1, 62, 64
3, 61199, Note_on_c, 1, 62, 0
3, 61320, Note_on_c, 1, 60, 64
3, 61439, Note_on_c, 1, 60, 0
3, 61440, Note_on_c, 1, 59, 64
3, 61499, Note_on_c, 1, 59, 0
3, 61560, Note_on_c, 1, 59, 64
3, 61619, Note_on_c, 1, 59, 0
3, 61680, Note_on_c, 1, 59, 64
3, 61739, Note_on_c, 1, 59, 0
3, 61800, Note_on_c, 1, 59, 64
3, 61919, Note_on_c, 1, 59, 0
3, 61920, Note_on_c, 1, 60, 64
3, 61979, Note_on_c, 1, 60, 0
3, 61980, Note_on_c, 1, 62, 64
3, 62039, Note_on_c, 1, 62, 0
3, 62040, Note_on_c, 1, 60, 64
3, 62099, Note_on_c, 1, 60, 0
3, 62100, Note_on_c, 1, 62, 64
3, 62159, Note_on_c, 1, 62, 0
3, 62160, Note_on_c, 1, 64, 64
3, 62519, Note_on_c, 1, 64, 0
3, 62520, Note_on_c, 1, 57, 64
3, 62639, Note_on_c, 1, 57, 0
3, 62640, Note_on_c, 1, 62, 64
3, 62759, Note_on_c, 1, 62, 0
3, 62760, Note_on_c, 1, 60, 64
3, 62819, Note_on_c, 1, 60, 0
3, 62820, Note_on_c, 1, 62, 64
3, 62879, Note_on_c, 1, 62, 0
3, 62880, Note_on_c, 1, 59, 64
3, 62939, Note_on_c, 1, 59, 0
3, 62940, Note_on_c, 1, 60, 64
3, 62999, Note_on_c, 1, 60, 0
3, 63000, Note_on_c, 1, 59, 64
3, 63059, Note_on_c, 1, 59, 0
3, 63060, Note_on_c, 1, 60, 64
3, 63119, Note_on_c, 1, 60, 0
3, 63120, Note_on_c, 1, 62, 64
3, 63479, Note_on_c, 1, 62, 0
3, 63480, Note_on_c, 1, 55, 64
3, 63599, Note_on_c, 1, 55, 0
3, 63600, Note_on_c, 1, 60, 64
3, 63719, Note_on_c, 1, 60, 0
3, 63720, Note_on_c, 1, 59, 64
3, 63779, Note_on_c, 1, 59, 0
3, 63780, Note_on_c, 1, 60, 64
3, 63839, Note_on_c, 1, 60, 0
3, 63840, Note_on_c, 1, 57, 64
3, 63899, Note_on_c, 1, 57, 0
3, 63900, Note_on_c, 1, 59, 64
3, 63959, Note_on_c, 1, 59, 0
3, 63960, Note_on_c, 1, 57, 64
3, 64019, Note_on_c, 1, 57, 0
3, 64020, Note_on_c, 1, 59, 64
3, 64079, Note_on_c, 1, 59, 0
3, 64080, Note_on_c, 1, 60, 64
3, 64319, Note_on_c, 1, 60, 0
3, 64320, Note_on_c, 1, 59, 64
3, 64379, Note_on_c, 1, 59, 0
3, 64380, Note_on_c, 1, 60, 64
3, 64439, Note_on_c, 1, 60, 0
3, 64440, Note_on_c, 1, 59, 64
3, 64499, Note_on_c, 1, 59, 0
3, 64500, Note_on_c, 1, 60, 64
3, 64559, Note_on_c, 1, 60, 0
3, 64560, Note_on_c, 1, 62, 64
3, 64799, Note_on_c, 1, 62, 0
3, 64800, Note_on_c, 1, 60, 64
3, 64859, Note_on_c, 1, 60, 0
3, 64860, Note_on_c, 1, 62, 64
3, 64919, Note_on_c, 1, 62, 0
3, 64920, Note_on_c, 1, 60, 64
3, 65039, Note_on_c, 1, 60, 0
3, 65040, Note_on_c, 1, 59, 64
3, 65159, Note_on_c, 1, 59, 0
3, 65160, Note_on_c, 1, 60, 64
3, 65219, Note_on_c, 1, 60, 0
3, 65220, Note_on_c, 1, 59, 64
3, 65279, Note_on_c, 1, 59, 0
3, 65280, Note_on_c, 1, 62, 64
3, 65280, Note_on_c, 1, 57, 64
3, 65579, Note_on_c, 1, 62, 0
3, 65639, Note_on_c, 1, 57, 0
3, 65640, Note_on_c, 1, 60, 64
3, 65759, Note_on_c, 1, 60, 0
3, 65760, Note_on_c, 1, 62, 64
3, 65760, Note_on_c, 1, 59, 64
3, 65999, Note_on_c, 1, 59, 0
3, 65999, Note_on_c, 1, 62, 0
3, 66360, Note_on_c, 1, 67, 64
3, 66419, Note_on_c, 1, 67, 0
3, 66480, Note_on_c, 1, 67, 64
3, 66539, Note_on_c, 1, 67, 0
3, 66600, Note_on_c, 1, 67, 64
3, 66719, Note_on_c, 1, 67, 0
3, 66720, Note_on_c, 1, 69, 64
3, 67019, Note_on_c, 1, 69, 0
3, 67080, Note_on_c, 1, 67, 64
3, 67199, Note_on_c, 1, 67, 0
3, 67200, Note_on_c, 1, 65, 64
3, 67259, Note_on_c, 1, 65, 0
3, 67320, Note_on_c, 1, 65, 64
3, 67379, Note_on_c, 1, 65, 0
3, 67440, Note_on_c, 1, 65, 64
3, 67559, Note_on_c, 1, 65, 0
3, 67560, Note_on_c, 1, 64, 64
3, 67619, Note_on_c, 1, 64, 0
3, 67620, Note_on_c, 1, 65, 64
3, 67679, Note_on_c, 1, 65, 0
3, 67680, Note_on_c, 1, 67, 64
3, 67919, Note_on_c, 1, 67, 0
3, 68040, Note_on_c, 1, 65, 64
3, 68159, Note_on_c, 1, 65, 0
3, 68160, Note_on_c, 1, 64, 64
3, 68219, Note_on_c, 1, 64, 0
3, 68280, Note_on_c, 1, 64, 64
3, 68339, Note_on_c, 1, 64, 0
3, 68400, Note_on_c, 1, 64, 64
3, 68519, Note_on_c, 1, 64, 0
3, 68520, Note_on_c, 1, 62, 64
3, 68579, Note_on_c, 1, 62, 0
3, 68580, Note_on_c, 1, 64, 64
3, 68639, Note_on_c, 1, 64, 0
3, 68640, Note_on_c, 1, 62, 64
3, 68879, Note_on_c, 1, 62, 0
3, 68880, Note_on_c, 1, 67, 64
3, 68999, Note_on_c, 1, 67, 0
3, 69000, Note_on_c, 1, 65, 64
3, 69119, Note_on_c, 1, 65, 0
3, 69120, Note_on_c, 1, 64, 64
3, 69239, Note_on_c, 1, 64, 0
3, 69240, Note_on_c, 1, 60, 64
3, 69299, Note_on_c, 1, 60, 0
3, 69360, Note_on_c, 1, 60, 64
3, 69419, Note_on_c, 1, 60, 0
3, 69480, Note_on_c, 1, 60, 64
3, 69599, Note_on_c, 1, 60, 0
3, 69600, Note_on_c, 1, 55, 64
3, 69659, Note_on_c, 1, 55, 0
3, 69660, Note_on_c, 1, 57, 64
3, 69719, Note_on_c, 1, 57, 0
3, 69720, Note_on_c, 1, 55, 64
3, 69779, Note_on_c, 1, 55, 0
3, 69780, Note_on_c, 1, 57, 64
3, 69839, Note_on_c, 1, 57, 0
3, 69840, Note_on_c, 1, 59, 64
3, 70199, Note_on_c, 1, 59, 0
3, 70200, Note_on_c, 1, 52, 64
3, 70319, Note_on_c, 1, 52, 0
3, 70320, Note_on_c, 1, 57, 64
3, 70559, Note_on_c, 1, 57, 0
3, 70560, Note_on_c, 1, 54, 64
3, 70619, Note_on_c, 1, 54, 0
3, 70620, Note_on_c, 1, 55, 64
3, 70679, Note_on_c, 1, 55, 0
3, 70680, Note_on_c, 1, 54, 64
3, 70739, Note_on_c, 1, 54, 0
3, 70740, Note_on_c, 1, 55, 64
3, 70799, Note_on_c, 1, 55, 0
3, 70800, Note_on_c, 1, 57, 64
3, 71159, Note_on_c, 1, 57, 0
3, 71160, Note_on_c, 1, 50, 64
3, 71279, Note_on_c, 1, 50, 0
3, 71280, Note_on_c, 1, 55, 64
3, 71519, Note_on_c, 1, 55, 0
3, 71520, Note_on_c, 1, 52, 64
3, 71579, Note_on_c, 1, 52, 0
3, 71580, Note_on_c, 1, 54, 64
3, 71639, Note_on_c, 1, 54, 0
3, 71640, Note_on_c, 1, 52, 64
3, 71699, Note_on_c, 1, 52, 0
3, 71700, Note_on_c, 1, 54, 64
3, 71759, Note_on_c, 1, 54, 0
3, 71760, Note_on_c, 1, 55, 64
3, 71999, Note_on_c, 1, 55, 0
3, 72000, Note_on_c, 1, 54, 64
3, 72059, Note_on_c, 1, 54, 0
3, 72060, Note_on_c, 1, 55, 64
3, 72119, Note_on_c, 1, 55, 0
3, 72120, Note_on_c, 1, 54, 64
3, 72179, Note_on_c, 1, 54, 0
3, 72180, Note_on_c, 1, 55, 64
3, 72239, Note_on_c, 1, 55, 0
3, 72240, Note_on_c, 1, 57, 64
3, 72479, Note_on_c, 1, 57, 0
3, 72480, Note_on_c, 1, 56, 64
3, 72539, Note_on_c, 1, 56, 0
3, 72540, Note_on_c, 1, 57, 64
3, 72599, Note_on_c, 1, 57, 0
3, 72600, Note_on_c, 1, 56, 64
3, 72659, Note_on_c, 1, 56, 0
3, 72660, Note_on_c, 1, 57, 64
3, 72719, Note_on_c, 1, 57, 0
3, 72720, Note_on_c, 1, 59, 64
3, 72839, Note_on_c, 1, 59, 0
3, 72840, Note_on_c, 1, 56, 64
3, 72959, Note_on_c, 1, 56, 0
3, 72960, Note_on_c, 1, 64, 64
3, 72960, Note_on_c, 1, 57, 64
3, 73199, Note_on_c, 1, 57, 0
3, 73200, Note_on_c, 1, 56, 64
3, 73439, Note_on_c, 1, 56, 0
3, 73439, Note_on_c, 1, 64, 0
3, 73440, Note_on_c, 1, 60, 64
3, 73440, Note_on_c, 1, 57, 64
3, 73559, Note_on_c, 1, 57, 0
3, 73559, Note_on_c, 1, 60, 0
3, 73560, Note_on_c, 1, 64, 64
3, 73619, Note_on_c, 1, 64, 0
3, 73680, Note_on_c, 1, 64, 64
3, 73739, Note_on_c, 1, 64, 0
3, 73800, Note_on_c, 1, 64, 64
3, 73919, Note_on_c, 1, 64, 0
3, 73920, Note_on_c, 1, 65, 64
3, 74219, Note_on_c, 1, 65, 0
3, 74280, Note_on_c, 1, 64, 64
3, 74399, Note_on_c, 1, 64, 0
3, 74400, Note_on_c, 1, 62, 64
3, 74459, Note_on_c, 1, 62, 0
3, 74520, Note_on_c, 1, 62, 64
3, 74579, Note_on_c, 1, 62, 0
3, 74640, Note_on_c, 1, 62, 64
3, 74759, Note_on_c, 1, 62, 0
3, 74760, Note_on_c, 1, 60, 64
3, 74819, Note_on_c, 1, 60, 0
3, 74820, Note_on_c, 1, 62, 64
3, 74879, Note_on_c, 1, 62, 0
3, 74880, Note_on_c, 1, 64, 64
3, 74999, Note_on_c, 1, 64, 0
3, 75000, Note_on_c, 1, 64, 64
3, 75000, Note_on_c, 1, 60, 64
3, 75059, Note_on_c, 1, 60, 0
3, 75059, Note_on_c, 1, 64, 0
3, 75060, Note_on_c, 1, 65, 64
3, 75060, Note_on_c, 1, 62, 64
3, 75119, Note_on_c, 1, 62, 0
3, 75119, Note_on_c, 1, 65, 0
3, 75120, Note_on_c, 1, 64, 64
3, 75179, Note_on_c, 1, 64, 0
3, 75180, Note_on_c, 1, 65, 64
3, 75239, Note_on_c, 1, 65, 0
3, 75240, Note_on_c, 1, 64, 64
3, 75299, Note_on_c, 1, 64, 0
3, 75300, Note_on_c, 1, 65, 64
3, 75300, Note_on_c, 1, 62, 64
3, 75359, Note_on_c, 1, 62, 0
3, 75359, Note_on_c, 1, 65, 0
3, 75360, Note_on_c, 1, 60, 64
3, 75360, Note_on_c, 1, 64, 64
3, 75419, Note_on_c, 1, 64, 0
3, 75419, Note_on_c, 1, 60, 0
3, 75480, Note_on_c, 1, 59, 64
3, 75480, Note_on_c, 1, 64, 64
3, 75539, Note_on_c, 1, 64, 0
3, 75539, Note_on_c, 1, 59, 0
3, 75600, Note_on_c, 1, 59, 64
3, 75600, Note_on_c, 1, 64, 64
3, 75659, Note_on_c, 1, 64, 0
3, 75659, Note_on_c, 1, 59, 0
3, 75720, Note_on_c, 1, 64, 64
3, 75720, Note_on_c, 1, 59, 64
3, 75839, Note_on_c, 1, 59, 0
3, 75840, Note_on_c, 1, 60, 64
3, 76079, Note_on_c, 1, 60, 0
3, 76079, Note_on_c, 1, 64, 0
3, 76200, Note_on_c, 1, 64, 64
3, 76319, Note_on_c, 1, 64, 0
3, 76320, Note_on_c, 1, 62, 64
3, 76559, Note_on_c, 1, 62, 0
3, 76680, Note_on_c, 1, 64, 64
3, 76799, Note_on_c, 1, 64, 0
3, 76800, Note_on_c, 1, 62, 64
3, 77039, Note_on_c, 1, 62, 0
3, 77160, Note_on_c, 1, 62, 64
3, 77279, Note_on_c, 1, 62, 0
3, 77280, Note_on_c, 1, 60, 64
3, 77519, Note_on_c, 1, 60, 0
3, 77640, Note_on_c, 1, 62, 64
3, 77759, Note_on_c, 1, 62, 0
3, 77760, Note_on_c, 1, 60, 64
3, 77879, Note_on_c, 1, 60, 0
3, 77880, Note_on_c, 1, 62, 64
3, 77999, Note_on_c, 1, 62, 0
3, 78000, Note_on_c, 1, 64, 64
3, 78239, Note_on_c, 1, 64, 0
3, 78240, Note_on_c, 1, 62, 64
3, 78599, Note_on_c, 1, 62, 0
3, 78600, Note_on_c, 1, 65, 64
3, 78719, Note_on_c, 1, 65, 0
3, 78720, Note_on_c, 1, 64, 64
3, 80759, Note_on_c, 1, 64, 0
3, 81120, End_track
4, 0, Start_track
4, 0, Title_t, ""
4, 0, Instrument_name_t, "Pipe Organ"
4, 0, Program_c, 3, 16
4, 0, Note_on_c, 3, 36, 64
4, 1199, Note_on_c, 3, 36, 0
4, 1320, Note_on_c, 3, 40, 64
4, 1439, Note_on_c, 3, 40, 0
4, 1440, Note_on_c, 3, 41, 64
4, 1679, Note_on_c, 3, 41, 0
4, 1920, Note_on_c, 3, 42, 64
4, 2159, Note_on_c, 3, 42, 0
4, 2280, Note_on_c, 3, 42, 64
4, 2399, Note_on_c, 3, 42, 0
4, 2400, Note_on_c, 3, 43, 64
4, 2639, Note_on_c, 3, 43, 0
4, 2880, Note_on_c, 3, 44, 64
4, 3119, Note_on_c, 3, 44, 0
4, 3240, Note_on_c, 3, 44, 64
4, 3359, Note_on_c, 3, 44, 0
4, 3360, Note_on_c, 3, 45, 64
4, 3599, Note_on_c, 3, 45, 0
4, 3840, Note_on_c, 3, 38, 64
4, 3899, Note_on_c, 3, 38, 0
4, 3960, Note_on_c, 3, 38, 64
4, 4019, Note_on_c, 3, 38, 0
4, 4080, Note_on_c, 3, 38, 64
4, 4139, Note_on_c, 3, 38, 0
4, 4200, Note_on_c, 3, 38, 64
4, 4259, Note_on_c, 3, 38, 0
4, 4320, Note_on_c, 3, 43, 64
4, 4379, Note_on_c, 3, 43, 0
4, 4440, Note_on_c, 3, 43, 64
4, 4499, Note_on_c, 3, 43, 0
4, 4560, Note_on_c, 3, 43, 64
4, 4619, Note_on_c, 3, 43, 0
4, 4680, Note_on_c, 3, 43, 64
4, 4739, Note_on_c, 3, 43, 0
4, 4800, Note_on_c, 3, 36, 64
4, 4859, Note_on_c, 3, 36, 0
4, 4920, Note_on_c, 3, 36, 64
4, 4979, Note_on_c, 3, 36, 0
4, 5040, Note_on_c, 3, 36, 64
4, 5099, Note_on_c, 3, 36, 0
4, 5160, Note_on_c, 3, 36, 64
4, 5219, Note_on_c, 3, 36, 0
4, 5280, Note_on_c, 3, 41, 64
4, 5339, Note_on_c, 3, 41, 0
4, 5400, Note_on_c, 3, 42, 64
4, 5459, Note_on_c, 3, 42, 0
4, 5520, Note_on_c, 3, 42, 64
4, 5579, Note_on_c, 3, 42, 0
4, 5640, Note_on_c, 3, 42, 64
4, 5699, Note_on_c, 3, 42, 0
4, 5760, Note_on_c, 3, 35, 64
4, 5819, Note_on_c, 3, 35, 0
4, 5880, Note_on_c, 3, 35, 64
4, 5939, Note_on_c, 3, 35, 0
4, 6000, Note_on_c, 3, 35, 64
4, 6059, Note_on_c, 3, 35, 0
4, 6120, Note_on_c, 3, 35, 64
4, 6179, Note_on_c, 3, 35, 0
4, 6240, Note_on_c, 3, 40, 64
4, 6299, Note_on_c, 3, 40, 0
4, 6360, Note_on_c, 3, 40, 64
4, 6419, Note_on_c, 3, 40, 0
4, 6480, Note_on_c, 3, 40, 64
4, 6539, Note_on_c, 3, 40, 0
4, 6600, Note_on_c, 3, 40, 64
4, 6659, Note_on_c, 3, 40, 0
4, 6720, Note_on_c, 3, 33, 64
4, 6779, Note_on_c, 3, 33, 0
4, 6840, Note_on_c, 3, 33, 64
4, 6899, Note_on_c, 3, 33, 0
4, 6960, Note_on_c, 3, 33, 64
4, 7019, Note_on_c, 3, 33, 0
4, 7080, Note_on_c, 3, 33, 64
4, 7139, Note_on_c, 3, 33, 0
4, 7200, Note_on_c, 3, 38, 64
4, 7259, Note_on_c, 3, 38, 0
4, 7320, Note_on_c, 3, 38, 64
4, 7379, Note_on_c, 3, 38, 0
4, 7440, Note_on_c, 3, 38, 64
4, 7499, Note_on_c, 3, 38, 0
4, 7560, Note_on_c, 3, 38, 64
4, 7619, Note_on_c, 3, 38, 0
4, 7680, Note_on_c, 3, 38, 64
4, 8879, Note_on_c, 3, 38, 0
4, 9960, Note_on_c, 3, 43, 64
4, 10079, Note_on_c, 3, 43, 0
4, 10080, Note_on_c, 3, 42, 64
4, 10199, Note_on_c, 3, 42, 0
4, 10200, Note_on_c, 3, 43, 64
4, 10319, Note_on_c, 3, 43, 0
4, 10320, Note_on_c, 3, 38, 64
4, 10559, Note_on_c, 3, 38, 0
4, 10560, Note_on_c, 3, 31, 64
4, 10799, Note_on_c, 3, 31, 0
4, 11100, Note_on_c, 3, 43, 64
4, 11159, Note_on_c, 3, 43, 0
4, 11160, Note_on_c, 3, 41, 64
4, 11219, Note_on_c, 3, 41, 0
4, 11220, Note_on_c, 3, 43, 64
4, 11279, Note_on_c, 3, 43, 0
4, 11280, Note_on_c, 3, 40, 64
4, 11339, Note_on_c, 3, 40, 0
4, 11340, Note_on_c, 3, 43, 64
4, 11399, Note_on_c, 3, 43, 0
4, 11400, Note_on_c, 3, 38, 64
4, 11459, Note_on_c, 3, 38, 0
4, 11460, Note_on_c, 3, 43, 64
4, 11519, Note_on_c, 3, 43, 0
4, 11520, Note_on_c, 3, 36, 64
4, 12719, Note_on_c, 3, 36, 0
4, 12840, Note_on_c, 3, 40, 64
4, 12959, Note_on_c, 3, 40, 0
4, 12960, Note_on_c, 3, 41, 64
4, 13199, Note_on_c, 3, 41, 0
4, 13440, Note_on_c, 3, 42, 64
4, 13679, Note_on_c, 3, 42, 0
4, 13800, Note_on_c, 3, 41, 64
4, 13919, Note_on_c, 3, 41, 0
4, 13920, Note_on_c, 3, 43, 64
4, 14159, Note_on_c, 3, 43, 0
4, 14400, Note_on_c, 3, 44, 64
4, 14639, Note_on_c, 3, 44, 0
4, 14760, Note_on_c, 3, 44, 64
4, 14879, Note_on_c, 3, 44, 0
4, 14880, Note_on_c, 3, 45, 64
4, 15119, Note_on_c, 3, 45, 0
4, 15360, Note_on_c, 3, 38, 64
4, 15419, Note_on_c, 3, 38, 0
4, 15480, Note_on_c, 3, 38, 64
4, 15539, Note_on_c, 3, 38, 0
4, 15600, Note_on_c, 3, 38, 64
4, 15659, Note_on_c, 3, 38, 0
4, 15720, Note_on_c, 3, 38, 64
4, 15779, Note_on_c, 3, 38, 0
4, 15840, Note_on_c, 3, 43, 64
4, 15899, Note_on_c, 3, 43, 0
4, 15960, Note_on_c, 3, 43, 64
4, 16019, Note_on_c, 3, 43, 0
4, 16080, Note_on_c, 3, 43, 64
4, 16139, Note_on_c, 3, 43, 0
4, 16200, Note_on_c, 3, 43, 64
4, 16259, Note_on_c, 3, 43, 0
4, 16320, Note_on_c, 3, 36, 64
4, 16379, Note_on_c, 3, 36, 0
4, 16440, Note_on_c, 3, 36, 64
4, 16499, Note_on_c, 3, 36, 0
4, 16560, Note_on_c, 3, 36, 64
4, 16619, Note_on_c, 3, 36, 0
4, 16680, Note_on_c, 3, 36, 64
4, 16739, Note_on_c, 3, 36, 0
4, 16800, Note_on_c, 3, 42, 64
4, 16859, Note_on_c, 3, 42, 0
4, 16920, Note_on_c, 3, 42, 64
4, 16979, Note_on_c, 3, 42, 0
4, 17040, Note_on_c, 3, 42, 64
4, 17099, Note_on_c, 3, 42, 0
4, 17160, Note_on_c, 3, 42, 64
4, 17219, Note_on_c, 3, 42, 0
4, 17280, Note_on_c, 3, 35, 64
4, 17339, Note_on_c, 3, 35, 0
4, 17400, Note_on_c, 3, 35, 64
4, 17459, Note_on_c, 3, 35, 0
4, 17520, Note_on_c, 3, 35, 64
4, 17579, Note_on_c, 3, 35, 0
4, 17640, Note_on_c, 3, 35, 64
4, 17699, Note_on_c, 3, 35, 0
4, 17760, Note_on_c, 3, 40, 64
4, 17819, Note_on_c, 3, 40, 0
4, 17880, Note_on_c, 3, 40, 64
4, 17939, Note_on_c, 3, 40, 0
4, 18000, Note_on_c, 3, 40, 64
4, 18059, Note_on_c, 3, 40, 0
4, 18120, Note_on_c, 3, 40, 64
4, 18179, Note_on_c, 3, 40, 0
4, 18240, Note_on_c, 3, 33, 64
4, 18299, Note_on_c, 3, 33, 0
4, 18360, Note_on_c, 3, 33, 64
4, 18419, Note_on_c, 3, 33, 0
4, 18480, Note_on_c, 3, 33, 64
4, 18539, Note_on_c, 3, 33, 0
4, 18600, Note_on_c, 3, 33, 64
4, 18659, Note_on_c, 3, 33, 0
4, 18720, Note_on_c, 3, 38, 64
4, 18779, Note_on_c, 3, 38, 0
4, 18840, Note_on_c, 3, 38, 64
4, 18899, Note_on_c, 3, 38, 0
4, 18960, Note_on_c, 3, 38, 64
4, 19019, Note_on_c, 3, 38, 0
4, 19080, Note_on_c, 3, 38, 64
4, 19139, Note_on_c, 3, 38, 0
4, 19200, Note_on_c, 3, 38, 64
4, 20399, Note_on_c, 3, 38, 0
4, 21480, Note_on_c, 3, 43, 64
4, 21599, Note_on_c, 3, 43, 0
4, 21600, Note_on_c, 3, 42, 64
4, 21719, Note_on_c, 3, 42, 0
4, 21720, Note_on_c, 3, 43, 64
4, 21839, Note_on_c, 3, 43, 0
4, 21840, Note_on_c, 3, 38, 64
4, 22079, Note_on_c, 3, 38, 0
4, 22080, Note_on_c, 3, 31, 64
4, 22319, Note_on_c, 3, 31, 0
4, 22620, Note_on_c, 3, 43, 64
4, 22679, Note_on_c, 3, 43, 0
4, 22680, Note_on_c, 3, 41, 64
4, 22739, Note_on_c, 3, 41, 0
4, 22740, Note_on_c, 3, 43, 64
4, 22799, Note_on_c, 3, 43, 0
4, 22800, Note_on_c, 3, 40, 64
4, 22859, Note_on_c, 3, 40, 0
4, 22860, Note_on_c, 3, 43, 64
4, 22919, Note_on_c, 3, 43, 0
4, 22920, Note_on_c, 3, 38, 64
4, 22979, Note_on_c, 3, 38, 0
4, 22980, Note_on_c, 3, 43, 64
4, 23039, Note_on_c, 3, 43, 0
4, 23040, Note_on_c, 3, 36, 64
4, 23279, Note_on_c, 3, 36, 0
4, 23520, Note_on_c, 3, 41, 64
4, 23759, Note_on_c, 3, 41, 0
4, 24000, Note_on_c, 3, 35, 64
4, 24239, Note_on_c, 3, 35, 0
4, 24480, Note_on_c, 3, 40, 64
4, 24719, Note_on_c, 3, 40, 0
4, 24960, Note_on_c, 3, 33, 64
4, 25199, Note_on_c, 3, 33, 0
4, 28680, Note_on_c, 3, 45, 64
4, 28799, Note_on_c, 3, 45, 0
4, 28800, Note_on_c, 3, 38, 64
4, 29039, Note_on_c, 3, 38, 0
4, 29040, Note_on_c, 3, 40, 64
4, 29279, Note_on_c, 3, 40, 0
4, 29280, Note_on_c, 3, 33, 64
4, 29519, Note_on_c, 3, 33, 0
4, 29760, Note_on_c, 3, 32, 64
4, 29819, Note_on_c, 3, 32, 0
4, 29880, Note_on_c, 3, 32, 64
4, 29939, Note_on_c, 3, 32, 0
4, 30000, Note_on_c, 3, 32, 64
4, 30059, Note_on_c, 3, 32, 0
4, 30120, Note_on_c, 3, 32, 64
4, 30179, Note_on_c, 3, 32, 0
4, 30240, Note_on_c, 3, 33, 64
4, 30479, Note_on_c, 3, 33, 0
4, 30720, Note_on_c, 3, 35, 64
4, 30779, Note_on_c, 3, 35, 0
4, 30840, Note_on_c, 3, 35, 64
4, 30899, Note_on_c, 3, 35, 0
4, 30960, Note_on_c, 3, 35, 64
4, 31019, Note_on_c, 3, 35, 0
4, 31080, Note_on_c, 3, 35, 64
4, 31139, Note_on_c, 3, 35, 0
4, 31200, Note_on_c, 3, 36, 64
4, 31439, Note_on_c, 3, 36, 0
4, 32160, Note_on_c, 3, 40, 64
4, 32399, Note_on_c, 3, 40, 0
4, 32520, Note_on_c, 3, 40, 64
4, 32579, Note_on_c, 3, 40, 0
4, 32640, Note_on_c, 3, 41, 64
4, 32699, Note_on_c, 3, 41, 0
4, 32760, Note_on_c, 3, 41, 64
4, 32819, Note_on_c, 3, 41, 0
4, 32880, Note_on_c, 3, 41, 64
4, 32939, Note_on_c, 3, 41, 0
4, 33000, Note_on_c, 3, 41, 64
4, 33059, Note_on_c, 3, 41, 0
4, 33120, Note_on_c, 3, 42, 64
4, 33359, Note_on_c, 3, 42, 0
4, 33480, Note_on_c, 3, 42, 64
4, 33539, Note_on_c, 3, 42, 0
4, 33600, Note_on_c, 3, 43, 64
4, 33659, Note_on_c, 3, 43, 0
4, 33720, Note_on_c, 3, 43, 64
4, 33779, Note_on_c, 3, 43, 0
4, 33840, Note_on_c, 3, 43, 64
4, 33899, Note_on_c, 3, 43, 0
4, 33960, Note_on_c, 3, 43, 64
4, 34019, Note_on_c, 3, 43, 0
4, 34080, Note_on_c, 3, 44, 64
4, 34319, Note_on_c, 3, 44, 0
4, 34440, Note_on_c, 3, 44, 64
4, 34499, Note_on_c, 3, 44, 0
4, 34560, Note_on_c, 3, 45, 64
4, 34619, Note_on_c, 3, 45, 0
4, 34680, Note_on_c, 3, 45, 64
4, 34739, Note_on_c, 3, 45, 0
4, 34800, Note_on_c, 3, 45, 64
4, 34859, Note_on_c, 3, 45, 0
4, 34920, Note_on_c, 3, 45, 64
4, 34979, Note_on_c, 3, 45, 0
4, 35040, Note_on_c, 3, 47, 64
4, 35279, Note_on_c, 3, 47, 0
4, 35400, Note_on_c, 3, 47, 64
4, 35459, Note_on_c, 3, 47, 0
4, 35520, Note_on_c, 3, 48, 64
4, 35759, Note_on_c, 3, 48, 0
4, 35760, Note_on_c, 3, 45, 64
4, 35999, Note_on_c, 3, 45, 0
4, 36000, Note_on_c, 3, 47, 64
4, 36239, Note_on_c, 3, 47, 0
4, 36240, Note_on_c, 3, 43, 64
4, 36479, Note_on_c, 3, 43, 0
4, 36480, Note_on_c, 3, 45, 64
4, 36719, Note_on_c, 3, 45, 0
4, 36720, Note_on_c, 3, 41, 64
4, 36959, Note_on_c, 3, 41, 0
4, 36960, Note_on_c, 3, 43, 64
4, 37919, Note_on_c, 3, 43, 0
4, 37980, Note_on_c, 3, 48, 64
4, 38039, Note_on_c, 3, 48, 0
4, 38040, Note_on_c, 3, 47, 64
4, 38099, Note_on_c, 3, 47, 0
4, 38100, Note_on_c, 3, 48, 64
4, 38159, Note_on_c, 3, 48, 0
4, 38160, Note_on_c, 3, 43, 64
4, 38219, Note_on_c, 3, 43, 0
4, 38220, Note_on_c, 3, 48, 64
4, 38279, Note_on_c, 3, 48, 0
4, 38280, Note_on_c, 3, 40, 64
4, 38339, Note_on_c, 3, 40, 0
4, 38340, Note_on_c, 3, 43, 64
4, 38399, Note_on_c, 3, 43, 0
4, 38400, Note_on_c, 3, 36, 64
4, 38639, Note_on_c, 3, 36, 0
4, 38880, Note_on_c, 3, 41, 64
4, 39119, Note_on_c, 3, 41, 0
4, 39360, Note_on_c, 3, 35, 64
4, 39599, Note_on_c, 3, 35, 0
4, 39840, Note_on_c, 3, 40, 64
4, 40079, Note_on_c, 3, 40, 0
4, 40320, Note_on_c, 3, 33, 64
4, 40559, Note_on_c, 3, 33, 0
4, 44040, Note_on_c, 3, 45, 64
4, 44159, Note_on_c, 3, 45, 0
4, 44160, Note_on_c, 3, 38, 64
4, 44399, Note_on_c, 3, 38, 0
4, 44400, Note_on_c, 3, 40, 64
4, 44639, Note_on_c, 3, 40, 0
4, 44640, Note_on_c, 3, 33, 64
4, 44879, Note_on_c, 3, 33, 0
4, 45120, Note_on_c, 3, 32, 64
4, 45179, Note_on_c, 3, 32, 0
4, 45240, Note_on_c, 3, 32, 64
4, 45299, Note_on_c, 3, 32, 0
4, 45360, Note_on_c, 3, 32, 64
4, 45419, Note_on_c, 3, 32, 0
4, 45480, Note_on_c, 3, 32, 64
4, 45539, Note_on_c, 3, 32, 0
4, 45600, Note_on_c, 3, 33, 64
4, 45839, Note_on_c, 3, 33, 0
4, 46080, Note_on_c, 3, 35, 64
4, 46139, Note_on_c, 3, 35, 0
4, 46200, Note_on_c, 3, 35, 64
4, 46259, Note_on_c, 3, 35, 0
4, 46320, Note_on_c, 3, 35, 64
4, 46379, Note_on_c, 3, 35, 0
4, 46440, Note_on_c, 3, 35, 64
4, 46499, Note_on_c, 3, 35, 0
4, 46560, Note_on_c, 3, 36, 64
4, 46799, Note_on_c, 3, 36, 0
4, 47520, Note_on_c, 3, 40, 64
4, 47759, Note_on_c, 3, 40, 0
4, 47880, Note_on_c, 3, 40, 64
4, 47999, Note_on_c, 3, 40, 0
4, 48000, Note_on_c, 3, 41, 64
4, 48059, Note_on_c, 3, 41, 0
4, 48120, Note_on_c, 3, 41, 64
4, 48179, Note_on_c, 3, 41, 0
4, 48240, Note_on_c, 3, 41, 64
4, 48299, Note_on_c, 3, 41, 0
4, 48360, Note_on_c, 3, 41, 64
4, 48419, Note_on_c, 3, 41, 0
4, 48480, Note_on_c, 3, 42, 64
4, 48719, Note_on_c, 3, 42, 0
4, 48840, Note_on_c, 3, 42, 64
4, 48899, Note_on_c, 3, 42, 0
4, 48960, Note_on_c, 3, 43, 64
4, 49019, Note_on_c, 3, 43, 0
4, 49080, Note_on_c, 3, 43, 64
4, 49139, Note_on_c, 3, 43, 0
4, 49200, Note_on_c, 3, 43, 64
4, 49259, Note_on_c, 3, 43, 0
4, 49320, Note_on_c, 3, 43, 64
4, 49379, Note_on_c, 3, 43, 0
4, 49440, Note_on_c, 3, 44, 64
4, 49679, Note_on_c, 3, 44, 0
4, 49800, Note_on_c, 3, 44, 64
4, 49919, Note_on_c, 3, 44, 0
4, 49920, Note_on_c, 3, 45, 64
4, 49979, Note_on_c, 3, 45, 0
4, 50040, Note_on_c, 3, 45, 64
4, 50099, Note_on_c, 3, 45, 0
4, 50160, Note_on_c, 3, 45, 64
4, 50219, Note_on_c, 3, 45, 0
4, 50280, Note_on_c, 3, 45, 64
4, 50339, Note_on_c, 3, 45, 0
4, 50400, Note_on_c, 3, 47, 64
4, 50639, Note_on_c, 3, 47, 0
4, 50760, Note_on_c, 3, 47, 64
4, 50879, Note_on_c, 3, 47, 0
4, 50880, Note_on_c, 3, 48, 64
4, 51119, Note_on_c, 3, 48, 0
4, 51120, Note_on_c, 3, 45, 64
4, 51359, Note_on_c, 3, 45, 0
4, 51360, Note_on_c, 3, 47, 64
4, 51599, Note_on_c, 3, 47, 0
4, 51600, Note_on_c, 3, 43, 64
4, 51839, Note_on_c, 3, 43, 0
4, 51840, Note_on_c, 3, 45, 64
4, 52079, Note_on_c, 3, 45, 0
4, 52080, Note_on_c, 3, 41, 64
4, 52319, Note_on_c, 3, 41, 0
4, 52320, Note_on_c, 3, 43, 64
4, 53279, Note_on_c, 3, 43, 0
4, 53280, Note_on_c, 3, 36, 64
4, 54239, Note_on_c, 3, 36, 0
4, 61563, Note_on_c, 3, 43, 64
4, 61625, Note_on_c, 3, 43, 0
4, 61687, Note_on_c, 3, 43, 64
4, 61733, Note_on_c, 3, 43, 0
4, 61805, Note_on_c, 3, 43, 64
4, 61877, Note_on_c, 3, 43, 0
4, 61929, Note_on_c, 3, 45, 64
4, 62285, Note_on_c, 3, 43, 64
4, 62285, Note_on_c, 3, 45, 0
4, 62403, Note_on_c, 3, 41, 64
4, 62403, Note_on_c, 3, 43, 0
4, 62487, Note_on_c, 3, 41, 0
4, 62521, Note_on_c, 3, 41, 64
4, 62588, Note_on_c, 3, 41, 0
4, 62653, Note_on_c, 3, 41, 64
4, 62765, Note_on_c, 3, 40, 64
4, 62765, Note_on_c, 3, 41, 0
4, 62824, Note_on_c, 3, 41, 64
4, 62824, Note_on_c, 3, 40, 0
4, 62874, Note_on_c, 3, 41, 0
4, 62880, Note_on_c, 3, 43, 64
4, 63166, Note_on_c, 3, 43, 0
4, 63260, Note_on_c, 3, 41, 64
4, 63377, Note_on_c, 3, 40, 64
4, 63377, Note_on_c, 3, 41, 0
4, 63445, Note_on_c, 3, 40, 0
4, 63493, Note_on_c, 3, 40, 64
4, 63552, Note_on_c, 3, 40, 0
4, 63610, Note_on_c, 3, 40, 64
4, 63724, Note_on_c, 3, 38, 64
4, 63724, Note_on_c, 3, 40, 0
4, 63785, Note_on_c, 3, 40, 64
4, 63785, Note_on_c, 3, 38, 0
4, 63840, Note_on_c, 3, 41, 64
4, 63840, Note_on_c, 3, 40, 0
4, 64083, Note_on_c, 3, 40, 64
4, 64083, Note_on_c, 3, 41, 0
4, 64206, Note_on_c, 3, 41, 64
4, 64206, Note_on_c, 3, 40, 0
4, 64332, Note_on_c, 3, 43, 64
4, 64332, Note_on_c, 3, 41, 0
4, 64558, Note_on_c, 3, 41, 64
4, 64558, Note_on_c, 3, 43, 0
4, 64677, Note_on_c, 3, 43, 64
4, 64677, Note_on_c, 3, 41, 0
4, 64807, Note_on_c, 3, 45, 64
4, 64807, Note_on_c, 3, 43, 0
4, 65049, Note_on_c, 3, 43, 64
4, 65049, Note_on_c, 3, 45, 0
4, 65285, Note_on_c, 3, 38, 64
4, 65285, Note_on_c, 3, 43, 0
4, 65755, Note_on_c, 3, 38, 0
4, 65759, Note_on_c, 3, 43, 64
4, 65964, Note_on_c, 3, 43, 0
4, 69245, Note_on_c, 3, 36, 64
4, 69293, Note_on_c, 3, 36, 0
4, 69358, Note_on_c, 3, 36, 64
4, 69420, Note_on_c, 3, 36, 0
4, 69487, Note_on_c, 3, 36, 64
4, 69536, Note_on_c, 3, 36, 0
4, 69603, Note_on_c, 3, 40, 64
4, 69975, Note_on_c, 3, 38, 64
4, 69975, Note_on_c, 3, 40, 0
4, 70089, Note_on_c, 3, 36, 64
4, 70089, Note_on_c, 3, 38, 0
4, 70159, Note_on_c, 3, 36, 0
4, 70202, Note_on_c, 3, 36, 64
4, 70282, Note_on_c, 3, 36, 0
4, 70328, Note_on_c, 3, 36, 64
4, 70447, Note_on_c, 3, 35, 64
4, 70447, Note_on_c, 3, 36, 0
4, 70505, Note_on_c, 3, 36, 64
4, 70505, Note_on_c, 3, 35, 0
4, 70564, Note_on_c, 3, 38, 64
4, 70564, Note_on_c, 3, 36, 0
4, 70933, Note_on_c, 3, 36, 64
4, 70933, Note_on_c, 3, 38, 0
4, 71037, Note_on_c, 3, 35, 64
4, 71037, Note_on_c, 3, 36, 0
4, 71122, Note_on_c, 3, 35, 0
4, 71156, Note_on_c, 3, 35, 64
4, 71239, Note_on_c, 3, 35, 0
4, 71283, Note_on_c, 3, 35, 64
4, 71395, Note_on_c, 3, 33, 64
4, 71395, Note_on_c, 3, 35, 0
4, 71455, Note_on_c, 3, 35, 64
4, 71455, Note_on_c, 3, 33, 0
4, 71506, Note_on_c, 3, 35, 0
4, 71515, Note_on_c, 3, 36, 64
4, 71767, Note_on_c, 3, 35, 64
4, 71767, Note_on_c, 3, 36, 0
4, 71889, Note_on_c, 3, 36, 64
4, 71889, Note_on_c, 3, 35, 0
4, 72000, Note_on_c, 3, 38, 64
4, 72000, Note_on_c, 3, 36, 0
4, 72252, Note_on_c, 3, 36, 64
4, 72252, Note_on_c, 3, 38, 0
4, 72359, Note_on_c, 3, 38, 64
4, 72359, Note_on_c, 3, 36, 0
4, 72488, Note_on_c, 3, 40, 64
4, 72488, Note_on_c, 3, 38, 0
4, 72731, Note_on_c, 3, 35, 64
4, 72731, Note_on_c, 3, 40, 0
4, 72951, Note_on_c, 3, 33, 64
4, 72951, Note_on_c, 3, 35, 0
4, 73197, Note_on_c, 3, 40, 64
4, 73197, Note_on_c, 3, 33, 0
4, 73442, Note_on_c, 3, 33, 64
4, 73442, Note_on_c, 3, 40, 0
4, 73675, Note_on_c, 3, 33, 0
4, 75490, Note_on_c, 3, 43, 64
4, 75554, Note_on_c, 3, 43, 0
4, 75612, Note_on_c, 3, 43, 64
4, 75661, Note_on_c, 3, 43, 0
4, 75729, Note_on_c, 3, 43, 64
4, 75830, Note_on_c, 3, 43, 0
4, 75836, Note_on_c, 3, 45, 64
4, 76199, Note_on_c, 3, 43, 64
4, 76199, Note_on_c, 3, 45, 0
4, 76315, Note_on_c, 3, 41, 64
4, 76315, Note_on_c, 3, 43, 0
4, 76391, Note_on_c, 3, 41, 0
4, 76444, Note_on_c, 3, 41, 64
4, 76502, Note_on_c, 3, 41, 0
4, 76560, Note_on_c, 3, 41, 64
4, 76674, Note_on_c, 3, 40, 64
4, 76674, Note_on_c, 3, 41, 0
4, 76744, Note_on_c, 3, 41, 64
4, 76744, Note_on_c, 3, 40, 0
4, 76794, Note_on_c, 3, 41, 0
4, 76802, Note_on_c, 3, 43, 64
4, 77091, Note_on_c, 3, 43, 0
4, 77158, Note_on_c, 3, 41, 64
4, 77279, Note_on_c, 3, 40, 64
4, 77279, Note_on_c, 3, 41, 0
4, 77352, Note_on_c, 3, 40, 0
4, 77398, Note_on_c, 3, 40, 64
4, 77471, Note_on_c, 3, 40, 0
4, 77518, Note_on_c, 3, 40, 64
4, 77633, Note_on_c, 3, 38, 64
4, 77633, Note_on_c, 3, 40, 0
4, 77693, Note_on_c, 3, 40, 64
4, 77693, Note_on_c, 3, 38, 0
4, 77757, Note_on_c, 3, 41, 64
4, 77757, Note_on_c, 3, 40, 0
4, 78006, Note_on_c, 3, 40, 64
4, 78006, Note_on_c, 3, 41, 0
4, 78113, Note_on_c, 3, 41, 64
4, 78113, Note_on_c, 3, 40, 0
4, 78245, Note_on_c, 3, 43, 64
4, 78245, Note_on_c, 3, 41, 0
4, 78490, Note_on_c, 3, 31, 64
4, 78490, Note_on_c, 3, 43, 0
4, 78724, Note_on_c, 3, 36, 64
4, 78724, Note_on_c, 3, 31, 0
4, 80763, Note_on_c, 3, 36, 0
4, 81120, End_track
0, 0, End_of_file
