0, 0, Header, 1, 4, 120
1, 0, Start_track
1, 0, Key_signature, 0, "major"
1, 0, Tempo, 1304347
1, 0, Time_signature, 4, 2, 24, 8
1, 8160, Time_signature, 6, 3, 12, 8
1, 8640, Tempo, 576923
1, 8640, End_track
2, 0, Start_track
2, 0, Title_t, "Right Hand"
2, 0, Instrument_name_t, "Pipe Organ"
2, 480, Note_on_c, 1, 72, 64
2, 480, Note_on_c, 1, 69, 64
2, 480, Note_on_c, 1, 64, 64
2, 599, Note_on_c, 1, 64, 0
2, 599, Note_on_c, 1, 69, 0
2, 599, Note_on_c, 1, 72, 0
2, 960, Note_on_c, 1, 60, 64
2, 1019, Note_on_c, 1, 60, 0
2, 1020, Note_on_c, 1, 62, 64
2, 1079, Note_on_c, 1, 62, 0
2, 1080, Note_on_c, 1, 64, 64
2, 1139, Note_on_c, 1, 64, 0
2, 1140, Note_on_c, 1, 62, 64
2, 1199, Note_on_c, 1, 62, 0
2, 1215, Note_on_c, 1, 60, 64
2, 1229, Note_on_c, 1, 60, 0
2, 1230, Note_on_c, 1, 69, 64
2, 1244, Note_on_c, 1, 69, 0
2, 1245, Note_on_c, 1, 60, 64
2, 1259, Note_on_c, 1, 60, 0
2, 1275, Note_on_c, 1, 60, 64
2, 1289, Note_on_c, 1, 60, 0
2, 1290, Note_on_c, 1, 69, 64
2, 1304, Note_on_c, 1, 69, 0
2, 1305, Note_on_c, 1, 60, 64
2, 1319, Note_on_c, 1, 60, 0
2, 1335, Note_on_c, 1, 60, 64
2, 1349, Note_on_c, 1, 60, 0
2, 1350, Note_on_c, 1, 69, 64
2, 1364, Note_on_c, 1, 69, 0
2, 1365, Note_on_c, 1, 60, 64
2, 1379, Note_on_c, 1, 60, 0
2, 1395, Note_on_c, 1, 60, 64
2, 1409, Note_on_c, 1, 60, 0
2, 1410, Note_on_c, 1, 69, 64
2, 1424, Note_on_c, 1, 69, 0
2, 1425, Note_on_c, 1, 60, 64
2, 1439, Note_on_c, 1, 60, 0
2, 1455, Note_on_c, 1, 59, 64
2, 1469, Note_on_c, 1, 59, 0
2, 1470, Note_on_c, 1, 69, 64
2, 1484, Note_on_c, 1, 69, 0
2, 1485, Note_on_c, 1, 59, 64
2, 1499, Note_on_c, 1, 59, 0
2, 1515, Note_on_c, 1, 59, 64
2, 1529, Note_on_c, 1, 59, 0
2, 1530, Note_on_c, 1, 69, 64
2, 1544, Note_on_c, 1, 69, 0
2, 1545, Note_on_c, 1, 59, 64
2, 1559, Note_on_c, 1, 59, 0
2, 1575, Note_on_c, 1, 59, 64
2, 1589, Note_on_c, 1, 59, 0
2, 1590, Note_on_c, 1, 68, 64
2, 1604, Note_on_c, 1, 68, 0
2, 1605, Note_on_c, 1, 59, 64
2, 1619, Note_on_c, 1, 59, 0
2, 1635, Note_on_c, 1, 59, 64
2, 1649, Note_on_c, 1, 59, 0
2, 1650, Note_on_c, 1, 68, 64
2, 1664, Note_on_c, 1, 68, 0
2, 1665, Note_on_c, 1, 59, 64
2, 1679, Note_on_c, 1, 59, 0
2, 1680, Note_on_c, 1, 57, 64
2, 1694, Note_on_c, 1, 57, 0
2, 1695, Note_on_c, 1, 61, 64
2, 1709, Note_on_c, 1, 61, 0
2, 1710, Note_on_c, 1, 59, 64
2, 1724, Note_on_c, 1, 59, 0
2, 1725, Note_on_c, 1, 62, 64
2, 1739, Note_on_c, 1, 62, 0
2, 1740, Note_on_c, 1, 61, 64
2, 1754, Note_on_c, 1, 61, 0
2, 1755, Note_on_c, 1, 64, 64
2, 1769, Note_on_c, 1, 64, 0
2, 1770, Note_on_c, 1, 62, 64
2, 1784, Note_on_c, 1, 62, 0
2, 1785, Note_on_c, 1, 65, 64
2, 1799, Note_on_c, 1, 65, 0
2, 1800, Note_on_c, 1, 64, 64
2, 1814, Note_on_c, 1, 64, 0
2, 1815, Note_on_c, 1, 67, 64
2, 1829, Note_on_c, 1, 67, 0
2, 1830, Note_on_c, 1, 62, 64
2, 1844, Note_on_c, 1, 62, 0
2, 1845, Note_on_c, 1, 65, 64
2, 1859, Note_on_c, 1, 65, 0
2, 1860, Note_on_c, 1, 61, 64
2, 1874, Note_on_c, 1, 61, 0
2, 1875, Note_on_c, 1, 64, 64
2, 1889, Note_on_c, 1, 64, 0
2, 1890, Note_on_c, 1, 59, 64
2, 1904, Note_on_c, 1, 59, 0
2, 1905, Note_on_c, 1, 62, 64
2, 1919, Note_on_c, 1, 62, 0
2, 1920, Note_on_c, 1, 61, 64
2, 1934, Note_on_c, 1, 61, 0
2, 1935, Note_on_c, 1, 69, 64
2, 1949, Note_on_c, 1, 69, 0
2, 1950, Note_on_c, 1, 64, 64
2, 1964, Note_on_c, 1, 64, 0
2, 1965, Note_on_c, 1, 69, 64
2, 1979, Note_on_c, 1, 69, 0
2, 1980, Note_on_c, 1, 61, 64
2, 1994, Note_on_c, 1, 61, 0
2, 1995, Note_on_c, 1, 69, 64
2, 2009, Note_on_c, 1, 69, 0
2, 2010, Note_on_c, 1, 64, 64
2, 2024, Note_on_c, 1, 64, 0
2, 2025, Note_on_c, 1, 69, 64
2, 2039, Note_on_c, 1, 69, 0
2, 2040, Note_on_c, 1, 61, 64
2, 2054, Note_on_c, 1, 61, 0
2, 2055, Note_on_c, 1, 69, 64
2, 2069, Note_on_c, 1, 69, 0
2, 2070, Note_on_c, 1, 64, 64
2, 2084, Note_on_c, 1, 64, 0
2, 2085, Note_on_c, 1, 69, 64
2, 2099, Note_on_c, 1, 69, 0
2, 2100, Note_on_c, 1, 61, 64
2, 2114, Note_on_c, 1, 61, 0
2, 2115, Note_on_c, 1, 69, 64
2, 2129, Note_on_c, 1, 69, 0
2, 2130, Note_on_c, 1, 64, 64
2, 2144, Note_on_c, 1, 64, 0
2, 2145, Note_on_c, 1, 69, 64
2, 2159, Note_on_c, 1, 69, 0
2, 2160, Note_on_c, 1, 62, 64
2, 2160, Note_on_c, 1, 65, 64
2, 2189, Note_on_c, 1, 62, 0
2, 2220, Note_on_c, 1, 62, 64
2, 2249, Note_on_c, 1, 62, 0
2, 2250, Note_on_c, 1, 60, 64
2, 2279, Note_on_c, 1, 60, 0
2, 2279, Note_on_c, 1, 65, 0
2, 2280, Note_on_c, 1, 59, 64
2, 2309, Note_on_c, 1, 59, 0
2, 2310, Note_on_c, 1, 60, 64
2, 2339, Note_on_c, 1, 60, 0
2, 2340, Note_on_c, 1, 59, 64
2, 2369, Note_on_c, 1, 59, 0
2, 2370, Note_on_c, 1, 57, 64
2, 2399, Note_on_c, 1, 57, 0
2, 2400, Note_on_c, 1, 55, 64
2, 2414, Note_on_c, 1, 55, 0
2, 2415, Note_on_c, 1, 59, 64
2, 2429, Note_on_c, 1, 59, 0
2, 2430, Note_on_c, 1, 57, 64
2, 2444, Note_on_c, 1, 57, 0
2, 2445, Note_on_c, 1, 60, 64
2, 2459, Note_on_c, 1, 60, 0
2, 2460, Note_on_c, 1, 59, 64
2, 2474, Note_on_c, 1, 59, 0
2, 2475, Note_on_c, 1, 62, 64
2, 2489, Note_on_c, 1, 62, 0
2, 2490, Note_on_c, 1, 60, 64
2, 2504, Note_on_c, 1, 60, 0
2, 2505, Note_on_c, 1, 64, 64
2, 2519, Note_on_c, 1, 64, 0
2, 2520, Note_on_c, 1, 62, 64
2, 2534, Note_on_c, 1, 62, 0
2, 2535, Note_on_c, 1, 65, 64
2, 2549, Note_on_c, 1, 65, 0
2, 2550, Note_on_c, 1, 60, 64
2, 2564, Note_on_c, 1, 60, 0
2, 2565, Note_on_c, 1, 64, 64
2, 2579, Note_on_c, 1, 64, 0
2, 2580, Note_on_c, 1, 59, 64
2, 2594, Note_on_c, 1, 59, 0
2, 2595, Note_on_c, 1, 62, 64
2, 2609, Note_on_c, 1, 62, 0
2, 2610, Note_on_c, 1, 57, 64
2, 2624, Note_on_c, 1, 57, 0
2, 2625, Note_on_c, 1, 60, 64
2, 2639, Note_on_c, 1, 60, 0
2, 2640, Note_on_c, 1, 59, 64
2, 2654, Note_on_c, 1, 59, 0
2, 2655, Note_on_c, 1, 67, 64
2, 2669, Note_on_c, 1, 67, 0
2, 2670, Note_on_c, 1, 62, 64
2, 2684, Note_on_c, 1, 62, 0
2, 2685, Note_on_c, 1, 67, 64
2, 2699, Note_on_c, 1, 67, 0
2, 2700, Note_on_c, 1, 59, 64
2, 2714, Note_on_c, 1, 59, 0
2, 2715, Note_on_c, 1, 67, 64
2, 2729, Note_on_c, 1, 67, 0
2, 2730, Note_on_c, 1, 62, 64
2, 2744, Note_on_c, 1, 62, 0
2, 2745, Note_on_c, 1, 67, 64
2, 2759, Note_on_c, 1, 67, 0
2, 2760, Note_on_c, 1, 59, 64
2, 2774, Note_on_c, 1, 59, 0
2, 2775, Note_on_c, 1, 67, 64
2, 2789, Note_on_c, 1, 67, 0
2, 2790, Note_on_c, 1, 62, 64
2, 2804, Note_on_c, 1, 62, 0
2, 2805, Note_on_c, 1, 67, 64
2, 2819, Note_on_c, 1, 67, 0
2, 2820, Note_on_c, 1, 59, 64
2, 2834, Note_on_c, 1, 59, 0
2, 2835, Note_on_c, 1, 67, 64
2, 2849, Note_on_c, 1, 67, 0
2, 2850, Note_on_c, 1, 62, 64
2, 2864, Note_on_c, 1, 62, 0
2, 2865, Note_on_c, 1, 67, 64
2, 2879, Note_on_c, 1, 67, 0
2, 2880, Note_on_c, 1, 64, 64
2, 2909, Note_on_c, 1, 64, 0
2, 2910, Note_on_c, 1, 60, 64
2, 2939, Note_on_c, 1, 60, 0
2, 2940, Note_on_c, 1, 67, 64
2, 2969, Note_on_c, 1, 67, 0
2, 2970, Note_on_c, 1, 64, 64
2, 2999, Note_on_c, 1, 64, 0
2, 3000, Note_on_c, 1, 72, 64
2, 3030, Note_on_c, 1, 64, 64
2, 3059, Note_on_c, 1, 64, 0
2, 3060, Note_on_c, 1, 67, 64
2, 3089, Note_on_c, 1, 67, 0
2, 3090, Note_on_c, 1, 64, 64
2, 3119, Note_on_c, 1, 64, 0
2, 3119, Note_on_c, 1, 72, 0
2, 3120, Note_on_c, 1, 69, 64
2, 3150, Note_on_c, 1, 69, 64
2, 3179, Note_on_c, 1, 69, 0
2, 3180, Note_on_c, 1, 72, 64
2, 3209, Note_on_c, 1, 72, 0
2, 3210, Note_on_c, 1, 69, 64
2, 3239, Note_on_c, 1, 69, 0
2, 3239, Note_on_c, 1, 69, 0
2, 3240, Note_on_c, 1, 74, 64
2, 3270, Note_on_c, 1, 66, 64
2, 3299, Note_on_c, 1, 66, 0
2, 3300, Note_on_c, 1, 69, 64
2, 3329, Note_on_c, 1, 69, 0
2, 3330, Note_on_c, 1, 66, 64
2, 3359, Note_on_c, 1, 66, 0
2, 3359, Note_on_c, 1, 74, 0
2, 3360, Note_on_c, 1, 71, 64
2, 3390, Note_on_c, 1, 71, 64
2, 3419, Note_on_c, 1, 71, 0
2, 3420, Note_on_c, 1, 74, 64
2, 3449, Note_on_c, 1, 74, 0
2, 3450, Note_on_c, 1, 71, 64
2, 3479, Note_on_c, 1, 71, 0
2, 3479, Note_on_c, 1, 71, 0
2, 3480, Note_on_c, 1, 76, 64
2, 3510, Note_on_c, 1, 68, 64
2, 3539, Note_on_c, 1, 68, 0
2, 3540, Note_on_c, 1, 71, 64
2, 3569, Note_on_c, 1, 71, 0
2, 3570, Note_on_c, 1, 68, 64
2, 3599, Note_on_c, 1, 68, 0
2, 3599, Note_on_c, 1, 76, 0
2, 3600, Note_on_c, 1, 72, 64
2, 3659, Note_on_c, 1, 72, 0
2, 3660, Note_on_c, 1, 76, 64
2, 3660, Note_on_c, 1, 71, 64
2, 3719, Note_on_c, 1, 71, 0
2, 3720, Note_on_c, 1, 69, 64
2, 3779, Note_on_c, 1, 76, 0
2, 3780, Note_on_c, 1, 74, 64
2, 3839, Note_on_c, 1, 74, 0
2, 3840, Note_on_c, 1, 76, 64
2, 3854, Note_on_c, 1, 69, 0
2, 3870, Note_on_c, 1, 69, 64
2, 3899, Note_on_c, 1, 69, 0
2, 3900, Note_on_c, 1, 68, 64
2, 3929, Note_on_c, 1, 68, 0
2, 3930, Note_on_c, 1, 66, 64
2, 3959, Note_on_c, 1, 66, 0
2, 3960, Note_on_c, 1, 68, 64
2, 3989, Note_on_c, 1, 76, 0
2, 3990, Note_on_c, 1, 74, 64
2, 4019, Note_on_c, 1, 74, 0
2, 4020, Note_on_c, 1, 72, 64
2, 4049, Note_on_c, 1, 72, 0
2, 4050, Note_on_c, 1, 71, 64
2, 4079, Note_on_c, 1, 71, 0
2, 4079, Note_on_c, 1, 68, 0
2, 4080, Note_on_c, 1, 72, 64
2, 4110, Note_on_c, 1, 64, 64
2, 4139, Note_on_c, 1, 64, 0
2, 4140, Note_on_c, 1, 69, 64
2, 4169, Note_on_c, 1, 69, 0
2, 4170, Note_on_c, 1, 67, 64
2, 4199, Note_on_c, 1, 67, 0
2, 4199, Note_on_c, 1, 72, 0
2, 4200, Note_on_c, 1, 66, 64
2, 4229, Note_on_c, 1, 66, 0
2, 4230, Note_on_c, 1, 67, 64
2, 4259, Note_on_c, 1, 67, 0
2, 4260, Note_on_c, 1, 66, 64
2, 4289, Note_on_c, 1, 66, 0
2, 4290, Note_on_c, 1, 64, 64
2, 4319, Note_on_c, 1, 64, 0
2, 4320, Note_on_c, 1, 63, 64
2, 4334, Note_on_c, 1, 63, 0
2, 4335, Note_on_c, 1, 71, 64
2, 4349, Note_on_c, 1, 71, 0
2, 4350, Note_on_c, 1, 66, 64
2, 4364, Note_on_c, 1, 66, 0
2, 4365, Note_on_c, 1, 71, 64
2, 4379, Note_on_c, 1, 71, 0
2, 4380, Note_on_c, 1, 63, 64
2, 4394, Note_on_c, 1, 63, 0
2, 4395, Note_on_c, 1, 71, 64
2, 4409, Note_on_c, 1, 71, 0
2, 4410, Note_on_c, 1, 66, 64
2, 4424, Note_on_c, 1, 66, 0
2, 4425, Note_on_c, 1, 71, 64
2, 4439, Note_on_c, 1, 71, 0
2, 4440, Note_on_c, 1, 64, 64
2, 4454, Note_on_c, 1, 64, 0
2, 4455, Note_on_c, 1, 71, 64
2, 4469, Note_on_c, 1, 71, 0
2, 4470, Note_on_c, 1, 67, 64
2, 4484, Note_on_c, 1, 67, 0
2, 4485, Note_on_c, 1, 71, 64
2, 4499, Note_on_c, 1, 71, 0
2, 4500, Note_on_c, 1, 64, 64
2, 4514, Note_on_c, 1, 64, 0
2, 4515, Note_on_c, 1, 71, 64
2, 4529, Note_on_c, 1, 71, 0
2, 4530, Note_on_c, 1, 67, 64
2, 4544, Note_on_c, 1, 67, 0
2, 4545, Note_on_c, 1, 71, 64
2, 4559, Note_on_c, 1, 71, 0
2, 4560, Note_on_c, 1, 63, 64
2, 4574, Note_on_c, 1, 63, 0
2, 4575, Note_on_c, 1, 69, 64
2, 4589, Note_on_c, 1, 69, 0
2, 4590, Note_on_c, 1, 66, 64
2, 4604, Note_on_c, 1, 66, 0
2, 4605, Note_on_c, 1, 69, 64
2, 4619, Note_on_c, 1, 69, 0
2, 4620, Note_on_c, 1, 63, 64
2, 4634, Note_on_c, 1, 63, 0
2, 4635, Note_on_c, 1, 69, 64
2, 4649, Note_on_c, 1, 69, 0
2, 4650, Note_on_c, 1, 66, 64
2, 4664, Note_on_c, 1, 66, 0
2, 4665, Note_on_c, 1, 69, 64
2, 4679, Note_on_c, 1, 69, 0
2, 4680, Note_on_c, 1, 59, 64
2, 4694, Note_on_c, 1, 59, 0
2, 4695, Note_on_c, 1, 67, 64
2, 4709, Note_on_c, 1, 67, 0
2, 4710, Note_on_c, 1, 64, 64
2, 4724, Note_on_c, 1, 64, 0
2, 4725, Note_on_c, 1, 67, 64
2, 4739, Note_on_c, 1, 67, 0
2, 4740, Note_on_c, 1, 59, 64
2, 4754, Note_on_c, 1, 59, 0
2, 4755, Note_on_c, 1, 67, 64
2, 4769, Note_on_c, 1, 67, 0
2, 4770, Note_on_c, 1, 64, 64
2, 4784, Note_on_c, 1, 64, 0
2, 4785, Note_on_c, 1, 67, 64
2, 4799, Note_on_c, 1, 67, 0
2, 4800, Note_on_c, 1, 66, 64
2, 4860, Note_on_c, 1, 71, 64
2, 4919, Note_on_c, 1, 71, 0
2, 4919, Note_on_c, 1, 66, 0
2, 4920, Note_on_c, 1, 67, 64
2, 4920, Note_on_c, 1, 64, 64
2, 4979, Note_on_c, 1, 67, 0
2, 4980, Note_on_c, 1, 71, 64
2, 5039, Note_on_c, 1, 71, 0
2, 5039, Note_on_c, 1, 64, 0
2, 5040, Note_on_c, 1, 69, 64
2, 5040, Note_on_c, 1, 66, 64
2, 5069, Note_on_c, 1, 69, 0
2, 5070, Note_on_c, 1, 71, 64
2, 5099, Note_on_c, 1, 71, 0
2, 5099, Note_on_c, 1, 66, 0
2, 5100, Note_on_c, 1, 67, 64
2, 5100, Note_on_c, 1, 64, 64
2, 5129, Note_on_c, 1, 67, 0
2, 5130, Note_on_c, 1, 69, 64
2, 5159, Note_on_c, 1, 69, 0
2, 5159, Note_on_c, 1, 64, 0
2, 5160, Note_on_c, 1, 67, 64
2, 5160, Note_on_c, 1, 63, 64
2, 5174, Note_on_c, 1, 67, 0
2, 5175, Note_on_c, 1, 66, 64
2, 5189, Note_on_c, 1, 66, 0
2, 5190, Note_on_c, 1, 67, 64
2, 5204, Note_on_c, 1, 67, 0
2, 5205, Note_on_c, 1, 66, 64
2, 5219, Note_on_c, 1, 66, 0
2, 5220, Note_on_c, 1, 67, 64
2, 5234, Note_on_c, 1, 67, 0
2, 5235, Note_on_c, 1, 66, 64
2, 5264, Note_on_c, 1, 66, 0
2, 5265, Note_on_c, 1, 64, 64
2, 5272, Note_on_c, 1, 64, 0
2, 5279, Note_on_c, 1, 63, 0
2, 5280, Note_on_c, 1, 64, 64
2, 5399, Note_on_c, 1, 64, 0
2, 5460, Note_on_c, 1, 67, 64
2, 5489, Note_on_c, 1, 67, 0
2, 5520, Note_on_c, 1, 67, 64
2, 5534, Note_on_c, 1, 67, 0
2, 5535, Note_on_c, 1, 65, 64
2, 5549, Note_on_c, 1, 65, 0
2, 5550, Note_on_c, 1, 64, 64
2, 5564, Note_on_c, 1, 64, 0
2, 5565, Note_on_c, 1, 65, 64
2, 5579, Note_on_c, 1, 65, 0
2, 5580, Note_on_c, 1, 67, 64
2, 5609, Note_on_c, 1, 67, 0
2, 5610, Note_on_c, 1, 72, 64
2, 5639, Note_on_c, 1, 72, 0
2, 5640, Note_on_c, 1, 67, 64
2, 5654, Note_on_c, 1, 67, 0
2, 5670, Note_on_c, 1, 67, 64
2, 5699, Note_on_c, 1, 67, 0
2, 5700, Note_on_c, 1, 69, 64
2, 5707, Note_on_c, 1, 67, 64
2, 5707, Note_on_c, 1, 69, 0
2, 5714, Note_on_c, 1, 67, 0
2, 5715, Note_on_c, 1, 69, 64
2, 5722, Note_on_c, 1, 67, 64
2, 5722, Note_on_c, 1, 69, 0
2, 5729, Note_on_c, 1, 67, 0
2, 5730, Note_on_c, 1, 69, 64
2, 5737, Note_on_c, 1, 67, 64
2, 5737, Note_on_c, 1, 69, 0
2, 5744, Note_on_c, 1, 67, 0
2, 5745, Note_on_c, 1, 65, 64
2, 5752, Note_on_c, 1, 67, 64
2, 5752, Note_on_c, 1, 65, 0
2, 5759, Note_on_c, 1, 67, 0
2, 5760, Note_on_c, 1, 69, 64
2, 5879, Note_on_c, 1, 69, 0
2, 5940, Note_on_c, 1, 69, 64
2, 5969, Note_on_c, 1, 69, 0
2, 6000, Note_on_c, 1, 69, 64
2, 6014, Note_on_c, 1, 69, 0
2, 6015, Note_on_c, 1, 67, 64
2, 6029, Note_on_c, 1, 67, 0
2, 6030, Note_on_c, 1, 66, 64
2, 6044, Note_on_c, 1, 66, 0
2, 6045, Note_on_c, 1, 67, 64
2, 6059, Note_on_c, 1, 67, 0
2, 6060, Note_on_c, 1, 69, 64
2, 6089, Note_on_c, 1, 69, 0
2, 6090, Note_on_c, 1, 74, 64
2, 6119, Note_on_c, 1, 74, 0
2, 6120, Note_on_c, 1, 69, 64
2, 6134, Note_on_c, 1, 69, 0
2, 6150, Note_on_c, 1, 69, 64
2, 6179, Note_on_c, 1, 69, 0
2, 6180, Note_on_c, 1, 71, 64
2, 6187, Note_on_c, 1, 69, 64
2, 6187, Note_on_c, 1, 71, 0
2, 6194, Note_on_c, 1, 69, 0
2, 6195, Note_on_c, 1, 71, 64
2, 6202, Note_on_c, 1, 69, 64
2, 6202, Note_on_c, 1, 71, 0
2, 6209, Note_on_c, 1, 69, 0
2, 6210, Note_on_c, 1, 71, 64
2, 6217, Note_on_c, 1, 69, 64
2, 6217, Note_on_c, 1, 71, 0
2, 6224, Note_on_c, 1, 69, 0
2, 6225, Note_on_c, 1, 67, 64
2, 6232, Note_on_c, 1, 69, 64
2, 6232, Note_on_c, 1, 67, 0
2, 6239, Note_on_c, 1, 69, 0
2, 6240, Note_on_c, 1, 71, 64
2, 6359, Note_on_c, 1, 71, 0
2, 6420, Note_on_c, 1, 71, 64
2, 6449, Note_on_c, 1, 71, 0
2, 6480, Note_on_c, 1, 71, 64
2, 6494, Note_on_c, 1, 71, 0
2, 6495, Note_on_c, 1, 69, 64
2, 6509, Note_on_c, 1, 69, 0
2, 6510, Note_on_c, 1, 68, 64
2, 6524, Note_on_c, 1, 68, 0
2, 6525, Note_on_c, 1, 69, 64
2, 6539, Note_on_c, 1, 69, 0
2, 6540, Note_on_c, 1, 71, 64
2, 6569, Note_on_c, 1, 71, 0
2, 6570, Note_on_c, 1, 76, 64
2, 6599, Note_on_c, 1, 76, 0
2, 6600, Note_on_c, 1, 71, 64
2, 6614, Note_on_c, 1, 71, 0
2, 6630, Note_on_c, 1, 71, 64
2, 6659, Note_on_c, 1, 71, 0
2, 6660, Note_on_c, 1, 72, 64
2, 6667, Note_on_c, 1, 71, 64
2, 6667, Note_on_c, 1, 72, 0
2, 6674, Note_on_c, 1, 71, 0
2, 6675, Note_on_c, 1, 72, 64
2, 6682, Note_on_c, 1, 71, 64
2, 6682, Note_on_c, 1, 72, 0
2, 6689, Note_on_c, 1, 71, 0
2, 6690, Note_on_c, 1, 72, 64
2, 6697, Note_on_c, 1, 71, 64
2, 6697, Note_on_c, 1, 72, 0
2, 6704, Note_on_c, 1, 71, 0
2, 6705, Note_on_c, 1, 69, 64
2, 6712, Note_on_c, 1, 71, 64
2, 6712, Note_on_c, 1, 69, 0
2, 6719, Note_on_c, 1, 71, 0
2, 6720, Note_on_c, 1, 72, 64
2, 6839, Note_on_c, 1, 72, 0
2, 6900, Note_on_c, 1, 77, 64
2, 6989, Note_on_c, 1, 77, 0
2, 6990, Note_on_c, 1, 76, 64
2, 7049, Note_on_c, 1, 76, 0
2, 7050, Note_on_c, 1, 74, 64
2, 7109, Note_on_c, 1, 74, 0
2, 7110, Note_on_c, 1, 72, 64
2, 7169, Note_on_c, 1, 72, 0
2, 7170, Note_on_c, 1, 71, 64
2, 7229, Note_on_c, 1, 71, 0
2, 7230, Note_on_c, 1, 69, 64
2, 7289, Note_on_c, 1, 69, 0
2, 7290, Note_on_c, 1, 68, 64
2, 7319, Note_on_c, 1, 68, 0
2, 7320, Note_on_c, 1, 69, 64
2, 7349, Note_on_c, 1, 69, 0
2, 7350, Note_on_c, 1, 71, 64
2, 7409, Note_on_c, 1, 71, 0
2, 7410, Note_on_c, 1, 72, 64
2, 7440, Note_on_c, 1, 69, 64
2, 7559, Note_on_c, 1, 69, 0
2, 7559, Note_on_c, 1, 72, 0
2, 7710, Note_on_c, 1, 69, 64
2, 7739, Note_on_c, 1, 69, 0
2, 7740, Note_on_c, 1, 72, 64
2, 7769, Note_on_c, 1, 72, 0
2, 7770, Note_on_c, 1, 69, 64
2, 7799, Note_on_c, 1, 69, 0
2, 7800, Note_on_c, 1, 76, 64
2, 7829, Note_on_c, 1, 76, 0
2, 7830, Note_on_c, 1, 72, 64
2, 7859, Note_on_c, 1, 72, 0
2, 7860, Note_on_c, 1, 76, 64
2, 7889, Note_on_c, 1, 76, 0
2, 7890, Note_on_c, 1, 72, 64
2, 7919, Note_on_c, 1, 72, 0
2, 7920, Note_on_c, 1, 77, 64
2, 7920, Note_on_c, 1, 69, 64
2, 7949, Note_on_c, 1, 77, 0
2, 7950, Note_on_c, 1, 76, 64
2, 7979, Note_on_c, 1, 76, 0
2, 7980, Note_on_c, 1, 74, 64
2, 8009, Note_on_c, 1, 74, 0
2, 8010, Note_on_c, 1, 72, 64
2, 8039, Note_on_c, 1, 72, 0
2, 8039, Note_on_c, 1, 69, 0
2, 8040, Note_on_c, 1, 74, 64
2, 8040, Note_on_c, 1, 69, 64
2, 8069, Note_on_c, 1, 74, 0
2, 8070, Note_on_c, 1, 72, 64
2, 8099, Note_on_c, 1, 72, 0
2, 8099, Note_on_c, 1, 69, 0
2, 8100, Note_on_c, 1, 71, 64
2, 8129, Note_on_c, 1, 71, 0
2, 8130, Note_on_c, 1, 69, 64
2, 8159, Note_on_c, 1, 69, 0
2, 8160, Note_on_c, 1, 68, 64
2, 8279, Note_on_c, 1, 68, 0
2, 8280, Note_on_c, 1, 69, 64
2, 8519, Note_on_c, 1, 69, 0
2, 8520, Note_on_c, 1, 68, 64
2, 8639, Note_on_c, 1, 68, 0
2, 8640, Note_on_c, 1, 69, 64
2, 8640, Note_on_c, 1, 64, 64
2, 8864, Note_on_c, 1, 64, 0
2, 8864, Note_on_c, 1, 69, 0
2, 8940, Note_on_c, 1, 69, 64
2, 8999, Note_on_c, 1, 69, 0
2, 9000, Note_on_c, 1, 71, 64
2, 9059, Note_on_c, 1, 71, 0
2, 9060, Note_on_c, 1, 72, 64
2, 9119, Note_on_c, 1, 72, 0
2, 9120, Note_on_c, 1, 74, 64
2, 9179, Note_on_c, 1, 74, 0
2, 9180, Note_on_c, 1, 76, 64
2, 9239, Note_on_c, 1, 76, 0
2, 9240, Note_on_c, 1, 74, 64
2, 9299, Note_on_c, 1, 74, 0
2, 9300, Note_on_c, 1, 76, 64
2, 9359, Note_on_c, 1, 76, 0
2, 9360, Note_on_c, 1, 72, 64
2, 9419, Note_on_c, 1, 72, 0
2, 9420, Note_on_c, 1, 71, 64
2, 9479, Note_on_c, 1, 71, 0
2, 9480, Note_on_c, 1, 69, 64
2, 9539, Note_on_c, 1, 69, 0
2, 9540, Note_on_c, 1, 77, 64
2, 9779, Note_on_c, 1, 77, 0
2, 9780, Note_on_c, 1, 76, 64
2, 9839, Note_on_c, 1, 76, 0
2, 9840, Note_on_c, 1, 74, 64
2, 9899, Note_on_c, 1, 74, 0
2, 9900, Note_on_c, 1, 76, 64
2, 10139, Note_on_c, 1, 76, 0
2, 10140, Note_on_c, 1, 74, 64
2, 10199, Note_on_c, 1, 74, 0
2, 10200, Note_on_c, 1, 72, 64
2, 10259, Note_on_c, 1, 72, 0
2, 10260, Note_on_c, 1, 74, 64
2, 10379, Note_on_c, 1, 74, 0
2, 10380, Note_on_c, 1, 72, 64
2, 10409, Note_on_c, 1, 72, 0
2, 10440, Note_on_c, 1, 72, 64
2, 10469, Note_on_c, 1, 72, 0
2, 10470, Note_on_c, 1, 71, 64
2, 10499, Note_on_c, 1, 71, 0
2, 10500, Note_on_c, 1, 72, 64
2, 10529, Note_on_c, 1, 72, 0
2, 10530, Note_on_c, 1, 71, 64
2, 10559, Note_on_c, 1, 71, 0
2, 10560, Note_on_c, 1, 72, 64
2, 10589, Note_on_c, 1, 72, 0
2, 10590, Note_on_c, 1, 71, 64
2, 10619, Note_on_c, 1, 71, 0
2, 10620, Note_on_c, 1, 69, 64
2, 10739, Note_on_c, 1, 69, 0
2, 10740, Note_on_c, 1, 71, 64
2, 10799, Note_on_c, 1, 71, 0
2, 10800, Note_on_c, 1, 67, 64
2, 10859, Note_on_c, 1, 67, 0
2, 10860, Note_on_c, 1, 71, 64
2, 10919, Note_on_c, 1, 71, 0
2, 10920, Note_on_c, 1, 76, 64
2, 10949, Note_on_c, 1, 76, 0
2, 10980, Note_on_c, 1, 76, 64
2, 11159, Note_on_c, 1, 76, 0
2, 11160, Note_on_c, 1, 75, 64
2, 11339, Note_on_c, 1, 75, 0
2, 11340, Note_on_c, 1, 76, 64
2, 11579, Note_on_c, 1, 76, 0
2, 11580, Note_on_c, 1, 78, 64
2, 11639, Note_on_c, 1, 78, 0
2, 11640, Note_on_c, 1, 80, 64
2, 11699, Note_on_c, 1, 80, 0
2, 11700, Note_on_c, 1, 81, 64
2, 11939, Note_on_c, 1, 81, 0
2, 11940, Note_on_c, 1, 79, 64
2, 11999, Note_on_c, 1, 79, 0
2, 12000, Note_on_c, 1, 78, 64
2, 12059, Note_on_c, 1, 78, 0
2, 12060, Note_on_c, 1, 79, 64
2, 12299, Note_on_c, 1, 79, 0
2, 12300, Note_on_c, 1, 78, 64
2, 12359, Note_on_c, 1, 78, 0
2, 12360, Note_on_c, 1, 76, 64
2, 12479, Note_on_c, 1, 76, 0
2, 12480, Note_on_c, 1, 78, 64
2, 12539, Note_on_c, 1, 78, 0
2, 12540, Note_on_c, 1, 75, 64
2, 12599, Note_on_c, 1, 75, 0
2, 12600, Note_on_c, 1, 76, 64
2, 12659, Note_on_c, 1, 76, 0
2, 12660, Note_on_c, 1, 74, 64
2, 12719, Note_on_c, 1, 74, 0
2, 12720, Note_on_c, 1, 72, 64
2, 12779, Note_on_c, 1, 72, 0
2, 12780, Note_on_c, 1, 71, 64
2, 12839, Note_on_c, 1, 71, 0
2, 12840, Note_on_c, 1, 72, 64
2, 12899, Note_on_c, 1, 72, 0
2, 12900, Note_on_c, 1, 74, 64
2, 12959, Note_on_c, 1, 74, 0
2, 12960, Note_on_c, 1, 72, 64
2, 13019, Note_on_c, 1, 72, 0
2, 13020, Note_on_c, 1, 74, 64
2, 13079, Note_on_c, 1, 74, 0
2, 13080, Note_on_c, 1, 76, 64
2, 13139, Note_on_c, 1, 76, 0
2, 13140, Note_on_c, 1, 74, 64
2, 13199, Note_on_c, 1, 74, 0
2, 13200, Note_on_c, 1, 76, 64
2, 13259, Note_on_c, 1, 76, 0
2, 13260, Note_on_c, 1, 69, 64
2, 13260, Note_on_c, 1, 72, 64
2, 13289, Note_on_c, 1, 69, 0
2, 13319, Note_on_c, 1, 72, 0
2, 13320, Note_on_c, 1, 69, 64
2, 13320, Note_on_c, 1, 71, 64
2, 13499, Note_on_c, 1, 69, 0
2, 13500, Note_on_c, 1, 68, 64
2, 13679, Note_on_c, 1, 68, 0
2, 13679, Note_on_c, 1, 71, 0
2, 13680, Note_on_c, 1, 72, 64
2, 13680, Note_on_c, 1, 69, 64
2, 13799, Note_on_c, 1, 69, 0
2, 13799, Note_on_c, 1, 72, 0
2, 13800, Note_on_c, 1, 76, 64
2, 13800, Note_on_c, 1, 72, 64
2, 13859, Note_on_c, 1, 72, 0
2, 13860, Note_on_c, 1, 69, 64
2, 13919, Note_on_c, 1, 76, 0
2, 13920, Note_on_c, 1, 74, 64
2, 13979, Note_on_c, 1, 74, 0
2, 13980, Note_on_c, 1, 72, 64
2, 14039, Note_on_c, 1, 72, 0
2, 14040, Note_on_c, 1, 74, 64
2, 14099, Note_on_c, 1, 69, 0
2, 14100, Note_on_c, 1, 67, 64
2, 14159, Note_on_c, 1, 67, 0
2, 14160, Note_on_c, 1, 65, 64
2, 14219, Note_on_c, 1, 65, 0
2, 14220, Note_on_c, 1, 67, 64
2, 14279, Note_on_c, 1, 74, 0
2, 14280, Note_on_c, 1, 72, 64
2, 14339, Note_on_c, 1, 72, 0
2, 14340, Note_on_c, 1, 71, 64
2, 14399, Note_on_c, 1, 71, 0
2, 14400, Note_on_c, 1, 72, 64
2, 14459, Note_on_c, 1, 67, 0
2, 14460, Note_on_c, 1, 65, 64
2, 14519, Note_on_c, 1, 65, 0
2, 14520, Note_on_c, 1, 64, 64
2, 14579, Note_on_c, 1, 64, 0
2, 14580, Note_on_c, 1, 65, 64
2, 14639, Note_on_c, 1, 72, 0
2, 14640, Note_on_c, 1, 71, 64
2, 14699, Note_on_c, 1, 71, 0
2, 14699, Note_on_c, 1, 65, 0
2, 14700, Note_on_c, 1, 69, 64
2, 14819, Note_on_c, 1, 69, 0
2, 14820, Note_on_c, 1, 71, 64
2, 14879, Note_on_c, 1, 71, 0
2, 14880, Note_on_c, 1, 69, 64
2, 14939, Note_on_c, 1, 69, 0
2, 14940, Note_on_c, 1, 67, 64
2, 14999, Note_on_c, 1, 67, 0
2, 15000, Note_on_c, 1, 69, 64
2, 15059, Note_on_c, 1, 69, 0
2, 15060, Note_on_c, 1, 64, 64
2, 15060, Note_on_c, 1, 67, 64
2, 15089, Note_on_c, 1, 64, 0
2, 15119, Note_on_c, 1, 67, 0
2, 15120, Note_on_c, 1, 64, 64
2, 15120, Note_on_c, 1, 66, 64
2, 15299, Note_on_c, 1, 64, 0
2, 15300, Note_on_c, 1, 63, 64
2, 15479, Note_on_c, 1, 63, 0
2, 15479, Note_on_c, 1, 66, 0
2, 15480, Note_on_c, 1, 64, 64
2, 15480, Note_on_c, 1, 67, 64
2, 15599, Note_on_c, 1, 67, 0
2, 15599, Note_on_c, 1, 64, 0
2, 15600, Note_on_c, 1, 71, 64
2, 15600, Note_on_c, 1, 79, 64
2, 15659, Note_on_c, 1, 79, 0
2, 15660, Note_on_c, 1, 76, 64
2, 15719, Note_on_c, 1, 71, 0
2, 15720, Note_on_c, 1, 69, 64
2, 15779, Note_on_c, 1, 69, 0
2, 15780, Note_on_c, 1, 67, 64
2, 15839, Note_on_c, 1, 67, 0
2, 15840, Note_on_c, 1, 69, 64
2, 15899, Note_on_c, 1, 76, 0
2, 15900, Note_on_c, 1, 74, 64
2, 15959, Note_on_c, 1, 74, 0
2, 15960, Note_on_c, 1, 72, 64
2, 16019, Note_on_c, 1, 72, 0
2, 16020, Note_on_c, 1, 74, 64
2, 16079, Note_on_c, 1, 69, 0
2, 16080, Note_on_c, 1, 68, 64
2, 16139, Note_on_c, 1, 68, 0
2, 16140, Note_on_c, 1, 66, 64
2, 16199, Note_on_c, 1, 66, 0
2, 16200, Note_on_c, 1, 68, 64
2, 16259, Note_on_c, 1, 74, 0
2, 16260, Note_on_c, 1, 72, 64
2, 16319, Note_on_c, 1, 72, 0
2, 16320, Note_on_c, 1, 71, 64
2, 16379, Note_on_c, 1, 71, 0
2, 16380, Note_on_c, 1, 72, 64
2, 16439, Note_on_c, 1, 68, 0
2, 16440, Note_on_c, 1, 66, 64
2, 16499, Note_on_c, 1, 66, 0
2, 16500, Note_on_c, 1, 64, 64
2, 16559, Note_on_c, 1, 64, 0
2, 16559, Note_on_c, 1, 72, 0
2, 16560, Note_on_c, 1, 71, 64
2, 16560, Note_on_c, 1, 63, 64
2, 16739, Note_on_c, 1, 63, 0
2, 16740, Note_on_c, 1, 64, 64
2, 16799, Note_on_c, 1, 71, 0
2, 16800, Note_on_c, 1, 69, 64
2, 16859, Note_on_c, 1, 69, 0
2, 16860, Note_on_c, 1, 67, 64
2, 16919, Note_on_c, 1, 67, 0
2, 16920, Note_on_c, 1, 69, 64
2, 16979, Note_on_c, 1, 64, 0
2, 16980, Note_on_c, 1, 66, 64
2, 17039, Note_on_c, 1, 66, 0
2, 17040, Note_on_c, 1, 64, 64
2, 17099, Note_on_c, 1, 64, 0
2, 17100, Note_on_c, 1, 63, 64
2, 17159, Note_on_c, 1, 69, 0
2, 17160, Note_on_c, 1, 67, 64
2, 17219, Note_on_c, 1, 67, 0
2, 17220, Note_on_c, 1, 66, 64
2, 17279, Note_on_c, 1, 66, 0
2, 17279, Note_on_c, 1, 63, 0
2, 17280, Note_on_c, 1, 67, 64
2, 17280, Note_on_c, 1, 64, 64
2, 17459, Note_on_c, 1, 64, 0
2, 17459, Note_on_c, 1, 67, 0
2, 17580, Note_on_c, 1, 64, 64
2, 17580, Note_on_c, 1, 61, 64
2, 17639, Note_on_c, 1, 61, 0
2, 17639, Note_on_c, 1, 64, 0
2, 17640, Note_on_c, 1, 62, 64
2, 17640, Note_on_c, 1, 65, 64
2, 17819, Note_on_c, 1, 65, 0
2, 17819, Note_on_c, 1, 62, 0
2, 17940, Note_on_c, 1, 59, 64
2, 17940, Note_on_c, 1, 62, 64
2, 17999, Note_on_c, 1, 62, 0
2, 17999, Note_on_c, 1, 59, 0
2, 18000, Note_on_c, 1, 64, 64
2, 18000, Note_on_c, 1, 60, 64
2, 18179, Note_on_c, 1, 60, 0
2, 18179, Note_on_c, 1, 64, 0
2, 18300, Note_on_c, 1, 60, 64
2, 18300, Note_on_c, 1, 57, 64
2, 18359, Note_on_c, 1, 57, 0
2, 18359, Note_on_c, 1, 60, 0
2, 18360, Note_on_c, 1, 62, 64
2, 18360, Note_on_c, 1, 59, 64
2, 18539, Note_on_c, 1, 59, 0
2, 18539, Note_on_c, 1, 62, 0
2, 18660, Note_on_c, 1, 59, 64
2, 18719, Note_on_c, 1, 59, 0
2, 18720, Note_on_c, 1, 60, 64
2, 18779, Note_on_c, 1, 60, 0
2, 18780, Note_on_c, 1, 62, 64
2, 18839, Note_on_c, 1, 62, 0
2, 18840, Note_on_c, 1, 64, 64
2, 18899, Note_on_c, 1, 64, 0
2, 18900, Note_on_c, 1, 62, 64
2, 18959, Note_on_c, 1, 62, 0
2, 18960, Note_on_c, 1, 64, 64
2, 19019, Note_on_c, 1, 64, 0
2, 19020, Note_on_c, 1, 60, 64
2, 19020, Note_on_c, 1, 69, 64
2, 19079, Note_on_c, 1, 69, 0
2, 19079, Note_on_c, 1, 60, 0
2, 19080, Note_on_c, 1, 71, 64
2, 19139, Note_on_c, 1, 71, 0
2, 19140, Note_on_c, 1, 72, 64
2, 19199, Note_on_c, 1, 72, 0
2, 19200, Note_on_c, 1, 74, 64
2, 19259, Note_on_c, 1, 74, 0
2, 19260, Note_on_c, 1, 76, 64
2, 19319, Note_on_c, 1, 76, 0
2, 19320, Note_on_c, 1, 74, 64
2, 19379, Note_on_c, 1, 74, 0
2, 19380, Note_on_c, 1, 76, 64
2, 19439, Note_on_c, 1, 76, 0
2, 19440, Note_on_c, 1, 72, 64
2, 19499, Note_on_c, 1, 72, 0
2, 19500, Note_on_c, 1, 71, 64
2, 19559, Note_on_c, 1, 71, 0
2, 19560, Note_on_c, 1, 69, 64
2, 19619, Note_on_c, 1, 69, 0
2, 19620, Note_on_c, 1, 77, 64
2, 19680, Note_on_c, 1, 69, 64
2, 19739, Note_on_c, 1, 69, 0
2, 19740, Note_on_c, 1, 74, 64
2, 19799, Note_on_c, 1, 74, 0
2, 19799, Note_on_c, 1, 77, 0
2, 19800, Note_on_c, 1, 76, 64
2, 19800, Note_on_c, 1, 74, 64
2, 19979, Note_on_c, 1, 74, 0
2, 19980, Note_on_c, 1, 73, 64
2, 20159, Note_on_c, 1, 73, 0
2, 20159, Note_on_c, 1, 76, 0
2, 20160, Note_on_c, 1, 77, 64
2, 20160, Note_on_c, 1, 74, 64
2, 20279, Note_on_c, 1, 74, 0
2, 20279, Note_on_c, 1, 77, 0
2, 20340, Note_on_c, 1, 74, 64
2, 20399, Note_on_c, 1, 74, 0
2, 20400, Note_on_c, 1, 76, 64
2, 20459, Note_on_c, 1, 76, 0
2, 20460, Note_on_c, 1, 77, 64
2, 20519, Note_on_c, 1, 77, 0
2, 20520, Note_on_c, 1, 79, 64
2, 20759, Note_on_c, 1, 79, 0
2, 20760, Note_on_c, 1, 77, 64
2, 20819, Note_on_c, 1, 77, 0
2, 20820, Note_on_c, 1, 76, 64
2, 20879, Note_on_c, 1, 76, 0
2, 20880, Note_on_c, 1, 74, 64
2, 20880, Note_on_c, 1, 77, 64
2, 20939, Note_on_c, 1, 77, 0
2, 20940, Note_on_c, 1, 79, 64
2, 20999, Note_on_c, 1, 79, 0
2, 21000, Note_on_c, 1, 77, 64
2, 21059, Note_on_c, 1, 77, 0
2, 21060, Note_on_c, 1, 76, 64
2, 21179, Note_on_c, 1, 74, 0
2, 21180, Note_on_c, 1, 72, 64
2, 21239, Note_on_c, 1, 72, 0
2, 21239, Note_on_c, 1, 76, 0
2, 21240, Note_on_c, 1, 74, 64
2, 21419, Note_on_c, 1, 74, 0
2, 21420, Note_on_c, 1, 71, 64
2, 21599, Note_on_c, 1, 71, 0
2, 21600, Note_on_c, 1, 72, 64
2, 21839, Note_on_c, 1, 72, 0
2, 21840, Note_on_c, 1, 71, 64
2, 21899, Note_on_c, 1, 71, 0
2, 21900, Note_on_c, 1, 72, 64
2, 21959, Note_on_c, 1, 72, 0
2, 21960, Note_on_c, 1, 74, 64
2, 22199, Note_on_c, 1, 74, 0
2, 22200, Note_on_c, 1, 72, 64
2, 22259, Note_on_c, 1, 72, 0
2, 22260, Note_on_c, 1, 71, 64
2, 22319, Note_on_c, 1, 71, 0
2, 22320, Note_on_c, 1, 72, 64
2, 22559, Note_on_c, 1, 72, 0
2, 22560, Note_on_c, 1, 71, 64
2, 22619, Note_on_c, 1, 71, 0
2, 22620, Note_on_c, 1, 69, 64
2, 22679, Note_on_c, 1, 69, 0
2, 22680, Note_on_c, 1, 71, 64
2, 22919, Note_on_c, 1, 71, 0
2, 22920, Note_on_c, 1, 69, 64
2, 22979, Note_on_c, 1, 69, 0
2, 22980, Note_on_c, 1, 68, 64
2, 23039, Note_on_c, 1, 68, 0
2, 23040, Note_on_c, 1, 69, 64
2, 23220, Note_on_c, 1, 64, 64
2, 23279, Note_on_c, 1, 69, 0
2, 23280, Note_on_c, 1, 71, 64
2, 23339, Note_on_c, 1, 71, 0
2, 23340, Note_on_c, 1, 69, 64
2, 23399, Note_on_c, 1, 69, 0
2, 23400, Note_on_c, 1, 67, 64
2, 23400, Note_on_c, 1, 64, 64
2, 23459, Note_on_c, 1, 67, 0
2, 23459, Note_on_c, 1, 64, 0
2, 23460, Note_on_c, 1, 69, 64
2, 23519, Note_on_c, 1, 69, 0
2, 23520, Note_on_c, 1, 67, 64
2, 23579, Note_on_c, 1, 67, 0
2, 23580, Note_on_c, 1, 66, 64
2, 23759, Note_on_c, 1, 64, 0
2, 23760, Note_on_c, 1, 63, 64
2, 23939, Note_on_c, 1, 63, 0
2, 23939, Note_on_c, 1, 66, 0
2, 23940, Note_on_c, 1, 64, 64
2, 24119, Note_on_c, 1, 64, 0
2, 24240, Note_on_c, 1, 69, 64
2, 24299, Note_on_c, 1, 69, 0
2, 24300, Note_on_c, 1, 71, 64
2, 24359, Note_on_c, 1, 71, 0
2, 24360, Note_on_c, 1, 72, 64
2, 24419, Note_on_c, 1, 72, 0
2, 24420, Note_on_c, 1, 74, 64
2, 24479, Note_on_c, 1, 74, 0
2, 24480, Note_on_c, 1, 76, 64
2, 24539, Note_on_c, 1, 76, 0
2, 24540, Note_on_c, 1, 74, 64
2, 24599, Note_on_c, 1, 74, 0
2, 24600, Note_on_c, 1, 76, 64
2, 24659, Note_on_c, 1, 76, 0
2, 24660, Note_on_c, 1, 72, 64
2, 24719, Note_on_c, 1, 72, 0
2, 24720, Note_on_c, 1, 71, 64
2, 24779, Note_on_c, 1, 71, 0
2, 24780, Note_on_c, 1, 69, 64
2, 24839, Note_on_c, 1, 69, 0
2, 24840, Note_on_c, 1, 77, 64
2, 24840, Note_on_c, 1, 69, 64
2, 24899, Note_on_c, 1, 69, 0
2, 24900, Note_on_c, 1, 67, 64
2, 24959, Note_on_c, 1, 67, 0
2, 24960, Note_on_c, 1, 65, 64
2, 25019, Note_on_c, 1, 65, 0
2, 25020, Note_on_c, 1, 67, 64
2, 25079, Note_on_c, 1, 77, 0
2, 25080, Note_on_c, 1, 76, 64
2, 25139, Note_on_c, 1, 76, 0
2, 25140, Note_on_c, 1, 74, 64
2, 25199, Note_on_c, 1, 74, 0
2, 25200, Note_on_c, 1, 76, 64
2, 25259, Note_on_c, 1, 67, 0
2, 25260, Note_on_c, 1, 65, 64
2, 25319, Note_on_c, 1, 65, 0
2, 25320, Note_on_c, 1, 64, 64
2, 25379, Note_on_c, 1, 64, 0
2, 25380, Note_on_c, 1, 65, 64
2, 25439, Note_on_c, 1, 76, 0
2, 25440, Note_on_c, 1, 74, 64
2, 25499, Note_on_c, 1, 74, 0
2, 25500, Note_on_c, 1, 72, 64
2, 25559, Note_on_c, 1, 72, 0
2, 25560, Note_on_c, 1, 74, 64
2, 25619, Note_on_c, 1, 65, 0
2, 25620, Note_on_c, 1, 64, 64
2, 25679, Note_on_c, 1, 64, 0
2, 25680, Note_on_c, 1, 62, 64
2, 25739, Note_on_c, 1, 62, 0
2, 25740, Note_on_c, 1, 64, 64
2, 25799, Note_on_c, 1, 74, 0
2, 25800, Note_on_c, 1, 72, 64
2, 25859, Note_on_c, 1, 72, 0
2, 25860, Note_on_c, 1, 71, 64
2, 25919, Note_on_c, 1, 71, 0
2, 25920, Note_on_c, 1, 72, 64
2, 26039, Note_on_c, 1, 64, 0
2, 26040, Note_on_c, 1, 69, 64
2, 26099, Note_on_c, 1, 69, 0
2, 26099, Note_on_c, 1, 72, 0
2, 26100, Note_on_c, 1, 71, 64
2, 26100, Note_on_c, 1, 69, 64
2, 26279, Note_on_c, 1, 69, 0
2, 26280, Note_on_c, 1, 68, 64
2, 26459, Note_on_c, 1, 68, 0
2, 26459, Note_on_c, 1, 71, 0
2, 26460, Note_on_c, 1, 69, 64
2, 26460, Note_on_c, 1, 76, 64
2, 26519, Note_on_c, 1, 76, 0
2, 26520, Note_on_c, 1, 74, 64
2, 26579, Note_on_c, 1, 74, 0
2, 26580, Note_on_c, 1, 72, 64
2, 26639, Note_on_c, 1, 72, 0
2, 26640, Note_on_c, 1, 71, 64
2, 26819, Note_on_c, 1, 69, 0
2, 26820, Note_on_c, 1, 69, 64
2, 26849, Note_on_c, 1, 69, 0
2, 26880, Note_on_c, 1, 69, 64
2, 26909, Note_on_c, 1, 69, 0
2, 26910, Note_on_c, 1, 68, 64
2, 26999, Note_on_c, 1, 68, 0
2, 26999, Note_on_c, 1, 71, 0
2, 27000, Note_on_c, 1, 64, 64
2, 27000, Note_on_c, 1, 69, 64
2, 28079, Note_on_c, 1, 69, 0
2, 28079, Note_on_c, 1, 64, 0
2, 28079, End_track
3, 0, Start_track
3, 0, Title_t, "Left Hand"
3, 0, Instrument_name_t, "Pipe Organ"
3, 480, Note_on_c, 1, 57, 65
3, 599, Note_on_c, 1, 57, 0
3, 630, Note_on_c, 1, 52, 65
3, 659, Note_on_c, 1, 52, 0
3, 660, Note_on_c, 1, 54, 65
3, 689, Note_on_c, 1, 54, 0
3, 690, Note_on_c, 1, 56, 65
3, 719, Note_on_c, 1, 56, 0
3, 720, Note_on_c, 1, 57, 65
3, 749, Note_on_c, 1, 57, 0
3, 750, Note_on_c, 1, 59, 65
3, 779, Note_on_c, 1, 59, 0
3, 780, Note_on_c, 1, 60, 65
3, 809, Note_on_c, 1, 60, 0
3, 810, Note_on_c, 1, 62, 65
3, 839, Note_on_c, 1, 62, 0
3, 840, Note_on_c, 1, 64, 65
3, 869, Note_on_c, 1, 64, 0
3, 870, Note_on_c, 1, 62, 65
3, 899, Note_on_c, 1, 62, 0
3, 900, Note_on_c, 1, 60, 65
3, 929, Note_on_c, 1, 60, 0
3, 930, Note_on_c, 1, 59, 65
3, 959, Note_on_c, 1, 59, 0
3, 975, Note_on_c, 1, 57, 65
3, 989, Note_on_c, 1, 57, 0
3, 990, Note_on_c, 1, 56, 65
3, 1004, Note_on_c, 1, 56, 0
3, 1005, Note_on_c, 1, 57, 65
3, 1019, Note_on_c, 1, 57, 0
3, 1035, Note_on_c, 1, 59, 65
3, 1049, Note_on_c, 1, 59, 0
3, 1050, Note_on_c, 1, 57, 65
3, 1064, Note_on_c, 1, 57, 0
3, 1065, Note_on_c, 1, 59, 65
3, 1079, Note_on_c, 1, 59, 0
3, 1095, Note_on_c, 1, 60, 65
3, 1109, Note_on_c, 1, 60, 0
3, 1110, Note_on_c, 1, 59, 65
3, 1124, Note_on_c, 1, 59, 0
3, 1125, Note_on_c, 1, 60, 65
3, 1139, Note_on_c, 1, 60, 0
3, 1155, Note_on_c, 1, 59, 65
3, 1169, Note_on_c, 1, 59, 0
3, 1170, Note_on_c, 1, 57, 65
3, 1184, Note_on_c, 1, 57, 0
3, 1185, Note_on_c, 1, 59, 65
3, 1199, Note_on_c, 1, 59, 0
3, 1200, Note_on_c, 1, 57, 65
3, 1259, Note_on_c, 1, 57, 0
3, 1260, Note_on_c, 1, 55, 65
3, 1319, Note_on_c, 1, 55, 0
3, 1320, Note_on_c, 1, 53, 65
3, 1379, Note_on_c, 1, 53, 0
3, 1380, Note_on_c, 1, 52, 65
3, 1439, Note_on_c, 1, 52, 0
3, 1440, Note_on_c, 1, 50, 65
3, 1499, Note_on_c, 1, 50, 0
3, 1500, Note_on_c, 1, 47, 65
3, 1559, Note_on_c, 1, 47, 0
3, 1560, Note_on_c, 1, 52, 65
3, 1619, Note_on_c, 1, 52, 0
3, 1620, Note_on_c, 1, 40, 65
3, 1679, Note_on_c, 1, 40, 0
3, 1920, Note_on_c, 1, 57, 65
3, 1920, Note_on_c, 1, 52, 65
3, 1949, Note_on_c, 1, 52, 0
3, 1949, Note_on_c, 1, 57, 0
3, 1980, Note_on_c, 1, 52, 65
3, 1980, Note_on_c, 1, 57, 65
3, 2009, Note_on_c, 1, 57, 0
3, 2009, Note_on_c, 1, 52, 0
3, 2040, Note_on_c, 1, 52, 65
3, 2040, Note_on_c, 1, 57, 65
3, 2069, Note_on_c, 1, 57, 0
3, 2069, Note_on_c, 1, 52, 0
3, 2100, Note_on_c, 1, 57, 65
3, 2100, Note_on_c, 1, 52, 65
3, 2159, Note_on_c, 1, 52, 0
3, 2159, Note_on_c, 1, 57, 0
3, 2160, Note_on_c, 1, 57, 65
3, 2160, Note_on_c, 1, 50, 65
3, 2279, Note_on_c, 1, 50, 0
3, 2279, Note_on_c, 1, 57, 0
3, 2640, Note_on_c, 1, 50, 65
3, 2640, Note_on_c, 1, 55, 65
3, 2669, Note_on_c, 1, 55, 0
3, 2669, Note_on_c, 1, 50, 0
3, 2700, Note_on_c, 1, 50, 65
3, 2700, Note_on_c, 1, 55, 65
3, 2729, Note_on_c, 1, 55, 0
3, 2729, Note_on_c, 1, 50, 0
3, 2760, Note_on_c, 1, 55, 65
3, 2760, Note_on_c, 1, 50, 65
3, 2789, Note_on_c, 1, 50, 0
3, 2789, Note_on_c, 1, 55, 0
3, 2820, Note_on_c, 1, 55, 65
3, 2820, Note_on_c, 1, 50, 65
3, 2879, Note_on_c, 1, 50, 0
3, 2879, Note_on_c, 1, 55, 0
3, 2880, Note_on_c, 1, 55, 65
3, 2880, Note_on_c, 1, 48, 65
3, 2999, Note_on_c, 1, 48, 0
3, 2999, Note_on_c, 1, 55, 0
3, 3030, Note_on_c, 1, 60, 65
3, 3059, Note_on_c, 1, 60, 0
3, 3060, Note_on_c, 1, 60, 65
3, 3239, Note_on_c, 1, 60, 0
3, 3270, Note_on_c, 1, 62, 65
3, 3299, Note_on_c, 1, 62, 0
3, 3300, Note_on_c, 1, 62, 65
3, 3479, Note_on_c, 1, 62, 0
3, 3510, Note_on_c, 1, 64, 65
3, 3539, Note_on_c, 1, 64, 0
3, 3540, Note_on_c, 1, 64, 65
3, 3719, Note_on_c, 1, 64, 0
3, 3720, Note_on_c, 1, 57, 65
3, 3809, Note_on_c, 1, 57, 0
3, 3810, Note_on_c, 1, 59, 65
3, 3839, Note_on_c, 1, 59, 0
3, 3870, Note_on_c, 1, 60, 65
3, 3899, Note_on_c, 1, 60, 0
3, 3900, Note_on_c, 1, 59, 65
3, 3929, Note_on_c, 1, 59, 0
3, 3930, Note_on_c, 1, 57, 65
3, 3959, Note_on_c, 1, 57, 0
3, 3960, Note_on_c, 1, 59, 65
3, 4079, Note_on_c, 1, 59, 0
3, 4080, Note_on_c, 1, 57, 65
3, 4439, Note_on_c, 1, 57, 0
3, 4440, Note_on_c, 1, 55, 65
3, 4559, Note_on_c, 1, 55, 0
3, 4560, Note_on_c, 1, 54, 65
3, 4679, Note_on_c, 1, 54, 0
3, 4680, Note_on_c, 1, 52, 65
3, 4799, Note_on_c, 1, 52, 0
3, 4800, Note_on_c, 1, 51, 65
3, 4814, Note_on_c, 1, 51, 0
3, 4815, Note_on_c, 1, 59, 65
3, 4829, Note_on_c, 1, 59, 0
3, 4830, Note_on_c, 1, 54, 65
3, 4844, Note_on_c, 1, 54, 0
3, 4845, Note_on_c, 1, 59, 65
3, 4859, Note_on_c, 1, 59, 0
3, 4860, Note_on_c, 1, 51, 65
3, 4874, Note_on_c, 1, 51, 0
3, 4875, Note_on_c, 1, 59, 65
3, 4889, Note_on_c, 1, 59, 0
3, 4890, Note_on_c, 1, 54, 65
3, 4904, Note_on_c, 1, 54, 0
3, 4905, Note_on_c, 1, 59, 65
3, 4919, Note_on_c, 1, 59, 0
3, 4920, Note_on_c, 1, 52, 65
3, 4934, Note_on_c, 1, 52, 0
3, 4935, Note_on_c, 1, 59, 65
3, 4949, Note_on_c, 1, 59, 0
3, 4950, Note_on_c, 1, 55, 65
3, 4964, Note_on_c, 1, 55, 0
3, 4965, Note_on_c, 1, 59, 65
3, 4979, Note_on_c, 1, 59, 0
3, 4980, Note_on_c, 1, 52, 65
3, 4994, Note_on_c, 1, 52, 0
3, 4995, Note_on_c, 1, 59, 65
3, 5009, Note_on_c, 1, 59, 0
3, 5010, Note_on_c, 1, 55, 65
3, 5024, Note_on_c, 1, 55, 0
3, 5025, Note_on_c, 1, 59, 65
3, 5039, Note_on_c, 1, 59, 0
3, 5040, Note_on_c, 1, 50, 65
3, 5099, Note_on_c, 1, 50, 0
3, 5100, Note_on_c, 1, 52, 65
3, 5159, Note_on_c, 1, 52, 0
3, 5160, Note_on_c, 1, 59, 65
3, 5219, Note_on_c, 1, 59, 0
3, 5220, Note_on_c, 1, 47, 65
3, 5279, Note_on_c, 1, 47, 0
3, 5280, Note_on_c, 1, 59, 65
3, 5280, Note_on_c, 1, 55, 65
3, 5280, Note_on_c, 1, 52, 65
3, 5399, Note_on_c, 1, 52, 0
3, 5399, Note_on_c, 1, 55, 0
3, 5399, Note_on_c, 1, 59, 0
3, 5520, Note_on_c, 1, 64, 65
3, 5534, Note_on_c, 1, 64, 0
3, 5535, Note_on_c, 1, 62, 65
3, 5549, Note_on_c, 1, 62, 0
3, 5550, Note_on_c, 1, 60, 65
3, 5564, Note_on_c, 1, 60, 0
3, 5565, Note_on_c, 1, 62, 65
3, 5579, Note_on_c, 1, 62, 0
3, 5580, Note_on_c, 1, 64, 65
3, 5609, Note_on_c, 1, 64, 0
3, 5610, Note_on_c, 1, 60, 65
3, 5639, Note_on_c, 1, 60, 0
3, 5640, Note_on_c, 1, 64, 65
3, 5654, Note_on_c, 1, 64, 0
3, 5670, Note_on_c, 1, 64, 65
3, 5699, Note_on_c, 1, 64, 0
3, 5700, Note_on_c, 1, 65, 65
3, 5707, Note_on_c, 1, 64, 65
3, 5707, Note_on_c, 1, 65, 0
3, 5714, Note_on_c, 1, 64, 0
3, 5715, Note_on_c, 1, 65, 65
3, 5722, Note_on_c, 1, 64, 65
3, 5722, Note_on_c, 1, 65, 0
3, 5729, Note_on_c, 1, 64, 0
3, 5730, Note_on_c, 1, 65, 65
3, 5737, Note_on_c, 1, 64, 65
3, 5737, Note_on_c, 1, 65, 0
3, 5744, Note_on_c, 1, 64, 0
3, 5745, Note_on_c, 1, 62, 65
3, 5752, Note_on_c, 1, 64, 65
3, 5752, Note_on_c, 1, 62, 0
3, 5759, Note_on_c, 1, 64, 0
3, 5760, Note_on_c, 1, 65, 65
3, 5879, Note_on_c, 1, 65, 0
3, 6000, Note_on_c, 1, 66, 65
3, 6014, Note_on_c, 1, 66, 0
3, 6015, Note_on_c, 1, 64, 65
3, 6029, Note_on_c, 1, 64, 0
3, 6030, Note_on_c, 1, 62, 65
3, 6044, Note_on_c, 1, 62, 0
3, 6045, Note_on_c, 1, 64, 65
3, 6059, Note_on_c, 1, 64, 0
3, 6060, Note_on_c, 1, 66, 65
3, 6089, Note_on_c, 1, 66, 0
3, 6090, Note_on_c, 1, 62, 65
3, 6119, Note_on_c, 1, 62, 0
3, 6120, Note_on_c, 1, 66, 65
3, 6134, Note_on_c, 1, 66, 0
3, 6150, Note_on_c, 1, 66, 65
3, 6179, Note_on_c, 1, 66, 0
3, 6180, Note_on_c, 1, 67, 65
3, 6187, Note_on_c, 1, 66, 65
3, 6187, Note_on_c, 1, 67, 0
3, 6194, Note_on_c, 1, 66, 0
3, 6195, Note_on_c, 1, 67, 65
3, 6202, Note_on_c, 1, 66, 65
3, 6202, Note_on_c, 1, 67, 0
3, 6209, Note_on_c, 1, 66, 0
3, 6210, Note_on_c, 1, 67, 65
3, 6217, Note_on_c, 1, 66, 65
3, 6217, Note_on_c, 1, 67, 0
3, 6224, Note_on_c, 1, 66, 0
3, 6225, Note_on_c, 1, 64, 65
3, 6232, Note_on_c, 1, 66, 65
3, 6232, Note_on_c, 1, 64, 0
3, 6239, Note_on_c, 1, 66, 0
3, 6240, Note_on_c, 1, 67, 65
3, 6359, Note_on_c, 1, 67, 0
3, 6480, Note_on_c, 1, 68, 65
3, 6494, Note_on_c, 1, 68, 0
3, 6495, Note_on_c, 1, 66, 65
3, 6509, Note_on_c, 1, 66, 0
3, 6510, Note_on_c, 1, 64, 65
3, 6524, Note_on_c, 1, 64, 0
3, 6525, Note_on_c, 1, 66, 65
3, 6539, Note_on_c, 1, 66, 0
3, 6540, Note_on_c, 1, 68, 65
3, 6569, Note_on_c, 1, 68, 0
3, 6570, Note_on_c, 1, 64, 65
3, 6599, Note_on_c, 1, 64, 0
3, 6600, Note_on_c, 1, 68, 65
3, 6614, Note_on_c, 1, 68, 0
3, 6630, Note_on_c, 1, 68, 65
3, 6659, Note_on_c, 1, 68, 0
3, 6660, Note_on_c, 1, 69, 65
3, 6667, Note_on_c, 1, 68, 65
3, 6667, Note_on_c, 1, 69, 0
3, 6674, Note_on_c, 1, 68, 0
3, 6675, Note_on_c, 1, 69, 65
3, 6682, Note_on_c, 1, 68, 65
3, 6682, Note_on_c, 1, 69, 0
3, 6689, Note_on_c, 1, 68, 0
3, 6690, Note_on_c, 1, 69, 65
3, 6697, Note_on_c, 1, 68, 65
3, 6697, Note_on_c, 1, 69, 0
3, 6704, Note_on_c, 1, 68, 0
3, 6705, Note_on_c, 1, 66, 65
3, 6712, Note_on_c, 1, 68, 65
3, 6712, Note_on_c, 1, 66, 0
3, 6719, Note_on_c, 1, 68, 0
3, 6720, Note_on_c, 1, 69, 65
3, 6839, Note_on_c, 1, 69, 0
3, 6900, Note_on_c, 1, 72, 65
3, 6900, Note_on_c, 1, 69, 65
3, 6959, Note_on_c, 1, 69, 0
3, 6959, Note_on_c, 1, 72, 0
3, 6960, Note_on_c, 1, 67, 65
3, 6960, Note_on_c, 1, 71, 65
3, 7019, Note_on_c, 1, 71, 0
3, 7019, Note_on_c, 1, 67, 0
3, 7020, Note_on_c, 1, 69, 65
3, 7020, Note_on_c, 1, 65, 65
3, 7079, Note_on_c, 1, 65, 0
3, 7079, Note_on_c, 1, 69, 0
3, 7080, Note_on_c, 1, 64, 65
3, 7080, Note_on_c, 1, 67, 65
3, 7139, Note_on_c, 1, 67, 0
3, 7139, Note_on_c, 1, 64, 0
3, 7140, Note_on_c, 1, 62, 65
3, 7140, Note_on_c, 1, 65, 65
3, 7199, Note_on_c, 1, 65, 0
3, 7199, Note_on_c, 1, 62, 0
3, 7200, Note_on_c, 1, 64, 65
3, 7200, Note_on_c, 1, 60, 65
3, 7259, Note_on_c, 1, 60, 0
3, 7259, Note_on_c, 1, 64, 0
3, 7260, Note_on_c, 1, 59, 65
3, 7260, Note_on_c, 1, 62, 65
3, 7319, Note_on_c, 1, 62, 0
3, 7319, Note_on_c, 1, 59, 0
3, 7320, Note_on_c, 1, 60, 65
3, 7320, Note_on_c, 1, 57, 65
3, 7379, Note_on_c, 1, 57, 0
3, 7379, Note_on_c, 1, 60, 0
3, 7380, Note_on_c, 1, 56, 65
3, 7380, Note_on_c, 1, 64, 65
3, 7439, Note_on_c, 1, 64, 0
3, 7439, Note_on_c, 1, 56, 0
3, 7440, Note_on_c, 1, 64, 65
3, 7440, Note_on_c, 1, 57, 65
3, 7559, Note_on_c, 1, 57, 0
3, 7559, Note_on_c, 1, 64, 0
3, 7830, Note_on_c, 1, 57, 65
3, 7859, Note_on_c, 1, 57, 0
3, 7860, Note_on_c, 1, 60, 65
3, 7889, Note_on_c, 1, 60, 0
3, 7890, Note_on_c, 1, 57, 65
3, 7919, Note_on_c, 1, 57, 0
3, 7920, Note_on_c, 1, 62, 65
3, 8009, Note_on_c, 1, 62, 0
3, 8010, Note_on_c, 1, 64, 65
3, 8039, Note_on_c, 1, 64, 0
3, 8040, Note_on_c, 1, 65, 65
3, 8069, Note_on_c, 1, 65, 0
3, 8070, Note_on_c, 1, 64, 65
3, 8099, Note_on_c, 1, 64, 0
3, 8100, Note_on_c, 1, 62, 65
3, 8129, Note_on_c, 1, 62, 0
3, 8130, Note_on_c, 1, 60, 65
3, 8159, Note_on_c, 1, 60, 0
3, 8160, Note_on_c, 1, 64, 65
3, 8160, Note_on_c, 1, 59, 65
3, 8279, Note_on_c, 1, 59, 0
3, 8280, Note_on_c, 1, 60, 65
3, 8339, Note_on_c, 1, 60, 0
3, 8340, Note_on_c, 1, 59, 65
3, 8369, Note_on_c, 1, 59, 0
3, 8370, Note_on_c, 1, 57, 65
3, 8399, Note_on_c, 1, 57, 0
3, 8400, Note_on_c, 1, 59, 65
3, 8579, Note_on_c, 1, 64, 0
3, 8580, Note_on_c, 1, 62, 65
3, 8639, Note_on_c, 1, 62, 0
3, 8639, Note_on_c, 1, 59, 0
3, 8640, Note_on_c, 1, 64, 65
3, 8640, Note_on_c, 1, 60, 65
3, 8864, Note_on_c, 1, 60, 0
3, 8864, Note_on_c, 1, 64, 0
3, 10920, Note_on_c, 1, 64, 65
3, 10979, Note_on_c, 1, 64, 0
3, 10980, Note_on_c, 1, 66, 65
3, 11039, Note_on_c, 1, 66, 0
3, 11040, Note_on_c, 1, 67, 65
3, 11099, Note_on_c, 1, 67, 0
3, 11100, Note_on_c, 1, 69, 65
3, 11159, Note_on_c, 1, 69, 0
3, 11160, Note_on_c, 1, 71, 65
3, 11219, Note_on_c, 1, 71, 0
3, 11220, Note_on_c, 1, 69, 65
3, 11279, Note_on_c, 1, 69, 0
3, 11280, Note_on_c, 1, 71, 65
3, 11339, Note_on_c, 1, 71, 0
3, 11340, Note_on_c, 1, 67, 65
3, 11399, Note_on_c, 1, 67, 0
3, 11400, Note_on_c, 1, 66, 65
3, 11459, Note_on_c, 1, 66, 0
3, 11460, Note_on_c, 1, 64, 65
3, 11519, Note_on_c, 1, 64, 0
3, 11520, Note_on_c, 1, 72, 65
3, 11759, Note_on_c, 1, 72, 0
3, 11760, Note_on_c, 1, 71, 65
3, 11819, Note_on_c, 1, 71, 0
3, 11820, Note_on_c, 1, 69, 65
3, 11879, Note_on_c, 1, 69, 0
3, 11880, Note_on_c, 1, 71, 65
3, 12119, Note_on_c, 1, 71, 0
3, 12120, Note_on_c, 1, 69, 65
3, 12179, Note_on_c, 1, 69, 0
3, 12180, Note_on_c, 1, 67, 65
3, 12239, Note_on_c, 1, 67, 0
3, 12240, Note_on_c, 1, 69, 65
3, 12359, Note_on_c, 1, 69, 0
3, 12360, Note_on_c, 1, 67, 65
3, 12389, Note_on_c, 1, 67, 0
3, 12420, Note_on_c, 1, 67, 65
3, 12449, Note_on_c, 1, 67, 0
3, 12450, Note_on_c, 1, 66, 65
3, 12479, Note_on_c, 1, 66, 0
3, 12480, Note_on_c, 1, 67, 65
3, 12509, Note_on_c, 1, 67, 0
3, 12510, Note_on_c, 1, 66, 65
3, 12599, Note_on_c, 1, 66, 0
3, 12600, Note_on_c, 1, 67, 65
3, 12779, Note_on_c, 1, 67, 0
3, 12780, Note_on_c, 1, 68, 65
3, 12959, Note_on_c, 1, 68, 0
3, 12960, Note_on_c, 1, 69, 65
3, 13139, Note_on_c, 1, 69, 0
3, 13260, Note_on_c, 1, 57, 65
3, 13319, Note_on_c, 1, 57, 0
3, 13320, Note_on_c, 1, 59, 65
3, 13379, Note_on_c, 1, 59, 0
3, 13380, Note_on_c, 1, 60, 65
3, 13439, Note_on_c, 1, 60, 0
3, 13440, Note_on_c, 1, 62, 65
3, 13499, Note_on_c, 1, 62, 0
3, 13500, Note_on_c, 1, 64, 65
3, 13559, Note_on_c, 1, 64, 0
3, 13560, Note_on_c, 1, 62, 65
3, 13619, Note_on_c, 1, 62, 0
3, 13620, Note_on_c, 1, 64, 65
3, 13679, Note_on_c, 1, 64, 0
3, 13680, Note_on_c, 1, 60, 65
3, 13739, Note_on_c, 1, 60, 0
3, 13740, Note_on_c, 1, 59, 65
3, 13799, Note_on_c, 1, 59, 0
3, 13800, Note_on_c, 1, 57, 65
3, 13859, Note_on_c, 1, 57, 0
3, 13860, Note_on_c, 1, 65, 65
3, 14099, Note_on_c, 1, 65, 0
3, 14100, Note_on_c, 1, 64, 65
3, 14159, Note_on_c, 1, 64, 0
3, 14160, Note_on_c, 1, 62, 65
3, 14219, Note_on_c, 1, 62, 0
3, 14220, Note_on_c, 1, 64, 65
3, 14459, Note_on_c, 1, 64, 0
3, 14460, Note_on_c, 1, 62, 65
3, 14519, Note_on_c, 1, 62, 0
3, 14520, Note_on_c, 1, 60, 65
3, 14579, Note_on_c, 1, 60, 0
3, 14580, Note_on_c, 1, 62, 65
3, 14699, Note_on_c, 1, 62, 0
3, 14700, Note_on_c, 1, 64, 65
3, 14700, Note_on_c, 1, 60, 65
3, 14759, Note_on_c, 1, 60, 0
3, 14759, Note_on_c, 1, 64, 0
3, 14760, Note_on_c, 1, 63, 65
3, 14760, Note_on_c, 1, 59, 65
3, 14939, Note_on_c, 1, 59, 0
3, 14939, Note_on_c, 1, 63, 0
3, 14940, Note_on_c, 1, 64, 65
3, 15059, Note_on_c, 1, 64, 0
3, 15060, Note_on_c, 1, 52, 65
3, 15119, Note_on_c, 1, 52, 0
3, 15120, Note_on_c, 1, 54, 65
3, 15179, Note_on_c, 1, 54, 0
3, 15180, Note_on_c, 1, 55, 65
3, 15239, Note_on_c, 1, 55, 0
3, 15240, Note_on_c, 1, 57, 65
3, 15299, Note_on_c, 1, 57, 0
3, 15300, Note_on_c, 1, 59, 65
3, 15359, Note_on_c, 1, 59, 0
3, 15360, Note_on_c, 1, 57, 65
3, 15419, Note_on_c, 1, 57, 0
3, 15420, Note_on_c, 1, 59, 65
3, 15479, Note_on_c, 1, 59, 0
3, 15480, Note_on_c, 1, 55, 65
3, 15539, Note_on_c, 1, 55, 0
3, 15540, Note_on_c, 1, 54, 65
3, 15599, Note_on_c, 1, 54, 0
3, 15600, Note_on_c, 1, 52, 65
3, 15659, Note_on_c, 1, 52, 0
3, 15660, Note_on_c, 1, 60, 65
3, 15899, Note_on_c, 1, 60, 0
3, 15900, Note_on_c, 1, 59, 65
3, 15959, Note_on_c, 1, 59, 0
3, 15960, Note_on_c, 1, 57, 65
3, 16019, Note_on_c, 1, 57, 0
3, 16020, Note_on_c, 1, 59, 65
3, 16259, Note_on_c, 1, 59, 0
3, 16260, Note_on_c, 1, 57, 65
3, 16319, Note_on_c, 1, 57, 0
3, 16320, Note_on_c, 1, 56, 65
3, 16379, Note_on_c, 1, 56, 0
3, 16380, Note_on_c, 1, 57, 65
3, 16619, Note_on_c, 1, 57, 0
3, 16620, Note_on_c, 1, 59, 65
3, 16679, Note_on_c, 1, 59, 0
3, 16680, Note_on_c, 1, 57, 65
3, 16739, Note_on_c, 1, 57, 0
3, 16740, Note_on_c, 1, 55, 65
3, 16799, Note_on_c, 1, 55, 0
3, 16800, Note_on_c, 1, 54, 65
3, 16859, Note_on_c, 1, 54, 0
3, 16860, Note_on_c, 1, 52, 65
3, 16919, Note_on_c, 1, 52, 0
3, 16920, Note_on_c, 1, 54, 65
3, 17099, Note_on_c, 1, 54, 0
3, 17100, Note_on_c, 1, 59, 65
3, 17279, Note_on_c, 1, 59, 0
3, 17280, Note_on_c, 1, 52, 65
3, 17339, Note_on_c, 1, 52, 0
3, 17340, Note_on_c, 1, 54, 65
3, 17399, Note_on_c, 1, 54, 0
3, 17400, Note_on_c, 1, 55, 65
3, 17459, Note_on_c, 1, 55, 0
3, 17460, Note_on_c, 1, 57, 65
3, 17519, Note_on_c, 1, 57, 0
3, 17520, Note_on_c, 1, 55, 65
3, 17579, Note_on_c, 1, 55, 0
3, 17580, Note_on_c, 1, 57, 65
3, 17639, Note_on_c, 1, 57, 0
3, 17640, Note_on_c, 1, 50, 65
3, 17699, Note_on_c, 1, 50, 0
3, 17700, Note_on_c, 1, 52, 65
3, 17759, Note_on_c, 1, 52, 0
3, 17760, Note_on_c, 1, 53, 65
3, 17819, Note_on_c, 1, 53, 0
3, 17820, Note_on_c, 1, 55, 65
3, 17879, Note_on_c, 1, 55, 0
3, 17880, Note_on_c, 1, 53, 65
3, 17939, Note_on_c, 1, 53, 0
3, 17940, Note_on_c, 1, 55, 65
3, 17999, Note_on_c, 1, 55, 0
3, 18000, Note_on_c, 1, 48, 65
3, 18059, Note_on_c, 1, 48, 0
3, 18060, Note_on_c, 1, 50, 65
3, 18119, Note_on_c, 1, 50, 0
3, 18120, Note_on_c, 1, 52, 65
3, 18179, Note_on_c, 1, 52, 0
3, 18180, Note_on_c, 1, 53, 65
3, 18239, Note_on_c, 1, 53, 0
3, 18240, Note_on_c, 1, 52, 65
3, 18299, Note_on_c, 1, 52, 0
3, 18300, Note_on_c, 1, 53, 65
3, 18359, Note_on_c, 1, 53, 0
3, 18360, Note_on_c, 1, 47, 65
3, 18419, Note_on_c, 1, 47, 0
3, 18420, Note_on_c, 1, 48, 65
3, 18479, Note_on_c, 1, 48, 0
3, 18480, Note_on_c, 1, 50, 65
3, 18539, Note_on_c, 1, 50, 0
3, 18540, Note_on_c, 1, 52, 65
3, 18599, Note_on_c, 1, 52, 0
3, 18600, Note_on_c, 1, 50, 65
3, 18659, Note_on_c, 1, 50, 0
3, 18660, Note_on_c, 1, 52, 65
3, 18660, Note_on_c, 1, 56, 65
3, 18719, Note_on_c, 1, 56, 0
3, 18719, Note_on_c, 1, 52, 0
3, 18720, Note_on_c, 1, 57, 65
3, 18780, Note_on_c, 1, 59, 65
3, 18839, Note_on_c, 1, 59, 0
3, 18840, Note_on_c, 1, 60, 65
3, 18899, Note_on_c, 1, 60, 0
3, 18899, Note_on_c, 1, 57, 0
3, 18900, Note_on_c, 1, 59, 65
3, 18959, Note_on_c, 1, 59, 0
3, 18960, Note_on_c, 1, 60, 65
3, 19019, Note_on_c, 1, 60, 0
3, 19020, Note_on_c, 1, 57, 65
3, 19049, Note_on_c, 1, 57, 0
3, 19080, Note_on_c, 1, 57, 65
3, 19080, Note_on_c, 1, 59, 65
3, 19259, Note_on_c, 1, 57, 0
3, 19260, Note_on_c, 1, 56, 65
3, 19439, Note_on_c, 1, 56, 0
3, 19439, Note_on_c, 1, 59, 0
3, 19440, Note_on_c, 1, 57, 65
3, 19619, Note_on_c, 1, 57, 0
3, 19740, Note_on_c, 1, 62, 65
3, 19799, Note_on_c, 1, 62, 0
3, 19800, Note_on_c, 1, 64, 65
3, 19859, Note_on_c, 1, 64, 0
3, 19860, Note_on_c, 1, 65, 65
3, 19919, Note_on_c, 1, 65, 0
3, 19920, Note_on_c, 1, 67, 65
3, 19979, Note_on_c, 1, 67, 0
3, 19980, Note_on_c, 1, 69, 65
3, 20039, Note_on_c, 1, 69, 0
3, 20040, Note_on_c, 1, 67, 65
3, 20099, Note_on_c, 1, 67, 0
3, 20100, Note_on_c, 1, 69, 65
3, 20159, Note_on_c, 1, 69, 0
3, 20160, Note_on_c, 1, 65, 65
3, 20219, Note_on_c, 1, 65, 0
3, 20220, Note_on_c, 1, 64, 65
3, 20279, Note_on_c, 1, 64, 0
3, 20280, Note_on_c, 1, 62, 65
3, 20339, Note_on_c, 1, 62, 0
3, 20340, Note_on_c, 1, 70, 65
3, 20579, Note_on_c, 1, 70, 0
3, 20580, Note_on_c, 1, 69, 65
3, 20639, Note_on_c, 1, 69, 0
3, 20640, Note_on_c, 1, 67, 65
3, 20699, Note_on_c, 1, 67, 0
3, 20700, Note_on_c, 1, 69, 65
3, 20879, Note_on_c, 1, 69, 0
3, 21180, Note_on_c, 1, 69, 65
3, 21209, Note_on_c, 1, 69, 0
3, 21240, Note_on_c, 1, 69, 65
3, 21419, Note_on_c, 1, 69, 0
3, 21420, Note_on_c, 1, 68, 65
3, 21420, Note_on_c, 1, 64, 65
3, 21599, Note_on_c, 1, 68, 0
3, 21600, Note_on_c, 1, 69, 65
3, 21779, Note_on_c, 1, 69, 0
3, 21779, Note_on_c, 1, 64, 0
3, 21780, Note_on_c, 1, 69, 65
3, 21780, Note_on_c, 1, 65, 65
3, 21959, Note_on_c, 1, 65, 0
3, 22020, Note_on_c, 1, 67, 65
3, 22079, Note_on_c, 1, 67, 0
3, 22080, Note_on_c, 1, 65, 65
3, 22139, Note_on_c, 1, 65, 0
3, 22139, Note_on_c, 1, 69, 0
3, 22140, Note_on_c, 1, 67, 65
3, 22380, Note_on_c, 1, 65, 65
3, 22439, Note_on_c, 1, 65, 0
3, 22440, Note_on_c, 1, 64, 65
3, 22499, Note_on_c, 1, 64, 0
3, 22499, Note_on_c, 1, 67, 0
3, 22500, Note_on_c, 1, 65, 65
3, 22740, Note_on_c, 1, 64, 65
3, 22799, Note_on_c, 1, 64, 0
3, 22800, Note_on_c, 1, 62, 65
3, 22859, Note_on_c, 1, 62, 0
3, 22859, Note_on_c, 1, 65, 0
3, 22860, Note_on_c, 1, 64, 65
3, 23100, Note_on_c, 1, 62, 65
3, 23159, Note_on_c, 1, 62, 0
3, 23160, Note_on_c, 1, 60, 65
3, 23219, Note_on_c, 1, 60, 0
3, 23219, Note_on_c, 1, 64, 0
3, 23220, Note_on_c, 1, 59, 65
3, 23519, Note_on_c, 1, 59, 0
3, 23520, Note_on_c, 1, 52, 65
3, 23579, Note_on_c, 1, 52, 0
3, 23580, Note_on_c, 1, 54, 65
3, 23639, Note_on_c, 1, 54, 0
3, 23640, Note_on_c, 1, 55, 65
3, 23699, Note_on_c, 1, 55, 0
3, 23700, Note_on_c, 1, 57, 65
3, 23759, Note_on_c, 1, 57, 0
3, 23760, Note_on_c, 1, 59, 65
3, 23819, Note_on_c, 1, 59, 0
3, 23820, Note_on_c, 1, 57, 65
3, 23879, Note_on_c, 1, 57, 0
3, 23880, Note_on_c, 1, 59, 65
3, 23939, Note_on_c, 1, 59, 0
3, 23940, Note_on_c, 1, 56, 65
3, 23940, Note_on_c, 1, 59, 65
3, 23999, Note_on_c, 1, 56, 0
3, 24000, Note_on_c, 1, 54, 65
3, 24059, Note_on_c, 1, 54, 0
3, 24060, Note_on_c, 1, 52, 65
3, 24119, Note_on_c, 1, 52, 0
3, 24119, Note_on_c, 1, 59, 0
3, 24120, Note_on_c, 1, 60, 65
3, 24120, Note_on_c, 1, 57, 65
3, 24299, Note_on_c, 1, 57, 0
3, 24299, Note_on_c, 1, 60, 0
3, 24300, Note_on_c, 1, 59, 65
3, 24300, Note_on_c, 1, 57, 65
3, 24479, Note_on_c, 1, 57, 0
3, 24480, Note_on_c, 1, 56, 65
3, 24659, Note_on_c, 1, 56, 0
3, 24659, Note_on_c, 1, 59, 0
3, 24660, Note_on_c, 1, 64, 65
3, 24660, Note_on_c, 1, 57, 65
3, 24779, Note_on_c, 1, 57, 0
3, 24779, Note_on_c, 1, 64, 0
3, 24840, Note_on_c, 1, 60, 65
3, 24899, Note_on_c, 1, 60, 0
3, 24900, Note_on_c, 1, 59, 65
3, 24959, Note_on_c, 1, 59, 0
3, 24960, Note_on_c, 1, 57, 65
3, 25019, Note_on_c, 1, 57, 0
3, 25020, Note_on_c, 1, 59, 65
3, 25259, Note_on_c, 1, 59, 0
3, 25260, Note_on_c, 1, 57, 65
3, 25319, Note_on_c, 1, 57, 0
3, 25320, Note_on_c, 1, 55, 65
3, 25379, Note_on_c, 1, 55, 0
3, 25380, Note_on_c, 1, 57, 65
3, 25619, Note_on_c, 1, 57, 0
3, 25620, Note_on_c, 1, 56, 65
3, 25679, Note_on_c, 1, 56, 0
3, 25680, Note_on_c, 1, 54, 65
3, 25739, Note_on_c, 1, 54, 0
3, 25740, Note_on_c, 1, 56, 65
3, 25919, Note_on_c, 1, 56, 0
3, 25920, Note_on_c, 1, 57, 65
3, 25979, Note_on_c, 1, 57, 0
3, 26040, Note_on_c, 1, 57, 65
3, 26099, Note_on_c, 1, 57, 0
3, 26100, Note_on_c, 1, 59, 65
3, 26159, Note_on_c, 1, 59, 0
3, 26160, Note_on_c, 1, 60, 65
3, 26219, Note_on_c, 1, 60, 0
3, 26220, Note_on_c, 1, 62, 65
3, 26279, Note_on_c, 1, 62, 0
3, 26280, Note_on_c, 1, 64, 65
3, 26339, Note_on_c, 1, 64, 0
3, 26340, Note_on_c, 1, 62, 65
3, 26399, Note_on_c, 1, 62, 0
3, 26400, Note_on_c, 1, 64, 65
3, 26459, Note_on_c, 1, 64, 0
3, 26460, Note_on_c, 1, 60, 65
3, 26519, Note_on_c, 1, 60, 0
3, 26520, Note_on_c, 1, 59, 65
3, 26579, Note_on_c, 1, 59, 0
3, 26580, Note_on_c, 1, 57, 65
3, 26639, Note_on_c, 1, 57, 0
3, 26640, Note_on_c, 1, 59, 65
3, 26939, Note_on_c, 1, 59, 0
3, 26940, Note_on_c, 1, 62, 65
3, 27059, Note_on_c, 1, 62, 0
3, 27120, Note_on_c, 1, 62, 65
3, 27179, Note_on_c, 1, 62, 0
3, 27180, Note_on_c, 1, 61, 65
3, 27299, Note_on_c, 1, 61, 0
3, 27300, Note_on_c, 1, 59, 65
3, 27359, Note_on_c, 1, 59, 0
3, 27360, Note_on_c, 1, 61, 65
3, 27360, Note_on_c, 1, 57, 65
3, 28079, Note_on_c, 1, 57, 0
3, 28079, Note_on_c, 1, 61, 0
3, 28079, End_track
4, 0, Start_track
4, 0, Title_t, "Pedal"
4, 0, Instrument_name_t, "Pipe Organ"
4, 480, Note_on_c, 1, 33, 64
4, 599, Note_on_c, 1, 33, 0
4, 1920, Note_on_c, 1, 33, 64
4, 1949, Note_on_c, 1, 33, 0
4, 1980, Note_on_c, 1, 33, 64
4, 2009, Note_on_c, 1, 33, 0
4, 2040, Note_on_c, 1, 33, 64
4, 2069, Note_on_c, 1, 33, 0
4, 2100, Note_on_c, 1, 33, 64
4, 2129, Note_on_c, 1, 33, 0
4, 2160, Note_on_c, 1, 38, 64
4, 2279, Note_on_c, 1, 38, 0
4, 2640, Note_on_c, 1, 31, 64
4, 2669, Note_on_c, 1, 31, 0
4, 2700, Note_on_c, 1, 31, 64
4, 2729, Note_on_c, 1, 31, 0
4, 2760, Note_on_c, 1, 31, 64
4, 2789, Note_on_c, 1, 31, 0
4, 2820, Note_on_c, 1, 31, 64
4, 2849, Note_on_c, 1, 31, 0
4, 2880, Note_on_c, 1, 36, 64
4, 2999, Note_on_c, 1, 36, 0
4, 3030, Note_on_c, 1, 36, 64
4, 3059, Note_on_c, 1, 36, 0
4, 3060, Note_on_c, 1, 40, 64
4, 3089, Note_on_c, 1, 40, 0
4, 3090, Note_on_c, 1, 36, 64
4, 3119, Note_on_c, 1, 36, 0
4, 3120, Note_on_c, 1, 41, 64
4, 3239, Note_on_c, 1, 41, 0
4, 3270, Note_on_c, 1, 38, 64
4, 3299, Note_on_c, 1, 38, 0
4, 3300, Note_on_c, 1, 42, 64
4, 3329, Note_on_c, 1, 42, 0
4, 3330, Note_on_c, 1, 38, 64
4, 3359, Note_on_c, 1, 38, 0
4, 3360, Note_on_c, 1, 43, 64
4, 3479, Note_on_c, 1, 43, 0
4, 3510, Note_on_c, 1, 40, 64
4, 3539, Note_on_c, 1, 40, 0
4, 3540, Note_on_c, 1, 44, 64
4, 3569, Note_on_c, 1, 44, 0
4, 3570, Note_on_c, 1, 40, 64
4, 3599, Note_on_c, 1, 40, 0
4, 3600, Note_on_c, 1, 45, 64
4, 3659, Note_on_c, 1, 45, 0
4, 3660, Note_on_c, 1, 43, 64
4, 3719, Note_on_c, 1, 43, 0
4, 3720, Note_on_c, 1, 41, 64
4, 3839, Note_on_c, 1, 41, 0
4, 3840, Note_on_c, 1, 40, 64
4, 4079, Note_on_c, 1, 40, 0
4, 4080, Note_on_c, 1, 33, 64
4, 4319, Note_on_c, 1, 33, 0
4, 4320, Note_on_c, 1, 35, 64
4, 5279, Note_on_c, 1, 35, 0
4, 5280, Note_on_c, 1, 40, 64
4, 5399, Note_on_c, 1, 40, 0
4, 5520, Note_on_c, 1, 36, 64
4, 5639, Note_on_c, 1, 36, 0
4, 5790, Note_on_c, 1, 36, 64
4, 5819, Note_on_c, 1, 36, 0
4, 5820, Note_on_c, 1, 33, 64
4, 5849, Note_on_c, 1, 33, 0
4, 5850, Note_on_c, 1, 36, 64
4, 5879, Note_on_c, 1, 36, 0
4, 5880, Note_on_c, 1, 29, 64
4, 5999, Note_on_c, 1, 29, 0
4, 6000, Note_on_c, 1, 38, 64
4, 6119, Note_on_c, 1, 38, 0
4, 6270, Note_on_c, 1, 38, 64
4, 6299, Note_on_c, 1, 38, 0
4, 6300, Note_on_c, 1, 35, 64
4, 6329, Note_on_c, 1, 35, 0
4, 6330, Note_on_c, 1, 38, 64
4, 6359, Note_on_c, 1, 38, 0
4, 6360, Note_on_c, 1, 31, 64
4, 6479, Note_on_c, 1, 31, 0
4, 6480, Note_on_c, 1, 40, 64
4, 6599, Note_on_c, 1, 40, 0
4, 6750, Note_on_c, 1, 40, 64
4, 6779, Note_on_c, 1, 40, 0
4, 6780, Note_on_c, 1, 36, 64
4, 6809, Note_on_c, 1, 36, 0
4, 6810, Note_on_c, 1, 40, 64
4, 6839, Note_on_c, 1, 40, 0
4, 6840, Note_on_c, 1, 33, 64
4, 6959, Note_on_c, 1, 33, 0
4, 7470, Note_on_c, 1, 33, 64
4, 7499, Note_on_c, 1, 33, 0
4, 7500, Note_on_c, 1, 36, 64
4, 7529, Note_on_c, 1, 36, 0
4, 7530, Note_on_c, 1, 33, 64
4, 7559, Note_on_c, 1, 33, 0
4, 7560, Note_on_c, 1, 40, 64
4, 7589, Note_on_c, 1, 40, 0
4, 7590, Note_on_c, 1, 33, 64
4, 7619, Note_on_c, 1, 33, 0
4, 7620, Note_on_c, 1, 36, 64
4, 7649, Note_on_c, 1, 36, 0
4, 7650, Note_on_c, 1, 33, 64
4, 7679, Note_on_c, 1, 33, 0
4, 7680, Note_on_c, 1, 45, 64
4, 7799, Note_on_c, 1, 45, 0
4, 7920, Note_on_c, 1, 38, 64
4, 8159, Note_on_c, 1, 38, 0
4, 8160, Note_on_c, 1, 40, 64
4, 8639, Note_on_c, 1, 40, 0
4, 8640, Note_on_c, 1, 33, 64
4, 8864, Note_on_c, 1, 33, 0
4, 21180, Note_on_c, 1, 33, 64
4, 21239, Note_on_c, 1, 33, 0
4, 21240, Note_on_c, 1, 35, 64
4, 21299, Note_on_c, 1, 35, 0
4, 21300, Note_on_c, 1, 36, 64
4, 21359, Note_on_c, 1, 36, 0
4, 21360, Note_on_c, 1, 38, 64
4, 21419, Note_on_c, 1, 38, 0
4, 21420, Note_on_c, 1, 40, 64
4, 21479, Note_on_c, 1, 40, 0
4, 21480, Note_on_c, 1, 38, 64
4, 21539, Note_on_c, 1, 38, 0
4, 21540, Note_on_c, 1, 40, 64
4, 21599, Note_on_c, 1, 40, 0
4, 21600, Note_on_c, 1, 36, 64
4, 21659, Note_on_c, 1, 36, 0
4, 21660, Note_on_c, 1, 35, 64
4, 21719, Note_on_c, 1, 35, 0
4, 21720, Note_on_c, 1, 33, 64
4, 21779, Note_on_c, 1, 33, 0
4, 21780, Note_on_c, 1, 41, 64
4, 22019, Note_on_c, 1, 41, 0
4, 22020, Note_on_c, 1, 40, 64
4, 22079, Note_on_c, 1, 40, 0
4, 22080, Note_on_c, 1, 38, 64
4, 22139, Note_on_c, 1, 38, 0
4, 22140, Note_on_c, 1, 40, 64
4, 22379, Note_on_c, 1, 40, 0
4, 22380, Note_on_c, 1, 38, 64
4, 22439, Note_on_c, 1, 38, 0
4, 22440, Note_on_c, 1, 36, 64
4, 22499, Note_on_c, 1, 36, 0
4, 22500, Note_on_c, 1, 38, 64
4, 22739, Note_on_c, 1, 38, 0
4, 22740, Note_on_c, 1, 36, 64
4, 22799, Note_on_c, 1, 36, 0
4, 22800, Note_on_c, 1, 35, 64
4, 22859, Note_on_c, 1, 35, 0
4, 22860, Note_on_c, 1, 36, 64
4, 23099, Note_on_c, 1, 36, 0
4, 23100, Note_on_c, 1, 35, 64
4, 23159, Note_on_c, 1, 35, 0
4, 23160, Note_on_c, 1, 33, 64
4, 23219, Note_on_c, 1, 33, 0
4, 23220, Note_on_c, 1, 40, 64
4, 23579, Note_on_c, 1, 40, 0
4, 23580, Note_on_c, 1, 35, 64
4, 23939, Note_on_c, 1, 35, 0
4, 23940, Note_on_c, 1, 40, 64
4, 26999, Note_on_c, 1, 40, 0
4, 27000, Note_on_c, 1, 33, 64
4, 28079, Note_on_c, 1, 33, 0
4, 28079, End_track
0, 0, End_of_file
