0, 0, Header, 1, 4, 120
1, 0, Start_track
1, 0, Key_signature, -2, "major"
1, 0, Tempo, 434782
1, 0, Time_signature, 3, 1, 48, 8
1, 26640, Time_signature, 4, 2, 24, 8
1, 27120, Tempo, 789473
1, 27120, End_track
2, 0, Start_track
2, 0, Title_t, "Right Hand"
2, 0, Instrument_name_t, "Pipe Organ"
2, 840, Note_on_c, 1, 67, 64
2, 959, Note_on_c, 1, 67, 0
2, 960, Note_on_c, 1, 70, 64
2, 1079, Note_on_c, 1, 70, 0
2, 1080, Note_on_c, 1, 74, 64
2, 1199, Note_on_c, 1, 74, 0
2, 1200, Note_on_c, 1, 70, 64
2, 1319, Note_on_c, 1, 70, 0
2, 1320, Note_on_c, 1, 67, 64
2, 1440, Note_on_c, 1, 72, 64
2, 1440, Note_on_c, 1, 75, 64
2, 2159, Note_on_c, 1, 75, 0
2, 2159, Note_on_c, 1, 72, 0
2, 2159, Note_on_c, 1, 67, 0
2, 2280, Note_on_c, 1, 65, 64
2, 2399, Note_on_c, 1, 65, 0
2, 2400, Note_on_c, 1, 69, 64
2, 2519, Note_on_c, 1, 69, 0
2, 2520, Note_on_c, 1, 72, 64
2, 2639, Note_on_c, 1, 72, 0
2, 2640, Note_on_c, 1, 69, 64
2, 2759, Note_on_c, 1, 69, 0
2, 2760, Note_on_c, 1, 65, 64
2, 2880, Note_on_c, 1, 74, 64
2, 2880, Note_on_c, 1, 70, 64
2, 3599, Note_on_c, 1, 70, 0
2, 3599, Note_on_c, 1, 65, 0
2, 3659, Note_on_c, 1, 74, 0
2, 3720, Note_on_c, 1, 74, 64
2, 3839, Note_on_c, 1, 74, 0
2, 3840, Note_on_c, 1, 72, 64
2, 3959, Note_on_c, 1, 72, 0
2, 3960, Note_on_c, 1, 70, 64
2, 4079, Note_on_c, 1, 70, 0
2, 4080, Note_on_c, 1, 69, 64
2, 4139, Note_on_c, 1, 69, 0
2, 4140, Note_on_c, 1, 70, 64
2, 4199, Note_on_c, 1, 70, 0
2, 4200, Note_on_c, 1, 67, 64
2, 4319, Note_on_c, 1, 67, 0
2, 4320, Note_on_c, 1, 66, 64
2, 5039, Note_on_c, 1, 66, 0
2, 5040, Note_on_c, 1, 67, 64
2, 5159, Note_on_c, 1, 67, 0
2, 5160, Note_on_c, 1, 69, 64
2, 5279, Note_on_c, 1, 69, 0
2, 5280, Note_on_c, 1, 70, 64
2, 5399, Note_on_c, 1, 70, 0
2, 5400, Note_on_c, 1, 69, 64
2, 5519, Note_on_c, 1, 69, 0
2, 5520, Note_on_c, 1, 72, 64
2, 5639, Note_on_c, 1, 72, 0
2, 5640, Note_on_c, 1, 69, 64
2, 5759, Note_on_c, 1, 69, 0
2, 5760, Note_on_c, 1, 66, 64
2, 6479, Note_on_c, 1, 66, 0
2, 6540, Note_on_c, 1, 79, 64
2, 6599, Note_on_c, 1, 79, 0
2, 6600, Note_on_c, 1, 77, 64
2, 6659, Note_on_c, 1, 77, 0
2, 6660, Note_on_c, 1, 79, 64
2, 6719, Note_on_c, 1, 79, 0
2, 6720, Note_on_c, 1, 74, 64
2, 6779, Note_on_c, 1, 74, 0
2, 6780, Note_on_c, 1, 79, 64
2, 6839, Note_on_c, 1, 79, 0
2, 6840, Note_on_c, 1, 77, 64
2, 6899, Note_on_c, 1, 77, 0
2, 6900, Note_on_c, 1, 79, 64
2, 6959, Note_on_c, 1, 79, 0
2, 6960, Note_on_c, 1, 71, 64
2, 7019, Note_on_c, 1, 71, 0
2, 7020, Note_on_c, 1, 79, 64
2, 7079, Note_on_c, 1, 79, 0
2, 7080, Note_on_c, 1, 77, 64
2, 7139, Note_on_c, 1, 77, 0
2, 7140, Note_on_c, 1, 79, 64
2, 7199, Note_on_c, 1, 79, 0
2, 7200, Note_on_c, 1, 75, 64
2, 7259, Note_on_c, 1, 75, 0
2, 7260, Note_on_c, 1, 79, 64
2, 7319, Note_on_c, 1, 79, 0
2, 7320, Note_on_c, 1, 77, 64
2, 7379, Note_on_c, 1, 77, 0
2, 7380, Note_on_c, 1, 79, 64
2, 7439, Note_on_c, 1, 79, 0
2, 7440, Note_on_c, 1, 72, 64
2, 7499, Note_on_c, 1, 72, 0
2, 7500, Note_on_c, 1, 75, 64
2, 7559, Note_on_c, 1, 75, 0
2, 7560, Note_on_c, 1, 74, 64
2, 7619, Note_on_c, 1, 74, 0
2, 7620, Note_on_c, 1, 75, 64
2, 7679, Note_on_c, 1, 75, 0
2, 7680, Note_on_c, 1, 67, 64
2, 7739, Note_on_c, 1, 67, 0
2, 7740, Note_on_c, 1, 72, 64
2, 7799, Note_on_c, 1, 72, 0
2, 7800, Note_on_c, 1, 70, 64
2, 7859, Note_on_c, 1, 70, 0
2, 7860, Note_on_c, 1, 72, 64
2, 7919, Note_on_c, 1, 72, 0
2, 7920, Note_on_c, 1, 69, 64
2, 7979, Note_on_c, 1, 69, 0
2, 7980, Note_on_c, 1, 77, 64
2, 8039, Note_on_c, 1, 77, 0
2, 8040, Note_on_c, 1, 75, 64
2, 8099, Note_on_c, 1, 75, 0
2, 8100, Note_on_c, 1, 77, 64
2, 8159, Note_on_c, 1, 77, 0
2, 8160, Note_on_c, 1, 72, 64
2, 8219, Note_on_c, 1, 72, 0
2, 8220, Note_on_c, 1, 77, 64
2, 8279, Note_on_c, 1, 77, 0
2, 8280, Note_on_c, 1, 75, 64
2, 8339, Note_on_c, 1, 75, 0
2, 8340, Note_on_c, 1, 77, 64
2, 8399, Note_on_c, 1, 77, 0
2, 8400, Note_on_c, 1, 69, 64
2, 8459, Note_on_c, 1, 69, 0
2, 8460, Note_on_c, 1, 77, 64
2, 8519, Note_on_c, 1, 77, 0
2, 8520, Note_on_c, 1, 75, 64
2, 8579, Note_on_c, 1, 75, 0
2, 8580, Note_on_c, 1, 77, 64
2, 8639, Note_on_c, 1, 77, 0
2, 8640, Note_on_c, 1, 74, 64
2, 8699, Note_on_c, 1, 74, 0
2, 8700, Note_on_c, 1, 77, 64
2, 8759, Note_on_c, 1, 77, 0
2, 8760, Note_on_c, 1, 75, 64
2, 8819, Note_on_c, 1, 75, 0
2, 8820, Note_on_c, 1, 77, 64
2, 8879, Note_on_c, 1, 77, 0
2, 8880, Note_on_c, 1, 70, 64
2, 8939, Note_on_c, 1, 70, 0
2, 8940, Note_on_c, 1, 74, 64
2, 8999, Note_on_c, 1, 74, 0
2, 9000, Note_on_c, 1, 72, 64
2, 9059, Note_on_c, 1, 72, 0
2, 9060, Note_on_c, 1, 74, 64
2, 9119, Note_on_c, 1, 74, 0
2, 9120, Note_on_c, 1, 65, 64
2, 9179, Note_on_c, 1, 65, 0
2, 9180, Note_on_c, 1, 70, 64
2, 9239, Note_on_c, 1, 70, 0
2, 9240, Note_on_c, 1, 69, 64
2, 9299, Note_on_c, 1, 69, 0
2, 9300, Note_on_c, 1, 70, 64
2, 9359, Note_on_c, 1, 70, 0
2, 9360, Note_on_c, 1, 67, 64
2, 9419, Note_on_c, 1, 67, 0
2, 9420, Note_on_c, 1, 75, 64
2, 9479, Note_on_c, 1, 75, 0
2, 9480, Note_on_c, 1, 74, 64
2, 9539, Note_on_c, 1, 74, 0
2, 9540, Note_on_c, 1, 75, 64
2, 9599, Note_on_c, 1, 75, 0
2, 9600, Note_on_c, 1, 70, 64
2, 9659, Note_on_c, 1, 70, 0
2, 9660, Note_on_c, 1, 75, 64
2, 9719, Note_on_c, 1, 75, 0
2, 9720, Note_on_c, 1, 74, 64
2, 9779, Note_on_c, 1, 74, 0
2, 9780, Note_on_c, 1, 75, 64
2, 9839, Note_on_c, 1, 75, 0
2, 9840, Note_on_c, 1, 67, 64
2, 9899, Note_on_c, 1, 67, 0
2, 9900, Note_on_c, 1, 75, 64
2, 9959, Note_on_c, 1, 75, 0
2, 9960, Note_on_c, 1, 74, 64
2, 10019, Note_on_c, 1, 74, 0
2, 10020, Note_on_c, 1, 75, 64
2, 10079, Note_on_c, 1, 75, 0
2, 10080, Note_on_c, 1, 69, 64
2, 10139, Note_on_c, 1, 69, 0
2, 10140, Note_on_c, 1, 65, 64
2, 10199, Note_on_c, 1, 65, 0
2, 10200, Note_on_c, 1, 72, 64
2, 10259, Note_on_c, 1, 72, 0
2, 10260, Note_on_c, 1, 65, 64
2, 10319, Note_on_c, 1, 65, 0
2, 10320, Note_on_c, 1, 77, 64
2, 10379, Note_on_c, 1, 77, 0
2, 10380, Note_on_c, 1, 65, 64
2, 10439, Note_on_c, 1, 65, 0
2, 10440, Note_on_c, 1, 69, 64
2, 10499, Note_on_c, 1, 69, 0
2, 10500, Note_on_c, 1, 65, 64
2, 10559, Note_on_c, 1, 65, 0
2, 10560, Note_on_c, 1, 72, 64
2, 10619, Note_on_c, 1, 72, 0
2, 10620, Note_on_c, 1, 65, 64
2, 10679, Note_on_c, 1, 65, 0
2, 10680, Note_on_c, 1, 77, 64
2, 10739, Note_on_c, 1, 77, 0
2, 10740, Note_on_c, 1, 65, 64
2, 10799, Note_on_c, 1, 65, 0
2, 10800, Note_on_c, 1, 70, 64
2, 10859, Note_on_c, 1, 70, 0
2, 10860, Note_on_c, 1, 65, 64
2, 10919, Note_on_c, 1, 65, 0
2, 10920, Note_on_c, 1, 74, 64
2, 10979, Note_on_c, 1, 74, 0
2, 10980, Note_on_c, 1, 65, 64
2, 11039, Note_on_c, 1, 65, 0
2, 11040, Note_on_c, 1, 77, 64
2, 11099, Note_on_c, 1, 77, 0
2, 11100, Note_on_c, 1, 65, 64
2, 11159, Note_on_c, 1, 65, 0
2, 11160, Note_on_c, 1, 70, 64
2, 11219, Note_on_c, 1, 70, 0
2, 11220, Note_on_c, 1, 65, 64
2, 11279, Note_on_c, 1, 65, 0
2, 11280, Note_on_c, 1, 74, 64
2, 11339, Note_on_c, 1, 74, 0
2, 11340, Note_on_c, 1, 65, 64
2, 11399, Note_on_c, 1, 65, 0
2, 11400, Note_on_c, 1, 77, 64
2, 11459, Note_on_c, 1, 77, 0
2, 11460, Note_on_c, 1, 65, 64
2, 11519, Note_on_c, 1, 65, 0
2, 11520, Note_on_c, 1, 67, 64
2, 11639, Note_on_c, 1, 67, 0
2, 11640, Note_on_c, 1, 75, 64
2, 11759, Note_on_c, 1, 75, 0
2, 11760, Note_on_c, 1, 74, 64
2, 11789, Note_on_c, 1, 74, 0
2, 11790, Note_on_c, 1, 72, 64
2, 11819, Note_on_c, 1, 72, 0
2, 11820, Note_on_c, 1, 74, 64
2, 11849, Note_on_c, 1, 74, 0
2, 11850, Note_on_c, 1, 72, 64
2, 11879, Note_on_c, 1, 72, 0
2, 11880, Note_on_c, 1, 74, 64
2, 11909, Note_on_c, 1, 74, 0
2, 11910, Note_on_c, 1, 72, 64
2, 11939, Note_on_c, 1, 72, 0
2, 11940, Note_on_c, 1, 74, 64
2, 11969, Note_on_c, 1, 74, 0
2, 11970, Note_on_c, 1, 72, 64
2, 11999, Note_on_c, 1, 72, 0
2, 12000, Note_on_c, 1, 74, 64
2, 12029, Note_on_c, 1, 74, 0
2, 12030, Note_on_c, 1, 72, 64
2, 12059, Note_on_c, 1, 72, 0
2, 12060, Note_on_c, 1, 74, 64
2, 12089, Note_on_c, 1, 74, 0
2, 12090, Note_on_c, 1, 72, 64
2, 12119, Note_on_c, 1, 72, 0
2, 12120, Note_on_c, 1, 74, 64
2, 12149, Note_on_c, 1, 74, 0
2, 12150, Note_on_c, 1, 72, 64
2, 12209, Note_on_c, 1, 72, 0
2, 12210, Note_on_c, 1, 70, 64
2, 12224, Note_on_c, 1, 70, 0
2, 12240, Note_on_c, 1, 70, 64
2, 12300, Note_on_c, 1, 67, 64
2, 12359, Note_on_c, 1, 67, 0
2, 12360, Note_on_c, 1, 65, 64
2, 12419, Note_on_c, 1, 65, 0
2, 12420, Note_on_c, 1, 63, 64
2, 12479, Note_on_c, 1, 63, 0
2, 12480, Note_on_c, 1, 62, 64
2, 12599, Note_on_c, 1, 62, 0
2, 12599, Note_on_c, 1, 70, 0
2, 12600, Note_on_c, 1, 72, 64
2, 12600, Note_on_c, 1, 63, 64
2, 12719, Note_on_c, 1, 63, 0
2, 12719, Note_on_c, 1, 72, 0
2, 12720, Note_on_c, 1, 65, 64
2, 12720, Note_on_c, 1, 74, 64
2, 12839, Note_on_c, 1, 74, 0
2, 12839, Note_on_c, 1, 65, 0
2, 12840, Note_on_c, 1, 67, 64
2, 12840, Note_on_c, 1, 76, 64
2, 12959, Note_on_c, 1, 76, 0
2, 12959, Note_on_c, 1, 67, 0
2, 12960, Note_on_c, 1, 69, 64
2, 12960, Note_on_c, 1, 77, 64
2, 13679, Note_on_c, 1, 69, 0
2, 13680, Note_on_c, 1, 70, 64
2, 13739, Note_on_c, 1, 77, 0
2, 13800, Note_on_c, 1, 77, 64
2, 13919, Note_on_c, 1, 77, 0
2, 13919, Note_on_c, 1, 70, 0
2, 13920, Note_on_c, 1, 76, 64
2, 14039, Note_on_c, 1, 76, 0
2, 14040, Note_on_c, 1, 74, 64
2, 14159, Note_on_c, 1, 74, 0
2, 14160, Note_on_c, 1, 73, 64
2, 14279, Note_on_c, 1, 73, 0
2, 14280, Note_on_c, 1, 71, 64
2, 14399, Note_on_c, 1, 71, 0
2, 14400, Note_on_c, 1, 73, 64
2, 14459, Note_on_c, 1, 73, 0
2, 14460, Note_on_c, 1, 69, 64
2, 14519, Note_on_c, 1, 69, 0
2, 14520, Note_on_c, 1, 76, 64
2, 14579, Note_on_c, 1, 76, 0
2, 14580, Note_on_c, 1, 69, 64
2, 14639, Note_on_c, 1, 69, 0
2, 14640, Note_on_c, 1, 81, 64
2, 14699, Note_on_c, 1, 81, 0
2, 14700, Note_on_c, 1, 69, 64
2, 14759, Note_on_c, 1, 69, 0
2, 14760, Note_on_c, 1, 73, 64
2, 14819, Note_on_c, 1, 73, 0
2, 14820, Note_on_c, 1, 69, 64
2, 14879, Note_on_c, 1, 69, 0
2, 14880, Note_on_c, 1, 76, 64
2, 14939, Note_on_c, 1, 76, 0
2, 14940, Note_on_c, 1, 69, 64
2, 14999, Note_on_c, 1, 69, 0
2, 15000, Note_on_c, 1, 81, 64
2, 15059, Note_on_c, 1, 81, 0
2, 15060, Note_on_c, 1, 69, 64
2, 15119, Note_on_c, 1, 69, 0
2, 15120, Note_on_c, 1, 74, 64
2, 15179, Note_on_c, 1, 74, 0
2, 15180, Note_on_c, 1, 69, 64
2, 15239, Note_on_c, 1, 69, 0
2, 15240, Note_on_c, 1, 77, 64
2, 15299, Note_on_c, 1, 77, 0
2, 15300, Note_on_c, 1, 69, 64
2, 15359, Note_on_c, 1, 69, 0
2, 15360, Note_on_c, 1, 81, 64
2, 15419, Note_on_c, 1, 81, 0
2, 15420, Note_on_c, 1, 69, 64
2, 15479, Note_on_c, 1, 69, 0
2, 15480, Note_on_c, 1, 74, 64
2, 15539, Note_on_c, 1, 74, 0
2, 15540, Note_on_c, 1, 69, 64
2, 15599, Note_on_c, 1, 69, 0
2, 15600, Note_on_c, 1, 77, 64
2, 15659, Note_on_c, 1, 77, 0
2, 15660, Note_on_c, 1, 69, 64
2, 15719, Note_on_c, 1, 69, 0
2, 15720, Note_on_c, 1, 81, 64
2, 15779, Note_on_c, 1, 81, 0
2, 15780, Note_on_c, 1, 69, 64
2, 15839, Note_on_c, 1, 69, 0
2, 15840, Note_on_c, 1, 79, 64
2, 15899, Note_on_c, 1, 79, 0
2, 15900, Note_on_c, 1, 81, 64
2, 15959, Note_on_c, 1, 81, 0
2, 15960, Note_on_c, 1, 77, 64
2, 16079, Note_on_c, 1, 77, 0
2, 16080, Note_on_c, 1, 77, 64
2, 16109, Note_on_c, 1, 77, 0
2, 16110, Note_on_c, 1, 76, 64
2, 16139, Note_on_c, 1, 76, 0
2, 16140, Note_on_c, 1, 77, 64
2, 16169, Note_on_c, 1, 77, 0
2, 16170, Note_on_c, 1, 76, 64
2, 16199, Note_on_c, 1, 76, 0
2, 16200, Note_on_c, 1, 77, 64
2, 16229, Note_on_c, 1, 77, 0
2, 16230, Note_on_c, 1, 76, 64
2, 16259, Note_on_c, 1, 76, 0
2, 16260, Note_on_c, 1, 77, 64
2, 16289, Note_on_c, 1, 77, 0
2, 16290, Note_on_c, 1, 76, 64
2, 16319, Note_on_c, 1, 76, 0
2, 16320, Note_on_c, 1, 77, 64
2, 16349, Note_on_c, 1, 77, 0
2, 16350, Note_on_c, 1, 76, 64
2, 16379, Note_on_c, 1, 76, 0
2, 16380, Note_on_c, 1, 77, 64
2, 16409, Note_on_c, 1, 77, 0
2, 16410, Note_on_c, 1, 76, 64
2, 16439, Note_on_c, 1, 76, 0
2, 16440, Note_on_c, 1, 77, 64
2, 16469, Note_on_c, 1, 77, 0
2, 16470, Note_on_c, 1, 76, 64
2, 16529, Note_on_c, 1, 76, 0
2, 16530, Note_on_c, 1, 74, 64
2, 16544, Note_on_c, 1, 74, 0
2, 16560, Note_on_c, 1, 69, 64
2, 16560, Note_on_c, 1, 65, 64
2, 16560, Note_on_c, 1, 74, 64
2, 17279, Note_on_c, 1, 74, 0
2, 17279, Note_on_c, 1, 65, 0
2, 17279, Note_on_c, 1, 69, 0
2, 17400, Note_on_c, 1, 67, 64
2, 17519, Note_on_c, 1, 67, 0
2, 17520, Note_on_c, 1, 70, 64
2, 17639, Note_on_c, 1, 70, 0
2, 17640, Note_on_c, 1, 74, 64
2, 17759, Note_on_c, 1, 74, 0
2, 17760, Note_on_c, 1, 70, 64
2, 17879, Note_on_c, 1, 70, 0
2, 17880, Note_on_c, 1, 67, 64
2, 18000, Note_on_c, 1, 75, 64
2, 18000, Note_on_c, 1, 72, 64
2, 18719, Note_on_c, 1, 72, 0
2, 18719, Note_on_c, 1, 75, 0
2, 18719, Note_on_c, 1, 67, 0
2, 18840, Note_on_c, 1, 65, 64
2, 18959, Note_on_c, 1, 65, 0
2, 18960, Note_on_c, 1, 69, 64
2, 19079, Note_on_c, 1, 69, 0
2, 19080, Note_on_c, 1, 72, 64
2, 19199, Note_on_c, 1, 72, 0
2, 19200, Note_on_c, 1, 69, 64
2, 19319, Note_on_c, 1, 69, 0
2, 19320, Note_on_c, 1, 65, 64
2, 19440, Note_on_c, 1, 70, 64
2, 19440, Note_on_c, 1, 74, 64
2, 20159, Note_on_c, 1, 70, 0
2, 20159, Note_on_c, 1, 65, 0
2, 20219, Note_on_c, 1, 74, 0
2, 20280, Note_on_c, 1, 74, 64
2, 20399, Note_on_c, 1, 74, 0
2, 20400, Note_on_c, 1, 72, 64
2, 20520, Note_on_c, 1, 70, 64
2, 20549, Note_on_c, 1, 72, 0
2, 20639, Note_on_c, 1, 70, 0
2, 20640, Note_on_c, 1, 69, 64
2, 20699, Note_on_c, 1, 69, 0
2, 20700, Note_on_c, 1, 70, 64
2, 20759, Note_on_c, 1, 70, 0
2, 20760, Note_on_c, 1, 67, 64
2, 20879, Note_on_c, 1, 67, 0
2, 20880, Note_on_c, 1, 66, 64
2, 20939, Note_on_c, 1, 66, 0
2, 20940, Note_on_c, 1, 62, 64
2, 20999, Note_on_c, 1, 62, 0
2, 21000, Note_on_c, 1, 69, 64
2, 21059, Note_on_c, 1, 69, 0
2, 21060, Note_on_c, 1, 62, 64
2, 21119, Note_on_c, 1, 62, 0
2, 21120, Note_on_c, 1, 74, 64
2, 21179, Note_on_c, 1, 74, 0
2, 21180, Note_on_c, 1, 62, 64
2, 21239, Note_on_c, 1, 62, 0
2, 21240, Note_on_c, 1, 66, 64
2, 21299, Note_on_c, 1, 66, 0
2, 21300, Note_on_c, 1, 62, 64
2, 21359, Note_on_c, 1, 62, 0
2, 21360, Note_on_c, 1, 69, 64
2, 21419, Note_on_c, 1, 69, 0
2, 21420, Note_on_c, 1, 62, 64
2, 21479, Note_on_c, 1, 62, 0
2, 21480, Note_on_c, 1, 74, 64
2, 21539, Note_on_c, 1, 74, 0
2, 21540, Note_on_c, 1, 62, 64
2, 21599, Note_on_c, 1, 62, 0
2, 21600, Note_on_c, 1, 67, 64
2, 21659, Note_on_c, 1, 67, 0
2, 21660, Note_on_c, 1, 62, 64
2, 21719, Note_on_c, 1, 62, 0
2, 21720, Note_on_c, 1, 70, 64
2, 21779, Note_on_c, 1, 70, 0
2, 21780, Note_on_c, 1, 62, 64
2, 21839, Note_on_c, 1, 62, 0
2, 21840, Note_on_c, 1, 74, 64
2, 21899, Note_on_c, 1, 74, 0
2, 21900, Note_on_c, 1, 62, 64
2, 21959, Note_on_c, 1, 62, 0
2, 21960, Note_on_c, 1, 67, 64
2, 22019, Note_on_c, 1, 67, 0
2, 22020, Note_on_c, 1, 62, 64
2, 22079, Note_on_c, 1, 62, 0
2, 22080, Note_on_c, 1, 70, 64
2, 22139, Note_on_c, 1, 70, 0
2, 22140, Note_on_c, 1, 62, 64
2, 22199, Note_on_c, 1, 62, 0
2, 22200, Note_on_c, 1, 74, 64
2, 22259, Note_on_c, 1, 74, 0
2, 22260, Note_on_c, 1, 62, 64
2, 22319, Note_on_c, 1, 62, 0
2, 22320, Note_on_c, 1, 66, 64
2, 22379, Note_on_c, 1, 66, 0
2, 22380, Note_on_c, 1, 62, 64
2, 22439, Note_on_c, 1, 62, 0
2, 22440, Note_on_c, 1, 69, 64
2, 22499, Note_on_c, 1, 69, 0
2, 22500, Note_on_c, 1, 62, 64
2, 22559, Note_on_c, 1, 62, 0
2, 22560, Note_on_c, 1, 74, 64
2, 22619, Note_on_c, 1, 74, 0
2, 22620, Note_on_c, 1, 62, 64
2, 22679, Note_on_c, 1, 62, 0
2, 22680, Note_on_c, 1, 66, 64
2, 22739, Note_on_c, 1, 66, 0
2, 22740, Note_on_c, 1, 62, 64
2, 22799, Note_on_c, 1, 62, 0
2, 22800, Note_on_c, 1, 69, 64
2, 22859, Note_on_c, 1, 69, 0
2, 22860, Note_on_c, 1, 62, 64
2, 22919, Note_on_c, 1, 62, 0
2, 22920, Note_on_c, 1, 74, 64
2, 22979, Note_on_c, 1, 74, 0
2, 22980, Note_on_c, 1, 62, 64
2, 23039, Note_on_c, 1, 62, 0
2, 23040, Note_on_c, 1, 67, 64
2, 23099, Note_on_c, 1, 67, 0
2, 23100, Note_on_c, 1, 62, 64
2, 23159, Note_on_c, 1, 62, 0
2, 23160, Note_on_c, 1, 70, 64
2, 23219, Note_on_c, 1, 70, 0
2, 23220, Note_on_c, 1, 62, 64
2, 23279, Note_on_c, 1, 62, 0
2, 23280, Note_on_c, 1, 74, 64
2, 23339, Note_on_c, 1, 74, 0
2, 23340, Note_on_c, 1, 62, 64
2, 23399, Note_on_c, 1, 62, 0
2, 23400, Note_on_c, 1, 67, 64
2, 23459, Note_on_c, 1, 67, 0
2, 23460, Note_on_c, 1, 62, 64
2, 23519, Note_on_c, 1, 62, 0
2, 23520, Note_on_c, 1, 70, 64
2, 23579, Note_on_c, 1, 70, 0
2, 23580, Note_on_c, 1, 62, 64
2, 23639, Note_on_c, 1, 62, 0
2, 23640, Note_on_c, 1, 74, 64
2, 23699, Note_on_c, 1, 74, 0
2, 23700, Note_on_c, 1, 62, 64
2, 23759, Note_on_c, 1, 62, 0
2, 23760, Note_on_c, 1, 72, 64
2, 23819, Note_on_c, 1, 72, 0
2, 23820, Note_on_c, 1, 74, 64
2, 23879, Note_on_c, 1, 74, 0
2, 23880, Note_on_c, 1, 70, 64
2, 23999, Note_on_c, 1, 70, 0
2, 24000, Note_on_c, 1, 70, 64
2, 24029, Note_on_c, 1, 70, 0
2, 24030, Note_on_c, 1, 69, 64
2, 24059, Note_on_c, 1, 69, 0
2, 24060, Note_on_c, 1, 70, 64
2, 24089, Note_on_c, 1, 70, 0
2, 24090, Note_on_c, 1, 69, 64
2, 24119, Note_on_c, 1, 69, 0
2, 24120, Note_on_c, 1, 70, 64
2, 24149, Note_on_c, 1, 70, 0
2, 24150, Note_on_c, 1, 69, 64
2, 24179, Note_on_c, 1, 69, 0
2, 24180, Note_on_c, 1, 70, 64
2, 24209, Note_on_c, 1, 70, 0
2, 24210, Note_on_c, 1, 69, 64
2, 24239, Note_on_c, 1, 69, 0
2, 24240, Note_on_c, 1, 70, 64
2, 24269, Note_on_c, 1, 70, 0
2, 24270, Note_on_c, 1, 69, 64
2, 24299, Note_on_c, 1, 69, 0
2, 24300, Note_on_c, 1, 70, 64
2, 24329, Note_on_c, 1, 70, 0
2, 24330, Note_on_c, 1, 69, 64
2, 24359, Note_on_c, 1, 69, 0
2, 24360, Note_on_c, 1, 70, 64
2, 24389, Note_on_c, 1, 70, 0
2, 24390, Note_on_c, 1, 69, 64
2, 24449, Note_on_c, 1, 69, 0
2, 24450, Note_on_c, 1, 67, 64
2, 24464, Note_on_c, 1, 67, 0
2, 24480, Note_on_c, 1, 58, 64
2, 24480, Note_on_c, 1, 67, 64
2, 24480, Note_on_c, 1, 62, 64
2, 25199, Note_on_c, 1, 62, 0
2, 25199, Note_on_c, 1, 67, 0
2, 25199, Note_on_c, 1, 58, 0
2, 25440, Note_on_c, 1, 67, 64
2, 26039, Note_on_c, 1, 67, 0
2, 26040, Note_on_c, 1, 69, 64
2, 26159, Note_on_c, 1, 69, 0
2, 26160, Note_on_c, 1, 67, 64
2, 26189, Note_on_c, 1, 67, 0
2, 26190, Note_on_c, 1, 66, 64
2, 26219, Note_on_c, 1, 66, 0
2, 26220, Note_on_c, 1, 67, 64
2, 26249, Note_on_c, 1, 67, 0
2, 26250, Note_on_c, 1, 66, 64
2, 26279, Note_on_c, 1, 66, 0
2, 26280, Note_on_c, 1, 67, 64
2, 26309, Note_on_c, 1, 67, 0
2, 26310, Note_on_c, 1, 66, 64
2, 26339, Note_on_c, 1, 66, 0
2, 26340, Note_on_c, 1, 67, 64
2, 26369, Note_on_c, 1, 67, 0
2, 26370, Note_on_c, 1, 66, 64
2, 26399, Note_on_c, 1, 66, 0
2, 26400, Note_on_c, 1, 67, 64
2, 26429, Note_on_c, 1, 67, 0
2, 26430, Note_on_c, 1, 66, 64
2, 26459, Note_on_c, 1, 66, 0
2, 26460, Note_on_c, 1, 67, 64
2, 26489, Note_on_c, 1, 67, 0
2, 26490, Note_on_c, 1, 66, 64
2, 26519, Note_on_c, 1, 66, 0
2, 26520, Note_on_c, 1, 67, 64
2, 26549, Note_on_c, 1, 67, 0
2, 26550, Note_on_c, 1, 66, 64
2, 26609, Note_on_c, 1, 66, 0
2, 26610, Note_on_c, 1, 67, 64
2, 26624, Note_on_c, 1, 67, 0
2, 26640, Note_on_c, 1, 67, 64
2, 27359, Note_on_c, 1, 67, 0
2, 27360, Note_on_c, 1, 74, 64
2, 27599, Note_on_c, 1, 74, 0
2, 27600, Note_on_c, 1, 75, 64
2, 27659, Note_on_c, 1, 75, 0
2, 27660, Note_on_c, 1, 74, 64
2, 27719, Note_on_c, 1, 74, 0
2, 27720, Note_on_c, 1, 75, 64
2, 27779, Note_on_c, 1, 75, 0
2, 27780, Note_on_c, 1, 72, 64
2, 27839, Note_on_c, 1, 72, 0
2, 27840, Note_on_c, 1, 74, 64
2, 27959, Note_on_c, 1, 74, 0
2, 28020, Note_on_c, 1, 67, 64
2, 28079, Note_on_c, 1, 67, 0
2, 28080, Note_on_c, 1, 69, 64
2, 28109, Note_on_c, 1, 69, 0
2, 28140, Note_on_c, 1, 69, 64
2, 28199, Note_on_c, 1, 69, 0
2, 28200, Note_on_c, 1, 74, 64
2, 28259, Note_on_c, 1, 74, 0
2, 28260, Note_on_c, 1, 72, 64
2, 28319, Note_on_c, 1, 72, 0
2, 28320, Note_on_c, 1, 70, 64
2, 28379, Note_on_c, 1, 70, 0
2, 28380, Note_on_c, 1, 67, 64
2, 28439, Note_on_c, 1, 67, 0
2, 28440, Note_on_c, 1, 74, 64
2, 28469, Note_on_c, 1, 74, 0
2, 28500, Note_on_c, 1, 74, 64
2, 28559, Note_on_c, 1, 74, 0
2, 28560, Note_on_c, 1, 70, 64
2, 28619, Note_on_c, 1, 70, 0
2, 28620, Note_on_c, 1, 67, 64
2, 28679, Note_on_c, 1, 67, 0
2, 28680, Note_on_c, 1, 75, 64
2, 28919, Note_on_c, 1, 75, 0
2, 28920, Note_on_c, 1, 74, 64
2, 29159, Note_on_c, 1, 74, 0
2, 29160, Note_on_c, 1, 72, 64
2, 29339, Note_on_c, 1, 72, 0
2, 29340, Note_on_c, 1, 70, 64
2, 29369, Note_on_c, 1, 70, 0
2, 29370, Note_on_c, 1, 69, 64
2, 29399, Note_on_c, 1, 69, 0
2, 29400, Note_on_c, 1, 70, 64
2, 29459, Note_on_c, 1, 70, 0
2, 29460, Note_on_c, 1, 72, 64
2, 29519, Note_on_c, 1, 72, 0
2, 29520, Note_on_c, 1, 74, 64
2, 29639, Note_on_c, 1, 74, 0
2, 29640, Note_on_c, 1, 79, 64
2, 29819, Note_on_c, 1, 79, 0
2, 29820, Note_on_c, 1, 73, 64
2, 29879, Note_on_c, 1, 73, 0
2, 29880, Note_on_c, 1, 74, 64
2, 30119, Note_on_c, 1, 74, 0
2, 30120, Note_on_c, 1, 73, 64
2, 30239, Note_on_c, 1, 73, 0
2, 30240, Note_on_c, 1, 74, 64
2, 30359, Note_on_c, 1, 74, 0
2, 30420, Note_on_c, 1, 73, 64
2, 30479, Note_on_c, 1, 73, 0
2, 30480, Note_on_c, 1, 74, 64
2, 30599, Note_on_c, 1, 74, 0
2, 30660, Note_on_c, 1, 74, 64
2, 30719, Note_on_c, 1, 74, 0
2, 30720, Note_on_c, 1, 72, 64
2, 30749, Note_on_c, 1, 72, 0
2, 30780, Note_on_c, 1, 72, 64
2, 30809, Note_on_c, 1, 72, 0
2, 30840, Note_on_c, 1, 72, 64
2, 30899, Note_on_c, 1, 72, 0
2, 30900, Note_on_c, 1, 74, 64
2, 30929, Note_on_c, 1, 74, 0
2, 30930, Note_on_c, 1, 72, 64
2, 30959, Note_on_c, 1, 72, 0
2, 30960, Note_on_c, 1, 70, 64
2, 30989, Note_on_c, 1, 70, 0
2, 31020, Note_on_c, 1, 70, 64
2, 31049, Note_on_c, 1, 70, 0
2, 31080, Note_on_c, 1, 70, 64
2, 31080, Note_on_c, 1, 67, 64
2, 31139, Note_on_c, 1, 70, 0
2, 31140, Note_on_c, 1, 72, 64
2, 31169, Note_on_c, 1, 72, 0
2, 31170, Note_on_c, 1, 70, 64
2, 31199, Note_on_c, 1, 70, 0
2, 31200, Note_on_c, 1, 69, 64
2, 31319, Note_on_c, 1, 67, 0
2, 31320, Note_on_c, 1, 66, 64
2, 31379, Note_on_c, 1, 69, 0
2, 31380, Note_on_c, 1, 74, 64
2, 31439, Note_on_c, 1, 66, 0
2, 31440, Note_on_c, 1, 67, 64
2, 31559, Note_on_c, 1, 74, 0
2, 31560, Note_on_c, 1, 72, 64
2, 31679, Note_on_c, 1, 67, 0
2, 31680, Note_on_c, 1, 66, 64
2, 31739, Note_on_c, 1, 72, 0
2, 31740, Note_on_c, 1, 69, 64
2, 31799, Note_on_c, 1, 69, 0
2, 31799, Note_on_c, 1, 66, 0
2, 31800, Note_on_c, 1, 70, 64
2, 31800, Note_on_c, 1, 67, 64
2, 31919, Note_on_c, 1, 70, 0
2, 31920, Note_on_c, 1, 69, 64
2, 32039, Note_on_c, 1, 67, 0
2, 32040, Note_on_c, 1, 66, 64
2, 32159, Note_on_c, 1, 66, 0
2, 32159, Note_on_c, 1, 69, 0
2, 32160, Note_on_c, 1, 70, 64
2, 32160, Note_on_c, 1, 67, 64
2, 32279, Note_on_c, 1, 67, 0
2, 32279, Note_on_c, 1, 70, 0
2, 32340, Note_on_c, 1, 69, 64
2, 32340, Note_on_c, 1, 66, 64
2, 32399, Note_on_c, 1, 66, 0
2, 32399, Note_on_c, 1, 69, 0
2, 32400, Note_on_c, 1, 70, 64
2, 32400, Note_on_c, 1, 67, 64
2, 32519, Note_on_c, 1, 67, 0
2, 32519, Note_on_c, 1, 70, 0
2, 32580, Note_on_c, 1, 72, 64
2, 32580, Note_on_c, 1, 67, 64
2, 32639, Note_on_c, 1, 67, 0
2, 32639, Note_on_c, 1, 72, 0
2, 32640, Note_on_c, 1, 69, 64
2, 32640, Note_on_c, 1, 65, 64
2, 32669, Note_on_c, 1, 65, 0
2, 32669, Note_on_c, 1, 69, 0
2, 32700, Note_on_c, 1, 65, 64
2, 32700, Note_on_c, 1, 69, 64
2, 32729, Note_on_c, 1, 65, 0
2, 32759, Note_on_c, 1, 69, 0
2, 32760, Note_on_c, 1, 65, 64
2, 32760, Note_on_c, 1, 74, 64
2, 32819, Note_on_c, 1, 65, 0
2, 32820, Note_on_c, 1, 67, 64
2, 32849, Note_on_c, 1, 67, 0
2, 32850, Note_on_c, 1, 65, 64
2, 32879, Note_on_c, 1, 65, 0
2, 32879, Note_on_c, 1, 74, 0
2, 32880, Note_on_c, 1, 67, 64
2, 32880, Note_on_c, 1, 63, 64
2, 32909, Note_on_c, 1, 63, 0
2, 32909, Note_on_c, 1, 67, 0
2, 32940, Note_on_c, 1, 63, 64
2, 32940, Note_on_c, 1, 67, 64
2, 32969, Note_on_c, 1, 63, 0
2, 32999, Note_on_c, 1, 67, 0
2, 33000, Note_on_c, 1, 72, 64
2, 33000, Note_on_c, 1, 63, 64
2, 33059, Note_on_c, 1, 63, 0
2, 33060, Note_on_c, 1, 65, 64
2, 33089, Note_on_c, 1, 65, 0
2, 33090, Note_on_c, 1, 63, 64
2, 33119, Note_on_c, 1, 63, 0
2, 33119, Note_on_c, 1, 72, 0
2, 33120, Note_on_c, 1, 66, 64
2, 33120, Note_on_c, 1, 62, 64
2, 33149, Note_on_c, 1, 62, 0
2, 33149, Note_on_c, 1, 66, 0
2, 33180, Note_on_c, 1, 62, 64
2, 33180, Note_on_c, 1, 66, 64
2, 33209, Note_on_c, 1, 62, 0
2, 33239, Note_on_c, 1, 66, 0
2, 33240, Note_on_c, 1, 67, 64
2, 33240, Note_on_c, 1, 62, 64
2, 33359, Note_on_c, 1, 62, 0
2, 33419, Note_on_c, 1, 67, 0
2, 33420, Note_on_c, 1, 69, 64
2, 33449, Note_on_c, 1, 69, 0
2, 33450, Note_on_c, 1, 67, 64
2, 33479, Note_on_c, 1, 67, 0
2, 33480, Note_on_c, 1, 66, 64
2, 33569, Note_on_c, 1, 66, 0
2, 33570, Note_on_c, 1, 67, 64
2, 33584, Note_on_c, 1, 67, 0
2, 33600, Note_on_c, 1, 67, 64
2, 33659, Note_on_c, 1, 67, 0
2, 33660, Note_on_c, 1, 69, 64
2, 33719, Note_on_c, 1, 69, 0
2, 33720, Note_on_c, 1, 70, 64
2, 33720, Note_on_c, 1, 67, 64
2, 33779, Note_on_c, 1, 70, 0
2, 33780, Note_on_c, 1, 72, 64
2, 33839, Note_on_c, 1, 72, 0
2, 33840, Note_on_c, 1, 74, 64
2, 33959, Note_on_c, 1, 74, 0
2, 33959, Note_on_c, 1, 67, 0
2, 34020, Note_on_c, 1, 74, 64
2, 34020, Note_on_c, 1, 70, 64
2, 34079, Note_on_c, 1, 70, 0
2, 34079, Note_on_c, 1, 74, 0
2, 34080, Note_on_c, 1, 73, 64
2, 34080, Note_on_c, 1, 69, 64
2, 34139, Note_on_c, 1, 69, 0
2, 34199, Note_on_c, 1, 73, 0
2, 34200, Note_on_c, 1, 74, 64
2, 34200, Note_on_c, 1, 69, 64
2, 34319, Note_on_c, 1, 69, 0
2, 34320, Note_on_c, 1, 67, 64
2, 34439, Note_on_c, 1, 67, 0
2, 34439, Note_on_c, 1, 74, 0
2, 34440, Note_on_c, 1, 69, 64
2, 34440, Note_on_c, 1, 73, 64
2, 34499, Note_on_c, 1, 69, 0
2, 34559, Note_on_c, 1, 73, 0
2, 34560, Note_on_c, 1, 69, 64
2, 34560, Note_on_c, 1, 74, 64
2, 34679, Note_on_c, 1, 74, 0
2, 34679, Note_on_c, 1, 69, 0
2, 34740, Note_on_c, 1, 73, 64
2, 34740, Note_on_c, 1, 69, 64
2, 34769, Note_on_c, 1, 69, 0
2, 34799, Note_on_c, 1, 73, 0
2, 34800, Note_on_c, 1, 74, 64
2, 34800, Note_on_c, 1, 69, 64
2, 34859, Note_on_c, 1, 74, 0
2, 34919, Note_on_c, 1, 69, 0
2, 34920, Note_on_c, 1, 67, 64
2, 34980, Note_on_c, 1, 74, 64
2, 35039, Note_on_c, 1, 74, 0
2, 35040, Note_on_c, 1, 72, 64
2, 35069, Note_on_c, 1, 72, 0
2, 35100, Note_on_c, 1, 72, 64
2, 35129, Note_on_c, 1, 72, 0
2, 35159, Note_on_c, 1, 67, 0
2, 35160, Note_on_c, 1, 72, 64
2, 35160, Note_on_c, 1, 69, 64
2, 35219, Note_on_c, 1, 72, 0
2, 35220, Note_on_c, 1, 74, 64
2, 35249, Note_on_c, 1, 74, 0
2, 35250, Note_on_c, 1, 72, 64
2, 35279, Note_on_c, 1, 72, 0
2, 35279, Note_on_c, 1, 69, 0
2, 35280, Note_on_c, 1, 70, 64
2, 35280, Note_on_c, 1, 65, 64
2, 35309, Note_on_c, 1, 70, 0
2, 35340, Note_on_c, 1, 70, 64
2, 35369, Note_on_c, 1, 70, 0
2, 35399, Note_on_c, 1, 65, 0
2, 35400, Note_on_c, 1, 70, 64
2, 35400, Note_on_c, 1, 67, 64
2, 35459, Note_on_c, 1, 70, 0
2, 35460, Note_on_c, 1, 72, 64
2, 35489, Note_on_c, 1, 72, 0
2, 35490, Note_on_c, 1, 70, 64
2, 35519, Note_on_c, 1, 70, 0
2, 35519, Note_on_c, 1, 67, 0
2, 35520, Note_on_c, 1, 64, 64
2, 35520, Note_on_c, 1, 69, 64
2, 35549, Note_on_c, 1, 69, 0
2, 35580, Note_on_c, 1, 69, 64
2, 35609, Note_on_c, 1, 69, 0
2, 35639, Note_on_c, 1, 64, 0
2, 35640, Note_on_c, 1, 69, 64
2, 35640, Note_on_c, 1, 65, 64
2, 35699, Note_on_c, 1, 69, 0
2, 35700, Note_on_c, 1, 70, 64
2, 35729, Note_on_c, 1, 70, 0
2, 35730, Note_on_c, 1, 69, 64
2, 35759, Note_on_c, 1, 69, 0
2, 35759, Note_on_c, 1, 65, 0
2, 35760, Note_on_c, 1, 67, 64
2, 35760, Note_on_c, 1, 62, 64
2, 35789, Note_on_c, 1, 67, 0
2, 35820, Note_on_c, 1, 67, 64
2, 35849, Note_on_c, 1, 67, 0
2, 35879, Note_on_c, 1, 62, 0
2, 35880, Note_on_c, 1, 67, 64
2, 35939, Note_on_c, 1, 67, 0
2, 35940, Note_on_c, 1, 69, 64
2, 35969, Note_on_c, 1, 69, 0
2, 35970, Note_on_c, 1, 67, 64
2, 35999, Note_on_c, 1, 67, 0
2, 36000, Note_on_c, 1, 65, 64
2, 36059, Note_on_c, 1, 65, 0
2, 36060, Note_on_c, 1, 69, 64
2, 36119, Note_on_c, 1, 69, 0
2, 36120, Note_on_c, 1, 74, 64
2, 36359, Note_on_c, 1, 74, 0
2, 36360, Note_on_c, 1, 73, 64
2, 36479, Note_on_c, 1, 73, 0
2, 36480, Note_on_c, 1, 74, 64
2, 36599, Note_on_c, 1, 74, 0
2, 36600, Note_on_c, 1, 77, 64
2, 36600, Note_on_c, 1, 70, 64
2, 36719, Note_on_c, 1, 77, 0
2, 36720, Note_on_c, 1, 75, 64
2, 36839, Note_on_c, 1, 70, 0
2, 36840, Note_on_c, 1, 69, 64
2, 36959, Note_on_c, 1, 75, 0
2, 36960, Note_on_c, 1, 74, 64
2, 37079, Note_on_c, 1, 69, 0
2, 37080, Note_on_c, 1, 67, 64
2, 37199, Note_on_c, 1, 74, 0
2, 37200, Note_on_c, 1, 72, 64
2, 37319, Note_on_c, 1, 67, 0
2, 37320, Note_on_c, 1, 65, 64
2, 37439, Note_on_c, 1, 72, 0
2, 37440, Note_on_c, 1, 70, 64
2, 37559, Note_on_c, 1, 65, 0
2, 37560, Note_on_c, 1, 63, 64
2, 37679, Note_on_c, 1, 70, 0
2, 37680, Note_on_c, 1, 69, 64
2, 37739, Note_on_c, 1, 63, 0
2, 37740, Note_on_c, 1, 65, 64
2, 37769, Note_on_c, 1, 65, 0
2, 37770, Note_on_c, 1, 63, 64
2, 37799, Note_on_c, 1, 63, 0
2, 37799, Note_on_c, 1, 69, 0
2, 37800, Note_on_c, 1, 62, 64
2, 37800, Note_on_c, 1, 70, 64
2, 37919, Note_on_c, 1, 62, 0
2, 37920, Note_on_c, 1, 60, 64
2, 37979, Note_on_c, 1, 60, 0
2, 37980, Note_on_c, 1, 62, 64
2, 38009, Note_on_c, 1, 62, 0
2, 38010, Note_on_c, 1, 63, 64
2, 38039, Note_on_c, 1, 63, 0
2, 38040, Note_on_c, 1, 62, 64
2, 38099, Note_on_c, 1, 62, 0
2, 38099, Note_on_c, 1, 70, 0
2, 38100, Note_on_c, 1, 69, 64
2, 38100, Note_on_c, 1, 60, 64
2, 38159, Note_on_c, 1, 60, 0
2, 38159, Note_on_c, 1, 69, 0
2, 38160, Note_on_c, 1, 62, 64
2, 38160, Note_on_c, 1, 70, 64
2, 38279, Note_on_c, 1, 70, 0
2, 38279, Note_on_c, 1, 62, 0
2, 38340, Note_on_c, 1, 74, 64
2, 38399, Note_on_c, 1, 74, 0
2, 38400, Note_on_c, 1, 75, 64
2, 38429, Note_on_c, 1, 75, 0
2, 38460, Note_on_c, 1, 75, 64
2, 38489, Note_on_c, 1, 75, 0
2, 38520, Note_on_c, 1, 75, 64
2, 38579, Note_on_c, 1, 75, 0
2, 38580, Note_on_c, 1, 77, 64
2, 38609, Note_on_c, 1, 77, 0
2, 38610, Note_on_c, 1, 75, 64
2, 38639, Note_on_c, 1, 75, 0
2, 38640, Note_on_c, 1, 74, 64
2, 38669, Note_on_c, 1, 74, 0
2, 38700, Note_on_c, 1, 74, 64
2, 38729, Note_on_c, 1, 74, 0
2, 38760, Note_on_c, 1, 74, 64
2, 38819, Note_on_c, 1, 74, 0
2, 38820, Note_on_c, 1, 75, 64
2, 38849, Note_on_c, 1, 75, 0
2, 38850, Note_on_c, 1, 74, 64
2, 38879, Note_on_c, 1, 74, 0
2, 38880, Note_on_c, 1, 72, 64
2, 38909, Note_on_c, 1, 72, 0
2, 38940, Note_on_c, 1, 72, 64
2, 38969, Note_on_c, 1, 72, 0
2, 39000, Note_on_c, 1, 72, 64
2, 39059, Note_on_c, 1, 72, 0
2, 39060, Note_on_c, 1, 74, 64
2, 39089, Note_on_c, 1, 74, 0
2, 39090, Note_on_c, 1, 72, 64
2, 39119, Note_on_c, 1, 72, 0
2, 39120, Note_on_c, 1, 70, 64
2, 39179, Note_on_c, 1, 70, 0
2, 39180, Note_on_c, 1, 72, 64
2, 39239, Note_on_c, 1, 72, 0
2, 39240, Note_on_c, 1, 74, 64
2, 39240, Note_on_c, 1, 67, 64
2, 39299, Note_on_c, 1, 74, 0
2, 39300, Note_on_c, 1, 75, 64
2, 39359, Note_on_c, 1, 75, 0
2, 39360, Note_on_c, 1, 69, 64
2, 39479, Note_on_c, 1, 67, 0
2, 39480, Note_on_c, 1, 66, 64
2, 39539, Note_on_c, 1, 69, 0
2, 39540, Note_on_c, 1, 74, 64
2, 39599, Note_on_c, 1, 66, 0
2, 39600, Note_on_c, 1, 67, 64
2, 39719, Note_on_c, 1, 74, 0
2, 39720, Note_on_c, 1, 72, 64
2, 39839, Note_on_c, 1, 67, 0
2, 39840, Note_on_c, 1, 66, 64
2, 39899, Note_on_c, 1, 72, 0
2, 39900, Note_on_c, 1, 70, 64
2, 39929, Note_on_c, 1, 70, 0
2, 39930, Note_on_c, 1, 69, 64
2, 39959, Note_on_c, 1, 69, 0
2, 39959, Note_on_c, 1, 66, 0
2, 39960, Note_on_c, 1, 67, 64
2, 39960, Note_on_c, 1, 70, 64
2, 40079, Note_on_c, 1, 70, 0
2, 40080, Note_on_c, 1, 69, 64
2, 40199, Note_on_c, 1, 67, 0
2, 40200, Note_on_c, 1, 66, 64
2, 40319, Note_on_c, 1, 66, 0
2, 40319, Note_on_c, 1, 69, 0
2, 40320, Note_on_c, 1, 70, 64
2, 40320, Note_on_c, 1, 67, 64
2, 40439, Note_on_c, 1, 67, 0
2, 40439, Note_on_c, 1, 70, 0
2, 40500, Note_on_c, 1, 69, 64
2, 40500, Note_on_c, 1, 66, 64
2, 40559, Note_on_c, 1, 66, 0
2, 40559, Note_on_c, 1, 69, 0
2, 40560, Note_on_c, 1, 70, 64
2, 40560, Note_on_c, 1, 67, 64
2, 40679, Note_on_c, 1, 67, 0
2, 40679, Note_on_c, 1, 70, 0
2, 40740, Note_on_c, 1, 72, 64
2, 40740, Note_on_c, 1, 67, 64
2, 40799, Note_on_c, 1, 67, 0
2, 40799, Note_on_c, 1, 72, 0
2, 40800, Note_on_c, 1, 69, 64
2, 40800, Note_on_c, 1, 65, 64
2, 40829, Note_on_c, 1, 65, 0
2, 40829, Note_on_c, 1, 69, 0
2, 40860, Note_on_c, 1, 69, 64
2, 40860, Note_on_c, 1, 65, 64
2, 40889, Note_on_c, 1, 65, 0
2, 40919, Note_on_c, 1, 69, 0
2, 40920, Note_on_c, 1, 70, 64
2, 40920, Note_on_c, 1, 65, 64
2, 40979, Note_on_c, 1, 65, 0
2, 40980, Note_on_c, 1, 67, 64
2, 41009, Note_on_c, 1, 67, 0
2, 41010, Note_on_c, 1, 65, 64
2, 41039, Note_on_c, 1, 65, 0
2, 41039, Note_on_c, 1, 70, 0
2, 41040, Note_on_c, 1, 67, 64
2, 41040, Note_on_c, 1, 63, 64
2, 41069, Note_on_c, 1, 63, 0
2, 41069, Note_on_c, 1, 67, 0
2, 41100, Note_on_c, 1, 67, 64
2, 41100, Note_on_c, 1, 63, 64
2, 41129, Note_on_c, 1, 63, 0
2, 41159, Note_on_c, 1, 67, 0
2, 41160, Note_on_c, 1, 69, 64
2, 41160, Note_on_c, 1, 63, 64
2, 41219, Note_on_c, 1, 63, 0
2, 41220, Note_on_c, 1, 65, 64
2, 41249, Note_on_c, 1, 65, 0
2, 41250, Note_on_c, 1, 63, 64
2, 41279, Note_on_c, 1, 63, 0
2, 41279, Note_on_c, 1, 69, 0
2, 41280, Note_on_c, 1, 66, 64
2, 41280, Note_on_c, 1, 62, 64
2, 41309, Note_on_c, 1, 62, 0
2, 41309, Note_on_c, 1, 66, 0
2, 41340, Note_on_c, 1, 66, 64
2, 41340, Note_on_c, 1, 62, 64
2, 41369, Note_on_c, 1, 62, 0
2, 41399, Note_on_c, 1, 66, 0
2, 41400, Note_on_c, 1, 67, 64
2, 41400, Note_on_c, 1, 62, 64
2, 41459, Note_on_c, 1, 62, 0
2, 41460, Note_on_c, 1, 63, 64
2, 41489, Note_on_c, 1, 63, 0
2, 41490, Note_on_c, 1, 62, 64
2, 41519, Note_on_c, 1, 62, 0
2, 41520, Note_on_c, 1, 60, 64
2, 41549, Note_on_c, 1, 60, 0
2, 41580, Note_on_c, 1, 60, 64
2, 41609, Note_on_c, 1, 60, 0
2, 41639, Note_on_c, 1, 67, 0
2, 41640, Note_on_c, 1, 60, 64
2, 41640, Note_on_c, 1, 66, 64
2, 41699, Note_on_c, 1, 60, 0
2, 41700, Note_on_c, 1, 62, 64
2, 41729, Note_on_c, 1, 62, 0
2, 41730, Note_on_c, 1, 60, 64
2, 41759, Note_on_c, 1, 60, 0
2, 41759, Note_on_c, 1, 66, 0
2, 41760, Note_on_c, 1, 58, 64
2, 41760, Note_on_c, 1, 67, 64
2, 41819, Note_on_c, 1, 58, 0
2, 41820, Note_on_c, 1, 59, 64
2, 41879, Note_on_c, 1, 59, 0
2, 41880, Note_on_c, 1, 60, 64
2, 41939, Note_on_c, 1, 60, 0
2, 41999, Note_on_c, 1, 67, 0
2, 42000, Note_on_c, 1, 68, 64
2, 42059, Note_on_c, 1, 68, 0
2, 42060, Note_on_c, 1, 67, 64
2, 42119, Note_on_c, 1, 67, 0
2, 42120, Note_on_c, 1, 68, 64
2, 42179, Note_on_c, 1, 68, 0
2, 42180, Note_on_c, 1, 65, 64
2, 42180, Note_on_c, 1, 62, 64
2, 42239, Note_on_c, 1, 62, 0
2, 42239, Note_on_c, 1, 65, 0
2, 42240, Note_on_c, 1, 67, 64
2, 42240, Note_on_c, 1, 63, 64
2, 42359, Note_on_c, 1, 63, 0
2, 42359, Note_on_c, 1, 67, 0
2, 42420, Note_on_c, 1, 60, 64
2, 42479, Note_on_c, 1, 60, 0
2, 42480, Note_on_c, 1, 62, 64
2, 42509, Note_on_c, 1, 62, 0
2, 42540, Note_on_c, 1, 62, 64
2, 42599, Note_on_c, 1, 62, 0
2, 42600, Note_on_c, 1, 67, 64
2, 42659, Note_on_c, 1, 67, 0
2, 42660, Note_on_c, 1, 65, 64
2, 42719, Note_on_c, 1, 65, 0
2, 42720, Note_on_c, 1, 63, 64
2, 42779, Note_on_c, 1, 63, 0
2, 42780, Note_on_c, 1, 60, 64
2, 42839, Note_on_c, 1, 60, 0
2, 42840, Note_on_c, 1, 67, 64
2, 42869, Note_on_c, 1, 67, 0
2, 42900, Note_on_c, 1, 67, 64
2, 42959, Note_on_c, 1, 67, 0
2, 42960, Note_on_c, 1, 63, 64
2, 43019, Note_on_c, 1, 63, 0
2, 43020, Note_on_c, 1, 60, 64
2, 43079, Note_on_c, 1, 60, 0
2, 43080, Note_on_c, 1, 68, 64
2, 43140, Note_on_c, 1, 63, 64
2, 43199, Note_on_c, 1, 63, 0
2, 43200, Note_on_c, 1, 62, 64
2, 43229, Note_on_c, 1, 62, 0
2, 43260, Note_on_c, 1, 62, 64
2, 43289, Note_on_c, 1, 62, 0
2, 43319, Note_on_c, 1, 68, 0
2, 43320, Note_on_c, 1, 67, 64
2, 43320, Note_on_c, 1, 62, 64
2, 43379, Note_on_c, 1, 62, 0
2, 43380, Note_on_c, 1, 63, 64
2, 43409, Note_on_c, 1, 63, 0
2, 43410, Note_on_c, 1, 62, 64
2, 43439, Note_on_c, 1, 62, 0
2, 43440, Note_on_c, 1, 60, 64
2, 43469, Note_on_c, 1, 60, 0
2, 43500, Note_on_c, 1, 60, 64
2, 43529, Note_on_c, 1, 60, 0
2, 43559, Note_on_c, 1, 67, 0
2, 43560, Note_on_c, 1, 65, 64
2, 43560, Note_on_c, 1, 60, 64
2, 43619, Note_on_c, 1, 60, 0
2, 43620, Note_on_c, 1, 62, 64
2, 43649, Note_on_c, 1, 62, 0
2, 43650, Note_on_c, 1, 60, 64
2, 43679, Note_on_c, 1, 60, 0
2, 43680, Note_on_c, 1, 59, 64
2, 43739, Note_on_c, 1, 65, 0
2, 43740, Note_on_c, 1, 62, 64
2, 43799, Note_on_c, 1, 62, 0
2, 43799, Note_on_c, 1, 59, 0
2, 43800, Note_on_c, 1, 63, 64
2, 43800, Note_on_c, 1, 60, 64
2, 43919, Note_on_c, 1, 63, 0
2, 43920, Note_on_c, 1, 62, 64
2, 44039, Note_on_c, 1, 60, 0
2, 44040, Note_on_c, 1, 60, 64
2, 44054, Note_on_c, 1, 60, 0
2, 44055, Note_on_c, 1, 59, 64
2, 44069, Note_on_c, 1, 59, 0
2, 44070, Note_on_c, 1, 60, 64
2, 44084, Note_on_c, 1, 60, 0
2, 44085, Note_on_c, 1, 59, 64
2, 44099, Note_on_c, 1, 59, 0
2, 44100, Note_on_c, 1, 60, 64
2, 44114, Note_on_c, 1, 60, 0
2, 44115, Note_on_c, 1, 59, 64
2, 44159, Note_on_c, 1, 59, 0
2, 44159, Note_on_c, 1, 62, 0
2, 44160, Note_on_c, 1, 63, 64
2, 44160, Note_on_c, 1, 60, 64
2, 44219, Note_on_c, 1, 60, 0
2, 44219, Note_on_c, 1, 63, 0
2, 44220, Note_on_c, 1, 65, 64
2, 44220, Note_on_c, 1, 62, 64
2, 44279, Note_on_c, 1, 62, 0
2, 44279, Note_on_c, 1, 65, 0
2, 44280, Note_on_c, 1, 67, 64
2, 44280, Note_on_c, 1, 63, 64
2, 44399, Note_on_c, 1, 63, 0
2, 44399, Note_on_c, 1, 67, 0
2, 44400, Note_on_c, 1, 62, 64
2, 44400, Note_on_c, 1, 66, 64
2, 44519, Note_on_c, 1, 66, 0
2, 44519, Note_on_c, 1, 62, 0
2, 44520, Note_on_c, 1, 69, 64
2, 44520, Note_on_c, 1, 66, 64
2, 44639, Note_on_c, 1, 66, 0
2, 44640, Note_on_c, 1, 74, 64
2, 44759, Note_on_c, 1, 69, 0
2, 44760, Note_on_c, 1, 67, 64
2, 44819, Note_on_c, 1, 67, 0
2, 44820, Note_on_c, 1, 70, 64
2, 44879, Note_on_c, 1, 70, 0
2, 44879, Note_on_c, 1, 74, 0
2, 44880, Note_on_c, 1, 72, 64
2, 44880, Note_on_c, 1, 75, 64
2, 44939, Note_on_c, 1, 75, 0
2, 44939, Note_on_c, 1, 72, 0
2, 44940, Note_on_c, 1, 70, 64
2, 44940, Note_on_c, 1, 74, 64
2, 44999, Note_on_c, 1, 74, 0
2, 44999, Note_on_c, 1, 70, 0
2, 45000, Note_on_c, 1, 72, 64
2, 45000, Note_on_c, 1, 75, 64
2, 45059, Note_on_c, 1, 75, 0
2, 45059, Note_on_c, 1, 72, 0
2, 45060, Note_on_c, 1, 69, 64
2, 45060, Note_on_c, 1, 72, 64
2, 45119, Note_on_c, 1, 72, 0
2, 45119, Note_on_c, 1, 69, 0
2, 45120, Note_on_c, 1, 65, 64
2, 45120, Note_on_c, 1, 74, 64
2, 45179, Note_on_c, 1, 65, 0
2, 45180, Note_on_c, 1, 66, 64
2, 45239, Note_on_c, 1, 66, 0
2, 45239, Note_on_c, 1, 74, 0
2, 45240, Note_on_c, 1, 67, 64
2, 45300, Note_on_c, 1, 67, 64
2, 45359, Note_on_c, 1, 67, 0
2, 45359, Note_on_c, 1, 67, 0
2, 45360, Note_on_c, 1, 69, 64
2, 45389, Note_on_c, 1, 69, 0
2, 45420, Note_on_c, 1, 69, 64
2, 45479, Note_on_c, 1, 69, 0
2, 45480, Note_on_c, 1, 74, 64
2, 45539, Note_on_c, 1, 74, 0
2, 45540, Note_on_c, 1, 72, 64
2, 45599, Note_on_c, 1, 72, 0
2, 45600, Note_on_c, 1, 70, 64
2, 45659, Note_on_c, 1, 70, 0
2, 45660, Note_on_c, 1, 67, 64
2, 45719, Note_on_c, 1, 67, 0
2, 45720, Note_on_c, 1, 74, 64
2, 45749, Note_on_c, 1, 74, 0
2, 45780, Note_on_c, 1, 74, 64
2, 45839, Note_on_c, 1, 74, 0
2, 45840, Note_on_c, 1, 70, 64
2, 45899, Note_on_c, 1, 70, 0
2, 45900, Note_on_c, 1, 67, 64
2, 45959, Note_on_c, 1, 67, 0
2, 45960, Note_on_c, 1, 75, 64
2, 46020, Note_on_c, 1, 70, 64
2, 46079, Note_on_c, 1, 70, 0
2, 46080, Note_on_c, 1, 69, 64
2, 46109, Note_on_c, 1, 69, 0
2, 46140, Note_on_c, 1, 69, 64
2, 46169, Note_on_c, 1, 69, 0
2, 46199, Note_on_c, 1, 75, 0
2, 46200, Note_on_c, 1, 74, 64
2, 46200, Note_on_c, 1, 69, 64
2, 46259, Note_on_c, 1, 69, 0
2, 46260, Note_on_c, 1, 70, 64
2, 46289, Note_on_c, 1, 70, 0
2, 46290, Note_on_c, 1, 69, 64
2, 46319, Note_on_c, 1, 69, 0
2, 46320, Note_on_c, 1, 67, 64
2, 46349, Note_on_c, 1, 67, 0
2, 46380, Note_on_c, 1, 67, 64
2, 46409, Note_on_c, 1, 67, 0
2, 46439, Note_on_c, 1, 74, 0
2, 46440, Note_on_c, 1, 67, 64
2, 46440, Note_on_c, 1, 72, 64
2, 46499, Note_on_c, 1, 67, 0
2, 46500, Note_on_c, 1, 69, 64
2, 46529, Note_on_c, 1, 69, 0
2, 46530, Note_on_c, 1, 67, 64
2, 46559, Note_on_c, 1, 67, 0
2, 46560, Note_on_c, 1, 66, 64
2, 46679, Note_on_c, 1, 66, 0
2, 46679, Note_on_c, 1, 72, 0
2, 46680, Note_on_c, 1, 70, 64
2, 46680, Note_on_c, 1, 67, 64
2, 46799, Note_on_c, 1, 70, 0
2, 46800, Note_on_c, 1, 69, 64
2, 46919, Note_on_c, 1, 67, 0
2, 46920, Note_on_c, 1, 66, 64
2, 47039, Note_on_c, 1, 66, 0
2, 47039, Note_on_c, 1, 69, 0
2, 47040, Note_on_c, 1, 62, 64
2, 47160, Note_on_c, 1, 67, 64
2, 47219, Note_on_c, 1, 62, 0
2, 47220, Note_on_c, 1, 74, 64
2, 47279, Note_on_c, 1, 74, 0
2, 47280, Note_on_c, 1, 72, 64
2, 47309, Note_on_c, 1, 72, 0
2, 47340, Note_on_c, 1, 72, 64
2, 47369, Note_on_c, 1, 72, 0
2, 47399, Note_on_c, 1, 67, 0
2, 47400, Note_on_c, 1, 72, 64
2, 47400, Note_on_c, 1, 66, 64
2, 47459, Note_on_c, 1, 72, 0
2, 47460, Note_on_c, 1, 74, 64
2, 47489, Note_on_c, 1, 74, 0
2, 47490, Note_on_c, 1, 72, 64
2, 47519, Note_on_c, 1, 72, 0
2, 47519, Note_on_c, 1, 66, 0
2, 47520, Note_on_c, 1, 70, 64
2, 47579, Note_on_c, 1, 70, 0
2, 47580, Note_on_c, 1, 69, 64
2, 47639, Note_on_c, 1, 69, 0
2, 47640, Note_on_c, 1, 67, 64
2, 47879, Note_on_c, 1, 67, 0
2, 47880, Note_on_c, 1, 66, 64
2, 47999, Note_on_c, 1, 66, 0
2, 48000, Note_on_c, 1, 67, 64
2, 48000, Note_on_c, 1, 59, 64
2, 48119, Note_on_c, 1, 59, 0
2, 48120, Note_on_c, 1, 60, 64
2, 48299, Note_on_c, 1, 60, 0
2, 48300, Note_on_c, 1, 62, 64
2, 48329, Note_on_c, 1, 62, 0
2, 48330, Note_on_c, 1, 60, 64
2, 48359, Note_on_c, 1, 60, 0
2, 48360, Note_on_c, 1, 59, 64
2, 48419, Note_on_c, 1, 59, 0
2, 48419, Note_on_c, 1, 67, 0
2, 48420, Note_on_c, 1, 66, 64
2, 48420, Note_on_c, 1, 60, 64
2, 48479, Note_on_c, 1, 60, 0
2, 48479, Note_on_c, 1, 66, 0
2, 48480, Note_on_c, 1, 67, 64
2, 48480, Note_on_c, 1, 62, 64
2, 49560, Note_on_c, 1, 62, 0
2, 49560, Note_on_c, 1, 67, 0
2, 49560, End_track
3, 0, Start_track
3, 0, Title_t, "Left Hand"
3, 0, Instrument_name_t, "Pipe Organ"
3, 720, Note_on_c, 1, 62, 64
3, 720, Note_on_c, 1, 58, 64
3, 720, Note_on_c, 1, 55, 64
3, 1439, Note_on_c, 1, 55, 0
3, 1439, Note_on_c, 1, 58, 0
3, 1439, Note_on_c, 1, 62, 0
3, 1560, Note_on_c, 1, 48, 64
3, 1679, Note_on_c, 1, 48, 0
3, 1680, Note_on_c, 1, 51, 64
3, 1799, Note_on_c, 1, 51, 0
3, 1800, Note_on_c, 1, 55, 64
3, 1919, Note_on_c, 1, 55, 0
3, 1920, Note_on_c, 1, 60, 64
3, 2039, Note_on_c, 1, 60, 0
3, 2040, Note_on_c, 1, 48, 64
3, 2159, Note_on_c, 1, 48, 0
3, 2160, Note_on_c, 1, 53, 64
3, 2160, Note_on_c, 1, 57, 64
3, 2160, Note_on_c, 1, 60, 64
3, 2879, Note_on_c, 1, 60, 0
3, 2879, Note_on_c, 1, 57, 0
3, 2879, Note_on_c, 1, 53, 0
3, 3000, Note_on_c, 1, 46, 64
3, 3119, Note_on_c, 1, 46, 0
3, 3120, Note_on_c, 1, 50, 64
3, 3239, Note_on_c, 1, 50, 0
3, 3240, Note_on_c, 1, 53, 64
3, 3359, Note_on_c, 1, 53, 0
3, 3360, Note_on_c, 1, 58, 64
3, 3479, Note_on_c, 1, 58, 0
3, 3480, Note_on_c, 1, 46, 64
3, 3599, Note_on_c, 1, 46, 0
3, 3600, Note_on_c, 1, 58, 64
3, 3600, Note_on_c, 1, 55, 64
3, 4079, Note_on_c, 1, 58, 0
3, 4080, Note_on_c, 1, 60, 64
3, 4319, Note_on_c, 1, 55, 0
3, 4439, Note_on_c, 1, 60, 0
3, 4440, Note_on_c, 1, 57, 64
3, 4559, Note_on_c, 1, 57, 0
3, 4560, Note_on_c, 1, 62, 64
3, 4679, Note_on_c, 1, 62, 0
3, 4680, Note_on_c, 1, 60, 64
3, 4799, Note_on_c, 1, 60, 0
3, 4800, Note_on_c, 1, 58, 64
3, 4919, Note_on_c, 1, 58, 0
3, 4920, Note_on_c, 1, 57, 64
3, 5039, Note_on_c, 1, 57, 0
3, 5040, Note_on_c, 1, 58, 64
3, 5040, Note_on_c, 1, 55, 64
3, 5159, Note_on_c, 1, 58, 0
3, 5160, Note_on_c, 1, 60, 64
3, 5279, Note_on_c, 1, 60, 0
3, 5280, Note_on_c, 1, 62, 64
3, 5399, Note_on_c, 1, 62, 0
3, 5400, Note_on_c, 1, 60, 64
3, 5519, Note_on_c, 1, 60, 0
3, 5520, Note_on_c, 1, 63, 64
3, 5639, Note_on_c, 1, 63, 0
3, 5640, Note_on_c, 1, 60, 64
3, 5759, Note_on_c, 1, 60, 0
3, 5759, Note_on_c, 1, 55, 0
3, 5760, Note_on_c, 1, 57, 64
3, 5819, Note_on_c, 1, 57, 0
3, 5820, Note_on_c, 1, 62, 64
3, 5879, Note_on_c, 1, 62, 0
3, 5880, Note_on_c, 1, 60, 64
3, 5939, Note_on_c, 1, 60, 0
3, 5940, Note_on_c, 1, 62, 64
3, 5999, Note_on_c, 1, 62, 0
3, 6000, Note_on_c, 1, 57, 64
3, 6059, Note_on_c, 1, 57, 0
3, 6060, Note_on_c, 1, 62, 64
3, 6119, Note_on_c, 1, 62, 0
3, 6120, Note_on_c, 1, 60, 64
3, 6179, Note_on_c, 1, 60, 0
3, 6180, Note_on_c, 1, 62, 64
3, 6239, Note_on_c, 1, 62, 0
3, 6240, Note_on_c, 1, 57, 64
3, 6299, Note_on_c, 1, 57, 0
3, 6300, Note_on_c, 1, 62, 64
3, 6359, Note_on_c, 1, 62, 0
3, 6360, Note_on_c, 1, 60, 64
3, 6419, Note_on_c, 1, 60, 0
3, 6420, Note_on_c, 1, 62, 64
3, 6449, Note_on_c, 1, 62, 0
3, 6480, Note_on_c, 1, 59, 64
3, 6480, Note_on_c, 1, 62, 64
3, 7199, Note_on_c, 1, 62, 0
3, 7199, Note_on_c, 1, 59, 0
3, 7200, Note_on_c, 1, 60, 64
3, 7200, Note_on_c, 1, 55, 64
3, 7919, Note_on_c, 1, 55, 0
3, 7919, Note_on_c, 1, 60, 0
3, 7920, Note_on_c, 1, 60, 64
3, 7920, Note_on_c, 1, 57, 64
3, 8639, Note_on_c, 1, 57, 0
3, 8639, Note_on_c, 1, 60, 0
3, 8640, Note_on_c, 1, 58, 64
3, 8640, Note_on_c, 1, 53, 64
3, 9359, Note_on_c, 1, 53, 0
3, 9359, Note_on_c, 1, 58, 0
3, 9360, Note_on_c, 1, 58, 64
3, 9360, Note_on_c, 1, 55, 64
3, 10079, Note_on_c, 1, 55, 0
3, 10079, Note_on_c, 1, 58, 0
3, 10080, Note_on_c, 1, 60, 64
3, 10080, Note_on_c, 1, 53, 64
3, 10319, Note_on_c, 1, 53, 0
3, 10319, Note_on_c, 1, 60, 0
3, 10800, Note_on_c, 1, 58, 64
3, 10800, Note_on_c, 1, 53, 64
3, 11039, Note_on_c, 1, 53, 0
3, 11039, Note_on_c, 1, 58, 0
3, 11520, Note_on_c, 1, 58, 64
3, 11520, Note_on_c, 1, 55, 64
3, 11759, Note_on_c, 1, 55, 0
3, 11760, Note_on_c, 1, 53, 64
3, 11999, Note_on_c, 1, 58, 0
3, 12000, Note_on_c, 1, 57, 64
3, 12239, Note_on_c, 1, 57, 0
3, 12239, Note_on_c, 1, 53, 0
3, 12240, Note_on_c, 1, 53, 64
3, 12240, Note_on_c, 1, 58, 64
3, 12959, Note_on_c, 1, 58, 0
3, 12959, Note_on_c, 1, 53, 0
3, 13020, Note_on_c, 1, 60, 64
3, 13079, Note_on_c, 1, 60, 0
3, 13080, Note_on_c, 1, 58, 64
3, 13139, Note_on_c, 1, 58, 0
3, 13140, Note_on_c, 1, 60, 64
3, 13199, Note_on_c, 1, 60, 0
3, 13200, Note_on_c, 1, 57, 64
3, 13259, Note_on_c, 1, 57, 0
3, 13260, Note_on_c, 1, 60, 64
3, 13319, Note_on_c, 1, 60, 0
3, 13320, Note_on_c, 1, 58, 64
3, 13379, Note_on_c, 1, 58, 0
3, 13380, Note_on_c, 1, 60, 64
3, 13439, Note_on_c, 1, 60, 0
3, 13440, Note_on_c, 1, 53, 64
3, 13499, Note_on_c, 1, 53, 0
3, 13500, Note_on_c, 1, 60, 64
3, 13559, Note_on_c, 1, 60, 0
3, 13560, Note_on_c, 1, 58, 64
3, 13619, Note_on_c, 1, 58, 0
3, 13620, Note_on_c, 1, 60, 64
3, 13679, Note_on_c, 1, 60, 0
3, 13680, Note_on_c, 1, 62, 64
3, 13680, Note_on_c, 1, 55, 64
3, 13919, Note_on_c, 1, 55, 0
3, 13919, Note_on_c, 1, 62, 0
3, 14400, Note_on_c, 1, 55, 64
3, 14400, Note_on_c, 1, 57, 64
3, 14400, Note_on_c, 1, 64, 64
3, 14639, Note_on_c, 1, 64, 0
3, 14639, Note_on_c, 1, 57, 0
3, 14639, Note_on_c, 1, 55, 0
3, 15120, Note_on_c, 1, 62, 64
3, 15120, Note_on_c, 1, 57, 64
3, 15120, Note_on_c, 1, 53, 64
3, 15359, Note_on_c, 1, 53, 0
3, 15359, Note_on_c, 1, 57, 0
3, 15359, Note_on_c, 1, 62, 0
3, 15840, Note_on_c, 1, 62, 64
3, 15840, Note_on_c, 1, 58, 64
3, 15840, Note_on_c, 1, 55, 64
3, 16079, Note_on_c, 1, 55, 0
3, 16079, Note_on_c, 1, 58, 0
3, 16080, Note_on_c, 1, 57, 64
3, 16319, Note_on_c, 1, 62, 0
3, 16320, Note_on_c, 1, 61, 64
3, 16559, Note_on_c, 1, 61, 0
3, 16559, Note_on_c, 1, 57, 0
3, 16680, Note_on_c, 1, 50, 64
3, 16799, Note_on_c, 1, 50, 0
3, 16800, Note_on_c, 1, 53, 64
3, 16919, Note_on_c, 1, 53, 0
3, 16920, Note_on_c, 1, 57, 64
3, 17039, Note_on_c, 1, 57, 0
3, 17040, Note_on_c, 1, 53, 64
3, 17159, Note_on_c, 1, 53, 0
3, 17160, Note_on_c, 1, 50, 64
3, 17279, Note_on_c, 1, 50, 0
3, 17280, Note_on_c, 1, 55, 64
3, 17280, Note_on_c, 1, 50, 64
3, 17999, Note_on_c, 1, 50, 0
3, 17999, Note_on_c, 1, 55, 0
3, 18120, Note_on_c, 1, 48, 64
3, 18239, Note_on_c, 1, 48, 0
3, 18240, Note_on_c, 1, 51, 64
3, 18359, Note_on_c, 1, 51, 0
3, 18360, Note_on_c, 1, 55, 64
3, 18479, Note_on_c, 1, 55, 0
3, 18480, Note_on_c, 1, 60, 64
3, 18599, Note_on_c, 1, 60, 0
3, 18600, Note_on_c, 1, 48, 64
3, 18719, Note_on_c, 1, 48, 0
3, 18720, Note_on_c, 1, 60, 64
3, 18720, Note_on_c, 1, 57, 64
3, 18720, Note_on_c, 1, 53, 64
3, 19439, Note_on_c, 1, 53, 0
3, 19439, Note_on_c, 1, 57, 0
3, 19439, Note_on_c, 1, 60, 0
3, 19560, Note_on_c, 1, 46, 64
3, 19679, Note_on_c, 1, 46, 0
3, 19680, Note_on_c, 1, 50, 64
3, 19799, Note_on_c, 1, 50, 0
3, 19800, Note_on_c, 1, 53, 64
3, 19919, Note_on_c, 1, 53, 0
3, 19920, Note_on_c, 1, 58, 64
3, 20039, Note_on_c, 1, 58, 0
3, 20040, Note_on_c, 1, 46, 64
3, 20159, Note_on_c, 1, 46, 0
3, 20160, Note_on_c, 1, 58, 64
3, 20160, Note_on_c, 1, 55, 64
3, 20639, Note_on_c, 1, 58, 0
3, 20640, Note_on_c, 1, 60, 64
3, 20879, Note_on_c, 1, 55, 0
3, 20880, Note_on_c, 1, 57, 64
3, 21119, Note_on_c, 1, 57, 0
3, 21119, Note_on_c, 1, 60, 0
3, 21600, Note_on_c, 1, 58, 64
3, 21600, Note_on_c, 1, 55, 64
3, 21839, Note_on_c, 1, 55, 0
3, 21839, Note_on_c, 1, 58, 0
3, 22320, Note_on_c, 1, 57, 64
3, 22320, Note_on_c, 1, 50, 64
3, 22559, Note_on_c, 1, 50, 0
3, 22559, Note_on_c, 1, 57, 0
3, 23040, Note_on_c, 1, 55, 64
3, 23040, Note_on_c, 1, 50, 64
3, 23279, Note_on_c, 1, 50, 0
3, 23279, Note_on_c, 1, 55, 0
3, 23760, Note_on_c, 1, 51, 64
3, 23760, Note_on_c, 1, 55, 64
3, 23999, Note_on_c, 1, 51, 0
3, 24000, Note_on_c, 1, 50, 64
3, 24239, Note_on_c, 1, 55, 0
3, 24240, Note_on_c, 1, 54, 64
3, 24479, Note_on_c, 1, 54, 0
3, 24479, Note_on_c, 1, 50, 0
3, 24540, Note_on_c, 1, 55, 64
3, 24599, Note_on_c, 1, 55, 0
3, 24600, Note_on_c, 1, 54, 64
3, 24659, Note_on_c, 1, 54, 0
3, 24660, Note_on_c, 1, 55, 64
3, 24719, Note_on_c, 1, 55, 0
3, 24720, Note_on_c, 1, 50, 64
3, 24779, Note_on_c, 1, 50, 0
3, 24780, Note_on_c, 1, 55, 64
3, 24839, Note_on_c, 1, 55, 0
3, 24840, Note_on_c, 1, 54, 64
3, 24899, Note_on_c, 1, 54, 0
3, 24900, Note_on_c, 1, 55, 64
3, 24959, Note_on_c, 1, 55, 0
3, 24960, Note_on_c, 1, 46, 64
3, 25019, Note_on_c, 1, 46, 0
3, 25020, Note_on_c, 1, 50, 64
3, 25079, Note_on_c, 1, 50, 0
3, 25080, Note_on_c, 1, 48, 64
3, 25139, Note_on_c, 1, 48, 0
3, 25140, Note_on_c, 1, 50, 64
3, 25199, Note_on_c, 1, 50, 0
3, 25200, Note_on_c, 1, 43, 64
3, 25439, Note_on_c, 1, 43, 0
3, 25440, Note_on_c, 1, 55, 64
3, 25440, Note_on_c, 1, 61, 64
3, 25919, Note_on_c, 1, 61, 0
3, 25919, Note_on_c, 1, 55, 0
3, 25920, Note_on_c, 1, 58, 64
3, 25920, Note_on_c, 1, 62, 64
3, 26039, Note_on_c, 1, 58, 0
3, 26040, Note_on_c, 1, 60, 64
3, 26159, Note_on_c, 1, 60, 0
3, 26160, Note_on_c, 1, 57, 64
3, 26399, Note_on_c, 1, 62, 0
3, 26400, Note_on_c, 1, 60, 64
3, 26639, Note_on_c, 1, 60, 0
3, 26639, Note_on_c, 1, 57, 0
3, 26640, Note_on_c, 1, 62, 64
3, 26640, Note_on_c, 1, 58, 64
3, 27359, Note_on_c, 1, 58, 0
3, 27359, Note_on_c, 1, 62, 0
3, 29280, Note_on_c, 1, 67, 64
3, 29519, Note_on_c, 1, 67, 0
3, 29520, Note_on_c, 1, 70, 64
3, 29579, Note_on_c, 1, 70, 0
3, 29580, Note_on_c, 1, 69, 64
3, 29639, Note_on_c, 1, 69, 0
3, 29640, Note_on_c, 1, 70, 64
3, 29699, Note_on_c, 1, 70, 0
3, 29700, Note_on_c, 1, 67, 64
3, 29759, Note_on_c, 1, 67, 0
3, 29760, Note_on_c, 1, 69, 64
3, 29879, Note_on_c, 1, 69, 0
3, 29940, Note_on_c, 1, 62, 64
3, 29999, Note_on_c, 1, 62, 0
3, 30000, Note_on_c, 1, 64, 64
3, 30029, Note_on_c, 1, 64, 0
3, 30060, Note_on_c, 1, 64, 64
3, 30119, Note_on_c, 1, 64, 0
3, 30120, Note_on_c, 1, 69, 64
3, 30179, Note_on_c, 1, 69, 0
3, 30180, Note_on_c, 1, 67, 64
3, 30239, Note_on_c, 1, 67, 0
3, 30240, Note_on_c, 1, 65, 64
3, 30299, Note_on_c, 1, 65, 0
3, 30300, Note_on_c, 1, 62, 64
3, 30359, Note_on_c, 1, 62, 0
3, 30360, Note_on_c, 1, 69, 64
3, 30389, Note_on_c, 1, 69, 0
3, 30420, Note_on_c, 1, 69, 64
3, 30479, Note_on_c, 1, 69, 0
3, 30480, Note_on_c, 1, 65, 64
3, 30539, Note_on_c, 1, 65, 0
3, 30540, Note_on_c, 1, 62, 64
3, 30599, Note_on_c, 1, 62, 0
3, 30600, Note_on_c, 1, 70, 64
3, 30839, Note_on_c, 1, 70, 0
3, 30840, Note_on_c, 1, 69, 64
3, 31079, Note_on_c, 1, 69, 0
3, 31200, Note_on_c, 1, 62, 64
3, 31439, Note_on_c, 1, 62, 0
3, 31440, Note_on_c, 1, 63, 64
3, 31499, Note_on_c, 1, 63, 0
3, 31500, Note_on_c, 1, 62, 64
3, 31559, Note_on_c, 1, 62, 0
3, 31560, Note_on_c, 1, 63, 64
3, 31619, Note_on_c, 1, 63, 0
3, 31620, Note_on_c, 1, 60, 64
3, 31679, Note_on_c, 1, 60, 0
3, 31680, Note_on_c, 1, 62, 64
3, 31799, Note_on_c, 1, 62, 0
3, 31860, Note_on_c, 1, 55, 64
3, 31919, Note_on_c, 1, 55, 0
3, 31920, Note_on_c, 1, 57, 64
3, 31949, Note_on_c, 1, 57, 0
3, 31980, Note_on_c, 1, 57, 64
3, 32039, Note_on_c, 1, 57, 0
3, 32040, Note_on_c, 1, 62, 64
3, 32099, Note_on_c, 1, 62, 0
3, 32100, Note_on_c, 1, 60, 64
3, 32159, Note_on_c, 1, 60, 0
3, 32160, Note_on_c, 1, 58, 64
3, 32219, Note_on_c, 1, 58, 0
3, 32220, Note_on_c, 1, 55, 64
3, 32279, Note_on_c, 1, 55, 0
3, 32280, Note_on_c, 1, 62, 64
3, 32309, Note_on_c, 1, 62, 0
3, 32340, Note_on_c, 1, 62, 64
3, 32399, Note_on_c, 1, 62, 0
3, 32400, Note_on_c, 1, 58, 64
3, 32459, Note_on_c, 1, 58, 0
3, 32460, Note_on_c, 1, 55, 64
3, 32519, Note_on_c, 1, 55, 0
3, 32520, Note_on_c, 1, 63, 64
3, 32759, Note_on_c, 1, 63, 0
3, 32760, Note_on_c, 1, 62, 64
3, 32999, Note_on_c, 1, 62, 0
3, 33000, Note_on_c, 1, 60, 64
3, 33239, Note_on_c, 1, 60, 0
3, 33240, Note_on_c, 1, 58, 64
3, 33299, Note_on_c, 1, 58, 0
3, 33300, Note_on_c, 1, 57, 64
3, 33329, Note_on_c, 1, 57, 0
3, 33330, Note_on_c, 1, 55, 64
3, 33359, Note_on_c, 1, 55, 0
3, 33360, Note_on_c, 1, 57, 64
3, 33360, Note_on_c, 1, 60, 64
3, 33599, Note_on_c, 1, 60, 0
3, 33599, Note_on_c, 1, 57, 0
3, 33600, Note_on_c, 1, 58, 64
3, 33600, Note_on_c, 1, 62, 64
3, 33659, Note_on_c, 1, 58, 0
3, 33660, Note_on_c, 1, 60, 64
3, 33719, Note_on_c, 1, 60, 0
3, 33719, Note_on_c, 1, 62, 0
3, 33720, Note_on_c, 1, 62, 64
3, 33839, Note_on_c, 1, 62, 0
3, 33840, Note_on_c, 1, 62, 64
3, 33959, Note_on_c, 1, 62, 0
3, 34020, Note_on_c, 1, 67, 64
3, 34139, Note_on_c, 1, 67, 0
3, 34140, Note_on_c, 1, 65, 64
3, 34169, Note_on_c, 1, 65, 0
3, 34170, Note_on_c, 1, 64, 64
3, 34199, Note_on_c, 1, 64, 0
3, 34200, Note_on_c, 1, 65, 64
3, 34319, Note_on_c, 1, 65, 0
3, 34320, Note_on_c, 1, 64, 64
3, 34379, Note_on_c, 1, 64, 0
3, 34440, Note_on_c, 1, 64, 64
3, 34559, Note_on_c, 1, 64, 0
3, 34560, Note_on_c, 1, 65, 64
3, 34679, Note_on_c, 1, 65, 0
3, 34740, Note_on_c, 1, 64, 64
3, 34799, Note_on_c, 1, 64, 0
3, 34800, Note_on_c, 1, 65, 64
3, 34919, Note_on_c, 1, 65, 0
3, 34920, Note_on_c, 1, 62, 64
3, 35039, Note_on_c, 1, 62, 0
3, 35040, Note_on_c, 1, 64, 64
3, 35159, Note_on_c, 1, 64, 0
3, 35160, Note_on_c, 1, 65, 64
3, 35279, Note_on_c, 1, 65, 0
3, 35280, Note_on_c, 1, 62, 64
3, 35399, Note_on_c, 1, 62, 0
3, 35400, Note_on_c, 1, 64, 64
3, 35519, Note_on_c, 1, 64, 0
3, 35520, Note_on_c, 1, 61, 64
3, 35639, Note_on_c, 1, 61, 0
3, 35640, Note_on_c, 1, 62, 64
3, 35759, Note_on_c, 1, 62, 0
3, 35760, Note_on_c, 1, 58, 64
3, 35879, Note_on_c, 1, 58, 0
3, 35880, Note_on_c, 1, 61, 64
3, 35880, Note_on_c, 1, 55, 64
3, 35999, Note_on_c, 1, 55, 0
3, 35999, Note_on_c, 1, 61, 0
3, 36000, Note_on_c, 1, 57, 64
3, 36000, Note_on_c, 1, 62, 64
3, 36119, Note_on_c, 1, 62, 0
3, 36119, Note_on_c, 1, 57, 0
3, 36180, Note_on_c, 1, 65, 64
3, 36180, Note_on_c, 1, 57, 64
3, 36239, Note_on_c, 1, 57, 0
3, 36239, Note_on_c, 1, 65, 0
3, 36240, Note_on_c, 1, 64, 64
3, 36240, Note_on_c, 1, 58, 64
3, 36359, Note_on_c, 1, 58, 0
3, 36360, Note_on_c, 1, 57, 64
3, 36479, Note_on_c, 1, 57, 0
3, 36479, Note_on_c, 1, 64, 0
3, 36480, Note_on_c, 1, 65, 64
3, 36480, Note_on_c, 1, 57, 64
3, 36599, Note_on_c, 1, 57, 0
3, 36599, Note_on_c, 1, 65, 0
3, 36660, Note_on_c, 1, 62, 64
3, 36719, Note_on_c, 1, 62, 0
3, 36720, Note_on_c, 1, 60, 64
3, 36749, Note_on_c, 1, 60, 0
3, 36780, Note_on_c, 1, 60, 64
3, 36809, Note_on_c, 1, 60, 0
3, 36840, Note_on_c, 1, 60, 64
3, 36899, Note_on_c, 1, 60, 0
3, 36900, Note_on_c, 1, 62, 64
3, 36929, Note_on_c, 1, 62, 0
3, 36930, Note_on_c, 1, 60, 64
3, 36959, Note_on_c, 1, 60, 0
3, 36960, Note_on_c, 1, 58, 64
3, 36989, Note_on_c, 1, 58, 0
3, 37020, Note_on_c, 1, 58, 64
3, 37049, Note_on_c, 1, 58, 0
3, 37080, Note_on_c, 1, 58, 64
3, 37139, Note_on_c, 1, 58, 0
3, 37140, Note_on_c, 1, 60, 64
3, 37169, Note_on_c, 1, 60, 0
3, 37170, Note_on_c, 1, 58, 64
3, 37199, Note_on_c, 1, 58, 0
3, 37200, Note_on_c, 1, 57, 64
3, 37229, Note_on_c, 1, 57, 0
3, 37260, Note_on_c, 1, 57, 64
3, 37289, Note_on_c, 1, 57, 0
3, 37320, Note_on_c, 1, 57, 64
3, 37379, Note_on_c, 1, 57, 0
3, 37380, Note_on_c, 1, 58, 64
3, 37409, Note_on_c, 1, 58, 0
3, 37410, Note_on_c, 1, 57, 64
3, 37439, Note_on_c, 1, 57, 0
3, 37440, Note_on_c, 1, 55, 64
3, 37469, Note_on_c, 1, 55, 0
3, 37500, Note_on_c, 1, 55, 64
3, 37529, Note_on_c, 1, 55, 0
3, 37560, Note_on_c, 1, 55, 64
3, 37619, Note_on_c, 1, 55, 0
3, 37620, Note_on_c, 1, 57, 64
3, 37649, Note_on_c, 1, 57, 0
3, 37650, Note_on_c, 1, 55, 64
3, 37679, Note_on_c, 1, 55, 0
3, 37680, Note_on_c, 1, 53, 64
3, 37739, Note_on_c, 1, 53, 0
3, 37800, Note_on_c, 1, 46, 64
3, 37859, Note_on_c, 1, 46, 0
3, 37860, Note_on_c, 1, 50, 64
3, 37919, Note_on_c, 1, 50, 0
3, 37920, Note_on_c, 1, 51, 64
3, 37979, Note_on_c, 1, 51, 0
3, 37980, Note_on_c, 1, 48, 64
3, 38009, Note_on_c, 1, 48, 0
3, 38040, Note_on_c, 1, 53, 64
3, 38069, Note_on_c, 1, 53, 0
3, 38100, Note_on_c, 1, 41, 64
3, 38129, Note_on_c, 1, 41, 0
3, 38160, Note_on_c, 1, 46, 64
3, 38279, Note_on_c, 1, 46, 0
3, 38280, Note_on_c, 1, 58, 64
3, 38280, Note_on_c, 1, 62, 64
3, 38399, Note_on_c, 1, 62, 0
3, 38400, Note_on_c, 1, 60, 64
3, 38519, Note_on_c, 1, 58, 0
3, 38520, Note_on_c, 1, 57, 64
3, 38639, Note_on_c, 1, 60, 0
3, 38640, Note_on_c, 1, 58, 64
3, 38759, Note_on_c, 1, 57, 0
3, 38760, Note_on_c, 1, 55, 64
3, 38879, Note_on_c, 1, 58, 0
3, 38880, Note_on_c, 1, 57, 64
3, 38999, Note_on_c, 1, 55, 0
3, 39000, Note_on_c, 1, 54, 64
3, 39119, Note_on_c, 1, 54, 0
3, 39119, Note_on_c, 1, 57, 0
3, 39120, Note_on_c, 1, 55, 64
3, 39180, Note_on_c, 1, 57, 64
3, 39239, Note_on_c, 1, 57, 0
3, 39239, Note_on_c, 1, 55, 0
3, 39240, Note_on_c, 1, 58, 64
3, 39299, Note_on_c, 1, 58, 0
3, 39300, Note_on_c, 1, 60, 64
3, 39359, Note_on_c, 1, 60, 0
3, 39360, Note_on_c, 1, 62, 64
3, 39479, Note_on_c, 1, 62, 0
3, 39480, Note_on_c, 1, 57, 64
3, 39599, Note_on_c, 1, 57, 0
3, 39600, Note_on_c, 1, 55, 64
3, 39719, Note_on_c, 1, 55, 0
3, 39720, Note_on_c, 1, 57, 64
3, 39779, Note_on_c, 1, 57, 0
3, 39840, Note_on_c, 1, 57, 64
3, 39959, Note_on_c, 1, 57, 0
3, 40020, Note_on_c, 1, 62, 64
3, 40079, Note_on_c, 1, 62, 0
3, 40080, Note_on_c, 1, 60, 64
3, 40199, Note_on_c, 1, 60, 0
3, 40200, Note_on_c, 1, 62, 64
3, 40259, Note_on_c, 1, 62, 0
3, 40320, Note_on_c, 1, 62, 64
3, 40439, Note_on_c, 1, 62, 0
3, 40500, Note_on_c, 1, 62, 64
3, 40529, Note_on_c, 1, 62, 0
3, 40560, Note_on_c, 1, 62, 64
3, 40679, Note_on_c, 1, 62, 0
3, 40680, Note_on_c, 1, 55, 64
3, 40799, Note_on_c, 1, 55, 0
3, 40800, Note_on_c, 1, 60, 64
3, 40919, Note_on_c, 1, 60, 0
3, 40920, Note_on_c, 1, 53, 64
3, 41039, Note_on_c, 1, 53, 0
3, 41040, Note_on_c, 1, 58, 64
3, 41159, Note_on_c, 1, 58, 0
3, 41160, Note_on_c, 1, 51, 64
3, 41279, Note_on_c, 1, 51, 0
3, 41280, Note_on_c, 1, 57, 64
3, 41399, Note_on_c, 1, 57, 0
3, 41400, Note_on_c, 1, 55, 64
3, 41519, Note_on_c, 1, 55, 0
3, 41520, Note_on_c, 1, 57, 64
3, 41639, Note_on_c, 1, 57, 0
3, 41640, Note_on_c, 1, 48, 64
3, 41759, Note_on_c, 1, 48, 0
3, 41760, Note_on_c, 1, 50, 64
3, 41819, Note_on_c, 1, 50, 0
3, 41820, Note_on_c, 1, 53, 64
3, 41879, Note_on_c, 1, 53, 0
3, 41880, Note_on_c, 1, 51, 64
3, 41939, Note_on_c, 1, 51, 0
3, 41940, Note_on_c, 1, 52, 64
3, 41999, Note_on_c, 1, 52, 0
3, 42000, Note_on_c, 1, 53, 64
3, 42000, Note_on_c, 1, 60, 64
3, 42119, Note_on_c, 1, 60, 0
3, 42119, Note_on_c, 1, 53, 0
3, 42180, Note_on_c, 1, 58, 64
3, 42239, Note_on_c, 1, 58, 0
3, 42240, Note_on_c, 1, 51, 64
3, 42299, Note_on_c, 1, 51, 0
3, 42300, Note_on_c, 1, 53, 64
3, 42359, Note_on_c, 1, 53, 0
3, 42360, Note_on_c, 1, 55, 64
3, 42419, Note_on_c, 1, 55, 0
3, 42420, Note_on_c, 1, 56, 64
3, 42480, Note_on_c, 1, 47, 64
3, 42599, Note_on_c, 1, 56, 0
3, 42600, Note_on_c, 1, 55, 64
3, 42659, Note_on_c, 1, 55, 0
3, 42719, Note_on_c, 1, 47, 0
3, 42720, Note_on_c, 1, 55, 64
3, 42720, Note_on_c, 1, 48, 64
3, 42839, Note_on_c, 1, 48, 0
3, 42839, Note_on_c, 1, 55, 0
3, 42900, Note_on_c, 1, 55, 64
3, 42900, Note_on_c, 1, 47, 64
3, 42929, Note_on_c, 1, 55, 0
3, 42959, Note_on_c, 1, 47, 0
3, 42960, Note_on_c, 1, 55, 64
3, 42960, Note_on_c, 1, 48, 64
3, 43079, Note_on_c, 1, 48, 0
3, 43079, Note_on_c, 1, 55, 0
3, 43140, Note_on_c, 1, 60, 64
3, 43199, Note_on_c, 1, 60, 0
3, 43200, Note_on_c, 1, 58, 64
3, 43229, Note_on_c, 1, 58, 0
3, 43260, Note_on_c, 1, 58, 64
3, 43289, Note_on_c, 1, 58, 0
3, 43320, Note_on_c, 1, 58, 64
3, 43379, Note_on_c, 1, 58, 0
3, 43380, Note_on_c, 1, 60, 64
3, 43409, Note_on_c, 1, 60, 0
3, 43410, Note_on_c, 1, 58, 64
3, 43439, Note_on_c, 1, 58, 0
3, 43440, Note_on_c, 1, 56, 64
3, 43469, Note_on_c, 1, 56, 0
3, 43500, Note_on_c, 1, 56, 64
3, 43529, Note_on_c, 1, 56, 0
3, 43560, Note_on_c, 1, 56, 64
3, 43619, Note_on_c, 1, 56, 0
3, 43620, Note_on_c, 1, 58, 64
3, 43649, Note_on_c, 1, 58, 0
3, 43650, Note_on_c, 1, 56, 64
3, 43679, Note_on_c, 1, 56, 0
3, 43680, Note_on_c, 1, 55, 64
3, 43799, Note_on_c, 1, 55, 0
3, 43860, Note_on_c, 1, 48, 64
3, 43919, Note_on_c, 1, 48, 0
3, 43920, Note_on_c, 1, 53, 64
3, 43979, Note_on_c, 1, 53, 0
3, 43980, Note_on_c, 1, 50, 64
3, 44039, Note_on_c, 1, 50, 0
3, 44040, Note_on_c, 1, 55, 64
3, 44099, Note_on_c, 1, 55, 0
3, 44100, Note_on_c, 1, 43, 64
3, 44159, Note_on_c, 1, 43, 0
3, 44160, Note_on_c, 1, 48, 64
3, 44279, Note_on_c, 1, 48, 0
3, 44340, Note_on_c, 1, 60, 64
3, 44429, Note_on_c, 1, 60, 0
3, 44460, Note_on_c, 1, 60, 64
3, 44489, Note_on_c, 1, 60, 0
3, 44520, Note_on_c, 1, 60, 64
3, 44579, Note_on_c, 1, 60, 0
3, 44580, Note_on_c, 1, 62, 64
3, 44609, Note_on_c, 1, 62, 0
3, 44610, Note_on_c, 1, 60, 64
3, 44639, Note_on_c, 1, 60, 0
3, 44640, Note_on_c, 1, 58, 64
3, 44699, Note_on_c, 1, 58, 0
3, 44700, Note_on_c, 1, 57, 64
3, 44759, Note_on_c, 1, 57, 0
3, 44760, Note_on_c, 1, 58, 64
3, 44819, Note_on_c, 1, 58, 0
3, 44820, Note_on_c, 1, 55, 64
3, 44879, Note_on_c, 1, 55, 0
3, 44880, Note_on_c, 1, 60, 64
3, 44999, Note_on_c, 1, 60, 0
3, 45060, Note_on_c, 1, 53, 64
3, 45119, Note_on_c, 1, 53, 0
3, 45120, Note_on_c, 1, 58, 64
3, 45179, Note_on_c, 1, 58, 0
3, 45180, Note_on_c, 1, 57, 64
3, 45239, Note_on_c, 1, 57, 0
3, 45240, Note_on_c, 1, 58, 64
3, 45359, Note_on_c, 1, 58, 0
3, 45360, Note_on_c, 1, 64, 64
3, 45360, Note_on_c, 1, 60, 64
3, 45479, Note_on_c, 1, 60, 0
3, 45479, Note_on_c, 1, 64, 0
3, 45480, Note_on_c, 1, 62, 64
3, 45480, Note_on_c, 1, 57, 64
3, 45539, Note_on_c, 1, 62, 0
3, 45599, Note_on_c, 1, 57, 0
3, 45600, Note_on_c, 1, 62, 64
3, 45600, Note_on_c, 1, 58, 64
3, 45719, Note_on_c, 1, 58, 0
3, 45719, Note_on_c, 1, 62, 0
3, 45780, Note_on_c, 1, 62, 64
3, 45780, Note_on_c, 1, 57, 64
3, 45809, Note_on_c, 1, 62, 0
3, 45839, Note_on_c, 1, 57, 0
3, 45840, Note_on_c, 1, 62, 64
3, 45840, Note_on_c, 1, 58, 64
3, 45959, Note_on_c, 1, 58, 0
3, 45959, Note_on_c, 1, 62, 0
3, 46020, Note_on_c, 1, 58, 64
3, 46079, Note_on_c, 1, 58, 0
3, 46080, Note_on_c, 1, 60, 64
3, 46109, Note_on_c, 1, 60, 0
3, 46140, Note_on_c, 1, 60, 64
3, 46199, Note_on_c, 1, 60, 0
3, 46200, Note_on_c, 1, 57, 64
3, 46319, Note_on_c, 1, 57, 0
3, 46320, Note_on_c, 1, 58, 64
3, 46349, Note_on_c, 1, 58, 0
3, 46380, Note_on_c, 1, 58, 64
3, 46439, Note_on_c, 1, 58, 0
3, 46440, Note_on_c, 1, 55, 64
3, 46559, Note_on_c, 1, 55, 0
3, 46560, Note_on_c, 1, 57, 64
3, 46679, Note_on_c, 1, 57, 0
3, 46740, Note_on_c, 1, 62, 64
3, 46799, Note_on_c, 1, 62, 0
3, 46800, Note_on_c, 1, 60, 64
3, 46829, Note_on_c, 1, 60, 0
3, 46860, Note_on_c, 1, 60, 64
3, 46889, Note_on_c, 1, 60, 0
3, 46920, Note_on_c, 1, 60, 64
3, 46979, Note_on_c, 1, 60, 0
3, 46980, Note_on_c, 1, 62, 64
3, 47009, Note_on_c, 1, 62, 0
3, 47010, Note_on_c, 1, 60, 64
3, 47039, Note_on_c, 1, 60, 0
3, 47040, Note_on_c, 1, 58, 64
3, 47069, Note_on_c, 1, 58, 0
3, 47100, Note_on_c, 1, 58, 64
3, 47129, Note_on_c, 1, 58, 0
3, 47160, Note_on_c, 1, 58, 64
3, 47219, Note_on_c, 1, 58, 0
3, 47220, Note_on_c, 1, 60, 64
3, 47249, Note_on_c, 1, 60, 0
3, 47250, Note_on_c, 1, 58, 64
3, 47279, Note_on_c, 1, 58, 0
3, 47280, Note_on_c, 1, 57, 64
3, 47399, Note_on_c, 1, 57, 0
3, 47400, Note_on_c, 1, 62, 64
3, 47520, Note_on_c, 1, 55, 64
3, 47579, Note_on_c, 1, 55, 0
3, 47579, Note_on_c, 1, 62, 0
3, 47580, Note_on_c, 1, 57, 64
3, 47639, Note_on_c, 1, 57, 0
3, 47640, Note_on_c, 1, 58, 64
3, 47641, Note_on_c, 1, 62, 64
3, 47699, Note_on_c, 1, 58, 0
3, 47700, Note_on_c, 1, 57, 64
3, 47700, Note_on_c, 1, 62, 0
3, 47729, Note_on_c, 1, 57, 0
3, 47730, Note_on_c, 1, 55, 64
3, 47759, Note_on_c, 1, 55, 0
3, 47760, Note_on_c, 1, 62, 64
3, 47760, Note_on_c, 1, 57, 64
3, 47879, Note_on_c, 1, 57, 0
3, 47880, Note_on_c, 1, 50, 64
3, 47939, Note_on_c, 1, 62, 0
3, 47940, Note_on_c, 1, 60, 64
3, 47999, Note_on_c, 1, 60, 0
3, 47999, Note_on_c, 1, 50, 0
3, 48000, Note_on_c, 1, 51, 64
3, 48029, Note_on_c, 1, 51, 0
3, 48060, Note_on_c, 1, 51, 64
3, 48089, Note_on_c, 1, 51, 0
3, 48120, Note_on_c, 1, 51, 64
3, 48179, Note_on_c, 1, 51, 0
3, 48180, Note_on_c, 1, 53, 64
3, 48209, Note_on_c, 1, 53, 0
3, 48210, Note_on_c, 1, 51, 64
3, 48239, Note_on_c, 1, 51, 0
3, 48240, Note_on_c, 1, 50, 64
3, 48420, Note_on_c, 1, 57, 64
3, 48479, Note_on_c, 1, 57, 0
3, 48480, Note_on_c, 1, 59, 64
3, 49560, Note_on_c, 1, 59, 0
3, 49560, Note_on_c, 1, 50, 0
3, 49560, End_track
4, 0, Start_track
4, 0, Title_t, "Pedal"
4, 0, Instrument_name_t, "Pipe Organ"
4, 720, Note_on_c, 3, 31, 64
4, 1439, Note_on_c, 3, 31, 0
4, 1440, Note_on_c, 3, 36, 64
4, 2159, Note_on_c, 3, 36, 0
4, 2160, Note_on_c, 3, 29, 64
4, 2879, Note_on_c, 3, 29, 0
4, 2880, Note_on_c, 3, 34, 64
4, 3599, Note_on_c, 3, 34, 0
4, 3600, Note_on_c, 3, 39, 64
4, 4319, Note_on_c, 3, 39, 0
4, 4320, Note_on_c, 3, 38, 64
4, 5039, Note_on_c, 3, 38, 0
4, 5040, Note_on_c, 3, 31, 64
4, 5759, Note_on_c, 3, 31, 0
4, 5760, Note_on_c, 3, 38, 64
4, 6479, Note_on_c, 3, 38, 0
4, 6480, Note_on_c, 3, 43, 64
4, 7199, Note_on_c, 3, 43, 0
4, 7200, Note_on_c, 3, 36, 64
4, 7919, Note_on_c, 3, 36, 0
4, 7920, Note_on_c, 3, 41, 64
4, 8639, Note_on_c, 3, 41, 0
4, 8640, Note_on_c, 3, 34, 64
4, 9359, Note_on_c, 3, 34, 0
4, 9360, Note_on_c, 3, 39, 64
4, 10319, Note_on_c, 3, 39, 0
4, 10800, Note_on_c, 3, 38, 64
4, 11039, Note_on_c, 3, 38, 0
4, 11520, Note_on_c, 3, 39, 64
4, 11759, Note_on_c, 3, 39, 0
4, 11760, Note_on_c, 3, 41, 64
4, 11999, Note_on_c, 3, 41, 0
4, 12000, Note_on_c, 3, 29, 64
4, 12239, Note_on_c, 3, 29, 0
4, 12240, Note_on_c, 3, 34, 64
4, 12959, Note_on_c, 3, 34, 0
4, 12960, Note_on_c, 3, 33, 64
4, 13679, Note_on_c, 3, 33, 0
4, 13680, Note_on_c, 3, 31, 64
4, 13919, Note_on_c, 3, 31, 0
4, 14400, Note_on_c, 3, 31, 64
4, 14639, Note_on_c, 3, 31, 0
4, 15120, Note_on_c, 3, 29, 64
4, 15359, Note_on_c, 3, 29, 0
4, 15840, Note_on_c, 3, 31, 64
4, 16079, Note_on_c, 3, 31, 0
4, 16080, Note_on_c, 3, 33, 64
4, 16559, Note_on_c, 3, 33, 0
4, 16560, Note_on_c, 3, 38, 64
4, 17279, Note_on_c, 3, 38, 0
4, 17280, Note_on_c, 3, 34, 64
4, 17999, Note_on_c, 3, 34, 0
4, 18000, Note_on_c, 3, 36, 64
4, 18719, Note_on_c, 3, 36, 0
4, 18720, Note_on_c, 3, 29, 64
4, 19439, Note_on_c, 3, 29, 0
4, 19440, Note_on_c, 3, 34, 64
4, 20159, Note_on_c, 3, 34, 0
4, 20160, Note_on_c, 3, 39, 64
4, 20879, Note_on_c, 3, 39, 0
4, 20880, Note_on_c, 3, 38, 64
4, 21119, Note_on_c, 3, 38, 0
4, 21600, Note_on_c, 3, 38, 64
4, 21839, Note_on_c, 3, 38, 0
4, 22320, Note_on_c, 3, 36, 64
4, 22559, Note_on_c, 3, 36, 0
4, 23040, Note_on_c, 3, 34, 64
4, 23279, Note_on_c, 3, 34, 0
4, 23760, Note_on_c, 3, 36, 64
4, 23999, Note_on_c, 3, 36, 0
4, 24000, Note_on_c, 3, 38, 64
4, 24239, Note_on_c, 3, 38, 0
4, 24240, Note_on_c, 3, 26, 64
4, 24479, Note_on_c, 3, 26, 0
4, 24480, Note_on_c, 3, 31, 64
4, 25199, Note_on_c, 3, 31, 0
4, 25440, Note_on_c, 3, 40, 64
4, 25919, Note_on_c, 3, 40, 0
4, 25920, Note_on_c, 3, 38, 64
4, 26639, Note_on_c, 3, 38, 0
4, 26640, Note_on_c, 3, 31, 64
4, 27359, Note_on_c, 3, 31, 0
4, 33600, Note_on_c, 3, 43, 64
4, 33839, Note_on_c, 3, 43, 0
4, 33840, Note_on_c, 3, 46, 64
4, 33899, Note_on_c, 3, 46, 0
4, 33900, Note_on_c, 3, 45, 64
4, 33959, Note_on_c, 3, 45, 0
4, 33960, Note_on_c, 3, 46, 64
4, 34019, Note_on_c, 3, 46, 0
4, 34020, Note_on_c, 3, 43, 64
4, 34079, Note_on_c, 3, 43, 0
4, 34080, Note_on_c, 3, 45, 64
4, 34199, Note_on_c, 3, 45, 0
4, 34260, Note_on_c, 3, 38, 64
4, 34319, Note_on_c, 3, 38, 0
4, 34320, Note_on_c, 3, 40, 64
4, 34349, Note_on_c, 3, 40, 0
4, 34380, Note_on_c, 3, 40, 64
4, 34439, Note_on_c, 3, 40, 0
4, 34440, Note_on_c, 3, 45, 64
4, 34499, Note_on_c, 3, 45, 0
4, 34500, Note_on_c, 3, 43, 64
4, 34559, Note_on_c, 3, 43, 0
4, 34560, Note_on_c, 3, 41, 64
4, 34619, Note_on_c, 3, 41, 0
4, 34620, Note_on_c, 3, 38, 64
4, 34679, Note_on_c, 3, 38, 0
4, 34680, Note_on_c, 3, 45, 64
4, 34709, Note_on_c, 3, 45, 0
4, 34740, Note_on_c, 3, 45, 64
4, 34799, Note_on_c, 3, 45, 0
4, 34800, Note_on_c, 3, 41, 64
4, 34859, Note_on_c, 3, 41, 0
4, 34860, Note_on_c, 3, 38, 64
4, 34919, Note_on_c, 3, 38, 0
4, 34920, Note_on_c, 3, 46, 64
4, 35159, Note_on_c, 3, 46, 0
4, 35160, Note_on_c, 3, 45, 64
4, 35399, Note_on_c, 3, 45, 0
4, 35400, Note_on_c, 3, 43, 64
4, 35639, Note_on_c, 3, 43, 0
4, 35640, Note_on_c, 3, 41, 64
4, 35759, Note_on_c, 3, 41, 0
4, 35760, Note_on_c, 3, 40, 64
4, 35999, Note_on_c, 3, 40, 0
4, 36000, Note_on_c, 3, 38, 64
4, 36119, Note_on_c, 3, 38, 0
4, 36180, Note_on_c, 3, 38, 64
4, 36239, Note_on_c, 3, 38, 0
4, 36240, Note_on_c, 3, 43, 64
4, 36299, Note_on_c, 3, 43, 0
4, 36300, Note_on_c, 3, 40, 64
4, 36359, Note_on_c, 3, 40, 0
4, 36360, Note_on_c, 3, 45, 64
4, 36419, Note_on_c, 3, 45, 0
4, 36420, Note_on_c, 3, 33, 64
4, 36479, Note_on_c, 3, 33, 0
4, 36480, Note_on_c, 3, 38, 64
4, 36599, Note_on_c, 3, 38, 0
4, 39360, Note_on_c, 3, 38, 64
4, 39599, Note_on_c, 3, 38, 0
4, 39600, Note_on_c, 3, 39, 64
4, 39659, Note_on_c, 3, 39, 0
4, 39660, Note_on_c, 3, 38, 64
4, 39719, Note_on_c, 3, 38, 0
4, 39720, Note_on_c, 3, 39, 64
4, 39779, Note_on_c, 3, 39, 0
4, 39780, Note_on_c, 3, 36, 64
4, 39839, Note_on_c, 3, 36, 0
4, 39840, Note_on_c, 3, 38, 64
4, 39959, Note_on_c, 3, 38, 0
4, 40020, Note_on_c, 3, 31, 64
4, 40079, Note_on_c, 3, 31, 0
4, 40080, Note_on_c, 3, 33, 64
4, 40109, Note_on_c, 3, 33, 0
4, 40140, Note_on_c, 3, 33, 64
4, 40199, Note_on_c, 3, 33, 0
4, 40200, Note_on_c, 3, 38, 64
4, 40259, Note_on_c, 3, 38, 0
4, 40260, Note_on_c, 3, 36, 64
4, 40319, Note_on_c, 3, 36, 0
4, 40320, Note_on_c, 3, 34, 64
4, 40379, Note_on_c, 3, 34, 0
4, 40380, Note_on_c, 3, 31, 64
4, 40439, Note_on_c, 3, 31, 0
4, 40440, Note_on_c, 3, 38, 64
4, 40469, Note_on_c, 3, 38, 0
4, 40500, Note_on_c, 3, 38, 64
4, 40559, Note_on_c, 3, 38, 0
4, 40560, Note_on_c, 3, 34, 64
4, 40619, Note_on_c, 3, 34, 0
4, 40620, Note_on_c, 3, 31, 64
4, 40679, Note_on_c, 3, 31, 0
4, 40680, Note_on_c, 3, 39, 64
4, 40919, Note_on_c, 3, 39, 0
4, 40920, Note_on_c, 3, 38, 64
4, 41159, Note_on_c, 3, 38, 0
4, 41160, Note_on_c, 3, 36, 64
4, 41399, Note_on_c, 3, 36, 0
4, 41400, Note_on_c, 3, 34, 64
4, 41519, Note_on_c, 3, 34, 0
4, 41520, Note_on_c, 3, 33, 64
4, 41759, Note_on_c, 3, 33, 0
4, 41760, Note_on_c, 3, 31, 64
4, 41879, Note_on_c, 3, 31, 0
4, 45240, Note_on_c, 3, 43, 64
4, 45479, Note_on_c, 3, 43, 0
4, 45480, Note_on_c, 3, 42, 64
4, 45599, Note_on_c, 3, 42, 0
4, 45600, Note_on_c, 3, 43, 64
4, 45719, Note_on_c, 3, 43, 0
4, 45780, Note_on_c, 3, 42, 64
4, 45839, Note_on_c, 3, 42, 0
4, 45840, Note_on_c, 3, 43, 64
4, 45959, Note_on_c, 3, 43, 0
4, 46020, Note_on_c, 3, 43, 64
4, 46079, Note_on_c, 3, 43, 0
4, 46080, Note_on_c, 3, 41, 64
4, 46109, Note_on_c, 3, 41, 0
4, 46140, Note_on_c, 3, 41, 64
4, 46169, Note_on_c, 3, 41, 0
4, 46200, Note_on_c, 3, 41, 64
4, 46259, Note_on_c, 3, 41, 0
4, 46260, Note_on_c, 3, 43, 64
4, 46289, Note_on_c, 3, 43, 0
4, 46290, Note_on_c, 3, 41, 64
4, 46319, Note_on_c, 3, 41, 0
4, 46320, Note_on_c, 3, 39, 64
4, 46349, Note_on_c, 3, 39, 0
4, 46380, Note_on_c, 3, 39, 64
4, 46409, Note_on_c, 3, 39, 0
4, 46440, Note_on_c, 3, 39, 64
4, 46499, Note_on_c, 3, 39, 0
4, 46500, Note_on_c, 3, 41, 64
4, 46529, Note_on_c, 3, 41, 0
4, 46530, Note_on_c, 3, 39, 64
4, 46559, Note_on_c, 3, 39, 0
4, 46560, Note_on_c, 3, 38, 64
4, 46679, Note_on_c, 3, 38, 0
4, 46800, Note_on_c, 3, 38, 64
4, 47999, Note_on_c, 3, 38, 0
4, 48000, Note_on_c, 3, 31, 64
4, 49580, Note_on_c, 3, 31, 0
4, 49580, End_track
0, 0, End_of_file
