0, 0, Header, 1, 4, 120
1, 0, Start_track
1, 0, Key_signature, -1, "major"
1, 0, Tempo, 869565
1, 0, Time_signature, 4, 2, 24, 8
1, 0, End_track
2, 0, Start_track
2, 0, Title_t, "Right Hand"
2, 480, Note_on_c, 1, 69, 64
2, 480, Note_on_c, 1, 65, 64
2, 480, Note_on_c, 1, 74, 64
2, 599, Note_on_c, 1, 74, 0
2, 599, Note_on_c, 1, 65, 0
2, 599, Note_on_c, 1, 69, 0
2, 780, Note_on_c, 1, 74, 64
2, 780, Note_on_c, 1, 69, 64
2, 839, Note_on_c, 1, 69, 0
2, 839, Note_on_c, 1, 74, 0
2, 840, Note_on_c, 1, 67, 64
2, 840, Note_on_c, 1, 73, 64
2, 899, Note_on_c, 1, 73, 0
2, 899, Note_on_c, 1, 67, 0
2, 900, Note_on_c, 1, 69, 64
2, 900, Note_on_c, 1, 65, 64
2, 900, Note_on_c, 1, 74, 64
2, 959, Note_on_c, 1, 74, 0
2, 959, Note_on_c, 1, 65, 0
2, 960, Note_on_c, 1, 76, 64
2, 989, Note_on_c, 1, 69, 0
2, 990, Note_on_c, 1, 69, 64
2, 1019, Note_on_c, 1, 69, 0
2, 1020, Note_on_c, 1, 67, 64
2, 1049, Note_on_c, 1, 67, 0
2, 1050, Note_on_c, 1, 65, 64
2, 1079, Note_on_c, 1, 65, 0
2, 1079, Note_on_c, 1, 76, 0
2, 1080, Note_on_c, 1, 64, 64
2, 1109, Note_on_c, 1, 64, 0
2, 1260, Note_on_c, 1, 69, 64
2, 1260, Note_on_c, 1, 61, 64
2, 1319, Note_on_c, 1, 61, 0
2, 1319, Note_on_c, 1, 69, 0
2, 1320, Note_on_c, 1, 67, 64
2, 1320, Note_on_c, 1, 62, 64
2, 1379, Note_on_c, 1, 67, 0
2, 1380, Note_on_c, 1, 65, 64
2, 1424, Note_on_c, 1, 65, 0
2, 1425, Note_on_c, 1, 64, 64
2, 1439, Note_on_c, 1, 64, 0
2, 1439, Note_on_c, 1, 62, 0
2, 1440, Note_on_c, 1, 62, 64
2, 1440, Note_on_c, 1, 65, 64
2, 1499, Note_on_c, 1, 62, 0
2, 1500, Note_on_c, 1, 74, 64
2, 1559, Note_on_c, 1, 74, 0
2, 1559, Note_on_c, 1, 65, 0
2, 1560, Note_on_c, 1, 72, 64
2, 1560, Note_on_c, 1, 64, 64
2, 1619, Note_on_c, 1, 64, 0
2, 1619, Note_on_c, 1, 72, 0
2, 1620, Note_on_c, 1, 70, 64
2, 1679, Note_on_c, 1, 70, 0
2, 1680, Note_on_c, 1, 69, 64
2, 1740, Note_on_c, 1, 77, 64
2, 1799, Note_on_c, 1, 77, 0
2, 1799, Note_on_c, 1, 69, 0
2, 1800, Note_on_c, 1, 67, 64
2, 1800, Note_on_c, 1, 76, 64
2, 1859, Note_on_c, 1, 76, 0
2, 1859, Note_on_c, 1, 67, 0
2, 1860, Note_on_c, 1, 74, 64
2, 1919, Note_on_c, 1, 74, 0
2, 1920, Note_on_c, 1, 73, 64
2, 2039, Note_on_c, 1, 73, 0
2, 2070, Note_on_c, 1, 64, 64
2, 2099, Note_on_c, 1, 64, 0
2, 2100, Note_on_c, 1, 65, 64
2, 2129, Note_on_c, 1, 65, 0
2, 2130, Note_on_c, 1, 67, 64
2, 2159, Note_on_c, 1, 67, 0
2, 2160, Note_on_c, 1, 69, 64
2, 2219, Note_on_c, 1, 69, 0
2, 2220, Note_on_c, 1, 67, 64
2, 2220, Note_on_c, 1, 64, 64
2, 2279, Note_on_c, 1, 64, 0
2, 2279, Note_on_c, 1, 67, 0
2, 2280, Note_on_c, 1, 65, 64
2, 2280, Note_on_c, 1, 62, 64
2, 2339, Note_on_c, 1, 62, 0
2, 2339, Note_on_c, 1, 65, 0
2, 2340, Note_on_c, 1, 64, 64
2, 2399, Note_on_c, 1, 64, 0
2, 2400, Note_on_c, 1, 62, 64
2, 2459, Note_on_c, 1, 62, 0
2, 2460, Note_on_c, 1, 64, 64
2, 2489, Note_on_c, 1, 64, 0
2, 2490, Note_on_c, 1, 65, 64
2, 2519, Note_on_c, 1, 65, 0
2, 2520, Note_on_c, 1, 64, 64
2, 2549, Note_on_c, 1, 64, 0
2, 2550, Note_on_c, 1, 65, 64
2, 2579, Note_on_c, 1, 65, 0
2, 2580, Note_on_c, 1, 62, 64
2, 2639, Note_on_c, 1, 62, 0
2, 2640, Note_on_c, 1, 61, 64
2, 2640, Note_on_c, 1, 64, 64
2, 2640, Note_on_c, 1, 69, 64
2, 2759, Note_on_c, 1, 69, 0
2, 2759, Note_on_c, 1, 64, 0
2, 2759, Note_on_c, 1, 61, 0
2, 2760, Note_on_c, 1, 62, 64
2, 2760, Note_on_c, 1, 65, 64
2, 2760, Note_on_c, 1, 69, 64
2, 2879, Note_on_c, 1, 69, 0
2, 2879, Note_on_c, 1, 65, 0
2, 2880, Note_on_c, 1, 67, 64
2, 2939, Note_on_c, 1, 62, 0
2, 2940, Note_on_c, 1, 61, 64
2, 2999, Note_on_c, 1, 61, 0
2, 2999, Note_on_c, 1, 67, 0
2, 3000, Note_on_c, 1, 62, 64
2, 3000, Note_on_c, 1, 65, 64
2, 3119, Note_on_c, 1, 65, 0
2, 3120, Note_on_c, 1, 64, 64
2, 3239, Note_on_c, 1, 62, 0
2, 3240, Note_on_c, 1, 62, 64
2, 3254, Note_on_c, 1, 62, 0
2, 3255, Note_on_c, 1, 61, 64
2, 3269, Note_on_c, 1, 61, 0
2, 3270, Note_on_c, 1, 62, 64
2, 3284, Note_on_c, 1, 62, 0
2, 3285, Note_on_c, 1, 61, 64
2, 3299, Note_on_c, 1, 61, 0
2, 3300, Note_on_c, 1, 62, 64
2, 3314, Note_on_c, 1, 62, 0
2, 3315, Note_on_c, 1, 61, 64
2, 3359, Note_on_c, 1, 61, 0
2, 3359, Note_on_c, 1, 64, 0
2, 3360, Note_on_c, 1, 57, 64
2, 3360, Note_on_c, 1, 62, 64
2, 3479, Note_on_c, 1, 62, 0
2, 3479, Note_on_c, 1, 57, 0
2, 3540, Note_on_c, 1, 69, 64
2, 3599, Note_on_c, 1, 69, 0
2, 3600, Note_on_c, 1, 74, 64
2, 3600, Note_on_c, 1, 77, 64
2, 3719, Note_on_c, 1, 77, 0
2, 3719, Note_on_c, 1, 74, 0
2, 3840, Note_on_c, 1, 74, 64
2, 3840, Note_on_c, 1, 77, 64
2, 3959, Note_on_c, 1, 77, 0
2, 3959, Note_on_c, 1, 74, 0
2, 4020, Note_on_c, 1, 74, 64
2, 4020, Note_on_c, 1, 77, 64
2, 4079, Note_on_c, 1, 77, 0
2, 4080, Note_on_c, 1, 76, 64
2, 4199, Note_on_c, 1, 74, 0
2, 4200, Note_on_c, 1, 73, 64
2, 4319, Note_on_c, 1, 73, 0
2, 4319, Note_on_c, 1, 76, 0
2, 4320, Note_on_c, 1, 77, 64
2, 4320, Note_on_c, 1, 74, 64
2, 4439, Note_on_c, 1, 77, 0
2, 4440, Note_on_c, 1, 79, 64
2, 4559, Note_on_c, 1, 79, 0
2, 4559, Note_on_c, 1, 74, 0
2, 4560, Note_on_c, 1, 72, 64
2, 4560, Note_on_c, 1, 76, 64
2, 4679, Note_on_c, 1, 76, 0
2, 4680, Note_on_c, 1, 77, 64
2, 4799, Note_on_c, 1, 77, 0
2, 4799, Note_on_c, 1, 72, 0
2, 4800, Note_on_c, 1, 74, 64
2, 4800, Note_on_c, 1, 65, 64
2, 4919, Note_on_c, 1, 65, 0
2, 4920, Note_on_c, 1, 70, 64
2, 5039, Note_on_c, 1, 74, 0
2, 5040, Note_on_c, 1, 72, 64
2, 5159, Note_on_c, 1, 70, 0
2, 5160, Note_on_c, 1, 69, 64
2, 5279, Note_on_c, 1, 72, 0
2, 5280, Note_on_c, 1, 74, 64
2, 5309, Note_on_c, 1, 69, 0
2, 5310, Note_on_c, 1, 69, 64
2, 5324, Note_on_c, 1, 69, 0
2, 5340, Note_on_c, 1, 70, 64
2, 5369, Note_on_c, 1, 70, 0
2, 5370, Note_on_c, 1, 69, 64
2, 5399, Note_on_c, 1, 69, 0
2, 5399, Note_on_c, 1, 74, 0
2, 5400, Note_on_c, 1, 67, 64
2, 5429, Note_on_c, 1, 67, 0
2, 5430, Note_on_c, 1, 69, 64
2, 5459, Note_on_c, 1, 69, 0
2, 5460, Note_on_c, 1, 74, 64
2, 5460, Note_on_c, 1, 67, 64
2, 5489, Note_on_c, 1, 67, 0
2, 5490, Note_on_c, 1, 65, 64
2, 5519, Note_on_c, 1, 65, 0
2, 5519, Note_on_c, 1, 74, 0
2, 5520, Note_on_c, 1, 64, 64
2, 5520, Note_on_c, 1, 67, 64
2, 5639, Note_on_c, 1, 67, 0
2, 5639, Note_on_c, 1, 64, 0
2, 5640, Note_on_c, 1, 65, 64
2, 5640, Note_on_c, 1, 69, 64
2, 5759, Note_on_c, 1, 69, 0
2, 5760, Note_on_c, 1, 67, 64
2, 5879, Note_on_c, 1, 65, 0
2, 5895, Note_on_c, 1, 65, 64
2, 5909, Note_on_c, 1, 65, 0
2, 5910, Note_on_c, 1, 64, 64
2, 5924, Note_on_c, 1, 64, 0
2, 5925, Note_on_c, 1, 65, 64
2, 5939, Note_on_c, 1, 65, 0
2, 5940, Note_on_c, 1, 64, 64
2, 5940, Note_on_c, 1, 65, 64
2, 5954, Note_on_c, 1, 65, 0
2, 5954, Note_on_c, 1, 64, 0
2, 5955, Note_on_c, 1, 64, 64
2, 5999, Note_on_c, 1, 64, 0
2, 5999, Note_on_c, 1, 67, 0
2, 6000, Note_on_c, 1, 65, 64
2, 6000, Note_on_c, 1, 60, 64
2, 6000, Note_on_c, 1, 57, 64
2, 6119, Note_on_c, 1, 57, 0
2, 6119, Note_on_c, 1, 60, 0
2, 6119, Note_on_c, 1, 65, 0
2, 6180, Note_on_c, 1, 60, 64
2, 6239, Note_on_c, 1, 60, 0
2, 6240, Note_on_c, 1, 65, 64
2, 6269, Note_on_c, 1, 65, 0
2, 6270, Note_on_c, 1, 60, 64
2, 6299, Note_on_c, 1, 60, 0
2, 6300, Note_on_c, 1, 57, 64
2, 6329, Note_on_c, 1, 57, 0
2, 6330, Note_on_c, 1, 53, 64
2, 6359, Note_on_c, 1, 53, 0
2, 6360, Note_on_c, 1, 65, 64
2, 6389, Note_on_c, 1, 65, 0
2, 6390, Note_on_c, 1, 60, 64
2, 6419, Note_on_c, 1, 60, 0
2, 6420, Note_on_c, 1, 57, 64
2, 6449, Note_on_c, 1, 57, 0
2, 6450, Note_on_c, 1, 53, 64
2, 6479, Note_on_c, 1, 53, 0
2, 6480, Note_on_c, 1, 63, 64
2, 6509, Note_on_c, 1, 63, 0
2, 6510, Note_on_c, 1, 60, 64
2, 6539, Note_on_c, 1, 60, 0
2, 6540, Note_on_c, 1, 57, 64
2, 6569, Note_on_c, 1, 57, 0
2, 6570, Note_on_c, 1, 53, 64
2, 6599, Note_on_c, 1, 53, 0
2, 6600, Note_on_c, 1, 63, 64
2, 6629, Note_on_c, 1, 63, 0
2, 6630, Note_on_c, 1, 60, 64
2, 6659, Note_on_c, 1, 60, 0
2, 6660, Note_on_c, 1, 57, 64
2, 6689, Note_on_c, 1, 57, 0
2, 6690, Note_on_c, 1, 53, 64
2, 6719, Note_on_c, 1, 53, 0
2, 6720, Note_on_c, 1, 62, 64
2, 6749, Note_on_c, 1, 62, 0
2, 6750, Note_on_c, 1, 58, 64
2, 6779, Note_on_c, 1, 58, 0
2, 6780, Note_on_c, 1, 63, 64
2, 6809, Note_on_c, 1, 63, 0
2, 6810, Note_on_c, 1, 58, 64
2, 6839, Note_on_c, 1, 58, 0
2, 6840, Note_on_c, 1, 62, 64
2, 6869, Note_on_c, 1, 62, 0
2, 6870, Note_on_c, 1, 58, 64
2, 6899, Note_on_c, 1, 58, 0
2, 6900, Note_on_c, 1, 63, 64
2, 6929, Note_on_c, 1, 63, 0
2, 6930, Note_on_c, 1, 58, 64
2, 6959, Note_on_c, 1, 58, 0
2, 6960, Note_on_c, 1, 62, 64
2, 7079, Note_on_c, 1, 62, 0
2, 7110, Note_on_c, 1, 62, 64
2, 7139, Note_on_c, 1, 62, 0
2, 7140, Note_on_c, 1, 64, 64
2, 7169, Note_on_c, 1, 64, 0
2, 7170, Note_on_c, 1, 66, 64
2, 7199, Note_on_c, 1, 66, 0
2, 7200, Note_on_c, 1, 67, 64
2, 7229, Note_on_c, 1, 67, 0
2, 7230, Note_on_c, 1, 62, 64
2, 7259, Note_on_c, 1, 62, 0
2, 7260, Note_on_c, 1, 59, 64
2, 7289, Note_on_c, 1, 59, 0
2, 7290, Note_on_c, 1, 55, 64
2, 7319, Note_on_c, 1, 55, 0
2, 7320, Note_on_c, 1, 67, 64
2, 7349, Note_on_c, 1, 67, 0
2, 7350, Note_on_c, 1, 62, 64
2, 7379, Note_on_c, 1, 62, 0
2, 7380, Note_on_c, 1, 59, 64
2, 7409, Note_on_c, 1, 59, 0
2, 7410, Note_on_c, 1, 55, 64
2, 7439, Note_on_c, 1, 55, 0
2, 7440, Note_on_c, 1, 65, 64
2, 7469, Note_on_c, 1, 65, 0
2, 7470, Note_on_c, 1, 62, 64
2, 7499, Note_on_c, 1, 62, 0
2, 7500, Note_on_c, 1, 59, 64
2, 7529, Note_on_c, 1, 59, 0
2, 7530, Note_on_c, 1, 55, 64
2, 7559, Note_on_c, 1, 55, 0
2, 7560, Note_on_c, 1, 65, 64
2, 7589, Note_on_c, 1, 65, 0
2, 7590, Note_on_c, 1, 62, 64
2, 7619, Note_on_c, 1, 62, 0
2, 7620, Note_on_c, 1, 59, 64
2, 7649, Note_on_c, 1, 59, 0
2, 7650, Note_on_c, 1, 55, 64
2, 7679, Note_on_c, 1, 55, 0
2, 7680, Note_on_c, 1, 64, 64
2, 7709, Note_on_c, 1, 64, 0
2, 7710, Note_on_c, 1, 60, 64
2, 7739, Note_on_c, 1, 60, 0
2, 7740, Note_on_c, 1, 65, 64
2, 7769, Note_on_c, 1, 65, 0
2, 7770, Note_on_c, 1, 60, 64
2, 7799, Note_on_c, 1, 60, 0
2, 7800, Note_on_c, 1, 64, 64
2, 7829, Note_on_c, 1, 64, 0
2, 7830, Note_on_c, 1, 60, 64
2, 7859, Note_on_c, 1, 60, 0
2, 7860, Note_on_c, 1, 65, 64
2, 7889, Note_on_c, 1, 65, 0
2, 7890, Note_on_c, 1, 60, 64
2, 7919, Note_on_c, 1, 60, 0
2, 7920, Note_on_c, 1, 64, 64
2, 8039, Note_on_c, 1, 64, 0
2, 8070, Note_on_c, 1, 64, 64
2, 8099, Note_on_c, 1, 64, 0
2, 8100, Note_on_c, 1, 66, 64
2, 8129, Note_on_c, 1, 66, 0
2, 8130, Note_on_c, 1, 68, 64
2, 8159, Note_on_c, 1, 68, 0
2, 8160, Note_on_c, 1, 69, 64
2, 8189, Note_on_c, 1, 69, 0
2, 8190, Note_on_c, 1, 64, 64
2, 8219, Note_on_c, 1, 64, 0
2, 8220, Note_on_c, 1, 61, 64
2, 8249, Note_on_c, 1, 61, 0
2, 8250, Note_on_c, 1, 57, 64
2, 8279, Note_on_c, 1, 57, 0
2, 8280, Note_on_c, 1, 69, 64
2, 8309, Note_on_c, 1, 69, 0
2, 8310, Note_on_c, 1, 64, 64
2, 8339, Note_on_c, 1, 64, 0
2, 8340, Note_on_c, 1, 61, 64
2, 8369, Note_on_c, 1, 61, 0
2, 8370, Note_on_c, 1, 57, 64
2, 8399, Note_on_c, 1, 57, 0
2, 8400, Note_on_c, 1, 67, 64
2, 8429, Note_on_c, 1, 67, 0
2, 8430, Note_on_c, 1, 64, 64
2, 8459, Note_on_c, 1, 64, 0
2, 8460, Note_on_c, 1, 61, 64
2, 8489, Note_on_c, 1, 61, 0
2, 8490, Note_on_c, 1, 57, 64
2, 8519, Note_on_c, 1, 57, 0
2, 8520, Note_on_c, 1, 67, 64
2, 8549, Note_on_c, 1, 67, 0
2, 8550, Note_on_c, 1, 64, 64
2, 8579, Note_on_c, 1, 64, 0
2, 8580, Note_on_c, 1, 61, 64
2, 8609, Note_on_c, 1, 61, 0
2, 8610, Note_on_c, 1, 57, 64
2, 8639, Note_on_c, 1, 57, 0
2, 8640, Note_on_c, 1, 65, 64
2, 8669, Note_on_c, 1, 65, 0
2, 8670, Note_on_c, 1, 62, 64
2, 8699, Note_on_c, 1, 62, 0
2, 8700, Note_on_c, 1, 67, 64
2, 8729, Note_on_c, 1, 67, 0
2, 8730, Note_on_c, 1, 62, 64
2, 8759, Note_on_c, 1, 62, 0
2, 8760, Note_on_c, 1, 65, 64
2, 8789, Note_on_c, 1, 65, 0
2, 8790, Note_on_c, 1, 62, 64
2, 8819, Note_on_c, 1, 62, 0
2, 8820, Note_on_c, 1, 67, 64
2, 8849, Note_on_c, 1, 67, 0
2, 8850, Note_on_c, 1, 62, 64
2, 8879, Note_on_c, 1, 62, 0
2, 8880, Note_on_c, 1, 65, 64
2, 8909, Note_on_c, 1, 65, 0
2, 8910, Note_on_c, 1, 62, 64
2, 8939, Note_on_c, 1, 62, 0
2, 8940, Note_on_c, 1, 66, 64
2, 8969, Note_on_c, 1, 66, 0
2, 8970, Note_on_c, 1, 62, 64
2, 8999, Note_on_c, 1, 62, 0
2, 9000, Note_on_c, 1, 67, 64
2, 9029, Note_on_c, 1, 67, 0
2, 9030, Note_on_c, 1, 62, 64
2, 9059, Note_on_c, 1, 62, 0
2, 9060, Note_on_c, 1, 69, 64
2, 9089, Note_on_c, 1, 69, 0
2, 9090, Note_on_c, 1, 62, 64
2, 9119, Note_on_c, 1, 62, 0
2, 9120, Note_on_c, 1, 70, 64
2, 9149, Note_on_c, 1, 70, 0
2, 9150, Note_on_c, 1, 69, 64
2, 9179, Note_on_c, 1, 69, 0
2, 9180, Note_on_c, 1, 67, 64
2, 9209, Note_on_c, 1, 67, 0
2, 9210, Note_on_c, 1, 65, 64
2, 9239, Note_on_c, 1, 65, 0
2, 9240, Note_on_c, 1, 67, 64
2, 9269, Note_on_c, 1, 67, 0
2, 9270, Note_on_c, 1, 65, 64
2, 9299, Note_on_c, 1, 65, 0
2, 9300, Note_on_c, 1, 64, 64
2, 9329, Note_on_c, 1, 64, 0
2, 9330, Note_on_c, 1, 62, 64
2, 9359, Note_on_c, 1, 62, 0
2, 9360, Note_on_c, 1, 64, 64
2, 9389, Note_on_c, 1, 64, 0
2, 9390, Note_on_c, 1, 60, 64
2, 9419, Note_on_c, 1, 60, 0
2, 9420, Note_on_c, 1, 64, 64
2, 9449, Note_on_c, 1, 64, 0
2, 9450, Note_on_c, 1, 60, 64
2, 9479, Note_on_c, 1, 60, 0
2, 9480, Note_on_c, 1, 65, 64
2, 9509, Note_on_c, 1, 65, 0
2, 9510, Note_on_c, 1, 60, 64
2, 9539, Note_on_c, 1, 60, 0
2, 9540, Note_on_c, 1, 67, 64
2, 9569, Note_on_c, 1, 67, 0
2, 9570, Note_on_c, 1, 60, 64
2, 9599, Note_on_c, 1, 60, 0
2, 9600, Note_on_c, 1, 69, 64
2, 9629, Note_on_c, 1, 69, 0
2, 9630, Note_on_c, 1, 67, 64
2, 9659, Note_on_c, 1, 67, 0
2, 9660, Note_on_c, 1, 65, 64
2, 9689, Note_on_c, 1, 65, 0
2, 9690, Note_on_c, 1, 64, 64
2, 9719, Note_on_c, 1, 64, 0
2, 9720, Note_on_c, 1, 65, 64
2, 9749, Note_on_c, 1, 65, 0
2, 9750, Note_on_c, 1, 63, 64
2, 9779, Note_on_c, 1, 63, 0
2, 9780, Note_on_c, 1, 62, 64
2, 9809, Note_on_c, 1, 62, 0
2, 9810, Note_on_c, 1, 60, 64
2, 9839, Note_on_c, 1, 60, 0
2, 9840, Note_on_c, 1, 62, 64
2, 9899, Note_on_c, 1, 62, 0
2, 9900, Note_on_c, 1, 74, 64
2, 9929, Note_on_c, 1, 74, 0
2, 9930, Note_on_c, 1, 70, 64
2, 9959, Note_on_c, 1, 70, 0
2, 9960, Note_on_c, 1, 74, 64
2, 9989, Note_on_c, 1, 74, 0
2, 9990, Note_on_c, 1, 70, 64
2, 10019, Note_on_c, 1, 70, 0
2, 10020, Note_on_c, 1, 74, 64
2, 10049, Note_on_c, 1, 74, 0
2, 10050, Note_on_c, 1, 70, 64
2, 10079, Note_on_c, 1, 70, 0
2, 10080, Note_on_c, 1, 72, 64
2, 10109, Note_on_c, 1, 72, 0
2, 10140, Note_on_c, 1, 72, 64
2, 10169, Note_on_c, 1, 72, 0
2, 10170, Note_on_c, 1, 69, 64
2, 10199, Note_on_c, 1, 69, 0
2, 10200, Note_on_c, 1, 72, 64
2, 10229, Note_on_c, 1, 72, 0
2, 10230, Note_on_c, 1, 69, 64
2, 10259, Note_on_c, 1, 69, 0
2, 10260, Note_on_c, 1, 72, 64
2, 10289, Note_on_c, 1, 72, 0
2, 10290, Note_on_c, 1, 69, 64
2, 10319, Note_on_c, 1, 69, 0
2, 10320, Note_on_c, 1, 70, 64
2, 10349, Note_on_c, 1, 70, 0
2, 10380, Note_on_c, 1, 70, 64
2, 10409, Note_on_c, 1, 70, 0
2, 10410, Note_on_c, 1, 67, 64
2, 10439, Note_on_c, 1, 67, 0
2, 10440, Note_on_c, 1, 70, 64
2, 10469, Note_on_c, 1, 70, 0
2, 10470, Note_on_c, 1, 67, 64
2, 10499, Note_on_c, 1, 67, 0
2, 10500, Note_on_c, 1, 70, 64
2, 10529, Note_on_c, 1, 70, 0
2, 10530, Note_on_c, 1, 67, 64
2, 10559, Note_on_c, 1, 67, 0
2, 10560, Note_on_c, 1, 69, 64
2, 10589, Note_on_c, 1, 69, 0
2, 10620, Note_on_c, 1, 69, 64
2, 10649, Note_on_c, 1, 69, 0
2, 10650, Note_on_c, 1, 65, 64
2, 10679, Note_on_c, 1, 65, 0
2, 10680, Note_on_c, 1, 69, 64
2, 10709, Note_on_c, 1, 69, 0
2, 10710, Note_on_c, 1, 65, 64
2, 10739, Note_on_c, 1, 65, 0
2, 10740, Note_on_c, 1, 69, 64
2, 10769, Note_on_c, 1, 69, 0
2, 10770, Note_on_c, 1, 65, 64
2, 10799, Note_on_c, 1, 65, 0
2, 10800, Note_on_c, 1, 67, 64
2, 10829, Note_on_c, 1, 67, 0
2, 10860, Note_on_c, 1, 67, 64
2, 10889, Note_on_c, 1, 67, 0
2, 10890, Note_on_c, 1, 64, 64
2, 10919, Note_on_c, 1, 64, 0
2, 10920, Note_on_c, 1, 67, 64
2, 10949, Note_on_c, 1, 67, 0
2, 10950, Note_on_c, 1, 64, 64
2, 10979, Note_on_c, 1, 64, 0
2, 10980, Note_on_c, 1, 67, 64
2, 11009, Note_on_c, 1, 67, 0
2, 11010, Note_on_c, 1, 64, 64
2, 11039, Note_on_c, 1, 64, 0
2, 11040, Note_on_c, 1, 62, 64
2, 11040, Note_on_c, 1, 65, 64
2, 11159, Note_on_c, 1, 65, 0
2, 11159, Note_on_c, 1, 62, 0
2, 11190, Note_on_c, 1, 57, 64
2, 11219, Note_on_c, 1, 57, 0
2, 11220, Note_on_c, 1, 59, 64
2, 11249, Note_on_c, 1, 59, 0
2, 11250, Note_on_c, 1, 61, 64
2, 11279, Note_on_c, 1, 61, 0
2, 11280, Note_on_c, 1, 62, 64
2, 11309, Note_on_c, 1, 62, 0
2, 11430, Note_on_c, 1, 64, 64
2, 11459, Note_on_c, 1, 64, 0
2, 11460, Note_on_c, 1, 65, 64
2, 11489, Note_on_c, 1, 65, 0
2, 11490, Note_on_c, 1, 67, 64
2, 11519, Note_on_c, 1, 67, 0
2, 11520, Note_on_c, 1, 69, 64
2, 11549, Note_on_c, 1, 69, 0
2, 11670, Note_on_c, 1, 69, 64
2, 11699, Note_on_c, 1, 69, 0
2, 11700, Note_on_c, 1, 71, 64
2, 11729, Note_on_c, 1, 71, 0
2, 11730, Note_on_c, 1, 73, 64
2, 11759, Note_on_c, 1, 73, 0
2, 11760, Note_on_c, 1, 74, 64
2, 11789, Note_on_c, 1, 74, 0
2, 11820, Note_on_c, 1, 74, 64
2, 11879, Note_on_c, 1, 74, 0
2, 11880, Note_on_c, 1, 76, 64
2, 11909, Note_on_c, 1, 76, 0
2, 11910, Note_on_c, 1, 74, 64
2, 11939, Note_on_c, 1, 74, 0
2, 11940, Note_on_c, 1, 76, 64
2, 11969, Note_on_c, 1, 76, 0
2, 11970, Note_on_c, 1, 73, 64
2, 11999, Note_on_c, 1, 73, 0
2, 12000, Note_on_c, 1, 65, 64
2, 12000, Note_on_c, 1, 69, 64
2, 12000, Note_on_c, 1, 74, 64
2, 12119, Note_on_c, 1, 74, 0
2, 12119, Note_on_c, 1, 69, 0
2, 12119, Note_on_c, 1, 65, 0
2, 12300, Note_on_c, 1, 69, 64
2, 12300, Note_on_c, 1, 74, 64
2, 12359, Note_on_c, 1, 74, 0
2, 12359, Note_on_c, 1, 69, 0
2, 12360, Note_on_c, 1, 73, 64
2, 12360, Note_on_c, 1, 67, 64
2, 12419, Note_on_c, 1, 67, 0
2, 12419, Note_on_c, 1, 73, 0
2, 12420, Note_on_c, 1, 65, 64
2, 12420, Note_on_c, 1, 69, 64
2, 12420, Note_on_c, 1, 74, 64
2, 12479, Note_on_c, 1, 74, 0
2, 12479, Note_on_c, 1, 65, 0
2, 12480, Note_on_c, 1, 76, 64
2, 12509, Note_on_c, 1, 69, 0
2, 12510, Note_on_c, 1, 69, 64
2, 12539, Note_on_c, 1, 69, 0
2, 12540, Note_on_c, 1, 67, 64
2, 12569, Note_on_c, 1, 67, 0
2, 12570, Note_on_c, 1, 65, 64
2, 12599, Note_on_c, 1, 65, 0
2, 12599, Note_on_c, 1, 76, 0
2, 12600, Note_on_c, 1, 64, 64
2, 12629, Note_on_c, 1, 64, 0
2, 12780, Note_on_c, 1, 61, 64
2, 12780, Note_on_c, 1, 69, 64
2, 12839, Note_on_c, 1, 69, 0
2, 12839, Note_on_c, 1, 61, 0
2, 12840, Note_on_c, 1, 62, 64
2, 12840, Note_on_c, 1, 67, 64
2, 12899, Note_on_c, 1, 67, 0
2, 12899, Note_on_c, 1, 62, 0
2, 12900, Note_on_c, 1, 65, 64
2, 12944, Note_on_c, 1, 65, 0
2, 12945, Note_on_c, 1, 64, 64
2, 12959, Note_on_c, 1, 64, 0
2, 12960, Note_on_c, 1, 65, 64
2, 12960, Note_on_c, 1, 62, 64
2, 13019, Note_on_c, 1, 62, 0
2, 13019, Note_on_c, 1, 65, 0
2, 13020, Note_on_c, 1, 74, 64
2, 13020, Note_on_c, 1, 65, 64
2, 13079, Note_on_c, 1, 65, 0
2, 13079, Note_on_c, 1, 74, 0
2, 13080, Note_on_c, 1, 64, 64
2, 13080, Note_on_c, 1, 72, 64
2, 13139, Note_on_c, 1, 72, 0
2, 13139, Note_on_c, 1, 64, 0
2, 13140, Note_on_c, 1, 70, 64
2, 13199, Note_on_c, 1, 70, 0
2, 13200, Note_on_c, 1, 69, 64
2, 13260, Note_on_c, 1, 77, 64
2, 13319, Note_on_c, 1, 77, 0
2, 13319, Note_on_c, 1, 69, 0
2, 13320, Note_on_c, 1, 67, 64
2, 13320, Note_on_c, 1, 76, 64
2, 13379, Note_on_c, 1, 76, 0
2, 13379, Note_on_c, 1, 67, 0
2, 13380, Note_on_c, 1, 74, 64
2, 13439, Note_on_c, 1, 74, 0
2, 13440, Note_on_c, 1, 73, 64
2, 13559, Note_on_c, 1, 73, 0
2, 13590, Note_on_c, 1, 64, 64
2, 13619, Note_on_c, 1, 64, 0
2, 13620, Note_on_c, 1, 65, 64
2, 13649, Note_on_c, 1, 65, 0
2, 13650, Note_on_c, 1, 67, 64
2, 13679, Note_on_c, 1, 67, 0
2, 13680, Note_on_c, 1, 69, 64
2, 13739, Note_on_c, 1, 69, 0
2, 13740, Note_on_c, 1, 67, 64
2, 13740, Note_on_c, 1, 64, 64
2, 13799, Note_on_c, 1, 64, 0
2, 13799, Note_on_c, 1, 67, 0
2, 13800, Note_on_c, 1, 62, 64
2, 13800, Note_on_c, 1, 65, 64
2, 13859, Note_on_c, 1, 65, 0
2, 13859, Note_on_c, 1, 62, 0
2, 13860, Note_on_c, 1, 64, 64
2, 13919, Note_on_c, 1, 64, 0
2, 13920, Note_on_c, 1, 62, 64
2, 13979, Note_on_c, 1, 62, 0
2, 13980, Note_on_c, 1, 64, 64
2, 14009, Note_on_c, 1, 64, 0
2, 14010, Note_on_c, 1, 65, 64
2, 14039, Note_on_c, 1, 65, 0
2, 14040, Note_on_c, 1, 64, 64
2, 14069, Note_on_c, 1, 64, 0
2, 14070, Note_on_c, 1, 65, 64
2, 14099, Note_on_c, 1, 65, 0
2, 14100, Note_on_c, 1, 62, 64
2, 14159, Note_on_c, 1, 62, 0
2, 14160, Note_on_c, 1, 61, 64
2, 14160, Note_on_c, 1, 69, 64
2, 14160, Note_on_c, 1, 64, 64
2, 14279, Note_on_c, 1, 64, 0
2, 14279, Note_on_c, 1, 69, 0
2, 14279, Note_on_c, 1, 61, 0
2, 14280, Note_on_c, 1, 69, 64
2, 14280, Note_on_c, 1, 65, 64
2, 14280, Note_on_c, 1, 62, 64
2, 14399, Note_on_c, 1, 65, 0
2, 14399, Note_on_c, 1, 69, 0
2, 14400, Note_on_c, 1, 67, 64
2, 14459, Note_on_c, 1, 62, 0
2, 14460, Note_on_c, 1, 61, 64
2, 14519, Note_on_c, 1, 61, 0
2, 14519, Note_on_c, 1, 67, 0
2, 14520, Note_on_c, 1, 65, 64
2, 14520, Note_on_c, 1, 62, 64
2, 14639, Note_on_c, 1, 65, 0
2, 14640, Note_on_c, 1, 64, 64
2, 14759, Note_on_c, 1, 62, 0
2, 14760, Note_on_c, 1, 62, 64
2, 14774, Note_on_c, 1, 62, 0
2, 14775, Note_on_c, 1, 61, 64
2, 14789, Note_on_c, 1, 61, 0
2, 14790, Note_on_c, 1, 62, 64
2, 14804, Note_on_c, 1, 62, 0
2, 14805, Note_on_c, 1, 61, 64
2, 14819, Note_on_c, 1, 61, 0
2, 14820, Note_on_c, 1, 62, 64
2, 14834, Note_on_c, 1, 62, 0
2, 14835, Note_on_c, 1, 61, 64
2, 14879, Note_on_c, 1, 61, 0
2, 14879, Note_on_c, 1, 64, 0
2, 14880, Note_on_c, 1, 62, 64
2, 14880, Note_on_c, 1, 57, 64
2, 14999, Note_on_c, 1, 57, 0
2, 14999, Note_on_c, 1, 62, 0
2, 15060, Note_on_c, 1, 69, 64
2, 15119, Note_on_c, 1, 69, 0
2, 15120, Note_on_c, 1, 65, 64
2, 15179, Note_on_c, 1, 65, 0
2, 15180, Note_on_c, 1, 69, 64
2, 15239, Note_on_c, 1, 69, 0
2, 15240, Note_on_c, 1, 64, 64
2, 15299, Note_on_c, 1, 64, 0
2, 15300, Note_on_c, 1, 69, 64
2, 15359, Note_on_c, 1, 69, 0
2, 15360, Note_on_c, 1, 62, 64
2, 15419, Note_on_c, 1, 62, 0
2, 15420, Note_on_c, 1, 65, 64
2, 15479, Note_on_c, 1, 65, 0
2, 15480, Note_on_c, 1, 70, 64
2, 15599, Note_on_c, 1, 70, 0
2, 15600, Note_on_c, 1, 69, 64
2, 15659, Note_on_c, 1, 69, 0
2, 15660, Note_on_c, 1, 71, 64
2, 15689, Note_on_c, 1, 71, 0
2, 15690, Note_on_c, 1, 73, 64
2, 15719, Note_on_c, 1, 73, 0
2, 15720, Note_on_c, 1, 74, 64
2, 15899, Note_on_c, 1, 74, 0
2, 15900, Note_on_c, 1, 73, 64
2, 15929, Note_on_c, 1, 73, 0
2, 15930, Note_on_c, 1, 71, 64
2, 15959, Note_on_c, 1, 71, 0
2, 15960, Note_on_c, 1, 69, 64
2, 16019, Note_on_c, 1, 69, 0
2, 16020, Note_on_c, 1, 67, 64
2, 16079, Note_on_c, 1, 67, 0
2, 16080, Note_on_c, 1, 65, 64
2, 16139, Note_on_c, 1, 65, 0
2, 16140, Note_on_c, 1, 62, 64
2, 16169, Note_on_c, 1, 62, 0
2, 16170, Note_on_c, 1, 64, 64
2, 16199, Note_on_c, 1, 64, 0
2, 16200, Note_on_c, 1, 65, 64
2, 16229, Note_on_c, 1, 65, 0
2, 16230, Note_on_c, 1, 67, 64
2, 16259, Note_on_c, 1, 67, 0
2, 16260, Note_on_c, 1, 65, 64
2, 16289, Note_on_c, 1, 65, 0
2, 16290, Note_on_c, 1, 67, 64
2, 16319, Note_on_c, 1, 67, 0
2, 16320, Note_on_c, 1, 69, 64
2, 16439, Note_on_c, 1, 69, 0
2, 16440, Note_on_c, 1, 68, 64
2, 16559, Note_on_c, 1, 68, 0
2, 16560, Note_on_c, 1, 69, 64
2, 16679, Note_on_c, 1, 69, 0
2, 16740, Note_on_c, 1, 69, 64
2, 16769, Note_on_c, 1, 69, 0
2, 16770, Note_on_c, 1, 71, 64
2, 16799, Note_on_c, 1, 71, 0
2, 16800, Note_on_c, 1, 72, 64
2, 16949, Note_on_c, 1, 72, 0
2, 16950, Note_on_c, 1, 74, 64
2, 16979, Note_on_c, 1, 74, 0
2, 16980, Note_on_c, 1, 72, 64
2, 17009, Note_on_c, 1, 72, 0
2, 17010, Note_on_c, 1, 74, 64
2, 17039, Note_on_c, 1, 74, 0
2, 17040, Note_on_c, 1, 76, 64
2, 17159, Note_on_c, 1, 76, 0
2, 17160, Note_on_c, 1, 69, 64
2, 17174, Note_on_c, 1, 69, 0
2, 17175, Note_on_c, 1, 68, 64
2, 17189, Note_on_c, 1, 68, 0
2, 17190, Note_on_c, 1, 69, 64
2, 17204, Note_on_c, 1, 69, 0
2, 17205, Note_on_c, 1, 68, 64
2, 17219, Note_on_c, 1, 68, 0
2, 17220, Note_on_c, 1, 69, 64
2, 17234, Note_on_c, 1, 69, 0
2, 17235, Note_on_c, 1, 68, 64
2, 17279, Note_on_c, 1, 68, 0
2, 17280, Note_on_c, 1, 69, 64
2, 17399, Note_on_c, 1, 69, 0
2, 17400, Note_on_c, 1, 67, 64
2, 17400, Note_on_c, 1, 59, 64
2, 17459, Note_on_c, 1, 59, 0
2, 17459, Note_on_c, 1, 67, 0
2, 17460, Note_on_c, 1, 64, 64
2, 17460, Note_on_c, 1, 61, 64
2, 17519, Note_on_c, 1, 61, 0
2, 17519, Note_on_c, 1, 64, 0
2, 17520, Note_on_c, 1, 62, 64
2, 17520, Note_on_c, 1, 65, 64
2, 17639, Note_on_c, 1, 65, 0
2, 17640, Note_on_c, 1, 67, 64
2, 17699, Note_on_c, 1, 67, 0
2, 17699, Note_on_c, 1, 62, 0
2, 17700, Note_on_c, 1, 61, 64
2, 17700, Note_on_c, 1, 64, 64
2, 17759, Note_on_c, 1, 64, 0
2, 17759, Note_on_c, 1, 61, 0
2, 17760, Note_on_c, 1, 65, 64
2, 17760, Note_on_c, 1, 62, 64
2, 17879, Note_on_c, 1, 62, 0
2, 17879, Note_on_c, 1, 65, 0
2, 17940, Note_on_c, 1, 65, 64
2, 17940, Note_on_c, 1, 62, 64
2, 17969, Note_on_c, 1, 65, 0
2, 17970, Note_on_c, 1, 67, 64
2, 17999, Note_on_c, 1, 67, 0
2, 17999, Note_on_c, 1, 62, 0
2, 18000, Note_on_c, 1, 69, 64
2, 18000, Note_on_c, 1, 61, 64
2, 18059, Note_on_c, 1, 61, 0
2, 18060, Note_on_c, 1, 62, 64
2, 18089, Note_on_c, 1, 62, 0
2, 18090, Note_on_c, 1, 64, 64
2, 18119, Note_on_c, 1, 64, 0
2, 18120, Note_on_c, 1, 65, 64
2, 18179, Note_on_c, 1, 69, 0
2, 18180, Note_on_c, 1, 70, 64
2, 18209, Note_on_c, 1, 70, 0
2, 18210, Note_on_c, 1, 69, 64
2, 18239, Note_on_c, 1, 69, 0
2, 18239, Note_on_c, 1, 65, 0
2, 18240, Note_on_c, 1, 64, 64
2, 18240, Note_on_c, 1, 67, 64
2, 18359, Note_on_c, 1, 67, 0
2, 18359, Note_on_c, 1, 64, 0
2, 18360, Note_on_c, 1, 76, 64
2, 18360, Note_on_c, 1, 73, 64
2, 18419, Note_on_c, 1, 73, 0
2, 18420, Note_on_c, 1, 71, 64
2, 18479, Note_on_c, 1, 71, 0
2, 18480, Note_on_c, 1, 69, 64
2, 18539, Note_on_c, 1, 76, 0
2, 18540, Note_on_c, 1, 74, 64
2, 18569, Note_on_c, 1, 74, 0
2, 18570, Note_on_c, 1, 73, 64
2, 18599, Note_on_c, 1, 73, 0
2, 18599, Note_on_c, 1, 69, 0
2, 18600, Note_on_c, 1, 74, 64
2, 18629, Note_on_c, 1, 74, 0
2, 18630, Note_on_c, 1, 67, 64
2, 18630, Note_on_c, 1, 76, 64
2, 18659, Note_on_c, 1, 76, 0
2, 18659, Note_on_c, 1, 67, 0
2, 18660, Note_on_c, 1, 77, 64
2, 18660, Note_on_c, 1, 69, 64
2, 18689, Note_on_c, 1, 69, 0
2, 18719, Note_on_c, 1, 77, 0
2, 18720, Note_on_c, 1, 69, 64
2, 18720, Note_on_c, 1, 76, 64
2, 18839, Note_on_c, 1, 76, 0
2, 18839, Note_on_c, 1, 69, 0
2, 18840, Note_on_c, 1, 74, 64
2, 18840, Note_on_c, 1, 71, 64
2, 18959, Note_on_c, 1, 74, 0
2, 18960, Note_on_c, 1, 72, 64
2, 19019, Note_on_c, 1, 71, 0
2, 19080, Note_on_c, 1, 69, 64
2, 19139, Note_on_c, 1, 72, 0
2, 19140, Note_on_c, 1, 74, 64
2, 19199, Note_on_c, 1, 74, 0
2, 19199, Note_on_c, 1, 69, 0
2, 19200, Note_on_c, 1, 68, 64
2, 19200, Note_on_c, 1, 76, 64
2, 19259, Note_on_c, 1, 68, 0
2, 19260, Note_on_c, 1, 69, 64
2, 19289, Note_on_c, 1, 69, 0
2, 19290, Note_on_c, 1, 71, 64
2, 19319, Note_on_c, 1, 71, 0
2, 19320, Note_on_c, 1, 72, 64
2, 19379, Note_on_c, 1, 76, 0
2, 19380, Note_on_c, 1, 78, 64
2, 19409, Note_on_c, 1, 78, 0
2, 19410, Note_on_c, 1, 76, 64
2, 19439, Note_on_c, 1, 76, 0
2, 19439, Note_on_c, 1, 72, 0
2, 19440, Note_on_c, 1, 75, 64
2, 19559, Note_on_c, 1, 75, 0
2, 19560, Note_on_c, 1, 67, 64
2, 19560, Note_on_c, 1, 76, 64
2, 19679, Note_on_c, 1, 67, 0
2, 19680, Note_on_c, 1, 69, 64
2, 19739, Note_on_c, 1, 76, 0
2, 19740, Note_on_c, 1, 74, 64
2, 19799, Note_on_c, 1, 74, 0
2, 19799, Note_on_c, 1, 69, 0
2, 19800, Note_on_c, 1, 72, 64
2, 19859, Note_on_c, 1, 72, 0
2, 19860, Note_on_c, 1, 74, 64
2, 19889, Note_on_c, 1, 74, 0
2, 19890, Note_on_c, 1, 72, 64
2, 19919, Note_on_c, 1, 72, 0
2, 19920, Note_on_c, 1, 71, 64
2, 19920, Note_on_c, 1, 65, 64
2, 19979, Note_on_c, 1, 65, 0
2, 19980, Note_on_c, 1, 67, 64
2, 20009, Note_on_c, 1, 67, 0
2, 20010, Note_on_c, 1, 65, 64
2, 20039, Note_on_c, 1, 65, 0
2, 20039, Note_on_c, 1, 71, 0
2, 20100, Note_on_c, 1, 74, 64
2, 20159, Note_on_c, 1, 74, 0
2, 20160, Note_on_c, 1, 72, 64
2, 20219, Note_on_c, 1, 72, 0
2, 20220, Note_on_c, 1, 76, 64
2, 20279, Note_on_c, 1, 76, 0
2, 20280, Note_on_c, 1, 71, 64
2, 20339, Note_on_c, 1, 71, 0
2, 20340, Note_on_c, 1, 76, 64
2, 20399, Note_on_c, 1, 76, 0
2, 20400, Note_on_c, 1, 69, 64
2, 20459, Note_on_c, 1, 69, 0
2, 20460, Note_on_c, 1, 72, 64
2, 20519, Note_on_c, 1, 72, 0
2, 20520, Note_on_c, 1, 77, 64
2, 20580, Note_on_c, 1, 72, 64
2, 20639, Note_on_c, 1, 72, 0
2, 20640, Note_on_c, 1, 74, 64
2, 20699, Note_on_c, 1, 74, 0
2, 20700, Note_on_c, 1, 71, 64
2, 20759, Note_on_c, 1, 71, 0
2, 20760, Note_on_c, 1, 67, 64
2, 20819, Note_on_c, 1, 77, 0
2, 20820, Note_on_c, 1, 76, 64
2, 20879, Note_on_c, 1, 67, 0
2, 20880, Note_on_c, 1, 69, 64
2, 20939, Note_on_c, 1, 69, 0
2, 20939, Note_on_c, 1, 76, 0
2, 20940, Note_on_c, 1, 69, 64
2, 20999, Note_on_c, 1, 69, 0
2, 21000, Note_on_c, 1, 74, 64
2, 21059, Note_on_c, 1, 74, 0
2, 21060, Note_on_c, 1, 76, 64
2, 21089, Note_on_c, 1, 76, 0
2, 21090, Note_on_c, 1, 77, 64
2, 21119, Note_on_c, 1, 77, 0
2, 21120, Note_on_c, 1, 71, 64
2, 21179, Note_on_c, 1, 71, 0
2, 21180, Note_on_c, 1, 69, 64
2, 21209, Note_on_c, 1, 69, 0
2, 21210, Note_on_c, 1, 67, 64
2, 21240, Note_on_c, 1, 72, 64
2, 21299, Note_on_c, 1, 67, 0
2, 21300, Note_on_c, 1, 65, 64
2, 21329, Note_on_c, 1, 65, 0
2, 21330, Note_on_c, 1, 64, 64
2, 21359, Note_on_c, 1, 64, 0
2, 21360, Note_on_c, 1, 62, 64
2, 21479, Note_on_c, 1, 62, 0
2, 21479, Note_on_c, 1, 72, 0
2, 21480, Note_on_c, 1, 71, 64
2, 21540, Note_on_c, 1, 67, 64
2, 21599, Note_on_c, 1, 67, 0
2, 21599, Note_on_c, 1, 71, 0
2, 21600, Note_on_c, 1, 72, 64
2, 21600, Note_on_c, 1, 64, 64
2, 21659, Note_on_c, 1, 64, 0
2, 21660, Note_on_c, 1, 67, 64
2, 21719, Note_on_c, 1, 67, 0
2, 21719, Note_on_c, 1, 72, 0
2, 21720, Note_on_c, 1, 62, 64
2, 21779, Note_on_c, 1, 62, 0
2, 21780, Note_on_c, 1, 71, 64
2, 21780, Note_on_c, 1, 67, 64
2, 21839, Note_on_c, 1, 67, 0
2, 21839, Note_on_c, 1, 71, 0
2, 21840, Note_on_c, 1, 72, 64
2, 21840, Note_on_c, 1, 60, 64
2, 21899, Note_on_c, 1, 60, 0
2, 21900, Note_on_c, 1, 64, 64
2, 21959, Note_on_c, 1, 64, 0
2, 21959, Note_on_c, 1, 72, 0
2, 21960, Note_on_c, 1, 69, 64
2, 22020, Note_on_c, 1, 72, 64
2, 22049, Note_on_c, 1, 72, 0
2, 22050, Note_on_c, 1, 74, 64
2, 22079, Note_on_c, 1, 74, 0
2, 22079, Note_on_c, 1, 69, 0
2, 22080, Note_on_c, 1, 76, 64
2, 22080, Note_on_c, 1, 67, 64
2, 22139, Note_on_c, 1, 67, 0
2, 22140, Note_on_c, 1, 69, 64
2, 22169, Note_on_c, 1, 69, 0
2, 22170, Note_on_c, 1, 71, 64
2, 22199, Note_on_c, 1, 71, 0
2, 22200, Note_on_c, 1, 72, 64
2, 22229, Note_on_c, 1, 76, 0
2, 22230, Note_on_c, 1, 77, 64
2, 22259, Note_on_c, 1, 77, 0
2, 22260, Note_on_c, 1, 76, 64
2, 22289, Note_on_c, 1, 76, 0
2, 22290, Note_on_c, 1, 77, 64
2, 22319, Note_on_c, 1, 77, 0
2, 22320, Note_on_c, 1, 74, 64
2, 22379, Note_on_c, 1, 72, 0
2, 22380, Note_on_c, 1, 71, 64
2, 22409, Note_on_c, 1, 71, 0
2, 22410, Note_on_c, 1, 69, 64
2, 22439, Note_on_c, 1, 69, 0
2, 22440, Note_on_c, 1, 67, 64
2, 22499, Note_on_c, 1, 67, 0
2, 22500, Note_on_c, 1, 65, 64
2, 22559, Note_on_c, 1, 65, 0
2, 22560, Note_on_c, 1, 64, 64
2, 22619, Note_on_c, 1, 74, 0
2, 22620, Note_on_c, 1, 72, 64
2, 22649, Note_on_c, 1, 72, 0
2, 22650, Note_on_c, 1, 70, 64
2, 22679, Note_on_c, 1, 70, 0
2, 22679, Note_on_c, 1, 64, 0
2, 22680, Note_on_c, 1, 69, 64
2, 22739, Note_on_c, 1, 69, 0
2, 22740, Note_on_c, 1, 67, 64
2, 22799, Note_on_c, 1, 67, 0
2, 22830, Note_on_c, 1, 69, 64
2, 22859, Note_on_c, 1, 69, 0
2, 22860, Note_on_c, 1, 67, 64
2, 22889, Note_on_c, 1, 67, 0
2, 22890, Note_on_c, 1, 69, 64
2, 22919, Note_on_c, 1, 69, 0
2, 22920, Note_on_c, 1, 70, 64
2, 22950, Note_on_c, 1, 64, 64
2, 22979, Note_on_c, 1, 64, 0
2, 22980, Note_on_c, 1, 65, 64
2, 23009, Note_on_c, 1, 65, 0
2, 23010, Note_on_c, 1, 62, 64
2, 23039, Note_on_c, 1, 62, 0
2, 23040, Note_on_c, 1, 64, 64
2, 23099, Note_on_c, 1, 64, 0
2, 23099, Note_on_c, 1, 70, 0
2, 23100, Note_on_c, 1, 65, 64
2, 23100, Note_on_c, 1, 69, 64
2, 23159, Note_on_c, 1, 69, 0
2, 23160, Note_on_c, 1, 67, 64
2, 23219, Note_on_c, 1, 65, 0
2, 23220, Note_on_c, 1, 64, 64
2, 23279, Note_on_c, 1, 64, 0
2, 23279, Note_on_c, 1, 67, 0
2, 23280, Note_on_c, 1, 69, 64
2, 23280, Note_on_c, 1, 65, 64
2, 23399, Note_on_c, 1, 69, 0
2, 23400, Note_on_c, 1, 70, 64
2, 23459, Note_on_c, 1, 70, 0
2, 23459, Note_on_c, 1, 65, 0
2, 23460, Note_on_c, 1, 67, 64
2, 23460, Note_on_c, 1, 64, 64
2, 23519, Note_on_c, 1, 64, 0
2, 23520, Note_on_c, 1, 69, 64
2, 23579, Note_on_c, 1, 67, 0
2, 23580, Note_on_c, 1, 65, 64
2, 23609, Note_on_c, 1, 65, 0
2, 23610, Note_on_c, 1, 64, 64
2, 23639, Note_on_c, 1, 64, 0
2, 23640, Note_on_c, 1, 65, 64
2, 23699, Note_on_c, 1, 69, 0
2, 23700, Note_on_c, 1, 71, 64
2, 23759, Note_on_c, 1, 71, 0
2, 23759, Note_on_c, 1, 65, 0
2, 23760, Note_on_c, 1, 72, 64
2, 23820, Note_on_c, 1, 65, 64
2, 23849, Note_on_c, 1, 65, 0
2, 23850, Note_on_c, 1, 67, 64
2, 23879, Note_on_c, 1, 67, 0
2, 23880, Note_on_c, 1, 69, 64
2, 23939, Note_on_c, 1, 72, 0
2, 23940, Note_on_c, 1, 74, 64
2, 23969, Note_on_c, 1, 74, 0
2, 23970, Note_on_c, 1, 72, 64
2, 23999, Note_on_c, 1, 72, 0
2, 23999, Note_on_c, 1, 69, 0
2, 24000, Note_on_c, 1, 71, 64
2, 24119, Note_on_c, 1, 71, 0
2, 24120, Note_on_c, 1, 72, 64
2, 24120, Note_on_c, 1, 64, 64
2, 24299, Note_on_c, 1, 72, 0
2, 24300, Note_on_c, 1, 71, 64
2, 24329, Note_on_c, 1, 71, 0
2, 24330, Note_on_c, 1, 69, 64
2, 24359, Note_on_c, 1, 69, 0
2, 24359, Note_on_c, 1, 64, 0
2, 24360, Note_on_c, 1, 67, 64
2, 24419, Note_on_c, 1, 67, 0
2, 24420, Note_on_c, 1, 65, 64
2, 24420, Note_on_c, 1, 62, 64
2, 24479, Note_on_c, 1, 62, 0
2, 24479, Note_on_c, 1, 65, 0
2, 24480, Note_on_c, 1, 60, 64
2, 24480, Note_on_c, 1, 64, 64
2, 24539, Note_on_c, 1, 64, 0
2, 24540, Note_on_c, 1, 67, 64
2, 24599, Note_on_c, 1, 67, 0
2, 24599, Note_on_c, 1, 60, 0
2, 24600, Note_on_c, 1, 62, 64
2, 24660, Note_on_c, 1, 67, 64
2, 24719, Note_on_c, 1, 67, 0
2, 24719, Note_on_c, 1, 62, 0
2, 24720, Note_on_c, 1, 64, 64
2, 24720, Note_on_c, 1, 60, 64
2, 24779, Note_on_c, 1, 64, 0
2, 24780, Note_on_c, 1, 67, 64
2, 24839, Note_on_c, 1, 67, 0
2, 24839, Note_on_c, 1, 60, 0
2, 24840, Note_on_c, 1, 60, 64
2, 24899, Note_on_c, 1, 60, 0
2, 24900, Note_on_c, 1, 64, 64
2, 24959, Note_on_c, 1, 64, 0
2, 24960, Note_on_c, 1, 65, 64
2, 25079, Note_on_c, 1, 65, 0
2, 25080, Note_on_c, 1, 64, 64
2, 25199, Note_on_c, 1, 64, 0
2, 25200, Note_on_c, 1, 65, 64
2, 25319, Note_on_c, 1, 65, 0
2, 25380, Note_on_c, 1, 74, 64
2, 25409, Note_on_c, 1, 72, 64
2, 25409, Note_on_c, 1, 74, 0
2, 25438, Note_on_c, 1, 72, 0
2, 25440, Note_on_c, 1, 70, 64
2, 25499, Note_on_c, 1, 70, 0
2, 25500, Note_on_c, 1, 74, 64
2, 25559, Note_on_c, 1, 74, 0
2, 25560, Note_on_c, 1, 69, 64
2, 25619, Note_on_c, 1, 69, 0
2, 25620, Note_on_c, 1, 74, 64
2, 25679, Note_on_c, 1, 74, 0
2, 25680, Note_on_c, 1, 70, 64
2, 25739, Note_on_c, 1, 70, 0
2, 25740, Note_on_c, 1, 74, 64
2, 25799, Note_on_c, 1, 74, 0
2, 25800, Note_on_c, 1, 67, 64
2, 25859, Note_on_c, 1, 67, 0
2, 25860, Note_on_c, 1, 76, 64
2, 25889, Note_on_c, 1, 76, 0
2, 25890, Note_on_c, 1, 74, 64
2, 25919, Note_on_c, 1, 74, 0
2, 25920, Note_on_c, 1, 73, 64
2, 25979, Note_on_c, 1, 73, 0
2, 25980, Note_on_c, 1, 76, 64
2, 26039, Note_on_c, 1, 76, 0
2, 26040, Note_on_c, 1, 71, 64
2, 26099, Note_on_c, 1, 71, 0
2, 26100, Note_on_c, 1, 76, 64
2, 26159, Note_on_c, 1, 76, 0
2, 26160, Note_on_c, 1, 73, 64
2, 26219, Note_on_c, 1, 73, 0
2, 26220, Note_on_c, 1, 76, 64
2, 26279, Note_on_c, 1, 76, 0
2, 26280, Note_on_c, 1, 69, 64
2, 26309, Note_on_c, 1, 69, 0
2, 26340, Note_on_c, 1, 69, 64
2, 26340, Note_on_c, 1, 73, 64
2, 26369, Note_on_c, 1, 69, 0
2, 26370, Note_on_c, 1, 67, 64
2, 26399, Note_on_c, 1, 67, 0
2, 26399, Note_on_c, 1, 73, 0
2, 26400, Note_on_c, 1, 65, 64
2, 26400, Note_on_c, 1, 74, 64
2, 26459, Note_on_c, 1, 65, 0
2, 26461, Note_on_c, 1, 69, 64
2, 26519, Note_on_c, 1, 74, 0
2, 26520, Note_on_c, 1, 64, 64
2, 26520, Note_on_c, 1, 69, 0
2, 26579, Note_on_c, 1, 64, 0
2, 26580, Note_on_c, 1, 69, 64
2, 26639, Note_on_c, 1, 69, 0
2, 26760, Note_on_c, 1, 70, 64
2, 26820, Note_on_c, 1, 74, 64
2, 26879, Note_on_c, 1, 74, 0
2, 26879, Note_on_c, 1, 70, 0
2, 26880, Note_on_c, 1, 69, 64
2, 26880, Note_on_c, 1, 73, 64
2, 26939, Note_on_c, 1, 73, 0
2, 26939, Note_on_c, 1, 69, 0
2, 26940, Note_on_c, 1, 71, 64
2, 26940, Note_on_c, 1, 74, 64
2, 26969, Note_on_c, 1, 74, 0
2, 26969, Note_on_c, 1, 71, 0
2, 26970, Note_on_c, 1, 73, 64
2, 26970, Note_on_c, 1, 76, 64
2, 26999, Note_on_c, 1, 76, 0
2, 26999, Note_on_c, 1, 73, 0
2, 27000, Note_on_c, 1, 77, 64
2, 27000, Note_on_c, 1, 74, 64
2, 27119, Note_on_c, 1, 77, 0
2, 27120, Note_on_c, 1, 76, 64
2, 27179, Note_on_c, 1, 74, 0
2, 27180, Note_on_c, 1, 73, 64
2, 27209, Note_on_c, 1, 73, 0
2, 27210, Note_on_c, 1, 71, 64
2, 27239, Note_on_c, 1, 71, 0
2, 27240, Note_on_c, 1, 69, 64
2, 27299, Note_on_c, 1, 69, 0
2, 27300, Note_on_c, 1, 67, 64
2, 27359, Note_on_c, 1, 67, 0
2, 27359, Note_on_c, 1, 76, 0
2, 27360, Note_on_c, 1, 65, 64
2, 27360, Note_on_c, 1, 74, 64
2, 27479, Note_on_c, 1, 74, 0
2, 27479, Note_on_c, 1, 65, 0
2, 27540, Note_on_c, 1, 69, 64
2, 27540, Note_on_c, 1, 66, 64
2, 27599, Note_on_c, 1, 66, 0
2, 27599, Note_on_c, 1, 69, 0
2, 27600, Note_on_c, 1, 74, 64
2, 27600, Note_on_c, 1, 67, 64
2, 27719, Note_on_c, 1, 67, 0
2, 27719, Note_on_c, 1, 74, 0
2, 27720, Note_on_c, 1, 72, 64
2, 27720, Note_on_c, 1, 69, 64
2, 27839, Note_on_c, 1, 72, 0
2, 27840, Note_on_c, 1, 70, 64
2, 27899, Note_on_c, 1, 69, 0
2, 27960, Note_on_c, 1, 67, 64
2, 28019, Note_on_c, 1, 70, 0
2, 28020, Note_on_c, 1, 72, 64
2, 28079, Note_on_c, 1, 72, 0
2, 28079, Note_on_c, 1, 67, 0
2, 28080, Note_on_c, 1, 74, 64
2, 28080, Note_on_c, 1, 66, 64
2, 28139, Note_on_c, 1, 66, 0
2, 28140, Note_on_c, 1, 67, 64
2, 28169, Note_on_c, 1, 67, 0
2, 28170, Note_on_c, 1, 69, 64
2, 28199, Note_on_c, 1, 69, 0
2, 28200, Note_on_c, 1, 70, 64
2, 28259, Note_on_c, 1, 74, 0
2, 28260, Note_on_c, 1, 76, 64
2, 28289, Note_on_c, 1, 76, 0
2, 28290, Note_on_c, 1, 74, 64
2, 28319, Note_on_c, 1, 74, 0
2, 28319, Note_on_c, 1, 70, 0
2, 28320, Note_on_c, 1, 73, 64
2, 28439, Note_on_c, 1, 73, 0
2, 28440, Note_on_c, 1, 74, 64
2, 28440, Note_on_c, 1, 65, 64
2, 28559, Note_on_c, 1, 65, 0
2, 28560, Note_on_c, 1, 67, 64
2, 28619, Note_on_c, 1, 74, 0
2, 28620, Note_on_c, 1, 72, 64
2, 28679, Note_on_c, 1, 72, 0
2, 28679, Note_on_c, 1, 67, 0
2, 28680, Note_on_c, 1, 70, 64
2, 28740, Note_on_c, 1, 64, 64
2, 28769, Note_on_c, 1, 64, 0
2, 28770, Note_on_c, 1, 62, 64
2, 28799, Note_on_c, 1, 62, 0
2, 28799, Note_on_c, 1, 70, 0
2, 28800, Note_on_c, 1, 69, 64
2, 28800, Note_on_c, 1, 61, 64
2, 28859, Note_on_c, 1, 61, 0
2, 28860, Note_on_c, 1, 59, 64
2, 28889, Note_on_c, 1, 59, 0
2, 28890, Note_on_c, 1, 61, 64
2, 28919, Note_on_c, 1, 61, 0
2, 28920, Note_on_c, 1, 62, 64
2, 28979, Note_on_c, 1, 69, 0
2, 28980, Note_on_c, 1, 70, 64
2, 29009, Note_on_c, 1, 70, 0
2, 29010, Note_on_c, 1, 69, 64
2, 29039, Note_on_c, 1, 69, 0
2, 29040, Note_on_c, 1, 67, 64
2, 29099, Note_on_c, 1, 62, 0
2, 29100, Note_on_c, 1, 61, 64
2, 29159, Note_on_c, 1, 61, 0
2, 29159, Note_on_c, 1, 67, 0
2, 29160, Note_on_c, 1, 62, 64
2, 29160, Note_on_c, 1, 65, 64
2, 29279, Note_on_c, 1, 65, 0
2, 29280, Note_on_c, 1, 64, 64
2, 29399, Note_on_c, 1, 62, 0
2, 29400, Note_on_c, 1, 62, 64
2, 29414, Note_on_c, 1, 62, 0
2, 29415, Note_on_c, 1, 61, 64
2, 29429, Note_on_c, 1, 61, 0
2, 29430, Note_on_c, 1, 62, 64
2, 29444, Note_on_c, 1, 62, 0
2, 29445, Note_on_c, 1, 61, 64
2, 29459, Note_on_c, 1, 61, 0
2, 29460, Note_on_c, 1, 62, 64
2, 29474, Note_on_c, 1, 62, 0
2, 29475, Note_on_c, 1, 61, 64
2, 29519, Note_on_c, 1, 61, 0
2, 29519, Note_on_c, 1, 64, 0
2, 29520, Note_on_c, 1, 62, 64
2, 29520, Note_on_c, 1, 57, 64
2, 30119, Note_on_c, 1, 57, 0
2, 30119, Note_on_c, 1, 62, 0
2, 30119, End_track
3, 0, Start_track
3, 0, Title_t, "Left Hand"
3, 510, Note_on_c, 1, 50, 64
3, 539, Note_on_c, 1, 50, 0
3, 540, Note_on_c, 1, 52, 64
3, 569, Note_on_c, 1, 52, 0
3, 570, Note_on_c, 1, 53, 64
3, 599, Note_on_c, 1, 53, 0
3, 600, Note_on_c, 1, 55, 64
3, 629, Note_on_c, 1, 55, 0
3, 630, Note_on_c, 1, 57, 64
3, 659, Note_on_c, 1, 57, 0
3, 660, Note_on_c, 1, 59, 64
3, 689, Note_on_c, 1, 59, 0
3, 690, Note_on_c, 1, 61, 64
3, 719, Note_on_c, 1, 61, 0
3, 720, Note_on_c, 1, 62, 64
3, 779, Note_on_c, 1, 62, 0
3, 780, Note_on_c, 1, 65, 64
3, 780, Note_on_c, 1, 57, 64
3, 839, Note_on_c, 1, 57, 0
3, 839, Note_on_c, 1, 65, 0
3, 840, Note_on_c, 1, 64, 64
3, 840, Note_on_c, 1, 55, 64
3, 899, Note_on_c, 1, 55, 0
3, 899, Note_on_c, 1, 64, 0
3, 900, Note_on_c, 1, 57, 64
3, 959, Note_on_c, 1, 57, 0
3, 960, Note_on_c, 1, 64, 64
3, 960, Note_on_c, 1, 57, 64
3, 960, Note_on_c, 1, 52, 64
3, 1079, Note_on_c, 1, 52, 0
3, 1079, Note_on_c, 1, 57, 0
3, 1079, Note_on_c, 1, 64, 0
3, 1110, Note_on_c, 1, 62, 64
3, 1139, Note_on_c, 1, 62, 0
3, 1140, Note_on_c, 1, 61, 64
3, 1169, Note_on_c, 1, 61, 0
3, 1170, Note_on_c, 1, 59, 64
3, 1199, Note_on_c, 1, 59, 0
3, 1200, Note_on_c, 1, 57, 64
3, 1229, Note_on_c, 1, 57, 0
3, 1260, Note_on_c, 1, 57, 64
3, 1319, Note_on_c, 1, 57, 0
3, 1320, Note_on_c, 1, 50, 64
3, 1379, Note_on_c, 1, 50, 0
3, 1380, Note_on_c, 1, 57, 64
3, 1409, Note_on_c, 1, 57, 0
3, 1440, Note_on_c, 1, 57, 64
3, 1559, Note_on_c, 1, 57, 0
3, 1560, Note_on_c, 1, 55, 64
3, 1620, Note_on_c, 1, 62, 64
3, 1679, Note_on_c, 1, 62, 0
3, 1679, Note_on_c, 1, 55, 0
3, 1680, Note_on_c, 1, 60, 64
3, 1680, Note_on_c, 1, 57, 64
3, 1739, Note_on_c, 1, 60, 0
3, 1799, Note_on_c, 1, 57, 0
3, 1800, Note_on_c, 1, 58, 64
3, 1860, Note_on_c, 1, 65, 64
3, 1919, Note_on_c, 1, 65, 0
3, 1919, Note_on_c, 1, 58, 0
3, 1920, Note_on_c, 1, 64, 64
3, 1950, Note_on_c, 1, 57, 64
3, 1979, Note_on_c, 1, 57, 0
3, 1980, Note_on_c, 1, 59, 64
3, 2009, Note_on_c, 1, 59, 0
3, 2010, Note_on_c, 1, 61, 64
3, 2039, Note_on_c, 1, 61, 0
3, 2039, Note_on_c, 1, 64, 0
3, 2040, Note_on_c, 1, 62, 64
3, 2069, Note_on_c, 1, 62, 0
3, 2220, Note_on_c, 1, 57, 64
3, 2249, Note_on_c, 1, 57, 0
3, 2280, Note_on_c, 1, 57, 64
3, 2309, Note_on_c, 1, 57, 0
3, 2340, Note_on_c, 1, 57, 64
3, 2340, Note_on_c, 1, 60, 64
3, 2399, Note_on_c, 1, 60, 0
3, 2519, Note_on_c, 1, 57, 0
3, 2520, Note_on_c, 1, 55, 64
3, 2639, Note_on_c, 1, 55, 0
3, 2640, Note_on_c, 1, 57, 64
3, 2759, Note_on_c, 1, 57, 0
3, 2760, Note_on_c, 1, 57, 64
3, 2880, Note_on_c, 1, 52, 64
3, 2939, Note_on_c, 1, 57, 0
3, 2999, Note_on_c, 1, 52, 0
3, 3000, Note_on_c, 1, 53, 64
3, 3000, Note_on_c, 1, 57, 64
3, 3059, Note_on_c, 1, 53, 0
3, 3060, Note_on_c, 1, 55, 64
3, 3119, Note_on_c, 1, 55, 0
3, 3119, Note_on_c, 1, 57, 0
3, 3120, Note_on_c, 1, 57, 64
3, 3299, Note_on_c, 1, 57, 0
3, 3300, Note_on_c, 1, 55, 64
3, 3359, Note_on_c, 1, 55, 0
3, 3360, Note_on_c, 1, 53, 64
3, 3360, Note_on_c, 1, 50, 64
3, 3479, Note_on_c, 1, 50, 0
3, 3479, Note_on_c, 1, 53, 0
3, 3630, Note_on_c, 1, 50, 64
3, 3659, Note_on_c, 1, 50, 0
3, 3660, Note_on_c, 1, 52, 64
3, 3689, Note_on_c, 1, 52, 0
3, 3690, Note_on_c, 1, 53, 64
3, 3719, Note_on_c, 1, 53, 0
3, 3720, Note_on_c, 1, 55, 64
3, 3749, Note_on_c, 1, 55, 0
3, 3750, Note_on_c, 1, 57, 64
3, 3779, Note_on_c, 1, 57, 0
3, 3780, Note_on_c, 1, 59, 64
3, 3809, Note_on_c, 1, 59, 0
3, 3810, Note_on_c, 1, 61, 64
3, 3839, Note_on_c, 1, 61, 0
3, 3840, Note_on_c, 1, 62, 64
3, 3869, Note_on_c, 1, 62, 0
3, 3870, Note_on_c, 1, 57, 64
3, 3899, Note_on_c, 1, 57, 0
3, 3900, Note_on_c, 1, 59, 64
3, 3929, Note_on_c, 1, 59, 0
3, 3930, Note_on_c, 1, 61, 64
3, 3959, Note_on_c, 1, 61, 0
3, 3960, Note_on_c, 1, 62, 64
3, 3989, Note_on_c, 1, 62, 0
3, 3990, Note_on_c, 1, 64, 64
3, 4019, Note_on_c, 1, 64, 0
3, 4020, Note_on_c, 1, 65, 64
3, 4049, Note_on_c, 1, 65, 0
3, 4050, Note_on_c, 1, 67, 64
3, 4079, Note_on_c, 1, 67, 0
3, 4080, Note_on_c, 1, 69, 64
3, 4109, Note_on_c, 1, 69, 0
3, 4110, Note_on_c, 1, 67, 64
3, 4139, Note_on_c, 1, 67, 0
3, 4140, Note_on_c, 1, 65, 64
3, 4169, Note_on_c, 1, 65, 0
3, 4170, Note_on_c, 1, 64, 64
3, 4199, Note_on_c, 1, 64, 0
3, 4200, Note_on_c, 1, 69, 64
3, 4229, Note_on_c, 1, 69, 0
3, 4230, Note_on_c, 1, 67, 64
3, 4259, Note_on_c, 1, 67, 0
3, 4260, Note_on_c, 1, 65, 64
3, 4289, Note_on_c, 1, 65, 0
3, 4290, Note_on_c, 1, 64, 64
3, 4319, Note_on_c, 1, 64, 0
3, 4320, Note_on_c, 1, 62, 64
3, 4349, Note_on_c, 1, 62, 0
3, 4350, Note_on_c, 1, 64, 64
3, 4379, Note_on_c, 1, 64, 0
3, 4380, Note_on_c, 1, 62, 64
3, 4409, Note_on_c, 1, 62, 0
3, 4410, Note_on_c, 1, 60, 64
3, 4439, Note_on_c, 1, 60, 0
3, 4440, Note_on_c, 1, 58, 64
3, 4469, Note_on_c, 1, 58, 0
3, 4470, Note_on_c, 1, 57, 64
3, 4499, Note_on_c, 1, 57, 0
3, 4500, Note_on_c, 1, 58, 64
3, 4529, Note_on_c, 1, 58, 0
3, 4530, Note_on_c, 1, 55, 64
3, 4559, Note_on_c, 1, 55, 0
3, 4560, Note_on_c, 1, 60, 64
3, 4589, Note_on_c, 1, 60, 0
3, 4590, Note_on_c, 1, 62, 64
3, 4619, Note_on_c, 1, 62, 0
3, 4620, Note_on_c, 1, 60, 64
3, 4649, Note_on_c, 1, 60, 0
3, 4650, Note_on_c, 1, 58, 64
3, 4679, Note_on_c, 1, 58, 0
3, 4680, Note_on_c, 1, 57, 64
3, 4709, Note_on_c, 1, 57, 0
3, 4710, Note_on_c, 1, 55, 64
3, 4739, Note_on_c, 1, 55, 0
3, 4740, Note_on_c, 1, 57, 64
3, 4769, Note_on_c, 1, 57, 0
3, 4770, Note_on_c, 1, 53, 64
3, 4799, Note_on_c, 1, 53, 0
3, 4800, Note_on_c, 1, 58, 64
3, 4829, Note_on_c, 1, 58, 0
3, 4830, Note_on_c, 1, 60, 64
3, 4859, Note_on_c, 1, 60, 0
3, 4860, Note_on_c, 1, 58, 64
3, 4889, Note_on_c, 1, 58, 0
3, 4890, Note_on_c, 1, 57, 64
3, 4919, Note_on_c, 1, 57, 0
3, 4920, Note_on_c, 1, 55, 64
3, 4949, Note_on_c, 1, 55, 0
3, 4950, Note_on_c, 1, 57, 64
3, 4979, Note_on_c, 1, 57, 0
3, 4980, Note_on_c, 1, 55, 64
3, 5009, Note_on_c, 1, 55, 0
3, 5010, Note_on_c, 1, 53, 64
3, 5039, Note_on_c, 1, 53, 0
3, 5040, Note_on_c, 1, 52, 64
3, 5069, Note_on_c, 1, 52, 0
3, 5070, Note_on_c, 1, 48, 64
3, 5099, Note_on_c, 1, 48, 0
3, 5100, Note_on_c, 1, 50, 64
3, 5129, Note_on_c, 1, 50, 0
3, 5130, Note_on_c, 1, 52, 64
3, 5159, Note_on_c, 1, 52, 0
3, 5160, Note_on_c, 1, 53, 64
3, 5189, Note_on_c, 1, 53, 0
3, 5190, Note_on_c, 1, 52, 64
3, 5219, Note_on_c, 1, 52, 0
3, 5220, Note_on_c, 1, 50, 64
3, 5249, Note_on_c, 1, 50, 0
3, 5250, Note_on_c, 1, 48, 64
3, 5279, Note_on_c, 1, 48, 0
3, 5280, Note_on_c, 1, 46, 64
3, 5399, Note_on_c, 1, 46, 0
3, 5460, Note_on_c, 1, 46, 64
3, 5519, Note_on_c, 1, 46, 0
3, 5520, Note_on_c, 1, 48, 64
3, 5549, Note_on_c, 1, 48, 0
3, 5550, Note_on_c, 1, 50, 64
3, 5579, Note_on_c, 1, 50, 0
3, 5580, Note_on_c, 1, 48, 64
3, 5609, Note_on_c, 1, 48, 0
3, 5610, Note_on_c, 1, 46, 64
3, 5639, Note_on_c, 1, 46, 0
3, 5640, Note_on_c, 1, 45, 64
3, 5669, Note_on_c, 1, 45, 0
3, 5670, Note_on_c, 1, 50, 64
3, 5699, Note_on_c, 1, 50, 0
3, 5700, Note_on_c, 1, 48, 64
3, 5729, Note_on_c, 1, 48, 0
3, 5730, Note_on_c, 1, 50, 64
3, 5759, Note_on_c, 1, 50, 0
3, 5760, Note_on_c, 1, 46, 64
3, 5789, Note_on_c, 1, 46, 0
3, 5790, Note_on_c, 1, 45, 64
3, 5819, Note_on_c, 1, 45, 0
3, 5820, Note_on_c, 1, 46, 64
3, 5849, Note_on_c, 1, 46, 0
3, 5850, Note_on_c, 1, 43, 64
3, 5879, Note_on_c, 1, 43, 0
3, 5880, Note_on_c, 1, 48, 64
3, 5939, Note_on_c, 1, 48, 0
3, 5940, Note_on_c, 1, 36, 64
3, 5999, Note_on_c, 1, 36, 0
3, 6000, Note_on_c, 1, 53, 64
3, 6059, Note_on_c, 1, 53, 0
3, 6060, Note_on_c, 1, 41, 64
3, 6119, Note_on_c, 1, 41, 0
3, 6240, Note_on_c, 1, 53, 64
3, 6240, Note_on_c, 1, 48, 64
3, 6299, Note_on_c, 1, 48, 0
3, 6299, Note_on_c, 1, 53, 0
3, 6360, Note_on_c, 1, 53, 64
3, 6360, Note_on_c, 1, 48, 64
3, 6419, Note_on_c, 1, 48, 0
3, 6419, Note_on_c, 1, 53, 0
3, 6480, Note_on_c, 1, 53, 64
3, 6480, Note_on_c, 1, 48, 64
3, 6539, Note_on_c, 1, 48, 0
3, 6539, Note_on_c, 1, 53, 0
3, 6600, Note_on_c, 1, 53, 64
3, 6600, Note_on_c, 1, 48, 64
3, 6659, Note_on_c, 1, 48, 0
3, 6659, Note_on_c, 1, 53, 0
3, 6720, Note_on_c, 1, 53, 64
3, 6779, Note_on_c, 1, 53, 0
3, 6780, Note_on_c, 1, 55, 64
3, 6780, Note_on_c, 1, 51, 64
3, 6839, Note_on_c, 1, 51, 0
3, 6839, Note_on_c, 1, 55, 0
3, 6840, Note_on_c, 1, 53, 64
3, 6899, Note_on_c, 1, 53, 0
3, 6900, Note_on_c, 1, 55, 64
3, 6900, Note_on_c, 1, 51, 64
3, 6959, Note_on_c, 1, 51, 0
3, 6959, Note_on_c, 1, 55, 0
3, 6990, Note_on_c, 1, 53, 64
3, 7019, Note_on_c, 1, 53, 0
3, 7020, Note_on_c, 1, 55, 64
3, 7049, Note_on_c, 1, 55, 0
3, 7050, Note_on_c, 1, 57, 64
3, 7079, Note_on_c, 1, 57, 0
3, 7080, Note_on_c, 1, 58, 64
3, 7139, Note_on_c, 1, 58, 0
3, 7140, Note_on_c, 1, 57, 64
3, 7199, Note_on_c, 1, 57, 0
3, 7200, Note_on_c, 1, 50, 64
3, 7200, Note_on_c, 1, 55, 64
3, 7244, Note_on_c, 1, 55, 0
3, 7259, Note_on_c, 1, 50, 0
3, 7320, Note_on_c, 1, 55, 64
3, 7320, Note_on_c, 1, 50, 64
3, 7379, Note_on_c, 1, 50, 0
3, 7379, Note_on_c, 1, 55, 0
3, 7440, Note_on_c, 1, 55, 64
3, 7440, Note_on_c, 1, 50, 64
3, 7499, Note_on_c, 1, 50, 0
3, 7499, Note_on_c, 1, 55, 0
3, 7560, Note_on_c, 1, 55, 64
3, 7560, Note_on_c, 1, 50, 64
3, 7619, Note_on_c, 1, 50, 0
3, 7619, Note_on_c, 1, 55, 0
3, 7680, Note_on_c, 1, 55, 64
3, 7739, Note_on_c, 1, 55, 0
3, 7740, Note_on_c, 1, 57, 64
3, 7740, Note_on_c, 1, 53, 64
3, 7799, Note_on_c, 1, 53, 0
3, 7799, Note_on_c, 1, 57, 0
3, 7800, Note_on_c, 1, 55, 64
3, 7859, Note_on_c, 1, 55, 0
3, 7860, Note_on_c, 1, 57, 64
3, 7860, Note_on_c, 1, 53, 64
3, 7919, Note_on_c, 1, 53, 0
3, 7919, Note_on_c, 1, 57, 0
3, 7950, Note_on_c, 1, 55, 64
3, 7979, Note_on_c, 1, 55, 0
3, 7980, Note_on_c, 1, 57, 64
3, 8009, Note_on_c, 1, 57, 0
3, 8010, Note_on_c, 1, 59, 64
3, 8039, Note_on_c, 1, 59, 0
3, 8040, Note_on_c, 1, 60, 64
3, 8099, Note_on_c, 1, 60, 0
3, 8100, Note_on_c, 1, 59, 64
3, 8159, Note_on_c, 1, 59, 0
3, 8160, Note_on_c, 1, 52, 64
3, 8160, Note_on_c, 1, 57, 64
3, 8219, Note_on_c, 1, 57, 0
3, 8219, Note_on_c, 1, 52, 0
3, 8280, Note_on_c, 1, 57, 64
3, 8280, Note_on_c, 1, 52, 64
3, 8339, Note_on_c, 1, 52, 0
3, 8339, Note_on_c, 1, 57, 0
3, 8400, Note_on_c, 1, 57, 64
3, 8400, Note_on_c, 1, 52, 64
3, 8459, Note_on_c, 1, 52, 0
3, 8459, Note_on_c, 1, 57, 0
3, 8520, Note_on_c, 1, 57, 64
3, 8520, Note_on_c, 1, 52, 64
3, 8579, Note_on_c, 1, 52, 0
3, 8579, Note_on_c, 1, 57, 0
3, 8640, Note_on_c, 1, 57, 64
3, 8699, Note_on_c, 1, 57, 0
3, 8700, Note_on_c, 1, 58, 64
3, 8700, Note_on_c, 1, 55, 64
3, 8759, Note_on_c, 1, 55, 0
3, 8759, Note_on_c, 1, 58, 0
3, 8760, Note_on_c, 1, 57, 64
3, 8819, Note_on_c, 1, 57, 0
3, 8820, Note_on_c, 1, 58, 64
3, 8820, Note_on_c, 1, 55, 64
3, 8879, Note_on_c, 1, 55, 0
3, 8879, Note_on_c, 1, 58, 0
3, 8880, Note_on_c, 1, 57, 64
3, 8909, Note_on_c, 1, 57, 0
3, 8940, Note_on_c, 1, 57, 64
3, 8999, Note_on_c, 1, 57, 0
3, 9000, Note_on_c, 1, 55, 64
3, 9059, Note_on_c, 1, 55, 0
3, 9060, Note_on_c, 1, 54, 64
3, 9119, Note_on_c, 1, 54, 0
3, 9120, Note_on_c, 1, 55, 64
3, 9120, Note_on_c, 1, 50, 64
3, 9239, Note_on_c, 1, 50, 0
3, 9239, Note_on_c, 1, 55, 0
3, 9360, Note_on_c, 1, 55, 64
3, 9389, Note_on_c, 1, 55, 0
3, 9420, Note_on_c, 1, 55, 64
3, 9479, Note_on_c, 1, 55, 0
3, 9480, Note_on_c, 1, 53, 64
3, 9539, Note_on_c, 1, 53, 0
3, 9540, Note_on_c, 1, 52, 64
3, 9599, Note_on_c, 1, 52, 0
3, 9600, Note_on_c, 1, 53, 64
3, 9600, Note_on_c, 1, 48, 64
3, 9719, Note_on_c, 1, 48, 0
3, 9719, Note_on_c, 1, 53, 0
3, 9900, Note_on_c, 1, 65, 64
3, 9900, Note_on_c, 1, 58, 64
3, 9929, Note_on_c, 1, 58, 0
3, 9929, Note_on_c, 1, 65, 0
3, 9960, Note_on_c, 1, 65, 64
3, 9960, Note_on_c, 1, 58, 64
3, 9989, Note_on_c, 1, 58, 0
3, 9989, Note_on_c, 1, 65, 0
3, 10020, Note_on_c, 1, 65, 64
3, 10020, Note_on_c, 1, 58, 64
3, 10079, Note_on_c, 1, 58, 0
3, 10079, Note_on_c, 1, 65, 0
3, 10080, Note_on_c, 1, 57, 64
3, 10140, Note_on_c, 1, 60, 64
3, 10199, Note_on_c, 1, 60, 0
3, 10200, Note_on_c, 1, 65, 64
3, 10229, Note_on_c, 1, 57, 0
3, 10260, Note_on_c, 1, 57, 64
3, 10319, Note_on_c, 1, 57, 0
3, 10320, Note_on_c, 1, 55, 64
3, 10379, Note_on_c, 1, 65, 0
3, 10380, Note_on_c, 1, 58, 64
3, 10439, Note_on_c, 1, 58, 0
3, 10440, Note_on_c, 1, 64, 64
3, 10469, Note_on_c, 1, 55, 0
3, 10500, Note_on_c, 1, 55, 64
3, 10559, Note_on_c, 1, 55, 0
3, 10560, Note_on_c, 1, 53, 64
3, 10619, Note_on_c, 1, 64, 0
3, 10620, Note_on_c, 1, 57, 64
3, 10679, Note_on_c, 1, 57, 0
3, 10680, Note_on_c, 1, 62, 64
3, 10709, Note_on_c, 1, 53, 0
3, 10740, Note_on_c, 1, 53, 64
3, 10799, Note_on_c, 1, 53, 0
3, 10800, Note_on_c, 1, 52, 64
3, 10859, Note_on_c, 1, 62, 0
3, 10860, Note_on_c, 1, 55, 64
3, 10919, Note_on_c, 1, 55, 0
3, 10920, Note_on_c, 1, 61, 64
3, 10949, Note_on_c, 1, 52, 0
3, 10980, Note_on_c, 1, 52, 64
3, 11039, Note_on_c, 1, 52, 0
3, 11039, Note_on_c, 1, 61, 0
3, 11040, Note_on_c, 1, 50, 64
3, 11040, Note_on_c, 1, 57, 64
3, 11070, Note_on_c, 1, 50, 64
3, 11099, Note_on_c, 1, 50, 0
3, 11100, Note_on_c, 1, 52, 64
3, 11129, Note_on_c, 1, 52, 0
3, 11130, Note_on_c, 1, 53, 64
3, 11159, Note_on_c, 1, 53, 0
3, 11159, Note_on_c, 1, 57, 0
3, 11159, Note_on_c, 1, 50, 0
3, 11160, Note_on_c, 1, 55, 64
3, 11189, Note_on_c, 1, 55, 0
3, 11310, Note_on_c, 1, 57, 64
3, 11339, Note_on_c, 1, 57, 0
3, 11340, Note_on_c, 1, 59, 64
3, 11369, Note_on_c, 1, 59, 0
3, 11370, Note_on_c, 1, 61, 64
3, 11399, Note_on_c, 1, 61, 0
3, 11400, Note_on_c, 1, 62, 64
3, 11429, Note_on_c, 1, 62, 0
3, 11550, Note_on_c, 1, 62, 64
3, 11579, Note_on_c, 1, 62, 0
3, 11580, Note_on_c, 1, 64, 64
3, 11609, Note_on_c, 1, 64, 0
3, 11610, Note_on_c, 1, 65, 64
3, 11639, Note_on_c, 1, 65, 0
3, 11640, Note_on_c, 1, 67, 64
3, 11669, Note_on_c, 1, 67, 0
3, 11820, Note_on_c, 1, 65, 64
3, 11879, Note_on_c, 1, 65, 0
3, 11880, Note_on_c, 1, 67, 64
3, 11909, Note_on_c, 1, 67, 0
3, 11910, Note_on_c, 1, 65, 64
3, 11939, Note_on_c, 1, 65, 0
3, 11940, Note_on_c, 1, 67, 64
3, 11969, Note_on_c, 1, 67, 0
3, 11970, Note_on_c, 1, 73, 64
3, 11970, Note_on_c, 1, 64, 64
3, 11999, Note_on_c, 1, 64, 0
3, 11999, Note_on_c, 1, 73, 0
3, 12030, Note_on_c, 1, 50, 64
3, 12059, Note_on_c, 1, 50, 0
3, 12060, Note_on_c, 1, 52, 64
3, 12089, Note_on_c, 1, 52, 0
3, 12090, Note_on_c, 1, 53, 64
3, 12119, Note_on_c, 1, 53, 0
3, 12120, Note_on_c, 1, 55, 64
3, 12149, Note_on_c, 1, 55, 0
3, 12150, Note_on_c, 1, 57, 64
3, 12179, Note_on_c, 1, 57, 0
3, 12180, Note_on_c, 1, 59, 64
3, 12209, Note_on_c, 1, 59, 0
3, 12210, Note_on_c, 1, 61, 64
3, 12239, Note_on_c, 1, 61, 0
3, 12240, Note_on_c, 1, 62, 64
3, 12299, Note_on_c, 1, 62, 0
3, 12300, Note_on_c, 1, 57, 64
3, 12300, Note_on_c, 1, 65, 64
3, 12359, Note_on_c, 1, 65, 0
3, 12359, Note_on_c, 1, 57, 0
3, 12360, Note_on_c, 1, 64, 64
3, 12360, Note_on_c, 1, 55, 64
3, 12419, Note_on_c, 1, 55, 0
3, 12419, Note_on_c, 1, 64, 0
3, 12420, Note_on_c, 1, 57, 64
3, 12479, Note_on_c, 1, 57, 0
3, 12480, Note_on_c, 1, 64, 64
3, 12480, Note_on_c, 1, 57, 64
3, 12480, Note_on_c, 1, 52, 64
3, 12599, Note_on_c, 1, 52, 0
3, 12599, Note_on_c, 1, 57, 0
3, 12599, Note_on_c, 1, 64, 0
3, 12630, Note_on_c, 1, 62, 64
3, 12659, Note_on_c, 1, 62, 0
3, 12660, Note_on_c, 1, 61, 64
3, 12689, Note_on_c, 1, 61, 0
3, 12690, Note_on_c, 1, 59, 64
3, 12719, Note_on_c, 1, 59, 0
3, 12720, Note_on_c, 1, 57, 64
3, 12734, Note_on_c, 1, 57, 0
3, 12780, Note_on_c, 1, 57, 64
3, 12839, Note_on_c, 1, 57, 0
3, 12840, Note_on_c, 1, 50, 64
3, 12899, Note_on_c, 1, 50, 0
3, 12900, Note_on_c, 1, 57, 64
3, 12929, Note_on_c, 1, 57, 0
3, 12960, Note_on_c, 1, 57, 64
3, 13079, Note_on_c, 1, 57, 0
3, 13080, Note_on_c, 1, 55, 64
3, 13140, Note_on_c, 1, 62, 64
3, 13199, Note_on_c, 1, 62, 0
3, 13199, Note_on_c, 1, 55, 0
3, 13200, Note_on_c, 1, 60, 64
3, 13200, Note_on_c, 1, 57, 64
3, 13259, Note_on_c, 1, 60, 0
3, 13319, Note_on_c, 1, 57, 0
3, 13320, Note_on_c, 1, 58, 64
3, 13380, Note_on_c, 1, 65, 64
3, 13439, Note_on_c, 1, 65, 0
3, 13439, Note_on_c, 1, 58, 0
3, 13440, Note_on_c, 1, 64, 64
3, 13470, Note_on_c, 1, 57, 64
3, 13499, Note_on_c, 1, 57, 0
3, 13500, Note_on_c, 1, 59, 64
3, 13529, Note_on_c, 1, 59, 0
3, 13530, Note_on_c, 1, 61, 64
3, 13559, Note_on_c, 1, 61, 0
3, 13559, Note_on_c, 1, 64, 0
3, 13560, Note_on_c, 1, 62, 64
3, 13589, Note_on_c, 1, 62, 0
3, 13740, Note_on_c, 1, 57, 64
3, 13769, Note_on_c, 1, 57, 0
3, 13800, Note_on_c, 1, 57, 64
3, 13829, Note_on_c, 1, 57, 0
3, 13860, Note_on_c, 1, 60, 64
3, 13860, Note_on_c, 1, 57, 64
3, 13919, Note_on_c, 1, 60, 0
3, 14039, Note_on_c, 1, 57, 0
3, 14040, Note_on_c, 1, 55, 64
3, 14159, Note_on_c, 1, 55, 0
3, 14160, Note_on_c, 1, 57, 64
3, 14279, Note_on_c, 1, 57, 0
3, 14280, Note_on_c, 1, 57, 64
3, 14400, Note_on_c, 1, 52, 64
3, 14459, Note_on_c, 1, 57, 0
3, 14519, Note_on_c, 1, 52, 0
3, 14520, Note_on_c, 1, 57, 64
3, 14520, Note_on_c, 1, 53, 64
3, 14579, Note_on_c, 1, 53, 0
3, 14580, Note_on_c, 1, 55, 64
3, 14639, Note_on_c, 1, 55, 0
3, 14639, Note_on_c, 1, 57, 0
3, 14640, Note_on_c, 1, 57, 64
3, 14819, Note_on_c, 1, 57, 0
3, 14820, Note_on_c, 1, 55, 64
3, 14879, Note_on_c, 1, 55, 0
3, 14880, Note_on_c, 1, 50, 64
3, 14880, Note_on_c, 1, 53, 64
3, 14999, Note_on_c, 1, 53, 0
3, 14999, Note_on_c, 1, 50, 0
3, 16260, Note_on_c, 1, 62, 64
3, 16319, Note_on_c, 1, 62, 0
3, 16320, Note_on_c, 1, 60, 64
3, 16379, Note_on_c, 1, 60, 0
3, 16380, Note_on_c, 1, 64, 64
3, 16439, Note_on_c, 1, 64, 0
3, 16440, Note_on_c, 1, 59, 64
3, 16499, Note_on_c, 1, 59, 0
3, 16500, Note_on_c, 1, 64, 64
3, 16559, Note_on_c, 1, 64, 0
3, 16560, Note_on_c, 1, 57, 64
3, 16619, Note_on_c, 1, 57, 0
3, 16620, Note_on_c, 1, 60, 64
3, 16679, Note_on_c, 1, 60, 0
3, 16680, Note_on_c, 1, 65, 64
3, 16799, Note_on_c, 1, 65, 0
3, 16800, Note_on_c, 1, 64, 64
3, 16859, Note_on_c, 1, 64, 0
3, 16860, Note_on_c, 1, 66, 64
3, 16889, Note_on_c, 1, 66, 0
3, 16890, Note_on_c, 1, 68, 64
3, 16919, Note_on_c, 1, 68, 0
3, 16920, Note_on_c, 1, 69, 64
3, 17099, Note_on_c, 1, 69, 0
3, 17100, Note_on_c, 1, 68, 64
3, 17129, Note_on_c, 1, 68, 0
3, 17130, Note_on_c, 1, 66, 64
3, 17159, Note_on_c, 1, 66, 0
3, 17160, Note_on_c, 1, 64, 64
3, 17219, Note_on_c, 1, 64, 0
3, 17220, Note_on_c, 1, 62, 64
3, 17279, Note_on_c, 1, 62, 0
3, 17280, Note_on_c, 1, 61, 64
3, 17339, Note_on_c, 1, 61, 0
3, 17340, Note_on_c, 1, 57, 64
3, 17399, Note_on_c, 1, 57, 0
3, 17460, Note_on_c, 1, 57, 64
3, 17519, Note_on_c, 1, 57, 0
3, 17520, Note_on_c, 1, 53, 64
3, 17579, Note_on_c, 1, 53, 0
3, 17580, Note_on_c, 1, 57, 64
3, 17639, Note_on_c, 1, 57, 0
3, 17640, Note_on_c, 1, 52, 64
3, 17699, Note_on_c, 1, 52, 0
3, 17700, Note_on_c, 1, 57, 64
3, 17759, Note_on_c, 1, 57, 0
3, 17760, Note_on_c, 1, 50, 64
3, 17819, Note_on_c, 1, 50, 0
3, 17820, Note_on_c, 1, 53, 64
3, 17879, Note_on_c, 1, 53, 0
3, 17880, Note_on_c, 1, 58, 64
3, 17999, Note_on_c, 1, 58, 0
3, 18000, Note_on_c, 1, 57, 64
3, 18059, Note_on_c, 1, 57, 0
3, 18060, Note_on_c, 1, 59, 64
3, 18089, Note_on_c, 1, 59, 0
3, 18090, Note_on_c, 1, 61, 64
3, 18119, Note_on_c, 1, 61, 0
3, 18120, Note_on_c, 1, 62, 64
3, 18299, Note_on_c, 1, 62, 0
3, 18300, Note_on_c, 1, 61, 64
3, 18329, Note_on_c, 1, 61, 0
3, 18330, Note_on_c, 1, 59, 64
3, 18359, Note_on_c, 1, 59, 0
3, 18360, Note_on_c, 1, 57, 64
3, 18419, Note_on_c, 1, 57, 0
3, 18420, Note_on_c, 1, 55, 64
3, 18479, Note_on_c, 1, 55, 0
3, 18480, Note_on_c, 1, 53, 64
3, 18539, Note_on_c, 1, 53, 0
3, 18540, Note_on_c, 1, 57, 64
3, 18599, Note_on_c, 1, 57, 0
3, 18600, Note_on_c, 1, 62, 64
3, 18600, Note_on_c, 1, 65, 64
3, 18629, Note_on_c, 1, 65, 0
3, 18659, Note_on_c, 1, 62, 0
3, 18660, Note_on_c, 1, 57, 64
3, 18689, Note_on_c, 1, 57, 0
3, 18720, Note_on_c, 1, 57, 64
3, 18839, Note_on_c, 1, 57, 0
3, 18840, Note_on_c, 1, 56, 64
3, 18959, Note_on_c, 1, 56, 0
3, 18960, Note_on_c, 1, 57, 64
3, 19020, Note_on_c, 1, 64, 64
3, 19079, Note_on_c, 1, 64, 0
3, 19079, Note_on_c, 1, 57, 0
3, 19080, Note_on_c, 1, 57, 64
3, 19139, Note_on_c, 1, 57, 0
3, 19140, Note_on_c, 1, 59, 64
3, 19199, Note_on_c, 1, 59, 0
3, 19200, Note_on_c, 1, 60, 64
3, 19379, Note_on_c, 1, 60, 0
3, 19380, Note_on_c, 1, 62, 64
3, 19409, Note_on_c, 1, 62, 0
3, 19410, Note_on_c, 1, 60, 64
3, 19439, Note_on_c, 1, 60, 0
3, 19440, Note_on_c, 1, 66, 64
3, 19440, Note_on_c, 1, 59, 64
3, 19499, Note_on_c, 1, 59, 0
3, 19559, Note_on_c, 1, 66, 0
3, 19560, Note_on_c, 1, 59, 64
3, 19679, Note_on_c, 1, 59, 0
3, 19680, Note_on_c, 1, 57, 64
3, 19800, Note_on_c, 1, 64, 64
3, 19919, Note_on_c, 1, 64, 0
3, 20039, Note_on_c, 1, 57, 0
3, 20040, Note_on_c, 1, 64, 64
3, 20040, Note_on_c, 1, 56, 64
3, 20099, Note_on_c, 1, 64, 0
3, 20159, Note_on_c, 1, 56, 0
3, 20160, Note_on_c, 1, 64, 64
3, 20160, Note_on_c, 1, 57, 64
3, 20279, Note_on_c, 1, 57, 0
3, 20279, Note_on_c, 1, 64, 0
3, 20280, Note_on_c, 1, 64, 64
3, 20280, Note_on_c, 1, 56, 64
3, 20339, Note_on_c, 1, 64, 0
3, 20399, Note_on_c, 1, 56, 0
3, 20400, Note_on_c, 1, 64, 64
3, 20400, Note_on_c, 1, 60, 64
3, 20519, Note_on_c, 1, 60, 0
3, 20519, Note_on_c, 1, 64, 0
3, 20580, Note_on_c, 1, 57, 64
3, 20639, Note_on_c, 1, 57, 0
3, 20640, Note_on_c, 1, 59, 64
3, 20699, Note_on_c, 1, 59, 0
3, 20700, Note_on_c, 1, 55, 64
3, 20759, Note_on_c, 1, 55, 0
3, 20760, Note_on_c, 1, 60, 64
3, 20819, Note_on_c, 1, 60, 0
3, 20820, Note_on_c, 1, 48, 64
3, 20879, Note_on_c, 1, 48, 0
3, 20880, Note_on_c, 1, 53, 64
3, 21000, Note_on_c, 1, 57, 64
3, 21119, Note_on_c, 1, 57, 0
3, 21120, Note_on_c, 1, 62, 64
3, 21239, Note_on_c, 1, 62, 0
3, 21239, Note_on_c, 1, 53, 0
3, 21240, Note_on_c, 1, 52, 64
3, 21299, Note_on_c, 1, 52, 0
3, 21300, Note_on_c, 1, 50, 64
3, 21329, Note_on_c, 1, 50, 0
3, 21330, Note_on_c, 1, 48, 64
3, 21359, Note_on_c, 1, 48, 0
3, 21360, Note_on_c, 1, 55, 64
3, 21419, Note_on_c, 1, 55, 0
3, 21420, Note_on_c, 1, 53, 64
3, 21479, Note_on_c, 1, 53, 0
3, 21480, Note_on_c, 1, 55, 64
3, 21539, Note_on_c, 1, 55, 0
3, 21540, Note_on_c, 1, 43, 64
3, 21599, Note_on_c, 1, 43, 0
3, 21600, Note_on_c, 1, 48, 64
3, 21659, Note_on_c, 1, 48, 0
3, 21660, Note_on_c, 1, 52, 64
3, 21719, Note_on_c, 1, 52, 0
3, 21720, Note_on_c, 1, 55, 64
3, 21809, Note_on_c, 1, 55, 0
3, 21810, Note_on_c, 1, 53, 64
3, 21839, Note_on_c, 1, 53, 0
3, 21840, Note_on_c, 1, 52, 64
3, 21899, Note_on_c, 1, 52, 0
3, 21900, Note_on_c, 1, 48, 64
3, 21959, Note_on_c, 1, 48, 0
3, 21960, Note_on_c, 1, 53, 64
3, 22079, Note_on_c, 1, 53, 0
3, 22080, Note_on_c, 1, 52, 64
3, 22139, Note_on_c, 1, 52, 0
3, 22140, Note_on_c, 1, 53, 64
3, 22169, Note_on_c, 1, 53, 0
3, 22170, Note_on_c, 1, 55, 64
3, 22199, Note_on_c, 1, 55, 0
3, 22200, Note_on_c, 1, 57, 64
3, 22259, Note_on_c, 1, 57, 0
3, 22260, Note_on_c, 1, 52, 64
3, 22319, Note_on_c, 1, 52, 0
3, 22320, Note_on_c, 1, 53, 64
3, 22379, Note_on_c, 1, 53, 0
3, 22380, Note_on_c, 1, 50, 64
3, 22439, Note_on_c, 1, 50, 0
3, 22440, Note_on_c, 1, 59, 64
3, 22469, Note_on_c, 1, 59, 0
3, 22470, Note_on_c, 1, 57, 64
3, 22499, Note_on_c, 1, 57, 0
3, 22500, Note_on_c, 1, 59, 64
3, 22529, Note_on_c, 1, 59, 0
3, 22530, Note_on_c, 1, 55, 64
3, 22559, Note_on_c, 1, 55, 0
3, 22560, Note_on_c, 1, 60, 64
3, 22679, Note_on_c, 1, 60, 0
3, 22740, Note_on_c, 1, 64, 64
3, 22740, Note_on_c, 1, 61, 64
3, 22799, Note_on_c, 1, 61, 0
3, 22799, Note_on_c, 1, 64, 0
3, 22800, Note_on_c, 1, 62, 64
3, 22800, Note_on_c, 1, 65, 64
3, 22829, Note_on_c, 1, 65, 0
3, 22920, Note_on_c, 1, 65, 64
3, 22949, Note_on_c, 1, 65, 0
3, 22949, Note_on_c, 1, 62, 0
3, 22950, Note_on_c, 1, 60, 64
3, 22979, Note_on_c, 1, 60, 0
3, 22980, Note_on_c, 1, 62, 64
3, 23009, Note_on_c, 1, 62, 0
3, 23010, Note_on_c, 1, 58, 64
3, 23039, Note_on_c, 1, 58, 0
3, 23040, Note_on_c, 1, 60, 64
3, 23099, Note_on_c, 1, 60, 0
3, 23100, Note_on_c, 1, 62, 64
3, 23159, Note_on_c, 1, 62, 0
3, 23160, Note_on_c, 1, 58, 64
3, 23219, Note_on_c, 1, 58, 0
3, 23220, Note_on_c, 1, 60, 64
3, 23249, Note_on_c, 1, 60, 0
3, 23280, Note_on_c, 1, 60, 64
3, 23399, Note_on_c, 1, 60, 0
3, 23400, Note_on_c, 1, 58, 64
3, 23459, Note_on_c, 1, 58, 0
3, 23460, Note_on_c, 1, 60, 64
3, 23489, Note_on_c, 1, 60, 0
3, 23520, Note_on_c, 1, 60, 64
3, 23639, Note_on_c, 1, 60, 0
3, 23640, Note_on_c, 1, 53, 64
3, 23699, Note_on_c, 1, 53, 0
3, 23700, Note_on_c, 1, 55, 64
3, 23759, Note_on_c, 1, 55, 0
3, 23760, Note_on_c, 1, 64, 64
3, 23760, Note_on_c, 1, 57, 64
3, 23819, Note_on_c, 1, 64, 0
3, 23939, Note_on_c, 1, 57, 0
3, 23940, Note_on_c, 1, 59, 64
3, 23969, Note_on_c, 1, 59, 0
3, 23970, Note_on_c, 1, 57, 64
3, 23999, Note_on_c, 1, 57, 0
3, 24000, Note_on_c, 1, 62, 64
3, 24000, Note_on_c, 1, 55, 64
3, 24059, Note_on_c, 1, 55, 0
3, 24119, Note_on_c, 1, 62, 0
3, 24120, Note_on_c, 1, 55, 64
3, 24239, Note_on_c, 1, 55, 0
3, 24240, Note_on_c, 1, 57, 64
3, 24299, Note_on_c, 1, 57, 0
3, 24300, Note_on_c, 1, 55, 64
3, 24329, Note_on_c, 1, 55, 0
3, 24330, Note_on_c, 1, 53, 64
3, 24359, Note_on_c, 1, 53, 0
3, 24360, Note_on_c, 1, 52, 64
3, 24419, Note_on_c, 1, 52, 0
3, 24420, Note_on_c, 1, 55, 64
3, 24449, Note_on_c, 1, 55, 0
3, 24480, Note_on_c, 1, 55, 64
3, 24539, Note_on_c, 1, 55, 0
3, 24600, Note_on_c, 1, 55, 64
3, 24659, Note_on_c, 1, 55, 0
3, 24720, Note_on_c, 1, 55, 64
3, 24839, Note_on_c, 1, 55, 0
3, 24900, Note_on_c, 1, 60, 64
3, 24959, Note_on_c, 1, 60, 0
3, 24960, Note_on_c, 1, 57, 64
3, 25019, Note_on_c, 1, 57, 0
3, 25020, Note_on_c, 1, 60, 64
3, 25079, Note_on_c, 1, 60, 0
3, 25080, Note_on_c, 1, 55, 64
3, 25139, Note_on_c, 1, 55, 0
3, 25140, Note_on_c, 1, 60, 64
3, 25199, Note_on_c, 1, 60, 0
3, 25200, Note_on_c, 1, 57, 64
3, 25259, Note_on_c, 1, 57, 0
3, 25260, Note_on_c, 1, 60, 64
3, 25319, Note_on_c, 1, 60, 0
3, 25320, Note_on_c, 1, 53, 64
3, 25379, Note_on_c, 1, 53, 0
3, 25380, Note_on_c, 1, 62, 64
3, 25380, Note_on_c, 1, 57, 64
3, 25380, Note_on_c, 1, 54, 64
3, 25409, Note_on_c, 1, 54, 0
3, 25409, Note_on_c, 1, 57, 0
3, 25409, Note_on_c, 1, 62, 0
3, 25440, Note_on_c, 1, 62, 64
3, 25440, Note_on_c, 1, 55, 64
3, 25499, Note_on_c, 1, 55, 0
3, 25499, Note_on_c, 1, 62, 0
3, 25560, Note_on_c, 1, 62, 64
3, 25560, Note_on_c, 1, 57, 64
3, 25560, Note_on_c, 1, 54, 64
3, 25619, Note_on_c, 1, 54, 0
3, 25619, Note_on_c, 1, 57, 0
3, 25619, Note_on_c, 1, 62, 0
3, 25680, Note_on_c, 1, 62, 64
3, 25680, Note_on_c, 1, 55, 64
3, 25799, Note_on_c, 1, 55, 0
3, 25799, Note_on_c, 1, 62, 0
3, 25860, Note_on_c, 1, 64, 64
3, 25860, Note_on_c, 1, 58, 64
3, 25860, Note_on_c, 1, 55, 64
3, 25919, Note_on_c, 1, 55, 0
3, 25919, Note_on_c, 1, 58, 0
3, 25919, Note_on_c, 1, 64, 0
3, 25920, Note_on_c, 1, 64, 64
3, 25920, Note_on_c, 1, 57, 64
3, 25979, Note_on_c, 1, 57, 0
3, 25979, Note_on_c, 1, 64, 0
3, 26040, Note_on_c, 1, 64, 64
3, 26040, Note_on_c, 1, 59, 64
3, 26040, Note_on_c, 1, 56, 64
3, 26099, Note_on_c, 1, 56, 0
3, 26099, Note_on_c, 1, 59, 0
3, 26099, Note_on_c, 1, 64, 0
3, 26160, Note_on_c, 1, 64, 64
3, 26160, Note_on_c, 1, 57, 64
3, 26279, Note_on_c, 1, 57, 0
3, 26279, Note_on_c, 1, 64, 0
3, 26340, Note_on_c, 1, 64, 64
3, 26340, Note_on_c, 1, 57, 64
3, 26369, Note_on_c, 1, 57, 0
3, 26369, Note_on_c, 1, 64, 0
3, 26400, Note_on_c, 1, 62, 64
3, 26400, Note_on_c, 1, 57, 64
3, 26459, Note_on_c, 1, 57, 0
3, 26459, Note_on_c, 1, 62, 0
3, 26520, Note_on_c, 1, 64, 64
3, 26520, Note_on_c, 1, 57, 64
3, 26579, Note_on_c, 1, 57, 0
3, 26579, Note_on_c, 1, 64, 0
3, 26640, Note_on_c, 1, 62, 64
3, 26640, Note_on_c, 1, 57, 64
3, 26699, Note_on_c, 1, 62, 0
3, 26700, Note_on_c, 1, 65, 64
3, 26759, Note_on_c, 1, 65, 0
3, 26759, Note_on_c, 1, 57, 0
3, 26760, Note_on_c, 1, 55, 64
3, 26879, Note_on_c, 1, 55, 0
3, 26880, Note_on_c, 1, 57, 64
3, 26939, Note_on_c, 1, 57, 0
3, 27000, Note_on_c, 1, 57, 64
3, 27059, Note_on_c, 1, 57, 0
3, 27120, Note_on_c, 1, 57, 64
3, 27240, Note_on_c, 1, 61, 64
3, 27359, Note_on_c, 1, 61, 0
3, 27360, Note_on_c, 1, 62, 64
3, 27419, Note_on_c, 1, 62, 0
3, 27420, Note_on_c, 1, 61, 64
3, 27449, Note_on_c, 1, 61, 0
3, 27450, Note_on_c, 1, 58, 64
3, 27479, Note_on_c, 1, 58, 0
3, 27479, Note_on_c, 1, 57, 0
3, 27480, Note_on_c, 1, 57, 64
3, 27599, Note_on_c, 1, 57, 0
3, 27600, Note_on_c, 1, 55, 64
3, 27719, Note_on_c, 1, 55, 0
3, 27720, Note_on_c, 1, 54, 64
3, 27839, Note_on_c, 1, 54, 0
3, 27840, Note_on_c, 1, 55, 64
3, 27900, Note_on_c, 1, 62, 64
3, 27959, Note_on_c, 1, 62, 0
3, 28019, Note_on_c, 1, 55, 0
3, 28020, Note_on_c, 1, 57, 64
3, 28079, Note_on_c, 1, 57, 0
3, 28080, Note_on_c, 1, 58, 64
3, 28259, Note_on_c, 1, 58, 0
3, 28260, Note_on_c, 1, 60, 64
3, 28289, Note_on_c, 1, 60, 0
3, 28290, Note_on_c, 1, 58, 64
3, 28319, Note_on_c, 1, 58, 0
3, 28320, Note_on_c, 1, 57, 64
3, 28320, Note_on_c, 1, 64, 64
3, 28439, Note_on_c, 1, 64, 0
3, 28559, Note_on_c, 1, 57, 0
3, 28560, Note_on_c, 1, 55, 64
3, 28680, Note_on_c, 1, 62, 64
3, 28739, Note_on_c, 1, 62, 0
3, 28919, Note_on_c, 1, 55, 0
3, 28920, Note_on_c, 1, 53, 64
3, 28979, Note_on_c, 1, 53, 0
3, 28980, Note_on_c, 1, 55, 64
3, 29009, Note_on_c, 1, 55, 0
3, 29010, Note_on_c, 1, 53, 64
3, 29039, Note_on_c, 1, 53, 0
3, 29040, Note_on_c, 1, 52, 64
3, 29159, Note_on_c, 1, 52, 0
3, 29160, Note_on_c, 1, 53, 64
3, 29219, Note_on_c, 1, 53, 0
3, 29220, Note_on_c, 1, 55, 64
3, 29279, Note_on_c, 1, 55, 0
3, 29280, Note_on_c, 1, 57, 64
3, 29459, Note_on_c, 1, 57, 0
3, 29460, Note_on_c, 1, 55, 64
3, 29519, Note_on_c, 1, 55, 0
3, 29520, Note_on_c, 1, 50, 64
3, 29520, Note_on_c, 1, 53, 64
3, 30119, Note_on_c, 1, 53, 0
3, 30119, Note_on_c, 1, 50, 0
3, 30119, End_track
4, 0, Start_track
4, 0, Title_t, "Pedal"
4, 480, Note_on_c, 3, 38, 64
4, 599, Note_on_c, 3, 38, 0
4, 780, Note_on_c, 3, 38, 64
4, 839, Note_on_c, 3, 38, 0
4, 840, Note_on_c, 3, 40, 64
4, 899, Note_on_c, 3, 40, 0
4, 900, Note_on_c, 3, 38, 64
4, 959, Note_on_c, 3, 38, 0
4, 960, Note_on_c, 3, 37, 64
4, 1079, Note_on_c, 3, 37, 0
4, 1260, Note_on_c, 3, 33, 64
4, 1319, Note_on_c, 3, 33, 0
4, 1320, Note_on_c, 3, 35, 64
4, 1379, Note_on_c, 3, 35, 0
4, 1380, Note_on_c, 3, 37, 64
4, 1439, Note_on_c, 3, 37, 0
4, 1440, Note_on_c, 3, 38, 64
4, 1559, Note_on_c, 3, 38, 0
4, 1560, Note_on_c, 3, 40, 64
4, 1679, Note_on_c, 3, 40, 0
4, 1680, Note_on_c, 3, 41, 64
4, 1799, Note_on_c, 3, 41, 0
4, 1800, Note_on_c, 3, 43, 64
4, 1919, Note_on_c, 3, 43, 0
4, 1920, Note_on_c, 3, 45, 64
4, 2039, Note_on_c, 3, 45, 0
4, 2220, Note_on_c, 3, 37, 64
4, 2279, Note_on_c, 3, 37, 0
4, 2280, Note_on_c, 3, 38, 64
4, 2339, Note_on_c, 3, 38, 0
4, 2340, Note_on_c, 3, 33, 64
4, 2399, Note_on_c, 3, 33, 0
4, 2400, Note_on_c, 3, 34, 64
4, 2639, Note_on_c, 3, 34, 0
4, 2640, Note_on_c, 3, 33, 64
4, 3359, Note_on_c, 3, 33, 0
4, 3360, Note_on_c, 3, 26, 64
4, 3479, Note_on_c, 3, 26, 0
4, 6240, Note_on_c, 3, 33, 64
4, 6299, Note_on_c, 3, 33, 0
4, 6360, Note_on_c, 3, 33, 64
4, 6419, Note_on_c, 3, 33, 0
4, 6480, Note_on_c, 3, 33, 64
4, 6539, Note_on_c, 3, 33, 0
4, 6600, Note_on_c, 3, 33, 64
4, 6659, Note_on_c, 3, 33, 0
4, 6720, Note_on_c, 3, 34, 64
4, 6749, Note_on_c, 3, 34, 0
4, 6780, Note_on_c, 3, 34, 64
4, 6809, Note_on_c, 3, 34, 0
4, 6840, Note_on_c, 3, 34, 64
4, 6869, Note_on_c, 3, 34, 0
4, 6900, Note_on_c, 3, 34, 64
4, 6929, Note_on_c, 3, 34, 0
4, 6960, Note_on_c, 3, 34, 64
4, 7079, Note_on_c, 3, 34, 0
4, 7200, Note_on_c, 3, 35, 64
4, 7259, Note_on_c, 3, 35, 0
4, 7320, Note_on_c, 3, 35, 64
4, 7379, Note_on_c, 3, 35, 0
4, 7440, Note_on_c, 3, 35, 64
4, 7499, Note_on_c, 3, 35, 0
4, 7560, Note_on_c, 3, 35, 64
4, 7619, Note_on_c, 3, 35, 0
4, 7680, Note_on_c, 3, 36, 64
4, 7709, Note_on_c, 3, 36, 0
4, 7740, Note_on_c, 3, 36, 64
4, 7769, Note_on_c, 3, 36, 0
4, 7800, Note_on_c, 3, 36, 64
4, 7829, Note_on_c, 3, 36, 0
4, 7860, Note_on_c, 3, 36, 64
4, 7889, Note_on_c, 3, 36, 0
4, 7920, Note_on_c, 3, 36, 64
4, 8039, Note_on_c, 3, 36, 0
4, 8160, Note_on_c, 3, 37, 64
4, 8219, Note_on_c, 3, 37, 0
4, 8280, Note_on_c, 3, 37, 64
4, 8339, Note_on_c, 3, 37, 0
4, 8400, Note_on_c, 3, 37, 64
4, 8459, Note_on_c, 3, 37, 0
4, 8520, Note_on_c, 3, 37, 64
4, 8579, Note_on_c, 3, 37, 0
4, 8640, Note_on_c, 3, 38, 64
4, 8669, Note_on_c, 3, 38, 0
4, 8700, Note_on_c, 3, 38, 64
4, 8729, Note_on_c, 3, 38, 0
4, 8760, Note_on_c, 3, 38, 64
4, 8789, Note_on_c, 3, 38, 0
4, 8820, Note_on_c, 3, 38, 64
4, 8849, Note_on_c, 3, 38, 0
4, 8880, Note_on_c, 3, 38, 64
4, 8939, Note_on_c, 3, 38, 0
4, 8940, Note_on_c, 3, 36, 64
4, 8999, Note_on_c, 3, 36, 0
4, 9000, Note_on_c, 3, 34, 64
4, 9059, Note_on_c, 3, 34, 0
4, 9060, Note_on_c, 3, 33, 64
4, 9119, Note_on_c, 3, 33, 0
4, 9120, Note_on_c, 3, 31, 64
4, 9239, Note_on_c, 3, 31, 0
4, 9360, Note_on_c, 3, 36, 64
4, 9419, Note_on_c, 3, 36, 0
4, 9420, Note_on_c, 3, 34, 64
4, 9479, Note_on_c, 3, 34, 0
4, 9480, Note_on_c, 3, 33, 64
4, 9539, Note_on_c, 3, 33, 0
4, 9540, Note_on_c, 3, 31, 64
4, 9599, Note_on_c, 3, 31, 0
4, 9600, Note_on_c, 3, 29, 64
4, 9719, Note_on_c, 3, 29, 0
4, 12000, Note_on_c, 3, 38, 64
4, 12119, Note_on_c, 3, 38, 0
4, 12300, Note_on_c, 3, 38, 64
4, 12359, Note_on_c, 3, 38, 0
4, 12360, Note_on_c, 3, 40, 64
4, 12419, Note_on_c, 3, 40, 0
4, 12420, Note_on_c, 3, 38, 64
4, 12479, Note_on_c, 3, 38, 0
4, 12480, Note_on_c, 3, 37, 64
4, 12599, Note_on_c, 3, 37, 0
4, 12780, Note_on_c, 3, 33, 64
4, 12839, Note_on_c, 3, 33, 0
4, 12840, Note_on_c, 3, 35, 64
4, 12899, Note_on_c, 3, 35, 0
4, 12900, Note_on_c, 3, 37, 64
4, 12959, Note_on_c, 3, 37, 0
4, 12960, Note_on_c, 3, 38, 64
4, 13079, Note_on_c, 3, 38, 0
4, 13080, Note_on_c, 3, 40, 64
4, 13199, Note_on_c, 3, 40, 0
4, 13200, Note_on_c, 3, 41, 64
4, 13319, Note_on_c, 3, 41, 0
4, 13320, Note_on_c, 3, 43, 64
4, 13439, Note_on_c, 3, 43, 0
4, 13440, Note_on_c, 3, 45, 64
4, 13559, Note_on_c, 3, 45, 0
4, 13740, Note_on_c, 3, 37, 64
4, 13799, Note_on_c, 3, 37, 0
4, 13800, Note_on_c, 3, 38, 64
4, 13859, Note_on_c, 3, 38, 0
4, 13860, Note_on_c, 3, 33, 64
4, 13919, Note_on_c, 3, 33, 0
4, 13920, Note_on_c, 3, 34, 64
4, 14159, Note_on_c, 3, 34, 0
4, 14160, Note_on_c, 3, 33, 64
4, 14879, Note_on_c, 3, 33, 0
4, 14880, Note_on_c, 3, 26, 64
4, 14999, Note_on_c, 3, 26, 0
4, 18660, Note_on_c, 3, 38, 64
4, 18719, Note_on_c, 3, 38, 0
4, 18720, Note_on_c, 3, 36, 64
4, 18779, Note_on_c, 3, 36, 0
4, 18780, Note_on_c, 3, 40, 64
4, 18839, Note_on_c, 3, 40, 0
4, 18840, Note_on_c, 3, 35, 64
4, 18899, Note_on_c, 3, 35, 0
4, 18900, Note_on_c, 3, 40, 64
4, 18959, Note_on_c, 3, 40, 0
4, 18960, Note_on_c, 3, 33, 64
4, 19019, Note_on_c, 3, 33, 0
4, 19020, Note_on_c, 3, 36, 64
4, 19079, Note_on_c, 3, 36, 0
4, 19080, Note_on_c, 3, 41, 64
4, 19199, Note_on_c, 3, 41, 0
4, 19200, Note_on_c, 3, 40, 64
4, 19259, Note_on_c, 3, 40, 0
4, 19260, Note_on_c, 3, 42, 64
4, 19289, Note_on_c, 3, 42, 0
4, 19290, Note_on_c, 3, 44, 64
4, 19319, Note_on_c, 3, 44, 0
4, 19320, Note_on_c, 3, 45, 64
4, 19499, Note_on_c, 3, 45, 0
4, 19500, Note_on_c, 3, 44, 64
4, 19529, Note_on_c, 3, 44, 0
4, 19530, Note_on_c, 3, 42, 64
4, 19559, Note_on_c, 3, 42, 0
4, 19560, Note_on_c, 3, 40, 64
4, 19619, Note_on_c, 3, 40, 0
4, 19620, Note_on_c, 3, 38, 64
4, 19679, Note_on_c, 3, 38, 0
4, 19680, Note_on_c, 3, 36, 64
4, 19739, Note_on_c, 3, 36, 0
4, 19740, Note_on_c, 3, 35, 64
4, 19799, Note_on_c, 3, 35, 0
4, 19800, Note_on_c, 3, 33, 64
4, 19919, Note_on_c, 3, 33, 0
4, 19920, Note_on_c, 3, 38, 64
4, 20039, Note_on_c, 3, 38, 0
4, 20040, Note_on_c, 3, 40, 64
4, 20159, Note_on_c, 3, 40, 0
4, 20160, Note_on_c, 3, 33, 64
4, 20279, Note_on_c, 3, 33, 0
4, 23220, Note_on_c, 3, 36, 64
4, 23279, Note_on_c, 3, 36, 0
4, 23280, Note_on_c, 3, 33, 64
4, 23339, Note_on_c, 3, 33, 0
4, 23340, Note_on_c, 3, 36, 64
4, 23399, Note_on_c, 3, 36, 0
4, 23400, Note_on_c, 3, 31, 64
4, 23459, Note_on_c, 3, 31, 0
4, 23460, Note_on_c, 3, 36, 64
4, 23519, Note_on_c, 3, 36, 0
4, 23520, Note_on_c, 3, 29, 64
4, 23579, Note_on_c, 3, 29, 0
4, 23580, Note_on_c, 3, 33, 64
4, 23639, Note_on_c, 3, 33, 0
4, 23640, Note_on_c, 3, 38, 64
4, 23759, Note_on_c, 3, 38, 0
4, 23760, Note_on_c, 3, 36, 64
4, 23819, Note_on_c, 3, 36, 0
4, 23820, Note_on_c, 3, 38, 64
4, 23849, Note_on_c, 3, 38, 0
4, 23850, Note_on_c, 3, 40, 64
4, 23879, Note_on_c, 3, 40, 0
4, 23880, Note_on_c, 3, 41, 64
4, 24059, Note_on_c, 3, 41, 0
4, 24060, Note_on_c, 3, 40, 64
4, 24089, Note_on_c, 3, 40, 0
4, 24090, Note_on_c, 3, 38, 64
4, 24119, Note_on_c, 3, 38, 0
4, 24120, Note_on_c, 3, 36, 64
4, 24179, Note_on_c, 3, 36, 0
4, 24180, Note_on_c, 3, 35, 64
4, 24239, Note_on_c, 3, 35, 0
4, 24240, Note_on_c, 3, 33, 64
4, 24359, Note_on_c, 3, 33, 0
4, 24420, Note_on_c, 3, 35, 64
4, 24479, Note_on_c, 3, 35, 0
4, 24480, Note_on_c, 3, 36, 64
4, 24599, Note_on_c, 3, 36, 0
4, 24600, Note_on_c, 3, 35, 64
4, 24719, Note_on_c, 3, 35, 0
4, 24720, Note_on_c, 3, 36, 64
4, 24839, Note_on_c, 3, 36, 0
4, 26340, Note_on_c, 3, 33, 64
4, 26399, Note_on_c, 3, 33, 0
4, 26400, Note_on_c, 3, 38, 64
4, 26519, Note_on_c, 3, 38, 0
4, 26520, Note_on_c, 3, 37, 64
4, 26639, Note_on_c, 3, 37, 0
4, 26640, Note_on_c, 3, 41, 64
4, 26759, Note_on_c, 3, 41, 0
4, 26760, Note_on_c, 3, 40, 64
4, 26879, Note_on_c, 3, 40, 0
4, 26880, Note_on_c, 3, 45, 64
4, 26999, Note_on_c, 3, 45, 0
4, 27000, Note_on_c, 3, 41, 64
4, 27059, Note_on_c, 3, 41, 0
4, 27060, Note_on_c, 3, 38, 64
4, 27119, Note_on_c, 3, 38, 0
4, 27120, Note_on_c, 3, 45, 64
4, 27239, Note_on_c, 3, 45, 0
4, 27240, Note_on_c, 3, 33, 64
4, 27359, Note_on_c, 3, 33, 0
4, 27360, Note_on_c, 3, 38, 64
4, 27479, Note_on_c, 3, 38, 0
4, 27540, Note_on_c, 3, 38, 64
4, 27599, Note_on_c, 3, 38, 0
4, 27600, Note_on_c, 3, 34, 64
4, 27659, Note_on_c, 3, 34, 0
4, 27660, Note_on_c, 3, 38, 64
4, 27719, Note_on_c, 3, 38, 0
4, 27720, Note_on_c, 3, 33, 64
4, 27779, Note_on_c, 3, 33, 0
4, 27780, Note_on_c, 3, 38, 64
4, 27839, Note_on_c, 3, 38, 0
4, 27840, Note_on_c, 3, 31, 64
4, 27899, Note_on_c, 3, 31, 0
4, 27900, Note_on_c, 3, 34, 64
4, 27959, Note_on_c, 3, 34, 0
4, 27960, Note_on_c, 3, 39, 64
4, 28079, Note_on_c, 3, 39, 0
4, 28080, Note_on_c, 3, 38, 64
4, 28139, Note_on_c, 3, 38, 0
4, 28140, Note_on_c, 3, 40, 64
4, 28169, Note_on_c, 3, 40, 0
4, 28170, Note_on_c, 3, 42, 64
4, 28199, Note_on_c, 3, 42, 0
4, 28200, Note_on_c, 3, 43, 64
4, 28379, Note_on_c, 3, 43, 0
4, 28380, Note_on_c, 3, 41, 64
4, 28409, Note_on_c, 3, 41, 0
4, 28410, Note_on_c, 3, 40, 64
4, 28439, Note_on_c, 3, 40, 0
4, 28440, Note_on_c, 3, 38, 64
4, 28499, Note_on_c, 3, 38, 0
4, 28500, Note_on_c, 3, 36, 64
4, 28559, Note_on_c, 3, 36, 0
4, 28560, Note_on_c, 3, 34, 64
4, 28619, Note_on_c, 3, 34, 0
4, 28620, Note_on_c, 3, 33, 64
4, 28679, Note_on_c, 3, 33, 0
4, 28680, Note_on_c, 3, 31, 64
4, 28799, Note_on_c, 3, 31, 0
4, 28800, Note_on_c, 3, 33, 64
4, 29519, Note_on_c, 3, 33, 0
4, 29520, Note_on_c, 3, 26, 64
4, 30119, Note_on_c, 3, 26, 0
4, 30119, End_track
0, 0, End_of_file
