0, 0, Header, 1, 4, 120
1, 0, Start_track
1, 0, Key_signature, -2, "major"
1, 0, Tempo, 789473
1, 0, Time_signature, 4, 2, 24, 8
1, 16800, Time_signature, 3, 2, 24, 8
1, 17160, Tempo, 789473
1, 17220, Tempo, 779220
1, 17280, Tempo, 769230
1, 17340, Tempo, 759493
1, 17400, Tempo, 750000
1, 17400, End_track
2, 0, Start_track
2, 0, Title_t, "Right Hand"
2, 0, Instrument_name_t, "Pipe Organ"
2, 480, Program_c, 1, 16
2, 480, Note_on_c, 1, 70, 64
2, 509, Note_on_c, 1, 70, 0
2, 510, Note_on_c, 1, 74, 64
2, 539, Note_on_c, 1, 74, 0
2, 540, Note_on_c, 1, 72, 64
2, 569, Note_on_c, 1, 72, 0
2, 570, Note_on_c, 1, 75, 64
2, 599, Note_on_c, 1, 75, 0
2, 600, Note_on_c, 1, 74, 64
2, 629, Note_on_c, 1, 74, 0
2, 630, Note_on_c, 1, 77, 64
2, 659, Note_on_c, 1, 77, 0
2, 660, Note_on_c, 1, 69, 64
2, 689, Note_on_c, 1, 69, 0
2, 690, Note_on_c, 1, 72, 64
2, 719, Note_on_c, 1, 72, 0
2, 720, Note_on_c, 1, 70, 64
2, 839, Note_on_c, 1, 70, 0
2, 900, Note_on_c, 1, 77, 64
2, 929, Note_on_c, 1, 77, 0
2, 930, Note_on_c, 1, 75, 64
2, 959, Note_on_c, 1, 75, 0
2, 960, Note_on_c, 1, 74, 64
2, 989, Note_on_c, 1, 74, 0
2, 990, Note_on_c, 1, 75, 64
2, 1019, Note_on_c, 1, 75, 0
2, 1020, Note_on_c, 1, 72, 64
2, 1049, Note_on_c, 1, 72, 0
2, 1050, Note_on_c, 1, 75, 64
2, 1079, Note_on_c, 1, 75, 0
2, 1080, Note_on_c, 1, 74, 64
2, 1109, Note_on_c, 1, 74, 0
2, 1110, Note_on_c, 1, 75, 64
2, 1139, Note_on_c, 1, 75, 0
2, 1140, Note_on_c, 1, 69, 64
2, 1169, Note_on_c, 1, 69, 0
2, 1170, Note_on_c, 1, 72, 64
2, 1199, Note_on_c, 1, 72, 0
2, 1200, Note_on_c, 1, 70, 64
2, 1229, Note_on_c, 1, 70, 0
2, 1230, Note_on_c, 1, 72, 64
2, 1259, Note_on_c, 1, 72, 0
2, 1260, Note_on_c, 1, 69, 64
2, 1289, Note_on_c, 1, 69, 0
2, 1290, Note_on_c, 1, 72, 64
2, 1319, Note_on_c, 1, 72, 0
2, 1320, Note_on_c, 1, 70, 64
2, 1349, Note_on_c, 1, 70, 0
2, 1350, Note_on_c, 1, 72, 64
2, 1379, Note_on_c, 1, 72, 0
2, 1380, Note_on_c, 1, 65, 64
2, 1409, Note_on_c, 1, 65, 0
2, 1410, Note_on_c, 1, 68, 64
2, 1439, Note_on_c, 1, 68, 0
2, 1440, Note_on_c, 1, 67, 64
2, 1469, Note_on_c, 1, 67, 0
2, 1470, Note_on_c, 1, 68, 64
2, 1499, Note_on_c, 1, 68, 0
2, 1500, Note_on_c, 1, 65, 64
2, 1529, Note_on_c, 1, 65, 0
2, 1530, Note_on_c, 1, 68, 64
2, 1559, Note_on_c, 1, 68, 0
2, 1560, Note_on_c, 1, 67, 64
2, 1589, Note_on_c, 1, 67, 0
2, 1590, Note_on_c, 1, 69, 64
2, 1619, Note_on_c, 1, 69, 0
2, 1620, Note_on_c, 1, 70, 64
2, 1649, Note_on_c, 1, 70, 0
2, 1650, Note_on_c, 1, 72, 64
2, 1679, Note_on_c, 1, 72, 0
2, 1680, Note_on_c, 1, 69, 64
2, 1709, Note_on_c, 1, 69, 0
2, 1710, Note_on_c, 1, 70, 64
2, 1739, Note_on_c, 1, 70, 0
2, 1740, Note_on_c, 1, 67, 64
2, 1769, Note_on_c, 1, 67, 0
2, 1770, Note_on_c, 1, 70, 64
2, 1799, Note_on_c, 1, 70, 0
2, 1800, Note_on_c, 1, 69, 64
2, 1829, Note_on_c, 1, 69, 0
2, 1830, Note_on_c, 1, 70, 64
2, 1859, Note_on_c, 1, 70, 0
2, 1860, Note_on_c, 1, 72, 64
2, 1889, Note_on_c, 1, 72, 0
2, 1890, Note_on_c, 1, 74, 64
2, 1919, Note_on_c, 1, 74, 0
2, 1920, Note_on_c, 1, 70, 64
2, 1949, Note_on_c, 1, 70, 0
2, 1950, Note_on_c, 1, 72, 64
2, 1979, Note_on_c, 1, 72, 0
2, 1980, Note_on_c, 1, 69, 64
2, 2009, Note_on_c, 1, 69, 0
2, 2010, Note_on_c, 1, 72, 64
2, 2039, Note_on_c, 1, 72, 0
2, 2040, Note_on_c, 1, 70, 64
2, 2069, Note_on_c, 1, 70, 0
2, 2070, Note_on_c, 1, 72, 64
2, 2099, Note_on_c, 1, 72, 0
2, 2100, Note_on_c, 1, 74, 64
2, 2129, Note_on_c, 1, 74, 0
2, 2130, Note_on_c, 1, 75, 64
2, 2159, Note_on_c, 1, 75, 0
2, 2160, Note_on_c, 1, 72, 64
2, 2189, Note_on_c, 1, 72, 0
2, 2190, Note_on_c, 1, 74, 64
2, 2219, Note_on_c, 1, 74, 0
2, 2220, Note_on_c, 1, 70, 64
2, 2249, Note_on_c, 1, 70, 0
2, 2250, Note_on_c, 1, 74, 64
2, 2279, Note_on_c, 1, 74, 0
2, 2280, Note_on_c, 1, 72, 64
2, 2309, Note_on_c, 1, 72, 0
2, 2310, Note_on_c, 1, 74, 64
2, 2339, Note_on_c, 1, 74, 0
2, 2340, Note_on_c, 1, 75, 64
2, 2369, Note_on_c, 1, 75, 0
2, 2370, Note_on_c, 1, 77, 64
2, 2399, Note_on_c, 1, 77, 0
2, 2400, Note_on_c, 1, 74, 64
2, 2429, Note_on_c, 1, 74, 0
2, 2430, Note_on_c, 1, 72, 64
2, 2459, Note_on_c, 1, 72, 0
2, 2460, Note_on_c, 1, 70, 64
2, 2489, Note_on_c, 1, 70, 0
2, 2490, Note_on_c, 1, 69, 64
2, 2519, Note_on_c, 1, 69, 0
2, 2520, Note_on_c, 1, 67, 64
2, 2549, Note_on_c, 1, 67, 0
2, 2550, Note_on_c, 1, 65, 64
2, 2579, Note_on_c, 1, 65, 0
2, 2580, Note_on_c, 1, 64, 64
2, 2609, Note_on_c, 1, 64, 0
2, 2610, Note_on_c, 1, 62, 64
2, 2639, Note_on_c, 1, 62, 0
2, 2640, Note_on_c, 1, 60, 64
2, 2669, Note_on_c, 1, 60, 0
2, 2670, Note_on_c, 1, 58, 64
2, 2699, Note_on_c, 1, 58, 0
2, 2700, Note_on_c, 1, 57, 64
2, 2729, Note_on_c, 1, 57, 0
2, 2730, Note_on_c, 1, 55, 64
2, 2759, Note_on_c, 1, 55, 0
2, 2760, Note_on_c, 1, 53, 64
2, 2789, Note_on_c, 1, 53, 0
2, 2790, Note_on_c, 1, 52, 64
2, 2819, Note_on_c, 1, 52, 0
2, 2820, Note_on_c, 1, 50, 64
2, 2849, Note_on_c, 1, 50, 0
2, 2850, Note_on_c, 1, 48, 64
2, 2879, Note_on_c, 1, 48, 0
2, 2880, Note_on_c, 1, 47, 64
2, 2909, Note_on_c, 1, 47, 0
2, 2910, Note_on_c, 1, 50, 64
2, 2939, Note_on_c, 1, 50, 0
2, 2940, Note_on_c, 1, 55, 64
2, 2969, Note_on_c, 1, 55, 0
2, 2970, Note_on_c, 1, 59, 64
2, 2999, Note_on_c, 1, 59, 0
2, 3000, Note_on_c, 1, 62, 64
2, 3029, Note_on_c, 1, 62, 0
2, 3030, Note_on_c, 1, 67, 64
2, 3059, Note_on_c, 1, 67, 0
2, 3060, Note_on_c, 1, 55, 64
2, 3089, Note_on_c, 1, 55, 0
2, 3090, Note_on_c, 1, 59, 64
2, 3119, Note_on_c, 1, 59, 0
2, 3120, Note_on_c, 1, 62, 64
2, 3149, Note_on_c, 1, 62, 0
2, 3150, Note_on_c, 1, 67, 64
2, 3179, Note_on_c, 1, 67, 0
2, 3180, Note_on_c, 1, 71, 64
2, 3209, Note_on_c, 1, 71, 0
2, 3210, Note_on_c, 1, 74, 64
2, 3239, Note_on_c, 1, 74, 0
2, 3240, Note_on_c, 1, 59, 64
2, 3269, Note_on_c, 1, 59, 0
2, 3270, Note_on_c, 1, 62, 64
2, 3299, Note_on_c, 1, 62, 0
2, 3300, Note_on_c, 1, 67, 64
2, 3329, Note_on_c, 1, 67, 0
2, 3330, Note_on_c, 1, 77, 64
2, 3359, Note_on_c, 1, 77, 0
2, 3360, Note_on_c, 1, 76, 64
2, 3389, Note_on_c, 1, 76, 0
2, 3390, Note_on_c, 1, 79, 64
2, 3419, Note_on_c, 1, 79, 0
2, 3420, Note_on_c, 1, 72, 64
2, 3449, Note_on_c, 1, 72, 0
2, 3450, Note_on_c, 1, 70, 64
2, 3479, Note_on_c, 1, 70, 0
2, 3480, Note_on_c, 1, 69, 64
2, 3509, Note_on_c, 1, 69, 0
2, 3510, Note_on_c, 1, 72, 64
2, 3539, Note_on_c, 1, 72, 0
2, 3540, Note_on_c, 1, 65, 64
2, 3569, Note_on_c, 1, 65, 0
2, 3570, Note_on_c, 1, 69, 64
2, 3599, Note_on_c, 1, 69, 0
2, 3600, Note_on_c, 1, 70, 64
2, 3600, Note_on_c, 1, 65, 64
2, 3659, Note_on_c, 1, 70, 0
2, 3660, Note_on_c, 1, 69, 64
2, 3689, Note_on_c, 1, 69, 0
2, 3690, Note_on_c, 1, 67, 64
2, 3719, Note_on_c, 1, 67, 0
2, 3719, Note_on_c, 1, 65, 0
2, 3720, Note_on_c, 1, 67, 64
2, 3720, Note_on_c, 1, 64, 64
2, 3809, Note_on_c, 1, 67, 0
2, 3810, Note_on_c, 1, 65, 64
2, 3824, Note_on_c, 1, 65, 0
2, 3839, Note_on_c, 1, 64, 0
2, 3840, Note_on_c, 1, 57, 64
2, 3840, Note_on_c, 1, 65, 64
2, 3959, Note_on_c, 1, 65, 0
2, 3959, Note_on_c, 1, 57, 0
2, 6720, Note_on_c, 1, 70, 64
2, 6749, Note_on_c, 1, 70, 0
2, 6750, Note_on_c, 1, 74, 64
2, 6779, Note_on_c, 1, 74, 0
2, 6780, Note_on_c, 1, 72, 64
2, 6809, Note_on_c, 1, 72, 0
2, 6810, Note_on_c, 1, 75, 64
2, 6839, Note_on_c, 1, 75, 0
2, 6840, Note_on_c, 1, 74, 64
2, 6869, Note_on_c, 1, 74, 0
2, 6870, Note_on_c, 1, 77, 64
2, 6899, Note_on_c, 1, 77, 0
2, 6900, Note_on_c, 1, 69, 64
2, 6929, Note_on_c, 1, 69, 0
2, 6930, Note_on_c, 1, 72, 64
2, 6959, Note_on_c, 1, 72, 0
2, 6960, Note_on_c, 1, 70, 64
2, 6989, Note_on_c, 1, 70, 0
2, 6990, Note_on_c, 1, 74, 64
2, 7019, Note_on_c, 1, 74, 0
2, 7020, Note_on_c, 1, 72, 64
2, 7049, Note_on_c, 1, 72, 0
2, 7050, Note_on_c, 1, 75, 64
2, 7079, Note_on_c, 1, 75, 0
2, 7080, Note_on_c, 1, 74, 64
2, 7109, Note_on_c, 1, 74, 0
2, 7110, Note_on_c, 1, 77, 64
2, 7139, Note_on_c, 1, 77, 0
2, 7140, Note_on_c, 1, 69, 64
2, 7169, Note_on_c, 1, 69, 0
2, 7170, Note_on_c, 1, 72, 64
2, 7199, Note_on_c, 1, 72, 0
2, 7200, Note_on_c, 1, 70, 64
2, 7229, Note_on_c, 1, 70, 0
2, 7230, Note_on_c, 1, 72, 64
2, 7259, Note_on_c, 1, 72, 0
2, 7260, Note_on_c, 1, 69, 64
2, 7289, Note_on_c, 1, 69, 0
2, 7290, Note_on_c, 1, 72, 64
2, 7319, Note_on_c, 1, 72, 0
2, 7320, Note_on_c, 1, 70, 64
2, 7349, Note_on_c, 1, 70, 0
2, 7350, Note_on_c, 1, 74, 64
2, 7379, Note_on_c, 1, 74, 0
2, 7380, Note_on_c, 1, 72, 64
2, 7409, Note_on_c, 1, 72, 0
2, 7410, Note_on_c, 1, 70, 64
2, 7439, Note_on_c, 1, 70, 0
2, 7440, Note_on_c, 1, 69, 64
2, 7469, Note_on_c, 1, 69, 0
2, 7470, Note_on_c, 1, 70, 64
2, 7499, Note_on_c, 1, 70, 0
2, 7500, Note_on_c, 1, 69, 64
2, 7529, Note_on_c, 1, 69, 0
2, 7530, Note_on_c, 1, 67, 64
2, 7559, Note_on_c, 1, 67, 0
2, 7560, Note_on_c, 1, 65, 64
2, 7619, Note_on_c, 1, 65, 0
2, 7620, Note_on_c, 1, 67, 64
2, 7649, Note_on_c, 1, 67, 0
2, 7650, Note_on_c, 1, 69, 64
2, 7679, Note_on_c, 1, 69, 0
2, 7680, Note_on_c, 1, 70, 64
2, 7709, Note_on_c, 1, 70, 0
2, 7710, Note_on_c, 1, 74, 64
2, 7739, Note_on_c, 1, 74, 0
2, 7740, Note_on_c, 1, 72, 64
2, 7769, Note_on_c, 1, 72, 0
2, 7770, Note_on_c, 1, 75, 64
2, 7799, Note_on_c, 1, 75, 0
2, 7800, Note_on_c, 1, 74, 64
2, 7829, Note_on_c, 1, 74, 0
2, 7830, Note_on_c, 1, 77, 64
2, 7859, Note_on_c, 1, 77, 0
2, 7860, Note_on_c, 1, 69, 64
2, 7889, Note_on_c, 1, 69, 0
2, 7890, Note_on_c, 1, 72, 64
2, 7919, Note_on_c, 1, 72, 0
2, 7920, Note_on_c, 1, 70, 64
2, 7949, Note_on_c, 1, 70, 0
2, 7950, Note_on_c, 1, 74, 64
2, 7979, Note_on_c, 1, 74, 0
2, 7980, Note_on_c, 1, 72, 64
2, 8009, Note_on_c, 1, 72, 0
2, 8010, Note_on_c, 1, 75, 64
2, 8039, Note_on_c, 1, 75, 0
2, 8040, Note_on_c, 1, 74, 64
2, 8069, Note_on_c, 1, 74, 0
2, 8070, Note_on_c, 1, 77, 64
2, 8099, Note_on_c, 1, 77, 0
2, 8100, Note_on_c, 1, 69, 64
2, 8129, Note_on_c, 1, 69, 0
2, 8130, Note_on_c, 1, 72, 64
2, 8159, Note_on_c, 1, 72, 0
2, 8160, Note_on_c, 1, 70, 64
2, 8189, Note_on_c, 1, 70, 0
2, 8190, Note_on_c, 1, 72, 64
2, 8219, Note_on_c, 1, 72, 0
2, 8220, Note_on_c, 1, 69, 64
2, 8249, Note_on_c, 1, 69, 0
2, 8250, Note_on_c, 1, 72, 64
2, 8279, Note_on_c, 1, 72, 0
2, 8280, Note_on_c, 1, 70, 64
2, 8309, Note_on_c, 1, 70, 0
2, 8310, Note_on_c, 1, 74, 64
2, 8339, Note_on_c, 1, 74, 0
2, 8340, Note_on_c, 1, 72, 64
2, 8369, Note_on_c, 1, 72, 0
2, 8370, Note_on_c, 1, 70, 64
2, 8399, Note_on_c, 1, 70, 0
2, 8400, Note_on_c, 1, 69, 64
2, 8429, Note_on_c, 1, 69, 0
2, 8430, Note_on_c, 1, 70, 64
2, 8459, Note_on_c, 1, 70, 0
2, 8460, Note_on_c, 1, 69, 64
2, 8489, Note_on_c, 1, 69, 0
2, 8490, Note_on_c, 1, 67, 64
2, 8519, Note_on_c, 1, 67, 0
2, 8520, Note_on_c, 1, 65, 64
2, 8579, Note_on_c, 1, 65, 0
2, 8580, Note_on_c, 1, 67, 64
2, 8609, Note_on_c, 1, 67, 0
2, 8610, Note_on_c, 1, 69, 64
2, 8639, Note_on_c, 1, 69, 0
2, 8640, Note_on_c, 1, 70, 64
2, 8669, Note_on_c, 1, 70, 0
2, 8670, Note_on_c, 1, 72, 64
2, 8699, Note_on_c, 1, 72, 0
2, 8700, Note_on_c, 1, 69, 64
2, 8729, Note_on_c, 1, 69, 0
2, 8730, Note_on_c, 1, 72, 64
2, 8759, Note_on_c, 1, 72, 0
2, 8760, Note_on_c, 1, 70, 64
2, 8789, Note_on_c, 1, 70, 0
2, 8790, Note_on_c, 1, 72, 64
2, 8819, Note_on_c, 1, 72, 0
2, 8820, Note_on_c, 1, 65, 64
2, 8849, Note_on_c, 1, 65, 0
2, 8850, Note_on_c, 1, 68, 64
2, 8879, Note_on_c, 1, 68, 0
2, 8880, Note_on_c, 1, 67, 64
2, 8909, Note_on_c, 1, 67, 0
2, 8910, Note_on_c, 1, 68, 64
2, 8939, Note_on_c, 1, 68, 0
2, 8940, Note_on_c, 1, 65, 64
2, 8969, Note_on_c, 1, 65, 0
2, 8970, Note_on_c, 1, 68, 64
2, 8999, Note_on_c, 1, 68, 0
2, 9000, Note_on_c, 1, 67, 64
2, 9059, Note_on_c, 1, 67, 0
2, 9060, Note_on_c, 1, 69, 64
2, 9089, Note_on_c, 1, 69, 0
2, 9090, Note_on_c, 1, 70, 64
2, 9119, Note_on_c, 1, 70, 0
2, 9120, Note_on_c, 1, 72, 64
2, 9149, Note_on_c, 1, 72, 0
2, 9150, Note_on_c, 1, 74, 64
2, 9179, Note_on_c, 1, 74, 0
2, 9180, Note_on_c, 1, 70, 64
2, 9209, Note_on_c, 1, 70, 0
2, 9210, Note_on_c, 1, 74, 64
2, 9239, Note_on_c, 1, 74, 0
2, 9240, Note_on_c, 1, 72, 64
2, 9269, Note_on_c, 1, 72, 0
2, 9270, Note_on_c, 1, 74, 64
2, 9299, Note_on_c, 1, 74, 0
2, 9300, Note_on_c, 1, 67, 64
2, 9329, Note_on_c, 1, 67, 0
2, 9330, Note_on_c, 1, 70, 64
2, 9359, Note_on_c, 1, 70, 0
2, 9360, Note_on_c, 1, 69, 64
2, 9389, Note_on_c, 1, 69, 0
2, 9390, Note_on_c, 1, 70, 64
2, 9419, Note_on_c, 1, 70, 0
2, 9420, Note_on_c, 1, 67, 64
2, 9449, Note_on_c, 1, 67, 0
2, 9450, Note_on_c, 1, 70, 64
2, 9479, Note_on_c, 1, 70, 0
2, 9480, Note_on_c, 1, 69, 64
2, 9539, Note_on_c, 1, 69, 0
2, 9540, Note_on_c, 1, 70, 64
2, 9569, Note_on_c, 1, 70, 0
2, 9570, Note_on_c, 1, 72, 64
2, 9599, Note_on_c, 1, 72, 0
2, 9600, Note_on_c, 1, 74, 64
2, 9629, Note_on_c, 1, 74, 0
2, 9630, Note_on_c, 1, 75, 64
2, 9659, Note_on_c, 1, 75, 0
2, 9660, Note_on_c, 1, 72, 64
2, 9689, Note_on_c, 1, 72, 0
2, 9690, Note_on_c, 1, 75, 64
2, 9719, Note_on_c, 1, 75, 0
2, 9720, Note_on_c, 1, 74, 64
2, 9749, Note_on_c, 1, 74, 0
2, 9750, Note_on_c, 1, 75, 64
2, 9779, Note_on_c, 1, 75, 0
2, 9780, Note_on_c, 1, 69, 64
2, 9809, Note_on_c, 1, 69, 0
2, 9810, Note_on_c, 1, 72, 64
2, 9839, Note_on_c, 1, 72, 0
2, 9840, Note_on_c, 1, 70, 64
2, 9869, Note_on_c, 1, 70, 0
2, 9870, Note_on_c, 1, 72, 64
2, 9899, Note_on_c, 1, 72, 0
2, 9900, Note_on_c, 1, 74, 64
2, 9929, Note_on_c, 1, 74, 0
2, 9930, Note_on_c, 1, 75, 64
2, 9959, Note_on_c, 1, 75, 0
2, 9960, Note_on_c, 1, 72, 64
2, 9989, Note_on_c, 1, 72, 0
2, 9990, Note_on_c, 1, 74, 64
2, 10019, Note_on_c, 1, 74, 0
2, 10020, Note_on_c, 1, 75, 64
2, 10049, Note_on_c, 1, 75, 0
2, 10050, Note_on_c, 1, 77, 64
2, 10079, Note_on_c, 1, 77, 0
2, 10080, Note_on_c, 1, 74, 64
2, 10109, Note_on_c, 1, 74, 0
2, 10110, Note_on_c, 1, 77, 64
2, 10139, Note_on_c, 1, 77, 0
2, 10140, Note_on_c, 1, 79, 64
2, 10169, Note_on_c, 1, 79, 0
2, 10170, Note_on_c, 1, 74, 64
2, 10199, Note_on_c, 1, 74, 0
2, 10200, Note_on_c, 1, 75, 64
2, 10229, Note_on_c, 1, 75, 0
2, 10230, Note_on_c, 1, 72, 64
2, 10259, Note_on_c, 1, 72, 0
2, 10260, Note_on_c, 1, 77, 64
2, 10289, Note_on_c, 1, 77, 0
2, 10290, Note_on_c, 1, 75, 64
2, 10319, Note_on_c, 1, 75, 0
2, 10320, Note_on_c, 1, 74, 64
2, 10349, Note_on_c, 1, 74, 0
2, 10350, Note_on_c, 1, 70, 64
2, 10379, Note_on_c, 1, 70, 0
2, 10380, Note_on_c, 1, 75, 64
2, 10409, Note_on_c, 1, 75, 0
2, 10410, Note_on_c, 1, 74, 64
2, 10439, Note_on_c, 1, 74, 0
2, 10440, Note_on_c, 1, 72, 64
2, 10469, Note_on_c, 1, 72, 0
2, 10470, Note_on_c, 1, 69, 64
2, 10499, Note_on_c, 1, 69, 0
2, 10500, Note_on_c, 1, 74, 64
2, 10529, Note_on_c, 1, 74, 0
2, 10530, Note_on_c, 1, 72, 64
2, 10559, Note_on_c, 1, 72, 0
2, 10560, Note_on_c, 1, 70, 64
2, 10589, Note_on_c, 1, 70, 0
2, 10590, Note_on_c, 1, 67, 64
2, 10619, Note_on_c, 1, 67, 0
2, 10620, Note_on_c, 1, 72, 64
2, 10649, Note_on_c, 1, 72, 0
2, 10650, Note_on_c, 1, 70, 64
2, 10679, Note_on_c, 1, 70, 0
2, 10680, Note_on_c, 1, 69, 64
2, 10709, Note_on_c, 1, 69, 0
2, 10710, Note_on_c, 1, 65, 64
2, 10739, Note_on_c, 1, 65, 0
2, 10740, Note_on_c, 1, 70, 64
2, 10769, Note_on_c, 1, 70, 0
2, 10770, Note_on_c, 1, 69, 64
2, 10799, Note_on_c, 1, 69, 0
2, 10800, Note_on_c, 1, 67, 64
2, 10829, Note_on_c, 1, 67, 0
2, 10830, Note_on_c, 1, 69, 64
2, 10859, Note_on_c, 1, 69, 0
2, 10860, Note_on_c, 1, 70, 64
2, 10889, Note_on_c, 1, 70, 0
2, 10890, Note_on_c, 1, 72, 64
2, 10919, Note_on_c, 1, 72, 0
2, 10920, Note_on_c, 1, 70, 64
2, 10934, Note_on_c, 1, 70, 0
2, 10935, Note_on_c, 1, 69, 64
2, 10949, Note_on_c, 1, 69, 0
2, 10950, Note_on_c, 1, 70, 64
2, 10964, Note_on_c, 1, 70, 0
2, 10965, Note_on_c, 1, 69, 64
2, 10979, Note_on_c, 1, 69, 0
2, 10980, Note_on_c, 1, 70, 64
2, 10994, Note_on_c, 1, 70, 0
2, 10995, Note_on_c, 1, 69, 64
2, 11024, Note_on_c, 1, 69, 0
2, 11025, Note_on_c, 1, 70, 64
2, 11032, Note_on_c, 1, 70, 0
2, 11040, Note_on_c, 1, 70, 64
2, 11159, Note_on_c, 1, 70, 0
2, 11520, Note_on_c, 1, 70, 64
2, 11549, Note_on_c, 1, 70, 0
2, 11550, Note_on_c, 1, 74, 64
2, 11579, Note_on_c, 1, 74, 0
2, 11580, Note_on_c, 1, 72, 64
2, 11609, Note_on_c, 1, 72, 0
2, 11610, Note_on_c, 1, 75, 64
2, 11639, Note_on_c, 1, 75, 0
2, 11640, Note_on_c, 1, 74, 64
2, 11669, Note_on_c, 1, 74, 0
2, 11670, Note_on_c, 1, 77, 64
2, 11699, Note_on_c, 1, 77, 0
2, 11700, Note_on_c, 1, 69, 64
2, 11729, Note_on_c, 1, 69, 0
2, 11730, Note_on_c, 1, 72, 64
2, 11759, Note_on_c, 1, 72, 0
2, 11760, Note_on_c, 1, 70, 64
2, 11789, Note_on_c, 1, 70, 0
2, 11790, Note_on_c, 1, 74, 64
2, 11819, Note_on_c, 1, 74, 0
2, 11820, Note_on_c, 1, 72, 64
2, 11849, Note_on_c, 1, 72, 0
2, 11850, Note_on_c, 1, 75, 64
2, 11879, Note_on_c, 1, 75, 0
2, 11880, Note_on_c, 1, 74, 64
2, 11909, Note_on_c, 1, 74, 0
2, 11910, Note_on_c, 1, 77, 64
2, 11939, Note_on_c, 1, 77, 0
2, 11940, Note_on_c, 1, 69, 64
2, 11969, Note_on_c, 1, 69, 0
2, 11970, Note_on_c, 1, 72, 64
2, 11999, Note_on_c, 1, 72, 0
2, 12000, Note_on_c, 1, 70, 64
2, 12029, Note_on_c, 1, 70, 0
2, 12030, Note_on_c, 1, 72, 64
2, 12059, Note_on_c, 1, 72, 0
2, 12060, Note_on_c, 1, 69, 64
2, 12089, Note_on_c, 1, 69, 0
2, 12090, Note_on_c, 1, 72, 64
2, 12119, Note_on_c, 1, 72, 0
2, 12120, Note_on_c, 1, 70, 64
2, 12149, Note_on_c, 1, 70, 0
2, 12150, Note_on_c, 1, 74, 64
2, 12179, Note_on_c, 1, 74, 0
2, 12180, Note_on_c, 1, 72, 64
2, 12209, Note_on_c, 1, 72, 0
2, 12210, Note_on_c, 1, 70, 64
2, 12239, Note_on_c, 1, 70, 0
2, 12240, Note_on_c, 1, 69, 64
2, 12269, Note_on_c, 1, 69, 0
2, 12270, Note_on_c, 1, 70, 64
2, 12299, Note_on_c, 1, 70, 0
2, 12300, Note_on_c, 1, 69, 64
2, 12329, Note_on_c, 1, 69, 0
2, 12330, Note_on_c, 1, 67, 64
2, 12359, Note_on_c, 1, 67, 0
2, 12360, Note_on_c, 1, 65, 64
2, 12419, Note_on_c, 1, 65, 0
2, 12420, Note_on_c, 1, 67, 64
2, 12449, Note_on_c, 1, 67, 0
2, 12450, Note_on_c, 1, 69, 64
2, 12479, Note_on_c, 1, 69, 0
2, 12480, Note_on_c, 1, 70, 64
2, 12509, Note_on_c, 1, 70, 0
2, 12510, Note_on_c, 1, 74, 64
2, 12539, Note_on_c, 1, 74, 0
2, 12540, Note_on_c, 1, 72, 64
2, 12569, Note_on_c, 1, 72, 0
2, 12570, Note_on_c, 1, 75, 64
2, 12599, Note_on_c, 1, 75, 0
2, 12600, Note_on_c, 1, 74, 64
2, 12629, Note_on_c, 1, 74, 0
2, 12630, Note_on_c, 1, 77, 64
2, 12659, Note_on_c, 1, 77, 0
2, 12660, Note_on_c, 1, 69, 64
2, 12689, Note_on_c, 1, 69, 0
2, 12690, Note_on_c, 1, 72, 64
2, 12719, Note_on_c, 1, 72, 0
2, 12720, Note_on_c, 1, 70, 64
2, 12749, Note_on_c, 1, 70, 0
2, 12750, Note_on_c, 1, 74, 64
2, 12779, Note_on_c, 1, 74, 0
2, 12780, Note_on_c, 1, 72, 64
2, 12809, Note_on_c, 1, 72, 0
2, 12810, Note_on_c, 1, 75, 64
2, 12839, Note_on_c, 1, 75, 0
2, 12840, Note_on_c, 1, 74, 64
2, 12869, Note_on_c, 1, 74, 0
2, 12870, Note_on_c, 1, 77, 64
2, 12899, Note_on_c, 1, 77, 0
2, 12900, Note_on_c, 1, 69, 64
2, 12929, Note_on_c, 1, 69, 0
2, 12930, Note_on_c, 1, 72, 64
2, 12959, Note_on_c, 1, 72, 0
2, 12960, Note_on_c, 1, 70, 64
2, 12989, Note_on_c, 1, 70, 0
2, 12990, Note_on_c, 1, 72, 64
2, 13019, Note_on_c, 1, 72, 0
2, 13020, Note_on_c, 1, 69, 64
2, 13049, Note_on_c, 1, 69, 0
2, 13050, Note_on_c, 1, 72, 64
2, 13079, Note_on_c, 1, 72, 0
2, 13080, Note_on_c, 1, 70, 64
2, 13109, Note_on_c, 1, 70, 0
2, 13110, Note_on_c, 1, 74, 64
2, 13139, Note_on_c, 1, 74, 0
2, 13140, Note_on_c, 1, 72, 64
2, 13169, Note_on_c, 1, 72, 0
2, 13170, Note_on_c, 1, 70, 64
2, 13199, Note_on_c, 1, 70, 0
2, 13200, Note_on_c, 1, 69, 64
2, 13229, Note_on_c, 1, 69, 0
2, 13230, Note_on_c, 1, 70, 64
2, 13259, Note_on_c, 1, 70, 0
2, 13260, Note_on_c, 1, 69, 64
2, 13289, Note_on_c, 1, 69, 0
2, 13290, Note_on_c, 1, 67, 64
2, 13319, Note_on_c, 1, 67, 0
2, 13320, Note_on_c, 1, 65, 64
2, 13379, Note_on_c, 1, 65, 0
2, 13380, Note_on_c, 1, 67, 64
2, 13409, Note_on_c, 1, 67, 0
2, 13410, Note_on_c, 1, 69, 64
2, 13439, Note_on_c, 1, 69, 0
2, 13440, Note_on_c, 1, 70, 64
2, 13469, Note_on_c, 1, 70, 0
2, 13470, Note_on_c, 1, 72, 64
2, 13499, Note_on_c, 1, 72, 0
2, 13500, Note_on_c, 1, 69, 64
2, 13529, Note_on_c, 1, 69, 0
2, 13530, Note_on_c, 1, 72, 64
2, 13559, Note_on_c, 1, 72, 0
2, 13560, Note_on_c, 1, 70, 64
2, 13589, Note_on_c, 1, 70, 0
2, 13590, Note_on_c, 1, 72, 64
2, 13619, Note_on_c, 1, 72, 0
2, 13620, Note_on_c, 1, 65, 64
2, 13649, Note_on_c, 1, 65, 0
2, 13650, Note_on_c, 1, 68, 64
2, 13679, Note_on_c, 1, 68, 0
2, 13680, Note_on_c, 1, 67, 64
2, 13709, Note_on_c, 1, 67, 0
2, 13710, Note_on_c, 1, 68, 64
2, 13739, Note_on_c, 1, 68, 0
2, 13740, Note_on_c, 1, 65, 64
2, 13769, Note_on_c, 1, 65, 0
2, 13770, Note_on_c, 1, 68, 64
2, 13799, Note_on_c, 1, 68, 0
2, 13800, Note_on_c, 1, 67, 64
2, 13859, Note_on_c, 1, 67, 0
2, 13860, Note_on_c, 1, 69, 64
2, 13889, Note_on_c, 1, 69, 0
2, 13890, Note_on_c, 1, 70, 64
2, 13919, Note_on_c, 1, 70, 0
2, 13920, Note_on_c, 1, 72, 64
2, 13949, Note_on_c, 1, 72, 0
2, 13950, Note_on_c, 1, 74, 64
2, 13979, Note_on_c, 1, 74, 0
2, 13980, Note_on_c, 1, 70, 64
2, 14009, Note_on_c, 1, 70, 0
2, 14010, Note_on_c, 1, 74, 64
2, 14039, Note_on_c, 1, 74, 0
2, 14040, Note_on_c, 1, 72, 64
2, 14069, Note_on_c, 1, 72, 0
2, 14070, Note_on_c, 1, 74, 64
2, 14099, Note_on_c, 1, 74, 0
2, 14100, Note_on_c, 1, 67, 64
2, 14129, Note_on_c, 1, 67, 0
2, 14130, Note_on_c, 1, 70, 64
2, 14159, Note_on_c, 1, 70, 0
2, 14160, Note_on_c, 1, 69, 64
2, 14189, Note_on_c, 1, 69, 0
2, 14190, Note_on_c, 1, 70, 64
2, 14219, Note_on_c, 1, 70, 0
2, 14220, Note_on_c, 1, 67, 64
2, 14249, Note_on_c, 1, 67, 0
2, 14250, Note_on_c, 1, 70, 64
2, 14279, Note_on_c, 1, 70, 0
2, 14280, Note_on_c, 1, 69, 64
2, 14339, Note_on_c, 1, 69, 0
2, 14340, Note_on_c, 1, 70, 64
2, 14369, Note_on_c, 1, 70, 0
2, 14370, Note_on_c, 1, 72, 64
2, 14399, Note_on_c, 1, 72, 0
2, 14400, Note_on_c, 1, 74, 64
2, 14429, Note_on_c, 1, 74, 0
2, 14430, Note_on_c, 1, 75, 64
2, 14459, Note_on_c, 1, 75, 0
2, 14460, Note_on_c, 1, 72, 64
2, 14489, Note_on_c, 1, 72, 0
2, 14490, Note_on_c, 1, 75, 64
2, 14519, Note_on_c, 1, 75, 0
2, 14520, Note_on_c, 1, 74, 64
2, 14549, Note_on_c, 1, 74, 0
2, 14550, Note_on_c, 1, 75, 64
2, 14579, Note_on_c, 1, 75, 0
2, 14580, Note_on_c, 1, 69, 64
2, 14609, Note_on_c, 1, 69, 0
2, 14610, Note_on_c, 1, 72, 64
2, 14639, Note_on_c, 1, 72, 0
2, 14640, Note_on_c, 1, 70, 64
2, 14669, Note_on_c, 1, 70, 0
2, 14670, Note_on_c, 1, 72, 64
2, 14699, Note_on_c, 1, 72, 0
2, 14700, Note_on_c, 1, 74, 64
2, 14729, Note_on_c, 1, 74, 0
2, 14730, Note_on_c, 1, 75, 64
2, 14759, Note_on_c, 1, 75, 0
2, 14760, Note_on_c, 1, 72, 64
2, 14789, Note_on_c, 1, 72, 0
2, 14790, Note_on_c, 1, 74, 64
2, 14819, Note_on_c, 1, 74, 0
2, 14820, Note_on_c, 1, 75, 64
2, 14849, Note_on_c, 1, 75, 0
2, 14850, Note_on_c, 1, 77, 64
2, 14879, Note_on_c, 1, 77, 0
2, 14880, Note_on_c, 1, 74, 64
2, 14909, Note_on_c, 1, 74, 0
2, 14910, Note_on_c, 1, 77, 64
2, 14939, Note_on_c, 1, 77, 0
2, 14940, Note_on_c, 1, 79, 64
2, 14969, Note_on_c, 1, 79, 0
2, 14970, Note_on_c, 1, 74, 64
2, 14999, Note_on_c, 1, 74, 0
2, 15000, Note_on_c, 1, 75, 64
2, 15029, Note_on_c, 1, 75, 0
2, 15030, Note_on_c, 1, 72, 64
2, 15059, Note_on_c, 1, 72, 0
2, 15060, Note_on_c, 1, 77, 64
2, 15089, Note_on_c, 1, 77, 0
2, 15090, Note_on_c, 1, 75, 64
2, 15119, Note_on_c, 1, 75, 0
2, 15120, Note_on_c, 1, 74, 64
2, 15149, Note_on_c, 1, 74, 0
2, 15150, Note_on_c, 1, 70, 64
2, 15179, Note_on_c, 1, 70, 0
2, 15180, Note_on_c, 1, 75, 64
2, 15209, Note_on_c, 1, 75, 0
2, 15210, Note_on_c, 1, 74, 64
2, 15239, Note_on_c, 1, 74, 0
2, 15240, Note_on_c, 1, 72, 64
2, 15269, Note_on_c, 1, 72, 0
2, 15270, Note_on_c, 1, 69, 64
2, 15299, Note_on_c, 1, 69, 0
2, 15300, Note_on_c, 1, 74, 64
2, 15329, Note_on_c, 1, 74, 0
2, 15330, Note_on_c, 1, 72, 64
2, 15359, Note_on_c, 1, 72, 0
2, 15360, Note_on_c, 1, 70, 64
2, 15389, Note_on_c, 1, 70, 0
2, 15390, Note_on_c, 1, 67, 64
2, 15419, Note_on_c, 1, 67, 0
2, 15420, Note_on_c, 1, 72, 64
2, 15449, Note_on_c, 1, 72, 0
2, 15450, Note_on_c, 1, 70, 64
2, 15479, Note_on_c, 1, 70, 0
2, 15480, Note_on_c, 1, 69, 64
2, 15509, Note_on_c, 1, 69, 0
2, 15510, Note_on_c, 1, 65, 64
2, 15539, Note_on_c, 1, 65, 0
2, 15540, Note_on_c, 1, 70, 64
2, 15569, Note_on_c, 1, 70, 0
2, 15570, Note_on_c, 1, 69, 64
2, 15599, Note_on_c, 1, 69, 0
2, 15600, Note_on_c, 1, 67, 64
2, 15629, Note_on_c, 1, 67, 0
2, 15630, Note_on_c, 1, 69, 64
2, 15659, Note_on_c, 1, 69, 0
2, 15660, Note_on_c, 1, 70, 64
2, 15689, Note_on_c, 1, 70, 0
2, 15690, Note_on_c, 1, 72, 64
2, 15719, Note_on_c, 1, 72, 0
2, 15720, Note_on_c, 1, 70, 64
2, 15734, Note_on_c, 1, 70, 0
2, 15735, Note_on_c, 1, 69, 64
2, 15749, Note_on_c, 1, 69, 0
2, 15750, Note_on_c, 1, 70, 64
2, 15764, Note_on_c, 1, 70, 0
2, 15765, Note_on_c, 1, 69, 64
2, 15779, Note_on_c, 1, 69, 0
2, 15780, Note_on_c, 1, 70, 64
2, 15794, Note_on_c, 1, 70, 0
2, 15795, Note_on_c, 1, 69, 64
2, 15824, Note_on_c, 1, 69, 0
2, 15825, Note_on_c, 1, 70, 64
2, 15832, Note_on_c, 1, 70, 0
2, 15840, Note_on_c, 1, 70, 64
2, 15959, Note_on_c, 1, 70, 0
2, 16350, Note_on_c, 1, 65, 64
2, 16379, Note_on_c, 1, 65, 0
2, 16380, Note_on_c, 1, 70, 64
2, 16409, Note_on_c, 1, 70, 0
2, 16410, Note_on_c, 1, 74, 64
2, 16439, Note_on_c, 1, 74, 0
2, 16440, Note_on_c, 1, 77, 64
2, 16469, Note_on_c, 1, 77, 0
2, 16470, Note_on_c, 1, 74, 64
2, 16499, Note_on_c, 1, 74, 0
2, 16500, Note_on_c, 1, 70, 64
2, 16529, Note_on_c, 1, 70, 0
2, 16530, Note_on_c, 1, 65, 64
2, 16559, Note_on_c, 1, 65, 0
2, 16560, Note_on_c, 1, 67, 64
2, 16589, Note_on_c, 1, 67, 0
2, 16590, Note_on_c, 1, 68, 64
2, 16619, Note_on_c, 1, 68, 0
2, 16620, Note_on_c, 1, 65, 64
2, 16649, Note_on_c, 1, 65, 0
2, 16650, Note_on_c, 1, 68, 64
2, 16679, Note_on_c, 1, 68, 0
2, 16680, Note_on_c, 1, 67, 64
2, 16709, Note_on_c, 1, 67, 0
2, 16710, Note_on_c, 1, 70, 64
2, 16739, Note_on_c, 1, 70, 0
2, 16740, Note_on_c, 1, 69, 64
2, 16769, Note_on_c, 1, 69, 0
2, 16770, Note_on_c, 1, 72, 64
2, 16799, Note_on_c, 1, 72, 0
2, 16800, Note_on_c, 1, 70, 64
2, 16829, Note_on_c, 1, 70, 0
2, 16830, Note_on_c, 1, 72, 64
2, 16859, Note_on_c, 1, 72, 0
2, 16860, Note_on_c, 1, 69, 64
2, 16889, Note_on_c, 1, 69, 0
2, 16890, Note_on_c, 1, 72, 64
2, 16919, Note_on_c, 1, 72, 0
2, 16920, Note_on_c, 1, 70, 64
2, 16949, Note_on_c, 1, 70, 0
2, 16950, Note_on_c, 1, 74, 64
2, 16979, Note_on_c, 1, 74, 0
2, 16980, Note_on_c, 1, 72, 64
2, 17009, Note_on_c, 1, 72, 0
2, 17010, Note_on_c, 1, 75, 64
2, 17039, Note_on_c, 1, 75, 0
2, 17040, Note_on_c, 1, 74, 64
2, 17040, Note_on_c, 1, 65, 64
2, 17099, Note_on_c, 1, 65, 0
2, 17099, Note_on_c, 1, 74, 0
2, 17100, Note_on_c, 1, 67, 64
2, 17100, Note_on_c, 1, 72, 64
2, 17129, Note_on_c, 1, 72, 0
2, 17130, Note_on_c, 1, 70, 64
2, 17144, Note_on_c, 1, 70, 0
2, 17159, Note_on_c, 1, 67, 0
2, 17160, Note_on_c, 1, 70, 64
2, 17174, Note_on_c, 1, 70, 0
2, 17175, Note_on_c, 1, 69, 64
2, 17189, Note_on_c, 1, 69, 0
2, 17190, Note_on_c, 1, 70, 64
2, 17204, Note_on_c, 1, 70, 0
2, 17205, Note_on_c, 1, 69, 64
2, 17219, Note_on_c, 1, 69, 0
2, 17220, Note_on_c, 1, 70, 64
2, 17234, Note_on_c, 1, 70, 0
2, 17235, Note_on_c, 1, 69, 64
2, 17264, Note_on_c, 1, 69, 0
2, 17265, Note_on_c, 1, 70, 64
2, 17272, Note_on_c, 1, 70, 0
2, 17280, Note_on_c, 1, 65, 64
2, 17280, Note_on_c, 1, 70, 64
2, 17519, Note_on_c, 1, 70, 0
2, 17519, Note_on_c, 1, 65, 0
2, 17520, Note_on_c, 1, 65, 64
2, 17639, Note_on_c, 1, 65, 0
2, 17640, Note_on_c, 1, 70, 64
2, 17699, Note_on_c, 1, 70, 0
2, 17700, Note_on_c, 1, 69, 64
2, 17729, Note_on_c, 1, 69, 0
2, 17730, Note_on_c, 1, 70, 64
2, 17759, Note_on_c, 1, 70, 0
2, 17760, Note_on_c, 1, 67, 64
2, 17939, Note_on_c, 1, 67, 0
2, 17940, Note_on_c, 1, 72, 64
2, 17999, Note_on_c, 1, 72, 0
2, 18000, Note_on_c, 1, 69, 64
2, 18059, Note_on_c, 1, 69, 0
2, 18060, Note_on_c, 1, 67, 64
2, 18089, Note_on_c, 1, 67, 0
2, 18090, Note_on_c, 1, 69, 64
2, 18119, Note_on_c, 1, 69, 0
2, 18120, Note_on_c, 1, 65, 64
2, 18299, Note_on_c, 1, 65, 0
2, 18300, Note_on_c, 1, 70, 64
2, 18359, Note_on_c, 1, 70, 0
2, 18360, Note_on_c, 1, 63, 64
2, 18419, Note_on_c, 1, 63, 0
2, 18420, Note_on_c, 1, 70, 64
2, 18479, Note_on_c, 1, 70, 0
2, 18480, Note_on_c, 1, 63, 64
2, 18539, Note_on_c, 1, 63, 0
2, 18540, Note_on_c, 1, 70, 64
2, 18599, Note_on_c, 1, 70, 0
2, 18600, Note_on_c, 1, 63, 64
2, 18659, Note_on_c, 1, 63, 0
2, 18660, Note_on_c, 1, 70, 64
2, 18719, Note_on_c, 1, 70, 0
2, 18720, Note_on_c, 1, 62, 64
2, 18779, Note_on_c, 1, 62, 0
2, 18780, Note_on_c, 1, 70, 64
2, 18839, Note_on_c, 1, 70, 0
2, 18840, Note_on_c, 1, 62, 64
2, 18899, Note_on_c, 1, 62, 0
2, 18900, Note_on_c, 1, 70, 64
2, 18959, Note_on_c, 1, 70, 0
2, 18960, Note_on_c, 1, 62, 64
2, 19019, Note_on_c, 1, 62, 0
2, 19020, Note_on_c, 1, 70, 64
2, 19079, Note_on_c, 1, 70, 0
2, 19080, Note_on_c, 1, 60, 64
2, 19139, Note_on_c, 1, 60, 0
2, 19140, Note_on_c, 1, 62, 64
2, 19169, Note_on_c, 1, 62, 0
2, 19170, Note_on_c, 1, 63, 64
2, 19199, Note_on_c, 1, 63, 0
2, 19200, Note_on_c, 1, 65, 64
2, 19259, Note_on_c, 1, 65, 0
2, 19260, Note_on_c, 1, 63, 64
2, 19319, Note_on_c, 1, 63, 0
2, 19320, Note_on_c, 1, 62, 64
2, 19379, Note_on_c, 1, 62, 0
2, 19380, Note_on_c, 1, 60, 64
2, 19439, Note_on_c, 1, 60, 0
2, 19440, Note_on_c, 1, 62, 64
2, 19499, Note_on_c, 1, 62, 0
2, 19500, Note_on_c, 1, 65, 64
2, 19559, Note_on_c, 1, 65, 0
2, 19560, Note_on_c, 1, 67, 64
2, 19619, Note_on_c, 1, 67, 0
2, 19620, Note_on_c, 1, 69, 64
2, 19679, Note_on_c, 1, 69, 0
2, 19680, Note_on_c, 1, 70, 64
2, 19739, Note_on_c, 1, 70, 0
2, 19740, Note_on_c, 1, 72, 64
2, 19799, Note_on_c, 1, 72, 0
2, 19800, Note_on_c, 1, 69, 64
2, 19919, Note_on_c, 1, 69, 0
2, 19980, Note_on_c, 1, 74, 64
2, 20009, Note_on_c, 1, 74, 0
2, 20010, Note_on_c, 1, 72, 64
2, 20039, Note_on_c, 1, 72, 0
2, 20040, Note_on_c, 1, 70, 64
2, 20159, Note_on_c, 1, 70, 0
2, 20160, Note_on_c, 1, 72, 64
2, 20279, Note_on_c, 1, 72, 0
2, 20340, Note_on_c, 1, 72, 64
2, 20369, Note_on_c, 1, 72, 0
2, 20370, Note_on_c, 1, 70, 64
2, 20399, Note_on_c, 1, 70, 0
2, 20400, Note_on_c, 1, 69, 64
2, 20519, Note_on_c, 1, 69, 0
2, 20520, Note_on_c, 1, 70, 64
2, 20579, Note_on_c, 1, 70, 0
2, 20580, Note_on_c, 1, 74, 64
2, 20639, Note_on_c, 1, 74, 0
2, 20640, Note_on_c, 1, 70, 64
2, 20699, Note_on_c, 1, 70, 0
2, 20700, Note_on_c, 1, 74, 64
2, 20759, Note_on_c, 1, 74, 0
2, 20760, Note_on_c, 1, 70, 64
2, 20819, Note_on_c, 1, 70, 0
2, 20820, Note_on_c, 1, 74, 64
2, 20879, Note_on_c, 1, 74, 0
2, 20880, Note_on_c, 1, 72, 64
2, 20939, Note_on_c, 1, 72, 0
2, 20940, Note_on_c, 1, 77, 64
2, 20999, Note_on_c, 1, 77, 0
2, 21000, Note_on_c, 1, 72, 64
2, 21059, Note_on_c, 1, 72, 0
2, 21060, Note_on_c, 1, 77, 64
2, 21119, Note_on_c, 1, 77, 0
2, 21120, Note_on_c, 1, 72, 64
2, 21179, Note_on_c, 1, 72, 0
2, 21180, Note_on_c, 1, 77, 64
2, 21209, Note_on_c, 1, 77, 0
2, 21240, Note_on_c, 1, 77, 64
2, 21359, Note_on_c, 1, 77, 0
2, 21360, Note_on_c, 1, 76, 64
2, 21599, Note_on_c, 1, 76, 0
2, 21600, Note_on_c, 1, 77, 64
2, 21659, Note_on_c, 1, 77, 0
2, 21660, Note_on_c, 1, 75, 64
2, 21689, Note_on_c, 1, 75, 0
2, 21690, Note_on_c, 1, 74, 64
2, 21719, Note_on_c, 1, 74, 0
2, 21720, Note_on_c, 1, 72, 64
2, 21779, Note_on_c, 1, 72, 0
2, 21780, Note_on_c, 1, 74, 64
2, 21780, Note_on_c, 1, 70, 64
2, 21839, Note_on_c, 1, 70, 0
2, 21839, Note_on_c, 1, 74, 0
2, 21840, Note_on_c, 1, 75, 64
2, 21840, Note_on_c, 1, 72, 64
2, 21899, Note_on_c, 1, 72, 0
2, 21899, Note_on_c, 1, 75, 0
2, 21900, Note_on_c, 1, 72, 64
2, 21900, Note_on_c, 1, 69, 64
2, 21959, Note_on_c, 1, 69, 0
2, 21959, Note_on_c, 1, 72, 0
2, 21960, Note_on_c, 1, 74, 64
2, 21960, Note_on_c, 1, 65, 64
2, 22019, Note_on_c, 1, 74, 0
2, 22020, Note_on_c, 1, 72, 64
2, 22049, Note_on_c, 1, 72, 0
2, 22050, Note_on_c, 1, 74, 64
2, 22079, Note_on_c, 1, 74, 0
2, 22079, Note_on_c, 1, 65, 0
2, 22080, Note_on_c, 1, 67, 64
2, 22080, Note_on_c, 1, 70, 64
2, 22139, Note_on_c, 1, 70, 0
2, 22139, Note_on_c, 1, 67, 0
2, 22140, Note_on_c, 1, 65, 64
2, 22140, Note_on_c, 1, 69, 64
2, 22199, Note_on_c, 1, 69, 0
2, 22199, Note_on_c, 1, 65, 0
2, 22200, Note_on_c, 1, 67, 64
2, 22200, Note_on_c, 1, 64, 64
2, 22319, Note_on_c, 1, 64, 0
2, 22319, Note_on_c, 1, 67, 0
2, 22320, Note_on_c, 1, 72, 64
2, 22320, Note_on_c, 1, 65, 64
2, 22379, Note_on_c, 1, 72, 0
2, 22380, Note_on_c, 1, 70, 64
2, 22409, Note_on_c, 1, 70, 0
2, 22410, Note_on_c, 1, 72, 64
2, 22439, Note_on_c, 1, 72, 0
2, 22439, Note_on_c, 1, 65, 0
2, 22440, Note_on_c, 1, 65, 64
2, 22440, Note_on_c, 1, 69, 64
2, 22499, Note_on_c, 1, 69, 0
2, 22499, Note_on_c, 1, 65, 0
2, 22500, Note_on_c, 1, 67, 64
2, 22500, Note_on_c, 1, 63, 64
2, 22559, Note_on_c, 1, 63, 0
2, 22559, Note_on_c, 1, 67, 0
2, 22560, Note_on_c, 1, 65, 64
2, 22560, Note_on_c, 1, 62, 64
2, 22679, Note_on_c, 1, 62, 0
2, 22679, Note_on_c, 1, 65, 0
2, 22680, Note_on_c, 1, 67, 64
2, 22680, Note_on_c, 1, 63, 64
2, 22785, Note_on_c, 1, 63, 0
2, 22799, Note_on_c, 1, 67, 0
2, 22800, Note_on_c, 1, 63, 64
2, 22800, Note_on_c, 1, 67, 64
2, 22905, Note_on_c, 1, 67, 0
2, 22905, Note_on_c, 1, 63, 0
2, 22920, Note_on_c, 1, 67, 64
2, 22920, Note_on_c, 1, 63, 64
2, 23025, Note_on_c, 1, 63, 0
2, 23025, Note_on_c, 1, 67, 0
2, 23040, Note_on_c, 1, 65, 64
2, 23040, Note_on_c, 1, 70, 64
2, 23099, Note_on_c, 1, 65, 0
2, 23100, Note_on_c, 1, 62, 64
2, 23145, Note_on_c, 1, 70, 0
2, 23159, Note_on_c, 1, 62, 0
2, 23160, Note_on_c, 1, 70, 64
2, 23160, Note_on_c, 1, 65, 64
2, 23219, Note_on_c, 1, 65, 0
2, 23220, Note_on_c, 1, 62, 64
2, 23265, Note_on_c, 1, 70, 0
2, 23279, Note_on_c, 1, 62, 0
2, 23280, Note_on_c, 1, 65, 64
2, 23280, Note_on_c, 1, 70, 64
2, 23339, Note_on_c, 1, 65, 0
2, 23340, Note_on_c, 1, 62, 64
2, 23399, Note_on_c, 1, 62, 0
2, 23400, Note_on_c, 1, 63, 64
2, 23519, Note_on_c, 1, 70, 0
2, 23520, Note_on_c, 1, 69, 64
2, 23579, Note_on_c, 1, 63, 0
2, 23580, Note_on_c, 1, 62, 64
2, 23609, Note_on_c, 1, 62, 0
2, 23610, Note_on_c, 1, 60, 64
2, 23639, Note_on_c, 1, 60, 0
2, 23639, Note_on_c, 1, 69, 0
2, 23640, Note_on_c, 1, 72, 64
2, 23640, Note_on_c, 1, 65, 64
2, 23699, Note_on_c, 1, 65, 0
2, 23819, Note_on_c, 1, 72, 0
2, 23820, Note_on_c, 1, 70, 64
2, 23849, Note_on_c, 1, 70, 0
2, 23850, Note_on_c, 1, 69, 64
2, 23879, Note_on_c, 1, 69, 0
2, 23880, Note_on_c, 1, 70, 64
2, 23939, Note_on_c, 1, 70, 0
2, 23940, Note_on_c, 1, 72, 64
2, 23999, Note_on_c, 1, 72, 0
2, 24000, Note_on_c, 1, 74, 64
2, 24059, Note_on_c, 1, 74, 0
2, 24060, Note_on_c, 1, 75, 64
2, 24119, Note_on_c, 1, 75, 0
2, 24120, Note_on_c, 1, 72, 64
2, 24239, Note_on_c, 1, 72, 0
2, 24300, Note_on_c, 1, 74, 64
2, 24359, Note_on_c, 1, 74, 0
2, 24360, Note_on_c, 1, 72, 64
2, 24419, Note_on_c, 1, 72, 0
2, 24420, Note_on_c, 1, 71, 64
2, 24479, Note_on_c, 1, 71, 0
2, 24480, Note_on_c, 1, 72, 64
2, 24599, Note_on_c, 1, 72, 0
2, 24660, Note_on_c, 1, 72, 64
2, 24719, Note_on_c, 1, 72, 0
2, 24720, Note_on_c, 1, 70, 64
2, 24779, Note_on_c, 1, 70, 0
2, 24780, Note_on_c, 1, 69, 64
2, 24839, Note_on_c, 1, 69, 0
2, 24840, Note_on_c, 1, 70, 64
2, 24945, Note_on_c, 1, 70, 0
2, 24960, Note_on_c, 1, 70, 64
2, 25065, Note_on_c, 1, 70, 0
2, 25080, Note_on_c, 1, 70, 64
2, 25185, Note_on_c, 1, 70, 0
2, 25200, Note_on_c, 1, 72, 64
2, 25200, Note_on_c, 1, 65, 64
2, 25305, Note_on_c, 1, 65, 0
2, 25305, Note_on_c, 1, 72, 0
2, 25320, Note_on_c, 1, 72, 64
2, 25320, Note_on_c, 1, 65, 64
2, 25425, Note_on_c, 1, 65, 0
2, 25425, Note_on_c, 1, 72, 0
2, 25440, Note_on_c, 1, 72, 64
2, 25440, Note_on_c, 1, 65, 64
2, 25545, Note_on_c, 1, 72, 0
2, 25560, Note_on_c, 1, 70, 64
2, 25619, Note_on_c, 1, 65, 0
2, 25620, Note_on_c, 1, 64, 64
2, 25649, Note_on_c, 1, 64, 0
2, 25650, Note_on_c, 1, 65, 64
2, 25679, Note_on_c, 1, 65, 0
2, 25680, Note_on_c, 1, 67, 64
2, 25739, Note_on_c, 1, 67, 0
2, 25740, Note_on_c, 1, 65, 64
2, 25799, Note_on_c, 1, 65, 0
2, 25800, Note_on_c, 1, 64, 64
2, 25859, Note_on_c, 1, 64, 0
2, 25860, Note_on_c, 1, 62, 64
2, 25919, Note_on_c, 1, 62, 0
2, 25920, Note_on_c, 1, 64, 64
2, 25979, Note_on_c, 1, 70, 0
2, 25980, Note_on_c, 1, 69, 64
2, 26009, Note_on_c, 1, 69, 0
2, 26010, Note_on_c, 1, 70, 64
2, 26039, Note_on_c, 1, 70, 0
2, 26040, Note_on_c, 1, 72, 64
2, 26099, Note_on_c, 1, 72, 0
2, 26100, Note_on_c, 1, 70, 64
2, 26159, Note_on_c, 1, 70, 0
2, 26160, Note_on_c, 1, 69, 64
2, 26219, Note_on_c, 1, 69, 0
2, 26220, Note_on_c, 1, 67, 64
2, 26279, Note_on_c, 1, 67, 0
2, 26279, Note_on_c, 1, 64, 0
2, 26280, Note_on_c, 1, 69, 64
2, 26340, Note_on_c, 1, 60, 64
2, 26399, Note_on_c, 1, 60, 0
2, 26400, Note_on_c, 1, 65, 64
2, 26459, Note_on_c, 1, 65, 0
2, 26460, Note_on_c, 1, 67, 64
2, 26489, Note_on_c, 1, 67, 0
2, 26490, Note_on_c, 1, 65, 64
2, 26519, Note_on_c, 1, 65, 0
2, 26520, Note_on_c, 1, 63, 64
2, 26579, Note_on_c, 1, 63, 0
2, 26580, Note_on_c, 1, 65, 64
2, 26609, Note_on_c, 1, 65, 0
2, 26610, Note_on_c, 1, 63, 64
2, 26639, Note_on_c, 1, 63, 0
2, 26639, Note_on_c, 1, 69, 0
2, 26640, Note_on_c, 1, 62, 64
2, 26759, Note_on_c, 1, 62, 0
2, 26820, Note_on_c, 1, 70, 64
2, 26820, Note_on_c, 1, 67, 64
2, 26879, Note_on_c, 1, 67, 0
2, 26879, Note_on_c, 1, 70, 0
2, 26880, Note_on_c, 1, 69, 64
2, 26880, Note_on_c, 1, 65, 64
2, 26939, Note_on_c, 1, 65, 0
2, 26939, Note_on_c, 1, 69, 0
2, 26940, Note_on_c, 1, 67, 64
2, 26940, Note_on_c, 1, 64, 64
2, 26999, Note_on_c, 1, 64, 0
2, 26999, Note_on_c, 1, 67, 0
2, 27000, Note_on_c, 1, 65, 64
2, 27000, Note_on_c, 1, 72, 64
2, 27059, Note_on_c, 1, 72, 0
2, 27060, Note_on_c, 1, 70, 64
2, 27089, Note_on_c, 1, 70, 0
2, 27090, Note_on_c, 1, 72, 64
2, 27119, Note_on_c, 1, 72, 0
2, 27120, Note_on_c, 1, 69, 64
2, 27239, Note_on_c, 1, 69, 0
2, 27239, Note_on_c, 1, 65, 0
2, 27240, Note_on_c, 1, 70, 64
2, 27240, Note_on_c, 1, 65, 64
2, 27299, Note_on_c, 1, 70, 0
2, 27300, Note_on_c, 1, 72, 64
2, 27359, Note_on_c, 1, 72, 0
2, 27359, Note_on_c, 1, 65, 0
2, 27360, Note_on_c, 1, 74, 64
2, 27360, Note_on_c, 1, 70, 64
2, 27419, Note_on_c, 1, 70, 0
2, 27420, Note_on_c, 1, 69, 64
2, 27449, Note_on_c, 1, 69, 0
2, 27450, Note_on_c, 1, 70, 64
2, 27479, Note_on_c, 1, 70, 0
2, 27479, Note_on_c, 1, 74, 0
2, 27480, Note_on_c, 1, 75, 64
2, 27480, Note_on_c, 1, 67, 64
2, 27659, Note_on_c, 1, 67, 0
2, 27659, Note_on_c, 1, 75, 0
2, 27660, Note_on_c, 1, 75, 64
2, 27660, Note_on_c, 1, 72, 64
2, 27719, Note_on_c, 1, 75, 0
2, 27720, Note_on_c, 1, 69, 64
2, 27779, Note_on_c, 1, 69, 0
2, 27780, Note_on_c, 1, 67, 64
2, 27809, Note_on_c, 1, 67, 0
2, 27810, Note_on_c, 1, 69, 64
2, 27839, Note_on_c, 1, 69, 0
2, 27839, Note_on_c, 1, 72, 0
2, 27840, Note_on_c, 1, 74, 64
2, 27840, Note_on_c, 1, 65, 64
2, 28019, Note_on_c, 1, 65, 0
2, 28019, Note_on_c, 1, 74, 0
2, 28020, Note_on_c, 1, 74, 64
2, 28020, Note_on_c, 1, 70, 64
2, 28079, Note_on_c, 1, 70, 0
2, 28079, Note_on_c, 1, 74, 0
2, 28080, Note_on_c, 1, 67, 64
2, 28080, Note_on_c, 1, 63, 64
2, 28139, Note_on_c, 1, 63, 0
2, 28140, Note_on_c, 1, 70, 64
2, 28185, Note_on_c, 1, 67, 0
2, 28199, Note_on_c, 1, 70, 0
2, 28200, Note_on_c, 1, 67, 64
2, 28200, Note_on_c, 1, 63, 64
2, 28259, Note_on_c, 1, 63, 0
2, 28260, Note_on_c, 1, 70, 64
2, 28305, Note_on_c, 1, 67, 0
2, 28319, Note_on_c, 1, 70, 0
2, 28320, Note_on_c, 1, 67, 64
2, 28320, Note_on_c, 1, 63, 64
2, 28379, Note_on_c, 1, 63, 0
2, 28380, Note_on_c, 1, 70, 64
2, 28425, Note_on_c, 1, 67, 0
2, 28439, Note_on_c, 1, 70, 0
2, 28440, Note_on_c, 1, 65, 64
2, 28440, Note_on_c, 1, 62, 64
2, 28499, Note_on_c, 1, 62, 0
2, 28500, Note_on_c, 1, 70, 64
2, 28545, Note_on_c, 1, 65, 0
2, 28559, Note_on_c, 1, 70, 0
2, 28560, Note_on_c, 1, 65, 64
2, 28560, Note_on_c, 1, 62, 64
2, 28619, Note_on_c, 1, 62, 0
2, 28620, Note_on_c, 1, 70, 64
2, 28666, Note_on_c, 1, 65, 0
2, 28679, Note_on_c, 1, 70, 0
2, 28680, Note_on_c, 1, 62, 64
2, 28680, Note_on_c, 1, 65, 64
2, 28739, Note_on_c, 1, 62, 0
2, 28740, Note_on_c, 1, 70, 64
2, 28785, Note_on_c, 1, 65, 0
2, 28799, Note_on_c, 1, 70, 0
2, 28800, Note_on_c, 1, 67, 64
2, 28800, Note_on_c, 1, 60, 64
2, 28859, Note_on_c, 1, 60, 0
2, 28860, Note_on_c, 1, 70, 64
2, 28905, Note_on_c, 1, 67, 0
2, 28919, Note_on_c, 1, 70, 0
2, 28920, Note_on_c, 1, 67, 64
2, 28920, Note_on_c, 1, 60, 64
2, 28979, Note_on_c, 1, 60, 0
2, 28980, Note_on_c, 1, 70, 64
2, 29025, Note_on_c, 1, 67, 0
2, 29039, Note_on_c, 1, 70, 0
2, 29040, Note_on_c, 1, 67, 64
2, 29040, Note_on_c, 1, 60, 64
2, 29099, Note_on_c, 1, 60, 0
2, 29100, Note_on_c, 1, 70, 64
2, 29145, Note_on_c, 1, 67, 0
2, 29159, Note_on_c, 1, 70, 0
2, 29160, Note_on_c, 1, 65, 64
2, 29160, Note_on_c, 1, 60, 64
2, 29219, Note_on_c, 1, 60, 0
2, 29220, Note_on_c, 1, 69, 64
2, 29265, Note_on_c, 1, 65, 0
2, 29279, Note_on_c, 1, 69, 0
2, 29280, Note_on_c, 1, 65, 64
2, 29280, Note_on_c, 1, 60, 64
2, 29339, Note_on_c, 1, 60, 0
2, 29340, Note_on_c, 1, 69, 64
2, 29385, Note_on_c, 1, 65, 0
2, 29399, Note_on_c, 1, 69, 0
2, 29400, Note_on_c, 1, 65, 64
2, 29400, Note_on_c, 1, 60, 64
2, 29459, Note_on_c, 1, 60, 0
2, 29460, Note_on_c, 1, 69, 64
2, 29505, Note_on_c, 1, 65, 0
2, 29520, Note_on_c, 1, 62, 64
2, 29579, Note_on_c, 1, 69, 0
2, 29580, Note_on_c, 1, 67, 64
2, 29609, Note_on_c, 1, 67, 0
2, 29610, Note_on_c, 1, 66, 64
2, 29639, Note_on_c, 1, 66, 0
2, 29640, Note_on_c, 1, 67, 64
2, 29699, Note_on_c, 1, 67, 0
2, 29699, Note_on_c, 1, 62, 0
2, 29700, Note_on_c, 1, 66, 64
2, 29700, Note_on_c, 1, 69, 64
2, 29759, Note_on_c, 1, 69, 0
2, 29759, Note_on_c, 1, 66, 0
2, 29760, Note_on_c, 1, 70, 64
2, 29760, Note_on_c, 1, 67, 64
2, 29819, Note_on_c, 1, 70, 0
2, 29820, Note_on_c, 1, 72, 64
2, 29849, Note_on_c, 1, 72, 0
2, 29850, Note_on_c, 1, 70, 64
2, 29879, Note_on_c, 1, 70, 0
2, 29880, Note_on_c, 1, 69, 64
2, 30029, Note_on_c, 1, 67, 0
2, 30060, Note_on_c, 1, 67, 64
2, 30119, Note_on_c, 1, 67, 0
2, 30119, Note_on_c, 1, 69, 0
2, 30120, Note_on_c, 1, 70, 64
2, 30120, Note_on_c, 1, 66, 64
2, 30134, Note_on_c, 1, 70, 0
2, 30135, Note_on_c, 1, 69, 64
2, 30149, Note_on_c, 1, 69, 0
2, 30150, Note_on_c, 1, 70, 64
2, 30164, Note_on_c, 1, 70, 0
2, 30165, Note_on_c, 1, 69, 64
2, 30179, Note_on_c, 1, 69, 0
2, 30180, Note_on_c, 1, 70, 64
2, 30194, Note_on_c, 1, 70, 0
2, 30195, Note_on_c, 1, 69, 64
2, 30209, Note_on_c, 1, 69, 0
2, 30210, Note_on_c, 1, 70, 64
2, 30224, Note_on_c, 1, 70, 0
2, 30225, Note_on_c, 1, 69, 64
2, 30239, Note_on_c, 1, 69, 0
2, 30239, Note_on_c, 1, 66, 0
2, 30240, Note_on_c, 1, 67, 64
2, 30240, Note_on_c, 1, 62, 64
2, 30465, Note_on_c, 1, 67, 0
2, 30466, Note_on_c, 1, 62, 0
2, 30480, Note_on_c, 1, 67, 64
2, 30480, Note_on_c, 1, 62, 64
2, 30599, Note_on_c, 1, 62, 0
2, 30599, Note_on_c, 1, 67, 0
2, 30600, Note_on_c, 1, 74, 64
2, 30659, Note_on_c, 1, 74, 0
2, 30660, Note_on_c, 1, 72, 64
2, 30689, Note_on_c, 1, 72, 0
2, 30690, Note_on_c, 1, 74, 64
2, 30719, Note_on_c, 1, 74, 0
2, 30720, Note_on_c, 1, 70, 64
2, 30899, Note_on_c, 1, 70, 0
2, 30900, Note_on_c, 1, 75, 64
2, 30959, Note_on_c, 1, 75, 0
2, 30960, Note_on_c, 1, 72, 64
2, 31019, Note_on_c, 1, 72, 0
2, 31020, Note_on_c, 1, 70, 64
2, 31049, Note_on_c, 1, 70, 0
2, 31050, Note_on_c, 1, 72, 64
2, 31079, Note_on_c, 1, 72, 0
2, 31080, Note_on_c, 1, 69, 64
2, 31259, Note_on_c, 1, 69, 0
2, 31260, Note_on_c, 1, 74, 64
2, 31319, Note_on_c, 1, 74, 0
2, 31320, Note_on_c, 1, 70, 64
2, 31439, Note_on_c, 1, 70, 0
2, 31440, Note_on_c, 1, 72, 64
2, 31500, Note_on_c, 1, 67, 64
2, 31529, Note_on_c, 1, 67, 0
2, 31530, Note_on_c, 1, 65, 64
2, 31559, Note_on_c, 1, 65, 0
2, 31560, Note_on_c, 1, 63, 64
2, 31679, Note_on_c, 1, 63, 0
2, 31680, Note_on_c, 1, 62, 64
2, 31799, Note_on_c, 1, 62, 0
2, 31799, Note_on_c, 1, 72, 0
2, 31800, Note_on_c, 1, 71, 64
2, 31860, Note_on_c, 1, 65, 64
2, 31889, Note_on_c, 1, 65, 0
2, 31890, Note_on_c, 1, 63, 64
2, 31919, Note_on_c, 1, 63, 0
2, 31920, Note_on_c, 1, 62, 64
2, 32039, Note_on_c, 1, 62, 0
2, 32039, Note_on_c, 1, 71, 0
2, 32040, Note_on_c, 1, 63, 64
2, 32040, Note_on_c, 1, 72, 64
2, 32145, Note_on_c, 1, 72, 0
2, 32145, Note_on_c, 1, 63, 0
2, 32160, Note_on_c, 1, 72, 64
2, 32160, Note_on_c, 1, 63, 64
2, 32265, Note_on_c, 1, 63, 0
2, 32265, Note_on_c, 1, 72, 0
2, 32280, Note_on_c, 1, 72, 64
2, 32280, Note_on_c, 1, 63, 64
2, 32385, Note_on_c, 1, 63, 0
2, 32385, Note_on_c, 1, 72, 0
2, 32400, Note_on_c, 1, 74, 64
2, 32400, Note_on_c, 1, 62, 64
2, 32505, Note_on_c, 1, 62, 0
2, 32505, Note_on_c, 1, 74, 0
2, 32520, Note_on_c, 1, 67, 64
2, 32520, Note_on_c, 1, 74, 64
2, 32625, Note_on_c, 1, 74, 0
2, 32625, Note_on_c, 1, 67, 0
2, 32640, Note_on_c, 1, 74, 64
2, 32640, Note_on_c, 1, 67, 64
2, 32745, Note_on_c, 1, 74, 0
2, 32760, Note_on_c, 1, 72, 64
2, 32819, Note_on_c, 1, 67, 0
2, 32820, Note_on_c, 1, 66, 64
2, 32849, Note_on_c, 1, 66, 0
2, 32850, Note_on_c, 1, 67, 64
2, 32879, Note_on_c, 1, 67, 0
2, 32880, Note_on_c, 1, 69, 64
2, 32939, Note_on_c, 1, 69, 0
2, 32940, Note_on_c, 1, 67, 64
2, 32999, Note_on_c, 1, 67, 0
2, 33000, Note_on_c, 1, 66, 64
2, 33059, Note_on_c, 1, 66, 0
2, 33060, Note_on_c, 1, 64, 64
2, 33119, Note_on_c, 1, 64, 0
2, 33120, Note_on_c, 1, 66, 64
2, 33179, Note_on_c, 1, 72, 0
2, 33180, Note_on_c, 1, 70, 64
2, 33209, Note_on_c, 1, 70, 0
2, 33210, Note_on_c, 1, 72, 64
2, 33239, Note_on_c, 1, 72, 0
2, 33240, Note_on_c, 1, 74, 64
2, 33299, Note_on_c, 1, 74, 0
2, 33300, Note_on_c, 1, 72, 64
2, 33359, Note_on_c, 1, 72, 0
2, 33360, Note_on_c, 1, 70, 64
2, 33419, Note_on_c, 1, 70, 0
2, 33420, Note_on_c, 1, 69, 64
2, 33479, Note_on_c, 1, 69, 0
2, 33479, Note_on_c, 1, 66, 0
2, 33480, Note_on_c, 1, 70, 64
2, 33705, Note_on_c, 1, 70, 0
2, 33720, Note_on_c, 1, 70, 64
2, 33780, Note_on_c, 1, 74, 64
2, 33839, Note_on_c, 1, 74, 0
2, 33839, Note_on_c, 1, 70, 0
2, 33840, Note_on_c, 1, 77, 64
2, 33840, Note_on_c, 1, 72, 64
2, 33899, Note_on_c, 1, 77, 0
2, 33900, Note_on_c, 1, 75, 64
2, 33929, Note_on_c, 1, 75, 0
2, 33930, Note_on_c, 1, 77, 64
2, 33959, Note_on_c, 1, 77, 0
2, 33959, Note_on_c, 1, 72, 0
2, 33960, Note_on_c, 1, 74, 64
2, 34020, Note_on_c, 1, 72, 64
2, 34079, Note_on_c, 1, 72, 0
2, 34080, Note_on_c, 1, 70, 64
2, 34139, Note_on_c, 1, 74, 0
2, 34140, Note_on_c, 1, 79, 64
2, 34199, Note_on_c, 1, 79, 0
2, 34199, Note_on_c, 1, 70, 0
2, 34200, Note_on_c, 1, 75, 64
2, 34200, Note_on_c, 1, 72, 64
2, 34259, Note_on_c, 1, 75, 0
2, 34260, Note_on_c, 1, 74, 64
2, 34289, Note_on_c, 1, 74, 0
2, 34290, Note_on_c, 1, 75, 64
2, 34319, Note_on_c, 1, 75, 0
2, 34320, Note_on_c, 1, 67, 64
2, 34439, Note_on_c, 1, 67, 0
2, 34440, Note_on_c, 1, 69, 64
2, 34499, Note_on_c, 1, 72, 0
2, 34500, Note_on_c, 1, 77, 64
2, 34559, Note_on_c, 1, 77, 0
2, 34559, Note_on_c, 1, 69, 0
2, 34560, Note_on_c, 1, 70, 64
2, 34619, Note_on_c, 1, 70, 0
2, 34620, Note_on_c, 1, 77, 64
2, 34679, Note_on_c, 1, 77, 0
2, 34680, Note_on_c, 1, 70, 64
2, 34739, Note_on_c, 1, 70, 0
2, 34740, Note_on_c, 1, 77, 64
2, 34799, Note_on_c, 1, 77, 0
2, 34800, Note_on_c, 1, 70, 64
2, 34859, Note_on_c, 1, 70, 0
2, 34860, Note_on_c, 1, 77, 64
2, 34919, Note_on_c, 1, 77, 0
2, 34920, Note_on_c, 1, 69, 64
2, 34979, Note_on_c, 1, 69, 0
2, 34980, Note_on_c, 1, 77, 64
2, 35039, Note_on_c, 1, 77, 0
2, 35040, Note_on_c, 1, 69, 64
2, 35099, Note_on_c, 1, 69, 0
2, 35100, Note_on_c, 1, 77, 64
2, 35159, Note_on_c, 1, 77, 0
2, 35160, Note_on_c, 1, 69, 64
2, 35219, Note_on_c, 1, 69, 0
2, 35220, Note_on_c, 1, 77, 64
2, 35279, Note_on_c, 1, 77, 0
2, 35280, Note_on_c, 1, 67, 64
2, 35339, Note_on_c, 1, 67, 0
2, 35340, Note_on_c, 1, 77, 64
2, 35399, Note_on_c, 1, 77, 0
2, 35400, Note_on_c, 1, 67, 64
2, 35459, Note_on_c, 1, 67, 0
2, 35460, Note_on_c, 1, 77, 64
2, 35519, Note_on_c, 1, 77, 0
2, 35520, Note_on_c, 1, 67, 64
2, 35579, Note_on_c, 1, 67, 0
2, 35580, Note_on_c, 1, 77, 64
2, 35639, Note_on_c, 1, 77, 0
2, 35640, Note_on_c, 1, 67, 64
2, 35699, Note_on_c, 1, 67, 0
2, 35700, Note_on_c, 1, 75, 64
2, 35759, Note_on_c, 1, 75, 0
2, 35760, Note_on_c, 1, 67, 64
2, 35819, Note_on_c, 1, 67, 0
2, 35820, Note_on_c, 1, 75, 64
2, 35879, Note_on_c, 1, 75, 0
2, 35880, Note_on_c, 1, 67, 64
2, 35939, Note_on_c, 1, 67, 0
2, 35940, Note_on_c, 1, 75, 64
2, 35999, Note_on_c, 1, 75, 0
2, 36000, Note_on_c, 1, 65, 64
2, 36059, Note_on_c, 1, 65, 0
2, 36060, Note_on_c, 1, 75, 64
2, 36119, Note_on_c, 1, 75, 0
2, 36120, Note_on_c, 1, 65, 64
2, 36179, Note_on_c, 1, 65, 0
2, 36180, Note_on_c, 1, 75, 64
2, 36239, Note_on_c, 1, 75, 0
2, 36240, Note_on_c, 1, 65, 64
2, 36299, Note_on_c, 1, 65, 0
2, 36300, Note_on_c, 1, 75, 64
2, 36359, Note_on_c, 1, 75, 0
2, 36360, Note_on_c, 1, 65, 64
2, 36419, Note_on_c, 1, 65, 0
2, 36420, Note_on_c, 1, 74, 64
2, 36479, Note_on_c, 1, 74, 0
2, 36480, Note_on_c, 1, 65, 64
2, 36539, Note_on_c, 1, 65, 0
2, 36540, Note_on_c, 1, 74, 64
2, 36599, Note_on_c, 1, 74, 0
2, 36600, Note_on_c, 1, 65, 64
2, 36659, Note_on_c, 1, 65, 0
2, 36660, Note_on_c, 1, 74, 64
2, 36719, Note_on_c, 1, 74, 0
2, 36720, Note_on_c, 1, 65, 64
2, 36839, Note_on_c, 1, 65, 0
2, 36840, Note_on_c, 1, 70, 64
2, 36960, Note_on_c, 1, 63, 64
2, 37079, Note_on_c, 1, 63, 0
2, 37080, Note_on_c, 1, 65, 64
2, 37199, Note_on_c, 1, 70, 0
2, 37200, Note_on_c, 1, 69, 64
2, 37319, Note_on_c, 1, 65, 0
2, 37320, Note_on_c, 1, 65, 64
2, 37334, Note_on_c, 1, 65, 0
2, 37335, Note_on_c, 1, 63, 64
2, 37349, Note_on_c, 1, 63, 0
2, 37350, Note_on_c, 1, 65, 64
2, 37364, Note_on_c, 1, 65, 0
2, 37365, Note_on_c, 1, 63, 64
2, 37379, Note_on_c, 1, 63, 0
2, 37380, Note_on_c, 1, 65, 64
2, 37394, Note_on_c, 1, 65, 0
2, 37395, Note_on_c, 1, 63, 64
2, 37439, Note_on_c, 1, 63, 0
2, 37439, Note_on_c, 1, 69, 0
2, 37440, Note_on_c, 1, 70, 64
2, 37440, Note_on_c, 1, 65, 64
2, 38279, Note_on_c, 1, 65, 0
2, 38279, Note_on_c, 1, 70, 0
2, 38279, End_track
3, 0, Start_track
3, 0, Title_t, "Left Hand"
3, 0, Instrument_name_t, "Pipe Organ"
3, 720, Program_c, 1, 16
3, 720, Note_on_c, 1, 58, 64
3, 749, Note_on_c, 1, 58, 0
3, 750, Note_on_c, 1, 62, 64
3, 779, Note_on_c, 1, 62, 0
3, 780, Note_on_c, 1, 60, 64
3, 809, Note_on_c, 1, 60, 0
3, 810, Note_on_c, 1, 63, 64
3, 839, Note_on_c, 1, 63, 0
3, 840, Note_on_c, 1, 62, 64
3, 869, Note_on_c, 1, 62, 0
3, 870, Note_on_c, 1, 65, 64
3, 899, Note_on_c, 1, 65, 0
3, 900, Note_on_c, 1, 57, 64
3, 929, Note_on_c, 1, 57, 0
3, 930, Note_on_c, 1, 60, 64
3, 959, Note_on_c, 1, 60, 0
3, 960, Note_on_c, 1, 58, 64
3, 1019, Note_on_c, 1, 58, 0
3, 1020, Note_on_c, 1, 57, 64
3, 1079, Note_on_c, 1, 57, 0
3, 1080, Note_on_c, 1, 58, 64
3, 1139, Note_on_c, 1, 58, 0
3, 1140, Note_on_c, 1, 53, 64
3, 1199, Note_on_c, 1, 53, 0
3, 1200, Note_on_c, 1, 55, 64
3, 1259, Note_on_c, 1, 55, 0
3, 1260, Note_on_c, 1, 53, 64
3, 1319, Note_on_c, 1, 53, 0
3, 1320, Note_on_c, 1, 55, 64
3, 1379, Note_on_c, 1, 55, 0
3, 1380, Note_on_c, 1, 50, 64
3, 1439, Note_on_c, 1, 50, 0
3, 1440, Note_on_c, 1, 51, 64
3, 1499, Note_on_c, 1, 51, 0
3, 1500, Note_on_c, 1, 50, 64
3, 1559, Note_on_c, 1, 50, 0
3, 1560, Note_on_c, 1, 51, 64
3, 1619, Note_on_c, 1, 51, 0
3, 1620, Note_on_c, 1, 52, 64
3, 1679, Note_on_c, 1, 52, 0
3, 1680, Note_on_c, 1, 53, 64
3, 1739, Note_on_c, 1, 53, 0
3, 1740, Note_on_c, 1, 52, 64
3, 1799, Note_on_c, 1, 52, 0
3, 1800, Note_on_c, 1, 53, 64
3, 1859, Note_on_c, 1, 53, 0
3, 1860, Note_on_c, 1, 54, 64
3, 1919, Note_on_c, 1, 54, 0
3, 1920, Note_on_c, 1, 55, 64
3, 1979, Note_on_c, 1, 55, 0
3, 1980, Note_on_c, 1, 54, 64
3, 2039, Note_on_c, 1, 54, 0
3, 2040, Note_on_c, 1, 55, 64
3, 2069, Note_on_c, 1, 55, 0
3, 2100, Note_on_c, 1, 55, 64
3, 2159, Note_on_c, 1, 55, 0
3, 2160, Note_on_c, 1, 57, 64
3, 2219, Note_on_c, 1, 57, 0
3, 2220, Note_on_c, 1, 55, 64
3, 2279, Note_on_c, 1, 55, 0
3, 2280, Note_on_c, 1, 57, 64
3, 2339, Note_on_c, 1, 57, 0
3, 2340, Note_on_c, 1, 53, 64
3, 2399, Note_on_c, 1, 53, 0
3, 2400, Note_on_c, 1, 58, 64
3, 2459, Note_on_c, 1, 58, 0
3, 3360, Note_on_c, 1, 60, 64
3, 3419, Note_on_c, 1, 60, 0
3, 3420, Note_on_c, 1, 64, 64
3, 3479, Note_on_c, 1, 64, 0
3, 3480, Note_on_c, 1, 65, 64
3, 3539, Note_on_c, 1, 65, 0
3, 3540, Note_on_c, 1, 63, 64
3, 3599, Note_on_c, 1, 63, 0
3, 3630, Note_on_c, 1, 62, 64
3, 3659, Note_on_c, 1, 62, 0
3, 3660, Note_on_c, 1, 60, 64
3, 3689, Note_on_c, 1, 60, 0
3, 3690, Note_on_c, 1, 58, 64
3, 3719, Note_on_c, 1, 58, 0
3, 3720, Note_on_c, 1, 60, 64
3, 3779, Note_on_c, 1, 60, 0
3, 3780, Note_on_c, 1, 48, 64
3, 3839, Note_on_c, 1, 48, 0
3, 3840, Note_on_c, 1, 53, 64
3, 3869, Note_on_c, 1, 53, 0
3, 3900, Note_on_c, 1, 41, 64
3, 3959, Note_on_c, 1, 41, 0
3, 6720, Note_on_c, 1, 65, 64
3, 6720, Note_on_c, 1, 62, 64
3, 6720, Note_on_c, 1, 58, 64
3, 6749, Note_on_c, 1, 58, 0
3, 6749, Note_on_c, 1, 62, 0
3, 6749, Note_on_c, 1, 65, 0
3, 6780, Note_on_c, 1, 65, 64
3, 6780, Note_on_c, 1, 60, 64
3, 6780, Note_on_c, 1, 57, 64
3, 6809, Note_on_c, 1, 57, 0
3, 6809, Note_on_c, 1, 60, 0
3, 6809, Note_on_c, 1, 65, 0
3, 6840, Note_on_c, 1, 65, 64
3, 6840, Note_on_c, 1, 58, 64
3, 6899, Note_on_c, 1, 58, 0
3, 6899, Note_on_c, 1, 65, 0
3, 6900, Note_on_c, 1, 63, 64
3, 6900, Note_on_c, 1, 60, 64
3, 6959, Note_on_c, 1, 60, 0
3, 6959, Note_on_c, 1, 63, 0
3, 6960, Note_on_c, 1, 65, 64
3, 6960, Note_on_c, 1, 62, 64
3, 6989, Note_on_c, 1, 62, 0
3, 6989, Note_on_c, 1, 65, 0
3, 7020, Note_on_c, 1, 65, 64
3, 7020, Note_on_c, 1, 60, 64
3, 7020, Note_on_c, 1, 57, 64
3, 7049, Note_on_c, 1, 57, 0
3, 7049, Note_on_c, 1, 60, 0
3, 7049, Note_on_c, 1, 65, 0
3, 7080, Note_on_c, 1, 65, 64
3, 7080, Note_on_c, 1, 58, 64
3, 7139, Note_on_c, 1, 58, 0
3, 7139, Note_on_c, 1, 65, 0
3, 7140, Note_on_c, 1, 60, 64
3, 7140, Note_on_c, 1, 63, 64
3, 7199, Note_on_c, 1, 63, 0
3, 7199, Note_on_c, 1, 60, 0
3, 7200, Note_on_c, 1, 65, 64
3, 7200, Note_on_c, 1, 62, 64
3, 7319, Note_on_c, 1, 62, 0
3, 7319, Note_on_c, 1, 65, 0
3, 7380, Note_on_c, 1, 67, 64
3, 7380, Note_on_c, 1, 60, 64
3, 7409, Note_on_c, 1, 60, 0
3, 7439, Note_on_c, 1, 67, 0
3, 7440, Note_on_c, 1, 65, 64
3, 7440, Note_on_c, 1, 60, 64
3, 7559, Note_on_c, 1, 60, 0
3, 7559, Note_on_c, 1, 65, 0
3, 7590, Note_on_c, 1, 63, 64
3, 7619, Note_on_c, 1, 63, 0
3, 7620, Note_on_c, 1, 62, 64
3, 7649, Note_on_c, 1, 62, 0
3, 7650, Note_on_c, 1, 60, 64
3, 7679, Note_on_c, 1, 60, 0
3, 7680, Note_on_c, 1, 65, 64
3, 7680, Note_on_c, 1, 62, 64
3, 7680, Note_on_c, 1, 58, 64
3, 7709, Note_on_c, 1, 58, 0
3, 7709, Note_on_c, 1, 62, 0
3, 7709, Note_on_c, 1, 65, 0
3, 7740, Note_on_c, 1, 65, 64
3, 7740, Note_on_c, 1, 60, 64
3, 7740, Note_on_c, 1, 57, 64
3, 7769, Note_on_c, 1, 57, 0
3, 7769, Note_on_c, 1, 60, 0
3, 7769, Note_on_c, 1, 65, 0
3, 7800, Note_on_c, 1, 65, 64
3, 7800, Note_on_c, 1, 58, 64
3, 7859, Note_on_c, 1, 58, 0
3, 7859, Note_on_c, 1, 65, 0
3, 7860, Note_on_c, 1, 63, 64
3, 7860, Note_on_c, 1, 60, 64
3, 7919, Note_on_c, 1, 60, 0
3, 7919, Note_on_c, 1, 63, 0
3, 7920, Note_on_c, 1, 65, 64
3, 7920, Note_on_c, 1, 62, 64
3, 7949, Note_on_c, 1, 62, 0
3, 7949, Note_on_c, 1, 65, 0
3, 7980, Note_on_c, 1, 65, 64
3, 7980, Note_on_c, 1, 57, 64
3, 7980, Note_on_c, 1, 60, 64
3, 8009, Note_on_c, 1, 60, 0
3, 8009, Note_on_c, 1, 57, 0
3, 8009, Note_on_c, 1, 65, 0
3, 8040, Note_on_c, 1, 65, 64
3, 8040, Note_on_c, 1, 58, 64
3, 8099, Note_on_c, 1, 58, 0
3, 8099, Note_on_c, 1, 65, 0
3, 8100, Note_on_c, 1, 63, 64
3, 8100, Note_on_c, 1, 60, 64
3, 8159, Note_on_c, 1, 60, 0
3, 8159, Note_on_c, 1, 63, 0
3, 8160, Note_on_c, 1, 65, 64
3, 8160, Note_on_c, 1, 62, 64
3, 8279, Note_on_c, 1, 62, 0
3, 8279, Note_on_c, 1, 65, 0
3, 8340, Note_on_c, 1, 67, 64
3, 8340, Note_on_c, 1, 60, 64
3, 8369, Note_on_c, 1, 60, 0
3, 8399, Note_on_c, 1, 67, 0
3, 8400, Note_on_c, 1, 65, 64
3, 8400, Note_on_c, 1, 60, 64
3, 8519, Note_on_c, 1, 60, 0
3, 8519, Note_on_c, 1, 65, 0
3, 8550, Note_on_c, 1, 63, 64
3, 8579, Note_on_c, 1, 63, 0
3, 8580, Note_on_c, 1, 62, 64
3, 8609, Note_on_c, 1, 62, 0
3, 8610, Note_on_c, 1, 60, 64
3, 8639, Note_on_c, 1, 60, 0
3, 8640, Note_on_c, 1, 65, 64
3, 8640, Note_on_c, 1, 58, 64
3, 8759, Note_on_c, 1, 58, 0
3, 8759, Note_on_c, 1, 65, 0
3, 8820, Note_on_c, 1, 65, 64
3, 8820, Note_on_c, 1, 58, 64
3, 8849, Note_on_c, 1, 58, 0
3, 8849, Note_on_c, 1, 65, 0
3, 8880, Note_on_c, 1, 63, 64
3, 8880, Note_on_c, 1, 58, 64
3, 8999, Note_on_c, 1, 58, 0
3, 8999, Note_on_c, 1, 63, 0
3, 9030, Note_on_c, 1, 65, 64
3, 9059, Note_on_c, 1, 65, 0
3, 9060, Note_on_c, 1, 63, 64
3, 9089, Note_on_c, 1, 63, 0
3, 9090, Note_on_c, 1, 62, 64
3, 9119, Note_on_c, 1, 62, 0
3, 9120, Note_on_c, 1, 67, 64
3, 9120, Note_on_c, 1, 60, 64
3, 9239, Note_on_c, 1, 60, 0
3, 9239, Note_on_c, 1, 67, 0
3, 9300, Note_on_c, 1, 67, 64
3, 9300, Note_on_c, 1, 60, 64
3, 9329, Note_on_c, 1, 60, 0
3, 9359, Note_on_c, 1, 67, 0
3, 9360, Note_on_c, 1, 65, 64
3, 9360, Note_on_c, 1, 60, 64
3, 9479, Note_on_c, 1, 60, 0
3, 9479, Note_on_c, 1, 65, 0
3, 9510, Note_on_c, 1, 67, 64
3, 9539, Note_on_c, 1, 67, 0
3, 9540, Note_on_c, 1, 65, 64
3, 9569, Note_on_c, 1, 65, 0
3, 9570, Note_on_c, 1, 63, 64
3, 9599, Note_on_c, 1, 63, 0
3, 9600, Note_on_c, 1, 62, 64
3, 9600, Note_on_c, 1, 69, 64
3, 9719, Note_on_c, 1, 69, 0
3, 9719, Note_on_c, 1, 62, 0
3, 9780, Note_on_c, 1, 69, 64
3, 9780, Note_on_c, 1, 62, 64
3, 9809, Note_on_c, 1, 62, 0
3, 9839, Note_on_c, 1, 69, 0
3, 9840, Note_on_c, 1, 67, 64
3, 9840, Note_on_c, 1, 62, 64
3, 9899, Note_on_c, 1, 62, 0
3, 9899, Note_on_c, 1, 67, 0
3, 9960, Note_on_c, 1, 65, 64
3, 9960, Note_on_c, 1, 60, 64
3, 10019, Note_on_c, 1, 60, 0
3, 10019, Note_on_c, 1, 65, 0
3, 10080, Note_on_c, 1, 65, 64
3, 10080, Note_on_c, 1, 62, 64
3, 10199, Note_on_c, 1, 62, 0
3, 10199, Note_on_c, 1, 65, 0
3, 10200, Note_on_c, 1, 67, 64
3, 10200, Note_on_c, 1, 60, 64
3, 10259, Note_on_c, 1, 67, 0
3, 10260, Note_on_c, 1, 65, 64
3, 10319, Note_on_c, 1, 60, 0
3, 10320, Note_on_c, 1, 58, 64
3, 10379, Note_on_c, 1, 65, 0
3, 10380, Note_on_c, 1, 63, 64
3, 10439, Note_on_c, 1, 58, 0
3, 10440, Note_on_c, 1, 57, 64
3, 10499, Note_on_c, 1, 63, 0
3, 10500, Note_on_c, 1, 62, 64
3, 10559, Note_on_c, 1, 57, 0
3, 10560, Note_on_c, 1, 55, 64
3, 10619, Note_on_c, 1, 62, 0
3, 10620, Note_on_c, 1, 60, 64
3, 10679, Note_on_c, 1, 55, 0
3, 10680, Note_on_c, 1, 53, 64
3, 10739, Note_on_c, 1, 60, 0
3, 10740, Note_on_c, 1, 58, 64
3, 10799, Note_on_c, 1, 53, 0
3, 10800, Note_on_c, 1, 55, 64
3, 10859, Note_on_c, 1, 58, 0
3, 10860, Note_on_c, 1, 60, 64
3, 10889, Note_on_c, 1, 60, 0
3, 10919, Note_on_c, 1, 55, 0
3, 10920, Note_on_c, 1, 60, 64
3, 10920, Note_on_c, 1, 53, 64
3, 11039, Note_on_c, 1, 60, 0
3, 11040, Note_on_c, 1, 62, 64
3, 11159, Note_on_c, 1, 62, 0
3, 11159, Note_on_c, 1, 53, 0
3, 11520, Note_on_c, 1, 65, 64
3, 11520, Note_on_c, 1, 62, 64
3, 11520, Note_on_c, 1, 58, 64
3, 11549, Note_on_c, 1, 58, 0
3, 11549, Note_on_c, 1, 62, 0
3, 11549, Note_on_c, 1, 65, 0
3, 11580, Note_on_c, 1, 65, 64
3, 11580, Note_on_c, 1, 60, 64
3, 11580, Note_on_c, 1, 57, 64
3, 11609, Note_on_c, 1, 57, 0
3, 11609, Note_on_c, 1, 60, 0
3, 11609, Note_on_c, 1, 65, 0
3, 11640, Note_on_c, 1, 65, 64
3, 11640, Note_on_c, 1, 58, 64
3, 11699, Note_on_c, 1, 58, 0
3, 11699, Note_on_c, 1, 65, 0
3, 11700, Note_on_c, 1, 63, 64
3, 11700, Note_on_c, 1, 60, 64
3, 11759, Note_on_c, 1, 60, 0
3, 11759, Note_on_c, 1, 63, 0
3, 11760, Note_on_c, 1, 65, 64
3, 11760, Note_on_c, 1, 62, 64
3, 11789, Note_on_c, 1, 62, 0
3, 11789, Note_on_c, 1, 65, 0
3, 11820, Note_on_c, 1, 65, 64
3, 11820, Note_on_c, 1, 60, 64
3, 11820, Note_on_c, 1, 57, 64
3, 11849, Note_on_c, 1, 57, 0
3, 11849, Note_on_c, 1, 60, 0
3, 11849, Note_on_c, 1, 65, 0
3, 11880, Note_on_c, 1, 65, 64
3, 11880, Note_on_c, 1, 58, 64
3, 11939, Note_on_c, 1, 58, 0
3, 11939, Note_on_c, 1, 65, 0
3, 11940, Note_on_c, 1, 60, 64
3, 11940, Note_on_c, 1, 63, 64
3, 11999, Note_on_c, 1, 63, 0
3, 11999, Note_on_c, 1, 60, 0
3, 12000, Note_on_c, 1, 65, 64
3, 12000, Note_on_c, 1, 62, 64
3, 12119, Note_on_c, 1, 62, 0
3, 12119, Note_on_c, 1, 65, 0
3, 12180, Note_on_c, 1, 67, 64
3, 12180, Note_on_c, 1, 60, 64
3, 12209, Note_on_c, 1, 60, 0
3, 12239, Note_on_c, 1, 67, 0
3, 12240, Note_on_c, 1, 65, 64
3, 12240, Note_on_c, 1, 60, 64
3, 12359, Note_on_c, 1, 60, 0
3, 12359, Note_on_c, 1, 65, 0
3, 12390, Note_on_c, 1, 63, 64
3, 12419, Note_on_c, 1, 63, 0
3, 12420, Note_on_c, 1, 62, 64
3, 12449, Note_on_c, 1, 62, 0
3, 12450, Note_on_c, 1, 60, 64
3, 12479, Note_on_c, 1, 60, 0
3, 12480, Note_on_c, 1, 65, 64
3, 12480, Note_on_c, 1, 62, 64
3, 12480, Note_on_c, 1, 58, 64
3, 12509, Note_on_c, 1, 58, 0
3, 12509, Note_on_c, 1, 62, 0
3, 12509, Note_on_c, 1, 65, 0
3, 12540, Note_on_c, 1, 65, 64
3, 12540, Note_on_c, 1, 60, 64
3, 12540, Note_on_c, 1, 57, 64
3, 12569, Note_on_c, 1, 57, 0
3, 12569, Note_on_c, 1, 60, 0
3, 12569, Note_on_c, 1, 65, 0
3, 12600, Note_on_c, 1, 65, 64
3, 12600, Note_on_c, 1, 58, 64
3, 12659, Note_on_c, 1, 58, 0
3, 12659, Note_on_c, 1, 65, 0
3, 12660, Note_on_c, 1, 63, 64
3, 12660, Note_on_c, 1, 60, 64
3, 12719, Note_on_c, 1, 60, 0
3, 12719, Note_on_c, 1, 63, 0
3, 12720, Note_on_c, 1, 65, 64
3, 12720, Note_on_c, 1, 62, 64
3, 12749, Note_on_c, 1, 62, 0
3, 12749, Note_on_c, 1, 65, 0
3, 12780, Note_on_c, 1, 65, 64
3, 12780, Note_on_c, 1, 57, 64
3, 12780, Note_on_c, 1, 60, 64
3, 12809, Note_on_c, 1, 60, 0
3, 12809, Note_on_c, 1, 57, 0
3, 12809, Note_on_c, 1, 65, 0
3, 12840, Note_on_c, 1, 65, 64
3, 12840, Note_on_c, 1, 58, 64
3, 12899, Note_on_c, 1, 58, 0
3, 12899, Note_on_c, 1, 65, 0
3, 12900, Note_on_c, 1, 63, 64
3, 12900, Note_on_c, 1, 60, 64
3, 12959, Note_on_c, 1, 60, 0
3, 12959, Note_on_c, 1, 63, 0
3, 12960, Note_on_c, 1, 65, 64
3, 12960, Note_on_c, 1, 62, 64
3, 13079, Note_on_c, 1, 62, 0
3, 13079, Note_on_c, 1, 65, 0
3, 13140, Note_on_c, 1, 67, 64
3, 13140, Note_on_c, 1, 60, 64
3, 13169, Note_on_c, 1, 60, 0
3, 13199, Note_on_c, 1, 67, 0
3, 13200, Note_on_c, 1, 65, 64
3, 13200, Note_on_c, 1, 60, 64
3, 13319, Note_on_c, 1, 60, 0
3, 13319, Note_on_c, 1, 65, 0
3, 13350, Note_on_c, 1, 63, 64
3, 13379, Note_on_c, 1, 63, 0
3, 13380, Note_on_c, 1, 62, 64
3, 13409, Note_on_c, 1, 62, 0
3, 13410, Note_on_c, 1, 60, 64
3, 13439, Note_on_c, 1, 60, 0
3, 13440, Note_on_c, 1, 65, 64
3, 13440, Note_on_c, 1, 58, 64
3, 13559, Note_on_c, 1, 58, 0
3, 13559, Note_on_c, 1, 65, 0
3, 13620, Note_on_c, 1, 65, 64
3, 13620, Note_on_c, 1, 58, 64
3, 13649, Note_on_c, 1, 58, 0
3, 13649, Note_on_c, 1, 65, 0
3, 13680, Note_on_c, 1, 63, 64
3, 13680, Note_on_c, 1, 58, 64
3, 13799, Note_on_c, 1, 58, 0
3, 13799, Note_on_c, 1, 63, 0
3, 13830, Note_on_c, 1, 65, 64
3, 13859, Note_on_c, 1, 65, 0
3, 13860, Note_on_c, 1, 63, 64
3, 13889, Note_on_c, 1, 63, 0
3, 13890, Note_on_c, 1, 62, 64
3, 13919, Note_on_c, 1, 62, 0
3, 13920, Note_on_c, 1, 67, 64
3, 13920, Note_on_c, 1, 60, 64
3, 14039, Note_on_c, 1, 60, 0
3, 14039, Note_on_c, 1, 67, 0
3, 14100, Note_on_c, 1, 67, 64
3, 14100, Note_on_c, 1, 60, 64
3, 14129, Note_on_c, 1, 60, 0
3, 14159, Note_on_c, 1, 67, 0
3, 14160, Note_on_c, 1, 65, 64
3, 14160, Note_on_c, 1, 60, 64
3, 14279, Note_on_c, 1, 60, 0
3, 14279, Note_on_c, 1, 65, 0
3, 14310, Note_on_c, 1, 67, 64
3, 14339, Note_on_c, 1, 67, 0
3, 14340, Note_on_c, 1, 65, 64
3, 14369, Note_on_c, 1, 65, 0
3, 14370, Note_on_c, 1, 63, 64
3, 14399, Note_on_c, 1, 63, 0
3, 14400, Note_on_c, 1, 62, 64
3, 14400, Note_on_c, 1, 69, 64
3, 14519, Note_on_c, 1, 69, 0
3, 14519, Note_on_c, 1, 62, 0
3, 14580, Note_on_c, 1, 69, 64
3, 14580, Note_on_c, 1, 62, 64
3, 14609, Note_on_c, 1, 62, 0
3, 14639, Note_on_c, 1, 69, 0
3, 14640, Note_on_c, 1, 67, 64
3, 14640, Note_on_c, 1, 62, 64
3, 14699, Note_on_c, 1, 62, 0
3, 14699, Note_on_c, 1, 67, 0
3, 14760, Note_on_c, 1, 65, 64
3, 14760, Note_on_c, 1, 60, 64
3, 14819, Note_on_c, 1, 60, 0
3, 14819, Note_on_c, 1, 65, 0
3, 14880, Note_on_c, 1, 65, 64
3, 14880, Note_on_c, 1, 62, 64
3, 14999, Note_on_c, 1, 62, 0
3, 14999, Note_on_c, 1, 65, 0
3, 15000, Note_on_c, 1, 67, 64
3, 15000, Note_on_c, 1, 60, 64
3, 15059, Note_on_c, 1, 67, 0
3, 15060, Note_on_c, 1, 65, 64
3, 15119, Note_on_c, 1, 60, 0
3, 15120, Note_on_c, 1, 58, 64
3, 15179, Note_on_c, 1, 65, 0
3, 15180, Note_on_c, 1, 63, 64
3, 15239, Note_on_c, 1, 58, 0
3, 15240, Note_on_c, 1, 57, 64
3, 15299, Note_on_c, 1, 63, 0
3, 15300, Note_on_c, 1, 62, 64
3, 15359, Note_on_c, 1, 57, 0
3, 15360, Note_on_c, 1, 55, 64
3, 15419, Note_on_c, 1, 62, 0
3, 15420, Note_on_c, 1, 60, 64
3, 15479, Note_on_c, 1, 55, 0
3, 15480, Note_on_c, 1, 53, 64
3, 15539, Note_on_c, 1, 60, 0
3, 15540, Note_on_c, 1, 58, 64
3, 15599, Note_on_c, 1, 53, 0
3, 15600, Note_on_c, 1, 55, 64
3, 15659, Note_on_c, 1, 58, 0
3, 15660, Note_on_c, 1, 60, 64
3, 15689, Note_on_c, 1, 60, 0
3, 15719, Note_on_c, 1, 55, 0
3, 15720, Note_on_c, 1, 60, 64
3, 15720, Note_on_c, 1, 53, 64
3, 15839, Note_on_c, 1, 60, 0
3, 15840, Note_on_c, 1, 62, 64
3, 15959, Note_on_c, 1, 62, 0
3, 15959, Note_on_c, 1, 53, 0
3, 16320, Note_on_c, 1, 53, 64
3, 16320, Note_on_c, 1, 58, 64
3, 16439, Note_on_c, 1, 58, 0
3, 16439, Note_on_c, 1, 53, 0
3, 16500, Note_on_c, 1, 53, 64
3, 16500, Note_on_c, 1, 58, 64
3, 16529, Note_on_c, 1, 58, 0
3, 16529, Note_on_c, 1, 53, 0
3, 16560, Note_on_c, 1, 51, 64
3, 16560, Note_on_c, 1, 58, 64
3, 16589, Note_on_c, 1, 58, 0
3, 16589, Note_on_c, 1, 51, 0
3, 16620, Note_on_c, 1, 53, 64
3, 16620, Note_on_c, 1, 58, 64
3, 16649, Note_on_c, 1, 58, 0
3, 16649, Note_on_c, 1, 53, 0
3, 16680, Note_on_c, 1, 51, 64
3, 16680, Note_on_c, 1, 58, 64
3, 16739, Note_on_c, 1, 58, 0
3, 16739, Note_on_c, 1, 51, 0
3, 16740, Note_on_c, 1, 57, 64
3, 16740, Note_on_c, 1, 62, 64
3, 16769, Note_on_c, 1, 62, 0
3, 16769, Note_on_c, 1, 57, 0
3, 16800, Note_on_c, 1, 55, 64
3, 16800, Note_on_c, 1, 62, 64
3, 16829, Note_on_c, 1, 62, 0
3, 16829, Note_on_c, 1, 55, 0
3, 16860, Note_on_c, 1, 57, 64
3, 16860, Note_on_c, 1, 62, 64
3, 16889, Note_on_c, 1, 62, 0
3, 16889, Note_on_c, 1, 57, 0
3, 16920, Note_on_c, 1, 55, 64
3, 16920, Note_on_c, 1, 62, 64
3, 16979, Note_on_c, 1, 62, 0
3, 16979, Note_on_c, 1, 55, 0
3, 16980, Note_on_c, 1, 60, 64
3, 16980, Note_on_c, 1, 65, 64
3, 17009, Note_on_c, 1, 65, 0
3, 17009, Note_on_c, 1, 60, 0
3, 17040, Note_on_c, 1, 65, 64
3, 17099, Note_on_c, 1, 65, 0
3, 17100, Note_on_c, 1, 63, 64
3, 17129, Note_on_c, 1, 63, 0
3, 17130, Note_on_c, 1, 62, 64
3, 17159, Note_on_c, 1, 62, 0
3, 17160, Note_on_c, 1, 60, 64
3, 17160, Note_on_c, 1, 65, 64
3, 17279, Note_on_c, 1, 65, 0
3, 17279, Note_on_c, 1, 60, 0
3, 17280, Note_on_c, 1, 53, 64
3, 17280, Note_on_c, 1, 62, 64
3, 17519, Note_on_c, 1, 62, 0
3, 17519, Note_on_c, 1, 53, 0
3, 19680, Note_on_c, 1, 58, 64
3, 19799, Note_on_c, 1, 58, 0
3, 19800, Note_on_c, 1, 65, 64
3, 19859, Note_on_c, 1, 65, 0
3, 19860, Note_on_c, 1, 63, 64
3, 19889, Note_on_c, 1, 63, 0
3, 19890, Note_on_c, 1, 65, 64
3, 19919, Note_on_c, 1, 65, 0
3, 19920, Note_on_c, 1, 62, 64
3, 20099, Note_on_c, 1, 62, 0
3, 20100, Note_on_c, 1, 67, 64
3, 20159, Note_on_c, 1, 67, 0
3, 20160, Note_on_c, 1, 63, 64
3, 20219, Note_on_c, 1, 63, 0
3, 20220, Note_on_c, 1, 62, 64
3, 20249, Note_on_c, 1, 62, 0
3, 20250, Note_on_c, 1, 63, 64
3, 20279, Note_on_c, 1, 63, 0
3, 20280, Note_on_c, 1, 60, 64
3, 20459, Note_on_c, 1, 60, 0
3, 20460, Note_on_c, 1, 65, 64
3, 20519, Note_on_c, 1, 65, 0
3, 20520, Note_on_c, 1, 58, 64
3, 20579, Note_on_c, 1, 58, 0
3, 20580, Note_on_c, 1, 65, 64
3, 20639, Note_on_c, 1, 65, 0
3, 20640, Note_on_c, 1, 58, 64
3, 20699, Note_on_c, 1, 58, 0
3, 20700, Note_on_c, 1, 65, 64
3, 20759, Note_on_c, 1, 65, 0
3, 20760, Note_on_c, 1, 58, 64
3, 20819, Note_on_c, 1, 58, 0
3, 20820, Note_on_c, 1, 65, 64
3, 20879, Note_on_c, 1, 65, 0
3, 20880, Note_on_c, 1, 57, 64
3, 20939, Note_on_c, 1, 57, 0
3, 20940, Note_on_c, 1, 65, 64
3, 20999, Note_on_c, 1, 65, 0
3, 21000, Note_on_c, 1, 57, 64
3, 21059, Note_on_c, 1, 57, 0
3, 21060, Note_on_c, 1, 65, 64
3, 21119, Note_on_c, 1, 65, 0
3, 21120, Note_on_c, 1, 57, 64
3, 21179, Note_on_c, 1, 57, 0
3, 21180, Note_on_c, 1, 65, 64
3, 21239, Note_on_c, 1, 65, 0
3, 21240, Note_on_c, 1, 55, 64
3, 21299, Note_on_c, 1, 55, 0
3, 21300, Note_on_c, 1, 57, 64
3, 21329, Note_on_c, 1, 57, 0
3, 21330, Note_on_c, 1, 58, 64
3, 21359, Note_on_c, 1, 58, 0
3, 21360, Note_on_c, 1, 60, 64
3, 21419, Note_on_c, 1, 60, 0
3, 21420, Note_on_c, 1, 58, 64
3, 21479, Note_on_c, 1, 58, 0
3, 21480, Note_on_c, 1, 57, 64
3, 21539, Note_on_c, 1, 57, 0
3, 21540, Note_on_c, 1, 55, 64
3, 21599, Note_on_c, 1, 55, 0
3, 21600, Note_on_c, 1, 57, 64
3, 21719, Note_on_c, 1, 57, 0
3, 21840, Note_on_c, 1, 53, 64
3, 21959, Note_on_c, 1, 53, 0
3, 21960, Note_on_c, 1, 58, 64
3, 22019, Note_on_c, 1, 58, 0
3, 22020, Note_on_c, 1, 57, 64
3, 22049, Note_on_c, 1, 57, 0
3, 22050, Note_on_c, 1, 58, 64
3, 22079, Note_on_c, 1, 58, 0
3, 22080, Note_on_c, 1, 55, 64
3, 22259, Note_on_c, 1, 55, 0
3, 22260, Note_on_c, 1, 60, 64
3, 22319, Note_on_c, 1, 60, 0
3, 22320, Note_on_c, 1, 57, 64
3, 22379, Note_on_c, 1, 57, 0
3, 22380, Note_on_c, 1, 55, 64
3, 22409, Note_on_c, 1, 55, 0
3, 22410, Note_on_c, 1, 57, 64
3, 22439, Note_on_c, 1, 57, 0
3, 22440, Note_on_c, 1, 53, 64
3, 22619, Note_on_c, 1, 53, 0
3, 22620, Note_on_c, 1, 58, 64
3, 22679, Note_on_c, 1, 58, 0
3, 22680, Note_on_c, 1, 51, 64
3, 22739, Note_on_c, 1, 51, 0
3, 22740, Note_on_c, 1, 58, 64
3, 22799, Note_on_c, 1, 58, 0
3, 22800, Note_on_c, 1, 51, 64
3, 22859, Note_on_c, 1, 51, 0
3, 22860, Note_on_c, 1, 58, 64
3, 22919, Note_on_c, 1, 58, 0
3, 22920, Note_on_c, 1, 51, 64
3, 22979, Note_on_c, 1, 51, 0
3, 22980, Note_on_c, 1, 58, 64
3, 23039, Note_on_c, 1, 58, 0
3, 23040, Note_on_c, 1, 50, 64
3, 23099, Note_on_c, 1, 50, 0
3, 23100, Note_on_c, 1, 58, 64
3, 23159, Note_on_c, 1, 58, 0
3, 23160, Note_on_c, 1, 50, 64
3, 23219, Note_on_c, 1, 50, 0
3, 23220, Note_on_c, 1, 58, 64
3, 23279, Note_on_c, 1, 58, 0
3, 23280, Note_on_c, 1, 50, 64
3, 23339, Note_on_c, 1, 50, 0
3, 23340, Note_on_c, 1, 58, 64
3, 23399, Note_on_c, 1, 58, 0
3, 23400, Note_on_c, 1, 48, 64
3, 23459, Note_on_c, 1, 48, 0
3, 23460, Note_on_c, 1, 50, 64
3, 23489, Note_on_c, 1, 50, 0
3, 23490, Note_on_c, 1, 51, 64
3, 23519, Note_on_c, 1, 51, 0
3, 23520, Note_on_c, 1, 53, 64
3, 23639, Note_on_c, 1, 53, 0
3, 23640, Note_on_c, 1, 57, 64
3, 23700, Note_on_c, 1, 63, 64
3, 23759, Note_on_c, 1, 63, 0
3, 23759, Note_on_c, 1, 57, 0
3, 23760, Note_on_c, 1, 58, 64
3, 23760, Note_on_c, 1, 62, 64
3, 23939, Note_on_c, 1, 62, 0
3, 23940, Note_on_c, 1, 63, 64
3, 23999, Note_on_c, 1, 63, 0
3, 23999, Note_on_c, 1, 58, 0
3, 24000, Note_on_c, 1, 65, 64
3, 24000, Note_on_c, 1, 58, 64
3, 24119, Note_on_c, 1, 58, 0
3, 24120, Note_on_c, 1, 57, 64
3, 24239, Note_on_c, 1, 65, 0
3, 24300, Note_on_c, 1, 65, 64
3, 24359, Note_on_c, 1, 65, 0
3, 24359, Note_on_c, 1, 57, 0
3, 24360, Note_on_c, 1, 63, 64
3, 24419, Note_on_c, 1, 63, 0
3, 24420, Note_on_c, 1, 62, 64
3, 24420, Note_on_c, 1, 55, 64
3, 24449, Note_on_c, 1, 55, 0
3, 24479, Note_on_c, 1, 62, 0
3, 24480, Note_on_c, 1, 63, 64
3, 24480, Note_on_c, 1, 55, 64
3, 24599, Note_on_c, 1, 63, 0
3, 24660, Note_on_c, 1, 63, 64
3, 24719, Note_on_c, 1, 63, 0
3, 24719, Note_on_c, 1, 55, 0
3, 24720, Note_on_c, 1, 62, 64
3, 24779, Note_on_c, 1, 62, 0
3, 24780, Note_on_c, 1, 53, 64
3, 24780, Note_on_c, 1, 60, 64
3, 24809, Note_on_c, 1, 53, 0
3, 24839, Note_on_c, 1, 60, 0
3, 24840, Note_on_c, 1, 62, 64
3, 24840, Note_on_c, 1, 53, 64
3, 24945, Note_on_c, 1, 62, 0
3, 24960, Note_on_c, 1, 62, 64
3, 25065, Note_on_c, 1, 62, 0
3, 25080, Note_on_c, 1, 62, 64
3, 25185, Note_on_c, 1, 62, 0
3, 25559, Note_on_c, 1, 53, 0
3, 25560, Note_on_c, 1, 55, 64
3, 26279, Note_on_c, 1, 55, 0
3, 26280, Note_on_c, 1, 53, 64
3, 26505, Note_on_c, 1, 53, 0
3, 26520, Note_on_c, 1, 53, 64
3, 26639, Note_on_c, 1, 53, 0
3, 26640, Note_on_c, 1, 58, 64
3, 26699, Note_on_c, 1, 58, 0
3, 26700, Note_on_c, 1, 57, 64
3, 26729, Note_on_c, 1, 57, 0
3, 26730, Note_on_c, 1, 58, 64
3, 26759, Note_on_c, 1, 58, 0
3, 26760, Note_on_c, 1, 55, 64
3, 26939, Note_on_c, 1, 60, 64
3, 26939, Note_on_c, 1, 55, 0
3, 26998, Note_on_c, 1, 60, 0
3, 27000, Note_on_c, 1, 57, 64
3, 27059, Note_on_c, 1, 57, 0
3, 27060, Note_on_c, 1, 55, 64
3, 27089, Note_on_c, 1, 55, 0
3, 27090, Note_on_c, 1, 57, 64
3, 27119, Note_on_c, 1, 57, 0
3, 27120, Note_on_c, 1, 53, 64
3, 27179, Note_on_c, 1, 53, 0
3, 27180, Note_on_c, 1, 51, 64
3, 27239, Note_on_c, 1, 51, 0
3, 27240, Note_on_c, 1, 50, 64
3, 27299, Note_on_c, 1, 50, 0
3, 27300, Note_on_c, 1, 48, 64
3, 27359, Note_on_c, 1, 48, 0
3, 27360, Note_on_c, 1, 46, 64
3, 27479, Note_on_c, 1, 46, 0
3, 27480, Note_on_c, 1, 48, 64
3, 27539, Note_on_c, 1, 48, 0
3, 27540, Note_on_c, 1, 50, 64
3, 27599, Note_on_c, 1, 50, 0
3, 27600, Note_on_c, 1, 51, 64
3, 27719, Note_on_c, 1, 51, 0
3, 27720, Note_on_c, 1, 53, 64
3, 27839, Note_on_c, 1, 53, 0
3, 27840, Note_on_c, 1, 46, 64
3, 27899, Note_on_c, 1, 46, 0
3, 27900, Note_on_c, 1, 48, 64
3, 27959, Note_on_c, 1, 48, 0
3, 27960, Note_on_c, 1, 50, 64
3, 28079, Note_on_c, 1, 50, 0
3, 28080, Note_on_c, 1, 51, 64
3, 28139, Note_on_c, 1, 51, 0
3, 28140, Note_on_c, 1, 55, 64
3, 28199, Note_on_c, 1, 55, 0
3, 28200, Note_on_c, 1, 51, 64
3, 28259, Note_on_c, 1, 51, 0
3, 28260, Note_on_c, 1, 55, 64
3, 28319, Note_on_c, 1, 55, 0
3, 28320, Note_on_c, 1, 51, 64
3, 28379, Note_on_c, 1, 51, 0
3, 28380, Note_on_c, 1, 55, 64
3, 28439, Note_on_c, 1, 55, 0
3, 28440, Note_on_c, 1, 58, 64
3, 28499, Note_on_c, 1, 58, 0
3, 28500, Note_on_c, 1, 50, 64
3, 28559, Note_on_c, 1, 50, 0
3, 28560, Note_on_c, 1, 58, 64
3, 28619, Note_on_c, 1, 58, 0
3, 28620, Note_on_c, 1, 50, 64
3, 28679, Note_on_c, 1, 50, 0
3, 28680, Note_on_c, 1, 58, 64
3, 28739, Note_on_c, 1, 58, 0
3, 28740, Note_on_c, 1, 50, 64
3, 28799, Note_on_c, 1, 50, 0
3, 28800, Note_on_c, 1, 51, 64
3, 28905, Note_on_c, 1, 51, 0
3, 28920, Note_on_c, 1, 51, 64
3, 29025, Note_on_c, 1, 51, 0
3, 29040, Note_on_c, 1, 51, 64
3, 29145, Note_on_c, 1, 51, 0
3, 29160, Note_on_c, 1, 53, 64
3, 29265, Note_on_c, 1, 53, 0
3, 29280, Note_on_c, 1, 53, 64
3, 29385, Note_on_c, 1, 53, 0
3, 29400, Note_on_c, 1, 53, 64
3, 29505, Note_on_c, 1, 53, 0
3, 29520, Note_on_c, 1, 58, 64
3, 29699, Note_on_c, 1, 58, 0
3, 29700, Note_on_c, 1, 57, 64
3, 29759, Note_on_c, 1, 57, 0
3, 29760, Note_on_c, 1, 55, 64
3, 29879, Note_on_c, 1, 55, 0
3, 29880, Note_on_c, 1, 60, 64
3, 29939, Note_on_c, 1, 60, 0
3, 29940, Note_on_c, 1, 58, 64
3, 29969, Note_on_c, 1, 58, 0
3, 29970, Note_on_c, 1, 60, 64
3, 29999, Note_on_c, 1, 60, 0
3, 30000, Note_on_c, 1, 57, 64
3, 30119, Note_on_c, 1, 57, 0
3, 30120, Note_on_c, 1, 62, 64
3, 30179, Note_on_c, 1, 62, 0
3, 30180, Note_on_c, 1, 60, 64
3, 30239, Note_on_c, 1, 60, 0
3, 30240, Note_on_c, 1, 58, 64
3, 30299, Note_on_c, 1, 58, 0
3, 30300, Note_on_c, 1, 57, 64
3, 30329, Note_on_c, 1, 57, 0
3, 30330, Note_on_c, 1, 58, 64
3, 30359, Note_on_c, 1, 58, 0
3, 30360, Note_on_c, 1, 55, 64
3, 30419, Note_on_c, 1, 55, 0
3, 30420, Note_on_c, 1, 57, 64
3, 30479, Note_on_c, 1, 57, 0
3, 30480, Note_on_c, 1, 58, 64
3, 30539, Note_on_c, 1, 58, 0
3, 30540, Note_on_c, 1, 55, 64
3, 30599, Note_on_c, 1, 55, 0
3, 30600, Note_on_c, 1, 57, 64
3, 30600, Note_on_c, 1, 54, 64
3, 30719, Note_on_c, 1, 54, 0
3, 30719, Note_on_c, 1, 57, 0
3, 30720, Note_on_c, 1, 55, 64
3, 30780, Note_on_c, 1, 62, 64
3, 30839, Note_on_c, 1, 62, 0
3, 30840, Note_on_c, 1, 67, 64
3, 30959, Note_on_c, 1, 67, 0
3, 30960, Note_on_c, 1, 63, 64
3, 31079, Note_on_c, 1, 63, 0
3, 31080, Note_on_c, 1, 62, 64
3, 31109, Note_on_c, 1, 55, 0
3, 31140, Note_on_c, 1, 55, 64
3, 31199, Note_on_c, 1, 55, 0
3, 31200, Note_on_c, 1, 54, 64
3, 31319, Note_on_c, 1, 54, 0
3, 31320, Note_on_c, 1, 55, 64
3, 31439, Note_on_c, 1, 62, 0
3, 31559, Note_on_c, 1, 55, 0
3, 31620, Note_on_c, 1, 56, 64
3, 31649, Note_on_c, 1, 56, 0
3, 31680, Note_on_c, 1, 56, 64
3, 31919, Note_on_c, 1, 56, 0
3, 31980, Note_on_c, 1, 55, 64
3, 32009, Note_on_c, 1, 55, 0
3, 32040, Note_on_c, 1, 55, 64
3, 32759, Note_on_c, 1, 55, 0
3, 32760, Note_on_c, 1, 57, 64
3, 33479, Note_on_c, 1, 57, 0
3, 33480, Note_on_c, 1, 55, 64
3, 33540, Note_on_c, 1, 62, 64
3, 33599, Note_on_c, 1, 62, 0
3, 33600, Note_on_c, 1, 64, 64
3, 33659, Note_on_c, 1, 64, 0
3, 33660, Note_on_c, 1, 66, 64
3, 33705, Note_on_c, 1, 55, 0
3, 33719, Note_on_c, 1, 66, 0
3, 33720, Note_on_c, 1, 67, 64
3, 33720, Note_on_c, 1, 55, 64
3, 33779, Note_on_c, 1, 67, 0
3, 33839, Note_on_c, 1, 55, 0
3, 33840, Note_on_c, 1, 57, 64
3, 33840, Note_on_c, 1, 65, 64
3, 33959, Note_on_c, 1, 57, 0
3, 33960, Note_on_c, 1, 58, 64
3, 34019, Note_on_c, 1, 58, 0
3, 34020, Note_on_c, 1, 57, 64
3, 34079, Note_on_c, 1, 57, 0
3, 34079, Note_on_c, 1, 65, 0
3, 34080, Note_on_c, 1, 67, 64
3, 34080, Note_on_c, 1, 55, 64
3, 34139, Note_on_c, 1, 67, 0
3, 34199, Note_on_c, 1, 55, 0
3, 34200, Note_on_c, 1, 67, 64
3, 34200, Note_on_c, 1, 60, 64
3, 34319, Note_on_c, 1, 67, 0
3, 34320, Note_on_c, 1, 63, 64
3, 34379, Note_on_c, 1, 63, 0
3, 34379, Note_on_c, 1, 60, 0
3, 34380, Note_on_c, 1, 62, 64
3, 34380, Note_on_c, 1, 58, 64
3, 34439, Note_on_c, 1, 58, 0
3, 34439, Note_on_c, 1, 62, 0
3, 34440, Note_on_c, 1, 60, 64
3, 34440, Note_on_c, 1, 57, 64
3, 34559, Note_on_c, 1, 57, 0
3, 34559, Note_on_c, 1, 60, 0
3, 34560, Note_on_c, 1, 65, 64
3, 34560, Note_on_c, 1, 62, 64
3, 34665, Note_on_c, 1, 62, 0
3, 34665, Note_on_c, 1, 65, 0
3, 34680, Note_on_c, 1, 65, 64
3, 34680, Note_on_c, 1, 62, 64
3, 34785, Note_on_c, 1, 62, 0
3, 34785, Note_on_c, 1, 65, 0
3, 34800, Note_on_c, 1, 65, 64
3, 34800, Note_on_c, 1, 62, 64
3, 34905, Note_on_c, 1, 62, 0
3, 34905, Note_on_c, 1, 65, 0
3, 34920, Note_on_c, 1, 65, 64
3, 34920, Note_on_c, 1, 60, 64
3, 35025, Note_on_c, 1, 60, 0
3, 35025, Note_on_c, 1, 65, 0
3, 35040, Note_on_c, 1, 65, 64
3, 35040, Note_on_c, 1, 60, 64
3, 35145, Note_on_c, 1, 60, 0
3, 35145, Note_on_c, 1, 65, 0
3, 35160, Note_on_c, 1, 65, 64
3, 35160, Note_on_c, 1, 60, 64
3, 35265, Note_on_c, 1, 60, 0
3, 35265, Note_on_c, 1, 65, 0
3, 35280, Note_on_c, 1, 62, 64
3, 35280, Note_on_c, 1, 58, 64
3, 35385, Note_on_c, 1, 58, 0
3, 35385, Note_on_c, 1, 62, 0
3, 35400, Note_on_c, 1, 62, 64
3, 35400, Note_on_c, 1, 58, 64
3, 35505, Note_on_c, 1, 58, 0
3, 35505, Note_on_c, 1, 62, 0
3, 35520, Note_on_c, 1, 62, 64
3, 35520, Note_on_c, 1, 58, 64
3, 35625, Note_on_c, 1, 58, 0
3, 35625, Note_on_c, 1, 62, 0
3, 35640, Note_on_c, 1, 60, 64
3, 35640, Note_on_c, 1, 58, 64
3, 35745, Note_on_c, 1, 58, 0
3, 35745, Note_on_c, 1, 60, 0
3, 35760, Note_on_c, 1, 60, 64
3, 35760, Note_on_c, 1, 58, 64
3, 35865, Note_on_c, 1, 58, 0
3, 35865, Note_on_c, 1, 60, 0
3, 35880, Note_on_c, 1, 60, 64
3, 35880, Note_on_c, 1, 58, 64
3, 35985, Note_on_c, 1, 58, 0
3, 35985, Note_on_c, 1, 60, 0
3, 36000, Note_on_c, 1, 60, 64
3, 36000, Note_on_c, 1, 57, 64
3, 36105, Note_on_c, 1, 57, 0
3, 36105, Note_on_c, 1, 60, 0
3, 36120, Note_on_c, 1, 60, 64
3, 36120, Note_on_c, 1, 57, 64
3, 36225, Note_on_c, 1, 57, 0
3, 36225, Note_on_c, 1, 60, 0
3, 36240, Note_on_c, 1, 57, 64
3, 36240, Note_on_c, 1, 60, 64
3, 36345, Note_on_c, 1, 60, 0
3, 36345, Note_on_c, 1, 57, 0
3, 36360, Note_on_c, 1, 62, 64
3, 36360, Note_on_c, 1, 58, 64
3, 36465, Note_on_c, 1, 58, 0
3, 36465, Note_on_c, 1, 62, 0
3, 36480, Note_on_c, 1, 62, 64
3, 36480, Note_on_c, 1, 58, 64
3, 36585, Note_on_c, 1, 58, 0
3, 36585, Note_on_c, 1, 62, 0
3, 36600, Note_on_c, 1, 62, 64
3, 36600, Note_on_c, 1, 58, 64
3, 36719, Note_on_c, 1, 58, 0
3, 36719, Note_on_c, 1, 62, 0
3, 36720, Note_on_c, 1, 60, 64
3, 36720, Note_on_c, 1, 57, 64
3, 36839, Note_on_c, 1, 57, 0
3, 36839, Note_on_c, 1, 60, 0
3, 36960, Note_on_c, 1, 58, 64
3, 36960, Note_on_c, 1, 55, 64
3, 37019, Note_on_c, 1, 58, 0
3, 37020, Note_on_c, 1, 60, 64
3, 37079, Note_on_c, 1, 60, 0
3, 37079, Note_on_c, 1, 55, 0
3, 37080, Note_on_c, 1, 62, 64
3, 37080, Note_on_c, 1, 53, 64
3, 37199, Note_on_c, 1, 62, 0
3, 37200, Note_on_c, 1, 60, 64
3, 37439, Note_on_c, 1, 60, 0
3, 37439, Note_on_c, 1, 53, 0
3, 37440, Note_on_c, 1, 58, 64
3, 37440, Note_on_c, 1, 62, 64
3, 37440, Note_on_c, 1, 53, 64
3, 38279, Note_on_c, 1, 53, 0
3, 38279, Note_on_c, 1, 62, 0
3, 38279, Note_on_c, 1, 58, 0
3, 38279, End_track
4, 0, Start_track
4, 0, Title_t, "Pedal"
4, 0, Instrument_name_t, "Pipe Organ"
4, 4080, Program_c, 1, 16
4, 4080, Note_on_c, 1, 34, 64
4, 4109, Note_on_c, 1, 34, 0
4, 4110, Note_on_c, 1, 38, 64
4, 4139, Note_on_c, 1, 38, 0
4, 4140, Note_on_c, 1, 36, 64
4, 4169, Note_on_c, 1, 36, 0
4, 4170, Note_on_c, 1, 39, 64
4, 4199, Note_on_c, 1, 39, 0
4, 4200, Note_on_c, 1, 38, 64
4, 4229, Note_on_c, 1, 38, 0
4, 4230, Note_on_c, 1, 41, 64
4, 4259, Note_on_c, 1, 41, 0
4, 4260, Note_on_c, 1, 33, 64
4, 4289, Note_on_c, 1, 33, 0
4, 4290, Note_on_c, 1, 36, 64
4, 4319, Note_on_c, 1, 36, 0
4, 4320, Note_on_c, 1, 34, 64
4, 4349, Note_on_c, 1, 34, 0
4, 4350, Note_on_c, 1, 38, 64
4, 4379, Note_on_c, 1, 38, 0
4, 4380, Note_on_c, 1, 36, 64
4, 4409, Note_on_c, 1, 36, 0
4, 4410, Note_on_c, 1, 39, 64
4, 4439, Note_on_c, 1, 39, 0
4, 4440, Note_on_c, 1, 38, 64
4, 4469, Note_on_c, 1, 38, 0
4, 4470, Note_on_c, 1, 41, 64
4, 4499, Note_on_c, 1, 41, 0
4, 4500, Note_on_c, 1, 33, 64
4, 4529, Note_on_c, 1, 33, 0
4, 4530, Note_on_c, 1, 36, 64
4, 4559, Note_on_c, 1, 36, 0
4, 4560, Note_on_c, 1, 34, 64
4, 4589, Note_on_c, 1, 34, 0
4, 4590, Note_on_c, 1, 38, 64
4, 4619, Note_on_c, 1, 38, 0
4, 4620, Note_on_c, 1, 36, 64
4, 4649, Note_on_c, 1, 36, 0
4, 4650, Note_on_c, 1, 39, 64
4, 4679, Note_on_c, 1, 39, 0
4, 4680, Note_on_c, 1, 38, 64
4, 4709, Note_on_c, 1, 38, 0
4, 4710, Note_on_c, 1, 41, 64
4, 4739, Note_on_c, 1, 41, 0
4, 4740, Note_on_c, 1, 39, 64
4, 4769, Note_on_c, 1, 39, 0
4, 4770, Note_on_c, 1, 43, 64
4, 4799, Note_on_c, 1, 43, 0
4, 4800, Note_on_c, 1, 41, 64
4, 4829, Note_on_c, 1, 41, 0
4, 4830, Note_on_c, 1, 43, 64
4, 4859, Note_on_c, 1, 43, 0
4, 4860, Note_on_c, 1, 39, 64
4, 4889, Note_on_c, 1, 39, 0
4, 4890, Note_on_c, 1, 43, 64
4, 4919, Note_on_c, 1, 43, 0
4, 4920, Note_on_c, 1, 38, 64
4, 4949, Note_on_c, 1, 38, 0
4, 4950, Note_on_c, 1, 43, 64
4, 4979, Note_on_c, 1, 43, 0
4, 4980, Note_on_c, 1, 36, 64
4, 5009, Note_on_c, 1, 36, 0
4, 5010, Note_on_c, 1, 43, 64
4, 5039, Note_on_c, 1, 43, 0
4, 5040, Note_on_c, 1, 35, 64
4, 5069, Note_on_c, 1, 35, 0
4, 5070, Note_on_c, 1, 43, 64
4, 5099, Note_on_c, 1, 43, 0
4, 5100, Note_on_c, 1, 33, 64
4, 5129, Note_on_c, 1, 33, 0
4, 5130, Note_on_c, 1, 43, 64
4, 5159, Note_on_c, 1, 43, 0
4, 5160, Note_on_c, 1, 31, 64
4, 5189, Note_on_c, 1, 31, 0
4, 5190, Note_on_c, 1, 43, 64
4, 5219, Note_on_c, 1, 43, 0
4, 5220, Note_on_c, 1, 31, 64
4, 5249, Note_on_c, 1, 31, 0
4, 5250, Note_on_c, 1, 41, 64
4, 5279, Note_on_c, 1, 41, 0
4, 5280, Note_on_c, 1, 39, 64
4, 5309, Note_on_c, 1, 39, 0
4, 5310, Note_on_c, 1, 41, 64
4, 5339, Note_on_c, 1, 41, 0
4, 5340, Note_on_c, 1, 38, 64
4, 5369, Note_on_c, 1, 38, 0
4, 5370, Note_on_c, 1, 41, 64
4, 5399, Note_on_c, 1, 41, 0
4, 5400, Note_on_c, 1, 36, 64
4, 5429, Note_on_c, 1, 36, 0
4, 5430, Note_on_c, 1, 41, 64
4, 5459, Note_on_c, 1, 41, 0
4, 5460, Note_on_c, 1, 34, 64
4, 5489, Note_on_c, 1, 34, 0
4, 5490, Note_on_c, 1, 41, 64
4, 5519, Note_on_c, 1, 41, 0
4, 5520, Note_on_c, 1, 33, 64
4, 5549, Note_on_c, 1, 33, 0
4, 5550, Note_on_c, 1, 41, 64
4, 5579, Note_on_c, 1, 41, 0
4, 5580, Note_on_c, 1, 31, 64
4, 5609, Note_on_c, 1, 31, 0
4, 5610, Note_on_c, 1, 41, 64
4, 5639, Note_on_c, 1, 41, 0
4, 5640, Note_on_c, 1, 29, 64
4, 5669, Note_on_c, 1, 29, 0
4, 5670, Note_on_c, 1, 41, 64
4, 5699, Note_on_c, 1, 41, 0
4, 5700, Note_on_c, 1, 29, 64
4, 5729, Note_on_c, 1, 29, 0
4, 5730, Note_on_c, 1, 39, 64
4, 5759, Note_on_c, 1, 39, 0
4, 5760, Note_on_c, 1, 38, 64
4, 5789, Note_on_c, 1, 38, 0
4, 5790, Note_on_c, 1, 39, 64
4, 5819, Note_on_c, 1, 39, 0
4, 5820, Note_on_c, 1, 36, 64
4, 5849, Note_on_c, 1, 36, 0
4, 5850, Note_on_c, 1, 39, 64
4, 5879, Note_on_c, 1, 39, 0
4, 5880, Note_on_c, 1, 38, 64
4, 5909, Note_on_c, 1, 38, 0
4, 5910, Note_on_c, 1, 39, 64
4, 5939, Note_on_c, 1, 39, 0
4, 5940, Note_on_c, 1, 33, 64
4, 5969, Note_on_c, 1, 33, 0
4, 5970, Note_on_c, 1, 36, 64
4, 5999, Note_on_c, 1, 36, 0
4, 6000, Note_on_c, 1, 34, 64
4, 6029, Note_on_c, 1, 34, 0
4, 6030, Note_on_c, 1, 38, 64
4, 6059, Note_on_c, 1, 38, 0
4, 6060, Note_on_c, 1, 36, 64
4, 6089, Note_on_c, 1, 36, 0
4, 6090, Note_on_c, 1, 39, 64
4, 6119, Note_on_c, 1, 39, 0
4, 6120, Note_on_c, 1, 38, 64
4, 6149, Note_on_c, 1, 38, 0
4, 6150, Note_on_c, 1, 41, 64
4, 6179, Note_on_c, 1, 41, 0
4, 6180, Note_on_c, 1, 33, 64
4, 6209, Note_on_c, 1, 33, 0
4, 6210, Note_on_c, 1, 41, 64
4, 6239, Note_on_c, 1, 41, 0
4, 6240, Note_on_c, 1, 34, 64
4, 6269, Note_on_c, 1, 34, 0
4, 6270, Note_on_c, 1, 38, 64
4, 6284, Note_on_c, 1, 38, 0
4, 6285, Note_on_c, 1, 36, 64
4, 6299, Note_on_c, 1, 36, 0
4, 6300, Note_on_c, 1, 38, 64
4, 6329, Note_on_c, 1, 38, 0
4, 6330, Note_on_c, 1, 34, 64
4, 6359, Note_on_c, 1, 34, 0
4, 6360, Note_on_c, 1, 41, 64
4, 6419, Note_on_c, 1, 41, 0
4, 6420, Note_on_c, 1, 29, 64
4, 6479, Note_on_c, 1, 29, 0
4, 6480, Note_on_c, 1, 34, 64
4, 6719, Note_on_c, 1, 34, 0
4, 6720, Note_on_c, 1, 34, 64
4, 6779, Note_on_c, 1, 34, 0
4, 6780, Note_on_c, 1, 33, 64
4, 6809, Note_on_c, 1, 33, 0
4, 6840, Note_on_c, 1, 34, 64
4, 6899, Note_on_c, 1, 34, 0
4, 6900, Note_on_c, 1, 36, 64
4, 6959, Note_on_c, 1, 36, 0
4, 6960, Note_on_c, 1, 38, 64
4, 7019, Note_on_c, 1, 38, 0
4, 7020, Note_on_c, 1, 33, 64
4, 7079, Note_on_c, 1, 33, 0
4, 7080, Note_on_c, 1, 34, 64
4, 7139, Note_on_c, 1, 34, 0
4, 7140, Note_on_c, 1, 36, 64
4, 7169, Note_on_c, 1, 36, 0
4, 7200, Note_on_c, 1, 38, 64
4, 7319, Note_on_c, 1, 38, 0
4, 7380, Note_on_c, 1, 40, 64
4, 7439, Note_on_c, 1, 40, 0
4, 7440, Note_on_c, 1, 41, 64
4, 7559, Note_on_c, 1, 41, 0
4, 7680, Note_on_c, 1, 34, 64
4, 7739, Note_on_c, 1, 34, 0
4, 7740, Note_on_c, 1, 33, 64
4, 7799, Note_on_c, 1, 33, 0
4, 7800, Note_on_c, 1, 34, 64
4, 7859, Note_on_c, 1, 34, 0
4, 7860, Note_on_c, 1, 36, 64
4, 7919, Note_on_c, 1, 36, 0
4, 7920, Note_on_c, 1, 38, 64
4, 7979, Note_on_c, 1, 38, 0
4, 7980, Note_on_c, 1, 33, 64
4, 8039, Note_on_c, 1, 33, 0
4, 8040, Note_on_c, 1, 34, 64
4, 8099, Note_on_c, 1, 34, 0
4, 8100, Note_on_c, 1, 36, 64
4, 8159, Note_on_c, 1, 36, 0
4, 8160, Note_on_c, 1, 38, 64
4, 8279, Note_on_c, 1, 38, 0
4, 8340, Note_on_c, 1, 40, 64
4, 8399, Note_on_c, 1, 40, 0
4, 8400, Note_on_c, 1, 41, 64
4, 8519, Note_on_c, 1, 41, 0
4, 8640, Note_on_c, 1, 38, 64
4, 8759, Note_on_c, 1, 38, 0
4, 8820, Note_on_c, 1, 38, 64
4, 8879, Note_on_c, 1, 38, 0
4, 8880, Note_on_c, 1, 39, 64
4, 8999, Note_on_c, 1, 39, 0
4, 9120, Note_on_c, 1, 40, 64
4, 9239, Note_on_c, 1, 40, 0
4, 9300, Note_on_c, 1, 40, 64
4, 9359, Note_on_c, 1, 40, 0
4, 9360, Note_on_c, 1, 41, 64
4, 9479, Note_on_c, 1, 41, 0
4, 9600, Note_on_c, 1, 42, 64
4, 9719, Note_on_c, 1, 42, 0
4, 9780, Note_on_c, 1, 42, 64
4, 9839, Note_on_c, 1, 42, 0
4, 9840, Note_on_c, 1, 43, 64
4, 9899, Note_on_c, 1, 43, 0
4, 9960, Note_on_c, 1, 45, 64
4, 10019, Note_on_c, 1, 45, 0
4, 10080, Note_on_c, 1, 46, 64
4, 10259, Note_on_c, 1, 46, 0
4, 10260, Note_on_c, 1, 45, 64
4, 10379, Note_on_c, 1, 45, 0
4, 10380, Note_on_c, 1, 43, 64
4, 10499, Note_on_c, 1, 43, 0
4, 10500, Note_on_c, 1, 41, 64
4, 10619, Note_on_c, 1, 41, 0
4, 10620, Note_on_c, 1, 39, 64
4, 10739, Note_on_c, 1, 39, 0
4, 10740, Note_on_c, 1, 38, 64
4, 10799, Note_on_c, 1, 38, 0
4, 10800, Note_on_c, 1, 39, 64
4, 10919, Note_on_c, 1, 39, 0
4, 10920, Note_on_c, 1, 41, 64
4, 11039, Note_on_c, 1, 41, 0
4, 11040, Note_on_c, 1, 34, 64
4, 11069, Note_on_c, 1, 34, 0
4, 11070, Note_on_c, 1, 38, 64
4, 11099, Note_on_c, 1, 38, 0
4, 11100, Note_on_c, 1, 36, 64
4, 11129, Note_on_c, 1, 36, 0
4, 11130, Note_on_c, 1, 39, 64
4, 11159, Note_on_c, 1, 39, 0
4, 11160, Note_on_c, 1, 38, 64
4, 11189, Note_on_c, 1, 38, 0
4, 11190, Note_on_c, 1, 41, 64
4, 11219, Note_on_c, 1, 41, 0
4, 11220, Note_on_c, 1, 33, 64
4, 11249, Note_on_c, 1, 33, 0
4, 11250, Note_on_c, 1, 36, 64
4, 11279, Note_on_c, 1, 36, 0
4, 11280, Note_on_c, 1, 34, 64
4, 11309, Note_on_c, 1, 34, 0
4, 11310, Note_on_c, 1, 38, 64
4, 11339, Note_on_c, 1, 38, 0
4, 11340, Note_on_c, 1, 36, 64
4, 11369, Note_on_c, 1, 36, 0
4, 11370, Note_on_c, 1, 39, 64
4, 11399, Note_on_c, 1, 39, 0
4, 11400, Note_on_c, 1, 38, 64
4, 11429, Note_on_c, 1, 38, 0
4, 11430, Note_on_c, 1, 41, 64
4, 11459, Note_on_c, 1, 41, 0
4, 11460, Note_on_c, 1, 33, 64
4, 11489, Note_on_c, 1, 33, 0
4, 11490, Note_on_c, 1, 36, 64
4, 11519, Note_on_c, 1, 36, 0
4, 11520, Note_on_c, 1, 34, 64
4, 11579, Note_on_c, 1, 34, 0
4, 11580, Note_on_c, 1, 33, 64
4, 11639, Note_on_c, 1, 33, 0
4, 11640, Note_on_c, 1, 34, 64
4, 11699, Note_on_c, 1, 34, 0
4, 11700, Note_on_c, 1, 36, 64
4, 11759, Note_on_c, 1, 36, 0
4, 11760, Note_on_c, 1, 38, 64
4, 11819, Note_on_c, 1, 38, 0
4, 11820, Note_on_c, 1, 33, 64
4, 11879, Note_on_c, 1, 33, 0
4, 11880, Note_on_c, 1, 34, 64
4, 11939, Note_on_c, 1, 34, 0
4, 11940, Note_on_c, 1, 36, 64
4, 11999, Note_on_c, 1, 36, 0
4, 12000, Note_on_c, 1, 38, 64
4, 12119, Note_on_c, 1, 38, 0
4, 12180, Note_on_c, 1, 40, 64
4, 12239, Note_on_c, 1, 40, 0
4, 12240, Note_on_c, 1, 41, 64
4, 12359, Note_on_c, 1, 41, 0
4, 12480, Note_on_c, 1, 34, 64
4, 12539, Note_on_c, 1, 34, 0
4, 12540, Note_on_c, 1, 33, 64
4, 12599, Note_on_c, 1, 33, 0
4, 12600, Note_on_c, 1, 34, 64
4, 12659, Note_on_c, 1, 34, 0
4, 12660, Note_on_c, 1, 36, 64
4, 12719, Note_on_c, 1, 36, 0
4, 12720, Note_on_c, 1, 38, 64
4, 12779, Note_on_c, 1, 38, 0
4, 12780, Note_on_c, 1, 33, 64
4, 12839, Note_on_c, 1, 33, 0
4, 12840, Note_on_c, 1, 34, 64
4, 12899, Note_on_c, 1, 34, 0
4, 12900, Note_on_c, 1, 36, 64
4, 12959, Note_on_c, 1, 36, 0
4, 12960, Note_on_c, 1, 38, 64
4, 13079, Note_on_c, 1, 38, 0
4, 13140, Note_on_c, 1, 40, 64
4, 13199, Note_on_c, 1, 40, 0
4, 13200, Note_on_c, 1, 41, 64
4, 13319, Note_on_c, 1, 41, 0
4, 13440, Note_on_c, 1, 38, 64
4, 13559, Note_on_c, 1, 38, 0
4, 13620, Note_on_c, 1, 38, 64
4, 13679, Note_on_c, 1, 38, 0
4, 13680, Note_on_c, 1, 39, 64
4, 13799, Note_on_c, 1, 39, 0
4, 13920, Note_on_c, 1, 40, 64
4, 14039, Note_on_c, 1, 40, 0
4, 14100, Note_on_c, 1, 40, 64
4, 14159, Note_on_c, 1, 40, 0
4, 14160, Note_on_c, 1, 41, 64
4, 14279, Note_on_c, 1, 41, 0
4, 14400, Note_on_c, 1, 42, 64
4, 14519, Note_on_c, 1, 42, 0
4, 14580, Note_on_c, 1, 42, 64
4, 14639, Note_on_c, 1, 42, 0
4, 14640, Note_on_c, 1, 43, 64
4, 14699, Note_on_c, 1, 43, 0
4, 14760, Note_on_c, 1, 45, 64
4, 14819, Note_on_c, 1, 45, 0
4, 14880, Note_on_c, 1, 46, 64
4, 15059, Note_on_c, 1, 46, 0
4, 15060, Note_on_c, 1, 45, 64
4, 15179, Note_on_c, 1, 45, 0
4, 15180, Note_on_c, 1, 43, 64
4, 15299, Note_on_c, 1, 43, 0
4, 15300, Note_on_c, 1, 41, 64
4, 15419, Note_on_c, 1, 41, 0
4, 15420, Note_on_c, 1, 39, 64
4, 15539, Note_on_c, 1, 39, 0
4, 15540, Note_on_c, 1, 38, 64
4, 15599, Note_on_c, 1, 38, 0
4, 15600, Note_on_c, 1, 39, 64
4, 15719, Note_on_c, 1, 39, 0
4, 15720, Note_on_c, 1, 41, 64
4, 15839, Note_on_c, 1, 41, 0
4, 15840, Note_on_c, 1, 34, 64
4, 15869, Note_on_c, 1, 34, 0
4, 15870, Note_on_c, 1, 38, 64
4, 15899, Note_on_c, 1, 38, 0
4, 15900, Note_on_c, 1, 36, 64
4, 15929, Note_on_c, 1, 36, 0
4, 15930, Note_on_c, 1, 39, 64
4, 15959, Note_on_c, 1, 39, 0
4, 15960, Note_on_c, 1, 38, 64
4, 15989, Note_on_c, 1, 38, 0
4, 15990, Note_on_c, 1, 41, 64
4, 16019, Note_on_c, 1, 41, 0
4, 16020, Note_on_c, 1, 33, 64
4, 16049, Note_on_c, 1, 33, 0
4, 16050, Note_on_c, 1, 36, 64
4, 16079, Note_on_c, 1, 36, 0
4, 16080, Note_on_c, 1, 34, 64
4, 16109, Note_on_c, 1, 34, 0
4, 16110, Note_on_c, 1, 38, 64
4, 16139, Note_on_c, 1, 38, 0
4, 16140, Note_on_c, 1, 36, 64
4, 16169, Note_on_c, 1, 36, 0
4, 16170, Note_on_c, 1, 39, 64
4, 16199, Note_on_c, 1, 39, 0
4, 16200, Note_on_c, 1, 38, 64
4, 16229, Note_on_c, 1, 38, 0
4, 16230, Note_on_c, 1, 41, 64
4, 16259, Note_on_c, 1, 41, 0
4, 16260, Note_on_c, 1, 33, 64
4, 16289, Note_on_c, 1, 33, 0
4, 16290, Note_on_c, 1, 36, 64
4, 16319, Note_on_c, 1, 36, 0
4, 16320, Note_on_c, 1, 38, 64
4, 16439, Note_on_c, 1, 38, 0
4, 16500, Note_on_c, 1, 38, 64
4, 16559, Note_on_c, 1, 38, 0
4, 16560, Note_on_c, 1, 39, 64
4, 16619, Note_on_c, 1, 39, 0
4, 16620, Note_on_c, 1, 38, 64
4, 16679, Note_on_c, 1, 38, 0
4, 16680, Note_on_c, 1, 39, 64
4, 16739, Note_on_c, 1, 39, 0
4, 16740, Note_on_c, 1, 41, 64
4, 16799, Note_on_c, 1, 41, 0
4, 16800, Note_on_c, 1, 43, 64
4, 16859, Note_on_c, 1, 43, 0
4, 16860, Note_on_c, 1, 41, 64
4, 16919, Note_on_c, 1, 41, 0
4, 16920, Note_on_c, 1, 43, 64
4, 16979, Note_on_c, 1, 43, 0
4, 16980, Note_on_c, 1, 45, 64
4, 17039, Note_on_c, 1, 45, 0
4, 17040, Note_on_c, 1, 46, 64
4, 17099, Note_on_c, 1, 46, 0
4, 17100, Note_on_c, 1, 39, 64
4, 17159, Note_on_c, 1, 39, 0
4, 17160, Note_on_c, 1, 41, 64
4, 17219, Note_on_c, 1, 41, 0
4, 17220, Note_on_c, 1, 29, 64
4, 17279, Note_on_c, 1, 29, 0
4, 17280, Note_on_c, 1, 34, 64
4, 17519, Note_on_c, 1, 34, 0
4, 24000, Note_on_c, 1, 34, 64
4, 24119, Note_on_c, 1, 34, 0
4, 24120, Note_on_c, 1, 41, 64
4, 24179, Note_on_c, 1, 41, 0
4, 24180, Note_on_c, 1, 39, 64
4, 24209, Note_on_c, 1, 39, 0
4, 24210, Note_on_c, 1, 41, 64
4, 24239, Note_on_c, 1, 41, 0
4, 24240, Note_on_c, 1, 38, 64
4, 24419, Note_on_c, 1, 38, 0
4, 24420, Note_on_c, 1, 43, 64
4, 24479, Note_on_c, 1, 43, 0
4, 24480, Note_on_c, 1, 39, 64
4, 24539, Note_on_c, 1, 39, 0
4, 24540, Note_on_c, 1, 38, 64
4, 24569, Note_on_c, 1, 38, 0
4, 24570, Note_on_c, 1, 39, 64
4, 24599, Note_on_c, 1, 39, 0
4, 24600, Note_on_c, 1, 36, 64
4, 24779, Note_on_c, 1, 36, 0
4, 24780, Note_on_c, 1, 41, 64
4, 24839, Note_on_c, 1, 41, 0
4, 24840, Note_on_c, 1, 34, 64
4, 24899, Note_on_c, 1, 34, 0
4, 24900, Note_on_c, 1, 41, 64
4, 24959, Note_on_c, 1, 41, 0
4, 24960, Note_on_c, 1, 34, 64
4, 25019, Note_on_c, 1, 34, 0
4, 25020, Note_on_c, 1, 41, 64
4, 25079, Note_on_c, 1, 41, 0
4, 25080, Note_on_c, 1, 34, 64
4, 25139, Note_on_c, 1, 34, 0
4, 25140, Note_on_c, 1, 41, 64
4, 25199, Note_on_c, 1, 41, 0
4, 25200, Note_on_c, 1, 33, 64
4, 25259, Note_on_c, 1, 33, 0
4, 25260, Note_on_c, 1, 41, 64
4, 25319, Note_on_c, 1, 41, 0
4, 25320, Note_on_c, 1, 33, 64
4, 25379, Note_on_c, 1, 33, 0
4, 25380, Note_on_c, 1, 41, 64
4, 25439, Note_on_c, 1, 41, 0
4, 25440, Note_on_c, 1, 33, 64
4, 25499, Note_on_c, 1, 33, 0
4, 25500, Note_on_c, 1, 41, 64
4, 25559, Note_on_c, 1, 41, 0
4, 25560, Note_on_c, 1, 31, 64
4, 25919, Note_on_c, 1, 31, 0
4, 25920, Note_on_c, 1, 36, 64
4, 26279, Note_on_c, 1, 36, 0
4, 26280, Note_on_c, 1, 29, 64
4, 26519, Note_on_c, 1, 29, 0
4, 31200, Note_on_c, 1, 38, 64
4, 31319, Note_on_c, 1, 38, 0
4, 31320, Note_on_c, 1, 43, 64
4, 31379, Note_on_c, 1, 43, 0
4, 31380, Note_on_c, 1, 41, 64
4, 31409, Note_on_c, 1, 41, 0
4, 31410, Note_on_c, 1, 43, 64
4, 31439, Note_on_c, 1, 43, 0
4, 31440, Note_on_c, 1, 39, 64
4, 31619, Note_on_c, 1, 39, 0
4, 31620, Note_on_c, 1, 44, 64
4, 31679, Note_on_c, 1, 44, 0
4, 31680, Note_on_c, 1, 41, 64
4, 31739, Note_on_c, 1, 41, 0
4, 31740, Note_on_c, 1, 39, 64
4, 31769, Note_on_c, 1, 39, 0
4, 31770, Note_on_c, 1, 41, 64
4, 31799, Note_on_c, 1, 41, 0
4, 31800, Note_on_c, 1, 38, 64
4, 31979, Note_on_c, 1, 38, 0
4, 31980, Note_on_c, 1, 43, 64
4, 32039, Note_on_c, 1, 43, 0
4, 32040, Note_on_c, 1, 36, 64
4, 32099, Note_on_c, 1, 36, 0
4, 32100, Note_on_c, 1, 43, 64
4, 32159, Note_on_c, 1, 43, 0
4, 32160, Note_on_c, 1, 36, 64
4, 32219, Note_on_c, 1, 36, 0
4, 32220, Note_on_c, 1, 43, 64
4, 32279, Note_on_c, 1, 43, 0
4, 32280, Note_on_c, 1, 36, 64
4, 32339, Note_on_c, 1, 36, 0
4, 32340, Note_on_c, 1, 43, 64
4, 32399, Note_on_c, 1, 43, 0
4, 32400, Note_on_c, 1, 34, 64
4, 32459, Note_on_c, 1, 34, 0
4, 32460, Note_on_c, 1, 43, 64
4, 32519, Note_on_c, 1, 43, 0
4, 32520, Note_on_c, 1, 34, 64
4, 32579, Note_on_c, 1, 34, 0
4, 32580, Note_on_c, 1, 43, 64
4, 32639, Note_on_c, 1, 43, 0
4, 32640, Note_on_c, 1, 34, 64
4, 32699, Note_on_c, 1, 34, 0
4, 32700, Note_on_c, 1, 43, 64
4, 32759, Note_on_c, 1, 43, 0
4, 32760, Note_on_c, 1, 33, 64
4, 33119, Note_on_c, 1, 33, 0
4, 33120, Note_on_c, 1, 38, 64
4, 33479, Note_on_c, 1, 38, 0
4, 33480, Note_on_c, 1, 31, 64
4, 33719, Note_on_c, 1, 31, 0
4, 33720, Note_on_c, 1, 31, 64
4, 33839, Note_on_c, 1, 31, 0
4, 33840, Note_on_c, 1, 33, 64
4, 33959, Note_on_c, 1, 33, 0
4, 33960, Note_on_c, 1, 34, 64
4, 34019, Note_on_c, 1, 34, 0
4, 34020, Note_on_c, 1, 33, 64
4, 34079, Note_on_c, 1, 33, 0
4, 34080, Note_on_c, 1, 31, 64
4, 34199, Note_on_c, 1, 31, 0
4, 34200, Note_on_c, 1, 36, 64
4, 34379, Note_on_c, 1, 36, 0
4, 34380, Note_on_c, 1, 34, 64
4, 34439, Note_on_c, 1, 34, 0
4, 34440, Note_on_c, 1, 33, 64
4, 34559, Note_on_c, 1, 33, 0
4, 34560, Note_on_c, 1, 38, 64
4, 34665, Note_on_c, 1, 38, 0
4, 34680, Note_on_c, 1, 38, 64
4, 34785, Note_on_c, 1, 38, 0
4, 34800, Note_on_c, 1, 38, 64
4, 34919, Note_on_c, 1, 38, 0
4, 34920, Note_on_c, 1, 36, 64
4, 35025, Note_on_c, 1, 36, 0
4, 35040, Note_on_c, 1, 36, 64
4, 35145, Note_on_c, 1, 36, 0
4, 35160, Note_on_c, 1, 36, 64
4, 35279, Note_on_c, 1, 36, 0
4, 35280, Note_on_c, 1, 34, 64
4, 35385, Note_on_c, 1, 34, 0
4, 35400, Note_on_c, 1, 34, 64
4, 35505, Note_on_c, 1, 34, 0
4, 35520, Note_on_c, 1, 34, 64
4, 35625, Note_on_c, 1, 34, 0
4, 35640, Note_on_c, 1, 34, 64
4, 35745, Note_on_c, 1, 34, 0
4, 35760, Note_on_c, 1, 34, 64
4, 35865, Note_on_c, 1, 34, 0
4, 35880, Note_on_c, 1, 34, 64
4, 35999, Note_on_c, 1, 34, 0
4, 36000, Note_on_c, 1, 33, 64
4, 36105, Note_on_c, 1, 33, 0
4, 36120, Note_on_c, 1, 33, 64
4, 36225, Note_on_c, 1, 33, 0
4, 36240, Note_on_c, 1, 33, 64
4, 36359, Note_on_c, 1, 33, 0
4, 36360, Note_on_c, 1, 34, 64
4, 36465, Note_on_c, 1, 34, 0
4, 36480, Note_on_c, 1, 34, 64
4, 36585, Note_on_c, 1, 34, 0
4, 36600, Note_on_c, 1, 34, 64
4, 36719, Note_on_c, 1, 34, 0
4, 36720, Note_on_c, 1, 33, 64
4, 36839, Note_on_c, 1, 33, 0
4, 36960, Note_on_c, 1, 31, 64
4, 37079, Note_on_c, 1, 31, 0
4, 37080, Note_on_c, 1, 29, 64
4, 37439, Note_on_c, 1, 29, 0
4, 37440, Note_on_c, 1, 34, 64
4, 38279, Note_on_c, 1, 34, 0
4, 38279, End_track
0, 0, End_of_file
