0, 0, Header, 1, 4, 120
1, 0, Start_track
1, 0, Key_signature, 1, "major"
1, 0, Tempo, 1153846
1, 0, Time_signature, 4, 2, 24, 8
1, 12000, Tempo, 1153846
1, 12000, Time_signature, 3, 2, 24, 8
1, 12006, Tempo, 1132075
1, 12013, Tempo, 1111111
1, 12020, Tempo, 1090909
1, 12027, Tempo, 1071428
1, 12034, Tempo, 1052631
1, 12041, Tempo, 1034482
1, 12048, Tempo, 1016949
1, 12055, Tempo, 1000000
1, 12062, Tempo, 983606
1, 12069, Tempo, 967741
1, 12076, Tempo, 952380
1, 12083, Tempo, 937500
1, 12090, Tempo, 923076
1, 12096, Tempo, 909090
1, 12103, Tempo, 895522
1, 12110, Tempo, 882352
1, 12117, Tempo, 869565
1, 12124, Tempo, 857142
1, 12131, Tempo, 845070
1, 12138, Tempo, 833333
1, 12145, Tempo, 821917
1, 12152, Tempo, 810810
1, 12159, Tempo, 800000
1, 12166, Tempo, 789473
1, 12173, Tempo, 779220
1, 12180, Tempo, 769230
1, 12186, Tempo, 759493
1, 12193, Tempo, 750000
1, 12200, Tempo, 740740
1, 12207, Tempo, 731707
1, 12214, Tempo, 722891
1, 12221, Tempo, 714285
1, 12228, Tempo, 705882
1, 12235, Tempo, 697674
1, 12242, Tempo, 689655
1, 12249, Tempo, 681818
1, 12256, Tempo, 674157
1, 12263, Tempo, 666666
1, 12270, Tempo, 659340
1, 12276, Tempo, 652173
1, 12283, Tempo, 645161
1, 12290, Tempo, 638297
1, 12297, Tempo, 631578
1, 12304, Tempo, 625000
1, 12311, Tempo, 618556
1, 12318, Tempo, 612244
1, 12325, Tempo, 606060
1, 12332, Tempo, 600000
1, 12339, Tempo, 594059
1, 12346, Tempo, 588235
1, 12353, Tempo, 582524
1, 12360, Tempo, 576923
1, 36480, Tempo, 576923
1, 36498, Tempo, 582524
1, 36516, Tempo, 588235
1, 36535, Tempo, 594059
1, 36553, Tempo, 600000
1, 36572, Tempo, 606060
1, 36590, Tempo, 612244
1, 36609, Tempo, 618556
1, 36627, Tempo, 625000
1, 36646, Tempo, 631578
1, 36664, Tempo, 638297
1, 36683, Tempo, 645161
1, 36701, Tempo, 652173
1, 36720, Tempo, 659340
1, 36738, Tempo, 666666
1, 36756, Tempo, 674157
1, 36775, Tempo, 681818
1, 36793, Tempo, 689655
1, 36812, Tempo, 697674
1, 36830, Tempo, 705882
1, 36849, Tempo, 714285
1, 36867, Tempo, 722891
1, 36886, Tempo, 731707
1, 36904, Tempo, 740740
1, 36923, Tempo, 750000
1, 36941, Tempo, 759493
1, 36960, Tempo, 769230
1, 36978, Tempo, 779220
1, 36996, Tempo, 789473
1, 37015, Tempo, 800000
1, 37033, Tempo, 810810
1, 37052, Tempo, 821917
1, 37070, Tempo, 833333
1, 37089, Tempo, 845070
1, 37107, Tempo, 857142
1, 37126, Tempo, 869565
1, 37144, Tempo, 882352
1, 37163, Tempo, 895522
1, 37181, Tempo, 909090
1, 37200, Tempo, 923076
1, 37218, Tempo, 937500
1, 37236, Tempo, 952380
1, 37255, Tempo, 967741
1, 37273, Tempo, 983606
1, 37292, Tempo, 1000000
1, 37310, Tempo, 1016949
1, 37329, Tempo, 1034482
1, 37347, Tempo, 1052631
1, 37366, Tempo, 1071428
1, 37384, Tempo, 1090909
1, 37403, Tempo, 1111111
1, 37421, Tempo, 1132075
1, 37440, Tempo, 1153846
1, 37458, Tempo, 1176470
1, 37476, Tempo, 1200000
1, 37495, Tempo, 1224489
1, 37513, Tempo, 1250000
1, 37532, Tempo, 1276595
1, 37550, Tempo, 1304347
1, 37569, Tempo, 1333333
1, 37587, Tempo, 1363636
1, 37606, Tempo, 1395348
1, 37624, Tempo, 1428571
1, 37643, Tempo, 1463414
1, 37661, Tempo, 1500000
1, 37680, Tempo, 1538461
1, 37698, Tempo, 1578947
1, 37716, Tempo, 1621621
1, 37735, Tempo, 1666666
1, 37753, Tempo, 1714285
1, 37772, Tempo, 1764705
1, 37790, Tempo, 1818181
1, 37809, Tempo, 1875000
1, 37827, Tempo, 1935483
1, 37846, Tempo, 2000000
1, 37864, Tempo, 2068965
1, 37883, Tempo, 2142857
1, 37901, Tempo, 2222222
1, 37920, Tempo, 2307692
1, 37920, End_track
2, 0, Start_track
2, 0, Title_t, "Right Hand"
2, 600, Note_on_c, 1, 71, 64
2, 600, Note_on_c, 1, 67, 64
2, 719, Note_on_c, 1, 67, 0
2, 719, Note_on_c, 1, 71, 0
2, 720, Note_on_c, 1, 69, 64
2, 720, Note_on_c, 1, 66, 64
2, 839, Note_on_c, 1, 66, 0
2, 899, Note_on_c, 1, 69, 0
2, 900, Note_on_c, 1, 71, 64
2, 959, Note_on_c, 1, 71, 0
2, 960, Note_on_c, 1, 67, 64
2, 1020, Note_on_c, 1, 59, 64
2, 1079, Note_on_c, 1, 59, 0
2, 1080, Note_on_c, 1, 64, 64
2, 1109, Note_on_c, 1, 67, 0
2, 1119, Note_on_c, 1, 64, 0
2, 1140, Note_on_c, 1, 67, 64
2, 1140, Note_on_c, 1, 64, 64
2, 1199, Note_on_c, 1, 64, 0
2, 1200, Note_on_c, 1, 60, 64
2, 1229, Note_on_c, 1, 67, 0
2, 1259, Note_on_c, 1, 60, 0
2, 1260, Note_on_c, 1, 67, 64
2, 1319, Note_on_c, 1, 67, 0
2, 1320, Note_on_c, 1, 60, 64
2, 1320, Note_on_c, 1, 66, 64
2, 1379, Note_on_c, 1, 66, 0
2, 1380, Note_on_c, 1, 64, 64
2, 1439, Note_on_c, 1, 64, 0
2, 1439, Note_on_c, 1, 60, 0
2, 1440, Note_on_c, 1, 63, 64
2, 1499, Note_on_c, 1, 63, 0
2, 1500, Note_on_c, 1, 59, 64
2, 1559, Note_on_c, 1, 59, 0
2, 1560, Note_on_c, 1, 71, 64
2, 1560, Note_on_c, 1, 64, 64
2, 1679, Note_on_c, 1, 71, 0
2, 1680, Note_on_c, 1, 69, 64
2, 1709, Note_on_c, 1, 64, 0
2, 1740, Note_on_c, 1, 64, 64
2, 1799, Note_on_c, 1, 64, 0
2, 1800, Note_on_c, 1, 63, 64
2, 1859, Note_on_c, 1, 69, 0
2, 1860, Note_on_c, 1, 71, 64
2, 1919, Note_on_c, 1, 71, 0
2, 1919, Note_on_c, 1, 63, 0
2, 1920, Note_on_c, 1, 64, 64
2, 1920, Note_on_c, 1, 67, 64
2, 1979, Note_on_c, 1, 67, 0
2, 1980, Note_on_c, 1, 69, 64
2, 2039, Note_on_c, 1, 69, 0
2, 2039, Note_on_c, 1, 64, 0
2, 2040, Note_on_c, 1, 71, 64
2, 2040, Note_on_c, 1, 66, 64
2, 2159, Note_on_c, 1, 66, 0
2, 2160, Note_on_c, 1, 64, 64
2, 2279, Note_on_c, 1, 71, 0
2, 2280, Note_on_c, 1, 69, 64
2, 2399, Note_on_c, 1, 69, 0
2, 2400, Note_on_c, 1, 71, 64
2, 2519, Note_on_c, 1, 64, 0
2, 2520, Note_on_c, 1, 63, 64
2, 2579, Note_on_c, 1, 71, 0
2, 2580, Note_on_c, 1, 69, 64
2, 2639, Note_on_c, 1, 69, 0
2, 2639, Note_on_c, 1, 63, 0
2, 2640, Note_on_c, 1, 68, 64
2, 2700, Note_on_c, 1, 62, 64
2, 2759, Note_on_c, 1, 62, 0
2, 2759, Note_on_c, 1, 68, 0
2, 2760, Note_on_c, 1, 60, 64
2, 2819, Note_on_c, 1, 60, 0
2, 2820, Note_on_c, 1, 59, 64
2, 2879, Note_on_c, 1, 59, 0
2, 2940, Note_on_c, 1, 64, 64
2, 3000, Note_on_c, 1, 69, 64
2, 3059, Note_on_c, 1, 69, 0
2, 3060, Note_on_c, 1, 67, 64
2, 3119, Note_on_c, 1, 67, 0
2, 3119, Note_on_c, 1, 64, 0
2, 3120, Note_on_c, 1, 62, 64
2, 3120, Note_on_c, 1, 66, 64
2, 3179, Note_on_c, 1, 66, 0
2, 3180, Note_on_c, 1, 62, 64
2, 3239, Note_on_c, 1, 62, 0
2, 3239, Note_on_c, 1, 62, 0
2, 3240, Note_on_c, 1, 67, 64
2, 3240, Note_on_c, 1, 74, 64
2, 3359, Note_on_c, 1, 74, 0
2, 3360, Note_on_c, 1, 72, 64
2, 3389, Note_on_c, 1, 67, 0
2, 3420, Note_on_c, 1, 67, 64
2, 3479, Note_on_c, 1, 67, 0
2, 3480, Note_on_c, 1, 66, 64
2, 3539, Note_on_c, 1, 72, 0
2, 3540, Note_on_c, 1, 74, 64
2, 3599, Note_on_c, 1, 74, 0
2, 3599, Note_on_c, 1, 66, 0
2, 3600, Note_on_c, 1, 71, 64
2, 3660, Note_on_c, 1, 62, 64
2, 3719, Note_on_c, 1, 62, 0
2, 3720, Note_on_c, 1, 67, 64
2, 3779, Note_on_c, 1, 67, 0
2, 3780, Note_on_c, 1, 66, 64
2, 3839, Note_on_c, 1, 66, 0
2, 3840, Note_on_c, 1, 64, 64
2, 3899, Note_on_c, 1, 71, 0
2, 3900, Note_on_c, 1, 69, 64
2, 3959, Note_on_c, 1, 69, 0
2, 3959, Note_on_c, 1, 64, 0
2, 3960, Note_on_c, 1, 72, 64
2, 4020, Note_on_c, 1, 64, 64
2, 4079, Note_on_c, 1, 64, 0
2, 4080, Note_on_c, 1, 66, 64
2, 4139, Note_on_c, 1, 72, 0
2, 4140, Note_on_c, 1, 69, 64
2, 4199, Note_on_c, 1, 69, 0
2, 4199, Note_on_c, 1, 66, 0
2, 4200, Note_on_c, 1, 71, 64
2, 4259, Note_on_c, 1, 71, 0
2, 4260, Note_on_c, 1, 72, 64
2, 4319, Note_on_c, 1, 72, 0
2, 4320, Note_on_c, 1, 69, 64
2, 4559, Note_on_c, 1, 69, 0
2, 4560, Note_on_c, 1, 67, 64
2, 4619, Note_on_c, 1, 67, 0
2, 4620, Note_on_c, 1, 69, 64
2, 4679, Note_on_c, 1, 69, 0
2, 4680, Note_on_c, 1, 71, 64
2, 4800, Note_on_c, 1, 67, 64
2, 4859, Note_on_c, 1, 71, 0
2, 4860, Note_on_c, 1, 73, 64
2, 4919, Note_on_c, 1, 73, 0
2, 4920, Note_on_c, 1, 74, 64
2, 4979, Note_on_c, 1, 67, 0
2, 4980, Note_on_c, 1, 66, 64
2, 5039, Note_on_c, 1, 66, 0
2, 5040, Note_on_c, 1, 64, 64
2, 5069, Note_on_c, 1, 74, 0
2, 5100, Note_on_c, 1, 74, 64
2, 5159, Note_on_c, 1, 74, 0
2, 5160, Note_on_c, 1, 73, 64
2, 5219, Note_on_c, 1, 64, 0
2, 5220, Note_on_c, 1, 67, 64
2, 5279, Note_on_c, 1, 67, 0
2, 5279, Note_on_c, 1, 73, 0
2, 5280, Note_on_c, 1, 74, 64
2, 5280, Note_on_c, 1, 66, 64
2, 5339, Note_on_c, 1, 66, 0
2, 5340, Note_on_c, 1, 62, 64
2, 5399, Note_on_c, 1, 62, 0
2, 5399, Note_on_c, 1, 74, 0
2, 5400, Note_on_c, 1, 64, 64
2, 5459, Note_on_c, 1, 64, 0
2, 5460, Note_on_c, 1, 66, 64
2, 5519, Note_on_c, 1, 66, 0
2, 5520, Note_on_c, 1, 67, 64
2, 5579, Note_on_c, 1, 67, 0
2, 5580, Note_on_c, 1, 69, 64
2, 5639, Note_on_c, 1, 69, 0
2, 5640, Note_on_c, 1, 71, 64
2, 5700, Note_on_c, 1, 74, 64
2, 5759, Note_on_c, 1, 74, 0
2, 5760, Note_on_c, 1, 76, 64
2, 5789, Note_on_c, 1, 71, 0
2, 5820, Note_on_c, 1, 71, 64
2, 5879, Note_on_c, 1, 71, 0
2, 5880, Note_on_c, 1, 69, 64
2, 5939, Note_on_c, 1, 69, 0
2, 5940, Note_on_c, 1, 67, 64
2, 5999, Note_on_c, 1, 67, 0
2, 5999, Note_on_c, 1, 76, 0
2, 6000, Note_on_c, 1, 74, 64
2, 6000, Note_on_c, 1, 66, 64
2, 6059, Note_on_c, 1, 66, 0
2, 6060, Note_on_c, 1, 62, 64
2, 6119, Note_on_c, 1, 62, 0
2, 6120, Note_on_c, 1, 67, 64
2, 6179, Note_on_c, 1, 67, 0
2, 6180, Note_on_c, 1, 66, 64
2, 6239, Note_on_c, 1, 66, 0
2, 6239, Note_on_c, 1, 74, 0
2, 6240, Note_on_c, 1, 72, 64
2, 6240, Note_on_c, 1, 64, 64
2, 6299, Note_on_c, 1, 64, 0
2, 6300, Note_on_c, 1, 60, 64
2, 6359, Note_on_c, 1, 60, 0
2, 6360, Note_on_c, 1, 66, 64
2, 6419, Note_on_c, 1, 66, 0
2, 6420, Note_on_c, 1, 64, 64
2, 6479, Note_on_c, 1, 64, 0
2, 6479, Note_on_c, 1, 72, 0
2, 6480, Note_on_c, 1, 71, 64
2, 6480, Note_on_c, 1, 63, 64
2, 6539, Note_on_c, 1, 63, 0
2, 6540, Note_on_c, 1, 59, 64
2, 6599, Note_on_c, 1, 59, 0
2, 6600, Note_on_c, 1, 64, 64
2, 6659, Note_on_c, 1, 71, 0
2, 6660, Note_on_c, 1, 73, 64
2, 6719, Note_on_c, 1, 73, 0
2, 6720, Note_on_c, 1, 70, 64
2, 6749, Note_on_c, 1, 64, 0
2, 6780, Note_on_c, 1, 64, 64
2, 6839, Note_on_c, 1, 64, 0
2, 6839, Note_on_c, 1, 70, 0
2, 6900, Note_on_c, 1, 71, 64
2, 6989, Note_on_c, 1, 71, 0
2, 7020, Note_on_c, 1, 71, 64
2, 7139, Note_on_c, 1, 71, 0
2, 7140, Note_on_c, 1, 70, 64
2, 7199, Note_on_c, 1, 70, 0
2, 7200, Note_on_c, 1, 71, 64
2, 7259, Note_on_c, 1, 71, 0
2, 7260, Note_on_c, 1, 73, 64
2, 7319, Note_on_c, 1, 73, 0
2, 7320, Note_on_c, 1, 74, 64
2, 7320, Note_on_c, 1, 66, 64
2, 7379, Note_on_c, 1, 66, 0
2, 7379, Note_on_c, 1, 74, 0
2, 7380, Note_on_c, 1, 76, 64
2, 7439, Note_on_c, 1, 76, 0
2, 7440, Note_on_c, 1, 66, 64
2, 7440, Note_on_c, 1, 78, 64
2, 7499, Note_on_c, 1, 78, 0
2, 7500, Note_on_c, 1, 73, 64
2, 7559, Note_on_c, 1, 73, 0
2, 7560, Note_on_c, 1, 78, 64
2, 7619, Note_on_c, 1, 78, 0
2, 7620, Note_on_c, 1, 76, 64
2, 7679, Note_on_c, 1, 76, 0
2, 7680, Note_on_c, 1, 74, 64
2, 7739, Note_on_c, 1, 74, 0
2, 7740, Note_on_c, 1, 71, 64
2, 7799, Note_on_c, 1, 71, 0
2, 7799, Note_on_c, 1, 66, 0
2, 7800, Note_on_c, 1, 76, 64
2, 7859, Note_on_c, 1, 76, 0
2, 7860, Note_on_c, 1, 74, 64
2, 7919, Note_on_c, 1, 74, 0
2, 7920, Note_on_c, 1, 72, 64
2, 7979, Note_on_c, 1, 72, 0
2, 7980, Note_on_c, 1, 69, 64
2, 8039, Note_on_c, 1, 69, 0
2, 8040, Note_on_c, 1, 74, 64
2, 8099, Note_on_c, 1, 74, 0
2, 8100, Note_on_c, 1, 72, 64
2, 8159, Note_on_c, 1, 72, 0
2, 8160, Note_on_c, 1, 71, 64
2, 8219, Note_on_c, 1, 71, 0
2, 8220, Note_on_c, 1, 67, 64
2, 8279, Note_on_c, 1, 67, 0
2, 8280, Note_on_c, 1, 72, 64
2, 8339, Note_on_c, 1, 72, 0
2, 8340, Note_on_c, 1, 71, 64
2, 8399, Note_on_c, 1, 71, 0
2, 8400, Note_on_c, 1, 69, 64
2, 8459, Note_on_c, 1, 69, 0
2, 8460, Note_on_c, 1, 66, 64
2, 8519, Note_on_c, 1, 66, 0
2, 8520, Note_on_c, 1, 71, 64
2, 8579, Note_on_c, 1, 71, 0
2, 8580, Note_on_c, 1, 69, 64
2, 8639, Note_on_c, 1, 69, 0
2, 8640, Note_on_c, 1, 67, 64
2, 8759, Note_on_c, 1, 67, 0
2, 8760, Note_on_c, 1, 79, 64
2, 8760, Note_on_c, 1, 76, 64
2, 8760, Note_on_c, 1, 71, 64
2, 8879, Note_on_c, 1, 71, 0
2, 8880, Note_on_c, 1, 69, 64
2, 8999, Note_on_c, 1, 76, 0
2, 8999, Note_on_c, 1, 79, 0
2, 9000, Note_on_c, 1, 78, 64
2, 9000, Note_on_c, 1, 74, 64
2, 9119, Note_on_c, 1, 69, 0
2, 9239, Note_on_c, 1, 74, 0
2, 9239, Note_on_c, 1, 78, 0
2, 9240, Note_on_c, 1, 72, 64
2, 9240, Note_on_c, 1, 76, 64
2, 9360, Note_on_c, 1, 66, 64
2, 9479, Note_on_c, 1, 76, 0
2, 9479, Note_on_c, 1, 72, 0
2, 9480, Note_on_c, 1, 71, 64
2, 9480, Note_on_c, 1, 74, 64
2, 9599, Note_on_c, 1, 66, 0
2, 9719, Note_on_c, 1, 74, 0
2, 9719, Note_on_c, 1, 71, 0
2, 9720, Note_on_c, 1, 72, 64
2, 9720, Note_on_c, 1, 69, 64
2, 9840, Note_on_c, 1, 62, 64
2, 9959, Note_on_c, 1, 69, 0
2, 9959, Note_on_c, 1, 72, 0
2, 9960, Note_on_c, 1, 71, 64
2, 9960, Note_on_c, 1, 67, 64
2, 10079, Note_on_c, 1, 62, 0
2, 10139, Note_on_c, 1, 67, 0
2, 10139, Note_on_c, 1, 71, 0
2, 10140, Note_on_c, 1, 64, 64
2, 10199, Note_on_c, 1, 64, 0
2, 10200, Note_on_c, 1, 69, 64
2, 10259, Note_on_c, 1, 69, 0
2, 10260, Note_on_c, 1, 67, 64
2, 10319, Note_on_c, 1, 67, 0
2, 10320, Note_on_c, 1, 66, 64
2, 10379, Note_on_c, 1, 66, 0
2, 10380, Note_on_c, 1, 62, 64
2, 10439, Note_on_c, 1, 62, 0
2, 10440, Note_on_c, 1, 71, 64
2, 10499, Note_on_c, 1, 71, 0
2, 10500, Note_on_c, 1, 69, 64
2, 10559, Note_on_c, 1, 69, 0
2, 10560, Note_on_c, 1, 67, 64
2, 10679, Note_on_c, 1, 67, 0
2, 10680, Note_on_c, 1, 76, 64
2, 10680, Note_on_c, 1, 71, 64
2, 10799, Note_on_c, 1, 71, 0
2, 10799, Note_on_c, 1, 76, 0
2, 10800, Note_on_c, 1, 75, 64
2, 10860, Note_on_c, 1, 69, 64
2, 10919, Note_on_c, 1, 69, 0
2, 10920, Note_on_c, 1, 67, 64
2, 10979, Note_on_c, 1, 67, 0
2, 10980, Note_on_c, 1, 66, 64
2, 11039, Note_on_c, 1, 66, 0
2, 11039, Note_on_c, 1, 75, 0
2, 11040, Note_on_c, 1, 64, 64
2, 11100, Note_on_c, 1, 74, 64
2, 11159, Note_on_c, 1, 74, 0
2, 11160, Note_on_c, 1, 72, 64
2, 11219, Note_on_c, 1, 72, 0
2, 11220, Note_on_c, 1, 71, 64
2, 11279, Note_on_c, 1, 71, 0
2, 11280, Note_on_c, 1, 72, 64
2, 11339, Note_on_c, 1, 72, 0
2, 11340, Note_on_c, 1, 69, 64
2, 11399, Note_on_c, 1, 69, 0
2, 11399, Note_on_c, 1, 64, 0
2, 11400, Note_on_c, 1, 65, 64
2, 11459, Note_on_c, 1, 65, 0
2, 11460, Note_on_c, 1, 69, 64
2, 11519, Note_on_c, 1, 69, 0
2, 11520, Note_on_c, 1, 63, 64
2, 11639, Note_on_c, 1, 63, 0
2, 11640, Note_on_c, 1, 64, 64
2, 11879, Note_on_c, 1, 64, 0
2, 11880, Note_on_c, 1, 63, 64
2, 11999, Note_on_c, 1, 63, 0
2, 12000, Note_on_c, 1, 64, 64
2, 12449, Note_on_c, 1, 64, 0
2, 12480, Note_on_c, 1, 64, 64
2, 12839, Note_on_c, 1, 64, 0
2, 12840, Note_on_c, 1, 66, 64
2, 13199, Note_on_c, 1, 66, 0
2, 13200, Note_on_c, 1, 67, 64
2, 13439, Note_on_c, 1, 67, 0
2, 13440, Note_on_c, 1, 68, 64
2, 13559, Note_on_c, 1, 68, 0
2, 13560, Note_on_c, 1, 69, 64
2, 13799, Note_on_c, 1, 69, 0
2, 13800, Note_on_c, 1, 70, 64
2, 13919, Note_on_c, 1, 70, 0
2, 13920, Note_on_c, 1, 71, 64
2, 14039, Note_on_c, 1, 71, 0
2, 14040, Note_on_c, 1, 69, 64
2, 14159, Note_on_c, 1, 69, 0
2, 14160, Note_on_c, 1, 67, 64
2, 14279, Note_on_c, 1, 67, 0
2, 14280, Note_on_c, 1, 69, 64
2, 14399, Note_on_c, 1, 69, 0
2, 14400, Note_on_c, 1, 66, 64
2, 14519, Note_on_c, 1, 66, 0
2, 14520, Note_on_c, 1, 71, 64
2, 14639, Note_on_c, 1, 71, 0
2, 14640, Note_on_c, 1, 67, 64
2, 14759, Note_on_c, 1, 67, 0
2, 14760, Note_on_c, 1, 69, 64
2, 14819, Note_on_c, 1, 69, 0
2, 14820, Note_on_c, 1, 67, 64
2, 14879, Note_on_c, 1, 67, 0
2, 14880, Note_on_c, 1, 66, 64
2, 14939, Note_on_c, 1, 66, 0
2, 14940, Note_on_c, 1, 64, 64
2, 14999, Note_on_c, 1, 64, 0
2, 15000, Note_on_c, 1, 62, 64
2, 15119, Note_on_c, 1, 62, 0
2, 15120, Note_on_c, 1, 66, 64
2, 15239, Note_on_c, 1, 66, 0
2, 15240, Note_on_c, 1, 71, 64
2, 15479, Note_on_c, 1, 71, 0
2, 15480, Note_on_c, 1, 64, 64
2, 15599, Note_on_c, 1, 64, 0
2, 15600, Note_on_c, 1, 69, 64
2, 15839, Note_on_c, 1, 69, 0
2, 15840, Note_on_c, 1, 66, 64
2, 15959, Note_on_c, 1, 66, 0
2, 15960, Note_on_c, 1, 71, 64
2, 16199, Note_on_c, 1, 71, 0
2, 16200, Note_on_c, 1, 68, 64
2, 16319, Note_on_c, 1, 68, 0
2, 16320, Note_on_c, 1, 73, 64
2, 16439, Note_on_c, 1, 73, 0
2, 16440, Note_on_c, 1, 70, 64
2, 16679, Note_on_c, 1, 70, 0
2, 16680, Note_on_c, 1, 71, 64
2, 17039, Note_on_c, 1, 71, 0
2, 17040, Note_on_c, 1, 70, 64
2, 17159, Note_on_c, 1, 70, 0
2, 17160, Note_on_c, 1, 69, 64
2, 17399, Note_on_c, 1, 69, 0
2, 17400, Note_on_c, 1, 67, 64
2, 17519, Note_on_c, 1, 67, 0
2, 17520, Note_on_c, 1, 66, 64
2, 17639, Note_on_c, 1, 66, 0
2, 17640, Note_on_c, 1, 67, 64
2, 17699, Note_on_c, 1, 67, 0
2, 17700, Note_on_c, 1, 69, 64
2, 17759, Note_on_c, 1, 69, 0
2, 17760, Note_on_c, 1, 63, 64
2, 17760, Note_on_c, 1, 71, 64
2, 17819, Note_on_c, 1, 71, 0
2, 17820, Note_on_c, 1, 69, 64
2, 17879, Note_on_c, 1, 69, 0
2, 17879, Note_on_c, 1, 63, 0
2, 17880, Note_on_c, 1, 67, 64
2, 17999, Note_on_c, 1, 67, 0
2, 18000, Note_on_c, 1, 71, 64
2, 18119, Note_on_c, 1, 71, 0
2, 18120, Note_on_c, 1, 76, 64
2, 18120, Note_on_c, 1, 67, 64
2, 18239, Note_on_c, 1, 67, 0
2, 18240, Note_on_c, 1, 69, 64
2, 18359, Note_on_c, 1, 76, 0
2, 18360, Note_on_c, 1, 74, 64
2, 18479, Note_on_c, 1, 74, 0
2, 18480, Note_on_c, 1, 72, 64
2, 18599, Note_on_c, 1, 72, 0
2, 18600, Note_on_c, 1, 71, 64
2, 18719, Note_on_c, 1, 69, 0
2, 18720, Note_on_c, 1, 67, 64
2, 18779, Note_on_c, 1, 67, 0
2, 18780, Note_on_c, 1, 66, 64
2, 18839, Note_on_c, 1, 66, 0
2, 18840, Note_on_c, 1, 64, 64
2, 18899, Note_on_c, 1, 64, 0
2, 18900, Note_on_c, 1, 62, 64
2, 18959, Note_on_c, 1, 62, 0
2, 18959, Note_on_c, 1, 71, 0
2, 18960, Note_on_c, 1, 73, 64
2, 19080, Note_on_c, 1, 69, 64
2, 19139, Note_on_c, 1, 69, 0
2, 19140, Note_on_c, 1, 67, 64
2, 19199, Note_on_c, 1, 67, 0
2, 19200, Note_on_c, 1, 66, 64
2, 19259, Note_on_c, 1, 66, 0
2, 19260, Note_on_c, 1, 64, 64
2, 19319, Note_on_c, 1, 64, 0
2, 19319, Note_on_c, 1, 73, 0
2, 19320, Note_on_c, 1, 74, 64
2, 19439, Note_on_c, 1, 74, 0
2, 19440, Note_on_c, 1, 73, 64
2, 19559, Note_on_c, 1, 73, 0
2, 19560, Note_on_c, 1, 71, 64
2, 19560, Note_on_c, 1, 66, 64
2, 19679, Note_on_c, 1, 66, 0
2, 19799, Note_on_c, 1, 71, 0
2, 19800, Note_on_c, 1, 73, 64
2, 19859, Note_on_c, 1, 73, 0
2, 19860, Note_on_c, 1, 71, 64
2, 19919, Note_on_c, 1, 71, 0
2, 19920, Note_on_c, 1, 70, 64
2, 20039, Note_on_c, 1, 70, 0
2, 20040, Note_on_c, 1, 71, 64
2, 20040, Note_on_c, 1, 66, 64
2, 20279, Note_on_c, 1, 71, 0
2, 20280, Note_on_c, 1, 71, 64
2, 20339, Note_on_c, 1, 71, 0
2, 20399, Note_on_c, 1, 66, 0
2, 20400, Note_on_c, 1, 71, 64
2, 20400, Note_on_c, 1, 68, 64
2, 20639, Note_on_c, 1, 71, 0
2, 20640, Note_on_c, 1, 73, 64
2, 20699, Note_on_c, 1, 73, 0
2, 20759, Note_on_c, 1, 68, 0
2, 20760, Note_on_c, 1, 70, 64
2, 20760, Note_on_c, 1, 73, 64
2, 20999, Note_on_c, 1, 73, 0
2, 20999, Note_on_c, 1, 70, 0
2, 21000, Note_on_c, 1, 74, 64
2, 21000, Note_on_c, 1, 66, 64
2, 21119, Note_on_c, 1, 66, 0
2, 21119, Note_on_c, 1, 74, 0
2, 21120, Note_on_c, 1, 67, 64
2, 21120, Note_on_c, 1, 73, 64
2, 21359, Note_on_c, 1, 67, 0
2, 21360, Note_on_c, 1, 66, 64
2, 21419, Note_on_c, 1, 66, 0
2, 21479, Note_on_c, 1, 73, 0
2, 21480, Note_on_c, 1, 74, 64
2, 21480, Note_on_c, 1, 66, 64
2, 21659, Note_on_c, 1, 74, 0
2, 21660, Note_on_c, 1, 73, 64
2, 21719, Note_on_c, 1, 73, 0
2, 21719, Note_on_c, 1, 66, 0
2, 21720, Note_on_c, 1, 66, 64
2, 21720, Note_on_c, 1, 71, 64
2, 21839, Note_on_c, 1, 66, 0
2, 21840, Note_on_c, 1, 64, 64
2, 21899, Note_on_c, 1, 64, 0
2, 21899, Note_on_c, 1, 71, 0
2, 21900, Note_on_c, 1, 73, 64
2, 21959, Note_on_c, 1, 73, 0
2, 21960, Note_on_c, 1, 70, 64
2, 21960, Note_on_c, 1, 64, 64
2, 22139, Note_on_c, 1, 70, 0
2, 22140, Note_on_c, 1, 71, 64
2, 22169, Note_on_c, 1, 71, 0
2, 22199, Note_on_c, 1, 64, 0
2, 22200, Note_on_c, 1, 71, 64
2, 22319, Note_on_c, 1, 71, 0
2, 22320, Note_on_c, 1, 66, 64
2, 22439, Note_on_c, 1, 66, 0
2, 22440, Note_on_c, 1, 74, 64
2, 22679, Note_on_c, 1, 74, 0
2, 22680, Note_on_c, 1, 71, 64
2, 22799, Note_on_c, 1, 71, 0
2, 22800, Note_on_c, 1, 76, 64
2, 23039, Note_on_c, 1, 76, 0
2, 23040, Note_on_c, 1, 73, 64
2, 23159, Note_on_c, 1, 73, 0
2, 23160, Note_on_c, 1, 78, 64
2, 23399, Note_on_c, 1, 78, 0
2, 23400, Note_on_c, 1, 71, 64
2, 23519, Note_on_c, 1, 71, 0
2, 23520, Note_on_c, 1, 69, 64
2, 23759, Note_on_c, 1, 69, 0
2, 23760, Note_on_c, 1, 67, 64
2, 23819, Note_on_c, 1, 67, 0
2, 23820, Note_on_c, 1, 66, 64
2, 23879, Note_on_c, 1, 66, 0
2, 23880, Note_on_c, 1, 67, 64
2, 23999, Note_on_c, 1, 67, 0
2, 24000, Note_on_c, 1, 69, 64
2, 24359, Note_on_c, 1, 69, 0
2, 24480, Note_on_c, 1, 79, 64
2, 24539, Note_on_c, 1, 79, 0
2, 24540, Note_on_c, 1, 78, 64
2, 24599, Note_on_c, 1, 78, 0
2, 24600, Note_on_c, 1, 76, 64
2, 24659, Note_on_c, 1, 76, 0
2, 24660, Note_on_c, 1, 74, 64
2, 24719, Note_on_c, 1, 74, 0
2, 24720, Note_on_c, 1, 73, 64
2, 24839, Note_on_c, 1, 73, 0
2, 24840, Note_on_c, 1, 81, 64
2, 24899, Note_on_c, 1, 81, 0
2, 24900, Note_on_c, 1, 79, 64
2, 24959, Note_on_c, 1, 79, 0
2, 24960, Note_on_c, 1, 78, 64
2, 25019, Note_on_c, 1, 78, 0
2, 25020, Note_on_c, 1, 76, 64
2, 25079, Note_on_c, 1, 76, 0
2, 25080, Note_on_c, 1, 75, 64
2, 25200, Note_on_c, 1, 66, 64
2, 25319, Note_on_c, 1, 66, 0
2, 25319, Note_on_c, 1, 75, 0
2, 25320, Note_on_c, 1, 76, 64
2, 25320, Note_on_c, 1, 67, 64
2, 25439, Note_on_c, 1, 67, 0
2, 25440, Note_on_c, 1, 69, 64
2, 25559, Note_on_c, 1, 69, 0
2, 25560, Note_on_c, 1, 67, 64
2, 25679, Note_on_c, 1, 67, 0
2, 25679, Note_on_c, 1, 76, 0
2, 25680, Note_on_c, 1, 75, 64
2, 25799, Note_on_c, 1, 75, 0
2, 25800, Note_on_c, 1, 76, 64
2, 25800, Note_on_c, 1, 67, 64
2, 25919, Note_on_c, 1, 67, 0
2, 25919, Note_on_c, 1, 76, 0
2, 25920, Note_on_c, 1, 74, 64
2, 25920, Note_on_c, 1, 68, 64
2, 26039, Note_on_c, 1, 68, 0
2, 26039, Note_on_c, 1, 74, 0
2, 26040, Note_on_c, 1, 72, 64
2, 26040, Note_on_c, 1, 64, 64
2, 26159, Note_on_c, 1, 64, 0
2, 26159, Note_on_c, 1, 72, 0
2, 26160, Note_on_c, 1, 71, 64
2, 26160, Note_on_c, 1, 66, 64
2, 26519, Note_on_c, 1, 66, 0
2, 26519, Note_on_c, 1, 71, 0
2, 26520, Note_on_c, 1, 64, 64
2, 26520, Note_on_c, 1, 69, 64
2, 26879, Note_on_c, 1, 69, 0
2, 26880, Note_on_c, 1, 67, 64
2, 27119, Note_on_c, 1, 67, 0
2, 27119, Note_on_c, 1, 64, 0
2, 27120, Note_on_c, 1, 66, 64
2, 27120, Note_on_c, 1, 62, 64
2, 27239, Note_on_c, 1, 62, 0
2, 27239, Note_on_c, 1, 66, 0
2, 27240, Note_on_c, 1, 61, 64
2, 27240, Note_on_c, 1, 64, 64
2, 27299, Note_on_c, 1, 64, 0
2, 27299, Note_on_c, 1, 61, 0
2, 27360, Note_on_c, 1, 64, 64
2, 27360, Note_on_c, 1, 61, 64
2, 27539, Note_on_c, 1, 64, 0
2, 27540, Note_on_c, 1, 63, 64
2, 27569, Note_on_c, 1, 63, 0
2, 27570, Note_on_c, 1, 64, 64
2, 27599, Note_on_c, 1, 64, 0
2, 27599, Note_on_c, 1, 61, 0
2, 27600, Note_on_c, 1, 63, 64
2, 27779, Note_on_c, 1, 63, 0
2, 27780, Note_on_c, 1, 61, 64
2, 27809, Note_on_c, 1, 61, 0
2, 27810, Note_on_c, 1, 63, 64
2, 27839, Note_on_c, 1, 63, 0
2, 27840, Note_on_c, 1, 64, 64
2, 28019, Note_on_c, 1, 64, 0
2, 28080, Note_on_c, 1, 64, 64
2, 28259, Note_on_c, 1, 64, 0
2, 28260, Note_on_c, 1, 63, 64
2, 28319, Note_on_c, 1, 63, 0
2, 28320, Note_on_c, 1, 64, 64
2, 28440, Note_on_c, 1, 55, 64
2, 28499, Note_on_c, 1, 55, 0
2, 28500, Note_on_c, 1, 57, 64
2, 28559, Note_on_c, 1, 57, 0
2, 28560, Note_on_c, 1, 59, 64
2, 28619, Note_on_c, 1, 59, 0
2, 28620, Note_on_c, 1, 61, 64
2, 28679, Note_on_c, 1, 61, 0
2, 28679, Note_on_c, 1, 64, 0
2, 28680, Note_on_c, 1, 59, 64
2, 28680, Note_on_c, 1, 63, 64
2, 28799, Note_on_c, 1, 59, 0
2, 28800, Note_on_c, 1, 54, 64
2, 28859, Note_on_c, 1, 54, 0
2, 28860, Note_on_c, 1, 56, 64
2, 28919, Note_on_c, 1, 56, 0
2, 28919, Note_on_c, 1, 63, 0
2, 28920, Note_on_c, 1, 62, 64
2, 28920, Note_on_c, 1, 57, 64
2, 28979, Note_on_c, 1, 57, 0
2, 28980, Note_on_c, 1, 59, 64
2, 29039, Note_on_c, 1, 59, 0
2, 29039, Note_on_c, 1, 62, 0
2, 29040, Note_on_c, 1, 61, 64
2, 29040, Note_on_c, 1, 57, 64
2, 29159, Note_on_c, 1, 57, 0
2, 29160, Note_on_c, 1, 52, 64
2, 29219, Note_on_c, 1, 52, 0
2, 29220, Note_on_c, 1, 54, 64
2, 29279, Note_on_c, 1, 54, 0
2, 29279, Note_on_c, 1, 61, 0
2, 29280, Note_on_c, 1, 60, 64
2, 29280, Note_on_c, 1, 55, 64
2, 29339, Note_on_c, 1, 55, 0
2, 29340, Note_on_c, 1, 57, 64
2, 29399, Note_on_c, 1, 57, 0
2, 29399, Note_on_c, 1, 60, 0
2, 29400, Note_on_c, 1, 71, 64
2, 29400, Note_on_c, 1, 59, 64
2, 29519, Note_on_c, 1, 59, 0
2, 29520, Note_on_c, 1, 61, 64
2, 29579, Note_on_c, 1, 61, 0
2, 29580, Note_on_c, 1, 62, 64
2, 29639, Note_on_c, 1, 62, 0
2, 29640, Note_on_c, 1, 64, 64
2, 29699, Note_on_c, 1, 64, 0
2, 29700, Note_on_c, 1, 66, 64
2, 29759, Note_on_c, 1, 66, 0
2, 29759, Note_on_c, 1, 71, 0
2, 29760, Note_on_c, 1, 64, 64
2, 29760, Note_on_c, 1, 69, 64
2, 29819, Note_on_c, 1, 64, 0
2, 29820, Note_on_c, 1, 62, 64
2, 29879, Note_on_c, 1, 62, 0
2, 29880, Note_on_c, 1, 61, 64
2, 29939, Note_on_c, 1, 61, 0
2, 29940, Note_on_c, 1, 63, 64
2, 29999, Note_on_c, 1, 63, 0
2, 30000, Note_on_c, 1, 64, 64
2, 30059, Note_on_c, 1, 64, 0
2, 30060, Note_on_c, 1, 66, 64
2, 30119, Note_on_c, 1, 66, 0
2, 30119, Note_on_c, 1, 69, 0
2, 30120, Note_on_c, 1, 68, 64
2, 30240, Note_on_c, 1, 68, 64
2, 30299, Note_on_c, 1, 68, 0
2, 30300, Note_on_c, 1, 69, 64
2, 30359, Note_on_c, 1, 69, 0
2, 30359, Note_on_c, 1, 68, 0
2, 30360, Note_on_c, 1, 71, 64
2, 30360, Note_on_c, 1, 67, 64
2, 30419, Note_on_c, 1, 71, 0
2, 30420, Note_on_c, 1, 73, 64
2, 30479, Note_on_c, 1, 73, 0
2, 30479, Note_on_c, 1, 67, 0
2, 30480, Note_on_c, 1, 74, 64
2, 30480, Note_on_c, 1, 66, 64
2, 30599, Note_on_c, 1, 74, 0
2, 30660, Note_on_c, 1, 68, 64
2, 30719, Note_on_c, 1, 68, 0
2, 30719, Note_on_c, 1, 66, 0
2, 30720, Note_on_c, 1, 69, 64
2, 30720, Note_on_c, 1, 65, 64
2, 30779, Note_on_c, 1, 69, 0
2, 30780, Note_on_c, 1, 71, 64
2, 30839, Note_on_c, 1, 71, 0
2, 30839, Note_on_c, 1, 65, 0
2, 30840, Note_on_c, 1, 72, 64
2, 30840, Note_on_c, 1, 64, 64
2, 30959, Note_on_c, 1, 64, 0
2, 30960, Note_on_c, 1, 69, 64
2, 31079, Note_on_c, 1, 69, 0
2, 31079, Note_on_c, 1, 72, 0
2, 31080, Note_on_c, 1, 68, 64
2, 31080, Note_on_c, 1, 71, 64
2, 31199, Note_on_c, 1, 71, 0
2, 31199, Note_on_c, 1, 68, 0
2, 31200, Note_on_c, 1, 69, 64
2, 31200, Note_on_c, 1, 64, 64
2, 31259, Note_on_c, 1, 64, 0
2, 31260, Note_on_c, 1, 60, 64
2, 31319, Note_on_c, 1, 60, 0
2, 31320, Note_on_c, 1, 65, 64
2, 31379, Note_on_c, 1, 65, 0
2, 31380, Note_on_c, 1, 62, 64
2, 31439, Note_on_c, 1, 62, 0
2, 31440, Note_on_c, 1, 59, 64
2, 31499, Note_on_c, 1, 69, 0
2, 31500, Note_on_c, 1, 68, 64
2, 31559, Note_on_c, 1, 68, 0
2, 31559, Note_on_c, 1, 59, 0
2, 31560, Note_on_c, 1, 69, 64
2, 31560, Note_on_c, 1, 60, 64
2, 31619, Note_on_c, 1, 60, 0
2, 31619, Note_on_c, 1, 69, 0
2, 31620, Note_on_c, 1, 62, 64
2, 31620, Note_on_c, 1, 71, 64
2, 31679, Note_on_c, 1, 71, 0
2, 31679, Note_on_c, 1, 62, 0
2, 31680, Note_on_c, 1, 72, 64
2, 31680, Note_on_c, 1, 64, 64
2, 31799, Note_on_c, 1, 64, 0
2, 31800, Note_on_c, 1, 69, 64
2, 31919, Note_on_c, 1, 72, 0
2, 31920, Note_on_c, 1, 74, 64
2, 31979, Note_on_c, 1, 69, 0
2, 31980, Note_on_c, 1, 72, 64
2, 32039, Note_on_c, 1, 72, 0
2, 32040, Note_on_c, 1, 71, 64
2, 32099, Note_on_c, 1, 71, 0
2, 32100, Note_on_c, 1, 69, 64
2, 32159, Note_on_c, 1, 69, 0
2, 32160, Note_on_c, 1, 67, 64
2, 32219, Note_on_c, 1, 67, 0
2, 32220, Note_on_c, 1, 65, 64
2, 32279, Note_on_c, 1, 65, 0
2, 32279, Note_on_c, 1, 74, 0
2, 32280, Note_on_c, 1, 76, 64
2, 32339, Note_on_c, 1, 76, 0
2, 32340, Note_on_c, 1, 74, 64
2, 32399, Note_on_c, 1, 74, 0
2, 32400, Note_on_c, 1, 72, 64
2, 32459, Note_on_c, 1, 72, 0
2, 32460, Note_on_c, 1, 71, 64
2, 32519, Note_on_c, 1, 71, 0
2, 32520, Note_on_c, 1, 69, 64
2, 32579, Note_on_c, 1, 69, 0
2, 32580, Note_on_c, 1, 67, 64
2, 32639, Note_on_c, 1, 67, 0
2, 32640, Note_on_c, 1, 66, 64
2, 32759, Note_on_c, 1, 66, 0
2, 32760, Note_on_c, 1, 74, 64
2, 32819, Note_on_c, 1, 74, 0
2, 32820, Note_on_c, 1, 72, 64
2, 32879, Note_on_c, 1, 72, 0
2, 32880, Note_on_c, 1, 71, 64
2, 32939, Note_on_c, 1, 71, 0
2, 32940, Note_on_c, 1, 69, 64
2, 32999, Note_on_c, 1, 69, 0
2, 33000, Note_on_c, 1, 67, 64
2, 33239, Note_on_c, 1, 67, 0
2, 33240, Note_on_c, 1, 68, 64
2, 33359, Note_on_c, 1, 68, 0
2, 33360, Note_on_c, 1, 69, 64
2, 33420, Note_on_c, 1, 64, 64
2, 33479, Note_on_c, 1, 64, 0
2, 33480, Note_on_c, 1, 69, 64
2, 33539, Note_on_c, 1, 69, 0
2, 33540, Note_on_c, 1, 67, 64
2, 33599, Note_on_c, 1, 67, 0
2, 33599, Note_on_c, 1, 69, 0
2, 33600, Note_on_c, 1, 66, 64
2, 33600, Note_on_c, 1, 70, 64
2, 33659, Note_on_c, 1, 66, 0
2, 33660, Note_on_c, 1, 64, 64
2, 33719, Note_on_c, 1, 64, 0
2, 33719, Note_on_c, 1, 70, 0
2, 33720, Note_on_c, 1, 71, 64
2, 33780, Note_on_c, 1, 64, 64
2, 33809, Note_on_c, 1, 64, 0
2, 33810, Note_on_c, 1, 66, 64
2, 33839, Note_on_c, 1, 66, 0
2, 33840, Note_on_c, 1, 67, 64
2, 33899, Note_on_c, 1, 67, 0
2, 33900, Note_on_c, 1, 69, 64
2, 33959, Note_on_c, 1, 69, 0
2, 33960, Note_on_c, 1, 71, 64
2, 34079, Note_on_c, 1, 71, 0
2, 34080, Note_on_c, 1, 73, 64
2, 34139, Note_on_c, 1, 71, 0
2, 34140, Note_on_c, 1, 69, 64
2, 34169, Note_on_c, 1, 69, 0
2, 34170, Note_on_c, 1, 68, 64
2, 34199, Note_on_c, 1, 68, 0
2, 34200, Note_on_c, 1, 69, 64
2, 34259, Note_on_c, 1, 69, 0
2, 34260, Note_on_c, 1, 71, 64
2, 34319, Note_on_c, 1, 71, 0
2, 34320, Note_on_c, 1, 73, 64
2, 34439, Note_on_c, 1, 73, 0
2, 34440, Note_on_c, 1, 74, 64
2, 34499, Note_on_c, 1, 73, 0
2, 34500, Note_on_c, 1, 71, 64
2, 34529, Note_on_c, 1, 71, 0
2, 34530, Note_on_c, 1, 70, 64
2, 34559, Note_on_c, 1, 70, 0
2, 34560, Note_on_c, 1, 71, 64
2, 34619, Note_on_c, 1, 71, 0
2, 34620, Note_on_c, 1, 57, 64
2, 34679, Note_on_c, 1, 57, 0
2, 34680, Note_on_c, 1, 67, 64
2, 34739, Note_on_c, 1, 67, 0
2, 34740, Note_on_c, 1, 66, 64
2, 34799, Note_on_c, 1, 66, 0
2, 34799, Note_on_c, 1, 74, 0
2, 34800, Note_on_c, 1, 73, 64
2, 34800, Note_on_c, 1, 67, 64
2, 34919, Note_on_c, 1, 67, 0
2, 34920, Note_on_c, 1, 66, 64
2, 35219, Note_on_c, 1, 73, 0
2, 35280, Note_on_c, 1, 71, 64
2, 35339, Note_on_c, 1, 71, 0
2, 35340, Note_on_c, 1, 69, 64
2, 35399, Note_on_c, 1, 69, 0
2, 35399, Note_on_c, 1, 66, 0
2, 35400, Note_on_c, 1, 67, 64
2, 35459, Note_on_c, 1, 67, 0
2, 35460, Note_on_c, 1, 66, 64
2, 35519, Note_on_c, 1, 66, 0
2, 35520, Note_on_c, 1, 76, 64
2, 35520, Note_on_c, 1, 67, 64
2, 35699, Note_on_c, 1, 67, 0
2, 35700, Note_on_c, 1, 74, 64
2, 35759, Note_on_c, 1, 74, 0
2, 35760, Note_on_c, 1, 73, 64
2, 35819, Note_on_c, 1, 73, 0
2, 35820, Note_on_c, 1, 71, 64
2, 35879, Note_on_c, 1, 71, 0
2, 35879, Note_on_c, 1, 76, 0
2, 35880, Note_on_c, 1, 74, 64
2, 35880, Note_on_c, 1, 69, 64
2, 35939, Note_on_c, 1, 69, 0
2, 35940, Note_on_c, 1, 67, 64
2, 35999, Note_on_c, 1, 67, 0
2, 36000, Note_on_c, 1, 66, 64
2, 36239, Note_on_c, 1, 66, 0
2, 36269, Note_on_c, 1, 74, 0
2, 36300, Note_on_c, 1, 74, 64
2, 36359, Note_on_c, 1, 74, 0
2, 36360, Note_on_c, 1, 79, 64
2, 36419, Note_on_c, 1, 79, 0
2, 36420, Note_on_c, 1, 78, 64
2, 36479, Note_on_c, 1, 78, 0
2, 36480, Note_on_c, 1, 76, 64
2, 36539, Note_on_c, 1, 76, 0
2, 36540, Note_on_c, 1, 74, 64
2, 36599, Note_on_c, 1, 74, 0
2, 36600, Note_on_c, 1, 73, 64
2, 36719, Note_on_c, 1, 73, 0
2, 36720, Note_on_c, 1, 81, 64
2, 36779, Note_on_c, 1, 81, 0
2, 36780, Note_on_c, 1, 79, 64
2, 36839, Note_on_c, 1, 79, 0
2, 36840, Note_on_c, 1, 78, 64
2, 36899, Note_on_c, 1, 78, 0
2, 36900, Note_on_c, 1, 76, 64
2, 36959, Note_on_c, 1, 76, 0
2, 36960, Note_on_c, 1, 75, 64
2, 37199, Note_on_c, 1, 75, 0
2, 37200, Note_on_c, 1, 67, 64
2, 37200, Note_on_c, 1, 76, 64
2, 37319, Note_on_c, 1, 67, 0
2, 37320, Note_on_c, 1, 69, 64
2, 37439, Note_on_c, 1, 69, 0
2, 37440, Note_on_c, 1, 67, 64
2, 37559, Note_on_c, 1, 67, 0
2, 37559, Note_on_c, 1, 76, 0
2, 37560, Note_on_c, 1, 75, 64
2, 37679, Note_on_c, 1, 75, 0
2, 37680, Note_on_c, 1, 67, 64
2, 37680, Note_on_c, 1, 76, 64
2, 37799, Note_on_c, 1, 76, 0
2, 37919, Note_on_c, 1, 67, 0
2, 37920, Note_on_c, 1, 66, 64
2, 37920, Note_on_c, 1, 63, 64
2, 38039, Note_on_c, 1, 63, 0
2, 38039, Note_on_c, 1, 66, 0
2, 38040, Note_on_c, 1, 59, 64
2, 38040, Note_on_c, 1, 64, 64
2, 38279, Note_on_c, 1, 64, 0
2, 38279, Note_on_c, 1, 59, 0
2, 38279, End_track
3, 0, Start_track
3, 0, Title_t, "Left Hand"
3, 600, Note_on_c, 1, 64, 64
3, 600, Note_on_c, 1, 55, 64
3, 719, Note_on_c, 1, 55, 0
3, 720, Note_on_c, 1, 57, 64
3, 749, Note_on_c, 1, 64, 0
3, 780, Note_on_c, 1, 64, 64
3, 839, Note_on_c, 1, 64, 0
3, 839, Note_on_c, 1, 57, 0
3, 840, Note_on_c, 1, 63, 64
3, 840, Note_on_c, 1, 59, 64
3, 900, Note_on_c, 1, 54, 64
3, 959, Note_on_c, 1, 59, 0
3, 959, Note_on_c, 1, 63, 0
3, 960, Note_on_c, 1, 59, 64
3, 960, Note_on_c, 1, 55, 64
3, 1019, Note_on_c, 1, 54, 0
3, 1079, Note_on_c, 1, 55, 0
3, 1079, Note_on_c, 1, 59, 0
3, 1140, Note_on_c, 1, 59, 64
3, 1140, Note_on_c, 1, 52, 64
3, 1179, Note_on_c, 1, 52, 0
3, 1199, Note_on_c, 1, 59, 0
3, 1200, Note_on_c, 1, 52, 64
3, 1200, Note_on_c, 1, 57, 64
3, 1239, Note_on_c, 1, 57, 0
3, 1319, Note_on_c, 1, 52, 0
3, 1320, Note_on_c, 1, 57, 64
3, 1379, Note_on_c, 1, 57, 0
3, 1380, Note_on_c, 1, 55, 64
3, 1439, Note_on_c, 1, 55, 0
3, 1440, Note_on_c, 1, 59, 64
3, 1440, Note_on_c, 1, 54, 64
3, 1559, Note_on_c, 1, 54, 0
3, 1559, Note_on_c, 1, 59, 0
3, 1620, Note_on_c, 1, 55, 64
3, 1679, Note_on_c, 1, 55, 0
3, 1680, Note_on_c, 1, 54, 64
3, 1799, Note_on_c, 1, 54, 0
3, 1800, Note_on_c, 1, 59, 64
3, 1979, Note_on_c, 1, 59, 0
3, 2040, Note_on_c, 1, 59, 64
3, 2159, Note_on_c, 1, 59, 0
3, 2160, Note_on_c, 1, 52, 64
3, 2339, Note_on_c, 1, 52, 0
3, 2340, Note_on_c, 1, 54, 64
3, 2399, Note_on_c, 1, 54, 0
3, 2400, Note_on_c, 1, 55, 64
3, 2519, Note_on_c, 1, 55, 0
3, 2520, Note_on_c, 1, 54, 64
3, 2639, Note_on_c, 1, 54, 0
3, 2640, Note_on_c, 1, 52, 64
3, 2759, Note_on_c, 1, 52, 0
3, 2760, Note_on_c, 1, 56, 64
3, 2879, Note_on_c, 1, 56, 0
3, 2880, Note_on_c, 1, 60, 64
3, 2880, Note_on_c, 1, 52, 64
3, 2880, Note_on_c, 1, 57, 64
3, 2999, Note_on_c, 1, 57, 0
3, 2999, Note_on_c, 1, 52, 0
3, 3059, Note_on_c, 1, 60, 0
3, 3060, Note_on_c, 1, 59, 64
3, 3119, Note_on_c, 1, 59, 0
3, 3120, Note_on_c, 1, 57, 64
3, 3239, Note_on_c, 1, 57, 0
3, 3300, Note_on_c, 1, 59, 64
3, 3359, Note_on_c, 1, 59, 0
3, 3360, Note_on_c, 1, 57, 64
3, 3599, Note_on_c, 1, 57, 0
3, 3600, Note_on_c, 1, 59, 64
3, 3600, Note_on_c, 1, 55, 64
3, 3659, Note_on_c, 1, 59, 0
3, 3719, Note_on_c, 1, 55, 0
3, 3720, Note_on_c, 1, 59, 64
3, 3779, Note_on_c, 1, 59, 0
3, 3780, Note_on_c, 1, 57, 64
3, 3839, Note_on_c, 1, 57, 0
3, 3840, Note_on_c, 1, 55, 64
3, 3899, Note_on_c, 1, 55, 0
3, 3900, Note_on_c, 1, 54, 64
3, 3959, Note_on_c, 1, 54, 0
3, 3960, Note_on_c, 1, 57, 64
3, 4019, Note_on_c, 1, 57, 0
3, 4080, Note_on_c, 1, 57, 64
3, 4199, Note_on_c, 1, 57, 0
3, 4200, Note_on_c, 1, 62, 64
3, 4200, Note_on_c, 1, 55, 64
3, 4439, Note_on_c, 1, 55, 0
3, 4440, Note_on_c, 1, 54, 64
3, 4499, Note_on_c, 1, 62, 0
3, 4500, Note_on_c, 1, 60, 64
3, 4559, Note_on_c, 1, 60, 0
3, 4559, Note_on_c, 1, 54, 0
3, 4560, Note_on_c, 1, 59, 64
3, 4560, Note_on_c, 1, 55, 64
3, 4619, Note_on_c, 1, 55, 0
3, 4619, Note_on_c, 1, 59, 0
3, 4620, Note_on_c, 1, 60, 64
3, 4679, Note_on_c, 1, 60, 0
3, 4680, Note_on_c, 1, 62, 64
3, 4680, Note_on_c, 1, 55, 64
3, 4799, Note_on_c, 1, 62, 0
3, 4919, Note_on_c, 1, 55, 0
3, 4920, Note_on_c, 1, 57, 64
3, 5039, Note_on_c, 1, 57, 0
3, 5040, Note_on_c, 1, 59, 64
3, 5159, Note_on_c, 1, 59, 0
3, 5160, Note_on_c, 1, 57, 64
3, 5339, Note_on_c, 1, 57, 0
3, 5340, Note_on_c, 1, 54, 64
3, 5399, Note_on_c, 1, 54, 0
3, 5400, Note_on_c, 1, 55, 64
3, 5459, Note_on_c, 1, 55, 0
3, 5460, Note_on_c, 1, 57, 64
3, 5519, Note_on_c, 1, 57, 0
3, 5520, Note_on_c, 1, 59, 64
3, 5579, Note_on_c, 1, 59, 0
3, 5580, Note_on_c, 1, 60, 64
3, 5639, Note_on_c, 1, 60, 0
3, 5640, Note_on_c, 1, 62, 64
3, 5699, Note_on_c, 1, 62, 0
3, 5700, Note_on_c, 1, 55, 64
3, 5739, Note_on_c, 1, 55, 0
3, 5760, Note_on_c, 1, 55, 64
3, 5879, Note_on_c, 1, 55, 0
3, 5880, Note_on_c, 1, 57, 64
3, 6119, Note_on_c, 1, 57, 0
3, 6120, Note_on_c, 1, 55, 64
3, 6359, Note_on_c, 1, 55, 0
3, 6360, Note_on_c, 1, 54, 64
3, 6599, Note_on_c, 1, 54, 0
3, 6600, Note_on_c, 1, 52, 64
3, 6719, Note_on_c, 1, 52, 0
3, 6720, Note_on_c, 1, 54, 64
3, 6779, Note_on_c, 1, 54, 0
3, 6840, Note_on_c, 1, 62, 64
3, 6840, Note_on_c, 1, 54, 64
3, 6959, Note_on_c, 1, 62, 0
3, 6960, Note_on_c, 1, 61, 64
3, 7019, Note_on_c, 1, 61, 0
3, 7019, Note_on_c, 1, 54, 0
3, 7080, Note_on_c, 1, 61, 64
3, 7080, Note_on_c, 1, 54, 64
3, 7199, Note_on_c, 1, 61, 0
3, 7200, Note_on_c, 1, 62, 64
3, 7259, Note_on_c, 1, 62, 0
3, 7260, Note_on_c, 1, 64, 64
3, 7319, Note_on_c, 1, 64, 0
3, 7319, Note_on_c, 1, 54, 0
3, 7320, Note_on_c, 1, 59, 64
3, 7439, Note_on_c, 1, 59, 0
3, 7440, Note_on_c, 1, 61, 64
3, 7679, Note_on_c, 1, 61, 0
3, 7680, Note_on_c, 1, 62, 64
3, 7799, Note_on_c, 1, 62, 0
3, 7800, Note_on_c, 1, 64, 64
3, 7800, Note_on_c, 1, 59, 64
3, 7919, Note_on_c, 1, 59, 0
3, 7920, Note_on_c, 1, 57, 64
3, 8039, Note_on_c, 1, 64, 0
3, 8040, Note_on_c, 1, 62, 64
3, 8159, Note_on_c, 1, 57, 0
3, 8160, Note_on_c, 1, 55, 64
3, 8279, Note_on_c, 1, 62, 0
3, 8280, Note_on_c, 1, 60, 64
3, 8399, Note_on_c, 1, 55, 0
3, 8400, Note_on_c, 1, 54, 64
3, 8519, Note_on_c, 1, 60, 0
3, 8520, Note_on_c, 1, 59, 64
3, 8639, Note_on_c, 1, 54, 0
3, 8640, Note_on_c, 1, 55, 64
3, 8699, Note_on_c, 1, 55, 0
3, 8700, Note_on_c, 1, 59, 64
3, 8759, Note_on_c, 1, 59, 0
3, 8759, Note_on_c, 1, 59, 0
3, 8760, Note_on_c, 1, 64, 64
3, 8819, Note_on_c, 1, 64, 0
3, 8820, Note_on_c, 1, 62, 64
3, 8879, Note_on_c, 1, 62, 0
3, 8880, Note_on_c, 1, 60, 64
3, 8939, Note_on_c, 1, 60, 0
3, 8940, Note_on_c, 1, 57, 64
3, 8999, Note_on_c, 1, 57, 0
3, 9000, Note_on_c, 1, 62, 64
3, 9059, Note_on_c, 1, 62, 0
3, 9060, Note_on_c, 1, 60, 64
3, 9119, Note_on_c, 1, 60, 0
3, 9120, Note_on_c, 1, 67, 64
3, 9120, Note_on_c, 1, 59, 64
3, 9179, Note_on_c, 1, 59, 0
3, 9180, Note_on_c, 1, 55, 64
3, 9239, Note_on_c, 1, 55, 0
3, 9240, Note_on_c, 1, 60, 64
3, 9299, Note_on_c, 1, 60, 0
3, 9300, Note_on_c, 1, 59, 64
3, 9359, Note_on_c, 1, 59, 0
3, 9359, Note_on_c, 1, 67, 0
3, 9360, Note_on_c, 1, 57, 64
3, 9419, Note_on_c, 1, 57, 0
3, 9420, Note_on_c, 1, 54, 64
3, 9479, Note_on_c, 1, 54, 0
3, 9480, Note_on_c, 1, 59, 64
3, 9539, Note_on_c, 1, 59, 0
3, 9540, Note_on_c, 1, 57, 64
3, 9599, Note_on_c, 1, 57, 0
3, 9600, Note_on_c, 1, 64, 64
3, 9600, Note_on_c, 1, 55, 64
3, 9659, Note_on_c, 1, 55, 0
3, 9660, Note_on_c, 1, 52, 64
3, 9719, Note_on_c, 1, 52, 0
3, 9720, Note_on_c, 1, 57, 64
3, 9779, Note_on_c, 1, 57, 0
3, 9780, Note_on_c, 1, 55, 64
3, 9839, Note_on_c, 1, 55, 0
3, 9839, Note_on_c, 1, 64, 0
3, 9840, Note_on_c, 1, 54, 64
3, 9899, Note_on_c, 1, 54, 0
3, 9900, Note_on_c, 1, 50, 64
3, 9959, Note_on_c, 1, 50, 0
3, 9960, Note_on_c, 1, 55, 64
3, 10019, Note_on_c, 1, 55, 0
3, 10020, Note_on_c, 1, 50, 64
3, 10079, Note_on_c, 1, 50, 0
3, 10080, Note_on_c, 1, 60, 64
3, 10080, Note_on_c, 1, 52, 64
3, 10139, Note_on_c, 1, 52, 0
3, 10199, Note_on_c, 1, 60, 0
3, 10200, Note_on_c, 1, 57, 64
3, 10200, Note_on_c, 1, 52, 64
3, 10319, Note_on_c, 1, 52, 0
3, 10320, Note_on_c, 1, 54, 64
3, 10379, Note_on_c, 1, 54, 0
3, 10439, Note_on_c, 1, 57, 0
3, 10440, Note_on_c, 1, 59, 64
3, 10440, Note_on_c, 1, 54, 64
3, 10559, Note_on_c, 1, 54, 0
3, 10560, Note_on_c, 1, 52, 64
3, 10619, Note_on_c, 1, 52, 0
3, 10620, Note_on_c, 1, 54, 64
3, 10679, Note_on_c, 1, 54, 0
3, 10679, Note_on_c, 1, 59, 0
3, 10680, Note_on_c, 1, 55, 64
3, 10739, Note_on_c, 1, 55, 0
3, 10740, Note_on_c, 1, 57, 64
3, 10799, Note_on_c, 1, 57, 0
3, 10800, Note_on_c, 1, 59, 64
3, 10859, Note_on_c, 1, 59, 0
3, 10860, Note_on_c, 1, 60, 64
3, 10919, Note_on_c, 1, 60, 0
3, 10920, Note_on_c, 1, 59, 64
3, 10979, Note_on_c, 1, 59, 0
3, 10980, Note_on_c, 1, 57, 64
3, 11039, Note_on_c, 1, 57, 0
3, 11040, Note_on_c, 1, 56, 64
3, 11099, Note_on_c, 1, 56, 0
3, 11100, Note_on_c, 1, 59, 64
3, 11159, Note_on_c, 1, 59, 0
3, 11160, Note_on_c, 1, 57, 64
3, 11219, Note_on_c, 1, 57, 0
3, 11220, Note_on_c, 1, 56, 64
3, 11279, Note_on_c, 1, 56, 0
3, 11280, Note_on_c, 1, 57, 64
3, 11399, Note_on_c, 1, 57, 0
3, 11520, Note_on_c, 1, 59, 64
3, 11520, Note_on_c, 1, 54, 64
3, 11579, Note_on_c, 1, 59, 0
3, 11639, Note_on_c, 1, 54, 0
3, 11640, Note_on_c, 1, 59, 64
3, 11640, Note_on_c, 1, 55, 64
3, 11699, Note_on_c, 1, 55, 0
3, 11699, Note_on_c, 1, 59, 0
3, 11760, Note_on_c, 1, 59, 64
3, 11760, Note_on_c, 1, 55, 64
3, 11879, Note_on_c, 1, 55, 0
3, 11880, Note_on_c, 1, 54, 64
3, 11999, Note_on_c, 1, 54, 0
3, 11999, Note_on_c, 1, 59, 0
3, 12000, Note_on_c, 1, 59, 64
3, 12000, Note_on_c, 1, 52, 64
3, 12000, Note_on_c, 1, 55, 64
3, 12449, Note_on_c, 1, 55, 0
3, 12449, Note_on_c, 1, 52, 0
3, 12449, Note_on_c, 1, 59, 0
3, 15000, Note_on_c, 1, 59, 64
3, 15359, Note_on_c, 1, 59, 0
3, 15360, Note_on_c, 1, 61, 64
3, 15719, Note_on_c, 1, 61, 0
3, 15720, Note_on_c, 1, 62, 64
3, 15959, Note_on_c, 1, 62, 0
3, 15960, Note_on_c, 1, 63, 64
3, 16079, Note_on_c, 1, 63, 0
3, 16080, Note_on_c, 1, 64, 64
3, 16319, Note_on_c, 1, 64, 0
3, 16320, Note_on_c, 1, 65, 64
3, 16439, Note_on_c, 1, 65, 0
3, 16440, Note_on_c, 1, 66, 64
3, 16559, Note_on_c, 1, 66, 0
3, 16560, Note_on_c, 1, 64, 64
3, 16679, Note_on_c, 1, 64, 0
3, 16680, Note_on_c, 1, 62, 64
3, 16799, Note_on_c, 1, 62, 0
3, 16800, Note_on_c, 1, 64, 64
3, 16919, Note_on_c, 1, 64, 0
3, 16920, Note_on_c, 1, 61, 64
3, 17039, Note_on_c, 1, 61, 0
3, 17040, Note_on_c, 1, 66, 64
3, 17159, Note_on_c, 1, 66, 0
3, 17160, Note_on_c, 1, 63, 64
3, 17279, Note_on_c, 1, 63, 0
3, 17280, Note_on_c, 1, 59, 64
3, 17399, Note_on_c, 1, 59, 0
3, 17400, Note_on_c, 1, 64, 64
3, 17759, Note_on_c, 1, 64, 0
3, 17880, Note_on_c, 1, 64, 64
3, 17880, Note_on_c, 1, 52, 64
3, 18119, Note_on_c, 1, 64, 0
3, 18239, Note_on_c, 1, 52, 0
3, 18240, Note_on_c, 1, 54, 64
3, 18599, Note_on_c, 1, 54, 0
3, 18600, Note_on_c, 1, 55, 64
3, 18839, Note_on_c, 1, 55, 0
3, 18840, Note_on_c, 1, 56, 64
3, 18959, Note_on_c, 1, 56, 0
3, 18960, Note_on_c, 1, 61, 64
3, 18960, Note_on_c, 1, 57, 64
3, 19079, Note_on_c, 1, 61, 0
3, 19199, Note_on_c, 1, 57, 0
3, 19200, Note_on_c, 1, 58, 64
3, 19319, Note_on_c, 1, 58, 0
3, 19320, Note_on_c, 1, 62, 64
3, 19320, Note_on_c, 1, 59, 64
3, 19439, Note_on_c, 1, 59, 0
3, 19439, Note_on_c, 1, 62, 0
3, 19440, Note_on_c, 1, 64, 64
3, 19440, Note_on_c, 1, 61, 64
3, 19559, Note_on_c, 1, 61, 0
3, 19559, Note_on_c, 1, 64, 0
3, 19560, Note_on_c, 1, 62, 64
3, 19679, Note_on_c, 1, 62, 0
3, 19680, Note_on_c, 1, 64, 64
3, 19680, Note_on_c, 1, 61, 64
3, 19739, Note_on_c, 1, 64, 0
3, 19799, Note_on_c, 1, 61, 0
3, 19800, Note_on_c, 1, 64, 64
3, 19859, Note_on_c, 1, 64, 0
3, 19860, Note_on_c, 1, 62, 64
3, 19919, Note_on_c, 1, 62, 0
3, 19920, Note_on_c, 1, 61, 64
3, 19920, Note_on_c, 1, 64, 64
3, 20039, Note_on_c, 1, 64, 0
3, 20039, Note_on_c, 1, 61, 0
3, 20040, Note_on_c, 1, 59, 64
3, 20159, Note_on_c, 1, 59, 0
3, 20160, Note_on_c, 1, 62, 64
3, 20219, Note_on_c, 1, 62, 0
3, 20220, Note_on_c, 1, 60, 64
3, 20279, Note_on_c, 1, 60, 0
3, 20280, Note_on_c, 1, 59, 64
3, 20339, Note_on_c, 1, 59, 0
3, 20340, Note_on_c, 1, 57, 64
3, 20399, Note_on_c, 1, 57, 0
3, 20400, Note_on_c, 1, 56, 64
3, 20519, Note_on_c, 1, 56, 0
3, 20520, Note_on_c, 1, 64, 64
3, 20579, Note_on_c, 1, 64, 0
3, 20580, Note_on_c, 1, 62, 64
3, 20639, Note_on_c, 1, 62, 0
3, 20640, Note_on_c, 1, 61, 64
3, 20699, Note_on_c, 1, 61, 0
3, 20700, Note_on_c, 1, 59, 64
3, 20759, Note_on_c, 1, 59, 0
3, 20760, Note_on_c, 1, 58, 64
3, 20999, Note_on_c, 1, 58, 0
3, 21000, Note_on_c, 1, 59, 64
3, 21359, Note_on_c, 1, 59, 0
3, 21360, Note_on_c, 1, 58, 64
3, 21479, Note_on_c, 1, 58, 0
3, 21480, Note_on_c, 1, 59, 64
3, 21779, Note_on_c, 1, 59, 0
3, 21780, Note_on_c, 1, 57, 64
3, 21839, Note_on_c, 1, 57, 0
3, 21840, Note_on_c, 1, 55, 64
3, 21959, Note_on_c, 1, 55, 0
3, 21960, Note_on_c, 1, 54, 64
3, 22199, Note_on_c, 1, 54, 0
3, 22200, Note_on_c, 1, 54, 64
3, 22200, Note_on_c, 1, 62, 64
3, 22559, Note_on_c, 1, 62, 0
3, 22559, Note_on_c, 1, 54, 0
3, 22560, Note_on_c, 1, 67, 64
3, 22560, Note_on_c, 1, 59, 64
3, 22919, Note_on_c, 1, 59, 0
3, 22919, Note_on_c, 1, 67, 0
3, 22920, Note_on_c, 1, 57, 64
3, 22920, Note_on_c, 1, 61, 64
3, 23159, Note_on_c, 1, 57, 0
3, 23160, Note_on_c, 1, 58, 64
3, 23279, Note_on_c, 1, 58, 0
3, 23279, Note_on_c, 1, 61, 0
3, 23280, Note_on_c, 1, 59, 64
3, 23280, Note_on_c, 1, 62, 64
3, 23519, Note_on_c, 1, 62, 0
3, 23520, Note_on_c, 1, 63, 64
3, 23639, Note_on_c, 1, 63, 0
3, 23639, Note_on_c, 1, 59, 0
3, 23640, Note_on_c, 1, 64, 64
3, 23700, Note_on_c, 1, 60, 64
3, 23759, Note_on_c, 1, 60, 0
3, 23760, Note_on_c, 1, 59, 64
3, 23819, Note_on_c, 1, 59, 0
3, 23820, Note_on_c, 1, 57, 64
3, 23879, Note_on_c, 1, 57, 0
3, 23879, Note_on_c, 1, 64, 0
3, 23880, Note_on_c, 1, 59, 64
3, 23880, Note_on_c, 1, 64, 64
3, 23999, Note_on_c, 1, 59, 0
3, 24000, Note_on_c, 1, 57, 64
3, 24119, Note_on_c, 1, 64, 0
3, 24120, Note_on_c, 1, 62, 64
3, 24239, Note_on_c, 1, 62, 0
3, 24240, Note_on_c, 1, 60, 64
3, 24359, Note_on_c, 1, 60, 0
3, 24359, Note_on_c, 1, 57, 0
3, 24360, Note_on_c, 1, 59, 64
3, 24480, Note_on_c, 1, 64, 64
3, 24719, Note_on_c, 1, 59, 0
3, 24720, Note_on_c, 1, 61, 64
3, 24839, Note_on_c, 1, 64, 0
3, 24840, Note_on_c, 1, 66, 64
3, 25079, Note_on_c, 1, 61, 0
3, 25080, Note_on_c, 1, 59, 64
3, 25199, Note_on_c, 1, 66, 0
3, 25319, Note_on_c, 1, 59, 0
3, 25320, Note_on_c, 1, 59, 64
3, 25439, Note_on_c, 1, 59, 0
3, 25440, Note_on_c, 1, 60, 64
3, 25559, Note_on_c, 1, 60, 0
3, 25560, Note_on_c, 1, 59, 64
3, 25679, Note_on_c, 1, 59, 0
3, 25680, Note_on_c, 1, 57, 64
3, 25680, Note_on_c, 1, 66, 64
3, 25799, Note_on_c, 1, 66, 0
3, 25799, Note_on_c, 1, 57, 0
3, 25800, Note_on_c, 1, 59, 64
3, 26039, Note_on_c, 1, 59, 0
3, 26040, Note_on_c, 1, 57, 64
3, 26279, Note_on_c, 1, 57, 0
3, 26280, Note_on_c, 1, 51, 64
3, 26339, Note_on_c, 1, 51, 0
3, 26340, Note_on_c, 1, 52, 64
3, 26399, Note_on_c, 1, 52, 0
3, 26400, Note_on_c, 1, 54, 64
3, 26459, Note_on_c, 1, 54, 0
3, 26460, Note_on_c, 1, 56, 64
3, 26519, Note_on_c, 1, 56, 0
3, 26520, Note_on_c, 1, 57, 64
3, 26639, Note_on_c, 1, 57, 0
3, 26640, Note_on_c, 1, 49, 64
3, 26699, Note_on_c, 1, 49, 0
3, 26700, Note_on_c, 1, 50, 64
3, 26759, Note_on_c, 1, 50, 0
3, 26760, Note_on_c, 1, 52, 64
3, 26819, Note_on_c, 1, 52, 0
3, 26820, Note_on_c, 1, 54, 64
3, 26879, Note_on_c, 1, 54, 0
3, 26880, Note_on_c, 1, 55, 64
3, 26999, Note_on_c, 1, 55, 0
3, 27000, Note_on_c, 1, 57, 64
3, 27119, Note_on_c, 1, 57, 0
3, 27120, Note_on_c, 1, 59, 64
3, 27239, Note_on_c, 1, 59, 0
3, 27240, Note_on_c, 1, 55, 64
3, 27359, Note_on_c, 1, 55, 0
3, 27360, Note_on_c, 1, 54, 64
3, 27600, Note_on_c, 1, 59, 64
3, 27839, Note_on_c, 1, 59, 0
3, 27839, Note_on_c, 1, 54, 0
3, 27840, Note_on_c, 1, 59, 64
3, 27840, Note_on_c, 1, 52, 64
3, 27959, Note_on_c, 1, 59, 0
3, 27960, Note_on_c, 1, 57, 64
3, 28019, Note_on_c, 1, 52, 0
3, 28020, Note_on_c, 1, 54, 64
3, 28079, Note_on_c, 1, 54, 0
3, 28079, Note_on_c, 1, 57, 0
3, 28080, Note_on_c, 1, 59, 64
3, 28080, Note_on_c, 1, 55, 64
3, 28139, Note_on_c, 1, 55, 0
3, 28140, Note_on_c, 1, 52, 64
3, 28199, Note_on_c, 1, 52, 0
3, 28200, Note_on_c, 1, 54, 64
3, 28319, Note_on_c, 1, 54, 0
3, 28320, Note_on_c, 1, 55, 64
3, 28379, Note_on_c, 1, 55, 0
3, 28379, Note_on_c, 1, 59, 0
3, 28440, Note_on_c, 1, 52, 64
3, 28499, Note_on_c, 1, 52, 0
3, 28500, Note_on_c, 1, 54, 64
3, 28559, Note_on_c, 1, 54, 0
3, 28560, Note_on_c, 1, 55, 64
3, 28619, Note_on_c, 1, 55, 0
3, 28620, Note_on_c, 1, 57, 64
3, 28679, Note_on_c, 1, 57, 0
3, 28680, Note_on_c, 1, 47, 64
3, 28739, Note_on_c, 1, 47, 0
3, 28740, Note_on_c, 1, 49, 64
3, 28799, Note_on_c, 1, 49, 0
3, 28800, Note_on_c, 1, 51, 64
3, 28859, Note_on_c, 1, 51, 0
3, 28860, Note_on_c, 1, 52, 64
3, 28919, Note_on_c, 1, 52, 0
3, 28920, Note_on_c, 1, 54, 64
3, 28979, Note_on_c, 1, 54, 0
3, 28980, Note_on_c, 1, 56, 64
3, 29039, Note_on_c, 1, 56, 0
3, 29040, Note_on_c, 1, 45, 64
3, 29099, Note_on_c, 1, 45, 0
3, 29100, Note_on_c, 1, 47, 64
3, 29159, Note_on_c, 1, 47, 0
3, 29160, Note_on_c, 1, 49, 64
3, 29219, Note_on_c, 1, 49, 0
3, 29220, Note_on_c, 1, 50, 64
3, 29279, Note_on_c, 1, 50, 0
3, 29280, Note_on_c, 1, 52, 64
3, 29339, Note_on_c, 1, 52, 0
3, 29340, Note_on_c, 1, 54, 64
3, 29399, Note_on_c, 1, 54, 0
3, 29400, Note_on_c, 1, 55, 64
3, 29459, Note_on_c, 1, 55, 0
3, 29460, Note_on_c, 1, 54, 64
3, 29519, Note_on_c, 1, 54, 0
3, 29520, Note_on_c, 1, 52, 64
3, 29579, Note_on_c, 1, 52, 0
3, 29580, Note_on_c, 1, 50, 64
3, 29639, Note_on_c, 1, 50, 0
3, 29640, Note_on_c, 1, 49, 64
3, 29699, Note_on_c, 1, 49, 0
3, 29700, Note_on_c, 1, 47, 64
3, 29759, Note_on_c, 1, 47, 0
3, 29760, Note_on_c, 1, 49, 64
3, 29819, Note_on_c, 1, 49, 0
3, 29820, Note_on_c, 1, 47, 64
3, 29879, Note_on_c, 1, 47, 0
3, 29880, Note_on_c, 1, 45, 64
3, 29939, Note_on_c, 1, 45, 0
3, 29940, Note_on_c, 1, 47, 64
3, 29999, Note_on_c, 1, 47, 0
3, 30000, Note_on_c, 1, 49, 64
3, 30059, Note_on_c, 1, 49, 0
3, 30060, Note_on_c, 1, 51, 64
3, 30119, Note_on_c, 1, 51, 0
3, 30120, Note_on_c, 1, 52, 64
3, 30239, Note_on_c, 1, 52, 0
3, 30240, Note_on_c, 1, 40, 64
3, 30359, Note_on_c, 1, 40, 0
3, 30360, Note_on_c, 1, 52, 64
3, 30479, Note_on_c, 1, 52, 0
3, 30480, Note_on_c, 1, 47, 64
3, 30539, Note_on_c, 1, 47, 0
3, 30540, Note_on_c, 1, 49, 64
3, 30599, Note_on_c, 1, 49, 0
3, 30600, Note_on_c, 1, 50, 64
3, 30719, Note_on_c, 1, 50, 0
3, 30720, Note_on_c, 1, 40, 64
3, 30839, Note_on_c, 1, 40, 0
3, 30840, Note_on_c, 1, 45, 64
3, 30899, Note_on_c, 1, 45, 0
3, 30900, Note_on_c, 1, 47, 64
3, 30959, Note_on_c, 1, 47, 0
3, 30960, Note_on_c, 1, 48, 64
3, 31019, Note_on_c, 1, 48, 0
3, 31020, Note_on_c, 1, 50, 64
3, 31079, Note_on_c, 1, 50, 0
3, 31080, Note_on_c, 1, 52, 64
3, 31139, Note_on_c, 1, 52, 0
3, 31140, Note_on_c, 1, 50, 64
3, 31199, Note_on_c, 1, 50, 0
3, 31200, Note_on_c, 1, 48, 64
3, 31259, Note_on_c, 1, 48, 0
3, 31260, Note_on_c, 1, 45, 64
3, 31319, Note_on_c, 1, 45, 0
3, 31320, Note_on_c, 1, 50, 64
3, 31379, Note_on_c, 1, 50, 0
3, 31380, Note_on_c, 1, 47, 64
3, 31439, Note_on_c, 1, 47, 0
3, 31440, Note_on_c, 1, 52, 64
3, 31499, Note_on_c, 1, 52, 0
3, 31500, Note_on_c, 1, 40, 64
3, 31559, Note_on_c, 1, 40, 0
3, 31560, Note_on_c, 1, 52, 64
3, 31679, Note_on_c, 1, 52, 0
3, 31680, Note_on_c, 1, 57, 64
3, 31739, Note_on_c, 1, 57, 0
3, 31740, Note_on_c, 1, 55, 64
3, 31799, Note_on_c, 1, 55, 0
3, 31800, Note_on_c, 1, 53, 64
3, 31859, Note_on_c, 1, 53, 0
3, 31860, Note_on_c, 1, 52, 64
3, 31919, Note_on_c, 1, 52, 0
3, 31920, Note_on_c, 1, 50, 64
3, 32039, Note_on_c, 1, 50, 0
3, 32040, Note_on_c, 1, 55, 64
3, 32280, Note_on_c, 1, 64, 64
3, 32399, Note_on_c, 1, 55, 0
3, 32400, Note_on_c, 1, 57, 64
3, 32639, Note_on_c, 1, 64, 0
3, 32640, Note_on_c, 1, 62, 64
3, 32759, Note_on_c, 1, 62, 0
3, 32759, Note_on_c, 1, 57, 0
3, 32760, Note_on_c, 1, 66, 64
3, 32760, Note_on_c, 1, 59, 64
3, 32999, Note_on_c, 1, 66, 0
3, 33000, Note_on_c, 1, 64, 64
3, 33059, Note_on_c, 1, 59, 0
3, 33060, Note_on_c, 1, 59, 64
3, 33119, Note_on_c, 1, 59, 0
3, 33119, Note_on_c, 1, 64, 0
3, 33120, Note_on_c, 1, 64, 64
3, 33179, Note_on_c, 1, 64, 0
3, 33180, Note_on_c, 1, 62, 64
3, 33239, Note_on_c, 1, 62, 0
3, 33240, Note_on_c, 1, 64, 64
3, 33240, Note_on_c, 1, 60, 64
3, 33299, Note_on_c, 1, 60, 0
3, 33300, Note_on_c, 1, 59, 64
3, 33359, Note_on_c, 1, 59, 0
3, 33360, Note_on_c, 1, 57, 64
3, 33389, Note_on_c, 1, 64, 0
3, 33599, Note_on_c, 1, 57, 0
3, 33600, Note_on_c, 1, 61, 64
3, 33719, Note_on_c, 1, 61, 0
3, 33720, Note_on_c, 1, 62, 64
3, 33720, Note_on_c, 1, 59, 64
3, 33779, Note_on_c, 1, 62, 0
3, 33840, Note_on_c, 1, 64, 64
3, 33919, Note_on_c, 1, 59, 0
3, 34019, Note_on_c, 1, 64, 0
3, 34020, Note_on_c, 1, 62, 64
3, 34079, Note_on_c, 1, 62, 0
3, 34080, Note_on_c, 1, 61, 64
3, 34199, Note_on_c, 1, 61, 0
3, 34200, Note_on_c, 1, 66, 64
3, 34379, Note_on_c, 1, 66, 0
3, 34380, Note_on_c, 1, 64, 64
3, 34439, Note_on_c, 1, 64, 0
3, 34440, Note_on_c, 1, 62, 64
3, 34559, Note_on_c, 1, 62, 0
3, 34560, Note_on_c, 1, 67, 64
3, 34619, Note_on_c, 1, 67, 0
3, 34620, Note_on_c, 1, 66, 64
3, 34679, Note_on_c, 1, 66, 0
3, 34680, Note_on_c, 1, 64, 64
3, 34739, Note_on_c, 1, 64, 0
3, 34740, Note_on_c, 1, 62, 64
3, 34799, Note_on_c, 1, 62, 0
3, 34800, Note_on_c, 1, 64, 64
3, 34859, Note_on_c, 1, 64, 0
3, 34860, Note_on_c, 1, 62, 64
3, 34919, Note_on_c, 1, 62, 0
3, 34920, Note_on_c, 1, 61, 64
3, 34979, Note_on_c, 1, 61, 0
3, 34980, Note_on_c, 1, 62, 64
3, 35009, Note_on_c, 1, 62, 0
3, 35010, Note_on_c, 1, 64, 64
3, 35039, Note_on_c, 1, 64, 0
3, 35040, Note_on_c, 1, 62, 64
3, 35099, Note_on_c, 1, 62, 0
3, 35100, Note_on_c, 1, 61, 64
3, 35159, Note_on_c, 1, 61, 0
3, 35160, Note_on_c, 1, 62, 64
3, 35399, Note_on_c, 1, 62, 0
3, 35400, Note_on_c, 1, 59, 64
3, 35519, Note_on_c, 1, 59, 0
3, 35580, Note_on_c, 1, 59, 64
3, 35639, Note_on_c, 1, 59, 0
3, 35640, Note_on_c, 1, 60, 64
3, 35699, Note_on_c, 1, 60, 0
3, 35700, Note_on_c, 1, 59, 64
3, 35759, Note_on_c, 1, 59, 0
3, 35760, Note_on_c, 1, 57, 64
3, 35819, Note_on_c, 1, 57, 0
3, 35820, Note_on_c, 1, 55, 64
3, 35879, Note_on_c, 1, 55, 0
3, 35880, Note_on_c, 1, 57, 64
3, 36059, Note_on_c, 1, 57, 0
3, 36060, Note_on_c, 1, 64, 64
3, 36119, Note_on_c, 1, 64, 0
3, 36120, Note_on_c, 1, 62, 64
3, 36179, Note_on_c, 1, 62, 0
3, 36180, Note_on_c, 1, 60, 64
3, 36239, Note_on_c, 1, 60, 0
3, 36240, Note_on_c, 1, 59, 64
3, 36360, Note_on_c, 1, 64, 64
3, 36599, Note_on_c, 1, 59, 0
3, 36600, Note_on_c, 1, 61, 64
3, 36629, Note_on_c, 1, 64, 0
3, 36660, Note_on_c, 1, 64, 64
3, 36719, Note_on_c, 1, 64, 0
3, 36720, Note_on_c, 1, 66, 64
3, 36959, Note_on_c, 1, 61, 0
3, 36960, Note_on_c, 1, 59, 64
3, 37199, Note_on_c, 1, 59, 0
3, 37199, Note_on_c, 1, 66, 0
3, 37200, Note_on_c, 1, 59, 64
3, 37319, Note_on_c, 1, 59, 0
3, 37320, Note_on_c, 1, 60, 64
3, 37439, Note_on_c, 1, 60, 0
3, 37440, Note_on_c, 1, 59, 64
3, 37559, Note_on_c, 1, 59, 0
3, 37560, Note_on_c, 1, 57, 64
3, 37560, Note_on_c, 1, 66, 64
3, 37679, Note_on_c, 1, 66, 0
3, 37679, Note_on_c, 1, 57, 0
3, 37680, Note_on_c, 1, 59, 64
3, 37799, Note_on_c, 1, 59, 0
3, 37800, Note_on_c, 1, 64, 64
3, 37800, Note_on_c, 1, 59, 64
3, 37919, Note_on_c, 1, 64, 0
3, 37979, Note_on_c, 1, 59, 0
3, 37980, Note_on_c, 1, 57, 64
3, 38039, Note_on_c, 1, 57, 0
3, 38040, Note_on_c, 1, 55, 64
3, 38040, Note_on_c, 1, 52, 64
3, 38279, Note_on_c, 1, 52, 0
3, 38279, Note_on_c, 1, 55, 0
3, 38279, End_track
4, 0, Start_track
4, 0, Title_t, "Pedal"
4, 480, Note_on_c, 3, 40, 64
4, 719, Note_on_c, 3, 40, 0
4, 720, Note_on_c, 3, 42, 64
4, 839, Note_on_c, 3, 42, 0
4, 840, Note_on_c, 3, 35, 64
4, 959, Note_on_c, 3, 35, 0
4, 960, Note_on_c, 3, 40, 64
4, 1079, Note_on_c, 3, 40, 0
4, 1140, Note_on_c, 3, 31, 64
4, 1199, Note_on_c, 3, 31, 0
4, 1200, Note_on_c, 3, 33, 64
4, 1439, Note_on_c, 3, 33, 0
4, 1440, Note_on_c, 3, 35, 64
4, 1919, Note_on_c, 3, 35, 0
4, 1920, Note_on_c, 3, 40, 64
4, 2039, Note_on_c, 3, 40, 0
4, 2040, Note_on_c, 3, 38, 64
4, 2159, Note_on_c, 3, 38, 0
4, 2160, Note_on_c, 3, 36, 64
4, 2399, Note_on_c, 3, 36, 0
4, 2400, Note_on_c, 3, 35, 64
4, 2639, Note_on_c, 3, 35, 0
4, 2640, Note_on_c, 3, 40, 64
4, 2879, Note_on_c, 3, 40, 0
4, 2880, Note_on_c, 3, 33, 64
4, 2999, Note_on_c, 3, 33, 0
4, 3000, Note_on_c, 3, 36, 64
4, 3119, Note_on_c, 3, 36, 0
4, 3120, Note_on_c, 3, 38, 64
4, 3419, Note_on_c, 3, 38, 0
4, 3480, Note_on_c, 3, 38, 64
4, 3599, Note_on_c, 3, 38, 0
4, 3600, Note_on_c, 3, 31, 64
4, 3719, Note_on_c, 3, 31, 0
4, 3720, Note_on_c, 3, 35, 64
4, 3839, Note_on_c, 3, 35, 0
4, 3840, Note_on_c, 3, 36, 64
4, 3959, Note_on_c, 3, 36, 0
4, 4020, Note_on_c, 3, 33, 64
4, 4079, Note_on_c, 3, 33, 0
4, 4080, Note_on_c, 3, 38, 64
4, 4199, Note_on_c, 3, 38, 0
4, 4200, Note_on_c, 3, 31, 64
4, 4319, Note_on_c, 3, 31, 0
4, 4320, Note_on_c, 3, 38, 64
4, 4559, Note_on_c, 3, 38, 0
4, 4560, Note_on_c, 3, 31, 64
4, 4679, Note_on_c, 3, 31, 0
4, 4680, Note_on_c, 3, 43, 64
4, 4739, Note_on_c, 3, 43, 0
4, 4740, Note_on_c, 3, 42, 64
4, 4799, Note_on_c, 3, 42, 0
4, 4800, Note_on_c, 3, 40, 64
4, 4919, Note_on_c, 3, 40, 0
4, 4920, Note_on_c, 3, 38, 64
4, 5039, Note_on_c, 3, 38, 0
4, 5040, Note_on_c, 3, 43, 64
4, 5159, Note_on_c, 3, 43, 0
4, 5160, Note_on_c, 3, 45, 64
4, 5279, Note_on_c, 3, 45, 0
4, 5280, Note_on_c, 3, 38, 64
4, 5399, Note_on_c, 3, 38, 0
4, 5520, Note_on_c, 3, 35, 64
4, 5639, Note_on_c, 3, 35, 0
4, 5760, Note_on_c, 3, 36, 64
4, 6119, Note_on_c, 3, 36, 0
4, 6120, Note_on_c, 3, 35, 64
4, 6359, Note_on_c, 3, 35, 0
4, 6360, Note_on_c, 3, 33, 64
4, 6599, Note_on_c, 3, 33, 0
4, 6600, Note_on_c, 3, 31, 64
4, 6719, Note_on_c, 3, 31, 0
4, 6720, Note_on_c, 3, 30, 64
4, 6839, Note_on_c, 3, 30, 0
4, 6840, Note_on_c, 3, 35, 64
4, 6959, Note_on_c, 3, 35, 0
4, 6960, Note_on_c, 3, 42, 64
4, 7079, Note_on_c, 3, 42, 0
4, 7080, Note_on_c, 3, 30, 64
4, 7199, Note_on_c, 3, 30, 0
4, 7200, Note_on_c, 3, 35, 64
4, 7259, Note_on_c, 3, 35, 0
4, 7320, Note_on_c, 3, 47, 64
4, 7559, Note_on_c, 3, 47, 0
4, 7560, Note_on_c, 3, 46, 64
4, 7679, Note_on_c, 3, 46, 0
4, 7680, Note_on_c, 3, 47, 64
4, 7739, Note_on_c, 3, 47, 0
4, 7800, Note_on_c, 3, 43, 64
4, 8039, Note_on_c, 3, 43, 0
4, 8040, Note_on_c, 3, 42, 64
4, 8279, Note_on_c, 3, 42, 0
4, 8280, Note_on_c, 3, 40, 64
4, 8519, Note_on_c, 3, 40, 0
4, 8520, Note_on_c, 3, 39, 64
4, 8639, Note_on_c, 3, 39, 0
4, 8640, Note_on_c, 3, 40, 64
4, 8699, Note_on_c, 3, 40, 0
4, 8760, Note_on_c, 3, 40, 64
4, 8879, Note_on_c, 3, 40, 0
4, 8880, Note_on_c, 3, 33, 64
4, 8999, Note_on_c, 3, 33, 0
4, 9000, Note_on_c, 3, 38, 64
4, 9119, Note_on_c, 3, 38, 0
4, 9120, Note_on_c, 3, 31, 64
4, 9239, Note_on_c, 3, 31, 0
4, 9240, Note_on_c, 3, 36, 64
4, 9359, Note_on_c, 3, 36, 0
4, 9360, Note_on_c, 3, 30, 64
4, 9479, Note_on_c, 3, 30, 0
4, 9480, Note_on_c, 3, 35, 64
4, 9599, Note_on_c, 3, 35, 0
4, 9600, Note_on_c, 3, 28, 64
4, 9719, Note_on_c, 3, 28, 0
4, 9720, Note_on_c, 3, 33, 64
4, 9839, Note_on_c, 3, 33, 0
4, 9840, Note_on_c, 3, 26, 64
4, 9959, Note_on_c, 3, 26, 0
4, 9960, Note_on_c, 3, 31, 64
4, 10079, Note_on_c, 3, 31, 0
4, 10080, Note_on_c, 3, 36, 64
4, 10199, Note_on_c, 3, 36, 0
4, 10200, Note_on_c, 3, 37, 64
4, 10319, Note_on_c, 3, 37, 0
4, 10320, Note_on_c, 3, 38, 64
4, 10439, Note_on_c, 3, 38, 0
4, 10440, Note_on_c, 3, 39, 64
4, 10559, Note_on_c, 3, 39, 0
4, 10560, Note_on_c, 3, 40, 64
4, 10679, Note_on_c, 3, 40, 0
4, 10800, Note_on_c, 3, 35, 64
4, 10919, Note_on_c, 3, 35, 0
4, 11040, Note_on_c, 3, 40, 64
4, 11159, Note_on_c, 3, 40, 0
4, 11280, Note_on_c, 3, 33, 64
4, 11399, Note_on_c, 3, 33, 0
4, 11520, Note_on_c, 3, 33, 64
4, 11639, Note_on_c, 3, 33, 0
4, 11640, Note_on_c, 3, 31, 64
4, 11699, Note_on_c, 3, 31, 0
4, 11700, Note_on_c, 3, 33, 64
4, 11759, Note_on_c, 3, 33, 0
4, 11760, Note_on_c, 3, 35, 64
4, 11999, Note_on_c, 3, 35, 0
4, 12000, Note_on_c, 3, 28, 64
4, 12449, Note_on_c, 3, 28, 0
4, 19320, Note_on_c, 3, 35, 64
4, 19679, Note_on_c, 3, 35, 0
4, 19680, Note_on_c, 3, 37, 64
4, 20039, Note_on_c, 3, 37, 0
4, 20040, Note_on_c, 3, 38, 64
4, 20279, Note_on_c, 3, 38, 0
4, 20280, Note_on_c, 3, 39, 64
4, 20399, Note_on_c, 3, 39, 0
4, 20400, Note_on_c, 3, 40, 64
4, 20639, Note_on_c, 3, 40, 0
4, 20640, Note_on_c, 3, 41, 64
4, 20759, Note_on_c, 3, 41, 0
4, 20760, Note_on_c, 3, 42, 64
4, 20879, Note_on_c, 3, 42, 0
4, 20880, Note_on_c, 3, 40, 64
4, 20999, Note_on_c, 3, 40, 0
4, 21000, Note_on_c, 3, 38, 64
4, 21119, Note_on_c, 3, 38, 0
4, 21120, Note_on_c, 3, 40, 64
4, 21239, Note_on_c, 3, 40, 0
4, 21240, Note_on_c, 3, 37, 64
4, 21359, Note_on_c, 3, 37, 0
4, 21360, Note_on_c, 3, 42, 64
4, 21479, Note_on_c, 3, 42, 0
4, 21480, Note_on_c, 3, 35, 64
4, 21599, Note_on_c, 3, 35, 0
4, 21600, Note_on_c, 3, 37, 64
4, 21719, Note_on_c, 3, 37, 0
4, 21720, Note_on_c, 3, 38, 64
4, 21839, Note_on_c, 3, 38, 0
4, 21840, Note_on_c, 3, 40, 64
4, 21959, Note_on_c, 3, 40, 0
4, 21960, Note_on_c, 3, 42, 64
4, 22079, Note_on_c, 3, 42, 0
4, 22080, Note_on_c, 3, 30, 64
4, 22199, Note_on_c, 3, 30, 0
4, 22200, Note_on_c, 3, 35, 64
4, 22439, Note_on_c, 3, 35, 0
4, 23640, Note_on_c, 0, 40, 64
4, 23999, Note_on_c, 0, 40, 0
4, 24000, Note_on_c, 0, 42, 64
4, 24359, Note_on_c, 0, 42, 0
4, 24360, Note_on_c, 3, 43, 64
4, 24599, Note_on_c, 3, 43, 0
4, 24600, Note_on_c, 3, 44, 64
4, 24719, Note_on_c, 3, 44, 0
4, 24720, Note_on_c, 3, 45, 64
4, 24959, Note_on_c, 3, 45, 0
4, 24960, Note_on_c, 3, 46, 64
4, 25079, Note_on_c, 3, 46, 0
4, 25080, Note_on_c, 3, 47, 64
4, 25199, Note_on_c, 3, 47, 0
4, 25200, Note_on_c, 3, 45, 64
4, 25319, Note_on_c, 3, 45, 0
4, 25320, Note_on_c, 3, 43, 64
4, 25439, Note_on_c, 3, 43, 0
4, 25440, Note_on_c, 3, 42, 64
4, 25799, Note_on_c, 3, 42, 0
4, 25800, Note_on_c, 3, 40, 64
4, 26159, Note_on_c, 3, 40, 0
4, 26160, Note_on_c, 3, 39, 64
4, 26399, Note_on_c, 3, 39, 0
4, 26400, Note_on_c, 3, 38, 64
4, 26519, Note_on_c, 3, 38, 0
4, 26520, Note_on_c, 3, 37, 64
4, 26759, Note_on_c, 3, 37, 0
4, 26760, Note_on_c, 3, 36, 64
4, 26879, Note_on_c, 3, 36, 0
4, 26880, Note_on_c, 3, 35, 64
4, 27359, Note_on_c, 3, 35, 0
4, 27360, Note_on_c, 3, 34, 64
4, 27599, Note_on_c, 3, 34, 0
4, 27600, Note_on_c, 3, 33, 64
4, 27839, Note_on_c, 3, 33, 0
4, 27840, Note_on_c, 3, 31, 64
4, 27959, Note_on_c, 3, 31, 0
4, 27960, Note_on_c, 3, 36, 64
4, 28079, Note_on_c, 3, 36, 0
4, 28080, Note_on_c, 3, 35, 64
4, 28319, Note_on_c, 3, 35, 0
4, 28320, Note_on_c, 3, 40, 64
4, 28559, Note_on_c, 3, 40, 0
4, 31560, Note_on_c, 3, 33, 64
4, 31919, Note_on_c, 3, 33, 0
4, 31920, Note_on_c, 3, 35, 64
4, 32279, Note_on_c, 3, 35, 0
4, 32280, Note_on_c, 3, 36, 64
4, 32519, Note_on_c, 3, 36, 0
4, 32520, Note_on_c, 3, 37, 64
4, 32639, Note_on_c, 3, 37, 0
4, 32640, Note_on_c, 3, 38, 64
4, 32879, Note_on_c, 3, 38, 0
4, 32880, Note_on_c, 3, 39, 64
4, 32999, Note_on_c, 3, 39, 0
4, 33000, Note_on_c, 3, 40, 64
4, 33359, Note_on_c, 3, 40, 0
4, 33360, Note_on_c, 3, 42, 64
4, 33719, Note_on_c, 3, 42, 0
4, 33720, Note_on_c, 3, 43, 64
4, 33959, Note_on_c, 3, 43, 0
4, 33960, Note_on_c, 3, 44, 64
4, 34079, Note_on_c, 3, 44, 0
4, 34080, Note_on_c, 3, 45, 64
4, 34319, Note_on_c, 3, 45, 0
4, 34320, Note_on_c, 3, 46, 64
4, 34439, Note_on_c, 3, 46, 0
4, 34440, Note_on_c, 3, 47, 64
4, 34919, Note_on_c, 3, 47, 0
4, 34920, Note_on_c, 3, 46, 64
4, 35159, Note_on_c, 3, 46, 0
4, 35160, Note_on_c, 3, 47, 64
4, 35399, Note_on_c, 3, 47, 0
4, 35400, Note_on_c, 3, 39, 64
4, 35519, Note_on_c, 3, 39, 0
4, 35520, Note_on_c, 3, 40, 64
4, 35879, Note_on_c, 3, 40, 0
4, 35880, Note_on_c, 3, 42, 64
4, 36239, Note_on_c, 3, 42, 0
4, 36240, Note_on_c, 3, 43, 64
4, 36479, Note_on_c, 3, 43, 0
4, 36480, Note_on_c, 3, 44, 64
4, 36599, Note_on_c, 3, 44, 0
4, 36600, Note_on_c, 3, 45, 64
4, 36839, Note_on_c, 3, 45, 0
4, 36840, Note_on_c, 3, 46, 64
4, 36959, Note_on_c, 3, 46, 0
4, 36960, Note_on_c, 3, 47, 64
4, 37079, Note_on_c, 3, 47, 0
4, 37080, Note_on_c, 3, 45, 64
4, 37199, Note_on_c, 3, 45, 0
4, 37200, Note_on_c, 3, 43, 64
4, 37319, Note_on_c, 3, 43, 0
4, 37320, Note_on_c, 3, 42, 64
4, 37679, Note_on_c, 3, 42, 0
4, 37680, Note_on_c, 3, 40, 64
4, 37799, Note_on_c, 3, 40, 0
4, 37800, Note_on_c, 3, 47, 64
4, 37919, Note_on_c, 3, 47, 0
4, 37920, Note_on_c, 3, 35, 64
4, 38039, Note_on_c, 3, 35, 0
4, 38040, Note_on_c, 3, 28, 64
4, 38279, Note_on_c, 3, 28, 0
4, 38279, End_track
0, 0, End_of_file
