0, 0, Header, 1, 4, 120
1, 0, Start_track
1, 0, Key_signature, 1, "major"
1, 0, Tempo, 1578947
1, 0, Time_signature, 4, 2, 24, 8
1, 2760, Tempo, 789473
1, 11520, Tempo, 1578947
1, 12240, Tempo, 869565
1, 12240, End_track
2, 0, Start_track
2, 0, Title_t, "Right Hand"
2, 0, Instrument_name_t, "Pipe Organ"
2, 480, Note_on_c, 1, 71, 64
2, 480, Note_on_c, 1, 71, 64
2, 480, Note_on_c, 1, 67, 64
2, 689, Note_on_c, 1, 67, 0
2, 720, Note_on_c, 1, 67, 64
2, 899, Note_on_c, 1, 67, 0
2, 900, Note_on_c, 1, 65, 64
2, 959, Note_on_c, 1, 65, 0
2, 959, Note_on_c, 1, 71, 0
2, 959, Note_on_c, 1, 71, 0
2, 960, Note_on_c, 1, 64, 64
2, 1020, Note_on_c, 1, 72, 64
2, 1079, Note_on_c, 1, 64, 0
2, 1080, Note_on_c, 1, 65, 64
2, 1139, Note_on_c, 1, 72, 0
2, 1140, Note_on_c, 1, 74, 64
2, 1199, Note_on_c, 1, 74, 0
2, 1199, Note_on_c, 1, 65, 0
2, 1200, Note_on_c, 1, 76, 64
2, 1200, Note_on_c, 1, 64, 64
2, 1319, Note_on_c, 1, 64, 0
2, 1320, Note_on_c, 1, 69, 64
2, 1379, Note_on_c, 1, 69, 0
2, 1380, Note_on_c, 1, 67, 64
2, 1409, Note_on_c, 1, 67, 0
2, 1439, Note_on_c, 1, 76, 0
2, 1440, Note_on_c, 1, 69, 64
2, 1440, Note_on_c, 1, 74, 64
2, 1440, Note_on_c, 1, 66, 64
2, 1559, Note_on_c, 1, 66, 0
2, 1559, Note_on_c, 1, 74, 0
2, 1559, Note_on_c, 1, 69, 0
2, 1560, Note_on_c, 1, 67, 64
2, 1560, Note_on_c, 1, 74, 64
2, 1560, Note_on_c, 1, 71, 64
2, 1679, Note_on_c, 1, 71, 0
2, 1679, Note_on_c, 1, 74, 0
2, 1679, Note_on_c, 1, 67, 0
2, 1680, Note_on_c, 1, 72, 64
2, 1680, Note_on_c, 1, 69, 64
2, 1919, Note_on_c, 1, 72, 0
2, 1920, Note_on_c, 1, 71, 64
2, 1979, Note_on_c, 1, 69, 0
2, 1980, Note_on_c, 1, 67, 64
2, 2009, Note_on_c, 1, 67, 0
2, 2010, Note_on_c, 1, 66, 64
2, 2039, Note_on_c, 1, 66, 0
2, 2039, Note_on_c, 1, 71, 0
2, 2040, Note_on_c, 1, 64, 64
2, 2099, Note_on_c, 1, 64, 0
2, 2100, Note_on_c, 1, 62, 64
2, 2159, Note_on_c, 1, 62, 0
2, 2160, Note_on_c, 1, 69, 64
2, 2160, Note_on_c, 1, 64, 64
2, 2279, Note_on_c, 1, 64, 0
2, 2279, Note_on_c, 1, 69, 0
2, 2280, Note_on_c, 1, 69, 64
2, 2280, Note_on_c, 1, 62, 64
2, 2399, Note_on_c, 1, 69, 0
2, 2400, Note_on_c, 1, 67, 64
2, 2489, Note_on_c, 1, 62, 0
2, 2520, Note_on_c, 1, 62, 64
2, 2534, Note_on_c, 1, 62, 0
2, 2535, Note_on_c, 1, 61, 64
2, 2549, Note_on_c, 1, 61, 0
2, 2550, Note_on_c, 1, 62, 64
2, 2564, Note_on_c, 1, 62, 0
2, 2565, Note_on_c, 1, 61, 64
2, 2579, Note_on_c, 1, 61, 0
2, 2580, Note_on_c, 1, 62, 64
2, 2594, Note_on_c, 1, 62, 0
2, 2595, Note_on_c, 1, 61, 64
2, 2609, Note_on_c, 1, 61, 0
2, 2610, Note_on_c, 1, 59, 64
2, 2624, Note_on_c, 1, 59, 0
2, 2625, Note_on_c, 1, 61, 64
2, 2639, Note_on_c, 1, 61, 0
2, 2639, Note_on_c, 1, 67, 0
2, 2640, Note_on_c, 1, 62, 64
2, 2640, Note_on_c, 1, 66, 64
2, 2759, Note_on_c, 1, 66, 0
2, 2759, Note_on_c, 1, 62, 0
2, 2790, Note_on_c, 1, 62, 64
2, 2819, Note_on_c, 1, 62, 0
2, 2820, Note_on_c, 1, 64, 64
2, 2849, Note_on_c, 1, 64, 0
2, 2850, Note_on_c, 1, 66, 64
2, 2879, Note_on_c, 1, 66, 0
2, 2880, Note_on_c, 1, 67, 64
2, 2909, Note_on_c, 1, 67, 0
2, 2910, Note_on_c, 1, 66, 64
2, 2939, Note_on_c, 1, 66, 0
2, 2940, Note_on_c, 1, 67, 64
2, 2969, Note_on_c, 1, 67, 0
2, 2970, Note_on_c, 1, 69, 64
2, 2999, Note_on_c, 1, 69, 0
2, 3000, Note_on_c, 1, 71, 64
2, 3029, Note_on_c, 1, 71, 0
2, 3030, Note_on_c, 1, 69, 64
2, 3059, Note_on_c, 1, 69, 0
2, 3060, Note_on_c, 1, 71, 64
2, 3089, Note_on_c, 1, 71, 0
2, 3090, Note_on_c, 1, 72, 64
2, 3119, Note_on_c, 1, 72, 0
2, 3120, Note_on_c, 1, 74, 64
2, 3209, Note_on_c, 1, 74, 0
2, 3210, Note_on_c, 1, 76, 64
2, 3239, Note_on_c, 1, 76, 0
2, 3240, Note_on_c, 1, 72, 64
2, 3329, Note_on_c, 1, 72, 0
2, 3330, Note_on_c, 1, 74, 64
2, 3359, Note_on_c, 1, 74, 0
2, 3360, Note_on_c, 1, 71, 64
2, 3449, Note_on_c, 1, 71, 0
2, 3450, Note_on_c, 1, 72, 64
2, 3479, Note_on_c, 1, 72, 0
2, 3480, Note_on_c, 1, 69, 64
2, 3569, Note_on_c, 1, 69, 0
2, 3570, Note_on_c, 1, 71, 64
2, 3599, Note_on_c, 1, 71, 0
2, 3600, Note_on_c, 1, 67, 64
2, 3689, Note_on_c, 1, 67, 0
2, 3690, Note_on_c, 1, 69, 64
2, 3719, Note_on_c, 1, 69, 0
2, 3720, Note_on_c, 1, 66, 64
2, 3779, Note_on_c, 1, 66, 0
2, 3780, Note_on_c, 1, 67, 64
2, 3839, Note_on_c, 1, 67, 0
2, 3840, Note_on_c, 1, 60, 64
2, 3869, Note_on_c, 1, 60, 0
2, 3870, Note_on_c, 1, 66, 64
2, 3899, Note_on_c, 1, 66, 0
2, 3900, Note_on_c, 1, 69, 64
2, 3959, Note_on_c, 1, 69, 0
2, 3960, Note_on_c, 1, 59, 64
2, 3989, Note_on_c, 1, 59, 0
2, 3990, Note_on_c, 1, 64, 64
2, 4019, Note_on_c, 1, 64, 0
2, 4020, Note_on_c, 1, 67, 64
2, 4079, Note_on_c, 1, 67, 0
2, 4080, Note_on_c, 1, 57, 64
2, 4109, Note_on_c, 1, 57, 0
2, 4110, Note_on_c, 1, 62, 64
2, 4139, Note_on_c, 1, 62, 0
2, 4140, Note_on_c, 1, 66, 64
2, 4199, Note_on_c, 1, 66, 0
2, 4200, Note_on_c, 1, 55, 64
2, 4229, Note_on_c, 1, 55, 0
2, 4230, Note_on_c, 1, 61, 64
2, 4259, Note_on_c, 1, 61, 0
2, 4260, Note_on_c, 1, 64, 64
2, 4319, Note_on_c, 1, 64, 0
2, 4350, Note_on_c, 1, 62, 64
2, 4379, Note_on_c, 1, 62, 0
2, 4380, Note_on_c, 1, 64, 64
2, 4409, Note_on_c, 1, 64, 0
2, 4410, Note_on_c, 1, 66, 64
2, 4439, Note_on_c, 1, 66, 0
2, 4470, Note_on_c, 1, 67, 64
2, 4499, Note_on_c, 1, 67, 0
2, 4500, Note_on_c, 1, 66, 64
2, 4529, Note_on_c, 1, 66, 0
2, 4530, Note_on_c, 1, 67, 64
2, 4559, Note_on_c, 1, 67, 0
2, 4590, Note_on_c, 1, 69, 64
2, 4619, Note_on_c, 1, 69, 0
2, 4620, Note_on_c, 1, 67, 64
2, 4649, Note_on_c, 1, 67, 0
2, 4650, Note_on_c, 1, 69, 64
2, 4679, Note_on_c, 1, 69, 0
2, 4710, Note_on_c, 1, 71, 64
2, 4739, Note_on_c, 1, 71, 0
2, 4740, Note_on_c, 1, 69, 64
2, 4769, Note_on_c, 1, 69, 0
2, 4770, Note_on_c, 1, 71, 64
2, 4799, Note_on_c, 1, 71, 0
2, 4800, Note_on_c, 1, 72, 64
2, 4949, Note_on_c, 1, 72, 0
2, 4950, Note_on_c, 1, 69, 64
2, 4979, Note_on_c, 1, 69, 0
2, 4980, Note_on_c, 1, 74, 64
2, 5009, Note_on_c, 1, 74, 0
2, 5010, Note_on_c, 1, 72, 64
2, 5039, Note_on_c, 1, 72, 0
2, 5040, Note_on_c, 1, 71, 64
2, 5189, Note_on_c, 1, 71, 0
2, 5190, Note_on_c, 1, 72, 64
2, 5204, Note_on_c, 1, 72, 0
2, 5205, Note_on_c, 1, 74, 64
2, 5219, Note_on_c, 1, 74, 0
2, 5220, Note_on_c, 1, 72, 64
2, 5249, Note_on_c, 1, 72, 0
2, 5250, Note_on_c, 1, 71, 64
2, 5279, Note_on_c, 1, 71, 0
2, 5280, Note_on_c, 1, 69, 64
2, 5280, Note_on_c, 1, 66, 64
2, 5399, Note_on_c, 1, 66, 0
2, 5399, Note_on_c, 1, 69, 0
2, 5400, Note_on_c, 1, 67, 64
2, 5459, Note_on_c, 1, 67, 0
2, 5460, Note_on_c, 1, 69, 64
2, 5519, Note_on_c, 1, 69, 0
2, 5520, Note_on_c, 1, 71, 64
2, 5579, Note_on_c, 1, 71, 0
2, 5580, Note_on_c, 1, 66, 64
2, 5639, Note_on_c, 1, 66, 0
2, 5640, Note_on_c, 1, 67, 64
2, 5699, Note_on_c, 1, 67, 0
2, 5700, Note_on_c, 1, 69, 64
2, 5759, Note_on_c, 1, 69, 0
2, 5760, Note_on_c, 1, 71, 64
2, 5819, Note_on_c, 1, 71, 0
2, 5880, Note_on_c, 1, 72, 64
2, 5909, Note_on_c, 1, 72, 0
2, 5910, Note_on_c, 1, 76, 64
2, 5939, Note_on_c, 1, 76, 0
2, 5940, Note_on_c, 1, 74, 64
2, 5969, Note_on_c, 1, 74, 0
2, 5970, Note_on_c, 1, 77, 64
2, 5999, Note_on_c, 1, 77, 0
2, 6000, Note_on_c, 1, 76, 64
2, 6029, Note_on_c, 1, 76, 0
2, 6030, Note_on_c, 1, 79, 64
2, 6059, Note_on_c, 1, 79, 0
2, 6060, Note_on_c, 1, 71, 64
2, 6089, Note_on_c, 1, 71, 0
2, 6090, Note_on_c, 1, 74, 64
2, 6119, Note_on_c, 1, 74, 0
2, 6120, Note_on_c, 1, 72, 64
2, 6149, Note_on_c, 1, 72, 0
2, 6150, Note_on_c, 1, 76, 64
2, 6179, Note_on_c, 1, 76, 0
2, 6180, Note_on_c, 1, 74, 64
2, 6209, Note_on_c, 1, 74, 0
2, 6210, Note_on_c, 1, 77, 64
2, 6239, Note_on_c, 1, 77, 0
2, 6240, Note_on_c, 1, 76, 64
2, 6269, Note_on_c, 1, 76, 0
2, 6270, Note_on_c, 1, 72, 64
2, 6299, Note_on_c, 1, 72, 0
2, 6300, Note_on_c, 1, 67, 64
2, 6329, Note_on_c, 1, 67, 0
2, 6330, Note_on_c, 1, 64, 64
2, 6359, Note_on_c, 1, 64, 0
2, 6360, Note_on_c, 1, 60, 64
2, 6389, Note_on_c, 1, 60, 0
2, 6390, Note_on_c, 1, 55, 64
2, 6419, Note_on_c, 1, 55, 0
2, 6420, Note_on_c, 1, 52, 64
2, 6449, Note_on_c, 1, 52, 0
2, 6450, Note_on_c, 1, 48, 64
2, 6479, Note_on_c, 1, 48, 0
2, 6480, Note_on_c, 1, 74, 64
2, 6509, Note_on_c, 1, 74, 0
2, 6510, Note_on_c, 1, 71, 64
2, 6539, Note_on_c, 1, 71, 0
2, 6540, Note_on_c, 1, 67, 64
2, 6569, Note_on_c, 1, 67, 0
2, 6570, Note_on_c, 1, 62, 64
2, 6599, Note_on_c, 1, 62, 0
2, 6600, Note_on_c, 1, 59, 64
2, 6629, Note_on_c, 1, 59, 0
2, 6630, Note_on_c, 1, 55, 64
2, 6659, Note_on_c, 1, 55, 0
2, 6660, Note_on_c, 1, 50, 64
2, 6689, Note_on_c, 1, 50, 0
2, 6690, Note_on_c, 1, 47, 64
2, 6719, Note_on_c, 1, 47, 0
2, 6720, Note_on_c, 1, 72, 64
2, 6749, Note_on_c, 1, 72, 0
2, 6750, Note_on_c, 1, 69, 64
2, 6779, Note_on_c, 1, 69, 0
2, 6780, Note_on_c, 1, 66, 64
2, 6809, Note_on_c, 1, 66, 0
2, 6810, Note_on_c, 1, 60, 64
2, 6839, Note_on_c, 1, 60, 0
2, 6840, Note_on_c, 1, 57, 64
2, 6869, Note_on_c, 1, 57, 0
2, 6870, Note_on_c, 1, 54, 64
2, 6899, Note_on_c, 1, 54, 0
2, 6900, Note_on_c, 1, 48, 64
2, 6929, Note_on_c, 1, 48, 0
2, 6930, Note_on_c, 1, 45, 64
2, 6959, Note_on_c, 1, 45, 0
2, 6960, Note_on_c, 1, 71, 64
2, 6989, Note_on_c, 1, 71, 0
2, 6990, Note_on_c, 1, 67, 64
2, 7019, Note_on_c, 1, 67, 0
2, 7020, Note_on_c, 1, 62, 64
2, 7049, Note_on_c, 1, 62, 0
2, 7050, Note_on_c, 1, 59, 64
2, 7079, Note_on_c, 1, 59, 0
2, 7080, Note_on_c, 1, 55, 64
2, 7109, Note_on_c, 1, 55, 0
2, 7110, Note_on_c, 1, 50, 64
2, 7139, Note_on_c, 1, 50, 0
2, 7140, Note_on_c, 1, 47, 64
2, 7169, Note_on_c, 1, 47, 0
2, 7170, Note_on_c, 1, 43, 64
2, 7199, Note_on_c, 1, 43, 0
2, 7200, Note_on_c, 1, 51, 64
2, 7229, Note_on_c, 1, 51, 0
2, 7230, Note_on_c, 1, 54, 64
2, 7259, Note_on_c, 1, 54, 0
2, 7260, Note_on_c, 1, 57, 64
2, 7289, Note_on_c, 1, 57, 0
2, 7290, Note_on_c, 1, 59, 64
2, 7319, Note_on_c, 1, 59, 0
2, 7320, Note_on_c, 1, 63, 64
2, 7349, Note_on_c, 1, 63, 0
2, 7350, Note_on_c, 1, 66, 64
2, 7379, Note_on_c, 1, 66, 0
2, 7380, Note_on_c, 1, 71, 64
2, 7409, Note_on_c, 1, 71, 0
2, 7410, Note_on_c, 1, 66, 64
2, 7439, Note_on_c, 1, 66, 0
2, 7440, Note_on_c, 1, 67, 64
2, 7469, Note_on_c, 1, 67, 0
2, 7470, Note_on_c, 1, 64, 64
2, 7499, Note_on_c, 1, 64, 0
2, 7500, Note_on_c, 1, 59, 64
2, 7529, Note_on_c, 1, 59, 0
2, 7530, Note_on_c, 1, 55, 64
2, 7559, Note_on_c, 1, 55, 0
2, 7560, Note_on_c, 1, 52, 64
2, 7589, Note_on_c, 1, 52, 0
2, 7590, Note_on_c, 1, 47, 64
2, 7619, Note_on_c, 1, 47, 0
2, 7620, Note_on_c, 1, 43, 64
2, 7649, Note_on_c, 1, 43, 0
2, 7650, Note_on_c, 1, 40, 64
2, 7679, Note_on_c, 1, 40, 0
2, 7680, Note_on_c, 1, 49, 64
2, 7709, Note_on_c, 1, 49, 0
2, 7710, Note_on_c, 1, 52, 64
2, 7739, Note_on_c, 1, 52, 0
2, 7740, Note_on_c, 1, 55, 64
2, 7769, Note_on_c, 1, 55, 0
2, 7770, Note_on_c, 1, 57, 64
2, 7799, Note_on_c, 1, 57, 0
2, 7800, Note_on_c, 1, 61, 64
2, 7829, Note_on_c, 1, 61, 0
2, 7830, Note_on_c, 1, 64, 64
2, 7859, Note_on_c, 1, 64, 0
2, 7860, Note_on_c, 1, 69, 64
2, 7889, Note_on_c, 1, 69, 0
2, 7890, Note_on_c, 1, 64, 64
2, 7919, Note_on_c, 1, 64, 0
2, 7920, Note_on_c, 1, 66, 64
2, 7920, Note_on_c, 1, 50, 64
2, 7920, Note_on_c, 1, 62, 64
2, 7949, Note_on_c, 1, 50, 0
2, 7950, Note_on_c, 1, 54, 64
2, 7979, Note_on_c, 1, 54, 0
2, 7979, Note_on_c, 1, 62, 0
2, 7979, Note_on_c, 1, 66, 0
2, 7980, Note_on_c, 1, 57, 64
2, 8009, Note_on_c, 1, 57, 0
2, 8010, Note_on_c, 1, 62, 64
2, 8039, Note_on_c, 1, 62, 0
2, 8040, Note_on_c, 1, 66, 64
2, 8069, Note_on_c, 1, 66, 0
2, 8070, Note_on_c, 1, 69, 64
2, 8099, Note_on_c, 1, 69, 0
2, 8100, Note_on_c, 1, 74, 64
2, 8129, Note_on_c, 1, 74, 0
2, 8130, Note_on_c, 1, 69, 64
2, 8159, Note_on_c, 1, 69, 0
2, 8160, Note_on_c, 1, 55, 64
2, 8160, Note_on_c, 1, 71, 64
2, 8160, Note_on_c, 1, 67, 64
2, 8189, Note_on_c, 1, 55, 0
2, 8190, Note_on_c, 1, 59, 64
2, 8219, Note_on_c, 1, 59, 0
2, 8219, Note_on_c, 1, 67, 0
2, 8219, Note_on_c, 1, 71, 0
2, 8220, Note_on_c, 1, 62, 64
2, 8249, Note_on_c, 1, 62, 0
2, 8250, Note_on_c, 1, 67, 64
2, 8279, Note_on_c, 1, 67, 0
2, 8280, Note_on_c, 1, 71, 64
2, 8309, Note_on_c, 1, 71, 0
2, 8310, Note_on_c, 1, 74, 64
2, 8339, Note_on_c, 1, 74, 0
2, 8340, Note_on_c, 1, 79, 64
2, 8369, Note_on_c, 1, 79, 0
2, 8370, Note_on_c, 1, 74, 64
2, 8399, Note_on_c, 1, 74, 0
2, 8400, Note_on_c, 1, 56, 64
2, 8400, Note_on_c, 1, 76, 64
2, 8400, Note_on_c, 1, 71, 64
2, 8429, Note_on_c, 1, 56, 0
2, 8430, Note_on_c, 1, 59, 64
2, 8459, Note_on_c, 1, 59, 0
2, 8459, Note_on_c, 1, 71, 0
2, 8459, Note_on_c, 1, 76, 0
2, 8460, Note_on_c, 1, 62, 64
2, 8489, Note_on_c, 1, 62, 0
2, 8490, Note_on_c, 1, 76, 64
2, 8519, Note_on_c, 1, 76, 0
2, 8520, Note_on_c, 1, 68, 64
2, 8549, Note_on_c, 1, 68, 0
2, 8550, Note_on_c, 1, 71, 64
2, 8579, Note_on_c, 1, 71, 0
2, 8580, Note_on_c, 1, 76, 64
2, 8609, Note_on_c, 1, 76, 0
2, 8610, Note_on_c, 1, 71, 64
2, 8639, Note_on_c, 1, 71, 0
2, 8640, Note_on_c, 1, 73, 64
2, 8729, Note_on_c, 1, 73, 0
2, 8730, Note_on_c, 1, 74, 64
2, 8759, Note_on_c, 1, 74, 0
2, 8760, Note_on_c, 1, 71, 64
2, 8849, Note_on_c, 1, 71, 0
2, 8850, Note_on_c, 1, 73, 64
2, 8879, Note_on_c, 1, 73, 0
2, 8880, Note_on_c, 1, 69, 64
2, 8969, Note_on_c, 1, 69, 0
2, 8970, Note_on_c, 1, 71, 64
2, 8999, Note_on_c, 1, 71, 0
2, 9000, Note_on_c, 1, 67, 64
2, 9089, Note_on_c, 1, 67, 0
2, 9090, Note_on_c, 1, 69, 64
2, 9119, Note_on_c, 1, 69, 0
2, 9120, Note_on_c, 1, 66, 64
2, 9120, Note_on_c, 1, 62, 64
2, 9179, Note_on_c, 1, 66, 0
2, 9180, Note_on_c, 1, 69, 64
2, 9209, Note_on_c, 1, 69, 0
2, 9210, Note_on_c, 1, 67, 64
2, 9239, Note_on_c, 1, 67, 0
2, 9240, Note_on_c, 1, 66, 64
2, 9299, Note_on_c, 1, 66, 0
2, 9299, Note_on_c, 1, 62, 0
2, 9300, Note_on_c, 1, 61, 64
2, 9300, Note_on_c, 1, 64, 64
2, 9359, Note_on_c, 1, 64, 0
2, 9359, Note_on_c, 1, 61, 0
2, 9360, Note_on_c, 1, 62, 64
2, 9479, Note_on_c, 1, 62, 0
2, 11280, Note_on_c, 1, 54, 64
2, 11309, Note_on_c, 1, 54, 0
2, 11310, Note_on_c, 1, 57, 64
2, 11339, Note_on_c, 1, 57, 0
2, 11340, Note_on_c, 1, 60, 64
2, 11369, Note_on_c, 1, 60, 0
2, 11370, Note_on_c, 1, 62, 64
2, 11399, Note_on_c, 1, 62, 0
2, 11400, Note_on_c, 1, 66, 64
2, 11429, Note_on_c, 1, 66, 0
2, 11430, Note_on_c, 1, 69, 64
2, 11459, Note_on_c, 1, 69, 0
2, 11460, Note_on_c, 1, 74, 64
2, 11489, Note_on_c, 1, 74, 0
2, 11490, Note_on_c, 1, 69, 64
2, 11519, Note_on_c, 1, 69, 0
2, 11520, Note_on_c, 1, 71, 64
2, 11520, Note_on_c, 1, 67, 64
2, 11579, Note_on_c, 1, 67, 0
2, 11579, Note_on_c, 1, 71, 0
2, 11580, Note_on_c, 1, 69, 64
2, 11609, Note_on_c, 1, 69, 0
2, 11610, Note_on_c, 1, 67, 64
2, 11639, Note_on_c, 1, 67, 0
2, 11640, Note_on_c, 1, 64, 64
2, 11640, Note_on_c, 1, 69, 64
2, 11699, Note_on_c, 1, 69, 0
2, 11699, Note_on_c, 1, 64, 0
2, 11700, Note_on_c, 1, 64, 64
2, 11759, Note_on_c, 1, 64, 0
2, 11760, Note_on_c, 1, 66, 64
2, 11760, Note_on_c, 1, 62, 64
2, 11939, Note_on_c, 1, 66, 0
2, 11940, Note_on_c, 1, 67, 64
2, 11969, Note_on_c, 1, 67, 0
2, 11999, Note_on_c, 1, 62, 0
2, 12000, Note_on_c, 1, 67, 64
2, 12000, Note_on_c, 1, 62, 64
2, 12119, Note_on_c, 1, 62, 0
2, 12119, Note_on_c, 1, 67, 0
2, 13680, Note_on_c, 1, 62, 64
2, 13799, Note_on_c, 1, 62, 0
2, 13800, Note_on_c, 1, 67, 64
2, 13979, Note_on_c, 1, 67, 0
2, 13980, Note_on_c, 1, 64, 64
2, 14039, Note_on_c, 1, 64, 0
2, 14040, Note_on_c, 1, 66, 64
2, 14219, Note_on_c, 1, 66, 0
2, 14220, Note_on_c, 1, 62, 64
2, 14279, Note_on_c, 1, 62, 0
2, 14280, Note_on_c, 1, 64, 64
2, 14459, Note_on_c, 1, 64, 0
2, 14460, Note_on_c, 1, 61, 64
2, 14519, Note_on_c, 1, 61, 0
2, 14520, Note_on_c, 1, 62, 64
2, 14759, Note_on_c, 1, 62, 0
2, 14760, Note_on_c, 1, 62, 64
2, 14774, Note_on_c, 1, 62, 0
2, 14775, Note_on_c, 1, 61, 64
2, 14789, Note_on_c, 1, 61, 0
2, 14790, Note_on_c, 1, 62, 64
2, 14804, Note_on_c, 1, 62, 0
2, 14805, Note_on_c, 1, 61, 64
2, 14819, Note_on_c, 1, 61, 0
2, 14820, Note_on_c, 1, 62, 64
2, 14834, Note_on_c, 1, 62, 0
2, 14835, Note_on_c, 1, 61, 64
2, 14879, Note_on_c, 1, 61, 0
2, 14880, Note_on_c, 1, 62, 64
2, 14999, Note_on_c, 1, 62, 0
2, 15000, Note_on_c, 1, 60, 64
2, 15119, Note_on_c, 1, 60, 0
2, 15120, Note_on_c, 1, 59, 64
2, 15179, Note_on_c, 1, 59, 0
2, 15180, Note_on_c, 1, 57, 64
2, 15239, Note_on_c, 1, 57, 0
2, 15240, Note_on_c, 1, 59, 64
2, 15299, Note_on_c, 1, 59, 0
2, 15300, Note_on_c, 1, 60, 64
2, 15359, Note_on_c, 1, 60, 0
2, 15360, Note_on_c, 1, 67, 64
2, 15479, Note_on_c, 1, 67, 0
2, 15480, Note_on_c, 1, 74, 64
2, 15480, Note_on_c, 1, 66, 64
2, 15599, Note_on_c, 1, 66, 0
2, 15600, Note_on_c, 1, 67, 64
2, 15659, Note_on_c, 1, 74, 0
2, 15660, Note_on_c, 1, 71, 64
2, 15719, Note_on_c, 1, 71, 0
2, 15720, Note_on_c, 1, 72, 64
2, 15779, Note_on_c, 1, 67, 0
2, 15780, Note_on_c, 1, 69, 64
2, 15809, Note_on_c, 1, 69, 0
2, 15810, Note_on_c, 1, 67, 64
2, 15839, Note_on_c, 1, 67, 0
2, 15840, Note_on_c, 1, 66, 64
2, 15899, Note_on_c, 1, 72, 0
2, 15900, Note_on_c, 1, 69, 64
2, 15959, Note_on_c, 1, 69, 0
2, 15960, Note_on_c, 1, 71, 64
2, 16019, Note_on_c, 1, 66, 0
2, 16020, Note_on_c, 1, 67, 64
2, 16049, Note_on_c, 1, 67, 0
2, 16050, Note_on_c, 1, 66, 64
2, 16079, Note_on_c, 1, 66, 0
2, 16080, Note_on_c, 1, 64, 64
2, 16139, Note_on_c, 1, 71, 0
2, 16140, Note_on_c, 1, 67, 64
2, 16199, Note_on_c, 1, 67, 0
2, 16200, Note_on_c, 1, 69, 64
2, 16259, Note_on_c, 1, 64, 0
2, 16260, Note_on_c, 1, 66, 64
2, 16289, Note_on_c, 1, 66, 0
2, 16290, Note_on_c, 1, 64, 64
2, 16319, Note_on_c, 1, 64, 0
2, 16320, Note_on_c, 1, 62, 64
2, 16379, Note_on_c, 1, 69, 0
2, 16380, Note_on_c, 1, 66, 64
2, 16439, Note_on_c, 1, 66, 0
2, 16440, Note_on_c, 1, 67, 64
2, 16499, Note_on_c, 1, 62, 0
2, 16500, Note_on_c, 1, 64, 64
2, 16529, Note_on_c, 1, 64, 0
2, 16530, Note_on_c, 1, 62, 64
2, 16559, Note_on_c, 1, 62, 0
2, 16560, Note_on_c, 1, 60, 64
2, 16619, Note_on_c, 1, 60, 0
2, 16620, Note_on_c, 1, 59, 64
2, 16679, Note_on_c, 1, 59, 0
2, 16679, Note_on_c, 1, 67, 0
2, 16680, Note_on_c, 1, 67, 64
2, 16680, Note_on_c, 1, 60, 64
2, 16694, Note_on_c, 1, 67, 0
2, 16695, Note_on_c, 1, 66, 64
2, 16709, Note_on_c, 1, 66, 0
2, 16710, Note_on_c, 1, 67, 64
2, 16724, Note_on_c, 1, 67, 0
2, 16725, Note_on_c, 1, 66, 64
2, 16739, Note_on_c, 1, 66, 0
2, 16739, Note_on_c, 1, 60, 0
2, 16740, Note_on_c, 1, 67, 64
2, 16740, Note_on_c, 1, 62, 64
2, 16754, Note_on_c, 1, 67, 0
2, 16755, Note_on_c, 1, 66, 64
2, 16769, Note_on_c, 1, 62, 0
2, 16770, Note_on_c, 1, 60, 64
2, 16799, Note_on_c, 1, 60, 0
2, 16799, Note_on_c, 1, 66, 0
2, 16800, Note_on_c, 1, 67, 64
2, 16800, Note_on_c, 1, 59, 64
2, 16859, Note_on_c, 1, 67, 0
2, 16860, Note_on_c, 1, 66, 64
2, 16919, Note_on_c, 1, 66, 0
2, 16919, Note_on_c, 1, 59, 0
2, 16920, Note_on_c, 1, 67, 64
2, 16979, Note_on_c, 1, 67, 0
2, 16980, Note_on_c, 1, 69, 64
2, 16980, Note_on_c, 1, 62, 64
2, 17009, Note_on_c, 1, 62, 0
2, 17039, Note_on_c, 1, 69, 0
2, 17040, Note_on_c, 1, 71, 64
2, 17040, Note_on_c, 1, 62, 64
2, 17099, Note_on_c, 1, 71, 0
2, 17100, Note_on_c, 1, 69, 64
2, 17159, Note_on_c, 1, 69, 0
2, 17159, Note_on_c, 1, 62, 0
2, 17160, Note_on_c, 1, 71, 64
2, 17219, Note_on_c, 1, 71, 0
2, 17220, Note_on_c, 1, 73, 64
2, 17220, Note_on_c, 1, 67, 64
2, 17279, Note_on_c, 1, 67, 0
2, 17279, Note_on_c, 1, 73, 0
2, 17280, Note_on_c, 1, 74, 64
2, 17280, Note_on_c, 1, 66, 64
2, 17339, Note_on_c, 1, 74, 0
2, 17340, Note_on_c, 1, 72, 64
2, 17399, Note_on_c, 1, 72, 0
2, 17399, Note_on_c, 1, 66, 0
2, 17400, Note_on_c, 1, 67, 64
2, 17400, Note_on_c, 1, 71, 64
2, 17519, Note_on_c, 1, 71, 0
2, 17519, Note_on_c, 1, 67, 0
2, 17520, Note_on_c, 1, 72, 64
2, 17520, Note_on_c, 1, 69, 64
2, 17699, Note_on_c, 1, 72, 0
2, 17700, Note_on_c, 1, 74, 64
2, 17729, Note_on_c, 1, 74, 0
2, 17730, Note_on_c, 1, 72, 64
2, 17759, Note_on_c, 1, 72, 0
2, 17759, Note_on_c, 1, 69, 0
2, 17760, Note_on_c, 1, 71, 64
2, 17760, Note_on_c, 1, 67, 64
2, 17939, Note_on_c, 1, 71, 0
2, 17940, Note_on_c, 1, 72, 64
2, 17969, Note_on_c, 1, 72, 0
2, 17970, Note_on_c, 1, 71, 64
2, 17999, Note_on_c, 1, 71, 0
2, 17999, Note_on_c, 1, 67, 0
2, 18000, Note_on_c, 1, 66, 64
2, 18000, Note_on_c, 1, 69, 64
2, 18179, Note_on_c, 1, 69, 0
2, 18180, Note_on_c, 1, 71, 64
2, 18209, Note_on_c, 1, 71, 0
2, 18210, Note_on_c, 1, 69, 64
2, 18239, Note_on_c, 1, 69, 0
2, 18239, Note_on_c, 1, 66, 0
2, 18240, Note_on_c, 1, 64, 64
2, 18240, Note_on_c, 1, 67, 64
2, 18299, Note_on_c, 1, 67, 0
2, 18300, Note_on_c, 1, 66, 64
2, 18359, Note_on_c, 1, 66, 0
2, 18360, Note_on_c, 1, 67, 64
2, 18419, Note_on_c, 1, 67, 0
2, 18420, Note_on_c, 1, 69, 64
2, 18449, Note_on_c, 1, 69, 0
2, 18450, Note_on_c, 1, 67, 64
2, 18479, Note_on_c, 1, 67, 0
2, 18479, Note_on_c, 1, 64, 0
2, 18480, Note_on_c, 1, 66, 64
2, 18480, Note_on_c, 1, 62, 64
2, 18599, Note_on_c, 1, 62, 0
2, 18599, Note_on_c, 1, 66, 0
2, 18660, Note_on_c, 1, 66, 64
2, 18719, Note_on_c, 1, 66, 0
2, 18720, Note_on_c, 1, 67, 64
2, 18899, Note_on_c, 1, 67, 0
2, 18900, Note_on_c, 1, 69, 64
2, 18929, Note_on_c, 1, 69, 0
2, 18930, Note_on_c, 1, 67, 64
2, 18959, Note_on_c, 1, 67, 0
2, 18960, Note_on_c, 1, 66, 64
2, 19139, Note_on_c, 1, 66, 0
2, 19140, Note_on_c, 1, 67, 64
2, 19169, Note_on_c, 1, 67, 0
2, 19170, Note_on_c, 1, 66, 64
2, 19199, Note_on_c, 1, 66, 0
2, 19200, Note_on_c, 1, 64, 64
2, 19379, Note_on_c, 1, 64, 0
2, 19380, Note_on_c, 1, 66, 64
2, 19409, Note_on_c, 1, 66, 0
2, 19410, Note_on_c, 1, 64, 64
2, 19439, Note_on_c, 1, 64, 0
2, 19440, Note_on_c, 1, 63, 64
2, 19559, Note_on_c, 1, 63, 0
2, 19560, Note_on_c, 1, 64, 64
2, 19799, Note_on_c, 1, 64, 0
2, 19800, Note_on_c, 1, 64, 64
2, 19814, Note_on_c, 1, 64, 0
2, 19815, Note_on_c, 1, 63, 64
2, 19829, Note_on_c, 1, 63, 0
2, 19830, Note_on_c, 1, 64, 64
2, 19844, Note_on_c, 1, 64, 0
2, 19845, Note_on_c, 1, 63, 64
2, 19859, Note_on_c, 1, 63, 0
2, 19860, Note_on_c, 1, 64, 64
2, 19874, Note_on_c, 1, 64, 0
2, 19875, Note_on_c, 1, 63, 64
2, 19919, Note_on_c, 1, 63, 0
2, 19920, Note_on_c, 1, 64, 64
2, 20039, Note_on_c, 1, 64, 0
2, 20040, Note_on_c, 1, 71, 64
2, 20160, Note_on_c, 1, 59, 64
2, 20219, Note_on_c, 1, 71, 0
2, 20220, Note_on_c, 1, 67, 64
2, 20279, Note_on_c, 1, 67, 0
2, 20279, Note_on_c, 1, 59, 0
2, 20280, Note_on_c, 1, 69, 64
2, 20280, Note_on_c, 1, 66, 64
2, 20459, Note_on_c, 1, 66, 0
2, 20459, Note_on_c, 1, 69, 0
2, 20460, Note_on_c, 1, 66, 64
2, 20460, Note_on_c, 1, 63, 64
2, 20519, Note_on_c, 1, 63, 0
2, 20519, Note_on_c, 1, 66, 0
2, 20520, Note_on_c, 1, 67, 64
2, 20520, Note_on_c, 1, 64, 64
2, 20579, Note_on_c, 1, 64, 0
2, 20579, Note_on_c, 1, 67, 0
2, 20580, Note_on_c, 1, 66, 64
2, 20580, Note_on_c, 1, 69, 64
2, 20609, Note_on_c, 1, 69, 0
2, 20609, Note_on_c, 1, 66, 0
2, 20610, Note_on_c, 1, 71, 64
2, 20610, Note_on_c, 1, 67, 64
2, 20639, Note_on_c, 1, 67, 0
2, 20639, Note_on_c, 1, 71, 0
2, 20640, Note_on_c, 1, 72, 64
2, 20640, Note_on_c, 1, 69, 64
2, 20759, Note_on_c, 1, 69, 0
2, 20759, Note_on_c, 1, 72, 0
2, 20820, Note_on_c, 1, 69, 64
2, 20820, Note_on_c, 1, 66, 64
2, 20879, Note_on_c, 1, 66, 0
2, 20879, Note_on_c, 1, 69, 0
2, 20880, Note_on_c, 1, 71, 64
2, 20880, Note_on_c, 1, 67, 64
2, 20999, Note_on_c, 1, 67, 0
2, 20999, Note_on_c, 1, 71, 0
2, 21060, Note_on_c, 1, 67, 64
2, 21060, Note_on_c, 1, 64, 64
2, 21119, Note_on_c, 1, 64, 0
2, 21119, Note_on_c, 1, 67, 0
2, 21120, Note_on_c, 1, 69, 64
2, 21120, Note_on_c, 1, 66, 64
2, 21239, Note_on_c, 1, 66, 0
2, 21239, Note_on_c, 1, 69, 0
2, 21300, Note_on_c, 1, 66, 64
2, 21300, Note_on_c, 1, 62, 64
2, 21359, Note_on_c, 1, 62, 0
2, 21359, Note_on_c, 1, 66, 0
2, 21360, Note_on_c, 1, 67, 64
2, 21360, Note_on_c, 1, 64, 64
2, 21479, Note_on_c, 1, 64, 0
2, 21479, Note_on_c, 1, 67, 0
2, 21540, Note_on_c, 1, 64, 64
2, 21540, Note_on_c, 1, 61, 64
2, 21599, Note_on_c, 1, 61, 0
2, 21599, Note_on_c, 1, 64, 0
2, 21600, Note_on_c, 1, 66, 64
2, 21600, Note_on_c, 1, 57, 64
2, 21600, Note_on_c, 1, 62, 64
2, 21719, Note_on_c, 1, 62, 0
2, 21719, Note_on_c, 1, 57, 0
2, 21719, Note_on_c, 1, 66, 0
2, 21720, Note_on_c, 1, 62, 64
2, 21899, Note_on_c, 1, 62, 0
2, 21900, Note_on_c, 1, 59, 64
2, 21959, Note_on_c, 1, 59, 0
2, 21960, Note_on_c, 1, 60, 64
2, 22080, Note_on_c, 1, 62, 64
2, 22139, Note_on_c, 1, 60, 0
2, 22140, Note_on_c, 1, 57, 64
2, 22199, Note_on_c, 1, 57, 0
2, 22199, Note_on_c, 1, 62, 0
2, 22200, Note_on_c, 1, 67, 64
2, 22200, Note_on_c, 1, 59, 64
2, 22319, Note_on_c, 1, 59, 0
2, 22320, Note_on_c, 1, 69, 64
2, 22379, Note_on_c, 1, 67, 0
2, 22380, Note_on_c, 1, 64, 64
2, 22439, Note_on_c, 1, 64, 0
2, 22439, Note_on_c, 1, 69, 0
2, 22440, Note_on_c, 1, 74, 64
2, 22440, Note_on_c, 1, 66, 64
2, 22559, Note_on_c, 1, 66, 0
2, 22560, Note_on_c, 1, 67, 64
2, 22619, Note_on_c, 1, 74, 0
2, 22620, Note_on_c, 1, 71, 64
2, 22679, Note_on_c, 1, 71, 0
2, 22679, Note_on_c, 1, 67, 0
2, 22680, Note_on_c, 1, 72, 64
2, 22800, Note_on_c, 1, 74, 64
2, 22859, Note_on_c, 1, 72, 0
2, 22860, Note_on_c, 1, 69, 64
2, 22919, Note_on_c, 1, 69, 0
2, 22919, Note_on_c, 1, 74, 0
2, 22920, Note_on_c, 1, 79, 64
2, 22920, Note_on_c, 1, 71, 64
2, 23039, Note_on_c, 1, 71, 0
2, 23040, Note_on_c, 1, 69, 64
2, 23099, Note_on_c, 1, 79, 0
2, 23100, Note_on_c, 1, 76, 64
2, 23159, Note_on_c, 1, 76, 0
2, 23160, Note_on_c, 1, 78, 64
2, 23279, Note_on_c, 1, 78, 0
2, 23279, Note_on_c, 1, 69, 0
2, 23280, Note_on_c, 1, 76, 64
2, 23280, Note_on_c, 1, 67, 64
2, 23459, Note_on_c, 1, 67, 0
2, 23460, Note_on_c, 1, 69, 64
2, 23489, Note_on_c, 1, 69, 0
2, 23490, Note_on_c, 1, 67, 64
2, 23519, Note_on_c, 1, 67, 0
2, 23519, Note_on_c, 1, 76, 0
2, 23520, Note_on_c, 1, 74, 64
2, 23520, Note_on_c, 1, 66, 64
2, 23699, Note_on_c, 1, 66, 0
2, 23700, Note_on_c, 1, 67, 64
2, 23729, Note_on_c, 1, 67, 0
2, 23730, Note_on_c, 1, 66, 64
2, 23759, Note_on_c, 1, 66, 0
2, 23759, Note_on_c, 1, 74, 0
2, 23760, Note_on_c, 1, 64, 64
2, 23760, Note_on_c, 1, 72, 64
2, 23879, Note_on_c, 1, 64, 0
2, 23880, Note_on_c, 1, 65, 64
2, 23939, Note_on_c, 1, 72, 0
2, 23940, Note_on_c, 1, 74, 64
2, 23969, Note_on_c, 1, 74, 0
2, 23970, Note_on_c, 1, 72, 64
2, 23999, Note_on_c, 1, 72, 0
2, 23999, Note_on_c, 1, 65, 0
2, 24000, Note_on_c, 1, 67, 64
2, 24000, Note_on_c, 1, 71, 64
2, 24119, Note_on_c, 1, 71, 0
2, 24120, Note_on_c, 1, 72, 64
2, 24239, Note_on_c, 1, 67, 0
2, 24240, Note_on_c, 1, 65, 64
2, 24359, Note_on_c, 1, 72, 0
2, 24360, Note_on_c, 1, 72, 64
2, 24374, Note_on_c, 1, 72, 0
2, 24375, Note_on_c, 1, 71, 64
2, 24389, Note_on_c, 1, 71, 0
2, 24390, Note_on_c, 1, 72, 64
2, 24404, Note_on_c, 1, 72, 0
2, 24405, Note_on_c, 1, 71, 64
2, 24419, Note_on_c, 1, 71, 0
2, 24420, Note_on_c, 1, 72, 64
2, 24434, Note_on_c, 1, 72, 0
2, 24435, Note_on_c, 1, 71, 64
2, 24479, Note_on_c, 1, 71, 0
2, 24479, Note_on_c, 1, 65, 0
2, 24480, Note_on_c, 1, 72, 64
2, 24480, Note_on_c, 1, 64, 64
2, 24599, Note_on_c, 1, 64, 0
2, 24599, Note_on_c, 1, 72, 0
2, 24660, Note_on_c, 1, 76, 64
2, 24719, Note_on_c, 1, 76, 0
2, 24720, Note_on_c, 1, 78, 64
2, 24720, Note_on_c, 1, 69, 64
2, 24839, Note_on_c, 1, 69, 0
2, 24840, Note_on_c, 1, 74, 64
2, 24959, Note_on_c, 1, 78, 0
2, 24960, Note_on_c, 1, 76, 64
2, 25019, Note_on_c, 1, 74, 0
2, 25020, Note_on_c, 1, 71, 64
2, 25079, Note_on_c, 1, 71, 0
2, 25080, Note_on_c, 1, 72, 64
2, 25199, Note_on_c, 1, 76, 0
2, 25200, Note_on_c, 1, 74, 64
2, 25259, Note_on_c, 1, 72, 0
2, 25260, Note_on_c, 1, 69, 64
2, 25319, Note_on_c, 1, 69, 0
2, 25320, Note_on_c, 1, 71, 64
2, 25439, Note_on_c, 1, 74, 0
2, 25440, Note_on_c, 1, 72, 64
2, 25499, Note_on_c, 1, 71, 0
2, 25500, Note_on_c, 1, 67, 64
2, 25559, Note_on_c, 1, 67, 0
2, 25560, Note_on_c, 1, 69, 64
2, 25679, Note_on_c, 1, 72, 0
2, 25680, Note_on_c, 1, 71, 64
2, 25739, Note_on_c, 1, 69, 0
2, 25740, Note_on_c, 1, 66, 64
2, 25799, Note_on_c, 1, 66, 0
2, 25800, Note_on_c, 1, 67, 64
2, 25919, Note_on_c, 1, 71, 0
2, 25920, Note_on_c, 1, 69, 64
2, 25979, Note_on_c, 1, 67, 0
2, 25980, Note_on_c, 1, 64, 64
2, 26039, Note_on_c, 1, 64, 0
2, 26040, Note_on_c, 1, 67, 64
2, 26054, Note_on_c, 1, 67, 0
2, 26055, Note_on_c, 1, 66, 64
2, 26069, Note_on_c, 1, 66, 0
2, 26070, Note_on_c, 1, 67, 64
2, 26084, Note_on_c, 1, 67, 0
2, 26085, Note_on_c, 1, 66, 64
2, 26099, Note_on_c, 1, 66, 0
2, 26100, Note_on_c, 1, 67, 64
2, 26114, Note_on_c, 1, 67, 0
2, 26115, Note_on_c, 1, 66, 64
2, 26159, Note_on_c, 1, 66, 0
2, 26159, Note_on_c, 1, 69, 0
2, 26160, Note_on_c, 1, 67, 64
2, 26220, Note_on_c, 1, 69, 64
2, 26279, Note_on_c, 1, 69, 0
2, 26279, Note_on_c, 1, 67, 0
2, 26280, Note_on_c, 1, 71, 64
2, 26339, Note_on_c, 1, 71, 0
2, 26340, Note_on_c, 1, 67, 64
2, 26340, Note_on_c, 1, 73, 64
2, 26399, Note_on_c, 1, 73, 0
2, 26399, Note_on_c, 1, 67, 0
2, 26400, Note_on_c, 1, 74, 64
2, 26400, Note_on_c, 1, 66, 64
2, 26459, Note_on_c, 1, 74, 0
2, 26460, Note_on_c, 1, 72, 64
2, 26519, Note_on_c, 1, 72, 0
2, 26519, Note_on_c, 1, 66, 0
2, 26520, Note_on_c, 1, 67, 64
2, 26520, Note_on_c, 1, 71, 64
2, 26639, Note_on_c, 1, 71, 0
2, 26639, Note_on_c, 1, 67, 0
2, 26640, Note_on_c, 1, 72, 64
2, 26640, Note_on_c, 1, 69, 64
2, 26819, Note_on_c, 1, 72, 0
2, 26820, Note_on_c, 1, 74, 64
2, 26849, Note_on_c, 1, 74, 0
2, 26850, Note_on_c, 1, 72, 64
2, 26879, Note_on_c, 1, 72, 0
2, 26879, Note_on_c, 1, 69, 0
2, 26880, Note_on_c, 1, 67, 64
2, 26880, Note_on_c, 1, 71, 64
2, 27059, Note_on_c, 1, 71, 0
2, 27060, Note_on_c, 1, 72, 64
2, 27089, Note_on_c, 1, 72, 0
2, 27090, Note_on_c, 1, 71, 64
2, 27119, Note_on_c, 1, 71, 0
2, 27119, Note_on_c, 1, 67, 0
2, 27120, Note_on_c, 1, 66, 64
2, 27120, Note_on_c, 1, 69, 64
2, 27299, Note_on_c, 1, 69, 0
2, 27300, Note_on_c, 1, 71, 64
2, 27329, Note_on_c, 1, 71, 0
2, 27330, Note_on_c, 1, 69, 64
2, 27359, Note_on_c, 1, 69, 0
2, 27359, Note_on_c, 1, 66, 0
2, 27360, Note_on_c, 1, 67, 64
2, 27360, Note_on_c, 1, 64, 64
2, 27539, Note_on_c, 1, 67, 0
2, 27540, Note_on_c, 1, 69, 64
2, 27569, Note_on_c, 1, 69, 0
2, 27570, Note_on_c, 1, 67, 64
2, 27599, Note_on_c, 1, 67, 0
2, 27599, Note_on_c, 1, 64, 0
2, 27600, Note_on_c, 1, 66, 64
2, 27600, Note_on_c, 1, 62, 64
2, 27719, Note_on_c, 1, 62, 0
2, 27719, Note_on_c, 1, 66, 0
2, 27840, Note_on_c, 1, 62, 64
2, 27959, Note_on_c, 1, 62, 0
2, 27960, Note_on_c, 1, 67, 64
2, 28080, Note_on_c, 1, 69, 64
2, 28139, Note_on_c, 1, 67, 0
2, 28140, Note_on_c, 1, 64, 64
2, 28199, Note_on_c, 1, 64, 0
2, 28199, Note_on_c, 1, 69, 0
2, 28200, Note_on_c, 1, 74, 64
2, 28200, Note_on_c, 1, 66, 64
2, 28319, Note_on_c, 1, 66, 0
2, 28320, Note_on_c, 1, 67, 64
2, 28379, Note_on_c, 1, 74, 0
2, 28380, Note_on_c, 1, 71, 64
2, 28439, Note_on_c, 1, 71, 0
2, 28440, Note_on_c, 1, 72, 64
2, 28679, Note_on_c, 1, 72, 0
2, 28680, Note_on_c, 1, 71, 64
2, 28739, Note_on_c, 1, 71, 0
2, 28739, Note_on_c, 1, 67, 0
2, 28740, Note_on_c, 1, 69, 64
2, 28740, Note_on_c, 1, 66, 64
2, 28799, Note_on_c, 1, 66, 0
2, 28799, Note_on_c, 1, 69, 0
2, 28800, Note_on_c, 1, 71, 64
2, 28800, Note_on_c, 1, 67, 64
2, 29880, Note_on_c, 1, 67, 0
2, 29880, Note_on_c, 1, 71, 0
2, 29880, End_track
3, 0, Start_track
3, 0, Title_t, "Left Hand"
3, 0, Instrument_name_t, "Pipe Organ"
3, 480, Note_on_c, 1, 55, 64
3, 480, Note_on_c, 1, 62, 64
3, 719, Note_on_c, 1, 62, 0
3, 780, Note_on_c, 1, 59, 64
3, 839, Note_on_c, 1, 59, 0
3, 840, Note_on_c, 1, 62, 64
3, 959, Note_on_c, 1, 62, 0
3, 960, Note_on_c, 1, 60, 64
3, 1079, Note_on_c, 1, 60, 0
3, 1080, Note_on_c, 1, 59, 64
3, 1199, Note_on_c, 1, 55, 0
3, 1200, Note_on_c, 1, 48, 64
3, 1259, Note_on_c, 1, 59, 0
3, 1260, Note_on_c, 1, 57, 64
3, 1289, Note_on_c, 1, 57, 0
3, 1290, Note_on_c, 1, 55, 64
3, 1319, Note_on_c, 1, 55, 0
3, 1320, Note_on_c, 1, 57, 64
3, 1439, Note_on_c, 1, 57, 0
3, 1439, Note_on_c, 1, 48, 0
3, 1440, Note_on_c, 1, 57, 64
3, 1440, Note_on_c, 1, 54, 64
3, 1440, Note_on_c, 1, 50, 64
3, 1559, Note_on_c, 1, 50, 0
3, 1559, Note_on_c, 1, 54, 0
3, 1559, Note_on_c, 1, 57, 0
3, 1560, Note_on_c, 1, 62, 64
3, 1560, Note_on_c, 1, 55, 64
3, 1560, Note_on_c, 1, 50, 64
3, 1679, Note_on_c, 1, 50, 0
3, 1679, Note_on_c, 1, 62, 0
3, 1680, Note_on_c, 1, 64, 64
3, 1739, Note_on_c, 1, 55, 0
3, 1740, Note_on_c, 1, 54, 64
3, 1769, Note_on_c, 1, 54, 0
3, 1770, Note_on_c, 1, 52, 64
3, 1799, Note_on_c, 1, 52, 0
3, 1799, Note_on_c, 1, 64, 0
3, 1800, Note_on_c, 1, 62, 64
3, 1800, Note_on_c, 1, 54, 64
3, 1889, Note_on_c, 1, 54, 0
3, 1890, Note_on_c, 1, 55, 64
3, 1919, Note_on_c, 1, 55, 0
3, 1919, Note_on_c, 1, 62, 0
3, 1920, Note_on_c, 1, 55, 64
3, 1920, Note_on_c, 1, 62, 64
3, 2039, Note_on_c, 1, 62, 0
3, 2099, Note_on_c, 1, 55, 0
3, 2100, Note_on_c, 1, 54, 64
3, 2159, Note_on_c, 1, 54, 0
3, 2160, Note_on_c, 1, 61, 64
3, 2160, Note_on_c, 1, 52, 64
3, 2279, Note_on_c, 1, 52, 0
3, 2279, Note_on_c, 1, 61, 0
3, 2280, Note_on_c, 1, 54, 64
3, 2280, Note_on_c, 1, 57, 64
3, 2399, Note_on_c, 1, 57, 0
3, 2399, Note_on_c, 1, 54, 0
3, 2400, Note_on_c, 1, 59, 64
3, 2400, Note_on_c, 1, 52, 64
3, 2519, Note_on_c, 1, 59, 0
3, 2520, Note_on_c, 1, 55, 64
3, 2639, Note_on_c, 1, 52, 0
3, 2640, Note_on_c, 1, 50, 64
3, 2640, Note_on_c, 1, 57, 64
3, 2669, Note_on_c, 1, 55, 0
3, 2759, Note_on_c, 1, 57, 0
3, 2759, Note_on_c, 1, 50, 0
3, 2910, Note_on_c, 1, 62, 64
3, 2939, Note_on_c, 1, 62, 0
3, 2940, Note_on_c, 1, 64, 64
3, 2969, Note_on_c, 1, 64, 0
3, 2970, Note_on_c, 1, 66, 64
3, 2999, Note_on_c, 1, 66, 0
3, 3000, Note_on_c, 1, 67, 64
3, 3029, Note_on_c, 1, 67, 0
3, 3030, Note_on_c, 1, 66, 64
3, 3059, Note_on_c, 1, 66, 0
3, 3060, Note_on_c, 1, 67, 64
3, 3089, Note_on_c, 1, 67, 0
3, 3090, Note_on_c, 1, 69, 64
3, 3119, Note_on_c, 1, 69, 0
3, 3120, Note_on_c, 1, 71, 64
3, 3149, Note_on_c, 1, 71, 0
3, 3150, Note_on_c, 1, 67, 64
3, 3179, Note_on_c, 1, 67, 0
3, 3180, Note_on_c, 1, 64, 64
3, 3239, Note_on_c, 1, 64, 0
3, 3240, Note_on_c, 1, 69, 64
3, 3269, Note_on_c, 1, 69, 0
3, 3270, Note_on_c, 1, 66, 64
3, 3299, Note_on_c, 1, 66, 0
3, 3300, Note_on_c, 1, 62, 64
3, 3359, Note_on_c, 1, 62, 0
3, 3360, Note_on_c, 1, 67, 64
3, 3389, Note_on_c, 1, 67, 0
3, 3390, Note_on_c, 1, 64, 64
3, 3419, Note_on_c, 1, 64, 0
3, 3420, Note_on_c, 1, 60, 64
3, 3479, Note_on_c, 1, 60, 0
3, 3480, Note_on_c, 1, 66, 64
3, 3509, Note_on_c, 1, 66, 0
3, 3510, Note_on_c, 1, 62, 64
3, 3539, Note_on_c, 1, 62, 0
3, 3540, Note_on_c, 1, 59, 64
3, 3599, Note_on_c, 1, 59, 0
3, 3600, Note_on_c, 1, 64, 64
3, 3629, Note_on_c, 1, 64, 0
3, 3630, Note_on_c, 1, 60, 64
3, 3659, Note_on_c, 1, 60, 0
3, 3660, Note_on_c, 1, 57, 64
3, 3719, Note_on_c, 1, 57, 0
3, 3720, Note_on_c, 1, 62, 64
3, 3749, Note_on_c, 1, 62, 0
3, 3750, Note_on_c, 1, 57, 64
3, 3779, Note_on_c, 1, 57, 0
3, 3780, Note_on_c, 1, 59, 64
3, 3809, Note_on_c, 1, 59, 0
3, 3810, Note_on_c, 1, 55, 64
3, 3810, Note_on_c, 1, 55, 64
3, 3839, Note_on_c, 1, 55, 0
3, 3839, Note_on_c, 1, 55, 0
3, 3840, Note_on_c, 1, 57, 64
3, 3929, Note_on_c, 1, 57, 0
3, 3930, Note_on_c, 1, 54, 64
3, 3959, Note_on_c, 1, 54, 0
3, 3960, Note_on_c, 1, 55, 64
3, 4049, Note_on_c, 1, 55, 0
3, 4050, Note_on_c, 1, 52, 64
3, 4079, Note_on_c, 1, 52, 0
3, 4080, Note_on_c, 1, 54, 64
3, 4169, Note_on_c, 1, 54, 0
3, 4170, Note_on_c, 1, 50, 64
3, 4199, Note_on_c, 1, 50, 0
3, 4200, Note_on_c, 1, 52, 64
3, 4289, Note_on_c, 1, 52, 0
3, 4290, Note_on_c, 1, 49, 64
3, 4319, Note_on_c, 1, 49, 0
3, 4320, Note_on_c, 1, 50, 64
3, 4334, Note_on_c, 1, 50, 0
3, 4350, Note_on_c, 1, 54, 64
3, 4379, Note_on_c, 1, 54, 0
3, 4380, Note_on_c, 1, 55, 64
3, 4409, Note_on_c, 1, 55, 0
3, 4410, Note_on_c, 1, 57, 64
3, 4439, Note_on_c, 1, 57, 0
3, 4470, Note_on_c, 1, 59, 64
3, 4499, Note_on_c, 1, 59, 0
3, 4500, Note_on_c, 1, 57, 64
3, 4529, Note_on_c, 1, 57, 0
3, 4530, Note_on_c, 1, 59, 64
3, 4559, Note_on_c, 1, 59, 0
3, 4590, Note_on_c, 1, 66, 64
3, 4619, Note_on_c, 1, 66, 0
3, 4620, Note_on_c, 1, 64, 64
3, 4649, Note_on_c, 1, 64, 0
3, 4650, Note_on_c, 1, 66, 64
3, 4679, Note_on_c, 1, 66, 0
3, 4710, Note_on_c, 1, 67, 64
3, 4739, Note_on_c, 1, 67, 0
3, 4740, Note_on_c, 1, 66, 64
3, 4769, Note_on_c, 1, 66, 0
3, 4770, Note_on_c, 1, 67, 64
3, 4799, Note_on_c, 1, 67, 0
3, 4800, Note_on_c, 1, 69, 64
3, 4829, Note_on_c, 1, 69, 0
3, 4830, Note_on_c, 1, 67, 64
3, 4859, Note_on_c, 1, 67, 0
3, 4860, Note_on_c, 1, 66, 64
3, 4889, Note_on_c, 1, 66, 0
3, 4890, Note_on_c, 1, 64, 64
3, 4919, Note_on_c, 1, 64, 0
3, 4920, Note_on_c, 1, 66, 64
3, 5069, Note_on_c, 1, 66, 0
3, 5070, Note_on_c, 1, 62, 64
3, 5099, Note_on_c, 1, 62, 0
3, 5100, Note_on_c, 1, 64, 64
3, 5129, Note_on_c, 1, 64, 0
3, 5130, Note_on_c, 1, 66, 64
3, 5159, Note_on_c, 1, 66, 0
3, 5160, Note_on_c, 1, 67, 64
3, 5189, Note_on_c, 1, 67, 0
3, 5190, Note_on_c, 1, 69, 64
3, 5204, Note_on_c, 1, 69, 0
3, 5205, Note_on_c, 1, 71, 64
3, 5219, Note_on_c, 1, 71, 0
3, 5220, Note_on_c, 1, 69, 64
3, 5249, Note_on_c, 1, 69, 0
3, 5250, Note_on_c, 1, 67, 64
3, 5279, Note_on_c, 1, 67, 0
3, 5310, Note_on_c, 1, 62, 64
3, 5339, Note_on_c, 1, 62, 0
3, 5340, Note_on_c, 1, 60, 64
3, 5369, Note_on_c, 1, 60, 0
3, 5370, Note_on_c, 1, 62, 64
3, 5399, Note_on_c, 1, 62, 0
3, 5400, Note_on_c, 1, 59, 64
3, 5429, Note_on_c, 1, 59, 0
3, 5430, Note_on_c, 1, 62, 64
3, 5459, Note_on_c, 1, 62, 0
3, 5460, Note_on_c, 1, 54, 64
3, 5489, Note_on_c, 1, 54, 0
3, 5490, Note_on_c, 1, 62, 64
3, 5519, Note_on_c, 1, 62, 0
3, 5520, Note_on_c, 1, 55, 64
3, 5549, Note_on_c, 1, 55, 0
3, 5550, Note_on_c, 1, 62, 64
3, 5579, Note_on_c, 1, 62, 0
3, 5580, Note_on_c, 1, 59, 64
3, 5580, Note_on_c, 1, 57, 64
3, 5609, Note_on_c, 1, 57, 0
3, 5609, Note_on_c, 1, 59, 0
3, 5610, Note_on_c, 1, 62, 64
3, 5639, Note_on_c, 1, 62, 0
3, 5640, Note_on_c, 1, 59, 64
3, 5669, Note_on_c, 1, 59, 0
3, 5670, Note_on_c, 1, 62, 64
3, 5699, Note_on_c, 1, 62, 0
3, 5700, Note_on_c, 1, 54, 64
3, 5729, Note_on_c, 1, 54, 0
3, 5730, Note_on_c, 1, 62, 64
3, 5759, Note_on_c, 1, 62, 0
3, 5760, Note_on_c, 1, 55, 64
3, 5774, Note_on_c, 1, 55, 0
3, 5790, Note_on_c, 1, 67, 64
3, 5819, Note_on_c, 1, 67, 0
3, 5820, Note_on_c, 1, 65, 64
3, 5849, Note_on_c, 1, 65, 0
3, 5850, Note_on_c, 1, 67, 64
3, 5879, Note_on_c, 1, 67, 0
3, 5880, Note_on_c, 1, 64, 64
3, 5939, Note_on_c, 1, 64, 0
3, 5940, Note_on_c, 1, 59, 64
3, 5999, Note_on_c, 1, 59, 0
3, 6000, Note_on_c, 1, 60, 64
3, 6059, Note_on_c, 1, 60, 0
3, 6060, Note_on_c, 1, 62, 64
3, 6119, Note_on_c, 1, 62, 0
3, 6120, Note_on_c, 1, 64, 64
3, 6179, Note_on_c, 1, 64, 0
3, 6180, Note_on_c, 1, 59, 64
3, 6239, Note_on_c, 1, 59, 0
3, 6240, Note_on_c, 1, 60, 64
3, 6299, Note_on_c, 1, 60, 0
3, 8670, Note_on_c, 1, 64, 64
3, 8699, Note_on_c, 1, 64, 0
3, 8700, Note_on_c, 1, 66, 64
3, 8759, Note_on_c, 1, 66, 0
3, 8790, Note_on_c, 1, 62, 64
3, 8819, Note_on_c, 1, 62, 0
3, 8820, Note_on_c, 1, 64, 64
3, 8879, Note_on_c, 1, 64, 0
3, 8910, Note_on_c, 1, 61, 64
3, 8939, Note_on_c, 1, 61, 0
3, 8940, Note_on_c, 1, 62, 64
3, 8999, Note_on_c, 1, 62, 0
3, 9030, Note_on_c, 1, 59, 64
3, 9059, Note_on_c, 1, 59, 0
3, 9060, Note_on_c, 1, 61, 64
3, 9119, Note_on_c, 1, 61, 0
3, 9120, Note_on_c, 1, 62, 64
3, 9179, Note_on_c, 1, 62, 0
3, 9180, Note_on_c, 1, 54, 64
3, 9209, Note_on_c, 1, 54, 0
3, 9210, Note_on_c, 1, 55, 64
3, 9239, Note_on_c, 1, 55, 0
3, 9240, Note_on_c, 1, 57, 64
3, 9329, Note_on_c, 1, 57, 0
3, 9330, Note_on_c, 1, 55, 64
3, 9359, Note_on_c, 1, 55, 0
3, 9360, Note_on_c, 1, 57, 64
3, 9360, Note_on_c, 1, 54, 64
3, 9479, Note_on_c, 1, 54, 0
3, 9479, Note_on_c, 1, 57, 0
3, 11520, Note_on_c, 1, 62, 64
3, 11520, Note_on_c, 1, 55, 64
3, 11520, Note_on_c, 1, 50, 64
3, 11639, Note_on_c, 1, 50, 0
3, 11639, Note_on_c, 1, 55, 0
3, 11639, Note_on_c, 1, 62, 0
3, 11640, Note_on_c, 1, 60, 64
3, 11640, Note_on_c, 1, 57, 64
3, 11640, Note_on_c, 1, 52, 64
3, 11759, Note_on_c, 1, 52, 0
3, 11759, Note_on_c, 1, 57, 0
3, 11759, Note_on_c, 1, 60, 0
3, 11760, Note_on_c, 1, 57, 64
3, 11820, Note_on_c, 1, 59, 64
3, 11879, Note_on_c, 1, 59, 0
3, 11880, Note_on_c, 1, 60, 64
3, 11999, Note_on_c, 1, 60, 0
3, 11999, Note_on_c, 1, 57, 0
3, 12000, Note_on_c, 1, 59, 64
3, 12000, Note_on_c, 1, 55, 64
3, 12119, Note_on_c, 1, 55, 0
3, 12119, Note_on_c, 1, 59, 0
3, 12240, Note_on_c, 1, 55, 64
3, 12359, Note_on_c, 1, 55, 0
3, 12360, Note_on_c, 1, 62, 64
3, 12539, Note_on_c, 1, 62, 0
3, 12540, Note_on_c, 1, 59, 64
3, 12599, Note_on_c, 1, 59, 0
3, 12600, Note_on_c, 1, 60, 64
3, 12779, Note_on_c, 1, 60, 0
3, 12780, Note_on_c, 1, 57, 64
3, 12839, Note_on_c, 1, 57, 0
3, 12840, Note_on_c, 1, 59, 64
3, 13019, Note_on_c, 1, 59, 0
3, 13020, Note_on_c, 1, 55, 64
3, 13079, Note_on_c, 1, 55, 0
3, 13080, Note_on_c, 1, 57, 64
3, 13259, Note_on_c, 1, 57, 0
3, 13260, Note_on_c, 1, 54, 64
3, 13319, Note_on_c, 1, 54, 0
3, 13320, Note_on_c, 1, 55, 64
3, 13499, Note_on_c, 1, 55, 0
3, 13500, Note_on_c, 1, 57, 64
3, 13529, Note_on_c, 1, 57, 0
3, 13530, Note_on_c, 1, 52, 64
3, 13559, Note_on_c, 1, 52, 0
3, 13560, Note_on_c, 1, 55, 64
3, 13574, Note_on_c, 1, 55, 0
3, 13575, Note_on_c, 1, 54, 64
3, 13589, Note_on_c, 1, 54, 0
3, 13590, Note_on_c, 1, 55, 64
3, 13604, Note_on_c, 1, 55, 0
3, 13605, Note_on_c, 1, 54, 64
3, 13619, Note_on_c, 1, 54, 0
3, 13620, Note_on_c, 1, 55, 64
3, 13634, Note_on_c, 1, 55, 0
3, 13635, Note_on_c, 1, 54, 64
3, 13679, Note_on_c, 1, 54, 0
3, 13680, Note_on_c, 1, 55, 64
3, 13739, Note_on_c, 1, 55, 0
3, 13740, Note_on_c, 1, 57, 64
3, 13799, Note_on_c, 1, 57, 0
3, 13800, Note_on_c, 1, 59, 64
3, 13859, Note_on_c, 1, 59, 0
3, 13860, Note_on_c, 1, 57, 64
3, 13889, Note_on_c, 1, 57, 0
3, 13890, Note_on_c, 1, 55, 64
3, 13919, Note_on_c, 1, 55, 0
3, 13920, Note_on_c, 1, 57, 64
3, 14099, Note_on_c, 1, 57, 0
3, 14100, Note_on_c, 1, 54, 64
3, 14159, Note_on_c, 1, 54, 0
3, 14160, Note_on_c, 1, 55, 64
3, 14339, Note_on_c, 1, 55, 0
3, 14340, Note_on_c, 1, 52, 64
3, 14399, Note_on_c, 1, 52, 0
3, 14400, Note_on_c, 1, 54, 64
3, 14579, Note_on_c, 1, 54, 0
3, 14580, Note_on_c, 1, 50, 64
3, 14639, Note_on_c, 1, 50, 0
3, 14640, Note_on_c, 1, 52, 64
3, 14699, Note_on_c, 1, 52, 0
3, 14700, Note_on_c, 1, 54, 64
3, 14759, Note_on_c, 1, 54, 0
3, 14760, Note_on_c, 1, 55, 64
3, 14819, Note_on_c, 1, 55, 0
3, 14820, Note_on_c, 1, 57, 64
3, 14879, Note_on_c, 1, 57, 0
3, 14880, Note_on_c, 1, 54, 64
3, 14939, Note_on_c, 1, 54, 0
3, 14940, Note_on_c, 1, 50, 64
3, 14999, Note_on_c, 1, 50, 0
3, 15000, Note_on_c, 1, 52, 64
3, 15059, Note_on_c, 1, 52, 0
3, 15060, Note_on_c, 1, 54, 64
3, 15119, Note_on_c, 1, 54, 0
3, 15120, Note_on_c, 1, 55, 64
3, 15179, Note_on_c, 1, 55, 0
3, 15180, Note_on_c, 1, 54, 64
3, 15239, Note_on_c, 1, 54, 0
3, 15240, Note_on_c, 1, 55, 64
3, 15299, Note_on_c, 1, 55, 0
3, 15300, Note_on_c, 1, 60, 64
3, 15300, Note_on_c, 1, 57, 64
3, 15359, Note_on_c, 1, 57, 0
3, 15359, Note_on_c, 1, 60, 0
3, 15360, Note_on_c, 1, 62, 64
3, 15360, Note_on_c, 1, 59, 64
3, 15419, Note_on_c, 1, 59, 0
3, 15420, Note_on_c, 1, 55, 64
3, 15479, Note_on_c, 1, 55, 0
3, 15479, Note_on_c, 1, 62, 0
3, 15480, Note_on_c, 1, 57, 64
3, 15509, Note_on_c, 1, 57, 0
3, 15540, Note_on_c, 1, 50, 64
3, 15599, Note_on_c, 1, 50, 0
3, 15600, Note_on_c, 1, 52, 64
3, 15779, Note_on_c, 1, 52, 0
3, 15780, Note_on_c, 1, 48, 64
3, 15839, Note_on_c, 1, 48, 0
3, 15840, Note_on_c, 1, 50, 64
3, 16019, Note_on_c, 1, 50, 0
3, 16020, Note_on_c, 1, 47, 64
3, 16079, Note_on_c, 1, 47, 0
3, 16080, Note_on_c, 1, 48, 64
3, 16259, Note_on_c, 1, 48, 0
3, 16260, Note_on_c, 1, 45, 64
3, 16319, Note_on_c, 1, 45, 0
3, 16320, Note_on_c, 1, 47, 64
3, 16499, Note_on_c, 1, 47, 0
3, 16500, Note_on_c, 1, 43, 64
3, 16559, Note_on_c, 1, 43, 0
3, 16560, Note_on_c, 1, 45, 64
3, 16679, Note_on_c, 1, 45, 0
3, 16680, Note_on_c, 1, 50, 64
3, 16799, Note_on_c, 1, 50, 0
3, 16800, Note_on_c, 1, 52, 64
3, 16859, Note_on_c, 1, 52, 0
3, 16860, Note_on_c, 1, 50, 64
3, 16919, Note_on_c, 1, 50, 0
3, 16920, Note_on_c, 1, 52, 64
3, 16979, Note_on_c, 1, 52, 0
3, 16980, Note_on_c, 1, 54, 64
3, 17039, Note_on_c, 1, 54, 0
3, 17040, Note_on_c, 1, 55, 64
3, 17099, Note_on_c, 1, 55, 0
3, 17100, Note_on_c, 1, 54, 64
3, 17159, Note_on_c, 1, 54, 0
3, 17160, Note_on_c, 1, 55, 64
3, 17219, Note_on_c, 1, 55, 0
3, 17220, Note_on_c, 1, 57, 64
3, 17249, Note_on_c, 1, 57, 0
3, 17280, Note_on_c, 1, 57, 64
3, 17399, Note_on_c, 1, 57, 0
3, 17400, Note_on_c, 1, 59, 64
3, 17459, Note_on_c, 1, 59, 0
3, 17460, Note_on_c, 1, 62, 64
3, 17519, Note_on_c, 1, 62, 0
3, 17520, Note_on_c, 1, 64, 64
3, 17639, Note_on_c, 1, 64, 0
3, 17640, Note_on_c, 1, 62, 64
3, 17879, Note_on_c, 1, 62, 0
3, 17880, Note_on_c, 1, 60, 64
3, 18119, Note_on_c, 1, 60, 0
3, 18120, Note_on_c, 1, 59, 64
3, 18359, Note_on_c, 1, 59, 0
3, 18360, Note_on_c, 1, 57, 64
3, 18419, Note_on_c, 1, 57, 0
3, 18480, Note_on_c, 1, 57, 64
3, 18599, Note_on_c, 1, 57, 0
3, 18600, Note_on_c, 1, 62, 64
3, 18779, Note_on_c, 1, 62, 0
3, 18780, Note_on_c, 1, 59, 64
3, 18839, Note_on_c, 1, 59, 0
3, 18840, Note_on_c, 1, 60, 64
3, 19019, Note_on_c, 1, 60, 0
3, 19020, Note_on_c, 1, 57, 64
3, 19079, Note_on_c, 1, 57, 0
3, 19080, Note_on_c, 1, 59, 64
3, 19259, Note_on_c, 1, 59, 0
3, 19260, Note_on_c, 1, 55, 64
3, 19319, Note_on_c, 1, 55, 0
3, 19320, Note_on_c, 1, 57, 64
3, 19499, Note_on_c, 1, 57, 0
3, 19500, Note_on_c, 1, 54, 64
3, 19559, Note_on_c, 1, 54, 0
3, 19560, Note_on_c, 1, 59, 64
3, 19560, Note_on_c, 1, 55, 64
3, 19619, Note_on_c, 1, 55, 0
3, 19620, Note_on_c, 1, 54, 64
3, 19649, Note_on_c, 1, 54, 0
3, 19650, Note_on_c, 1, 52, 64
3, 19679, Note_on_c, 1, 52, 0
3, 19680, Note_on_c, 1, 54, 64
3, 19859, Note_on_c, 1, 59, 0
3, 19860, Note_on_c, 1, 57, 64
3, 19919, Note_on_c, 1, 57, 0
3, 19919, Note_on_c, 1, 54, 0
3, 19920, Note_on_c, 1, 59, 64
3, 19920, Note_on_c, 1, 55, 64
3, 20039, Note_on_c, 1, 55, 0
3, 20039, Note_on_c, 1, 59, 0
3, 20400, Note_on_c, 1, 47, 64
3, 20519, Note_on_c, 1, 47, 0
3, 20520, Note_on_c, 1, 52, 64
3, 20699, Note_on_c, 1, 52, 0
3, 20700, Note_on_c, 1, 48, 64
3, 20759, Note_on_c, 1, 48, 0
3, 20760, Note_on_c, 1, 50, 64
3, 20939, Note_on_c, 1, 50, 0
3, 20940, Note_on_c, 1, 47, 64
3, 20999, Note_on_c, 1, 47, 0
3, 21000, Note_on_c, 1, 48, 64
3, 21179, Note_on_c, 1, 48, 0
3, 21180, Note_on_c, 1, 45, 64
3, 21239, Note_on_c, 1, 45, 0
3, 21240, Note_on_c, 1, 47, 64
3, 21419, Note_on_c, 1, 47, 0
3, 21420, Note_on_c, 1, 43, 64
3, 21479, Note_on_c, 1, 43, 0
3, 21480, Note_on_c, 1, 45, 64
3, 21599, Note_on_c, 1, 45, 0
3, 21600, Note_on_c, 1, 50, 64
3, 21659, Note_on_c, 1, 50, 0
3, 21660, Note_on_c, 1, 52, 64
3, 21719, Note_on_c, 1, 52, 0
3, 21720, Note_on_c, 1, 54, 64
3, 21779, Note_on_c, 1, 54, 0
3, 21780, Note_on_c, 1, 55, 64
3, 21839, Note_on_c, 1, 55, 0
3, 21840, Note_on_c, 1, 57, 64
3, 22019, Note_on_c, 1, 57, 0
3, 22020, Note_on_c, 1, 55, 64
3, 22079, Note_on_c, 1, 55, 0
3, 22080, Note_on_c, 1, 54, 64
3, 22199, Note_on_c, 1, 54, 0
3, 22200, Note_on_c, 1, 59, 64
3, 22200, Note_on_c, 1, 52, 64
3, 22259, Note_on_c, 1, 52, 0
3, 22260, Note_on_c, 1, 50, 64
3, 22319, Note_on_c, 1, 50, 0
3, 22319, Note_on_c, 1, 59, 0
3, 22320, Note_on_c, 1, 48, 64
3, 22379, Note_on_c, 1, 48, 0
3, 22380, Note_on_c, 1, 60, 64
3, 22439, Note_on_c, 1, 60, 0
3, 22440, Note_on_c, 1, 57, 64
3, 22499, Note_on_c, 1, 57, 0
3, 22500, Note_on_c, 1, 50, 64
3, 22559, Note_on_c, 1, 50, 0
3, 22560, Note_on_c, 1, 52, 64
3, 22739, Note_on_c, 1, 52, 0
3, 22740, Note_on_c, 1, 64, 64
3, 22799, Note_on_c, 1, 64, 0
3, 22800, Note_on_c, 1, 66, 64
3, 22920, Note_on_c, 1, 64, 64
3, 22949, Note_on_c, 1, 66, 0
3, 22979, Note_on_c, 1, 64, 0
3, 22980, Note_on_c, 1, 62, 64
3, 23039, Note_on_c, 1, 62, 0
3, 23040, Note_on_c, 1, 61, 64
3, 23159, Note_on_c, 1, 61, 0
3, 23160, Note_on_c, 1, 62, 64
3, 23219, Note_on_c, 1, 62, 0
3, 23220, Note_on_c, 1, 50, 64
3, 23279, Note_on_c, 1, 50, 0
3, 23280, Note_on_c, 1, 59, 64
3, 23399, Note_on_c, 1, 59, 0
3, 23400, Note_on_c, 1, 57, 64
3, 23639, Note_on_c, 1, 57, 0
3, 23640, Note_on_c, 1, 55, 64
3, 23879, Note_on_c, 1, 55, 0
3, 23880, Note_on_c, 1, 53, 64
3, 24059, Note_on_c, 1, 53, 0
3, 24060, Note_on_c, 1, 52, 64
3, 24089, Note_on_c, 1, 52, 0
3, 24090, Note_on_c, 1, 50, 64
3, 24119, Note_on_c, 1, 50, 0
3, 24120, Note_on_c, 1, 52, 64
3, 24179, Note_on_c, 1, 52, 0
3, 24180, Note_on_c, 1, 50, 64
3, 24209, Note_on_c, 1, 50, 0
3, 24210, Note_on_c, 1, 48, 64
3, 24239, Note_on_c, 1, 48, 0
3, 24240, Note_on_c, 1, 50, 64
3, 24359, Note_on_c, 1, 50, 0
3, 24360, Note_on_c, 1, 55, 64
3, 24539, Note_on_c, 1, 55, 0
3, 24540, Note_on_c, 1, 52, 64
3, 24599, Note_on_c, 1, 52, 0
3, 24600, Note_on_c, 1, 57, 64
3, 24660, Note_on_c, 1, 49, 64
3, 24719, Note_on_c, 1, 49, 0
3, 24720, Note_on_c, 1, 50, 64
3, 24779, Note_on_c, 1, 57, 0
3, 24839, Note_on_c, 1, 50, 0
3, 24900, Note_on_c, 1, 54, 64
3, 24959, Note_on_c, 1, 54, 0
3, 24960, Note_on_c, 1, 55, 64
3, 25079, Note_on_c, 1, 55, 0
3, 25140, Note_on_c, 1, 57, 64
3, 25199, Note_on_c, 1, 57, 0
3, 25200, Note_on_c, 1, 54, 64
3, 25319, Note_on_c, 1, 54, 0
3, 25380, Note_on_c, 1, 55, 64
3, 25439, Note_on_c, 1, 55, 0
3, 25440, Note_on_c, 1, 52, 64
3, 25559, Note_on_c, 1, 52, 0
3, 25620, Note_on_c, 1, 54, 64
3, 25679, Note_on_c, 1, 54, 0
3, 25680, Note_on_c, 1, 50, 64
3, 25859, Note_on_c, 1, 50, 0
3, 25860, Note_on_c, 1, 52, 64
3, 25919, Note_on_c, 1, 52, 0
3, 25920, Note_on_c, 1, 48, 64
3, 26039, Note_on_c, 1, 48, 0
3, 26040, Note_on_c, 1, 50, 64
3, 26159, Note_on_c, 1, 50, 0
3, 26160, Note_on_c, 1, 52, 64
3, 26219, Note_on_c, 1, 52, 0
3, 26220, Note_on_c, 1, 54, 64
3, 26279, Note_on_c, 1, 54, 0
3, 26280, Note_on_c, 1, 55, 64
3, 26339, Note_on_c, 1, 55, 0
3, 26340, Note_on_c, 1, 57, 64
3, 26369, Note_on_c, 1, 57, 0
3, 26400, Note_on_c, 1, 57, 64
3, 26519, Note_on_c, 1, 57, 0
3, 26520, Note_on_c, 1, 59, 64
3, 26579, Note_on_c, 1, 59, 0
3, 26580, Note_on_c, 1, 62, 64
3, 26639, Note_on_c, 1, 62, 0
3, 26640, Note_on_c, 1, 64, 64
3, 26759, Note_on_c, 1, 64, 0
3, 26760, Note_on_c, 1, 62, 64
3, 26999, Note_on_c, 1, 62, 0
3, 27000, Note_on_c, 1, 60, 64
3, 27239, Note_on_c, 1, 60, 0
3, 27240, Note_on_c, 1, 59, 64
3, 27479, Note_on_c, 1, 59, 0
3, 27480, Note_on_c, 1, 57, 64
3, 27539, Note_on_c, 1, 57, 0
3, 27600, Note_on_c, 1, 57, 64
3, 27719, Note_on_c, 1, 57, 0
3, 27720, Note_on_c, 1, 62, 64
3, 27839, Note_on_c, 1, 62, 0
3, 27840, Note_on_c, 1, 59, 64
3, 27899, Note_on_c, 1, 59, 0
3, 27900, Note_on_c, 1, 57, 64
3, 27959, Note_on_c, 1, 57, 0
3, 27960, Note_on_c, 1, 59, 64
3, 28019, Note_on_c, 1, 59, 0
3, 28020, Note_on_c, 1, 57, 64
3, 28049, Note_on_c, 1, 57, 0
3, 28050, Note_on_c, 1, 55, 64
3, 28079, Note_on_c, 1, 55, 0
3, 28080, Note_on_c, 1, 62, 64
3, 28259, Note_on_c, 1, 62, 0
3, 28260, Note_on_c, 1, 60, 64
3, 28289, Note_on_c, 1, 60, 0
3, 28290, Note_on_c, 1, 62, 64
3, 28319, Note_on_c, 1, 62, 0
3, 28320, Note_on_c, 1, 59, 64
3, 28379, Note_on_c, 1, 59, 0
3, 28380, Note_on_c, 1, 62, 64
3, 28439, Note_on_c, 1, 62, 0
3, 28440, Note_on_c, 1, 64, 64
3, 28499, Note_on_c, 1, 64, 0
3, 28500, Note_on_c, 1, 62, 64
3, 28529, Note_on_c, 1, 62, 0
3, 28530, Note_on_c, 1, 60, 64
3, 28559, Note_on_c, 1, 60, 0
3, 28560, Note_on_c, 1, 62, 64
3, 28739, Note_on_c, 1, 62, 0
3, 28740, Note_on_c, 1, 60, 64
3, 28799, Note_on_c, 1, 60, 0
3, 28800, Note_on_c, 1, 62, 64
3, 29880, Note_on_c, 1, 62, 0
3, 29880, End_track
4, 0, Start_track
4, 0, Title_t, "Pedal"
4, 0, Instrument_name_t, "Pipe Organ"
4, 480, Note_on_c, 3, 31, 64
4, 1199, Note_on_c, 3, 31, 0
4, 1200, Note_on_c, 3, 36, 64
4, 1559, Note_on_c, 3, 36, 0
4, 1560, Note_on_c, 3, 35, 64
4, 1679, Note_on_c, 3, 35, 0
4, 1680, Note_on_c, 3, 33, 64
4, 1919, Note_on_c, 3, 33, 0
4, 1920, Note_on_c, 3, 31, 64
4, 2279, Note_on_c, 3, 31, 0
4, 2280, Note_on_c, 3, 30, 64
4, 2399, Note_on_c, 3, 30, 0
4, 2400, Note_on_c, 3, 28, 64
4, 2639, Note_on_c, 3, 28, 0
4, 2640, Note_on_c, 3, 26, 64
4, 2759, Note_on_c, 3, 26, 0
4, 4320, Note_on_c, 3, 38, 64
4, 4379, Note_on_c, 3, 38, 0
4, 4440, Note_on_c, 3, 38, 64
4, 4499, Note_on_c, 3, 38, 0
4, 4560, Note_on_c, 3, 38, 64
4, 4619, Note_on_c, 3, 38, 0
4, 4680, Note_on_c, 3, 38, 64
4, 4739, Note_on_c, 3, 38, 0
4, 4800, Note_on_c, 3, 38, 64
4, 5759, Note_on_c, 3, 38, 0
4, 5760, Note_on_c, 3, 43, 64
4, 6239, Note_on_c, 3, 43, 0
4, 6240, Note_on_c, 3, 36, 64
4, 6299, Note_on_c, 3, 36, 0
4, 6480, Note_on_c, 3, 35, 64
4, 6539, Note_on_c, 3, 35, 0
4, 6720, Note_on_c, 3, 33, 64
4, 6779, Note_on_c, 3, 33, 0
4, 6960, Note_on_c, 3, 31, 64
4, 7019, Note_on_c, 3, 31, 0
4, 7200, Note_on_c, 3, 39, 64
4, 7259, Note_on_c, 3, 39, 0
4, 7440, Note_on_c, 3, 40, 64
4, 7499, Note_on_c, 3, 40, 0
4, 7680, Note_on_c, 3, 37, 64
4, 7739, Note_on_c, 3, 37, 0
4, 7920, Note_on_c, 3, 38, 64
4, 7979, Note_on_c, 3, 38, 0
4, 8160, Note_on_c, 3, 43, 64
4, 8219, Note_on_c, 3, 43, 0
4, 8400, Note_on_c, 3, 44, 64
4, 8459, Note_on_c, 3, 44, 0
4, 8640, Note_on_c, 3, 45, 64
4, 9299, Note_on_c, 3, 45, 0
4, 9300, Note_on_c, 3, 33, 64
4, 9359, Note_on_c, 3, 33, 0
4, 9360, Note_on_c, 3, 38, 64
4, 9479, Note_on_c, 3, 38, 0
4, 9510, Note_on_c, 3, 38, 64
4, 9539, Note_on_c, 3, 38, 0
4, 9540, Note_on_c, 3, 36, 64
4, 9569, Note_on_c, 3, 36, 0
4, 9570, Note_on_c, 3, 38, 64
4, 9599, Note_on_c, 3, 38, 0
4, 9600, Note_on_c, 3, 35, 64
4, 9629, Note_on_c, 3, 35, 0
4, 9630, Note_on_c, 3, 43, 64
4, 9659, Note_on_c, 3, 43, 0
4, 9660, Note_on_c, 3, 38, 64
4, 9689, Note_on_c, 3, 38, 0
4, 9690, Note_on_c, 3, 43, 64
4, 9719, Note_on_c, 3, 43, 0
4, 9720, Note_on_c, 3, 35, 64
4, 9749, Note_on_c, 3, 35, 0
4, 9750, Note_on_c, 3, 43, 64
4, 9779, Note_on_c, 3, 43, 0
4, 9780, Note_on_c, 3, 31, 64
4, 9809, Note_on_c, 3, 31, 0
4, 9810, Note_on_c, 3, 43, 64
4, 9839, Note_on_c, 3, 43, 0
4, 9840, Note_on_c, 3, 40, 64
4, 9869, Note_on_c, 3, 40, 0
4, 9870, Note_on_c, 3, 43, 64
4, 9899, Note_on_c, 3, 43, 0
4, 9900, Note_on_c, 3, 38, 64
4, 9929, Note_on_c, 3, 38, 0
4, 9930, Note_on_c, 3, 43, 64
4, 9959, Note_on_c, 3, 43, 0
4, 9960, Note_on_c, 3, 36, 64
4, 9989, Note_on_c, 3, 36, 0
4, 9990, Note_on_c, 3, 43, 64
4, 10019, Note_on_c, 3, 43, 0
4, 10020, Note_on_c, 3, 35, 64
4, 10049, Note_on_c, 3, 35, 0
4, 10050, Note_on_c, 3, 43, 64
4, 10079, Note_on_c, 3, 43, 0
4, 10080, Note_on_c, 3, 33, 64
4, 10109, Note_on_c, 3, 33, 0
4, 10110, Note_on_c, 3, 45, 64
4, 10139, Note_on_c, 3, 45, 0
4, 10140, Note_on_c, 3, 40, 64
4, 10169, Note_on_c, 3, 40, 0
4, 10170, Note_on_c, 3, 45, 64
4, 10199, Note_on_c, 3, 45, 0
4, 10200, Note_on_c, 3, 37, 64
4, 10229, Note_on_c, 3, 37, 0
4, 10230, Note_on_c, 3, 45, 64
4, 10259, Note_on_c, 3, 45, 0
4, 10260, Note_on_c, 3, 33, 64
4, 10289, Note_on_c, 3, 33, 0
4, 10290, Note_on_c, 3, 45, 64
4, 10319, Note_on_c, 3, 45, 0
4, 10320, Note_on_c, 3, 42, 64
4, 10349, Note_on_c, 3, 42, 0
4, 10350, Note_on_c, 3, 45, 64
4, 10379, Note_on_c, 3, 45, 0
4, 10380, Note_on_c, 3, 40, 64
4, 10409, Note_on_c, 3, 40, 0
4, 10410, Note_on_c, 3, 45, 64
4, 10439, Note_on_c, 3, 45, 0
4, 10440, Note_on_c, 3, 39, 64
4, 10469, Note_on_c, 3, 39, 0
4, 10470, Note_on_c, 3, 45, 64
4, 10499, Note_on_c, 3, 45, 0
4, 10500, Note_on_c, 3, 37, 64
4, 10529, Note_on_c, 3, 37, 0
4, 10530, Note_on_c, 3, 45, 64
4, 10559, Note_on_c, 3, 45, 0
4, 10560, Note_on_c, 3, 35, 64
4, 10589, Note_on_c, 3, 35, 0
4, 10590, Note_on_c, 3, 47, 64
4, 10619, Note_on_c, 3, 47, 0
4, 10620, Note_on_c, 3, 42, 64
4, 10649, Note_on_c, 3, 42, 0
4, 10650, Note_on_c, 3, 47, 64
4, 10679, Note_on_c, 3, 47, 0
4, 10680, Note_on_c, 3, 39, 64
4, 10709, Note_on_c, 3, 39, 0
4, 10710, Note_on_c, 3, 47, 64
4, 10739, Note_on_c, 3, 47, 0
4, 10740, Note_on_c, 3, 35, 64
4, 10769, Note_on_c, 3, 35, 0
4, 10770, Note_on_c, 3, 47, 64
4, 10799, Note_on_c, 3, 47, 0
4, 10800, Note_on_c, 3, 43, 64
4, 10829, Note_on_c, 3, 43, 0
4, 10830, Note_on_c, 3, 47, 64
4, 10859, Note_on_c, 3, 47, 0
4, 10860, Note_on_c, 3, 42, 64
4, 10889, Note_on_c, 3, 42, 0
4, 10890, Note_on_c, 3, 47, 64
4, 10919, Note_on_c, 3, 47, 0
4, 10920, Note_on_c, 3, 40, 64
4, 10949, Note_on_c, 3, 40, 0
4, 10950, Note_on_c, 3, 47, 64
4, 10979, Note_on_c, 3, 47, 0
4, 10980, Note_on_c, 3, 38, 64
4, 11009, Note_on_c, 3, 38, 0
4, 11010, Note_on_c, 3, 47, 64
4, 11039, Note_on_c, 3, 47, 0
4, 11040, Note_on_c, 3, 36, 64
4, 11069, Note_on_c, 3, 36, 0
4, 11070, Note_on_c, 3, 45, 64
4, 11099, Note_on_c, 3, 45, 0
4, 11100, Note_on_c, 3, 35, 64
4, 11129, Note_on_c, 3, 35, 0
4, 11130, Note_on_c, 3, 43, 64
4, 11159, Note_on_c, 3, 43, 0
4, 11160, Note_on_c, 3, 33, 64
4, 11189, Note_on_c, 3, 33, 0
4, 11190, Note_on_c, 3, 42, 64
4, 11219, Note_on_c, 3, 42, 0
4, 11220, Note_on_c, 3, 31, 64
4, 11249, Note_on_c, 3, 31, 0
4, 11250, Note_on_c, 3, 40, 64
4, 11279, Note_on_c, 3, 40, 0
4, 11280, Note_on_c, 3, 30, 64
4, 11339, Note_on_c, 3, 30, 0
4, 11520, Note_on_c, 3, 31, 64
4, 11639, Note_on_c, 3, 31, 0
4, 11640, Note_on_c, 3, 36, 64
4, 11759, Note_on_c, 3, 36, 0
4, 11760, Note_on_c, 3, 38, 64
4, 11999, Note_on_c, 3, 38, 0
4, 12000, Note_on_c, 3, 31, 64
4, 12119, Note_on_c, 3, 31, 0
4, 17280, Note_on_c, 3, 38, 64
4, 17399, Note_on_c, 3, 38, 0
4, 17400, Note_on_c, 3, 43, 64
4, 17579, Note_on_c, 3, 43, 0
4, 17580, Note_on_c, 3, 40, 64
4, 17639, Note_on_c, 3, 40, 0
4, 17640, Note_on_c, 3, 42, 64
4, 17819, Note_on_c, 3, 42, 0
4, 17820, Note_on_c, 3, 38, 64
4, 17879, Note_on_c, 3, 38, 0
4, 17880, Note_on_c, 3, 40, 64
4, 18059, Note_on_c, 3, 40, 0
4, 18060, Note_on_c, 3, 36, 64
4, 18119, Note_on_c, 3, 36, 0
4, 18120, Note_on_c, 3, 38, 64
4, 18359, Note_on_c, 3, 38, 0
4, 18360, Note_on_c, 3, 38, 64
4, 18374, Note_on_c, 3, 38, 0
4, 18375, Note_on_c, 3, 37, 64
4, 18389, Note_on_c, 3, 37, 0
4, 18390, Note_on_c, 3, 38, 64
4, 18404, Note_on_c, 3, 38, 0
4, 18405, Note_on_c, 3, 37, 64
4, 18419, Note_on_c, 3, 37, 0
4, 18420, Note_on_c, 3, 38, 64
4, 18434, Note_on_c, 3, 38, 0
4, 18435, Note_on_c, 3, 37, 64
4, 18479, Note_on_c, 3, 37, 0
4, 18480, Note_on_c, 3, 38, 64
4, 18719, Note_on_c, 3, 38, 0
4, 18720, Note_on_c, 3, 40, 64
4, 18959, Note_on_c, 3, 40, 0
4, 18960, Note_on_c, 3, 38, 64
4, 19199, Note_on_c, 3, 38, 0
4, 19200, Note_on_c, 3, 36, 64
4, 19439, Note_on_c, 3, 36, 0
4, 19440, Note_on_c, 3, 35, 64
4, 19919, Note_on_c, 3, 35, 0
4, 19920, Note_on_c, 3, 40, 64
4, 20039, Note_on_c, 3, 40, 0
4, 23040, Note_on_c, 3, 33, 64
4, 23159, Note_on_c, 3, 33, 0
4, 23160, Note_on_c, 3, 38, 64
4, 23339, Note_on_c, 3, 38, 0
4, 23340, Note_on_c, 3, 35, 64
4, 23399, Note_on_c, 3, 35, 0
4, 23400, Note_on_c, 3, 36, 64
4, 23579, Note_on_c, 3, 36, 0
4, 23580, Note_on_c, 3, 33, 64
4, 23639, Note_on_c, 3, 33, 0
4, 23640, Note_on_c, 3, 35, 64
4, 23819, Note_on_c, 3, 35, 0
4, 23820, Note_on_c, 3, 31, 64
4, 23879, Note_on_c, 3, 31, 0
4, 23880, Note_on_c, 3, 33, 64
4, 23999, Note_on_c, 3, 33, 0
4, 24000, Note_on_c, 3, 31, 64
4, 24479, Note_on_c, 3, 31, 0
4, 24480, Note_on_c, 3, 36, 64
4, 24599, Note_on_c, 3, 36, 0
4, 26400, Note_on_c, 3, 38, 64
4, 26519, Note_on_c, 3, 38, 0
4, 26520, Note_on_c, 3, 43, 64
4, 26699, Note_on_c, 3, 43, 0
4, 26700, Note_on_c, 3, 40, 64
4, 26759, Note_on_c, 3, 40, 0
4, 26760, Note_on_c, 3, 42, 64
4, 26939, Note_on_c, 3, 42, 0
4, 26940, Note_on_c, 3, 38, 64
4, 26999, Note_on_c, 3, 38, 0
4, 27000, Note_on_c, 3, 40, 64
4, 27179, Note_on_c, 3, 40, 0
4, 27180, Note_on_c, 3, 36, 64
4, 27239, Note_on_c, 3, 36, 0
4, 27240, Note_on_c, 3, 38, 64
4, 27419, Note_on_c, 3, 38, 0
4, 27420, Note_on_c, 3, 35, 64
4, 27479, Note_on_c, 3, 35, 0
4, 27480, Note_on_c, 3, 38, 64
4, 27494, Note_on_c, 3, 38, 0
4, 27495, Note_on_c, 3, 37, 64
4, 27509, Note_on_c, 3, 37, 0
4, 27510, Note_on_c, 3, 38, 64
4, 27524, Note_on_c, 3, 38, 0
4, 27525, Note_on_c, 3, 37, 64
4, 27539, Note_on_c, 3, 37, 0
4, 27540, Note_on_c, 3, 38, 64
4, 27554, Note_on_c, 3, 38, 0
4, 27555, Note_on_c, 3, 37, 64
4, 27599, Note_on_c, 3, 37, 0
4, 27600, Note_on_c, 3, 38, 64
4, 28319, Note_on_c, 3, 38, 0
4, 28320, Note_on_c, 3, 31, 64
4, 29879, Note_on_c, 3, 31, 0
4, 29879, End_track
0, 0, End_of_file
