0, 0, Header, 1, 4, 240
1, 0, Start_track
1, 0, Time_signature, 3, 2, 24, 8
1, 0, Tempo, 909091
1, 26316, Tempo, 983607
1, 26424, Tempo, 1071429
1, 26496, Tempo, 1176471
1, 26556, Tempo, 1304348
1, 26604, Tempo, 1621622
1, 26640, Tempo, 909091
1, 26640, End_track
2, 0, Start_track
2, 0, Text_t, "RH"
2, 420, Note_on_c, 0, 70, 64
2, 480, Note_off_c, 0, 70, 64
2, 480, Note_on_c, 0, 75, 68
2, 500, Note_off_c, 0, 75, 64
2, 500, Note_on_c, 0, 74, 48
2, 520, Note_off_c, 0, 74, 64
2, 520, Note_on_c, 0, 75, 48
2, 540, Note_off_c, 0, 75, 64
2, 540, Note_on_c, 0, 77, 68
2, 560, Note_off_c, 0, 77, 64
2, 560, Note_on_c, 0, 75, 58
2, 580, Note_off_c, 0, 75, 64
2, 580, Note_on_c, 0, 74, 60
2, 600, Note_off_c, 0, 74, 64
2, 600, Note_on_c, 0, 75, 62
2, 660, Note_off_c, 0, 75, 64
2, 660, Note_on_c, 0, 77, 64
2, 720, Note_off_c, 0, 77, 64
2, 720, Note_on_c, 0, 75, 80
2, 780, Note_off_c, 0, 75, 64
2, 780, Note_on_c, 0, 74, 64
2, 1130, Note_off_c, 0, 74, 64
2, 1140, Note_on_c, 0, 72, 64
2, 1200, Note_off_c, 0, 72, 64
2, 1200, Note_on_c, 0, 73, 64
2, 1380, Note_off_c, 0, 73, 64
2, 1380, Note_on_c, 0, 75, 64
2, 1440, Note_off_c, 0, 75, 64
2, 1440, Note_on_c, 0, 73, 64
2, 1500, Note_off_c, 0, 73, 64
2, 1500, Note_on_c, 0, 72, 64
2, 1850, Note_off_c, 0, 72, 64
2, 1860, Note_on_c, 0, 72, 64
2, 1920, Note_off_c, 0, 72, 64
2, 1920, Note_on_c, 0, 72, 64
2, 1960, Note_off_c, 0, 72, 64
2, 1960, Note_on_c, 0, 77, 64
2, 2100, Note_off_c, 0, 77, 64
2, 2100, Note_on_c, 0, 79, 64
2, 2160, Note_off_c, 0, 79, 64
2, 2160, Note_on_c, 0, 77, 64
2, 2220, Note_off_c, 0, 77, 64
2, 2220, Note_on_c, 0, 75, 64
2, 2570, Note_off_c, 0, 75, 64
2, 2580, Note_on_c, 0, 74, 64
2, 2640, Note_off_c, 0, 74, 64
2, 2640, Note_on_c, 0, 74, 64
2, 2680, Note_off_c, 0, 74, 64
2, 2680, Note_on_c, 0, 75, 64
2, 2700, Note_off_c, 0, 75, 64
2, 2700, Note_on_c, 0, 74, 48
2, 2720, Note_off_c, 0, 74, 64
2, 2720, Note_on_c, 0, 75, 64
2, 2820, Note_off_c, 0, 75, 64
2, 2820, Note_on_c, 0, 77, 64
2, 2880, Note_off_c, 0, 77, 64
2, 2880, Note_on_c, 0, 75, 64
2, 2940, Note_off_c, 0, 75, 64
2, 2940, Note_on_c, 0, 74, 64
2, 3290, Note_off_c, 0, 74, 64
2, 3300, Note_on_c, 0, 74, 64
2, 3360, Note_off_c, 0, 74, 64
2, 3360, Note_on_c, 0, 74, 64
2, 3400, Note_off_c, 0, 74, 64
2, 3400, Note_on_c, 0, 79, 64
2, 3420, Note_off_c, 0, 79, 64
2, 3420, Note_on_c, 0, 77, 48
2, 3440, Note_off_c, 0, 77, 64
2, 3440, Note_on_c, 0, 79, 64
2, 3540, Note_off_c, 0, 79, 64
2, 3540, Note_on_c, 0, 79, 64
2, 3600, Note_off_c, 0, 79, 64
2, 3600, Note_on_c, 0, 79, 64
2, 3660, Note_off_c, 0, 79, 64
2, 3660, Note_on_c, 0, 72, 64
2, 4010, Note_off_c, 0, 72, 64
2, 4020, Note_on_c, 0, 72, 64
2, 4080, Note_off_c, 0, 72, 64
2, 4080, Note_on_c, 0, 72, 64
2, 4080, Note_on_c, 0, 72, 64
2, 4120, Note_off_c, 0, 72, 64
2, 4120, Note_off_c, 0, 72, 64
2, 4120, Note_on_c, 0, 77, 64
2, 4260, Note_off_c, 0, 77, 64
2, 4260, Note_on_c, 0, 77, 64
2, 4320, Note_off_c, 0, 77, 64
2, 4320, Note_on_c, 0, 77, 64
2, 4380, Note_off_c, 0, 77, 64
2, 4380, Note_on_c, 0, 70, 64
2, 4560, Note_off_c, 0, 70, 64
2, 4560, Note_on_c, 0, 75, 64
2, 4580, Note_off_c, 0, 75, 64
2, 4580, Note_on_c, 0, 74, 48
2, 4600, Note_off_c, 0, 74, 64
2, 4600, Note_on_c, 0, 75, 64
2, 5280, Note_off_c, 0, 75, 64
2, 5280, Note_on_c, 0, 74, 64
2, 5760, Note_off_c, 0, 74, 64
2, 5760, Note_on_c, 0, 74, 64
2, 5820, Note_off_c, 0, 74, 64
2, 5820, Note_on_c, 0, 75, 64
2, 6120, Note_off_c, 0, 75, 64
2, 6900, Note_on_c, 0, 80, 64
2, 6960, Note_off_c, 0, 80, 64
2, 6960, Note_on_c, 0, 77, 68
2, 6980, Note_off_c, 0, 77, 64
2, 6980, Note_on_c, 0, 72, 48
2, 7000, Note_off_c, 0, 72, 64
2, 7000, Note_on_c, 0, 74, 54
2, 7020, Note_off_c, 0, 74, 64
2, 7020, Note_on_c, 0, 72, 61
2, 7040, Note_off_c, 0, 72, 64
2, 7040, Note_on_c, 0, 74, 64
2, 7140, Note_off_c, 0, 74, 64
2, 7140, Note_on_c, 0, 74, 64
2, 7200, Note_off_c, 0, 74, 64
2, 7200, Note_on_c, 0, 75, 68
2, 7220, Note_off_c, 0, 75, 64
2, 7220, Note_on_c, 0, 74, 48
2, 7240, Note_off_c, 0, 74, 64
2, 7240, Note_on_c, 0, 72, 50
2, 7260, Note_off_c, 0, 72, 64
2, 7260, Note_on_c, 0, 74, 64
2, 7610, Note_off_c, 0, 74, 64
2, 7620, Note_on_c, 0, 75, 64
2, 7680, Note_off_c, 0, 75, 64
2, 7680, Note_on_c, 0, 75, 64
2, 7740, Note_off_c, 0, 75, 64
2, 7740, Note_on_c, 0, 77, 64
2, 8090, Note_off_c, 0, 77, 64
2, 8100, Note_on_c, 0, 75, 64
2, 8160, Note_off_c, 0, 75, 64
2, 8160, Note_on_c, 0, 75, 64
2, 8300, Note_off_c, 0, 75, 64
2, 8300, Note_on_c, 0, 77, 68
2, 8320, Note_off_c, 0, 77, 64
2, 8320, Note_on_c, 0, 75, 48
2, 8340, Note_off_c, 0, 75, 64
2, 8340, Note_on_c, 0, 74, 49
2, 8360, Note_off_c, 0, 74, 64
2, 8360, Note_on_c, 0, 72, 51
2, 8380, Note_off_c, 0, 72, 64
2, 8380, Note_on_c, 0, 74, 52
2, 8400, Note_off_c, 0, 74, 64
2, 8400, Note_on_c, 0, 75, 53
2, 8420, Note_off_c, 0, 75, 64
2, 8420, Note_on_c, 0, 74, 55
2, 8440, Note_off_c, 0, 74, 64
2, 8440, Note_on_c, 0, 72, 56
2, 8460, Note_off_c, 0, 72, 64
2, 8460, Note_on_c, 0, 74, 58
2, 8480, Note_off_c, 0, 74, 64
2, 8480, Note_on_c, 0, 75, 59
2, 8500, Note_off_c, 0, 75, 64
2, 8500, Note_on_c, 0, 74, 60
2, 8520, Note_off_c, 0, 74, 64
2, 8520, Note_on_c, 0, 75, 62
2, 8540, Note_off_c, 0, 75, 64
2, 8540, Note_on_c, 0, 74, 63
2, 8580, Note_off_c, 0, 74, 64
2, 8580, Note_on_c, 0, 72, 64
2, 8640, Note_off_c, 0, 72, 64
2, 8640, Note_on_c, 0, 72, 64
2, 8660, Note_off_c, 0, 72, 64
2, 8660, Note_on_c, 0, 71, 48
2, 8680, Note_off_c, 0, 71, 64
2, 8680, Note_on_c, 0, 72, 64
2, 9120, Note_off_c, 0, 72, 64
2, 9780, Note_on_c, 0, 72, 64
2, 9840, Note_off_c, 0, 72, 64
2, 9840, Note_on_c, 0, 77, 68
2, 9860, Note_off_c, 0, 77, 64
2, 9860, Note_on_c, 0, 75, 48
2, 9880, Note_off_c, 0, 75, 64
2, 9880, Note_on_c, 0, 77, 48
2, 9900, Note_off_c, 0, 77, 64
2, 9900, Note_on_c, 0, 79, 68
2, 9920, Note_off_c, 0, 79, 64
2, 9920, Note_on_c, 0, 77, 58
2, 9940, Note_off_c, 0, 77, 64
2, 9940, Note_on_c, 0, 75, 60
2, 9960, Note_off_c, 0, 75, 64
2, 9960, Note_on_c, 0, 77, 62
2, 10020, Note_off_c, 0, 77, 64
2, 10020, Note_on_c, 0, 79, 64
2, 10080, Note_off_c, 0, 79, 64
2, 10080, Note_on_c, 0, 75, 64
2, 10140, Note_off_c, 0, 75, 64
2, 10140, Note_on_c, 0, 74, 64
2, 10490, Note_off_c, 0, 74, 64
2, 10500, Note_on_c, 0, 75, 64
2, 10560, Note_off_c, 0, 75, 64
2, 10560, Note_on_c, 0, 75, 64
2, 10600, Note_off_c, 0, 75, 64
2, 10600, Note_on_c, 0, 77, 64
2, 10740, Note_off_c, 0, 77, 64
2, 10740, Note_on_c, 0, 79, 64
2, 10800, Note_off_c, 0, 79, 64
2, 10800, Note_on_c, 0, 77, 64
2, 10860, Note_off_c, 0, 77, 64
2, 10860, Note_on_c, 0, 75, 64
2, 10980, Note_off_c, 0, 75, 64
2, 10980, Note_on_c, 0, 74, 64
2, 11040, Note_off_c, 0, 74, 64
2, 11040, Note_on_c, 0, 74, 64
2, 11160, Note_off_c, 0, 74, 64
2, 11160, Note_on_c, 0, 72, 68
2, 11180, Note_on_c, 0, 70, 48
2, 11182, Note_off_c, 0, 72, 64
2, 11200, Note_on_c, 0, 69, 49
2, 11202, Note_off_c, 0, 70, 64
2, 11220, Note_on_c, 0, 70, 50
2, 11222, Note_off_c, 0, 69, 64
2, 11240, Note_on_c, 0, 75, 52
2, 11242, Note_off_c, 0, 70, 64
2, 11260, Note_on_c, 0, 72, 53
2, 11262, Note_off_c, 0, 75, 64
2, 11280, Note_on_c, 0, 74, 54
2, 11282, Note_off_c, 0, 72, 64
2, 11300, Note_on_c, 0, 72, 55
2, 11302, Note_off_c, 0, 74, 64
2, 11320, Note_on_c, 0, 70, 57
2, 11322, Note_off_c, 0, 72, 64
2, 11340, Note_on_c, 0, 72, 58
2, 11342, Note_off_c, 0, 70, 64
2, 11360, Note_on_c, 0, 74, 59
2, 11362, Note_off_c, 0, 72, 64
2, 11380, Note_on_c, 0, 72, 60
2, 11382, Note_off_c, 0, 74, 64
2, 11400, Note_on_c, 0, 74, 62
2, 11402, Note_off_c, 0, 72, 64
2, 11420, Note_on_c, 0, 72, 63
2, 11422, Note_off_c, 0, 74, 64
2, 11460, Note_off_c, 0, 72, 64
2, 11460, Note_on_c, 0, 70, 64
2, 11520, Note_off_c, 0, 70, 64
2, 11520, Note_on_c, 0, 70, 64
2, 11540, Note_off_c, 0, 70, 64
2, 11540, Note_on_c, 0, 69, 48
2, 11560, Note_off_c, 0, 69, 64
2, 11560, Note_on_c, 0, 70, 64
2, 11940, Note_on_c, 0, 82, 64
2, 12000, Note_off_c, 0, 82, 64
2, 12000, Note_off_c, 0, 70, 64
2, 12000, Note_on_c, 0, 82, 73
2, 12020, Note_off_c, 0, 82, 64
2, 12020, Note_on_c, 0, 80, 52
2, 12040, Note_off_c, 0, 80, 64
2, 12040, Note_on_c, 0, 79, 57
2, 12060, Note_off_c, 0, 79, 64
2, 12060, Note_on_c, 0, 80, 62
2, 12180, Note_off_c, 0, 80, 64
2, 12180, Note_on_c, 0, 82, 64
2, 12240, Note_off_c, 0, 82, 64
2, 12240, Note_on_c, 0, 80, 64
2, 12300, Note_off_c, 0, 80, 64
2, 12300, Note_on_c, 0, 79, 64
2, 12650, Note_off_c, 0, 79, 64
2, 12660, Note_on_c, 0, 80, 64
2, 12720, Note_off_c, 0, 80, 64
2, 12720, Note_on_c, 0, 82, 64
2, 13130, Note_off_c, 0, 82, 64
2, 13140, Note_on_c, 0, 79, 64
2, 13200, Note_off_c, 0, 79, 64
2, 13200, Note_on_c, 0, 77, 68
2, 13220, Note_off_c, 0, 77, 64
2, 13220, Note_on_c, 0, 76, 50
2, 13240, Note_off_c, 0, 76, 64
2, 13240, Note_on_c, 0, 77, 56
2, 13260, Note_off_c, 0, 77, 64
2, 13260, Note_on_c, 0, 76, 61
2, 13380, Note_off_c, 0, 76, 64
2, 13380, Note_on_c, 0, 77, 64
2, 13440, Note_off_c, 0, 77, 64
2, 13440, Note_on_c, 0, 79, 64
2, 13850, Note_off_c, 0, 79, 64
2, 13860, Note_on_c, 0, 77, 64
2, 13920, Note_off_c, 0, 77, 64
2, 13920, Note_on_c, 0, 75, 64
2, 13980, Note_off_c, 0, 75, 64
2, 13980, Note_on_c, 0, 73, 64
2, 14100, Note_off_c, 0, 73, 64
2, 14100, Note_on_c, 0, 72, 64
2, 14160, Note_off_c, 0, 72, 64
2, 14160, Note_on_c, 0, 72, 64
2, 14200, Note_off_c, 0, 72, 64
2, 14200, Note_on_c, 0, 77, 64
2, 14340, Note_off_c, 0, 77, 64
2, 14340, Note_on_c, 0, 79, 64
2, 14400, Note_off_c, 0, 79, 64
2, 14400, Note_on_c, 0, 77, 64
2, 14460, Note_off_c, 0, 77, 64
2, 14460, Note_on_c, 0, 76, 64
2, 14810, Note_off_c, 0, 76, 64
2, 14820, Note_on_c, 0, 76, 64
2, 14880, Note_off_c, 0, 76, 64
2, 14890, Note_on_c, 0, 80, 64
2, 15060, Note_off_c, 0, 80, 64
2, 15060, Note_on_c, 0, 80, 64
2, 15120, Note_off_c, 0, 80, 64
2, 15120, Note_on_c, 0, 80, 64
2, 15360, Note_off_c, 0, 80, 64
2, 15360, Note_on_c, 0, 80, 70
2, 15380, Note_off_c, 0, 80, 64
2, 15380, Note_on_c, 0, 79, 49
2, 15400, Note_off_c, 0, 79, 64
2, 15400, Note_on_c, 0, 80, 53
2, 15420, Note_off_c, 0, 80, 64
2, 15420, Note_on_c, 0, 79, 56
2, 15440, Note_off_c, 0, 79, 64
2, 15440, Note_on_c, 0, 80, 59
2, 15460, Note_off_c, 0, 80, 64
2, 15460, Note_on_c, 0, 79, 62
2, 15530, Note_off_c, 0, 79, 64
2, 15540, Note_on_c, 0, 77, 68
2, 15560, Note_off_c, 0, 77, 64
2, 15560, Note_on_c, 0, 76, 50
2, 15580, Note_off_c, 0, 76, 64
2, 15580, Note_on_c, 0, 77, 57
2, 15600, Note_off_c, 0, 77, 64
2, 15600, Note_on_c, 0, 77, 67
2, 15630, Note_off_c, 0, 77, 64
2, 15640, Note_on_c, 0, 82, 64
2, 15780, Note_off_c, 0, 82, 64
2, 15780, Note_on_c, 0, 82, 64
2, 15840, Note_off_c, 0, 82, 64
2, 15840, Note_on_c, 0, 82, 64
2, 16080, Note_off_c, 0, 82, 64
2, 16080, Note_on_c, 0, 77, 68
2, 16100, Note_off_c, 0, 77, 64
2, 16100, Note_on_c, 0, 76, 48
2, 16120, Note_off_c, 0, 76, 64
2, 16120, Note_on_c, 0, 74, 50
2, 16140, Note_off_c, 0, 74, 64
2, 16140, Note_on_c, 0, 76, 53
2, 16160, Note_off_c, 0, 76, 64
2, 16160, Note_on_c, 0, 77, 55
2, 16180, Note_off_c, 0, 77, 64
2, 16180, Note_on_c, 0, 76, 58
2, 16200, Note_off_c, 0, 76, 64
2, 16200, Note_on_c, 0, 77, 60
2, 16220, Note_off_c, 0, 77, 64
2, 16220, Note_on_c, 0, 76, 63
2, 16260, Note_off_c, 0, 76, 64
2, 16260, Note_on_c, 0, 76, 64
2, 16320, Note_off_c, 0, 76, 64
2, 16320, Note_on_c, 0, 76, 64
2, 16360, Note_off_c, 0, 76, 64
2, 16360, Note_on_c, 0, 77, 64
2, 16500, Note_off_c, 0, 77, 64
2, 16500, Note_on_c, 0, 76, 64
2, 16560, Note_off_c, 0, 76, 64
2, 16560, Note_on_c, 0, 76, 64
2, 16600, Note_off_c, 0, 76, 64
2, 16600, Note_on_c, 0, 77, 64
2, 16740, Note_off_c, 0, 77, 64
2, 16740, Note_on_c, 0, 79, 64
2, 16800, Note_off_c, 0, 79, 64
2, 16800, Note_on_c, 0, 77, 64
2, 17040, Note_off_c, 0, 77, 64
2, 17040, Note_on_c, 0, 77, 68
2, 17060, Note_off_c, 0, 77, 64
2, 17060, Note_on_c, 0, 76, 48
2, 17080, Note_off_c, 0, 76, 64
2, 17080, Note_on_c, 0, 74, 51
2, 17100, Note_off_c, 0, 74, 64
2, 17100, Note_on_c, 0, 76, 54
2, 17120, Note_off_c, 0, 76, 64
2, 17120, Note_on_c, 0, 77, 57
2, 17140, Note_off_c, 0, 77, 64
2, 17140, Note_on_c, 0, 76, 61
2, 17220, Note_off_c, 0, 76, 64
2, 17220, Note_on_c, 0, 77, 64
2, 17280, Note_off_c, 0, 77, 64
2, 17280, Note_on_c, 0, 77, 64
2, 17520, Note_off_c, 0, 77, 64
2, 18420, Note_on_c, 0, 77, 64
2, 18480, Note_off_c, 0, 77, 64
2, 18480, Note_on_c, 0, 82, 64
2, 18660, Note_off_c, 0, 82, 64
2, 18660, Note_on_c, 0, 80, 68
2, 18680, Note_off_c, 0, 80, 64
2, 18680, Note_on_c, 0, 79, 52
2, 18700, Note_off_c, 0, 79, 64
2, 18700, Note_on_c, 0, 77, 59
2, 18720, Note_off_c, 0, 77, 64
2, 18720, Note_on_c, 0, 77, 64
2, 18780, Note_off_c, 0, 77, 64
2, 18780, Note_on_c, 0, 79, 64
2, 19130, Note_off_c, 0, 79, 64
2, 19140, Note_on_c, 0, 80, 64
2, 19200, Note_off_c, 0, 80, 64
2, 19200, Note_on_c, 0, 75, 64
2, 19260, Note_off_c, 0, 75, 64
2, 19260, Note_on_c, 0, 73, 64
2, 19440, Note_on_c, 0, 73, 64
2, 19610, Note_off_c, 0, 73, 64
2, 19620, Note_on_c, 0, 72, 64
2, 19680, Note_off_c, 0, 72, 64
2, 19680, Note_on_c, 0, 72, 64
2, 19920, Note_off_c, 0, 72, 64
2, 19920, Note_on_c, 0, 72, 70
2, 19940, Note_off_c, 0, 72, 64
2, 19940, Note_on_c, 0, 70, 48
2, 19960, Note_off_c, 0, 70, 64
2, 19960, Note_on_c, 0, 68, 50
2, 19980, Note_off_c, 0, 68, 64
2, 19980, Note_on_c, 0, 70, 53
2, 20000, Note_off_c, 0, 70, 64
2, 20000, Note_on_c, 0, 72, 55
2, 20020, Note_off_c, 0, 72, 64
2, 20020, Note_on_c, 0, 70, 57
2, 20040, Note_off_c, 0, 70, 64
2, 20040, Note_on_c, 0, 72, 59
2, 20060, Note_off_c, 0, 72, 64
2, 20060, Note_on_c, 0, 70, 62
2, 20100, Note_off_c, 0, 70, 64
2, 20100, Note_on_c, 0, 68, 64
2, 20150, Note_off_c, 0, 68, 64
2, 20160, Note_on_c, 0, 68, 70
2, 20180, Note_off_c, 0, 68, 64
2, 20180, Note_on_c, 0, 67, 48
2, 20200, Note_off_c, 0, 67, 64
2, 20200, Note_on_c, 0, 68, 64
2, 20570, Note_off_c, 0, 68, 64
2, 20580, Note_on_c, 0, 63, 64
2, 20640, Note_off_c, 0, 63, 64
2, 20640, Note_on_c, 0, 68, 68
2, 20660, Note_off_c, 0, 68, 64
2, 20660, Note_on_c, 0, 67, 48
2, 20680, Note_off_c, 0, 67, 64
2, 20680, Note_on_c, 0, 68, 48
2, 20700, Note_off_c, 0, 68, 64
2, 20700, Note_on_c, 0, 70, 68
2, 20720, Note_off_c, 0, 70, 64
2, 20720, Note_on_c, 0, 68, 58
2, 20740, Note_off_c, 0, 68, 64
2, 20740, Note_on_c, 0, 67, 60
2, 20760, Note_off_c, 0, 67, 64
2, 20760, Note_on_c, 0, 68, 62
2, 20820, Note_off_c, 0, 68, 64
2, 20820, Note_on_c, 0, 70, 64
2, 20880, Note_off_c, 0, 70, 64
2, 20880, Note_on_c, 0, 68, 64
2, 20940, Note_off_c, 0, 68, 64
2, 20940, Note_on_c, 0, 67, 64
2, 21290, Note_off_c, 0, 67, 64
2, 21300, Note_on_c, 0, 65, 64
2, 21360, Note_off_c, 0, 65, 64
2, 21360, Note_on_c, 0, 67, 64
2, 21540, Note_off_c, 0, 67, 64
2, 21540, Note_on_c, 0, 68, 64
2, 21600, Note_off_c, 0, 68, 64
2, 21600, Note_on_c, 0, 70, 64
2, 22010, Note_off_c, 0, 70, 64
2, 22020, Note_on_c, 0, 65, 64
2, 22080, Note_off_c, 0, 65, 64
2, 22080, Note_on_c, 0, 65, 64
2, 22120, Note_off_c, 0, 65, 64
2, 22120, Note_on_c, 0, 70, 64
2, 22260, Note_off_c, 0, 70, 64
2, 22260, Note_on_c, 0, 72, 64
2, 22320, Note_off_c, 0, 72, 64
2, 22320, Note_on_c, 0, 70, 64
2, 22380, Note_off_c, 0, 70, 64
2, 22380, Note_on_c, 0, 68, 64
2, 22730, Note_off_c, 0, 68, 64
2, 22740, Note_on_c, 0, 67, 64
2, 22800, Note_off_c, 0, 67, 64
2, 22800, Note_on_c, 0, 67, 64
2, 22840, Note_off_c, 0, 67, 64
2, 22840, Note_on_c, 0, 68, 64
2, 22980, Note_off_c, 0, 68, 64
2, 22980, Note_on_c, 0, 70, 64
2, 23040, Note_off_c, 0, 70, 64
2, 23040, Note_on_c, 0, 68, 64
2, 23100, Note_off_c, 0, 68, 64
2, 23100, Note_on_c, 0, 67, 64
2, 23450, Note_off_c, 0, 67, 64
2, 23460, Note_on_c, 0, 67, 64
2, 23520, Note_off_c, 0, 67, 64
2, 23520, Note_on_c, 0, 72, 64
2, 23700, Note_off_c, 0, 72, 64
2, 23700, Note_on_c, 0, 72, 64
2, 23760, Note_off_c, 0, 72, 64
2, 23760, Note_on_c, 0, 72, 64
2, 24000, Note_off_c, 0, 72, 64
2, 24000, Note_on_c, 0, 72, 68
2, 24020, Note_off_c, 0, 72, 64
2, 24020, Note_on_c, 0, 70, 51
2, 24040, Note_off_c, 0, 70, 64
2, 24040, Note_on_c, 0, 68, 54
2, 24060, Note_off_c, 0, 68, 64
2, 24060, Note_on_c, 0, 70, 58
2, 24720, Note_off_c, 0, 70, 64
2, 24720, Note_on_c, 0, 70, 68
2, 24740, Note_off_c, 0, 70, 64
2, 24740, Note_on_c, 0, 68, 49
2, 24760, Note_off_c, 0, 68, 64
2, 24760, Note_on_c, 0, 67, 54
2, 24780, Note_off_c, 0, 67, 64
2, 24780, Note_on_c, 0, 68, 59
2, 25610, Note_off_c, 0, 68, 64
2, 25620, Note_on_c, 0, 67, 64
2, 25640, Note_off_c, 0, 67, 64
2, 25640, Note_on_c, 0, 68, 48
2, 25660, Note_off_c, 0, 68, 64
2, 25660, Note_on_c, 0, 70, 56
2, 25680, Note_off_c, 0, 70, 64
2, 25680, Note_on_c, 0, 72, 64
2, 25700, Note_off_c, 0, 72, 64
2, 25700, Note_on_c, 0, 70, 40
2, 25720, Note_off_c, 0, 70, 64
2, 25720, Note_on_c, 0, 72, 64
2, 25860, Note_off_c, 0, 72, 64
2, 25860, Note_on_c, 0, 72, 64
2, 25920, Note_off_c, 0, 72, 64
2, 25920, Note_on_c, 0, 72, 64
2, 25980, Note_off_c, 0, 72, 64
2, 25980, Note_on_c, 0, 65, 64
2, 26330, Note_off_c, 0, 65, 64
2, 26340, Note_on_c, 0, 65, 64
2, 26400, Note_off_c, 0, 65, 64
2, 26400, Note_on_c, 0, 70, 68
2, 26420, Note_off_c, 0, 70, 64
2, 26420, Note_on_c, 0, 68, 48
2, 26440, Note_off_c, 0, 68, 64
2, 26440, Note_on_c, 0, 70, 48
2, 26460, Note_off_c, 0, 70, 64
2, 26460, Note_on_c, 0, 72, 68
2, 26480, Note_off_c, 0, 72, 64
2, 26480, Note_on_c, 0, 70, 58
2, 26500, Note_off_c, 0, 70, 64
2, 26500, Note_on_c, 0, 68, 60
2, 26520, Note_off_c, 0, 68, 64
2, 26520, Note_on_c, 0, 70, 62
2, 26580, Note_off_c, 0, 70, 64
2, 26580, Note_on_c, 0, 72, 64
2, 26640, Note_off_c, 0, 72, 64
2, 26640, Note_on_c, 0, 67, 64
2, 27600, Note_off_c, 0, 67, 64
2, 27600, End_track
3, 0, Start_track
3, 0, Text_t, "RH/LH"
3, 1140, Note_on_c, 0, 65, 64
3, 1200, Note_off_c, 0, 65, 64
3, 1200, Note_on_c, 0, 70, 68
3, 1220, Note_off_c, 0, 70, 64
3, 1220, Note_on_c, 0, 69, 48
3, 1240, Note_off_c, 0, 69, 64
3, 1240, Note_on_c, 0, 70, 48
3, 1260, Note_off_c, 0, 70, 64
3, 1260, Note_on_c, 0, 72, 68
3, 1280, Note_off_c, 0, 72, 64
3, 1280, Note_on_c, 0, 70, 58
3, 1300, Note_off_c, 0, 70, 64
3, 1300, Note_on_c, 0, 69, 60
3, 1320, Note_off_c, 0, 69, 64
3, 1320, Note_on_c, 0, 70, 62
3, 1380, Note_off_c, 0, 70, 64
3, 1380, Note_on_c, 0, 72, 64
3, 1440, Note_off_c, 0, 72, 64
3, 1440, Note_on_c, 0, 70, 64
3, 1500, Note_off_c, 0, 70, 64
3, 1500, Note_on_c, 0, 68, 64
3, 1850, Note_off_c, 0, 68, 64
3, 1860, Note_on_c, 0, 67, 64
3, 1920, Note_off_c, 0, 67, 64
3, 1920, Note_on_c, 0, 67, 64
3, 1960, Note_off_c, 0, 67, 64
3, 1960, Note_on_c, 0, 68, 64
3, 2100, Note_off_c, 0, 68, 64
3, 2100, Note_on_c, 0, 70, 64
3, 2160, Note_off_c, 0, 70, 64
3, 2160, Note_on_c, 0, 68, 64
3, 2220, Note_off_c, 0, 68, 64
3, 2220, Note_on_c, 0, 67, 64
3, 2570, Note_off_c, 0, 67, 64
3, 2580, Note_on_c, 0, 67, 64
3, 2640, Note_off_c, 0, 67, 64
3, 2640, Note_on_c, 0, 72, 64
3, 2820, Note_off_c, 0, 72, 64
3, 2820, Note_on_c, 0, 74, 64
3, 2880, Note_off_c, 0, 74, 64
3, 2880, Note_on_c, 0, 72, 64
3, 2940, Note_off_c, 0, 72, 64
3, 2940, Note_on_c, 0, 70, 64
3, 3830, Note_off_c, 0, 70, 64
3, 3840, Note_on_c, 0, 70, 68
3, 3860, Note_off_c, 0, 70, 64
3, 3860, Note_on_c, 0, 68, 48
3, 3880, Note_off_c, 0, 68, 64
3, 3880, Note_on_c, 0, 67, 56
3, 3900, Note_off_c, 0, 67, 64
3, 3900, Note_on_c, 0, 68, 64
3, 4730, Note_off_c, 0, 68, 64
3, 4740, Note_on_c, 0, 67, 64
3, 4800, Note_off_c, 0, 67, 64
3, 4800, Note_on_c, 0, 67, 64
3, 4840, Note_off_c, 0, 67, 64
3, 4840, Note_on_c, 0, 72, 64
3, 4980, Note_off_c, 0, 72, 64
3, 4980, Note_on_c, 0, 72, 64
3, 5040, Note_off_c, 0, 72, 64
3, 5040, Note_on_c, 0, 72, 64
3, 5100, Note_off_c, 0, 72, 64
3, 5100, Note_on_c, 0, 65, 64
3, 5450, Note_off_c, 0, 65, 64
3, 5460, Note_on_c, 0, 65, 64
3, 5520, Note_off_c, 0, 65, 64
3, 5520, Note_on_c, 0, 70, 68
3, 5540, Note_off_c, 0, 70, 64
3, 5540, Note_on_c, 0, 69, 48
3, 5560, Note_off_c, 0, 69, 64
3, 5560, Note_on_c, 0, 70, 48
3, 5580, Note_off_c, 0, 70, 64
3, 5580, Note_on_c, 0, 72, 68
3, 5600, Note_off_c, 0, 72, 64
3, 5600, Note_on_c, 0, 70, 58
3, 5620, Note_off_c, 0, 70, 64
3, 5620, Note_on_c, 0, 69, 60
3, 5640, Note_off_c, 0, 69, 64
3, 5640, Note_on_c, 0, 70, 62
3, 5700, Note_off_c, 0, 70, 64
3, 5700, Note_on_c, 0, 72, 64
3, 5760, Note_off_c, 0, 72, 64
3, 5760, Note_on_c, 0, 68, 64
3, 5820, Note_off_c, 0, 68, 64
3, 5820, Note_on_c, 0, 67, 64
3, 6170, Note_off_c, 0, 67, 64
3, 6180, Note_on_c, 0, 79, 70
3, 6200, Note_off_c, 0, 79, 64
3, 6200, Note_on_c, 0, 75, 53
3, 6220, Note_off_c, 0, 75, 64
3, 6220, Note_on_c, 0, 71, 50
3, 6240, Note_off_c, 0, 71, 64
3, 6240, Note_on_c, 0, 72, 54
3, 6260, Note_off_c, 0, 72, 64
3, 6260, Note_on_c, 0, 71, 58
3, 6280, Note_off_c, 0, 71, 64
3, 6280, Note_on_c, 0, 72, 61
3, 6420, Note_off_c, 0, 72, 64
3, 6420, Note_on_c, 0, 72, 64
3, 6480, Note_off_c, 0, 72, 64
3, 6480, Note_on_c, 0, 74, 68
3, 6500, Note_off_c, 0, 74, 64
3, 6500, Note_on_c, 0, 72, 50
3, 6520, Note_off_c, 0, 72, 64
3, 6520, Note_on_c, 0, 70, 58
3, 6540, Note_off_c, 0, 70, 64
3, 6540, Note_on_c, 0, 72, 64
3, 7240, Note_off_c, 0, 72, 64
3, 7240, Note_on_c, 0, 72, 32
3, 7440, Note_off_c, 0, 72, 64
3, 7440, Note_on_c, 0, 72, 64
3, 7480, Note_off_c, 0, 72, 64
3, 7480, Note_on_c, 0, 71, 64
3, 7620, Note_off_c, 0, 71, 64
3, 7620, Note_on_c, 0, 72, 64
3, 7680, Note_off_c, 0, 72, 64
3, 7680, Note_on_c, 0, 72, 64
3, 7740, Note_off_c, 0, 72, 64
3, 7740, Note_on_c, 0, 74, 64
3, 8090, Note_off_c, 0, 74, 64
3, 8100, Note_on_c, 0, 72, 64
3, 8160, Note_off_c, 0, 72, 64
3, 8160, Note_on_c, 0, 72, 64
3, 8400, Note_off_c, 0, 72, 64
3, 8400, Note_on_c, 0, 71, 64
3, 8640, Note_off_c, 0, 71, 64
3, 9060, Note_on_c, 0, 67, 64
3, 9120, Note_off_c, 0, 67, 64
3, 9120, Note_on_c, 0, 72, 68
3, 9140, Note_off_c, 0, 72, 64
3, 9140, Note_on_c, 0, 70, 48
3, 9160, Note_off_c, 0, 70, 64
3, 9160, Note_on_c, 0, 72, 48
3, 9180, Note_off_c, 0, 72, 64
3, 9180, Note_on_c, 0, 74, 68
3, 9200, Note_off_c, 0, 74, 64
3, 9200, Note_on_c, 0, 72, 58
3, 9220, Note_off_c, 0, 72, 64
3, 9220, Note_on_c, 0, 70, 60
3, 9240, Note_off_c, 0, 70, 64
3, 9240, Note_on_c, 0, 72, 62
3, 9300, Note_off_c, 0, 72, 64
3, 9300, Note_on_c, 0, 74, 64
3, 9360, Note_off_c, 0, 74, 64
3, 9360, Note_on_c, 0, 71, 64
3, 9420, Note_off_c, 0, 71, 64
3, 9420, Note_on_c, 0, 69, 64
3, 9770, Note_off_c, 0, 69, 64
3, 9780, Note_on_c, 0, 69, 64
3, 9840, Note_off_c, 0, 69, 64
3, 9840, Note_on_c, 0, 70, 64
3, 10320, Note_off_c, 0, 70, 64
3, 10320, Note_on_c, 0, 70, 64
3, 10500, Note_off_c, 0, 70, 64
3, 10500, Note_on_c, 0, 72, 64
3, 10560, Note_off_c, 0, 72, 64
3, 10560, Note_on_c, 0, 72, 64
3, 10600, Note_off_c, 0, 72, 64
3, 10600, Note_on_c, 0, 74, 64
3, 10740, Note_off_c, 0, 74, 64
3, 10740, Note_on_c, 0, 75, 64
3, 10800, Note_off_c, 0, 75, 64
3, 10804, Note_on_c, 0, 74, 64
3, 10860, Note_on_c, 0, 72, 64
3, 10864, Note_off_c, 0, 74, 64
3, 10980, Note_off_c, 0, 72, 64
3, 10980, Note_on_c, 0, 70, 64
3, 11040, Note_off_c, 0, 70, 64
3, 11040, Note_on_c, 0, 70, 64
3, 11160, Note_off_c, 0, 70, 64
3, 11280, Note_on_c, 0, 69, 64
3, 11520, Note_off_c, 0, 69, 64
3, 12660, Note_on_c, 0, 75, 64
3, 12720, Note_off_c, 0, 75, 64
3, 12720, Note_on_c, 0, 75, 70
3, 12740, Note_off_c, 0, 75, 64
3, 12740, Note_on_c, 0, 73, 40
3, 12760, Note_off_c, 0, 73, 64
3, 12760, Note_on_c, 0, 72, 49
3, 12780, Note_off_c, 0, 72, 64
3, 12780, Note_on_c, 0, 73, 51
3, 12800, Note_off_c, 0, 73, 64
3, 12800, Note_on_c, 0, 75, 54
3, 12820, Note_off_c, 0, 75, 64
3, 12820, Note_on_c, 0, 73, 56
3, 12840, Note_off_c, 0, 73, 64
3, 12840, Note_on_c, 0, 75, 59
3, 12860, Note_off_c, 0, 75, 64
3, 12860, Note_on_c, 0, 73, 61
3, 12900, Note_off_c, 0, 73, 64
3, 12900, Note_on_c, 0, 75, 64
3, 12960, Note_off_c, 0, 75, 64
3, 12960, Note_on_c, 0, 73, 64
3, 13020, Note_off_c, 0, 73, 64
3, 13020, Note_on_c, 0, 72, 64
3, 13370, Note_off_c, 0, 72, 64
3, 13380, Note_on_c, 0, 73, 64
3, 13440, Note_off_c, 0, 73, 64
3, 13440, Note_on_c, 0, 72, 64
3, 13480, Note_off_c, 0, 72, 64
3, 13480, Note_on_c, 0, 70, 64
3, 13620, Note_off_c, 0, 70, 64
3, 13620, Note_on_c, 0, 72, 64
3, 13680, Note_off_c, 0, 72, 64
3, 13680, Note_on_c, 0, 70, 64
3, 13740, Note_off_c, 0, 70, 64
3, 13740, Note_on_c, 0, 68, 64
3, 14090, Note_off_c, 0, 68, 64
3, 14100, Note_on_c, 0, 67, 64
3, 14160, Note_off_c, 0, 67, 64
3, 14160, Note_on_c, 0, 67, 64
3, 14200, Note_off_c, 0, 67, 64
3, 14200, Note_on_c, 0, 68, 64
3, 14340, Note_off_c, 0, 68, 64
3, 14340, Note_on_c, 0, 70, 64
3, 14400, Note_off_c, 0, 70, 64
3, 14400, Note_on_c, 0, 72, 64
3, 14810, Note_off_c, 0, 72, 64
3, 14820, Note_on_c, 0, 72, 64
3, 14880, Note_off_c, 0, 72, 64
3, 14880, Note_on_c, 0, 77, 64
3, 14900, Note_off_c, 0, 77, 64
3, 14900, Note_on_c, 0, 76, 50
3, 14920, Note_off_c, 0, 76, 64
3, 14920, Note_on_c, 0, 77, 64
3, 15060, Note_off_c, 0, 77, 64
3, 15060, Note_on_c, 0, 75, 64
3, 15120, Note_off_c, 0, 75, 64
3, 15120, Note_on_c, 0, 75, 70
3, 15140, Note_off_c, 0, 75, 64
3, 15140, Note_on_c, 0, 73, 49
3, 15160, Note_off_c, 0, 73, 64
3, 15160, Note_on_c, 0, 72, 56
3, 15180, Note_off_c, 0, 72, 64
3, 15180, Note_on_c, 0, 73, 62
3, 16080, Note_off_c, 0, 73, 64
3, 16080, Note_on_c, 0, 72, 64
3, 16260, Note_off_c, 0, 72, 64
3, 16260, Note_on_c, 0, 70, 64
3, 16320, Note_off_c, 0, 70, 64
3, 16320, Note_on_c, 0, 70, 64
3, 16360, Note_off_c, 0, 70, 64
3, 16360, Note_on_c, 0, 68, 64
3, 16500, Note_off_c, 0, 68, 64
3, 16500, Note_on_c, 0, 67, 64
3, 16560, Note_off_c, 0, 67, 64
3, 16560, Note_on_c, 0, 67, 64
3, 16600, Note_off_c, 0, 67, 64
3, 16600, Note_on_c, 0, 68, 64
3, 16740, Note_off_c, 0, 68, 64
3, 16740, Note_on_c, 0, 70, 64
3, 16800, Note_off_c, 0, 70, 64
3, 16800, Note_on_c, 0, 68, 64
3, 17040, Note_off_c, 0, 68, 64
3, 17040, Note_on_c, 0, 67, 64
3, 17220, Note_off_c, 0, 67, 64
3, 17220, Note_on_c, 0, 68, 64
3, 17280, Note_off_c, 0, 68, 64
3, 17280, Note_on_c, 0, 68, 64
3, 17300, Note_off_c, 0, 68, 64
3, 17300, Note_on_c, 0, 67, 48
3, 17320, Note_off_c, 0, 67, 64
3, 17320, Note_on_c, 0, 68, 64
3, 17700, Note_on_c, 0, 72, 64
3, 17740, Note_off_c, 0, 68, 64
3, 17760, Note_off_c, 0, 72, 64
3, 17760, Note_on_c, 0, 72, 64
3, 17800, Note_off_c, 0, 72, 64
3, 17800, Note_on_c, 0, 77, 64
3, 17940, Note_off_c, 0, 77, 64
3, 17940, Note_on_c, 0, 75, 64
3, 17960, Note_off_c, 0, 75, 64
3, 17960, Note_on_c, 0, 73, 50
3, 17980, Note_off_c, 0, 73, 64
3, 17980, Note_on_c, 0, 72, 54
3, 18000, Note_off_c, 0, 72, 64
3, 18000, Note_on_c, 0, 72, 64
3, 18060, Note_off_c, 0, 72, 64
3, 18060, Note_on_c, 0, 73, 59
3, 18720, Note_off_c, 0, 73, 64
3, 19130, Note_off_c, 0, 73, 64
3, 19140, Note_on_c, 0, 72, 64
3, 19200, Note_off_c, 0, 72, 64
3, 19200, Note_on_c, 0, 70, 64
3, 19610, Note_off_c, 0, 70, 64
3, 19620, Note_on_c, 0, 68, 64
3, 19680, Note_off_c, 0, 68, 64
3, 19680, Note_on_c, 0, 68, 64
3, 19920, Note_off_c, 0, 68, 64
3, 19920, Note_on_c, 0, 67, 64
3, 20160, Note_off_c, 0, 67, 64
3, 21300, Note_on_c, 0, 58, 64
3, 21360, Note_off_c, 0, 58, 64
3, 21360, Note_on_c, 0, 63, 68
3, 21380, Note_off_c, 0, 63, 64
3, 21380, Note_on_c, 0, 62, 48
3, 21400, Note_off_c, 0, 62, 64
3, 21400, Note_on_c, 0, 63, 48
3, 21420, Note_off_c, 0, 63, 64
3, 21420, Note_on_c, 0, 65, 68
3, 21440, Note_off_c, 0, 65, 64
3, 21440, Note_on_c, 0, 63, 58
3, 21460, Note_off_c, 0, 63, 64
3, 21460, Note_on_c, 0, 62, 60
3, 21480, Note_off_c, 0, 62, 64
3, 21480, Note_on_c, 0, 63, 62
3, 21540, Note_off_c, 0, 63, 64
3, 21540, Note_on_c, 0, 65, 64
3, 21600, Note_off_c, 0, 65, 64
3, 21600, Note_on_c, 0, 63, 64
3, 21660, Note_off_c, 0, 63, 64
3, 21660, Note_on_c, 0, 62, 64
3, 22010, Note_off_c, 0, 62, 64
3, 22020, Note_on_c, 0, 60, 64
3, 22080, Note_off_c, 0, 60, 64
3, 22080, Note_on_c, 0, 60, 64
3, 22120, Note_off_c, 0, 60, 64
3, 22120, Note_on_c, 0, 61, 64
3, 22260, Note_off_c, 0, 61, 64
3, 22260, Note_on_c, 0, 63, 64
3, 22320, Note_off_c, 0, 63, 64
3, 22320, Note_on_c, 0, 61, 64
3, 22380, Note_off_c, 0, 61, 64
3, 22380, Note_on_c, 0, 60, 64
3, 22730, Note_off_c, 0, 60, 64
3, 22740, Note_on_c, 0, 60, 64
3, 22800, Note_off_c, 0, 60, 64
3, 22800, Note_on_c, 0, 60, 64
3, 22840, Note_off_c, 0, 60, 64
3, 22840, Note_on_c, 0, 65, 64
3, 22980, Note_off_c, 0, 65, 64
3, 22980, Note_on_c, 0, 67, 64
3, 23040, Note_off_c, 0, 67, 64
3, 23040, Note_on_c, 0, 64, 64
3, 23100, Note_off_c, 0, 64, 64
3, 23100, Note_on_c, 0, 63, 64
3, 23450, Note_off_c, 0, 63, 64
3, 23460, Note_on_c, 0, 62, 64
3, 23520, Note_off_c, 0, 62, 64
3, 23520, Note_on_c, 0, 62, 64
3, 23560, Note_off_c, 0, 62, 64
3, 23560, Note_on_c, 0, 63, 64
3, 23700, Note_off_c, 0, 63, 64
3, 23700, Note_on_c, 0, 65, 64
3, 23760, Note_off_c, 0, 65, 64
3, 23760, Note_on_c, 0, 63, 64
3, 23820, Note_off_c, 0, 63, 64
3, 23820, Note_on_c, 0, 62, 64
3, 24170, Note_off_c, 0, 62, 64
3, 24180, Note_on_c, 0, 62, 64
3, 24240, Note_off_c, 0, 62, 64
3, 24240, Note_on_c, 0, 67, 70
3, 24260, Note_off_c, 0, 67, 64
3, 24260, Note_on_c, 0, 65, 48
3, 24280, Note_off_c, 0, 65, 64
3, 24280, Note_on_c, 0, 67, 64
3, 24420, Note_off_c, 0, 67, 64
3, 24420, Note_on_c, 0, 67, 64
3, 24480, Note_off_c, 0, 67, 64
3, 24480, Note_on_c, 0, 67, 64
3, 24540, Note_off_c, 0, 67, 64
3, 24540, Note_on_c, 0, 60, 64
3, 24890, Note_off_c, 0, 60, 64
3, 24900, Note_on_c, 0, 60, 64
3, 24920, Note_off_c, 0, 60, 64
3, 24920, Note_on_c, 0, 62, 50
3, 24940, Note_off_c, 0, 62, 64
3, 24940, Note_on_c, 0, 63, 60
3, 24960, Note_off_c, 0, 63, 64
3, 24960, Note_on_c, 0, 65, 70
3, 24980, Note_off_c, 0, 65, 64
3, 24980, Note_on_c, 0, 64, 48
3, 25000, Note_off_c, 0, 64, 64
3, 25000, Note_on_c, 0, 65, 64
3, 25140, Note_off_c, 0, 65, 64
3, 25140, Note_on_c, 0, 65, 64
3, 25200, Note_off_c, 0, 65, 64
3, 25200, Note_on_c, 0, 65, 64
3, 25260, Note_off_c, 0, 65, 64
3, 25260, Note_on_c, 0, 58, 64
3, 25440, Note_off_c, 0, 58, 64
3, 25440, Note_on_c, 0, 63, 64
3, 26160, Note_off_c, 0, 63, 64
3, 26160, Note_on_c, 0, 63, 64
3, 26220, Note_off_c, 0, 63, 64
3, 26220, Note_on_c, 0, 62, 64
3, 26640, Note_off_c, 0, 62, 64
3, 26640, Note_on_c, 0, 63, 64
3, 27600, Note_off_c, 0, 63, 64
3, 27600, End_track
4, 0, Start_track
4, 0, Text_t, "LH"
4, 60, Note_on_c, 0, 51, 64
4, 120, Note_off_c, 0, 51, 64
4, 120, Note_on_c, 0, 55, 64
4, 180, Note_off_c, 0, 55, 64
4, 180, Note_on_c, 0, 58, 64
4, 240, Note_off_c, 0, 58, 64
4, 240, Note_on_c, 0, 63, 64
4, 480, Note_off_c, 0, 63, 64
4, 480, Note_on_c, 0, 60, 64
4, 720, Note_off_c, 0, 60, 64
4, 780, Note_on_c, 0, 46, 64
4, 840, Note_off_c, 0, 46, 64
4, 840, Note_on_c, 0, 50, 64
4, 900, Note_off_c, 0, 50, 64
4, 900, Note_on_c, 0, 53, 64
4, 960, Note_off_c, 0, 53, 64
4, 960, Note_on_c, 0, 58, 64
4, 1200, Note_off_c, 0, 58, 64
4, 1200, Note_on_c, 0, 55, 64
4, 1440, Note_off_c, 0, 55, 64
4, 1500, Note_on_c, 0, 44, 64
4, 1560, Note_off_c, 0, 44, 64
4, 1560, Note_on_c, 0, 48, 64
4, 1620, Note_off_c, 0, 48, 64
4, 1620, Note_on_c, 0, 51, 64
4, 1680, Note_off_c, 0, 51, 64
4, 1680, Note_on_c, 0, 56, 64
4, 1920, Note_off_c, 0, 56, 64
4, 1920, Note_on_c, 0, 53, 64
4, 2160, Note_off_c, 0, 53, 64
4, 2220, Note_on_c, 0, 48, 64
4, 2280, Note_off_c, 0, 48, 64
4, 2280, Note_on_c, 0, 51, 64
4, 2340, Note_off_c, 0, 51, 64
4, 2340, Note_on_c, 0, 55, 64
4, 2400, Note_off_c, 0, 55, 64
4, 2400, Note_on_c, 0, 60, 64
4, 2640, Note_off_c, 0, 60, 64
4, 2640, Note_on_c, 0, 57, 64
4, 2880, Note_off_c, 0, 57, 64
4, 2940, Note_on_c, 0, 46, 64
4, 3000, Note_off_c, 0, 46, 64
4, 3000, Note_on_c, 0, 50, 64
4, 3060, Note_off_c, 0, 50, 64
4, 3060, Note_on_c, 0, 53, 64
4, 3120, Note_off_c, 0, 53, 64
4, 3120, Note_on_c, 0, 58, 64
4, 3360, Note_off_c, 0, 58, 64
4, 3360, Note_on_c, 0, 51, 64
4, 3600, Note_off_c, 0, 51, 64
4, 3660, Note_on_c, 0, 44, 64
4, 3720, Note_off_c, 0, 44, 64
4, 3720, Note_on_c, 0, 48, 64
4, 3780, Note_off_c, 0, 48, 64
4, 3780, Note_on_c, 0, 51, 64
4, 3840, Note_off_c, 0, 51, 64
4, 3840, Note_on_c, 0, 56, 64
4, 4080, Note_off_c, 0, 56, 64
4, 4080, Note_on_c, 0, 50, 64
4, 4320, Note_off_c, 0, 50, 64
4, 4380, Note_on_c, 0, 43, 64
4, 4440, Note_off_c, 0, 43, 64
4, 4440, Note_on_c, 0, 46, 64
4, 4500, Note_off_c, 0, 46, 64
4, 4500, Note_on_c, 0, 50, 64
4, 4560, Note_off_c, 0, 50, 64
4, 4560, Note_on_c, 0, 55, 64
4, 4800, Note_off_c, 0, 55, 64
4, 4800, Note_on_c, 0, 56, 64
4, 5040, Note_off_c, 0, 56, 64
4, 5100, Note_on_c, 0, 46, 64
4, 5160, Note_off_c, 0, 46, 64
4, 5160, Note_on_c, 0, 53, 64
4, 5220, Note_off_c, 0, 53, 64
4, 5220, Note_on_c, 0, 56, 64
4, 5280, Note_off_c, 0, 56, 64
4, 5280, Note_on_c, 0, 58, 64
4, 5520, Note_off_c, 0, 58, 64
4, 5520, Note_on_c, 0, 46, 64
4, 5760, Note_off_c, 0, 46, 64
4, 5820, Note_on_c, 0, 39, 64
4, 5880, Note_off_c, 0, 39, 64
4, 5880, Note_on_c, 0, 43, 64
4, 5940, Note_off_c, 0, 43, 64
4, 5940, Note_on_c, 0, 46, 64
4, 6000, Note_off_c, 0, 46, 64
4, 6000, Note_on_c, 0, 51, 64
4, 6240, Note_off_c, 0, 51, 64
4, 6240, Note_on_c, 0, 48, 64
4, 6480, Note_off_c, 0, 48, 64
4, 6540, Note_on_c, 0, 44, 64
4, 6600, Note_off_c, 0, 44, 64
4, 6600, Note_on_c, 0, 48, 64
4, 6660, Note_off_c, 0, 48, 64
4, 6660, Note_on_c, 0, 51, 64
4, 6720, Note_off_c, 0, 51, 64
4, 6720, Note_on_c, 0, 56, 64
4, 6960, Note_off_c, 0, 56, 64
4, 6960, Note_on_c, 0, 53, 64
4, 7200, Note_off_c, 0, 53, 64
4, 7260, Note_on_c, 0, 53, 64
4, 7320, Note_off_c, 0, 53, 64
4, 7320, Note_on_c, 0, 56, 64
4, 7380, Note_off_c, 0, 56, 64
4, 7380, Note_on_c, 0, 60, 64
4, 7440, Note_off_c, 0, 60, 64
4, 7440, Note_on_c, 0, 65, 64
4, 7680, Note_off_c, 0, 65, 64
4, 7740, Note_on_c, 0, 59, 64
4, 7800, Note_off_c, 0, 59, 64
4, 7800, Note_on_c, 0, 57, 64
4, 7860, Note_off_c, 0, 57, 64
4, 7860, Note_on_c, 0, 55, 64
4, 7920, Note_off_c, 0, 55, 64
4, 7920, Note_on_c, 0, 60, 64
4, 7980, Note_off_c, 0, 60, 64
4, 7980, Note_on_c, 0, 55, 64
4, 8040, Note_off_c, 0, 55, 64
4, 8040, Note_on_c, 0, 56, 64
4, 8100, Note_off_c, 0, 56, 64
4, 8100, Note_on_c, 0, 53, 64
4, 8160, Note_off_c, 0, 53, 64
4, 8160, Note_on_c, 0, 55, 64
4, 8400, Note_off_c, 0, 55, 64
4, 8400, Note_on_c, 0, 43, 64
4, 8640, Note_off_c, 0, 43, 64
4, 8700, Note_on_c, 0, 36, 64
4, 8760, Note_off_c, 0, 36, 64
4, 8760, Note_on_c, 0, 39, 64
4, 8820, Note_off_c, 0, 39, 64
4, 8820, Note_on_c, 0, 43, 64
4, 8880, Note_off_c, 0, 43, 64
4, 8880, Note_on_c, 0, 48, 64
4, 9120, Note_off_c, 0, 48, 64
4, 9120, Note_on_c, 0, 39, 64
4, 9360, Note_off_c, 0, 39, 64
4, 9420, Note_on_c, 0, 41, 64
4, 9480, Note_off_c, 0, 41, 64
4, 9480, Note_on_c, 0, 45, 64
4, 9540, Note_off_c, 0, 45, 64
4, 9540, Note_on_c, 0, 48, 64
4, 9600, Note_off_c, 0, 48, 64
4, 9600, Note_on_c, 0, 53, 64
4, 9840, Note_off_c, 0, 53, 64
4, 9840, Note_on_c, 0, 45, 64
4, 10080, Note_off_c, 0, 45, 64
4, 10140, Note_on_c, 0, 46, 64
4, 10200, Note_off_c, 0, 46, 64
4, 10200, Note_on_c, 0, 50, 64
4, 10260, Note_off_c, 0, 50, 64
4, 10260, Note_on_c, 0, 53, 64
4, 10320, Note_off_c, 0, 53, 64
4, 10320, Note_on_c, 0, 58, 64
4, 10560, Note_off_c, 0, 58, 64
4, 10560, Note_on_c, 0, 55, 64
4, 10800, Note_off_c, 0, 55, 64
4, 10860, Note_on_c, 0, 55, 64
4, 10920, Note_off_c, 0, 55, 64
4, 10920, Note_on_c, 0, 57, 64
4, 10980, Note_off_c, 0, 57, 64
4, 10980, Note_on_c, 0, 58, 64
4, 11040, Note_off_c, 0, 58, 64
4, 11040, Note_on_c, 0, 53, 64
4, 11280, Note_off_c, 0, 53, 64
4, 11280, Note_on_c, 0, 41, 64
4, 11520, Note_off_c, 0, 41, 64
4, 11580, Note_on_c, 0, 46, 64
4, 11640, Note_off_c, 0, 46, 64
4, 11640, Note_on_c, 0, 50, 64
4, 11700, Note_off_c, 0, 50, 64
4, 11700, Note_on_c, 0, 53, 64
4, 11760, Note_off_c, 0, 53, 64
4, 11760, Note_on_c, 0, 58, 64
4, 12000, Note_off_c, 0, 58, 64
4, 12000, Note_on_c, 0, 50, 64
4, 12240, Note_off_c, 0, 50, 64
4, 12300, Note_on_c, 0, 51, 64
4, 12360, Note_off_c, 0, 51, 64
4, 12360, Note_on_c, 0, 55, 64
4, 12420, Note_off_c, 0, 55, 64
4, 12420, Note_on_c, 0, 58, 64
4, 12480, Note_off_c, 0, 58, 64
4, 12480, Note_on_c, 0, 63, 64
4, 12720, Note_off_c, 0, 63, 64
4, 12720, Note_on_c, 0, 55, 64
4, 12960, Note_off_c, 0, 55, 64
4, 13020, Note_on_c, 0, 44, 64
4, 13080, Note_off_c, 0, 44, 64
4, 13080, Note_on_c, 0, 48, 64
4, 13140, Note_off_c, 0, 48, 64
4, 13140, Note_on_c, 0, 51, 64
4, 13200, Note_off_c, 0, 51, 64
4, 13200, Note_on_c, 0, 56, 64
4, 13440, Note_off_c, 0, 56, 64
4, 13440, Note_on_c, 0, 52, 64
4, 13680, Note_off_c, 0, 52, 64
4, 13740, Note_on_c, 0, 41, 64
4, 13800, Note_off_c, 0, 41, 64
4, 13800, Note_on_c, 0, 44, 64
4, 13860, Note_off_c, 0, 44, 64
4, 13860, Note_on_c, 0, 48, 64
4, 13920, Note_off_c, 0, 48, 64
4, 13920, Note_on_c, 0, 53, 64
4, 14160, Note_off_c, 0, 53, 64
4, 14160, Note_on_c, 0, 49, 64
4, 14400, Note_off_c, 0, 49, 64
4, 14460, Note_on_c, 0, 48, 64
4, 14520, Note_off_c, 0, 48, 64
4, 14520, Note_on_c, 0, 52, 64
4, 14580, Note_off_c, 0, 52, 64
4, 14580, Note_on_c, 0, 55, 64
4, 14640, Note_off_c, 0, 55, 64
4, 14640, Note_on_c, 0, 60, 64
4, 14880, Note_off_c, 0, 60, 64
4, 14880, Note_on_c, 0, 56, 64
4, 15120, Note_off_c, 0, 56, 64
4, 15180, Note_on_c, 0, 46, 64
4, 15240, Note_off_c, 0, 46, 64
4, 15240, Note_on_c, 0, 49, 64
4, 15300, Note_off_c, 0, 49, 64
4, 15300, Note_on_c, 0, 53, 64
4, 15360, Note_off_c, 0, 53, 64
4, 15360, Note_on_c, 0, 58, 64
4, 15600, Note_off_c, 0, 58, 64
4, 15600, Note_on_c, 0, 55, 64
4, 15840, Note_off_c, 0, 55, 64
4, 15900, Note_on_c, 0, 36, 64
4, 15960, Note_off_c, 0, 36, 64
4, 15960, Note_on_c, 0, 40, 64
4, 16020, Note_off_c, 0, 40, 64
4, 16020, Note_on_c, 0, 43, 64
4, 16080, Note_off_c, 0, 43, 64
4, 16080, Note_on_c, 0, 48, 64
4, 16320, Note_off_c, 0, 48, 64
4, 16320, Note_on_c, 0, 49, 64
4, 16560, Note_off_c, 0, 49, 64
4, 16620, Note_on_c, 0, 49, 64
4, 16680, Note_off_c, 0, 49, 64
4, 16680, Note_on_c, 0, 48, 64
4, 16740, Note_off_c, 0, 48, 64
4, 16740, Note_on_c, 0, 46, 64
4, 16800, Note_off_c, 0, 46, 64
4, 16800, Note_on_c, 0, 48, 64
4, 17040, Note_off_c, 0, 48, 64
4, 17040, Note_on_c, 0, 36, 64
4, 17280, Note_off_c, 0, 36, 64
4, 17340, Note_on_c, 0, 41, 64
4, 17400, Note_off_c, 0, 41, 64
4, 17400, Note_on_c, 0, 44, 64
4, 17460, Note_off_c, 0, 44, 64
4, 17460, Note_on_c, 0, 48, 64
4, 17520, Note_off_c, 0, 48, 64
4, 17520, Note_on_c, 0, 53, 64
4, 17760, Note_off_c, 0, 53, 64
4, 17760, Note_on_c, 0, 44, 64
4, 18000, Note_off_c, 0, 44, 64
4, 18060, Note_on_c, 0, 46, 64
4, 18120, Note_off_c, 0, 46, 64
4, 18120, Note_on_c, 0, 49, 64
4, 18180, Note_off_c, 0, 49, 64
4, 18180, Note_on_c, 0, 53, 64
4, 18240, Note_off_c, 0, 53, 64
4, 18240, Note_on_c, 0, 58, 64
4, 18480, Note_off_c, 0, 58, 64
4, 18480, Note_on_c, 0, 49, 64
4, 18720, Note_off_c, 0, 49, 64
4, 18780, Note_on_c, 0, 51, 64
4, 18840, Note_off_c, 0, 51, 64
4, 18840, Note_on_c, 0, 55, 64
4, 18900, Note_off_c, 0, 55, 64
4, 18900, Note_on_c, 0, 58, 64
4, 18960, Note_off_c, 0, 58, 64
4, 18960, Note_on_c, 0, 63, 64
4, 19200, Note_off_c, 0, 63, 64
4, 19260, Note_on_c, 0, 55, 64
4, 19320, Note_off_c, 0, 55, 64
4, 19320, Note_on_c, 0, 53, 64
4, 19380, Note_off_c, 0, 53, 64
4, 19380, Note_on_c, 0, 51, 64
4, 19440, Note_off_c, 0, 51, 64
4, 19440, Note_on_c, 0, 56, 64
4, 19500, Note_off_c, 0, 56, 64
4, 19500, Note_on_c, 0, 51, 64
4, 19560, Note_off_c, 0, 51, 64
4, 19560, Note_on_c, 0, 53, 64
4, 19620, Note_off_c, 0, 53, 64
4, 19620, Note_on_c, 0, 49, 64
4, 19680, Note_off_c, 0, 49, 64
4, 19680, Note_on_c, 0, 51, 64
4, 19920, Note_off_c, 0, 51, 64
4, 19920, Note_on_c, 0, 39, 64
4, 20160, Note_off_c, 0, 39, 64
4, 20220, Note_on_c, 0, 44, 64
4, 20280, Note_off_c, 0, 44, 64
4, 20280, Note_on_c, 0, 48, 64
4, 20340, Note_off_c, 0, 48, 64
4, 20340, Note_on_c, 0, 51, 64
4, 20400, Note_off_c, 0, 51, 64
4, 20400, Note_on_c, 0, 56, 64
4, 20640, Note_off_c, 0, 56, 64
4, 20640, Note_on_c, 0, 53, 64
4, 20880, Note_off_c, 0, 53, 64
4, 20940, Note_on_c, 0, 39, 64
4, 21000, Note_off_c, 0, 39, 64
4, 21000, Note_on_c, 0, 43, 64
4, 21060, Note_off_c, 0, 43, 64
4, 21060, Note_on_c, 0, 46, 64
4, 21120, Note_off_c, 0, 46, 64
4, 21120, Note_on_c, 0, 51, 64
4, 21360, Note_off_c, 0, 51, 64
4, 21360, Note_on_c, 0, 48, 64
4, 21600, Note_off_c, 0, 48, 64
4, 21660, Note_on_c, 0, 46, 64
4, 21720, Note_off_c, 0, 46, 64
4, 21720, Note_on_c, 0, 50, 64
4, 21780, Note_off_c, 0, 50, 64
4, 21780, Note_on_c, 0, 53, 64
4, 21840, Note_off_c, 0, 53, 64
4, 21840, Note_on_c, 0, 58, 64
4, 22080, Note_off_c, 0, 58, 64
4, 22080, Note_on_c, 0, 55, 64
4, 22320, Note_off_c, 0, 55, 64
4, 22380, Note_on_c, 0, 44, 64
4, 22440, Note_off_c, 0, 44, 64
4, 22440, Note_on_c, 0, 48, 64
4, 22500, Note_off_c, 0, 48, 64
4, 22500, Note_on_c, 0, 51, 64
4, 22560, Note_off_c, 0, 51, 64
4, 22560, Note_on_c, 0, 56, 64
4, 22800, Note_off_c, 0, 56, 64
4, 22800, Note_on_c, 0, 53, 64
4, 23040, Note_off_c, 0, 53, 64
4, 23100, Note_on_c, 0, 48, 64
4, 23160, Note_off_c, 0, 48, 64
4, 23160, Note_on_c, 0, 51, 64
4, 23220, Note_off_c, 0, 51, 64
4, 23220, Note_on_c, 0, 55, 64
4, 23280, Note_off_c, 0, 55, 64
4, 23280, Note_on_c, 0, 60, 64
4, 23520, Note_off_c, 0, 60, 64
4, 23520, Note_on_c, 0, 57, 64
4, 23760, Note_off_c, 0, 57, 64
4, 23820, Note_on_c, 0, 46, 64
4, 23880, Note_off_c, 0, 46, 64
4, 23880, Note_on_c, 0, 50, 64
4, 23940, Note_off_c, 0, 50, 64
4, 23940, Note_on_c, 0, 53, 64
4, 24000, Note_off_c, 0, 53, 64
4, 24000, Note_on_c, 0, 58, 64
4, 24240, Note_off_c, 0, 58, 64
4, 24240, Note_on_c, 0, 51, 64
4, 24480, Note_off_c, 0, 51, 64
4, 24540, Note_on_c, 0, 44, 64
4, 24600, Note_off_c, 0, 44, 64
4, 24600, Note_on_c, 0, 48, 64
4, 24660, Note_off_c, 0, 48, 64
4, 24660, Note_on_c, 0, 51, 64
4, 24720, Note_off_c, 0, 51, 64
4, 24720, Note_on_c, 0, 56, 64
4, 24960, Note_off_c, 0, 56, 64
4, 24960, Note_on_c, 0, 50, 64
4, 25200, Note_off_c, 0, 50, 64
4, 25260, Note_on_c, 0, 43, 64
4, 25320, Note_off_c, 0, 43, 64
4, 25320, Note_on_c, 0, 46, 64
4, 25380, Note_off_c, 0, 46, 64
4, 25380, Note_on_c, 0, 50, 64
4, 25440, Note_off_c, 0, 50, 64
4, 25440, Note_on_c, 0, 55, 64
4, 25680, Note_off_c, 0, 55, 64
4, 25680, Note_on_c, 0, 56, 64
4, 25920, Note_off_c, 0, 56, 64
4, 25980, Note_on_c, 0, 46, 64
4, 26040, Note_off_c, 0, 46, 64
4, 26040, Note_on_c, 0, 53, 64
4, 26100, Note_off_c, 0, 53, 64
4, 26100, Note_on_c, 0, 56, 64
4, 26160, Note_off_c, 0, 56, 64
4, 26160, Note_on_c, 0, 58, 64
4, 26400, Note_off_c, 0, 58, 64
4, 26400, Note_on_c, 0, 46, 64
4, 26640, Note_off_c, 0, 46, 64
4, 26640, Note_on_c, 0, 39, 64
4, 27600, Note_off_c, 0, 39, 64
4, 27600, End_track
0, 0, End_of_file
