0, 0, Header, 1, 4, 240
1, 0, Start_track
1, 0, Time_signature, 12, 3, 36, 8
1, 0, Tempo, 416667
1, 43992, Tempo, 428571
1, 44148, Tempo, 437956
1, 44340, Tempo, 451128
1, 44484, Tempo, 461538
1, 44640, Tempo, 472441
1, 44772, Tempo, 491803
1, 44976, Tempo, 530973
1, 45132, Tempo, 566038
1, 45228, Tempo, 697674
1, 45540, Tempo, 458015
1, 45540, End_track
2, 0, Start_track
2, 0, Text_t, "RH"
2, 0, Note_on_c, 0, 72, 64
2, 120, Note_off_c, 0, 72, 64
2, 120, Note_on_c, 0, 67, 64
2, 240, Note_off_c, 0, 67, 64
2, 240, Note_on_c, 0, 75, 64
2, 360, Note_off_c, 0, 75, 64
2, 360, Note_on_c, 0, 75, 64
2, 480, Note_off_c, 0, 75, 64
2, 480, Note_on_c, 0, 72, 64
2, 600, Note_off_c, 0, 72, 64
2, 600, Note_on_c, 0, 79, 64
2, 720, Note_off_c, 0, 79, 64
2, 720, Note_on_c, 0, 79, 68
2, 760, Note_off_c, 0, 79, 64
2, 760, Note_on_c, 0, 77, 48
2, 800, Note_off_c, 0, 77, 64
2, 800, Note_on_c, 0, 79, 64
2, 1080, Note_off_c, 0, 79, 64
2, 1080, Note_on_c, 0, 67, 64
2, 1440, Note_off_c, 0, 67, 64
2, 1440, Note_on_c, 0, 72, 64
2, 1560, Note_off_c, 0, 72, 64
2, 1560, Note_on_c, 0, 74, 64
2, 1680, Note_off_c, 0, 74, 64
2, 1680, Note_on_c, 0, 75, 64
2, 1800, Note_off_c, 0, 75, 64
2, 1800, Note_on_c, 0, 77, 64
2, 1920, Note_off_c, 0, 77, 64
2, 1920, Note_on_c, 0, 79, 64
2, 2040, Note_off_c, 0, 79, 64
2, 2040, Note_on_c, 0, 80, 64
2, 2160, Note_off_c, 0, 80, 64
2, 2160, Note_on_c, 0, 71, 64
2, 2280, Note_off_c, 0, 71, 64
2, 2280, Note_on_c, 0, 80, 64
2, 2400, Note_off_c, 0, 80, 64
2, 2400, Note_on_c, 0, 79, 64
2, 2520, Note_off_c, 0, 79, 64
2, 2520, Note_on_c, 0, 77, 64
2, 2640, Note_off_c, 0, 77, 64
2, 2640, Note_on_c, 0, 75, 64
2, 2760, Note_off_c, 0, 75, 64
2, 2760, Note_on_c, 0, 74, 64
2, 2880, Note_off_c, 0, 74, 64
2, 2880, Note_on_c, 0, 75, 68
2, 2920, Note_off_c, 0, 75, 64
2, 2920, Note_on_c, 0, 74, 48
2, 2960, Note_off_c, 0, 74, 64
2, 2960, Note_on_c, 0, 75, 64
2, 3240, Note_off_c, 0, 75, 64
2, 3240, Note_on_c, 0, 72, 64
2, 3720, Note_off_c, 0, 72, 64
2, 3720, Note_on_c, 0, 71, 64
2, 3840, Note_off_c, 0, 71, 64
2, 3840, Note_on_c, 0, 72, 64
2, 3960, Note_off_c, 0, 72, 64
2, 3960, Note_on_c, 0, 74, 64
2, 4080, Note_off_c, 0, 74, 64
2, 4080, Note_on_c, 0, 75, 64
2, 4200, Note_off_c, 0, 75, 64
2, 4200, Note_on_c, 0, 77, 64
2, 4320, Note_off_c, 0, 77, 64
2, 4320, Note_on_c, 0, 75, 64
2, 4440, Note_off_c, 0, 75, 64
2, 4440, Note_on_c, 0, 77, 64
2, 4560, Note_off_c, 0, 77, 64
2, 4560, Note_on_c, 0, 75, 64
2, 4680, Note_off_c, 0, 75, 64
2, 4680, Note_on_c, 0, 74, 64
2, 4800, Note_off_c, 0, 74, 64
2, 4800, Note_on_c, 0, 75, 64
2, 4920, Note_off_c, 0, 75, 64
2, 4920, Note_on_c, 0, 72, 64
2, 5040, Note_off_c, 0, 72, 64
2, 5040, Note_on_c, 0, 79, 68
2, 5080, Note_off_c, 0, 79, 64
2, 5080, Note_on_c, 0, 77, 48
2, 5120, Note_off_c, 0, 77, 64
2, 5120, Note_on_c, 0, 79, 64
2, 6000, Note_off_c, 0, 79, 64
2, 6000, Note_on_c, 0, 79, 64
2, 6120, Note_off_c, 0, 79, 64
2, 6120, Note_on_c, 0, 72, 68
2, 6160, Note_off_c, 0, 72, 64
2, 6160, Note_on_c, 0, 70, 48
2, 6200, Note_off_c, 0, 70, 64
2, 6200, Note_on_c, 0, 72, 64
2, 6360, Note_off_c, 0, 72, 64
2, 6360, Note_on_c, 0, 75, 64
2, 6480, Note_off_c, 0, 75, 64
2, 6480, Note_on_c, 0, 65, 64
2, 6720, Note_off_c, 0, 65, 64
2, 7440, Note_on_c, 0, 77, 64
2, 7560, Note_off_c, 0, 77, 64
2, 7560, Note_on_c, 0, 70, 64
2, 7800, Note_off_c, 0, 70, 64
2, 7800, Note_on_c, 0, 74, 64
2, 7920, Note_off_c, 0, 74, 64
2, 7920, Note_on_c, 0, 63, 64
2, 8160, Note_off_c, 0, 63, 64
2, 8640, Note_on_c, 0, 77, 70
2, 8680, Note_off_c, 0, 77, 64
2, 8680, Note_on_c, 0, 75, 48
2, 8720, Note_on_c, 0, 77, 48
2, 8724, Note_off_c, 0, 75, 64
2, 8760, Note_on_c, 0, 75, 48
2, 8764, Note_off_c, 0, 77, 64
2, 8800, Note_on_c, 0, 77, 49
2, 8804, Note_off_c, 0, 75, 64
2, 8840, Note_on_c, 0, 75, 49
2, 8844, Note_off_c, 0, 77, 64
2, 8880, Note_on_c, 0, 77, 50
2, 8884, Note_off_c, 0, 75, 64
2, 8920, Note_on_c, 0, 75, 50
2, 8924, Note_off_c, 0, 77, 64
2, 8960, Note_on_c, 0, 77, 50
2, 8964, Note_off_c, 0, 75, 64
2, 9000, Note_on_c, 0, 75, 51
2, 9004, Note_off_c, 0, 77, 64
2, 9040, Note_on_c, 0, 77, 51
2, 9044, Note_off_c, 0, 75, 64
2, 9080, Note_on_c, 0, 75, 51
2, 9084, Note_off_c, 0, 77, 64
2, 9120, Note_on_c, 0, 77, 52
2, 9124, Note_off_c, 0, 75, 64
2, 9160, Note_on_c, 0, 75, 52
2, 9164, Note_off_c, 0, 77, 64
2, 9200, Note_on_c, 0, 77, 53
2, 9204, Note_off_c, 0, 75, 64
2, 9240, Note_on_c, 0, 75, 53
2, 9244, Note_off_c, 0, 77, 64
2, 9280, Note_on_c, 0, 77, 53
2, 9284, Note_off_c, 0, 75, 64
2, 9320, Note_on_c, 0, 75, 54
2, 9324, Note_off_c, 0, 77, 64
2, 9360, Note_on_c, 0, 77, 54
2, 9364, Note_off_c, 0, 75, 64
2, 9400, Note_on_c, 0, 75, 55
2, 9404, Note_off_c, 0, 77, 64
2, 9440, Note_on_c, 0, 77, 55
2, 9444, Note_off_c, 0, 75, 64
2, 9480, Note_on_c, 0, 75, 55
2, 9484, Note_off_c, 0, 77, 64
2, 9520, Note_on_c, 0, 77, 56
2, 9524, Note_off_c, 0, 75, 64
2, 9560, Note_on_c, 0, 75, 56
2, 9564, Note_off_c, 0, 77, 64
2, 9600, Note_on_c, 0, 77, 56
2, 9604, Note_off_c, 0, 75, 64
2, 9640, Note_on_c, 0, 75, 57
2, 9644, Note_off_c, 0, 77, 64
2, 9680, Note_on_c, 0, 77, 57
2, 9684, Note_off_c, 0, 75, 64
2, 9720, Note_on_c, 0, 75, 58
2, 9724, Note_off_c, 0, 77, 64
2, 9760, Note_on_c, 0, 77, 58
2, 9764, Note_off_c, 0, 75, 64
2, 9800, Note_on_c, 0, 75, 58
2, 9804, Note_off_c, 0, 77, 64
2, 9840, Note_on_c, 0, 77, 59
2, 9844, Note_off_c, 0, 75, 64
2, 9880, Note_on_c, 0, 75, 59
2, 9884, Note_off_c, 0, 77, 64
2, 9920, Note_on_c, 0, 77, 59
2, 9924, Note_off_c, 0, 75, 64
2, 9960, Note_on_c, 0, 75, 60
2, 9964, Note_off_c, 0, 77, 64
2, 10000, Note_on_c, 0, 77, 60
2, 10004, Note_off_c, 0, 75, 64
2, 10040, Note_on_c, 0, 75, 61
2, 10044, Note_off_c, 0, 77, 64
2, 10080, Note_on_c, 0, 77, 61
2, 10084, Note_off_c, 0, 75, 64
2, 10120, Note_on_c, 0, 75, 61
2, 10124, Note_off_c, 0, 77, 64
2, 10160, Note_on_c, 0, 77, 62
2, 10164, Note_off_c, 0, 75, 64
2, 10200, Note_on_c, 0, 75, 62
2, 10204, Note_off_c, 0, 77, 64
2, 10240, Note_on_c, 0, 77, 63
2, 10244, Note_off_c, 0, 75, 64
2, 10280, Note_on_c, 0, 75, 63
2, 10284, Note_off_c, 0, 77, 64
2, 10320, Note_on_c, 0, 77, 63
2, 10324, Note_off_c, 0, 75, 64
2, 10440, Note_on_c, 0, 74, 64
2, 10452, Note_off_c, 0, 77, 64
2, 10920, Note_off_c, 0, 74, 64
2, 10920, Note_on_c, 0, 79, 64
2, 10980, Note_off_c, 0, 79, 64
2, 10980, Note_on_c, 0, 77, 64
2, 11040, Note_off_c, 0, 77, 64
2, 11040, Note_on_c, 0, 75, 64
2, 11100, Note_off_c, 0, 75, 64
2, 11100, Note_on_c, 0, 74, 64
2, 11160, Note_off_c, 0, 74, 64
2, 11160, Note_on_c, 0, 72, 64
2, 11220, Note_off_c, 0, 72, 64
2, 11220, Note_on_c, 0, 74, 64
2, 11280, Note_off_c, 0, 74, 64
2, 11280, Note_on_c, 0, 72, 64
2, 11340, Note_off_c, 0, 72, 64
2, 11340, Note_on_c, 0, 70, 64
2, 11400, Note_off_c, 0, 70, 64
2, 11400, Note_on_c, 0, 69, 64
2, 11460, Note_off_c, 0, 69, 64
2, 11460, Note_on_c, 0, 67, 64
2, 11520, Note_off_c, 0, 67, 64
2, 11520, Note_on_c, 0, 66, 64
2, 11640, Note_off_c, 0, 66, 64
2, 11640, Note_on_c, 0, 81, 64
2, 11700, Note_off_c, 0, 81, 64
2, 11700, Note_on_c, 0, 79, 64
2, 11760, Note_off_c, 0, 79, 64
2, 11760, Note_on_c, 0, 78, 64
2, 11820, Note_off_c, 0, 78, 64
2, 11820, Note_on_c, 0, 76, 64
2, 11880, Note_off_c, 0, 76, 64
2, 11880, Note_on_c, 0, 74, 64
2, 11940, Note_off_c, 0, 74, 64
2, 11940, Note_on_c, 0, 75, 64
2, 12000, Note_off_c, 0, 75, 64
2, 12000, Note_on_c, 0, 74, 64
2, 12060, Note_off_c, 0, 74, 64
2, 12060, Note_on_c, 0, 72, 64
2, 12120, Note_off_c, 0, 72, 64
2, 12120, Note_on_c, 0, 70, 64
2, 12180, Note_off_c, 0, 70, 64
2, 12180, Note_on_c, 0, 69, 64
2, 12240, Note_off_c, 0, 69, 64
2, 12240, Note_on_c, 0, 70, 64
2, 12960, Note_off_c, 0, 70, 64
2, 12960, Note_on_c, 0, 69, 64
2, 13320, Note_off_c, 0, 69, 64
2, 13320, Note_on_c, 0, 78, 64
2, 13680, Note_off_c, 0, 78, 64
2, 13680, Note_on_c, 0, 79, 64
2, 14040, Note_off_c, 0, 79, 64
2, 15240, Note_on_c, 0, 62, 64
2, 15360, Note_off_c, 0, 62, 64
2, 15360, Note_on_c, 0, 70, 64
2, 15480, Note_off_c, 0, 70, 64
2, 15480, Note_on_c, 0, 70, 64
2, 15600, Note_off_c, 0, 70, 64
2, 15600, Note_on_c, 0, 67, 64
2, 15720, Note_off_c, 0, 67, 64
2, 15720, Note_on_c, 0, 74, 64
2, 15840, Note_off_c, 0, 74, 64
2, 15840, Note_on_c, 0, 74, 64
2, 16200, Note_off_c, 0, 74, 64
2, 16200, Note_on_c, 0, 62, 64
2, 16560, Note_off_c, 0, 62, 64
2, 16680, Note_on_c, 0, 69, 64
2, 16800, Note_off_c, 0, 69, 64
2, 16800, Note_on_c, 0, 70, 64
2, 16920, Note_off_c, 0, 70, 64
2, 16920, Note_on_c, 0, 72, 64
2, 17040, Note_off_c, 0, 72, 64
2, 17040, Note_on_c, 0, 74, 64
2, 17160, Note_off_c, 0, 74, 64
2, 17160, Note_on_c, 0, 75, 64
2, 17280, Note_off_c, 0, 75, 64
2, 17280, Note_on_c, 0, 66, 64
2, 17400, Note_off_c, 0, 66, 64
2, 17400, Note_on_c, 0, 75, 64
2, 17520, Note_off_c, 0, 75, 64
2, 17520, Note_on_c, 0, 74, 64
2, 17640, Note_off_c, 0, 74, 64
2, 17640, Note_on_c, 0, 72, 64
2, 17760, Note_off_c, 0, 72, 64
2, 17760, Note_on_c, 0, 70, 64
2, 17880, Note_off_c, 0, 70, 64
2, 17880, Note_on_c, 0, 69, 64
2, 18000, Note_off_c, 0, 69, 64
2, 18000, Note_on_c, 0, 70, 64
2, 18240, Note_off_c, 0, 70, 64
2, 18780, Note_on_c, 0, 67, 64
2, 18840, Note_off_c, 0, 67, 64
2, 18840, Note_on_c, 0, 69, 64
2, 18900, Note_off_c, 0, 69, 64
2, 18900, Note_on_c, 0, 70, 64
2, 18960, Note_off_c, 0, 70, 64
2, 18960, Note_on_c, 0, 72, 64
2, 19020, Note_off_c, 0, 72, 64
2, 19020, Note_on_c, 0, 74, 64
2, 19080, Note_off_c, 0, 74, 64
2, 19080, Note_on_c, 0, 75, 64
2, 19140, Note_off_c, 0, 75, 64
2, 19140, Note_on_c, 0, 77, 64
2, 19200, Note_off_c, 0, 77, 64
2, 19200, Note_on_c, 0, 75, 64
2, 19260, Note_off_c, 0, 75, 64
2, 19260, Note_on_c, 0, 74, 64
2, 19320, Note_off_c, 0, 74, 64
2, 19320, Note_on_c, 0, 72, 64
2, 19380, Note_off_c, 0, 72, 64
2, 19380, Note_on_c, 0, 70, 64
2, 19440, Note_off_c, 0, 70, 64
2, 19440, Note_on_c, 0, 69, 64
2, 19680, Note_off_c, 0, 69, 64
2, 20220, Note_on_c, 0, 65, 64
2, 20280, Note_off_c, 0, 65, 64
2, 20280, Note_on_c, 0, 67, 64
2, 20340, Note_off_c, 0, 67, 64
2, 20340, Note_on_c, 0, 69, 64
2, 20400, Note_off_c, 0, 69, 64
2, 20400, Note_on_c, 0, 70, 64
2, 20460, Note_off_c, 0, 70, 64
2, 20460, Note_on_c, 0, 72, 64
2, 20520, Note_off_c, 0, 72, 64
2, 20520, Note_on_c, 0, 74, 64
2, 20580, Note_off_c, 0, 74, 64
2, 20580, Note_on_c, 0, 75, 64
2, 20640, Note_off_c, 0, 75, 64
2, 20640, Note_on_c, 0, 74, 64
2, 20700, Note_off_c, 0, 74, 64
2, 20700, Note_on_c, 0, 72, 64
2, 20760, Note_off_c, 0, 72, 64
2, 20760, Note_on_c, 0, 70, 64
2, 20820, Note_off_c, 0, 70, 64
2, 20820, Note_on_c, 0, 68, 64
2, 20880, Note_off_c, 0, 68, 64
2, 20880, Note_on_c, 0, 67, 64
2, 21120, Note_off_c, 0, 67, 64
2, 21480, Note_on_c, 0, 67, 64
2, 21600, Note_off_c, 0, 67, 64
2, 21600, Note_on_c, 0, 65, 64
2, 21840, Note_off_c, 0, 65, 64
2, 22200, Note_on_c, 0, 67, 64
2, 22320, Note_off_c, 0, 67, 64
2, 22320, Note_on_c, 0, 63, 64
2, 22560, Note_off_c, 0, 63, 64
2, 22920, Note_on_c, 0, 65, 64
2, 23040, Note_off_c, 0, 65, 64
2, 23040, Note_on_c, 0, 62, 64
2, 23280, Note_off_c, 0, 62, 64
2, 23280, Note_on_c, 0, 74, 64
2, 23400, Note_off_c, 0, 74, 64
2, 23400, Note_on_c, 0, 70, 64
2, 23880, Note_off_c, 0, 70, 64
2, 24000, Note_on_c, 0, 75, 64
2, 24120, Note_off_c, 0, 75, 64
2, 24120, Note_on_c, 0, 72, 64
2, 24840, Note_off_c, 0, 72, 64
2, 24840, Note_on_c, 0, 70, 64
2, 25320, Note_off_c, 0, 70, 64
2, 25320, Note_on_c, 0, 69, 64
2, 25440, Note_off_c, 0, 69, 64
2, 25440, Note_on_c, 0, 67, 64
2, 25560, Note_off_c, 0, 67, 64
2, 25560, Note_on_c, 0, 66, 64
2, 25920, Note_off_c, 0, 66, 64
2, 25920, Note_on_c, 0, 67, 64
2, 26040, Note_off_c, 0, 67, 64
2, 26040, Note_on_c, 0, 62, 64
2, 26160, Note_off_c, 0, 62, 64
2, 26160, Note_on_c, 0, 70, 64
2, 26280, Note_off_c, 0, 70, 64
2, 26280, Note_on_c, 0, 70, 64
2, 26400, Note_off_c, 0, 70, 64
2, 26400, Note_on_c, 0, 67, 64
2, 26520, Note_off_c, 0, 67, 64
2, 26520, Note_on_c, 0, 73, 64
2, 26640, Note_off_c, 0, 73, 64
2, 26640, Note_on_c, 0, 73, 64
2, 27360, Note_off_c, 0, 73, 64
2, 27480, Note_on_c, 0, 70, 64
2, 27600, Note_off_c, 0, 70, 64
2, 27600, Note_on_c, 0, 76, 64
2, 27720, Note_off_c, 0, 76, 64
2, 27720, Note_on_c, 0, 76, 64
2, 27840, Note_off_c, 0, 76, 64
2, 27840, Note_on_c, 0, 72, 64
2, 27960, Note_off_c, 0, 72, 64
2, 27960, Note_on_c, 0, 79, 64
2, 28080, Note_off_c, 0, 79, 64
2, 28080, Note_on_c, 0, 80, 64
2, 29210, Note_off_c, 0, 80, 64
2, 29220, Note_on_c, 0, 82, 64
2, 29280, Note_off_c, 0, 82, 64
2, 29280, Note_on_c, 0, 80, 64
2, 29340, Note_off_c, 0, 80, 64
2, 29340, Note_on_c, 0, 79, 64
2, 29400, Note_off_c, 0, 79, 64
2, 29400, Note_on_c, 0, 77, 64
2, 29460, Note_off_c, 0, 77, 64
2, 29460, Note_on_c, 0, 75, 64
2, 29520, Note_off_c, 0, 75, 64
2, 29520, Note_on_c, 0, 74, 64
2, 29580, Note_off_c, 0, 74, 64
2, 29580, Note_on_c, 0, 75, 64
2, 29640, Note_off_c, 0, 75, 64
2, 29640, Note_on_c, 0, 74, 64
2, 29700, Note_off_c, 0, 74, 64
2, 29700, Note_on_c, 0, 72, 64
2, 29760, Note_off_c, 0, 72, 64
2, 29760, Note_on_c, 0, 70, 64
2, 29820, Note_off_c, 0, 70, 64
2, 29820, Note_on_c, 0, 72, 64
2, 29880, Note_off_c, 0, 72, 64
2, 29880, Note_on_c, 0, 74, 64
2, 29940, Note_off_c, 0, 74, 64
2, 29940, Note_on_c, 0, 75, 64
2, 30000, Note_off_c, 0, 75, 64
2, 30000, Note_on_c, 0, 77, 64
2, 30060, Note_off_c, 0, 77, 64
2, 30060, Note_on_c, 0, 79, 64
2, 30120, Note_off_c, 0, 79, 64
2, 30120, Note_on_c, 0, 80, 64
2, 30180, Note_off_c, 0, 80, 64
2, 30180, Note_on_c, 0, 82, 64
2, 30240, Note_off_c, 0, 82, 64
2, 30240, Note_on_c, 0, 84, 64
2, 30300, Note_off_c, 0, 84, 64
2, 30300, Note_on_c, 0, 82, 64
2, 30360, Note_off_c, 0, 82, 64
2, 30360, Note_on_c, 0, 80, 64
2, 30420, Note_off_c, 0, 80, 64
2, 30420, Note_on_c, 0, 79, 64
2, 30480, Note_off_c, 0, 79, 64
2, 30480, Note_on_c, 0, 77, 64
2, 30540, Note_off_c, 0, 77, 64
2, 30540, Note_on_c, 0, 75, 64
2, 30600, Note_off_c, 0, 75, 64
2, 30600, Note_on_c, 0, 77, 64
2, 30660, Note_off_c, 0, 77, 64
2, 30660, Note_on_c, 0, 79, 64
2, 30720, Note_off_c, 0, 79, 64
2, 30720, Note_on_c, 0, 80, 64
2, 30780, Note_off_c, 0, 80, 64
2, 30780, Note_on_c, 0, 84, 64
2, 30840, Note_off_c, 0, 84, 64
2, 30840, Note_on_c, 0, 82, 64
2, 30900, Note_off_c, 0, 82, 64
2, 30900, Note_on_c, 0, 80, 64
2, 30960, Note_off_c, 0, 80, 64
2, 30960, Note_on_c, 0, 79, 64
2, 31920, Note_off_c, 0, 79, 64
2, 31920, Note_on_c, 0, 79, 64
2, 32040, Note_off_c, 0, 79, 64
2, 32040, Note_on_c, 0, 79, 64
2, 32160, Note_off_c, 0, 79, 64
2, 32160, Note_on_c, 0, 75, 64
2, 32280, Note_off_c, 0, 75, 64
2, 32280, Note_on_c, 0, 84, 64
2, 32400, Note_off_c, 0, 84, 64
2, 32400, Note_on_c, 0, 77, 64
2, 33360, Note_off_c, 0, 77, 64
2, 33360, Note_on_c, 0, 77, 64
2, 33480, Note_off_c, 0, 77, 64
2, 33480, Note_on_c, 0, 77, 64
2, 33600, Note_off_c, 0, 77, 64
2, 33600, Note_on_c, 0, 74, 64
2, 33720, Note_off_c, 0, 74, 64
2, 33720, Note_on_c, 0, 83, 64
2, 33840, Note_off_c, 0, 83, 64
2, 33840, Note_on_c, 0, 75, 64
2, 34680, Note_off_c, 0, 75, 64
2, 34680, Note_on_c, 0, 80, 64
2, 34740, Note_off_c, 0, 80, 64
2, 34740, Note_on_c, 0, 79, 64
2, 34800, Note_off_c, 0, 79, 64
2, 34800, Note_on_c, 0, 77, 64
2, 34860, Note_off_c, 0, 77, 64
2, 34860, Note_on_c, 0, 75, 64
2, 34920, Note_off_c, 0, 75, 64
2, 34920, Note_on_c, 0, 74, 64
2, 34980, Note_off_c, 0, 74, 64
2, 34980, Note_on_c, 0, 75, 64
2, 35040, Note_off_c, 0, 75, 64
2, 35040, Note_on_c, 0, 74, 64
2, 35100, Note_off_c, 0, 74, 64
2, 35100, Note_on_c, 0, 72, 64
2, 35160, Note_off_c, 0, 72, 64
2, 35160, Note_on_c, 0, 71, 64
2, 35220, Note_off_c, 0, 71, 64
2, 35220, Note_on_c, 0, 69, 64
2, 35280, Note_off_c, 0, 69, 64
2, 35280, Note_on_c, 0, 70, 64
2, 35640, Note_off_c, 0, 70, 64
2, 35640, Note_on_c, 0, 72, 64
2, 36000, Note_off_c, 0, 72, 64
2, 36000, Note_on_c, 0, 77, 64
2, 36960, Note_off_c, 0, 77, 64
2, 36960, Note_on_c, 0, 75, 64
2, 37200, Note_off_c, 0, 75, 64
2, 37200, Note_on_c, 0, 74, 64
2, 37320, Note_off_c, 0, 74, 64
2, 37320, Note_on_c, 0, 77, 64
2, 37440, Note_off_c, 0, 77, 64
2, 37440, Note_on_c, 0, 71, 64
2, 37800, Note_off_c, 0, 71, 64
2, 37800, Note_on_c, 0, 72, 64
2, 38160, Note_off_c, 0, 72, 64
2, 38160, Note_on_c, 0, 74, 64
2, 38400, Note_off_c, 0, 74, 64
2, 38400, Note_on_c, 0, 72, 64
2, 38760, Note_off_c, 0, 72, 64
2, 38760, Note_on_c, 0, 71, 64
2, 38880, Note_off_c, 0, 71, 64
2, 38880, Note_on_c, 0, 72, 64
2, 39120, Note_off_c, 0, 72, 64
2, 39120, Note_on_c, 0, 79, 64
2, 39240, Note_off_c, 0, 79, 64
2, 39240, Note_on_c, 0, 72, 64
2, 39480, Note_off_c, 0, 72, 64
2, 39480, Note_on_c, 0, 75, 64
2, 39600, Note_off_c, 0, 75, 64
2, 39600, Note_on_c, 0, 68, 64
2, 39840, Note_off_c, 0, 68, 64
2, 40560, Note_on_c, 0, 77, 64
2, 40680, Note_off_c, 0, 77, 64
2, 40680, Note_on_c, 0, 70, 64
2, 40920, Note_off_c, 0, 70, 64
2, 40920, Note_on_c, 0, 74, 64
2, 41040, Note_off_c, 0, 74, 64
2, 41040, Note_on_c, 0, 67, 64
2, 41100, Note_off_c, 0, 67, 64
2, 41100, Note_on_c, 0, 70, 64
2, 41160, Note_off_c, 0, 70, 64
2, 41160, Note_on_c, 0, 72, 64
2, 41220, Note_off_c, 0, 72, 64
2, 41220, Note_on_c, 0, 74, 64
2, 41280, Note_off_c, 0, 74, 64
2, 41280, Note_on_c, 0, 75, 64
2, 41340, Note_off_c, 0, 75, 64
2, 41340, Note_on_c, 0, 77, 64
2, 41400, Note_off_c, 0, 77, 64
2, 41400, Note_on_c, 0, 79, 64
2, 41460, Note_off_c, 0, 79, 64
2, 41460, Note_on_c, 0, 80, 64
2, 41520, Note_off_c, 0, 80, 64
2, 41520, Note_on_c, 0, 79, 64
2, 41580, Note_off_c, 0, 79, 64
2, 41580, Note_on_c, 0, 77, 64
2, 41640, Note_off_c, 0, 77, 64
2, 41640, Note_on_c, 0, 75, 64
2, 41700, Note_off_c, 0, 75, 64
2, 41700, Note_on_c, 0, 74, 64
2, 41760, Note_off_c, 0, 74, 64
2, 41760, Note_on_c, 0, 74, 70
2, 41800, Note_off_c, 0, 74, 64
2, 41800, Note_on_c, 0, 72, 48
2, 41840, Note_on_c, 0, 74, 48
2, 41844, Note_off_c, 0, 72, 64
2, 41880, Note_on_c, 0, 72, 48
2, 41884, Note_off_c, 0, 74, 64
2, 41920, Note_on_c, 0, 74, 49
2, 41924, Note_off_c, 0, 72, 64
2, 41960, Note_on_c, 0, 72, 49
2, 41964, Note_off_c, 0, 74, 64
2, 42000, Note_on_c, 0, 74, 50
2, 42004, Note_off_c, 0, 72, 64
2, 42040, Note_on_c, 0, 72, 50
2, 42044, Note_off_c, 0, 74, 64
2, 42080, Note_on_c, 0, 74, 50
2, 42084, Note_off_c, 0, 72, 64
2, 42120, Note_on_c, 0, 72, 51
2, 42124, Note_off_c, 0, 74, 64
2, 42160, Note_on_c, 0, 74, 51
2, 42164, Note_off_c, 0, 72, 64
2, 42200, Note_on_c, 0, 72, 51
2, 42204, Note_off_c, 0, 74, 64
2, 42240, Note_on_c, 0, 74, 52
2, 42244, Note_off_c, 0, 72, 64
2, 42280, Note_on_c, 0, 72, 52
2, 42284, Note_off_c, 0, 74, 64
2, 42320, Note_on_c, 0, 74, 53
2, 42324, Note_off_c, 0, 72, 64
2, 42360, Note_on_c, 0, 72, 53
2, 42364, Note_off_c, 0, 74, 64
2, 42400, Note_on_c, 0, 74, 53
2, 42404, Note_off_c, 0, 72, 64
2, 42440, Note_on_c, 0, 72, 54
2, 42444, Note_off_c, 0, 74, 64
2, 42480, Note_on_c, 0, 74, 54
2, 42484, Note_off_c, 0, 72, 64
2, 42520, Note_on_c, 0, 72, 54
2, 42524, Note_off_c, 0, 74, 64
2, 42560, Note_on_c, 0, 74, 55
2, 42564, Note_off_c, 0, 72, 64
2, 42600, Note_on_c, 0, 72, 55
2, 42604, Note_off_c, 0, 74, 64
2, 42640, Note_on_c, 0, 74, 55
2, 42644, Note_off_c, 0, 72, 64
2, 42680, Note_on_c, 0, 72, 56
2, 42684, Note_off_c, 0, 74, 64
2, 42720, Note_on_c, 0, 74, 56
2, 42724, Note_off_c, 0, 72, 64
2, 42760, Note_on_c, 0, 72, 57
2, 42764, Note_off_c, 0, 74, 64
2, 42800, Note_on_c, 0, 74, 57
2, 42804, Note_off_c, 0, 72, 64
2, 42840, Note_on_c, 0, 72, 57
2, 42844, Note_off_c, 0, 74, 64
2, 42880, Note_on_c, 0, 74, 58
2, 42884, Note_off_c, 0, 72, 64
2, 42920, Note_on_c, 0, 72, 58
2, 42924, Note_off_c, 0, 74, 64
2, 42960, Note_on_c, 0, 74, 58
2, 42964, Note_off_c, 0, 72, 64
2, 43000, Note_on_c, 0, 72, 59
2, 43004, Note_off_c, 0, 74, 64
2, 43040, Note_on_c, 0, 74, 59
2, 43044, Note_off_c, 0, 72, 64
2, 43080, Note_on_c, 0, 72, 60
2, 43084, Note_off_c, 0, 74, 64
2, 43120, Note_on_c, 0, 74, 60
2, 43124, Note_off_c, 0, 72, 64
2, 43160, Note_on_c, 0, 72, 60
2, 43164, Note_off_c, 0, 74, 64
2, 43200, Note_on_c, 0, 74, 61
2, 43204, Note_off_c, 0, 72, 64
2, 43240, Note_on_c, 0, 72, 61
2, 43244, Note_off_c, 0, 74, 64
2, 43280, Note_on_c, 0, 74, 61
2, 43284, Note_off_c, 0, 72, 64
2, 43320, Note_on_c, 0, 72, 62
2, 43324, Note_off_c, 0, 74, 64
2, 43360, Note_on_c, 0, 74, 62
2, 43364, Note_off_c, 0, 72, 64
2, 43400, Note_on_c, 0, 72, 63
2, 43404, Note_off_c, 0, 74, 64
2, 43440, Note_on_c, 0, 74, 63
2, 43444, Note_off_c, 0, 72, 64
2, 43480, Note_on_c, 0, 72, 63
2, 43484, Note_off_c, 0, 74, 64
2, 43560, Note_on_c, 0, 71, 64
2, 43568, Note_off_c, 0, 72, 64
2, 43680, Note_off_c, 0, 71, 64
2, 43680, Note_on_c, 0, 72, 68
2, 43720, Note_off_c, 0, 72, 64
2, 43728, Note_on_c, 0, 71, 48
2, 43768, Note_off_c, 0, 71, 64
2, 43768, Note_on_c, 0, 72, 53
2, 43800, Note_on_c, 0, 74, 64
2, 43808, Note_off_c, 0, 72, 64
2, 43920, Note_off_c, 0, 74, 64
2, 43920, Note_on_c, 0, 67, 64
2, 44640, Note_off_c, 0, 67, 64
2, 44700, Note_on_c, 0, 71, 64
2, 44760, Note_off_c, 0, 71, 64
2, 44760, Note_on_c, 0, 72, 64
2, 44820, Note_off_c, 0, 72, 64
2, 44820, Note_on_c, 0, 74, 64
2, 44880, Note_off_c, 0, 74, 64
2, 44880, Note_on_c, 0, 75, 64
2, 44940, Note_off_c, 0, 75, 64
2, 44940, Note_on_c, 0, 77, 64
2, 45000, Note_off_c, 0, 77, 64
2, 45000, Note_on_c, 0, 79, 64
2, 45120, Note_off_c, 0, 79, 64
2, 45120, Note_on_c, 0, 72, 64
2, 45240, Note_off_c, 0, 72, 64
2, 45240, Note_on_c, 0, 71, 64
2, 45360, Note_off_c, 0, 71, 64
2, 45360, Note_on_c, 0, 72, 64
2, 46440, Note_off_c, 0, 72, 64
2, 46440, End_track
3, 0, Start_track
3, 0, Text_t, "RH/LH"
3, 2880, Note_on_c, 0, 60, 64
3, 3000, Note_off_c, 0, 60, 64
3, 3000, Note_on_c, 0, 55, 64
3, 3120, Note_off_c, 0, 55, 64
3, 3120, Note_on_c, 0, 63, 64
3, 3240, Note_off_c, 0, 63, 64
3, 3240, Note_on_c, 0, 63, 64
3, 3360, Note_off_c, 0, 63, 64
3, 3360, Note_on_c, 0, 60, 64
3, 3480, Note_off_c, 0, 60, 64
3, 3480, Note_on_c, 0, 67, 64
3, 3600, Note_off_c, 0, 67, 64
3, 3600, Note_on_c, 0, 67, 68
3, 3640, Note_off_c, 0, 67, 64
3, 3640, Note_on_c, 0, 65, 48
3, 3680, Note_off_c, 0, 65, 64
3, 3680, Note_on_c, 0, 67, 64
3, 3960, Note_off_c, 0, 67, 64
3, 3960, Note_on_c, 0, 55, 64
3, 4320, Note_off_c, 0, 55, 64
3, 4320, Note_on_c, 0, 60, 64
3, 4440, Note_off_c, 0, 60, 64
3, 4440, Note_on_c, 0, 62, 64
3, 4560, Note_off_c, 0, 62, 64
3, 4560, Note_on_c, 0, 63, 64
3, 4680, Note_off_c, 0, 63, 64
3, 4680, Note_on_c, 0, 65, 64
3, 4800, Note_off_c, 0, 65, 64
3, 4800, Note_on_c, 0, 67, 64
3, 4920, Note_off_c, 0, 67, 64
3, 4920, Note_on_c, 0, 68, 64
3, 5040, Note_off_c, 0, 68, 64
3, 5040, Note_on_c, 0, 59, 64
3, 5160, Note_off_c, 0, 59, 64
3, 5160, Note_on_c, 0, 68, 64
3, 5280, Note_off_c, 0, 68, 64
3, 5280, Note_on_c, 0, 67, 64
3, 5400, Note_off_c, 0, 67, 64
3, 5400, Note_on_c, 0, 65, 64
3, 5520, Note_off_c, 0, 65, 64
3, 5520, Note_on_c, 0, 63, 64
3, 5640, Note_off_c, 0, 63, 64
3, 5640, Note_on_c, 0, 62, 64
3, 5760, Note_off_c, 0, 62, 64
3, 5760, Note_on_c, 0, 63, 64
3, 6000, Note_off_c, 0, 63, 64
3, 6540, Note_on_c, 0, 60, 64
3, 6600, Note_off_c, 0, 60, 64
3, 6600, Note_on_c, 0, 62, 64
3, 6660, Note_off_c, 0, 62, 64
3, 6660, Note_on_c, 0, 63, 64
3, 6720, Note_off_c, 0, 63, 64
3, 6720, Note_on_c, 0, 65, 64
3, 6780, Note_off_c, 0, 65, 64
3, 6780, Note_on_c, 0, 67, 64
3, 6840, Note_off_c, 0, 67, 64
3, 6840, Note_on_c, 0, 68, 64
3, 6900, Note_off_c, 0, 68, 64
3, 6900, Note_on_c, 0, 70, 64
3, 6960, Note_off_c, 0, 70, 64
3, 6960, Note_on_c, 0, 68, 64
3, 7020, Note_off_c, 0, 68, 64
3, 7020, Note_on_c, 0, 67, 64
3, 7080, Note_off_c, 0, 67, 64
3, 7080, Note_on_c, 0, 65, 64
3, 7140, Note_off_c, 0, 65, 64
3, 7140, Note_on_c, 0, 63, 64
3, 7200, Note_off_c, 0, 63, 64
3, 7200, Note_on_c, 0, 62, 64
3, 7440, Note_off_c, 0, 62, 64
3, 7980, Note_on_c, 0, 58, 64
3, 8040, Note_off_c, 0, 58, 64
3, 8040, Note_on_c, 0, 60, 64
3, 8100, Note_off_c, 0, 60, 64
3, 8100, Note_on_c, 0, 62, 64
3, 8160, Note_off_c, 0, 62, 64
3, 8160, Note_on_c, 0, 63, 64
3, 8220, Note_off_c, 0, 63, 64
3, 8220, Note_on_c, 0, 65, 64
3, 8280, Note_off_c, 0, 65, 64
3, 8280, Note_on_c, 0, 67, 64
3, 8340, Note_off_c, 0, 67, 64
3, 8340, Note_on_c, 0, 68, 64
3, 8400, Note_off_c, 0, 68, 64
3, 8400, Note_on_c, 0, 67, 64
3, 8460, Note_off_c, 0, 67, 64
3, 8460, Note_on_c, 0, 65, 64
3, 8520, Note_off_c, 0, 65, 64
3, 8520, Note_on_c, 0, 63, 64
3, 8580, Note_off_c, 0, 63, 64
3, 8580, Note_on_c, 0, 62, 64
3, 8640, Note_off_c, 0, 62, 64
3, 8640, Note_on_c, 0, 60, 64
3, 8880, Note_off_c, 0, 60, 64
3, 9240, Note_on_c, 0, 72, 64
3, 9360, Note_off_c, 0, 72, 64
3, 9360, Note_on_c, 0, 70, 64
3, 9950, Note_off_c, 0, 70, 64
3, 9960, Note_on_c, 0, 72, 64
3, 10080, Note_off_c, 0, 72, 64
3, 10080, Note_on_c, 0, 68, 64
3, 10670, Note_off_c, 0, 68, 64
3, 10680, Note_on_c, 0, 70, 64
3, 10800, Note_off_c, 0, 70, 64
3, 10800, Note_on_c, 0, 67, 64
3, 11040, Note_off_c, 0, 67, 64
3, 12600, Note_on_c, 0, 67, 64
3, 12960, Note_off_c, 0, 67, 64
3, 12960, Note_on_c, 0, 66, 64
3, 13080, Note_off_c, 0, 66, 64
3, 13080, Note_on_c, 0, 64, 64
3, 13200, Note_off_c, 0, 64, 64
3, 13200, Note_on_c, 0, 62, 64
3, 13320, Note_off_c, 0, 62, 64
3, 13320, Note_on_c, 0, 72, 64
3, 13440, Note_off_c, 0, 72, 64
3, 13440, Note_on_c, 0, 70, 64
3, 13560, Note_off_c, 0, 70, 64
3, 13560, Note_on_c, 0, 69, 64
3, 13680, Note_off_c, 0, 69, 64
3, 13680, Note_on_c, 0, 70, 64
3, 13800, Note_off_c, 0, 70, 64
3, 13800, Note_on_c, 0, 72, 64
3, 13920, Note_off_c, 0, 72, 64
3, 13920, Note_on_c, 0, 70, 64
3, 14040, Note_off_c, 0, 70, 64
3, 14040, Note_on_c, 0, 69, 64
3, 14160, Note_off_c, 0, 69, 64
3, 14160, Note_on_c, 0, 70, 64
3, 14280, Note_off_c, 0, 70, 64
3, 14280, Note_on_c, 0, 67, 64
3, 14400, Note_off_c, 0, 67, 64
3, 14400, Note_on_c, 0, 74, 64
3, 14520, Note_off_c, 0, 74, 64
3, 14520, Note_on_c, 0, 72, 64
3, 14640, Note_off_c, 0, 72, 64
3, 14640, Note_on_c, 0, 70, 64
3, 14760, Note_off_c, 0, 70, 64
3, 14760, Note_on_c, 0, 69, 64
3, 14880, Note_off_c, 0, 69, 64
3, 14880, Note_on_c, 0, 67, 64
3, 15000, Note_off_c, 0, 67, 64
3, 15000, Note_on_c, 0, 66, 64
3, 15120, Note_off_c, 0, 66, 64
3, 15120, Note_on_c, 0, 67, 70
3, 15160, Note_off_c, 0, 67, 64
3, 15160, Note_on_c, 0, 66, 48
3, 15200, Note_off_c, 0, 66, 64
3, 15200, Note_on_c, 0, 67, 64
3, 15360, Note_off_c, 0, 67, 64
3, 15480, Note_on_c, 0, 62, 64
3, 15720, Note_off_c, 0, 62, 64
3, 15840, Note_on_c, 0, 69, 64
3, 16080, Note_off_c, 0, 69, 64
3, 16200, Note_on_c, 0, 66, 64
3, 16440, Note_off_c, 0, 66, 64
3, 16560, Note_on_c, 0, 67, 64
3, 16800, Note_off_c, 0, 67, 64
3, 18000, Note_on_c, 0, 67, 64
3, 18120, Note_off_c, 0, 67, 64
3, 18120, Note_on_c, 0, 62, 64
3, 18240, Note_off_c, 0, 62, 64
3, 18240, Note_on_c, 0, 70, 64
3, 18360, Note_off_c, 0, 70, 64
3, 18360, Note_on_c, 0, 70, 64
3, 18480, Note_off_c, 0, 70, 64
3, 18480, Note_on_c, 0, 67, 64
3, 18600, Note_off_c, 0, 67, 64
3, 18600, Note_on_c, 0, 74, 64
3, 18720, Note_off_c, 0, 74, 64
3, 18720, Note_on_c, 0, 63, 64
3, 18960, Note_off_c, 0, 63, 64
3, 19440, Note_on_c, 0, 65, 64
3, 19560, Note_off_c, 0, 65, 64
3, 19560, Note_on_c, 0, 60, 64
3, 19680, Note_off_c, 0, 60, 64
3, 19680, Note_on_c, 0, 69, 64
3, 19800, Note_off_c, 0, 69, 64
3, 19800, Note_on_c, 0, 69, 64
3, 19920, Note_off_c, 0, 69, 64
3, 19920, Note_on_c, 0, 65, 64
3, 20040, Note_off_c, 0, 65, 64
3, 20040, Note_on_c, 0, 72, 64
3, 20160, Note_off_c, 0, 72, 64
3, 20160, Note_on_c, 0, 62, 64
3, 20400, Note_off_c, 0, 62, 64
3, 20880, Note_on_c, 0, 63, 64
3, 21000, Note_off_c, 0, 63, 64
3, 21000, Note_on_c, 0, 58, 64
3, 21120, Note_off_c, 0, 58, 64
3, 21120, Note_on_c, 0, 67, 64
3, 21240, Note_off_c, 0, 67, 64
3, 21240, Note_on_c, 0, 67, 64
3, 21360, Note_off_c, 0, 67, 64
3, 21360, Note_on_c, 0, 63, 64
3, 21480, Note_off_c, 0, 63, 64
3, 21480, Note_on_c, 0, 70, 64
3, 21600, Note_off_c, 0, 70, 64
3, 21600, Note_on_c, 0, 62, 64
3, 21720, Note_off_c, 0, 62, 64
3, 21720, Note_on_c, 0, 58, 64
3, 21840, Note_off_c, 0, 58, 64
3, 21840, Note_on_c, 0, 65, 64
3, 21960, Note_off_c, 0, 65, 64
3, 21960, Note_on_c, 0, 65, 64
3, 22080, Note_off_c, 0, 65, 64
3, 22080, Note_on_c, 0, 62, 64
3, 22200, Note_off_c, 0, 62, 64
3, 22200, Note_on_c, 0, 70, 64
3, 22320, Note_off_c, 0, 70, 64
3, 22320, Note_on_c, 0, 60, 64
3, 22440, Note_off_c, 0, 60, 64
3, 22440, Note_on_c, 0, 62, 64
3, 22560, Note_off_c, 0, 62, 64
3, 22560, Note_on_c, 0, 63, 64
3, 22680, Note_off_c, 0, 63, 64
3, 22680, Note_on_c, 0, 65, 64
3, 22800, Note_off_c, 0, 65, 64
3, 22800, Note_on_c, 0, 67, 64
3, 22920, Note_off_c, 0, 67, 64
3, 22920, Note_on_c, 0, 69, 64
3, 23040, Note_off_c, 0, 69, 64
3, 23040, Note_on_c, 0, 58, 64
3, 23280, Note_off_c, 0, 58, 64
3, 23640, Note_on_c, 0, 67, 64
3, 23760, Note_off_c, 0, 67, 64
3, 23760, Note_on_c, 0, 63, 64
3, 24350, Note_off_c, 0, 63, 64
3, 24360, Note_on_c, 0, 69, 64
3, 24480, Note_off_c, 0, 69, 64
3, 24480, Note_on_c, 0, 66, 64
3, 24600, Note_off_c, 0, 66, 64
3, 24600, Note_on_c, 0, 74, 64
3, 24660, Note_off_c, 0, 74, 64
3, 24660, Note_on_c, 0, 72, 64
3, 24720, Note_off_c, 0, 72, 64
3, 24720, Note_on_c, 0, 70, 64
3, 24780, Note_off_c, 0, 70, 64
3, 24780, Note_on_c, 0, 69, 64
3, 24840, Note_off_c, 0, 69, 64
3, 24840, Note_on_c, 0, 67, 64
3, 24900, Note_off_c, 0, 67, 64
3, 24900, Note_on_c, 0, 69, 64
3, 24960, Note_off_c, 0, 69, 64
3, 24960, Note_on_c, 0, 67, 64
3, 25020, Note_off_c, 0, 67, 64
3, 25020, Note_on_c, 0, 65, 64
3, 25080, Note_off_c, 0, 65, 64
3, 25080, Note_on_c, 0, 63, 64
3, 25140, Note_off_c, 0, 63, 64
3, 25140, Note_on_c, 0, 62, 64
3, 25200, Note_off_c, 0, 62, 64
3, 25200, Note_on_c, 0, 63, 64
3, 25680, Note_off_c, 0, 63, 64
3, 25680, Note_on_c, 0, 57, 64
3, 25800, Note_off_c, 0, 57, 64
3, 25800, Note_on_c, 0, 60, 64
3, 25920, Note_off_c, 0, 60, 64
3, 25920, Note_on_c, 0, 58, 64
3, 26160, Note_off_c, 0, 58, 64
3, 26880, Note_on_c, 0, 70, 64
3, 27000, Note_off_c, 0, 70, 64
3, 27000, Note_on_c, 0, 67, 64
3, 27240, Note_off_c, 0, 67, 64
3, 27240, Note_on_c, 0, 70, 64
3, 27360, Note_off_c, 0, 70, 64
3, 27360, Note_on_c, 0, 64, 64
3, 27600, Note_off_c, 0, 64, 64
3, 28140, Note_on_c, 0, 77, 64
3, 28200, Note_off_c, 0, 77, 64
3, 28200, Note_on_c, 0, 75, 64
3, 28260, Note_off_c, 0, 75, 64
3, 28260, Note_on_c, 0, 73, 64
3, 28320, Note_off_c, 0, 73, 64
3, 28320, Note_on_c, 0, 72, 64
3, 28380, Note_off_c, 0, 72, 64
3, 28380, Note_on_c, 0, 70, 64
3, 28440, Note_off_c, 0, 70, 64
3, 28440, Note_on_c, 0, 68, 64
3, 28500, Note_off_c, 0, 68, 64
3, 28500, Note_on_c, 0, 70, 64
3, 28560, Note_off_c, 0, 70, 64
3, 28560, Note_on_c, 0, 68, 64
3, 28620, Note_off_c, 0, 68, 64
3, 28620, Note_on_c, 0, 67, 64
3, 28680, Note_off_c, 0, 67, 64
3, 28680, Note_on_c, 0, 65, 64
3, 28740, Note_off_c, 0, 65, 64
3, 28740, Note_on_c, 0, 63, 64
3, 28800, Note_off_c, 0, 63, 64
3, 28800, Note_on_c, 0, 62, 64
3, 28920, Note_off_c, 0, 62, 64
3, 28920, Note_on_c, 0, 58, 64
3, 29040, Note_off_c, 0, 58, 64
3, 29040, Note_on_c, 0, 65, 64
3, 29160, Note_off_c, 0, 65, 64
3, 29160, Note_on_c, 0, 65, 64
3, 29280, Note_off_c, 0, 65, 64
3, 29280, Note_on_c, 0, 62, 64
3, 29400, Note_off_c, 0, 62, 64
3, 29400, Note_on_c, 0, 68, 64
3, 29520, Note_off_c, 0, 68, 64
3, 29520, Note_on_c, 0, 68, 64
3, 30350, Note_off_c, 0, 68, 64
3, 30360, Note_on_c, 0, 65, 64
3, 30480, Note_off_c, 0, 65, 64
3, 30480, Note_on_c, 0, 74, 64
3, 30600, Note_off_c, 0, 74, 64
3, 30600, Note_on_c, 0, 74, 64
3, 30720, Note_off_c, 0, 74, 64
3, 30720, Note_on_c, 0, 70, 64
3, 30840, Note_off_c, 0, 70, 64
3, 30840, Note_on_c, 0, 74, 64
3, 30960, Note_off_c, 0, 74, 64
3, 30960, Note_on_c, 0, 75, 64
3, 31790, Note_off_c, 0, 75, 64
3, 31800, Note_on_c, 0, 74, 64
3, 32280, Note_off_c, 0, 74, 64
3, 32280, Note_on_c, 0, 75, 64
3, 32400, Note_off_c, 0, 75, 64
3, 32400, Note_on_c, 0, 74, 64
3, 33230, Note_off_c, 0, 74, 64
3, 33240, Note_on_c, 0, 71, 64
3, 33720, Note_off_c, 0, 71, 64
3, 33720, Note_on_c, 0, 74, 64
3, 33840, Note_off_c, 0, 74, 64
3, 33840, Note_on_c, 0, 72, 64
3, 34800, Note_off_c, 0, 72, 64
3, 35400, Note_on_c, 0, 67, 64
3, 35460, Note_off_c, 0, 67, 64
3, 35460, Note_on_c, 0, 65, 64
3, 35520, Note_off_c, 0, 65, 64
3, 35520, Note_on_c, 0, 63, 64
3, 35580, Note_off_c, 0, 63, 64
3, 35580, Note_on_c, 0, 62, 64
3, 35640, Note_off_c, 0, 62, 64
3, 35640, Note_on_c, 0, 60, 64
3, 35700, Note_off_c, 0, 60, 64
3, 35700, Note_on_c, 0, 62, 64
3, 35760, Note_off_c, 0, 62, 64
3, 35760, Note_on_c, 0, 60, 64
3, 35820, Note_off_c, 0, 60, 64
3, 35820, Note_on_c, 0, 58, 64
3, 35880, Note_off_c, 0, 58, 64
3, 35880, Note_on_c, 0, 56, 64
3, 35940, Note_off_c, 0, 56, 64
3, 35940, Note_on_c, 0, 55, 64
3, 36000, Note_off_c, 0, 55, 64
3, 36000, Note_on_c, 0, 56, 64
3, 36240, Note_off_c, 0, 56, 64
3, 36240, Note_on_c, 0, 68, 64
3, 36480, Note_off_c, 0, 68, 64
3, 36480, Note_on_c, 0, 65, 64
3, 36600, Note_off_c, 0, 65, 64
3, 36600, Note_on_c, 0, 71, 64
3, 36840, Note_off_c, 0, 71, 64
3, 36840, Note_on_c, 0, 67, 64
3, 36960, Note_off_c, 0, 67, 64
3, 36960, Note_on_c, 0, 72, 64
3, 37080, Note_off_c, 0, 72, 64
3, 37080, Note_on_c, 0, 68, 64
3, 37560, Note_off_c, 0, 68, 64
3, 37560, Note_on_c, 0, 67, 64
3, 37680, Note_off_c, 0, 67, 64
3, 37680, Note_on_c, 0, 65, 64
3, 37800, Note_off_c, 0, 65, 64
3, 37800, Note_on_c, 0, 63, 64
3, 37920, Note_off_c, 0, 63, 64
3, 37920, Note_on_c, 0, 62, 64
3, 38040, Note_off_c, 0, 62, 64
3, 38040, Note_on_c, 0, 60, 64
3, 38160, Note_off_c, 0, 60, 64
3, 38160, Note_on_c, 0, 65, 64
3, 38400, Note_off_c, 0, 65, 64
3, 38400, Note_on_c, 0, 63, 64
3, 38520, Note_off_c, 0, 63, 64
3, 38520, Note_on_c, 0, 62, 64
3, 38880, Note_off_c, 0, 62, 64
3, 38880, Note_on_c, 0, 63, 64
3, 39120, Note_off_c, 0, 63, 64
3, 39660, Note_on_c, 0, 60, 64
3, 39720, Note_off_c, 0, 60, 64
3, 39720, Note_on_c, 0, 62, 64
3, 39780, Note_off_c, 0, 62, 64
3, 39780, Note_on_c, 0, 63, 64
3, 39840, Note_off_c, 0, 63, 64
3, 39840, Note_on_c, 0, 65, 64
3, 39900, Note_off_c, 0, 65, 64
3, 39900, Note_on_c, 0, 67, 64
3, 39960, Note_off_c, 0, 67, 64
3, 39960, Note_on_c, 0, 68, 64
3, 40020, Note_off_c, 0, 68, 64
3, 40020, Note_on_c, 0, 70, 64
3, 40080, Note_off_c, 0, 70, 64
3, 40080, Note_on_c, 0, 68, 64
3, 40140, Note_off_c, 0, 68, 64
3, 40140, Note_on_c, 0, 67, 64
3, 40200, Note_off_c, 0, 67, 64
3, 40200, Note_on_c, 0, 65, 64
3, 40260, Note_off_c, 0, 65, 64
3, 40260, Note_on_c, 0, 63, 64
3, 40320, Note_off_c, 0, 63, 64
3, 40320, Note_on_c, 0, 62, 64
3, 40440, Note_off_c, 0, 62, 64
3, 40440, Note_on_c, 0, 53, 64
3, 40560, Note_off_c, 0, 53, 64
3, 40560, Note_on_c, 0, 62, 64
3, 40680, Note_off_c, 0, 62, 64
3, 40680, Note_on_c, 0, 62, 64
3, 40800, Note_off_c, 0, 62, 64
3, 40800, Note_on_c, 0, 58, 64
3, 40920, Note_off_c, 0, 58, 64
3, 40920, Note_on_c, 0, 65, 64
3, 41040, Note_off_c, 0, 65, 64
3, 41040, Note_on_c, 0, 63, 64
3, 41160, Note_off_c, 0, 63, 64
3, 41160, Note_on_c, 0, 60, 64
3, 41280, Note_off_c, 0, 60, 64
3, 41280, Note_on_c, 0, 67, 64
3, 41400, Note_off_c, 0, 67, 64
3, 41400, Note_on_c, 0, 67, 64
3, 41520, Note_off_c, 0, 67, 64
3, 41520, Note_on_c, 0, 63, 64
3, 41640, Note_off_c, 0, 63, 64
3, 41640, Note_on_c, 0, 70, 64
3, 41760, Note_off_c, 0, 70, 64
3, 41760, Note_on_c, 0, 68, 64
3, 42120, Note_off_c, 0, 68, 64
3, 42360, Note_on_c, 0, 68, 64
3, 42480, Note_off_c, 0, 68, 64
3, 42480, Note_on_c, 0, 67, 64
3, 43070, Note_off_c, 0, 67, 64
3, 43080, Note_on_c, 0, 68, 64
3, 43200, Note_off_c, 0, 68, 64
3, 43200, Note_on_c, 0, 65, 64
3, 43970, Note_off_c, 0, 65, 64
3, 43980, Note_on_c, 0, 55, 64
3, 44040, Note_off_c, 0, 55, 64
3, 44040, Note_on_c, 0, 57, 64
3, 44100, Note_off_c, 0, 57, 64
3, 44100, Note_on_c, 0, 59, 64
3, 44160, Note_off_c, 0, 59, 64
3, 44160, Note_on_c, 0, 60, 64
3, 44220, Note_off_c, 0, 60, 64
3, 44220, Note_on_c, 0, 62, 64
3, 44280, Note_off_c, 0, 62, 64
3, 44280, Note_on_c, 0, 63, 64
3, 44340, Note_off_c, 0, 63, 64
3, 44340, Note_on_c, 0, 62, 64
3, 44400, Note_off_c, 0, 62, 64
3, 44400, Note_on_c, 0, 60, 64
3, 44460, Note_off_c, 0, 60, 64
3, 44460, Note_on_c, 0, 62, 64
3, 44520, Note_off_c, 0, 62, 64
3, 44520, Note_on_c, 0, 63, 64
3, 44580, Note_off_c, 0, 63, 64
3, 44580, Note_on_c, 0, 65, 64
3, 44640, Note_off_c, 0, 65, 64
3, 44640, Note_on_c, 0, 67, 64
3, 44880, Note_off_c, 0, 67, 64
3, 45120, Note_on_c, 0, 63, 64
3, 45240, Note_off_c, 0, 63, 64
3, 45240, Note_on_c, 0, 62, 64
3, 45360, Note_off_c, 0, 62, 64
3, 45360, Note_on_c, 0, 64, 64
3, 46440, Note_off_c, 0, 64, 64
3, 46440, End_track
4, 0, Start_track
4, 0, Text_t, "LH"
4, 0, Note_on_c, 0, 48, 64
4, 360, Note_off_c, 0, 48, 64
4, 360, Note_on_c, 0, 60, 64
4, 720, Note_off_c, 0, 60, 64
4, 720, Note_on_c, 0, 59, 64
4, 840, Note_off_c, 0, 59, 64
4, 840, Note_on_c, 0, 57, 64
4, 960, Note_off_c, 0, 57, 64
4, 960, Note_on_c, 0, 55, 64
4, 1080, Note_off_c, 0, 55, 64
4, 1080, Note_on_c, 0, 65, 64
4, 1200, Note_off_c, 0, 65, 64
4, 1200, Note_on_c, 0, 63, 64
4, 1320, Note_off_c, 0, 63, 64
4, 1320, Note_on_c, 0, 62, 64
4, 1440, Note_off_c, 0, 62, 64
4, 1440, Note_on_c, 0, 63, 64
4, 1680, Note_off_c, 0, 63, 64
4, 1680, Note_on_c, 0, 62, 64
4, 1800, Note_off_c, 0, 62, 64
4, 1800, Note_on_c, 0, 56, 64
4, 2040, Note_off_c, 0, 56, 64
4, 2040, Note_on_c, 0, 53, 64
4, 2160, Note_off_c, 0, 53, 64
4, 2160, Note_on_c, 0, 55, 64
4, 2400, Note_off_c, 0, 55, 64
4, 2400, Note_on_c, 0, 57, 64
4, 2520, Note_off_c, 0, 57, 64
4, 2520, Note_on_c, 0, 59, 64
4, 2760, Note_off_c, 0, 59, 64
4, 2760, Note_on_c, 0, 55, 64
4, 2880, Note_off_c, 0, 55, 64
4, 2880, Note_on_c, 0, 60, 64
4, 3120, Note_off_c, 0, 60, 64
4, 5760, Note_on_c, 0, 60, 64
4, 5880, Note_off_c, 0, 60, 64
4, 5880, Note_on_c, 0, 55, 64
4, 6000, Note_off_c, 0, 55, 64
4, 6000, Note_on_c, 0, 63, 64
4, 6120, Note_off_c, 0, 63, 64
4, 6120, Note_on_c, 0, 63, 64
4, 6240, Note_off_c, 0, 63, 64
4, 6240, Note_on_c, 0, 60, 64
4, 6360, Note_off_c, 0, 60, 64
4, 6360, Note_on_c, 0, 67, 64
4, 6480, Note_off_c, 0, 67, 64
4, 6480, Note_on_c, 0, 56, 64
4, 6840, Note_off_c, 0, 56, 64
4, 7200, Note_on_c, 0, 58, 64
4, 7320, Note_off_c, 0, 58, 64
4, 7320, Note_on_c, 0, 53, 64
4, 7440, Note_off_c, 0, 53, 64
4, 7440, Note_on_c, 0, 62, 64
4, 7560, Note_off_c, 0, 62, 64
4, 7560, Note_on_c, 0, 62, 64
4, 7680, Note_off_c, 0, 62, 64
4, 7680, Note_on_c, 0, 58, 64
4, 7800, Note_off_c, 0, 58, 64
4, 7800, Note_on_c, 0, 65, 64
4, 7920, Note_off_c, 0, 65, 64
4, 7920, Note_on_c, 0, 55, 64
4, 8280, Note_off_c, 0, 55, 64
4, 8640, Note_on_c, 0, 56, 64
4, 8760, Note_off_c, 0, 56, 64
4, 8760, Note_on_c, 0, 51, 64
4, 8880, Note_off_c, 0, 51, 64
4, 8880, Note_on_c, 0, 60, 64
4, 9000, Note_off_c, 0, 60, 64
4, 9000, Note_on_c, 0, 60, 64
4, 9120, Note_off_c, 0, 60, 64
4, 9120, Note_on_c, 0, 56, 64
4, 9240, Note_off_c, 0, 56, 64
4, 9240, Note_on_c, 0, 63, 64
4, 9360, Note_off_c, 0, 63, 64
4, 9360, Note_on_c, 0, 55, 64
4, 9480, Note_off_c, 0, 55, 64
4, 9480, Note_on_c, 0, 51, 64
4, 9600, Note_off_c, 0, 51, 64
4, 9600, Note_on_c, 0, 58, 64
4, 9720, Note_off_c, 0, 58, 64
4, 9720, Note_on_c, 0, 58, 64
4, 9840, Note_off_c, 0, 58, 64
4, 9840, Note_on_c, 0, 55, 64
4, 9960, Note_off_c, 0, 55, 64
4, 9960, Note_on_c, 0, 63, 64
4, 10080, Note_off_c, 0, 63, 64
4, 10080, Note_on_c, 0, 53, 64
4, 10200, Note_off_c, 0, 53, 64
4, 10200, Note_on_c, 0, 55, 64
4, 10320, Note_off_c, 0, 55, 64
4, 10320, Note_on_c, 0, 56, 64
4, 10440, Note_off_c, 0, 56, 64
4, 10440, Note_on_c, 0, 58, 64
4, 10560, Note_off_c, 0, 58, 64
4, 10560, Note_on_c, 0, 60, 64
4, 10680, Note_off_c, 0, 60, 64
4, 10680, Note_on_c, 0, 62, 64
4, 10800, Note_off_c, 0, 62, 64
4, 10800, Note_on_c, 0, 55, 64
4, 11160, Note_off_c, 0, 55, 64
4, 11160, Note_on_c, 0, 63, 68
4, 11200, Note_off_c, 0, 63, 64
4, 11200, Note_on_c, 0, 62, 48
4, 11240, Note_off_c, 0, 62, 64
4, 11240, Note_on_c, 0, 63, 64
4, 11520, Note_off_c, 0, 63, 64
4, 11520, Note_on_c, 0, 62, 64
4, 11880, Note_off_c, 0, 62, 64
4, 11880, Note_on_c, 0, 54, 64
4, 12240, Note_off_c, 0, 54, 64
4, 12240, Note_on_c, 0, 55, 64
4, 12360, Note_off_c, 0, 55, 64
4, 12360, Note_on_c, 0, 50, 64
4, 12480, Note_off_c, 0, 50, 64
4, 12480, Note_on_c, 0, 58, 64
4, 12600, Note_off_c, 0, 58, 64
4, 12600, Note_on_c, 0, 58, 64
4, 12720, Note_off_c, 0, 58, 64
4, 12720, Note_on_c, 0, 55, 64
4, 12840, Note_off_c, 0, 55, 64
4, 12840, Note_on_c, 0, 62, 64
4, 12960, Note_off_c, 0, 62, 64
4, 12960, Note_on_c, 0, 62, 64
4, 13320, Note_off_c, 0, 62, 64
4, 13320, Note_on_c, 0, 50, 64
4, 13680, Note_off_c, 0, 50, 64
4, 13680, Note_on_c, 0, 55, 64
4, 13800, Note_off_c, 0, 55, 64
4, 13800, Note_on_c, 0, 57, 64
4, 13920, Note_off_c, 0, 57, 64
4, 13920, Note_on_c, 0, 58, 64
4, 14040, Note_off_c, 0, 58, 64
4, 14040, Note_on_c, 0, 60, 64
4, 14160, Note_off_c, 0, 60, 64
4, 14160, Note_on_c, 0, 62, 64
4, 14280, Note_off_c, 0, 62, 64
4, 14280, Note_on_c, 0, 63, 64
4, 14400, Note_off_c, 0, 63, 64
4, 14400, Note_on_c, 0, 54, 64
4, 14520, Note_off_c, 0, 54, 64
4, 14520, Note_on_c, 0, 63, 64
4, 14640, Note_off_c, 0, 63, 64
4, 14640, Note_on_c, 0, 62, 64
4, 14760, Note_off_c, 0, 62, 64
4, 14760, Note_on_c, 0, 60, 64
4, 14880, Note_off_c, 0, 60, 64
4, 14880, Note_on_c, 0, 58, 64
4, 15000, Note_off_c, 0, 58, 64
4, 15000, Note_on_c, 0, 57, 64
4, 15120, Note_off_c, 0, 57, 64
4, 15120, Note_on_c, 0, 58, 64
4, 15480, Note_off_c, 0, 58, 64
4, 15480, Note_on_c, 0, 55, 64
4, 15960, Note_off_c, 0, 55, 64
4, 15960, Note_on_c, 0, 54, 64
4, 16080, Note_off_c, 0, 54, 64
4, 16080, Note_on_c, 0, 55, 64
4, 16200, Note_off_c, 0, 55, 64
4, 16200, Note_on_c, 0, 57, 64
4, 16320, Note_off_c, 0, 57, 64
4, 16320, Note_on_c, 0, 58, 64
4, 16440, Note_off_c, 0, 58, 64
4, 16440, Note_on_c, 0, 60, 64
4, 16560, Note_off_c, 0, 60, 64
4, 16560, Note_on_c, 0, 58, 64
4, 16680, Note_off_c, 0, 58, 64
4, 16680, Note_on_c, 0, 60, 64
4, 16800, Note_off_c, 0, 60, 64
4, 16800, Note_on_c, 0, 58, 64
4, 16920, Note_off_c, 0, 58, 64
4, 16920, Note_on_c, 0, 57, 64
4, 17040, Note_off_c, 0, 57, 64
4, 17040, Note_on_c, 0, 58, 64
4, 17160, Note_off_c, 0, 58, 64
4, 17160, Note_on_c, 0, 55, 64
4, 17280, Note_off_c, 0, 55, 64
4, 17280, Note_on_c, 0, 62, 64
4, 17400, Note_off_c, 0, 62, 64
4, 17400, Note_on_c, 0, 60, 64
4, 17520, Note_off_c, 0, 60, 64
4, 17520, Note_on_c, 0, 58, 64
4, 17640, Note_off_c, 0, 58, 64
4, 17640, Note_on_c, 0, 57, 64
4, 17760, Note_off_c, 0, 57, 64
4, 17760, Note_on_c, 0, 55, 64
4, 17880, Note_off_c, 0, 55, 64
4, 17880, Note_on_c, 0, 54, 64
4, 18000, Note_off_c, 0, 54, 64
4, 18000, Note_on_c, 0, 55, 64
4, 18240, Note_off_c, 0, 55, 64
4, 18240, Note_on_c, 0, 62, 64
4, 18360, Note_off_c, 0, 62, 64
4, 18360, Note_on_c, 0, 55, 64
4, 18600, Note_off_c, 0, 55, 64
4, 18600, Note_on_c, 0, 58, 64
4, 18720, Note_off_c, 0, 58, 64
4, 18720, Note_on_c, 0, 36, 64
4, 18960, Note_off_c, 0, 36, 64
4, 19680, Note_on_c, 0, 60, 64
4, 19800, Note_off_c, 0, 60, 64
4, 19800, Note_on_c, 0, 53, 64
4, 20040, Note_off_c, 0, 53, 64
4, 20040, Note_on_c, 0, 57, 64
4, 20160, Note_off_c, 0, 57, 64
4, 20160, Note_on_c, 0, 46, 64
4, 20400, Note_off_c, 0, 46, 64
4, 20880, Note_on_c, 0, 48, 64
4, 20920, Note_off_c, 0, 48, 64
4, 20920, Note_on_c, 0, 46, 48
4, 20960, Note_on_c, 0, 48, 48
4, 20968, Note_off_c, 0, 46, 64
4, 21000, Note_on_c, 0, 46, 48
4, 21008, Note_off_c, 0, 48, 64
4, 21040, Note_on_c, 0, 48, 48
4, 21048, Note_off_c, 0, 46, 64
4, 21080, Note_on_c, 0, 46, 48
4, 21088, Note_off_c, 0, 48, 64
4, 21120, Note_on_c, 0, 48, 49
4, 21128, Note_off_c, 0, 46, 64
4, 21160, Note_on_c, 0, 46, 49
4, 21168, Note_off_c, 0, 48, 64
4, 21200, Note_on_c, 0, 48, 49
4, 21208, Note_off_c, 0, 46, 64
4, 21240, Note_on_c, 0, 46, 49
4, 21248, Note_off_c, 0, 48, 64
4, 21280, Note_on_c, 0, 48, 49
4, 21288, Note_off_c, 0, 46, 64
4, 21320, Note_on_c, 0, 46, 49
4, 21328, Note_off_c, 0, 48, 64
4, 21360, Note_on_c, 0, 48, 50
4, 21368, Note_off_c, 0, 46, 64
4, 21400, Note_on_c, 0, 46, 50
4, 21408, Note_off_c, 0, 48, 64
4, 21440, Note_on_c, 0, 48, 50
4, 21448, Note_off_c, 0, 46, 64
4, 21480, Note_on_c, 0, 46, 50
4, 21488, Note_off_c, 0, 48, 64
4, 21520, Note_on_c, 0, 48, 50
4, 21528, Note_off_c, 0, 46, 64
4, 21560, Note_on_c, 0, 46, 51
4, 21568, Note_off_c, 0, 48, 64
4, 21600, Note_on_c, 0, 48, 51
4, 21608, Note_off_c, 0, 46, 64
4, 21640, Note_on_c, 0, 46, 51
4, 21648, Note_off_c, 0, 48, 64
4, 21680, Note_on_c, 0, 48, 51
4, 21688, Note_off_c, 0, 46, 64
4, 21720, Note_on_c, 0, 46, 51
4, 21728, Note_off_c, 0, 48, 64
4, 21760, Note_on_c, 0, 48, 51
4, 21768, Note_off_c, 0, 46, 64
4, 21800, Note_on_c, 0, 46, 52
4, 21808, Note_off_c, 0, 48, 64
4, 21840, Note_on_c, 0, 48, 52
4, 21848, Note_off_c, 0, 46, 64
4, 21880, Note_on_c, 0, 46, 52
4, 21888, Note_off_c, 0, 48, 64
4, 21920, Note_on_c, 0, 48, 52
4, 21928, Note_off_c, 0, 46, 64
4, 21960, Note_on_c, 0, 46, 52
4, 21968, Note_off_c, 0, 48, 64
4, 22000, Note_on_c, 0, 48, 53
4, 22008, Note_off_c, 0, 46, 64
4, 22040, Note_on_c, 0, 46, 53
4, 22048, Note_off_c, 0, 48, 64
4, 22080, Note_on_c, 0, 48, 53
4, 22088, Note_off_c, 0, 46, 64
4, 22120, Note_on_c, 0, 46, 53
4, 22128, Note_off_c, 0, 48, 64
4, 22160, Note_on_c, 0, 48, 53
4, 22168, Note_off_c, 0, 46, 64
4, 22200, Note_on_c, 0, 46, 54
4, 22208, Note_off_c, 0, 48, 64
4, 22240, Note_on_c, 0, 48, 54
4, 22248, Note_off_c, 0, 46, 64
4, 22280, Note_on_c, 0, 46, 54
4, 22288, Note_off_c, 0, 48, 64
4, 22320, Note_on_c, 0, 48, 54
4, 22328, Note_off_c, 0, 46, 64
4, 22360, Note_on_c, 0, 46, 54
4, 22368, Note_off_c, 0, 48, 64
4, 22400, Note_on_c, 0, 48, 54
4, 22408, Note_off_c, 0, 46, 64
4, 22440, Note_on_c, 0, 46, 55
4, 22448, Note_off_c, 0, 48, 64
4, 22480, Note_on_c, 0, 48, 55
4, 22488, Note_off_c, 0, 46, 64
4, 22520, Note_on_c, 0, 46, 55
4, 22528, Note_off_c, 0, 48, 64
4, 22560, Note_on_c, 0, 48, 55
4, 22568, Note_off_c, 0, 46, 64
4, 22600, Note_on_c, 0, 46, 60
4, 22608, Note_off_c, 0, 48, 64
4, 22680, Note_on_c, 0, 45, 64
4, 22696, Note_off_c, 0, 46, 64
4, 23160, Note_off_c, 0, 45, 64
4, 23160, Note_on_c, 0, 50, 64
4, 23220, Note_off_c, 0, 50, 64
4, 23220, Note_on_c, 0, 48, 64
4, 23280, Note_off_c, 0, 48, 64
4, 23280, Note_on_c, 0, 46, 64
4, 23340, Note_off_c, 0, 46, 64
4, 23340, Note_on_c, 0, 44, 64
4, 23400, Note_off_c, 0, 44, 64
4, 23400, Note_on_c, 0, 43, 64
4, 23460, Note_off_c, 0, 43, 64
4, 23460, Note_on_c, 0, 44, 64
4, 23520, Note_off_c, 0, 44, 64
4, 23520, Note_on_c, 0, 43, 64
4, 23580, Note_off_c, 0, 43, 64
4, 23580, Note_on_c, 0, 41, 64
4, 23640, Note_off_c, 0, 41, 64
4, 23640, Note_on_c, 0, 39, 64
4, 23700, Note_off_c, 0, 39, 64
4, 23700, Note_on_c, 0, 38, 64
4, 23760, Note_off_c, 0, 38, 64
4, 23760, Note_on_c, 0, 36, 64
4, 23880, Note_off_c, 0, 36, 64
4, 23880, Note_on_c, 0, 51, 64
4, 23940, Note_off_c, 0, 51, 64
4, 23940, Note_on_c, 0, 50, 64
4, 24000, Note_off_c, 0, 50, 64
4, 24000, Note_on_c, 0, 48, 64
4, 24060, Note_off_c, 0, 48, 64
4, 24060, Note_on_c, 0, 46, 64
4, 24120, Note_off_c, 0, 46, 64
4, 24120, Note_on_c, 0, 44, 64
4, 24180, Note_off_c, 0, 44, 64
4, 24180, Note_on_c, 0, 46, 64
4, 24240, Note_off_c, 0, 46, 64
4, 24240, Note_on_c, 0, 44, 64
4, 24300, Note_off_c, 0, 44, 64
4, 24300, Note_on_c, 0, 43, 64
4, 24360, Note_off_c, 0, 43, 64
4, 24360, Note_on_c, 0, 42, 64
4, 24420, Note_off_c, 0, 42, 64
4, 24420, Note_on_c, 0, 40, 64
4, 24480, Note_off_c, 0, 40, 64
4, 24480, Note_on_c, 0, 38, 64
4, 24840, Note_off_c, 0, 38, 64
4, 25020, Note_on_c, 0, 43, 64
4, 25080, Note_off_c, 0, 43, 64
4, 25080, Note_on_c, 0, 45, 64
4, 25140, Note_off_c, 0, 45, 64
4, 25140, Note_on_c, 0, 46, 64
4, 25200, Note_off_c, 0, 46, 64
4, 25200, Note_on_c, 0, 48, 64
4, 25260, Note_off_c, 0, 48, 64
4, 25260, Note_on_c, 0, 46, 64
4, 25320, Note_off_c, 0, 46, 64
4, 25320, Note_on_c, 0, 48, 64
4, 25380, Note_off_c, 0, 48, 64
4, 25380, Note_on_c, 0, 50, 64
4, 25440, Note_off_c, 0, 50, 64
4, 25440, Note_on_c, 0, 51, 64
4, 25500, Note_off_c, 0, 51, 64
4, 25500, Note_on_c, 0, 48, 64
4, 25560, Note_off_c, 0, 48, 64
4, 25560, Note_on_c, 0, 50, 64
4, 25620, Note_off_c, 0, 50, 64
4, 25620, Note_on_c, 0, 51, 64
4, 25680, Note_off_c, 0, 51, 64
4, 25680, Note_on_c, 0, 50, 64
4, 25740, Note_off_c, 0, 50, 64
4, 25740, Note_on_c, 0, 48, 64
4, 25800, Note_off_c, 0, 48, 64
4, 25800, Note_on_c, 0, 46, 64
4, 25860, Note_off_c, 0, 46, 64
4, 25860, Note_on_c, 0, 45, 64
4, 25920, Note_off_c, 0, 45, 64
4, 25920, Note_on_c, 0, 43, 64
4, 26160, Note_off_c, 0, 43, 64
4, 26760, Note_on_c, 0, 58, 64
4, 26820, Note_off_c, 0, 58, 64
4, 26820, Note_on_c, 0, 56, 64
4, 26880, Note_off_c, 0, 56, 64
4, 26880, Note_on_c, 0, 55, 64
4, 26940, Note_off_c, 0, 55, 64
4, 26940, Note_on_c, 0, 53, 64
4, 27000, Note_off_c, 0, 53, 64
4, 27000, Note_on_c, 0, 52, 64
4, 27060, Note_off_c, 0, 52, 64
4, 27060, Note_on_c, 0, 53, 64
4, 27120, Note_off_c, 0, 53, 64
4, 27120, Note_on_c, 0, 52, 64
4, 27180, Note_off_c, 0, 52, 64
4, 27180, Note_on_c, 0, 50, 64
4, 27240, Note_off_c, 0, 50, 64
4, 27240, Note_on_c, 0, 48, 64
4, 27300, Note_off_c, 0, 48, 64
4, 27300, Note_on_c, 0, 46, 64
4, 27360, Note_off_c, 0, 46, 64
4, 27360, Note_on_c, 0, 44, 64
4, 27420, Note_off_c, 0, 44, 64
4, 27420, Note_on_c, 0, 53, 64
4, 27480, Note_off_c, 0, 53, 64
4, 27480, Note_on_c, 0, 52, 64
4, 27540, Note_off_c, 0, 52, 64
4, 27540, Note_on_c, 0, 50, 64
4, 27600, Note_off_c, 0, 50, 64
4, 27600, Note_on_c, 0, 48, 64
4, 27660, Note_off_c, 0, 48, 64
4, 27660, Note_on_c, 0, 46, 64
4, 27720, Note_off_c, 0, 46, 64
4, 27720, Note_on_c, 0, 44, 64
4, 27780, Note_off_c, 0, 44, 64
4, 27780, Note_on_c, 0, 46, 64
4, 27840, Note_off_c, 0, 46, 64
4, 27840, Note_on_c, 0, 44, 64
4, 27900, Note_off_c, 0, 44, 64
4, 27900, Note_on_c, 0, 43, 64
4, 27960, Note_off_c, 0, 43, 64
4, 27960, Note_on_c, 0, 41, 64
4, 28020, Note_off_c, 0, 41, 64
4, 28020, Note_on_c, 0, 40, 64
4, 28080, Note_off_c, 0, 40, 64
4, 28080, Note_on_c, 0, 41, 64
4, 28320, Note_off_c, 0, 41, 64
4, 29760, Note_on_c, 0, 67, 64
4, 29880, Note_off_c, 0, 67, 64
4, 29880, Note_on_c, 0, 65, 64
4, 30120, Note_off_c, 0, 65, 64
4, 30120, Note_on_c, 0, 63, 64
4, 30240, Note_off_c, 0, 63, 64
4, 30240, Note_on_c, 0, 62, 64
4, 30480, Note_off_c, 0, 62, 64
4, 30480, Note_on_c, 0, 68, 64
4, 30600, Note_off_c, 0, 68, 64
4, 30600, Note_on_c, 0, 67, 64
4, 30840, Note_off_c, 0, 67, 64
4, 30840, Note_on_c, 0, 65, 64
4, 30960, Note_off_c, 0, 65, 64
4, 30960, Note_on_c, 0, 63, 64
4, 31020, Note_off_c, 0, 63, 64
4, 31020, Note_on_c, 0, 55, 64
4, 31080, Note_off_c, 0, 55, 64
4, 31080, Note_on_c, 0, 56, 64
4, 31140, Note_off_c, 0, 56, 64
4, 31140, Note_on_c, 0, 58, 64
4, 31200, Note_off_c, 0, 58, 64
4, 31200, Note_on_c, 0, 60, 64
4, 31260, Note_off_c, 0, 60, 64
4, 31260, Note_on_c, 0, 62, 64
4, 31320, Note_off_c, 0, 62, 64
4, 31320, Note_on_c, 0, 63, 64
4, 31380, Note_off_c, 0, 63, 64
4, 31380, Note_on_c, 0, 65, 64
4, 31440, Note_off_c, 0, 65, 64
4, 31440, Note_on_c, 0, 63, 64
4, 31500, Note_off_c, 0, 63, 64
4, 31500, Note_on_c, 0, 62, 64
4, 31560, Note_off_c, 0, 62, 64
4, 31560, Note_on_c, 0, 60, 64
4, 31620, Note_off_c, 0, 60, 64
4, 31620, Note_on_c, 0, 58, 64
4, 31680, Note_off_c, 0, 58, 64
4, 31680, Note_on_c, 0, 56, 64
4, 32450, Note_off_c, 0, 56, 64
4, 32460, Note_on_c, 0, 53, 64
4, 32520, Note_off_c, 0, 53, 64
4, 32520, Note_on_c, 0, 55, 64
4, 32580, Note_off_c, 0, 55, 64
4, 32580, Note_on_c, 0, 57, 64
4, 32640, Note_off_c, 0, 57, 64
4, 32640, Note_on_c, 0, 59, 64
4, 32700, Note_off_c, 0, 59, 64
4, 32700, Note_on_c, 0, 60, 64
4, 32760, Note_off_c, 0, 60, 64
4, 32760, Note_on_c, 0, 62, 64
4, 32820, Note_off_c, 0, 62, 64
4, 32820, Note_on_c, 0, 63, 64
4, 32880, Note_off_c, 0, 63, 64
4, 32880, Note_on_c, 0, 62, 64
4, 32940, Note_off_c, 0, 62, 64
4, 32940, Note_on_c, 0, 60, 64
4, 33000, Note_off_c, 0, 60, 64
4, 33000, Note_on_c, 0, 59, 64
4, 33060, Note_off_c, 0, 59, 64
4, 33060, Note_on_c, 0, 57, 64
4, 33120, Note_off_c, 0, 57, 64
4, 33120, Note_on_c, 0, 55, 64
4, 33890, Note_off_c, 0, 55, 64
4, 33900, Note_on_c, 0, 51, 64
4, 33960, Note_off_c, 0, 51, 64
4, 33960, Note_on_c, 0, 53, 64
4, 34020, Note_off_c, 0, 53, 64
4, 34020, Note_on_c, 0, 55, 64
4, 34080, Note_off_c, 0, 55, 64
4, 34080, Note_on_c, 0, 57, 64
4, 34140, Note_off_c, 0, 57, 64
4, 34140, Note_on_c, 0, 59, 64
4, 34200, Note_off_c, 0, 59, 64
4, 34200, Note_on_c, 0, 60, 64
4, 34260, Note_off_c, 0, 60, 64
4, 34260, Note_on_c, 0, 62, 64
4, 34320, Note_off_c, 0, 62, 64
4, 34320, Note_on_c, 0, 60, 64
4, 34380, Note_off_c, 0, 60, 64
4, 34380, Note_on_c, 0, 58, 64
4, 34440, Note_off_c, 0, 58, 64
4, 34440, Note_on_c, 0, 56, 64
4, 34500, Note_off_c, 0, 56, 64
4, 34500, Note_on_c, 0, 55, 64
4, 34560, Note_off_c, 0, 55, 64
4, 34560, Note_on_c, 0, 53, 64
4, 35640, Note_off_c, 0, 53, 64
4, 35640, Note_on_c, 0, 51, 64
4, 36050, Note_off_c, 0, 51, 64
4, 36060, Note_on_c, 0, 55, 64
4, 36120, Note_off_c, 0, 55, 64
4, 36120, Note_on_c, 0, 53, 64
4, 36180, Note_off_c, 0, 53, 64
4, 36180, Note_on_c, 0, 51, 64
4, 36240, Note_off_c, 0, 51, 64
4, 36240, Note_on_c, 0, 50, 64
4, 36300, Note_off_c, 0, 50, 64
4, 36300, Note_on_c, 0, 48, 64
4, 36360, Note_off_c, 0, 48, 64
4, 36360, Note_on_c, 0, 47, 64
4, 36420, Note_off_c, 0, 47, 64
4, 36420, Note_on_c, 0, 48, 64
4, 36480, Note_off_c, 0, 48, 64
4, 36480, Note_on_c, 0, 47, 64
4, 36540, Note_off_c, 0, 47, 64
4, 36540, Note_on_c, 0, 45, 64
4, 36600, Note_off_c, 0, 45, 64
4, 36600, Note_on_c, 0, 43, 64
4, 36660, Note_off_c, 0, 43, 64
4, 36660, Note_on_c, 0, 41, 64
4, 36720, Note_off_c, 0, 41, 64
4, 36720, Note_on_c, 0, 39, 64
4, 37080, Note_off_c, 0, 39, 64
4, 37080, Note_on_c, 0, 41, 64
4, 37440, Note_off_c, 0, 41, 64
4, 37440, Note_on_c, 0, 43, 64
4, 37800, Note_off_c, 0, 43, 64
4, 37800, Note_on_c, 0, 45, 64
4, 38160, Note_off_c, 0, 45, 64
4, 38160, Note_on_c, 0, 47, 64
4, 38280, Note_off_c, 0, 47, 64
4, 38280, Note_on_c, 0, 43, 64
4, 38400, Note_off_c, 0, 43, 64
4, 38400, Note_on_c, 0, 48, 64
4, 38520, Note_off_c, 0, 48, 64
4, 38520, Note_on_c, 0, 44, 64
4, 38640, Note_off_c, 0, 44, 64
4, 38640, Note_on_c, 0, 41, 64
4, 38760, Note_off_c, 0, 41, 64
4, 38760, Note_on_c, 0, 43, 64
4, 38880, Note_off_c, 0, 43, 64
4, 38880, Note_on_c, 0, 48, 64
4, 39000, Note_off_c, 0, 48, 64
4, 39000, Note_on_c, 0, 43, 64
4, 39120, Note_off_c, 0, 43, 64
4, 39120, Note_on_c, 0, 51, 64
4, 39240, Note_off_c, 0, 51, 64
4, 39240, Note_on_c, 0, 51, 64
4, 39360, Note_off_c, 0, 51, 64
4, 39360, Note_on_c, 0, 48, 64
4, 39480, Note_off_c, 0, 48, 64
4, 39480, Note_on_c, 0, 55, 64
4, 39600, Note_off_c, 0, 55, 64
4, 39600, Note_on_c, 0, 53, 64
4, 39720, Note_off_c, 0, 53, 64
4, 39720, Note_on_c, 0, 48, 64
4, 39840, Note_off_c, 0, 48, 64
4, 39840, Note_on_c, 0, 56, 64
4, 39960, Note_off_c, 0, 56, 64
4, 39960, Note_on_c, 0, 56, 64
4, 40080, Note_off_c, 0, 56, 64
4, 40080, Note_on_c, 0, 53, 64
4, 40200, Note_off_c, 0, 53, 64
4, 40200, Note_on_c, 0, 60, 64
4, 40320, Note_off_c, 0, 60, 64
4, 40320, Note_on_c, 0, 58, 64
4, 40560, Note_off_c, 0, 58, 64
4, 41760, Note_on_c, 0, 53, 64
4, 41880, Note_off_c, 0, 53, 64
4, 41880, Note_on_c, 0, 48, 64
4, 42000, Note_off_c, 0, 48, 64
4, 42000, Note_on_c, 0, 56, 64
4, 42120, Note_off_c, 0, 56, 64
4, 42120, Note_on_c, 0, 56, 64
4, 42240, Note_off_c, 0, 56, 64
4, 42240, Note_on_c, 0, 53, 64
4, 42360, Note_off_c, 0, 53, 64
4, 42360, Note_on_c, 0, 60, 64
4, 42480, Note_off_c, 0, 60, 64
4, 42480, Note_on_c, 0, 51, 64
4, 42600, Note_off_c, 0, 51, 64
4, 42600, Note_on_c, 0, 48, 64
4, 42720, Note_off_c, 0, 48, 64
4, 42720, Note_on_c, 0, 55, 64
4, 42840, Note_off_c, 0, 55, 64
4, 42840, Note_on_c, 0, 55, 64
4, 42960, Note_off_c, 0, 55, 64
4, 42960, Note_on_c, 0, 51, 64
4, 43080, Note_off_c, 0, 51, 64
4, 43080, Note_on_c, 0, 60, 64
4, 43200, Note_off_c, 0, 60, 64
4, 43200, Note_on_c, 0, 50, 64
4, 43320, Note_off_c, 0, 50, 64
4, 43320, Note_on_c, 0, 51, 64
4, 43440, Note_off_c, 0, 51, 64
4, 43440, Note_on_c, 0, 53, 64
4, 43560, Note_off_c, 0, 53, 64
4, 43560, Note_on_c, 0, 55, 64
4, 43680, Note_off_c, 0, 55, 64
4, 43680, Note_on_c, 0, 57, 64
4, 43800, Note_off_c, 0, 57, 64
4, 43800, Note_on_c, 0, 59, 64
4, 43920, Note_off_c, 0, 59, 64
4, 43920, Note_on_c, 0, 51, 64
4, 44690, Note_off_c, 0, 51, 64
4, 44700, Note_on_c, 0, 55, 64
4, 44760, Note_off_c, 0, 55, 64
4, 44760, Note_on_c, 0, 53, 64
4, 44820, Note_off_c, 0, 53, 64
4, 44820, Note_on_c, 0, 51, 64
4, 44880, Note_off_c, 0, 51, 64
4, 44880, Note_on_c, 0, 50, 64
4, 44940, Note_off_c, 0, 50, 64
4, 44940, Note_on_c, 0, 48, 64
4, 45000, Note_off_c, 0, 48, 64
4, 45000, Note_on_c, 0, 55, 64
4, 45240, Note_off_c, 0, 55, 64
4, 45240, Note_on_c, 0, 43, 64
4, 45360, Note_off_c, 0, 43, 64
4, 45360, Note_on_c, 0, 36, 64
4, 46440, Note_off_c, 0, 36, 64
4, 46440, End_track
0, 0, End_of_file
