0, 0, Header, 1, 4, 240
1, 0, Start_track
1, 0, Time_signature, 4, 2, 24, 8
1, 0, Tempo, 681818
1, 21204, Tempo, 697674
1, 21300, Tempo, 731707
1, 21408, Tempo, 769231
1, 21528, Tempo, 909091
1, 21624, Tempo, 750000
1, 22080, Tempo, 681818
1, 22080, End_track
2, 0, Start_track
2, 0, Text_t, "RH"
2, 60, Note_on_c, 0, 74, 64
2, 120, Note_off_c, 0, 74, 64
2, 120, Note_on_c, 0, 73, 64
2, 180, Note_off_c, 0, 73, 64
2, 180, Note_on_c, 0, 74, 64
2, 240, Note_off_c, 0, 74, 64
2, 240, Note_on_c, 0, 69, 64
2, 360, Note_off_c, 0, 69, 64
2, 360, Note_on_c, 0, 77, 64
2, 540, Note_off_c, 0, 77, 64
2, 540, Note_on_c, 0, 76, 64
2, 600, Note_off_c, 0, 76, 64
2, 600, Note_on_c, 0, 74, 64
2, 660, Note_off_c, 0, 74, 64
2, 660, Note_on_c, 0, 76, 64
2, 720, Note_off_c, 0, 76, 64
2, 720, Note_on_c, 0, 69, 64
2, 840, Note_off_c, 0, 69, 64
2, 840, Note_on_c, 0, 79, 64
2, 1020, Note_off_c, 0, 79, 64
2, 1020, Note_on_c, 0, 77, 64
2, 1080, Note_off_c, 0, 77, 64
2, 1080, Note_on_c, 0, 76, 64
2, 1140, Note_off_c, 0, 76, 64
2, 1140, Note_on_c, 0, 74, 64
2, 1200, Note_off_c, 0, 74, 64
2, 1200, Note_on_c, 0, 81, 64
2, 1490, Note_off_c, 0, 81, 64
2, 1500, Note_on_c, 0, 80, 64
2, 1560, Note_off_c, 0, 80, 64
2, 1560, Note_on_c, 0, 78, 64
2, 1620, Note_off_c, 0, 78, 64
2, 1620, Note_on_c, 0, 80, 64
2, 1680, Note_off_c, 0, 80, 64
2, 1680, Note_on_c, 0, 80, 64
2, 1860, Note_off_c, 0, 80, 64
2, 1860, Note_on_c, 0, 81, 64
2, 1920, Note_off_c, 0, 81, 64
2, 1920, Note_on_c, 0, 81, 64
2, 2210, Note_off_c, 0, 81, 64
2, 2220, Note_on_c, 0, 74, 64
2, 2280, Note_off_c, 0, 74, 64
2, 2280, Note_on_c, 0, 73, 64
2, 2340, Note_off_c, 0, 73, 64
2, 2340, Note_on_c, 0, 74, 64
2, 2400, Note_off_c, 0, 74, 64
2, 2400, Note_on_c, 0, 79, 64
2, 2690, Note_off_c, 0, 79, 64
2, 2700, Note_on_c, 0, 73, 64
2, 2760, Note_off_c, 0, 73, 64
2, 2760, Note_on_c, 0, 71, 64
2, 2820, Note_off_c, 0, 71, 64
2, 2820, Note_on_c, 0, 73, 64
2, 2880, Note_off_c, 0, 73, 64
2, 2880, Note_on_c, 0, 77, 64
2, 3240, Note_off_c, 0, 77, 64
2, 3240, Note_on_c, 0, 81, 64
2, 3360, Note_off_c, 0, 81, 64
2, 3360, Note_on_c, 0, 79, 64
2, 3650, Note_off_c, 0, 79, 64
2, 3660, Note_on_c, 0, 77, 64
2, 3720, Note_off_c, 0, 77, 64
2, 3720, Note_on_c, 0, 76, 64
2, 3780, Note_off_c, 0, 76, 64
2, 3780, Note_on_c, 0, 77, 64
2, 3840, Note_off_c, 0, 77, 64
2, 3840, Note_on_c, 0, 74, 64
2, 3900, Note_off_c, 0, 74, 64
2, 4140, Note_on_c, 0, 82, 64
2, 4200, Note_off_c, 0, 82, 64
2, 4200, Note_on_c, 0, 81, 64
2, 4260, Note_off_c, 0, 81, 64
2, 4260, Note_on_c, 0, 82, 64
2, 4320, Note_off_c, 0, 82, 64
2, 4320, Note_on_c, 0, 76, 64
2, 4610, Note_off_c, 0, 76, 64
2, 4620, Note_on_c, 0, 81, 64
2, 4680, Note_off_c, 0, 81, 64
2, 4680, Note_on_c, 0, 79, 64
2, 4740, Note_off_c, 0, 79, 64
2, 4740, Note_on_c, 0, 81, 64
2, 4800, Note_off_c, 0, 81, 64
2, 4800, Note_on_c, 0, 74, 64
2, 5090, Note_off_c, 0, 74, 64
2, 5100, Note_on_c, 0, 74, 64
2, 5160, Note_off_c, 0, 74, 64
2, 5160, Note_on_c, 0, 76, 64
2, 5220, Note_off_c, 0, 76, 64
2, 5220, Note_on_c, 0, 77, 64
2, 5280, Note_off_c, 0, 77, 64
2, 5280, Note_on_c, 0, 79, 64
2, 5570, Note_off_c, 0, 79, 64
2, 5580, Note_on_c, 0, 77, 64
2, 5640, Note_off_c, 0, 77, 64
2, 5640, Note_on_c, 0, 76, 64
2, 5700, Note_off_c, 0, 76, 64
2, 5700, Note_on_c, 0, 74, 64
2, 5760, Note_off_c, 0, 74, 64
2, 5760, Note_on_c, 0, 72, 64
2, 6290, Note_off_c, 0, 72, 64
2, 6300, Note_on_c, 0, 70, 64
2, 6360, Note_off_c, 0, 70, 64
2, 6360, Note_on_c, 0, 69, 64
2, 6420, Note_off_c, 0, 69, 64
2, 6420, Note_on_c, 0, 70, 64
2, 6480, Note_off_c, 0, 70, 64
2, 6480, Note_on_c, 0, 67, 64
2, 6540, Note_off_c, 0, 67, 64
2, 6540, Note_on_c, 0, 74, 64
2, 6600, Note_off_c, 0, 74, 64
2, 6600, Note_on_c, 0, 72, 64
2, 6660, Note_off_c, 0, 72, 64
2, 6660, Note_on_c, 0, 74, 64
2, 6720, Note_off_c, 0, 74, 64
2, 6720, Note_on_c, 0, 67, 64
2, 6780, Note_off_c, 0, 67, 64
2, 6780, Note_on_c, 0, 70, 64
2, 6840, Note_off_c, 0, 70, 64
2, 6840, Note_on_c, 0, 69, 64
2, 6900, Note_off_c, 0, 69, 64
2, 6900, Note_on_c, 0, 70, 64
2, 7020, Note_off_c, 0, 70, 64
2, 7020, Note_on_c, 0, 72, 64
2, 7080, Note_off_c, 0, 72, 64
2, 7080, Note_on_c, 0, 70, 64
2, 7140, Note_off_c, 0, 70, 64
2, 7140, Note_on_c, 0, 72, 64
2, 7200, Note_off_c, 0, 72, 64
2, 7200, Note_on_c, 0, 69, 64
2, 7440, Note_off_c, 0, 69, 64
2, 7560, Note_on_c, 0, 77, 64
2, 7740, Note_off_c, 0, 77, 64
2, 7740, Note_on_c, 0, 76, 64
2, 7920, Note_off_c, 0, 76, 64
2, 8040, Note_on_c, 0, 79, 64
2, 8220, Note_off_c, 0, 79, 64
2, 8220, Note_on_c, 0, 77, 64
2, 8280, Note_off_c, 0, 77, 64
2, 8280, Note_on_c, 0, 76, 64
2, 8340, Note_off_c, 0, 76, 64
2, 8340, Note_on_c, 0, 77, 64
2, 8400, Note_off_c, 0, 77, 64
2, 8400, Note_on_c, 0, 72, 64
2, 8520, Note_off_c, 0, 72, 64
2, 8520, Note_on_c, 0, 81, 64
2, 8700, Note_off_c, 0, 81, 64
2, 8700, Note_on_c, 0, 79, 64
2, 8760, Note_off_c, 0, 79, 64
2, 8760, Note_on_c, 0, 77, 64
2, 8820, Note_off_c, 0, 77, 64
2, 8820, Note_on_c, 0, 79, 64
2, 8880, Note_off_c, 0, 79, 64
2, 8880, Note_on_c, 0, 72, 64
2, 9000, Note_off_c, 0, 72, 64
2, 9000, Note_on_c, 0, 82, 64
2, 9180, Note_off_c, 0, 82, 64
2, 9180, Note_on_c, 0, 81, 64
2, 9660, Note_off_c, 0, 81, 64
2, 9660, Note_on_c, 0, 74, 64
2, 9720, Note_off_c, 0, 74, 64
2, 9720, Note_on_c, 0, 73, 64
2, 9780, Note_off_c, 0, 73, 64
2, 9780, Note_on_c, 0, 74, 64
2, 9840, Note_off_c, 0, 74, 64
2, 9840, Note_on_c, 0, 79, 64
2, 10130, Note_off_c, 0, 79, 64
2, 10140, Note_on_c, 0, 77, 64
2, 10200, Note_off_c, 0, 77, 64
2, 10200, Note_on_c, 0, 76, 64
2, 10260, Note_off_c, 0, 76, 64
2, 10260, Note_on_c, 0, 79, 64
2, 10320, Note_off_c, 0, 79, 64
2, 10320, Note_on_c, 0, 77, 64
2, 10610, Note_off_c, 0, 77, 64
2, 10620, Note_on_c, 0, 76, 64
2, 10680, Note_off_c, 0, 76, 64
2, 10680, Note_on_c, 0, 74, 64
2, 10740, Note_off_c, 0, 74, 64
2, 10740, Note_on_c, 0, 76, 64
2, 10800, Note_off_c, 0, 76, 64
2, 10800, Note_on_c, 0, 69, 64
2, 10920, Note_off_c, 0, 69, 64
2, 10920, Note_on_c, 0, 74, 64
2, 11100, Note_off_c, 0, 74, 64
2, 11100, Note_on_c, 0, 72, 64
2, 11160, Note_off_c, 0, 72, 64
2, 11160, Note_on_c, 0, 71, 64
2, 11220, Note_off_c, 0, 71, 64
2, 11220, Note_on_c, 0, 72, 64
2, 11280, Note_off_c, 0, 72, 64
2, 11280, Note_on_c, 0, 66, 64
2, 11400, Note_off_c, 0, 66, 64
2, 11400, Note_on_c, 0, 71, 64
2, 11580, Note_off_c, 0, 71, 64
2, 11580, Note_on_c, 0, 69, 64
2, 11640, Note_off_c, 0, 69, 64
2, 11640, Note_on_c, 0, 68, 64
2, 11700, Note_off_c, 0, 68, 64
2, 11700, Note_on_c, 0, 69, 64
2, 11820, Note_off_c, 0, 69, 64
2, 11820, Note_on_c, 0, 68, 64
2, 11880, Note_off_c, 0, 68, 64
2, 11880, Note_on_c, 0, 66, 64
2, 11940, Note_off_c, 0, 66, 64
2, 11940, Note_on_c, 0, 68, 64
2, 12000, Note_off_c, 0, 68, 64
2, 12060, Note_on_c, 0, 69, 64
2, 12120, Note_off_c, 0, 69, 64
2, 12120, Note_on_c, 0, 68, 64
2, 12180, Note_off_c, 0, 68, 64
2, 12180, Note_on_c, 0, 69, 64
2, 12240, Note_off_c, 0, 69, 64
2, 12240, Note_on_c, 0, 64, 64
2, 12360, Note_off_c, 0, 64, 64
2, 12360, Note_on_c, 0, 72, 64
2, 12540, Note_off_c, 0, 72, 64
2, 12540, Note_on_c, 0, 71, 64
2, 12600, Note_off_c, 0, 71, 64
2, 12600, Note_on_c, 0, 69, 64
2, 12660, Note_off_c, 0, 69, 64
2, 12660, Note_on_c, 0, 71, 64
2, 12720, Note_off_c, 0, 71, 64
2, 12720, Note_on_c, 0, 64, 64
2, 12840, Note_off_c, 0, 64, 64
2, 12840, Note_on_c, 0, 74, 64
2, 13020, Note_off_c, 0, 74, 64
2, 13020, Note_on_c, 0, 72, 64
2, 13080, Note_off_c, 0, 72, 64
2, 13080, Note_on_c, 0, 71, 64
2, 13140, Note_off_c, 0, 71, 64
2, 13140, Note_on_c, 0, 72, 64
2, 13200, Note_off_c, 0, 72, 64
2, 13200, Note_on_c, 0, 75, 64
2, 13490, Note_off_c, 0, 75, 64
2, 13500, Note_on_c, 0, 74, 64
2, 13680, Note_off_c, 0, 74, 64
2, 13800, Note_on_c, 0, 78, 64
2, 13920, Note_off_c, 0, 78, 64
2, 13920, Note_on_c, 0, 79, 64
2, 14450, Note_off_c, 0, 79, 64
2, 14460, Note_on_c, 0, 78, 64
2, 14520, Note_off_c, 0, 78, 64
2, 14520, Note_on_c, 0, 82, 64
2, 14580, Note_off_c, 0, 82, 64
2, 14580, Note_on_c, 0, 81, 64
2, 14640, Note_off_c, 0, 81, 64
2, 14640, Note_on_c, 0, 78, 64
2, 14880, Note_off_c, 0, 78, 64
2, 14880, Note_on_c, 0, 79, 64
2, 14940, Note_off_c, 0, 79, 64
2, 14940, Note_on_c, 0, 74, 64
2, 15000, Note_off_c, 0, 74, 64
2, 15000, Note_on_c, 0, 72, 64
2, 15060, Note_off_c, 0, 72, 64
2, 15060, Note_on_c, 0, 74, 64
2, 15120, Note_off_c, 0, 74, 64
2, 15120, Note_on_c, 0, 67, 64
2, 15240, Note_off_c, 0, 67, 64
2, 15240, Note_on_c, 0, 77, 64
2, 15420, Note_off_c, 0, 77, 64
2, 15420, Note_on_c, 0, 76, 64
2, 15480, Note_off_c, 0, 76, 64
2, 15480, Note_on_c, 0, 74, 64
2, 15540, Note_off_c, 0, 74, 64
2, 15540, Note_on_c, 0, 76, 64
2, 15600, Note_off_c, 0, 76, 64
2, 15600, Note_on_c, 0, 72, 64
2, 15720, Note_off_c, 0, 72, 64
2, 15720, Note_on_c, 0, 82, 64
2, 15900, Note_off_c, 0, 82, 64
2, 15900, Note_on_c, 0, 81, 64
2, 15960, Note_off_c, 0, 81, 64
2, 15960, Note_on_c, 0, 79, 64
2, 16020, Note_off_c, 0, 79, 64
2, 16020, Note_on_c, 0, 82, 64
2, 16080, Note_off_c, 0, 82, 64
2, 16080, Note_on_c, 0, 81, 64
2, 16140, Note_off_c, 0, 81, 64
2, 16140, Note_on_c, 0, 79, 64
2, 16200, Note_off_c, 0, 79, 64
2, 16200, Note_on_c, 0, 77, 64
2, 16260, Note_off_c, 0, 77, 64
2, 16260, Note_on_c, 0, 76, 64
2, 16320, Note_off_c, 0, 76, 64
2, 16320, Note_on_c, 0, 74, 64
2, 16610, Note_off_c, 0, 74, 64
2, 16620, Note_on_c, 0, 77, 64
2, 16680, Note_off_c, 0, 77, 64
2, 16680, Note_on_c, 0, 76, 64
2, 16740, Note_off_c, 0, 76, 64
2, 16740, Note_on_c, 0, 74, 64
2, 16800, Note_off_c, 0, 74, 64
2, 16800, Note_on_c, 0, 73, 64
2, 17090, Note_off_c, 0, 73, 64
2, 17100, Note_on_c, 0, 69, 64
2, 17160, Note_off_c, 0, 69, 64
2, 17160, Note_on_c, 0, 74, 64
2, 17220, Note_off_c, 0, 74, 64
2, 17220, Note_on_c, 0, 72, 64
2, 17280, Note_off_c, 0, 72, 64
2, 17280, Note_on_c, 0, 70, 64
2, 17810, Note_off_c, 0, 70, 64
2, 17820, Note_on_c, 0, 69, 64
2, 17880, Note_off_c, 0, 69, 64
2, 17880, Note_on_c, 0, 68, 64
2, 17940, Note_off_c, 0, 68, 64
2, 17940, Note_on_c, 0, 71, 64
2, 18000, Note_off_c, 0, 71, 64
2, 18000, Note_on_c, 0, 69, 64
2, 18060, Note_off_c, 0, 69, 64
2, 18060, Note_on_c, 0, 67, 64
2, 18120, Note_off_c, 0, 67, 64
2, 18120, Note_on_c, 0, 65, 64
2, 18180, Note_off_c, 0, 65, 64
2, 18180, Note_on_c, 0, 67, 64
2, 18240, Note_off_c, 0, 67, 64
2, 18240, Note_on_c, 0, 65, 64
2, 18530, Note_off_c, 0, 65, 64
2, 18540, Note_on_c, 0, 69, 64
2, 18600, Note_off_c, 0, 69, 64
2, 18600, Note_on_c, 0, 67, 64
2, 18660, Note_off_c, 0, 67, 64
2, 18660, Note_on_c, 0, 69, 64
2, 18720, Note_off_c, 0, 69, 64
2, 18720, Note_on_c, 0, 70, 64
2, 18840, Note_off_c, 0, 70, 64
2, 18840, Note_on_c, 0, 71, 64
2, 18960, Note_off_c, 0, 71, 64
2, 18960, Note_on_c, 0, 72, 64
2, 19080, Note_off_c, 0, 72, 64
2, 19080, Note_on_c, 0, 73, 64
2, 19200, Note_off_c, 0, 73, 64
2, 19200, Note_on_c, 0, 74, 64
2, 20030, Note_off_c, 0, 74, 64
2, 20040, Note_on_c, 0, 74, 64
2, 20160, Note_off_c, 0, 74, 64
2, 20160, Note_on_c, 0, 73, 64
2, 20280, Note_off_c, 0, 73, 64
2, 20280, Note_on_c, 0, 72, 64
2, 20400, Note_off_c, 0, 72, 64
2, 20400, Note_on_c, 0, 71, 64
2, 20520, Note_off_c, 0, 71, 64
2, 20520, Note_on_c, 0, 70, 64
2, 20640, Note_off_c, 0, 70, 64
2, 20640, Note_on_c, 0, 69, 64
2, 20880, Note_off_c, 0, 69, 64
2, 20880, Note_on_c, 0, 68, 64
2, 21000, Note_off_c, 0, 68, 64
2, 21000, Note_on_c, 0, 67, 64
2, 21120, Note_off_c, 0, 67, 64
2, 21120, Note_on_c, 0, 66, 64
2, 21240, Note_off_c, 0, 66, 64
2, 21240, Note_on_c, 0, 65, 64
2, 21360, Note_off_c, 0, 65, 64
2, 21360, Note_on_c, 0, 64, 64
2, 21600, Note_off_c, 0, 64, 64
2, 21600, Note_on_c, 0, 62, 64
2, 22320, Note_off_c, 0, 62, 64
2, 22320, End_track
3, 0, Start_track
3, 0, Text_t, "RH/LH"
3, 1020, Note_on_c, 0, 69, 64
3, 1080, Note_off_c, 0, 69, 64
3, 1080, Note_on_c, 0, 68, 64
3, 1140, Note_off_c, 0, 68, 64
3, 1140, Note_on_c, 0, 69, 64
3, 1200, Note_off_c, 0, 69, 64
3, 1200, Note_on_c, 0, 64, 64
3, 1320, Note_off_c, 0, 64, 64
3, 1320, Note_on_c, 0, 72, 64
3, 1500, Note_off_c, 0, 72, 64
3, 1500, Note_on_c, 0, 71, 64
3, 1560, Note_off_c, 0, 71, 64
3, 1560, Note_on_c, 0, 69, 64
3, 1620, Note_off_c, 0, 69, 64
3, 1620, Note_on_c, 0, 71, 64
3, 1680, Note_off_c, 0, 71, 64
3, 1680, Note_on_c, 0, 64, 64
3, 1800, Note_off_c, 0, 64, 64
3, 1800, Note_on_c, 0, 74, 64
3, 1980, Note_off_c, 0, 74, 64
3, 1980, Note_on_c, 0, 72, 64
3, 2040, Note_off_c, 0, 72, 64
3, 2040, Note_on_c, 0, 71, 64
3, 2100, Note_off_c, 0, 71, 64
3, 2100, Note_on_c, 0, 72, 64
3, 2160, Note_off_c, 0, 72, 64
3, 2160, Note_on_c, 0, 77, 64
3, 2450, Note_off_c, 0, 77, 64
3, 2460, Note_on_c, 0, 70, 64
3, 2520, Note_off_c, 0, 70, 64
3, 2520, Note_on_c, 0, 69, 64
3, 2580, Note_off_c, 0, 69, 64
3, 2580, Note_on_c, 0, 70, 64
3, 2640, Note_off_c, 0, 70, 64
3, 2640, Note_on_c, 0, 76, 64
3, 3000, Note_off_c, 0, 76, 64
3, 3000, Note_on_c, 0, 69, 64
3, 3120, Note_off_c, 0, 69, 64
3, 3120, Note_on_c, 0, 74, 64
3, 3180, Note_off_c, 0, 74, 64
3, 3180, Note_on_c, 0, 76, 64
3, 3240, Note_off_c, 0, 76, 64
3, 3240, Note_on_c, 0, 74, 64
3, 3300, Note_off_c, 0, 74, 64
3, 3300, Note_on_c, 0, 72, 64
3, 3360, Note_off_c, 0, 72, 64
3, 3360, Note_on_c, 0, 71, 64
3, 3540, Note_off_c, 0, 71, 64
3, 3540, Note_on_c, 0, 73, 64
3, 3600, Note_off_c, 0, 73, 64
3, 3600, Note_on_c, 0, 74, 70
3, 3620, Note_off_c, 0, 74, 64
3, 3620, Note_on_c, 0, 73, 48
3, 3640, Note_off_c, 0, 73, 64
3, 3640, Note_on_c, 0, 74, 50
3, 3660, Note_off_c, 0, 74, 64
3, 3660, Note_on_c, 0, 73, 53
3, 3680, Note_off_c, 0, 73, 64
3, 3680, Note_on_c, 0, 74, 55
3, 3700, Note_off_c, 0, 74, 64
3, 3700, Note_on_c, 0, 73, 60
3, 3840, Note_off_c, 0, 73, 64
3, 3900, Note_on_c, 0, 74, 64
3, 3960, Note_off_c, 0, 74, 64
3, 3960, Note_on_c, 0, 73, 64
3, 4020, Note_off_c, 0, 73, 64
3, 4020, Note_on_c, 0, 74, 64
3, 4080, Note_off_c, 0, 74, 64
3, 4080, Note_on_c, 0, 67, 64
3, 4370, Note_off_c, 0, 67, 64
3, 4380, Note_on_c, 0, 72, 64
3, 4440, Note_off_c, 0, 72, 64
3, 4440, Note_on_c, 0, 70, 64
3, 4500, Note_off_c, 0, 70, 64
3, 4500, Note_on_c, 0, 72, 64
3, 4560, Note_off_c, 0, 72, 64
3, 4560, Note_on_c, 0, 65, 64
3, 4850, Note_off_c, 0, 65, 64
3, 4860, Note_on_c, 0, 70, 64
3, 4920, Note_off_c, 0, 70, 64
3, 4920, Note_on_c, 0, 69, 64
3, 4980, Note_off_c, 0, 69, 64
3, 4980, Note_on_c, 0, 72, 64
3, 5040, Note_off_c, 0, 72, 64
3, 5040, Note_on_c, 0, 70, 64
3, 5330, Note_off_c, 0, 70, 64
3, 5340, Note_on_c, 0, 72, 64
3, 5400, Note_off_c, 0, 72, 64
3, 5400, Note_on_c, 0, 70, 64
3, 5460, Note_off_c, 0, 70, 64
3, 5460, Note_on_c, 0, 69, 64
3, 5520, Note_off_c, 0, 69, 64
3, 5520, Note_on_c, 0, 70, 64
3, 5580, Note_off_c, 0, 70, 64
3, 5580, Note_on_c, 0, 69, 64
3, 5640, Note_off_c, 0, 69, 64
3, 5640, Note_on_c, 0, 67, 64
3, 5700, Note_off_c, 0, 67, 64
3, 5700, Note_on_c, 0, 65, 64
3, 5760, Note_off_c, 0, 65, 64
3, 5760, Note_on_c, 0, 64, 64
3, 5880, Note_off_c, 0, 64, 64
3, 5880, Note_on_c, 0, 70, 64
3, 6060, Note_off_c, 0, 70, 64
3, 6060, Note_on_c, 0, 69, 64
3, 6120, Note_off_c, 0, 69, 64
3, 6120, Note_on_c, 0, 67, 64
3, 6180, Note_off_c, 0, 67, 64
3, 6180, Note_on_c, 0, 69, 64
3, 6240, Note_off_c, 0, 69, 64
3, 6240, Note_on_c, 0, 65, 64
3, 6960, Note_off_c, 0, 65, 64
3, 6960, Note_on_c, 0, 64, 64
3, 7200, Note_off_c, 0, 64, 64
3, 7260, Note_on_c, 0, 65, 64
3, 7320, Note_off_c, 0, 65, 64
3, 7320, Note_on_c, 0, 64, 64
3, 7380, Note_off_c, 0, 64, 64
3, 7380, Note_on_c, 0, 65, 64
3, 7440, Note_off_c, 0, 65, 64
3, 7440, Note_on_c, 0, 60, 64
3, 7560, Note_off_c, 0, 60, 64
3, 7560, Note_on_c, 0, 69, 64
3, 7740, Note_off_c, 0, 69, 64
3, 7740, Note_on_c, 0, 67, 64
3, 7800, Note_off_c, 0, 67, 64
3, 7800, Note_on_c, 0, 65, 64
3, 7860, Note_off_c, 0, 65, 64
3, 7860, Note_on_c, 0, 67, 64
3, 7920, Note_off_c, 0, 67, 64
3, 7920, Note_on_c, 0, 60, 64
3, 8040, Note_off_c, 0, 60, 64
3, 8040, Note_on_c, 0, 70, 64
3, 8220, Note_off_c, 0, 70, 64
3, 8220, Note_on_c, 0, 69, 64
3, 8400, Note_off_c, 0, 69, 64
3, 8520, Note_on_c, 0, 77, 64
3, 8700, Note_off_c, 0, 77, 64
3, 8700, Note_on_c, 0, 76, 64
3, 8880, Note_off_c, 0, 76, 64
3, 9000, Note_on_c, 0, 79, 64
3, 9180, Note_off_c, 0, 79, 64
3, 9180, Note_on_c, 0, 77, 64
3, 9420, Note_off_c, 0, 77, 64
3, 9420, Note_on_c, 0, 76, 64
3, 9480, Note_off_c, 0, 76, 64
3, 9480, Note_on_c, 0, 74, 64
3, 9540, Note_off_c, 0, 74, 64
3, 9540, Note_on_c, 0, 72, 64
3, 9600, Note_off_c, 0, 72, 64
3, 9600, Note_on_c, 0, 70, 64
3, 9890, Note_off_c, 0, 70, 64
3, 9900, Note_on_c, 0, 69, 64
3, 9960, Note_off_c, 0, 69, 64
3, 9960, Note_on_c, 0, 70, 64
3, 10020, Note_off_c, 0, 70, 64
3, 10020, Note_on_c, 0, 67, 64
3, 10080, Note_off_c, 0, 67, 64
3, 10080, Note_on_c, 0, 73, 64
3, 10320, Note_off_c, 0, 73, 64
3, 10320, Note_on_c, 0, 74, 64
3, 10380, Note_off_c, 0, 74, 64
3, 10380, Note_on_c, 0, 70, 64
3, 10440, Note_off_c, 0, 70, 64
3, 10440, Note_on_c, 0, 69, 64
3, 10500, Note_off_c, 0, 69, 64
3, 10500, Note_on_c, 0, 70, 64
3, 10560, Note_off_c, 0, 70, 64
3, 10560, Note_on_c, 0, 68, 64
3, 10680, Note_off_c, 0, 68, 64
3, 10680, Note_on_c, 0, 69, 64
3, 10800, Note_off_c, 0, 69, 64
3, 10800, Note_on_c, 0, 66, 64
3, 10920, Note_off_c, 0, 66, 64
3, 10920, Note_on_c, 0, 65, 64
3, 11040, Note_off_c, 0, 65, 64
3, 11040, Note_on_c, 0, 64, 64
3, 11280, Note_off_c, 0, 64, 64
3, 11280, Note_on_c, 0, 63, 64
3, 11400, Note_off_c, 0, 63, 64
3, 11400, Note_on_c, 0, 62, 64
3, 11520, Note_off_c, 0, 62, 64
3, 11520, Note_on_c, 0, 61, 64
3, 11640, Note_off_c, 0, 61, 64
3, 11640, Note_on_c, 0, 60, 64
3, 11760, Note_off_c, 0, 60, 64
3, 11760, Note_on_c, 0, 59, 64
3, 12000, Note_off_c, 0, 59, 64
3, 12000, Note_on_c, 0, 57, 64
3, 12240, Note_off_c, 0, 57, 64
3, 13020, Note_on_c, 0, 64, 64
3, 13080, Note_off_c, 0, 64, 64
3, 13080, Note_on_c, 0, 63, 64
3, 13140, Note_off_c, 0, 63, 64
3, 13140, Note_on_c, 0, 64, 64
3, 13200, Note_off_c, 0, 64, 64
3, 13200, Note_on_c, 0, 57, 64
3, 13320, Note_off_c, 0, 57, 64
3, 13320, Note_on_c, 0, 67, 64
3, 13500, Note_off_c, 0, 67, 64
3, 13500, Note_on_c, 0, 66, 64
3, 13560, Note_off_c, 0, 66, 64
3, 13560, Note_on_c, 0, 64, 64
3, 13620, Note_off_c, 0, 64, 64
3, 13620, Note_on_c, 0, 66, 64
3, 13680, Note_off_c, 0, 66, 64
3, 13680, Note_on_c, 0, 62, 64
3, 13800, Note_off_c, 0, 62, 64
3, 13800, Note_on_c, 0, 72, 64
3, 13980, Note_off_c, 0, 72, 64
3, 13980, Note_on_c, 0, 70, 64
3, 14040, Note_off_c, 0, 70, 64
3, 14040, Note_on_c, 0, 69, 64
3, 14100, Note_off_c, 0, 69, 64
3, 14100, Note_on_c, 0, 70, 64
3, 14160, Note_off_c, 0, 70, 64
3, 14160, Note_on_c, 0, 72, 64
3, 14220, Note_off_c, 0, 72, 64
3, 14220, Note_on_c, 0, 74, 64
3, 14280, Note_off_c, 0, 74, 64
3, 14280, Note_on_c, 0, 72, 64
3, 14340, Note_off_c, 0, 72, 64
3, 14340, Note_on_c, 0, 74, 64
3, 14400, Note_off_c, 0, 74, 64
3, 14400, Note_on_c, 0, 75, 64
3, 14690, Note_off_c, 0, 75, 64
3, 14700, Note_on_c, 0, 74, 64
3, 14760, Note_off_c, 0, 74, 64
3, 14760, Note_on_c, 0, 75, 64
3, 14820, Note_off_c, 0, 75, 64
3, 14820, Note_on_c, 0, 72, 64
3, 14880, Note_off_c, 0, 72, 64
3, 14880, Note_on_c, 0, 74, 64
3, 14940, Note_off_c, 0, 74, 64
3, 15900, Note_on_c, 0, 65, 64
3, 15960, Note_off_c, 0, 65, 64
3, 15960, Note_on_c, 0, 64, 64
3, 16020, Note_off_c, 0, 64, 64
3, 16020, Note_on_c, 0, 65, 64
3, 16080, Note_off_c, 0, 65, 64
3, 16080, Note_on_c, 0, 60, 64
3, 16200, Note_off_c, 0, 60, 64
3, 16200, Note_on_c, 0, 69, 64
3, 16380, Note_off_c, 0, 69, 64
3, 16380, Note_on_c, 0, 67, 64
3, 16440, Note_off_c, 0, 67, 64
3, 16440, Note_on_c, 0, 65, 64
3, 16500, Note_off_c, 0, 65, 64
3, 16500, Note_on_c, 0, 67, 64
3, 16560, Note_off_c, 0, 67, 64
3, 16560, Note_on_c, 0, 58, 64
3, 16680, Note_off_c, 0, 58, 64
3, 16680, Note_on_c, 0, 67, 64
3, 16860, Note_off_c, 0, 67, 64
3, 16860, Note_on_c, 0, 65, 64
3, 16920, Note_off_c, 0, 65, 64
3, 16920, Note_on_c, 0, 64, 64
3, 16980, Note_off_c, 0, 64, 64
3, 16980, Note_on_c, 0, 65, 64
3, 17040, Note_off_c, 0, 65, 64
3, 17040, Note_on_c, 0, 57, 64
3, 17160, Note_off_c, 0, 57, 64
3, 17160, Note_on_c, 0, 65, 64
3, 17340, Note_off_c, 0, 65, 64
3, 17340, Note_on_c, 0, 64, 64
3, 17400, Note_off_c, 0, 64, 64
3, 17400, Note_on_c, 0, 62, 64
3, 17460, Note_off_c, 0, 62, 64
3, 17460, Note_on_c, 0, 65, 64
3, 17520, Note_off_c, 0, 65, 64
3, 17520, Note_on_c, 0, 63, 64
3, 17580, Note_off_c, 0, 63, 64
3, 17580, Note_on_c, 0, 62, 64
3, 17640, Note_off_c, 0, 62, 64
3, 17640, Note_on_c, 0, 61, 64
3, 17700, Note_off_c, 0, 61, 64
3, 17700, Note_on_c, 0, 62, 64
3, 17760, Note_off_c, 0, 62, 64
3, 17760, Note_on_c, 0, 61, 64
3, 17880, Note_off_c, 0, 61, 64
3, 17880, Note_on_c, 0, 62, 64
3, 18000, Note_off_c, 0, 62, 64
3, 18000, Note_on_c, 0, 64, 64
3, 18360, Note_off_c, 0, 64, 64
3, 18360, Note_on_c, 0, 57, 64
3, 18480, Note_off_c, 0, 57, 64
3, 18480, Note_on_c, 0, 62, 64
3, 18770, Note_off_c, 0, 62, 64
3, 18780, Note_on_c, 0, 67, 64
3, 18840, Note_off_c, 0, 67, 64
3, 18840, Note_on_c, 0, 65, 64
3, 18900, Note_off_c, 0, 65, 64
3, 18900, Note_on_c, 0, 67, 64
3, 18960, Note_off_c, 0, 67, 64
3, 18960, Note_on_c, 0, 64, 64
3, 19020, Note_off_c, 0, 64, 64
3, 19020, Note_on_c, 0, 70, 64
3, 19080, Note_off_c, 0, 70, 64
3, 19080, Note_on_c, 0, 69, 64
3, 19140, Note_off_c, 0, 69, 64
3, 19140, Note_on_c, 0, 67, 64
3, 19200, Note_off_c, 0, 67, 64
3, 19200, Note_on_c, 0, 69, 64
3, 19260, Note_off_c, 0, 69, 64
3, 19260, Note_on_c, 0, 62, 64
3, 19320, Note_off_c, 0, 62, 64
3, 19320, Note_on_c, 0, 72, 64
3, 19500, Note_off_c, 0, 72, 64
3, 19500, Note_on_c, 0, 70, 64
3, 19560, Note_off_c, 0, 70, 64
3, 19560, Note_on_c, 0, 69, 64
3, 19620, Note_off_c, 0, 69, 64
3, 19620, Note_on_c, 0, 70, 64
3, 19680, Note_off_c, 0, 70, 64
3, 19680, Note_on_c, 0, 69, 64
3, 19740, Note_off_c, 0, 69, 64
3, 19740, Note_on_c, 0, 67, 64
3, 19800, Note_off_c, 0, 67, 64
3, 19800, Note_on_c, 0, 66, 64
3, 19860, Note_off_c, 0, 66, 64
3, 19860, Note_on_c, 0, 67, 64
3, 19920, Note_off_c, 0, 67, 64
3, 19920, Note_on_c, 0, 62, 64
3, 20040, Note_off_c, 0, 62, 64
3, 20040, Note_on_c, 0, 70, 64
3, 20220, Note_off_c, 0, 70, 64
3, 20220, Note_on_c, 0, 69, 64
3, 20280, Note_off_c, 0, 69, 64
3, 20280, Note_on_c, 0, 67, 64
3, 20340, Note_off_c, 0, 67, 64
3, 20340, Note_on_c, 0, 69, 64
3, 20400, Note_off_c, 0, 69, 64
3, 20400, Note_on_c, 0, 62, 64
3, 20520, Note_off_c, 0, 62, 64
3, 20520, Note_on_c, 0, 67, 64
3, 20700, Note_off_c, 0, 67, 64
3, 20700, Note_on_c, 0, 65, 64
3, 20760, Note_off_c, 0, 65, 64
3, 20760, Note_on_c, 0, 64, 64
3, 20820, Note_off_c, 0, 64, 64
3, 20820, Note_on_c, 0, 65, 64
3, 20880, Note_off_c, 0, 65, 64
3, 20880, Note_on_c, 0, 59, 64
3, 21000, Note_off_c, 0, 59, 64
3, 21000, Note_on_c, 0, 64, 64
3, 21180, Note_off_c, 0, 64, 64
3, 21180, Note_on_c, 0, 62, 64
3, 21240, Note_off_c, 0, 62, 64
3, 21240, Note_on_c, 0, 61, 64
3, 21300, Note_off_c, 0, 61, 64
3, 21300, Note_on_c, 0, 62, 64
3, 21420, Note_off_c, 0, 62, 64
3, 21420, Note_on_c, 0, 61, 64
3, 21480, Note_off_c, 0, 61, 64
3, 21480, Note_on_c, 0, 59, 64
3, 21540, Note_off_c, 0, 59, 64
3, 21540, Note_on_c, 0, 61, 64
3, 21600, Note_off_c, 0, 61, 64
3, 21600, End_track
4, 0, Start_track
4, 0, Text_t, "LH"
4, 0, Note_on_c, 0, 50, 64
4, 120, Note_off_c, 0, 50, 64
4, 120, Note_on_c, 0, 52, 64
4, 240, Note_off_c, 0, 52, 64
4, 240, Note_on_c, 0, 53, 64
4, 360, Note_off_c, 0, 53, 64
4, 360, Note_on_c, 0, 50, 64
4, 480, Note_off_c, 0, 50, 64
4, 480, Note_on_c, 0, 57, 64
4, 600, Note_off_c, 0, 57, 64
4, 600, Note_on_c, 0, 59, 64
4, 720, Note_off_c, 0, 59, 64
4, 720, Note_on_c, 0, 61, 64
4, 840, Note_off_c, 0, 61, 64
4, 840, Note_on_c, 0, 57, 64
4, 960, Note_off_c, 0, 57, 64
4, 960, Note_on_c, 0, 62, 64
4, 1200, Note_off_c, 0, 62, 64
4, 1260, Note_on_c, 0, 60, 64
4, 1320, Note_off_c, 0, 60, 64
4, 1320, Note_on_c, 0, 59, 64
4, 1380, Note_off_c, 0, 59, 64
4, 1380, Note_on_c, 0, 57, 64
4, 1440, Note_off_c, 0, 57, 64
4, 1440, Note_on_c, 0, 64, 64
4, 1680, Note_off_c, 0, 64, 64
4, 1680, Note_on_c, 0, 52, 64
4, 1920, Note_off_c, 0, 52, 64
4, 1920, Note_on_c, 0, 45, 64
4, 2160, Note_off_c, 0, 45, 64
4, 2940, Note_on_c, 0, 50, 64
4, 3000, Note_off_c, 0, 50, 64
4, 3000, Note_on_c, 0, 49, 64
4, 3060, Note_off_c, 0, 49, 64
4, 3060, Note_on_c, 0, 50, 64
4, 3120, Note_off_c, 0, 50, 64
4, 3120, Note_on_c, 0, 45, 64
4, 3240, Note_off_c, 0, 45, 64
4, 3240, Note_on_c, 0, 53, 64
4, 3420, Note_off_c, 0, 53, 64
4, 3420, Note_on_c, 0, 52, 64
4, 3480, Note_off_c, 0, 52, 64
4, 3480, Note_on_c, 0, 50, 64
4, 3540, Note_off_c, 0, 50, 64
4, 3540, Note_on_c, 0, 52, 64
4, 3600, Note_off_c, 0, 52, 64
4, 3600, Note_on_c, 0, 45, 64
4, 3720, Note_off_c, 0, 45, 64
4, 3720, Note_on_c, 0, 55, 64
4, 3900, Note_off_c, 0, 55, 64
4, 3900, Note_on_c, 0, 53, 64
4, 3960, Note_off_c, 0, 53, 64
4, 3960, Note_on_c, 0, 52, 64
4, 4020, Note_off_c, 0, 52, 64
4, 4020, Note_on_c, 0, 50, 64
4, 4080, Note_off_c, 0, 50, 64
4, 4080, Note_on_c, 0, 58, 64
4, 4370, Note_off_c, 0, 58, 64
4, 4380, Note_on_c, 0, 52, 64
4, 4440, Note_off_c, 0, 52, 64
4, 4440, Note_on_c, 0, 50, 64
4, 4500, Note_off_c, 0, 50, 64
4, 4500, Note_on_c, 0, 48, 64
4, 4560, Note_off_c, 0, 48, 64
4, 4560, Note_on_c, 0, 57, 64
4, 4850, Note_off_c, 0, 57, 64
4, 4860, Note_on_c, 0, 50, 64
4, 4920, Note_off_c, 0, 50, 64
4, 4920, Note_on_c, 0, 48, 64
4, 4980, Note_off_c, 0, 48, 64
4, 4980, Note_on_c, 0, 50, 64
4, 5040, Note_off_c, 0, 50, 64
4, 5040, Note_on_c, 0, 43, 64
4, 5160, Note_off_c, 0, 43, 64
4, 5160, Note_on_c, 0, 53, 64
4, 5340, Note_off_c, 0, 53, 64
4, 5340, Note_on_c, 0, 52, 64
4, 5400, Note_off_c, 0, 52, 64
4, 5400, Note_on_c, 0, 50, 64
4, 5460, Note_off_c, 0, 50, 64
4, 5460, Note_on_c, 0, 52, 64
4, 5520, Note_off_c, 0, 52, 64
4, 5520, Note_on_c, 0, 48, 64
4, 5640, Note_off_c, 0, 48, 64
4, 5640, Note_on_c, 0, 58, 64
4, 5820, Note_off_c, 0, 58, 64
4, 5820, Note_on_c, 0, 57, 64
4, 5880, Note_off_c, 0, 57, 64
4, 5880, Note_on_c, 0, 55, 64
4, 5940, Note_off_c, 0, 55, 64
4, 5940, Note_on_c, 0, 57, 64
4, 6000, Note_off_c, 0, 57, 64
4, 6000, Note_on_c, 0, 53, 64
4, 6120, Note_off_c, 0, 53, 64
4, 6120, Note_on_c, 0, 63, 64
4, 6240, Note_off_c, 0, 63, 64
4, 6240, Note_on_c, 0, 62, 64
4, 6360, Note_off_c, 0, 62, 64
4, 6360, Note_on_c, 0, 60, 64
4, 6480, Note_off_c, 0, 60, 64
4, 6480, Note_on_c, 0, 58, 64
4, 6600, Note_off_c, 0, 58, 64
4, 6600, Note_on_c, 0, 57, 64
4, 6720, Note_off_c, 0, 57, 64
4, 6720, Note_on_c, 0, 58, 64
4, 6840, Note_off_c, 0, 58, 64
4, 6840, Note_on_c, 0, 55, 64
4, 6960, Note_off_c, 0, 55, 64
4, 6960, Note_on_c, 0, 60, 64
4, 7080, Note_off_c, 0, 60, 64
4, 7080, Note_on_c, 0, 48, 64
4, 7200, Note_off_c, 0, 48, 64
4, 7200, Note_on_c, 0, 41, 64
4, 7320, Note_off_c, 0, 41, 64
4, 7320, Note_on_c, 0, 43, 64
4, 7440, Note_off_c, 0, 43, 64
4, 7440, Note_on_c, 0, 45, 64
4, 7560, Note_off_c, 0, 45, 64
4, 7560, Note_on_c, 0, 41, 64
4, 7680, Note_off_c, 0, 41, 64
4, 7680, Note_on_c, 0, 48, 64
4, 7800, Note_off_c, 0, 48, 64
4, 7800, Note_on_c, 0, 50, 64
4, 7920, Note_off_c, 0, 50, 64
4, 7920, Note_on_c, 0, 52, 64
4, 8040, Note_off_c, 0, 52, 64
4, 8040, Note_on_c, 0, 48, 64
4, 8160, Note_off_c, 0, 48, 64
4, 8160, Note_on_c, 0, 53, 64
4, 8280, Note_off_c, 0, 53, 64
4, 8280, Note_on_c, 0, 55, 64
4, 8400, Note_off_c, 0, 55, 64
4, 8400, Note_on_c, 0, 57, 64
4, 8520, Note_off_c, 0, 57, 64
4, 8520, Note_on_c, 0, 53, 64
4, 8640, Note_off_c, 0, 53, 64
4, 8640, Note_on_c, 0, 60, 64
4, 8760, Note_off_c, 0, 60, 64
4, 8760, Note_on_c, 0, 62, 64
4, 8880, Note_off_c, 0, 62, 64
4, 8880, Note_on_c, 0, 64, 64
4, 9000, Note_off_c, 0, 64, 64
4, 9000, Note_on_c, 0, 60, 64
4, 9120, Note_off_c, 0, 60, 64
4, 9120, Note_on_c, 0, 65, 64
4, 9180, Note_off_c, 0, 65, 64
4, 9180, Note_on_c, 0, 60, 64
4, 9240, Note_off_c, 0, 60, 64
4, 9240, Note_on_c, 0, 58, 64
4, 9300, Note_off_c, 0, 58, 64
4, 9300, Note_on_c, 0, 60, 64
4, 9360, Note_off_c, 0, 60, 64
4, 9360, Note_on_c, 0, 53, 64
4, 9480, Note_off_c, 0, 53, 64
4, 9480, Note_on_c, 0, 65, 64
4, 9660, Note_off_c, 0, 65, 64
4, 9660, Note_on_c, 0, 58, 64
4, 9720, Note_off_c, 0, 58, 64
4, 9720, Note_on_c, 0, 57, 64
4, 9780, Note_off_c, 0, 57, 64
4, 9780, Note_on_c, 0, 58, 64
4, 9840, Note_off_c, 0, 58, 64
4, 9840, Note_on_c, 0, 52, 64
4, 9960, Note_off_c, 0, 52, 64
4, 9960, Note_on_c, 0, 64, 64
4, 10140, Note_off_c, 0, 64, 64
4, 10140, Note_on_c, 0, 57, 64
4, 10200, Note_off_c, 0, 57, 64
4, 10200, Note_on_c, 0, 55, 64
4, 10260, Note_off_c, 0, 55, 64
4, 10260, Note_on_c, 0, 57, 64
4, 10320, Note_off_c, 0, 57, 64
4, 10320, Note_on_c, 0, 50, 64
4, 10440, Note_off_c, 0, 50, 64
4, 10440, Note_on_c, 0, 62, 64
4, 10680, Note_off_c, 0, 62, 64
4, 10680, Note_on_c, 0, 60, 64
4, 10860, Note_off_c, 0, 60, 64
4, 10860, Note_on_c, 0, 59, 64
4, 10920, Note_off_c, 0, 59, 64
4, 10920, Note_on_c, 0, 57, 64
4, 10980, Note_off_c, 0, 57, 64
4, 10980, Note_on_c, 0, 59, 64
4, 11040, Note_off_c, 0, 59, 64
4, 11040, Note_on_c, 0, 56, 64
4, 11160, Note_off_c, 0, 56, 64
4, 11160, Note_on_c, 0, 57, 64
4, 11340, Note_off_c, 0, 57, 64
4, 11340, Note_on_c, 0, 56, 64
4, 11400, Note_off_c, 0, 56, 64
4, 11400, Note_on_c, 0, 54, 64
4, 11460, Note_off_c, 0, 54, 64
4, 11460, Note_on_c, 0, 56, 64
4, 11520, Note_off_c, 0, 56, 64
4, 11520, Note_on_c, 0, 57, 64
4, 11640, Note_off_c, 0, 57, 64
4, 11640, Note_on_c, 0, 51, 64
4, 11760, Note_off_c, 0, 51, 64
4, 11760, Note_on_c, 0, 52, 64
4, 11880, Note_off_c, 0, 52, 64
4, 11880, Note_on_c, 0, 40, 64
4, 12000, Note_off_c, 0, 40, 64
4, 12000, Note_on_c, 0, 45, 64
4, 12120, Note_off_c, 0, 45, 64
4, 12120, Note_on_c, 0, 47, 64
4, 12240, Note_off_c, 0, 47, 64
4, 12240, Note_on_c, 0, 48, 64
4, 12360, Note_off_c, 0, 48, 64
4, 12360, Note_on_c, 0, 45, 64
4, 12480, Note_off_c, 0, 45, 64
4, 12480, Note_on_c, 0, 52, 64
4, 12600, Note_off_c, 0, 52, 64
4, 12600, Note_on_c, 0, 54, 64
4, 12720, Note_off_c, 0, 54, 64
4, 12720, Note_on_c, 0, 56, 64
4, 12840, Note_off_c, 0, 56, 64
4, 12840, Note_on_c, 0, 52, 64
4, 12960, Note_off_c, 0, 52, 64
4, 12960, Note_on_c, 0, 57, 64
4, 13250, Note_off_c, 0, 57, 64
4, 13260, Note_on_c, 0, 55, 64
4, 13320, Note_off_c, 0, 55, 64
4, 13320, Note_on_c, 0, 54, 64
4, 13380, Note_off_c, 0, 54, 64
4, 13380, Note_on_c, 0, 55, 64
4, 13440, Note_off_c, 0, 55, 64
4, 13440, Note_on_c, 0, 50, 64
4, 13560, Note_off_c, 0, 50, 64
4, 13560, Note_on_c, 0, 48, 64
4, 13680, Note_off_c, 0, 48, 64
4, 13680, Note_on_c, 0, 46, 64
4, 13800, Note_off_c, 0, 46, 64
4, 13800, Note_on_c, 0, 45, 64
4, 13920, Note_off_c, 0, 45, 64
4, 13920, Note_on_c, 0, 43, 64
4, 13980, Note_off_c, 0, 43, 64
4, 13980, Note_on_c, 0, 55, 64
4, 14040, Note_off_c, 0, 55, 64
4, 14040, Note_on_c, 0, 54, 64
4, 14100, Note_off_c, 0, 54, 64
4, 14100, Note_on_c, 0, 55, 64
4, 14160, Note_off_c, 0, 55, 64
4, 14160, Note_on_c, 0, 50, 64
4, 14280, Note_off_c, 0, 50, 64
4, 14280, Note_on_c, 0, 58, 64
4, 14460, Note_off_c, 0, 58, 64
4, 14460, Note_on_c, 0, 57, 64
4, 14520, Note_off_c, 0, 57, 64
4, 14520, Note_on_c, 0, 55, 64
4, 14580, Note_off_c, 0, 55, 64
4, 14580, Note_on_c, 0, 57, 64
4, 14640, Note_off_c, 0, 57, 64
4, 14640, Note_on_c, 0, 50, 64
4, 14760, Note_off_c, 0, 50, 64
4, 14760, Note_on_c, 0, 60, 64
4, 14940, Note_off_c, 0, 60, 64
4, 14940, Note_on_c, 0, 58, 64
4, 15000, Note_off_c, 0, 58, 64
4, 15000, Note_on_c, 0, 57, 64
4, 15060, Note_off_c, 0, 57, 64
4, 15060, Note_on_c, 0, 58, 64
4, 15120, Note_off_c, 0, 58, 64
4, 15120, Note_on_c, 0, 60, 64
4, 15180, Note_off_c, 0, 60, 64
4, 15180, Note_on_c, 0, 58, 64
4, 15240, Note_off_c, 0, 58, 64
4, 15240, Note_on_c, 0, 57, 64
4, 15300, Note_off_c, 0, 57, 64
4, 15300, Note_on_c, 0, 55, 64
4, 15360, Note_off_c, 0, 55, 64
4, 15360, Note_on_c, 0, 60, 64
4, 15480, Note_off_c, 0, 60, 64
4, 15480, Note_on_c, 0, 62, 64
4, 15600, Note_off_c, 0, 62, 64
4, 15600, Note_on_c, 0, 64, 64
4, 15720, Note_off_c, 0, 64, 64
4, 15720, Note_on_c, 0, 60, 64
4, 15840, Note_off_c, 0, 60, 64
4, 15840, Note_on_c, 0, 53, 64
4, 16080, Note_off_c, 0, 53, 64
4, 16200, Note_on_c, 0, 53, 64
4, 16320, Note_off_c, 0, 53, 64
4, 16320, Note_on_c, 0, 58, 64
4, 16440, Note_off_c, 0, 58, 64
4, 16440, Note_on_c, 0, 57, 64
4, 16560, Note_off_c, 0, 57, 64
4, 16560, Note_on_c, 0, 55, 64
4, 16680, Note_off_c, 0, 55, 64
4, 16680, Note_on_c, 0, 58, 64
4, 16800, Note_off_c, 0, 58, 64
4, 16800, Note_on_c, 0, 57, 64
4, 16920, Note_off_c, 0, 57, 64
4, 16920, Note_on_c, 0, 55, 64
4, 17040, Note_off_c, 0, 55, 64
4, 17040, Note_on_c, 0, 53, 64
4, 17160, Note_off_c, 0, 53, 64
4, 17160, Note_on_c, 0, 50, 64
4, 17280, Note_off_c, 0, 50, 64
4, 17280, Note_on_c, 0, 55, 64
4, 17400, Note_off_c, 0, 55, 64
4, 17400, Note_on_c, 0, 53, 64
4, 17520, Note_off_c, 0, 53, 64
4, 17520, Note_on_c, 0, 55, 64
4, 17640, Note_off_c, 0, 55, 64
4, 17640, Note_on_c, 0, 52, 64
4, 17760, Note_off_c, 0, 52, 64
4, 17760, Note_on_c, 0, 57, 64
4, 17880, Note_off_c, 0, 57, 64
4, 17880, Note_on_c, 0, 59, 64
4, 18000, Note_off_c, 0, 59, 64
4, 18000, Note_on_c, 0, 61, 64
4, 18120, Note_off_c, 0, 61, 64
4, 18120, Note_on_c, 0, 57, 64
4, 18240, Note_off_c, 0, 57, 64
4, 18240, Note_on_c, 0, 62, 64
4, 18300, Note_off_c, 0, 62, 64
4, 18300, Note_on_c, 0, 50, 64
4, 18360, Note_off_c, 0, 50, 64
4, 18360, Note_on_c, 0, 49, 64
4, 18420, Note_off_c, 0, 49, 64
4, 18420, Note_on_c, 0, 50, 64
4, 18480, Note_off_c, 0, 50, 64
4, 18480, Note_on_c, 0, 45, 64
4, 18600, Note_off_c, 0, 45, 64
4, 18600, Note_on_c, 0, 53, 64
4, 18780, Note_off_c, 0, 53, 64
4, 18780, Note_on_c, 0, 52, 64
4, 18840, Note_off_c, 0, 52, 64
4, 18840, Note_on_c, 0, 50, 64
4, 18900, Note_off_c, 0, 50, 64
4, 18900, Note_on_c, 0, 52, 64
4, 18960, Note_off_c, 0, 52, 64
4, 18960, Note_on_c, 0, 45, 64
4, 19080, Note_off_c, 0, 45, 64
4, 19080, Note_on_c, 0, 55, 64
4, 19260, Note_off_c, 0, 55, 64
4, 19260, Note_on_c, 0, 54, 64
4, 19320, Note_off_c, 0, 54, 64
4, 19320, Note_on_c, 0, 52, 64
4, 19380, Note_off_c, 0, 52, 64
4, 19380, Note_on_c, 0, 54, 64
4, 19440, Note_off_c, 0, 54, 64
4, 19440, Note_on_c, 0, 50, 64
4, 19560, Note_off_c, 0, 50, 64
4, 19560, Note_on_c, 0, 60, 64
4, 19680, Note_off_c, 0, 60, 64
4, 19680, Note_on_c, 0, 58, 64
4, 19800, Note_off_c, 0, 58, 64
4, 19800, Note_on_c, 0, 57, 64
4, 19920, Note_off_c, 0, 57, 64
4, 19920, Note_on_c, 0, 58, 64
4, 19980, Note_off_c, 0, 58, 64
4, 19980, Note_on_c, 0, 57, 64
4, 20040, Note_off_c, 0, 57, 64
4, 20040, Note_on_c, 0, 55, 64
4, 20100, Note_off_c, 0, 55, 64
4, 20100, Note_on_c, 0, 57, 64
4, 20160, Note_off_c, 0, 57, 64
4, 20160, Note_on_c, 0, 55, 64
4, 20220, Note_off_c, 0, 55, 64
4, 20220, Note_on_c, 0, 54, 64
4, 20280, Note_off_c, 0, 54, 64
4, 20280, Note_on_c, 0, 52, 64
4, 20340, Note_off_c, 0, 52, 64
4, 20340, Note_on_c, 0, 54, 64
4, 20400, Note_off_c, 0, 54, 64
4, 20400, Note_on_c, 0, 55, 64
4, 20460, Note_off_c, 0, 55, 64
4, 20460, Note_on_c, 0, 53, 64
4, 20520, Note_off_c, 0, 53, 64
4, 20520, Note_on_c, 0, 51, 64
4, 20580, Note_off_c, 0, 51, 64
4, 20580, Note_on_c, 0, 50, 64
4, 20640, Note_off_c, 0, 50, 64
4, 20640, Note_on_c, 0, 49, 64
4, 20760, Note_off_c, 0, 49, 64
4, 20760, Note_on_c, 0, 50, 64
4, 20940, Note_off_c, 0, 50, 64
4, 20940, Note_on_c, 0, 48, 64
4, 21000, Note_off_c, 0, 48, 64
4, 21000, Note_on_c, 0, 47, 64
4, 21060, Note_off_c, 0, 47, 64
4, 21060, Note_on_c, 0, 48, 64
4, 21120, Note_off_c, 0, 48, 64
4, 21120, Note_on_c, 0, 50, 64
4, 21240, Note_off_c, 0, 50, 64
4, 21240, Note_on_c, 0, 44, 64
4, 21360, Note_off_c, 0, 44, 64
4, 21360, Note_on_c, 0, 45, 64
4, 21600, Note_off_c, 0, 45, 64
4, 21600, Note_on_c, 0, 38, 64
4, 22320, Note_off_c, 0, 38, 64
4, 22320, End_track
0, 0, End_of_file
