0, 0, Header, 1, 4, 240
1, 0, Start_track
1, 0, Time_signature, 9, 3, 36, 8
1, 0, Tempo, 333333
1, 35088, Tempo, 338983
1, 35200, Tempo, 344828
1, 35344, Tempo, 350877
1, 35424, Tempo, 365854
1, 35496, Tempo, 402685
1, 35576, Tempo, 530973
1, 35640, Tempo, 1000000
1, 36000, Tempo, 377358
1, 36720, Tempo, 370370
1, 42648, Tempo, 389610
1, 42840, Tempo, 402685
1, 42936, Tempo, 419580
1, 43072, Tempo, 434783
1, 43136, Tempo, 454545
1, 43200, Tempo, 368098
1, 44280, Tempo, 333333
1, 44280, End_track
2, 0, Start_track
2, 0, Text_t, "RH"
2, 1080, Note_on_c, 0, 71, 64
2, 1200, Note_off_c, 0, 71, 64
2, 1200, Note_on_c, 0, 73, 64
2, 1320, Note_off_c, 0, 73, 64
2, 1320, Note_on_c, 0, 75, 64
2, 1440, Note_off_c, 0, 75, 64
2, 1440, Note_on_c, 0, 76, 64
2, 1560, Note_off_c, 0, 76, 64
2, 1560, Note_on_c, 0, 78, 64
2, 1680, Note_off_c, 0, 78, 64
2, 1680, Note_on_c, 0, 80, 64
2, 1800, Note_off_c, 0, 80, 64
2, 1800, Note_on_c, 0, 78, 64
2, 1920, Note_off_c, 0, 78, 64
2, 1920, Note_on_c, 0, 80, 64
2, 2040, Note_off_c, 0, 80, 64
2, 2040, Note_on_c, 0, 76, 64
2, 2150, Note_off_c, 0, 76, 64
2, 2160, Note_on_c, 0, 76, 73
2, 2200, Note_off_c, 0, 76, 64
2, 2200, Note_on_c, 0, 75, 50
2, 2240, Note_off_c, 0, 75, 64
2, 2240, Note_on_c, 0, 76, 54
2, 2280, Note_off_c, 0, 76, 64
2, 2280, Note_on_c, 0, 75, 57
2, 2520, Note_off_c, 0, 75, 64
2, 2520, Note_on_c, 0, 73, 64
2, 3240, Note_off_c, 0, 73, 64
2, 3240, Note_on_c, 0, 71, 64
2, 3960, Note_off_c, 0, 71, 64
2, 3960, Note_on_c, 0, 69, 64
2, 4680, Note_off_c, 0, 69, 64
2, 4680, Note_on_c, 0, 68, 64
2, 5400, Note_off_c, 0, 68, 64
2, 5400, Note_on_c, 0, 73, 64
2, 6120, Note_off_c, 0, 73, 64
2, 6120, Note_on_c, 0, 75, 64
2, 6480, Note_off_c, 0, 75, 64
2, 6480, Note_on_c, 0, 76, 64
2, 7200, Note_off_c, 0, 76, 64
2, 7200, Note_on_c, 0, 75, 64
2, 7920, Note_off_c, 0, 75, 64
2, 7920, Note_on_c, 0, 73, 64
2, 8640, Note_off_c, 0, 73, 64
2, 8640, Note_on_c, 0, 71, 64
2, 9000, Note_off_c, 0, 71, 64
2, 9000, Note_on_c, 0, 73, 64
2, 9840, Note_off_c, 0, 73, 64
2, 9840, Note_on_c, 0, 75, 64
2, 9960, Note_off_c, 0, 75, 64
2, 9960, Note_on_c, 0, 76, 64
2, 10080, Note_off_c, 0, 76, 64
2, 10080, Note_on_c, 0, 78, 64
2, 10200, Note_off_c, 0, 78, 64
2, 10200, Note_on_c, 0, 80, 64
2, 10320, Note_off_c, 0, 80, 64
2, 10320, Note_on_c, 0, 81, 64
2, 10440, Note_off_c, 0, 81, 64
2, 10440, Note_on_c, 0, 80, 64
2, 10560, Note_off_c, 0, 80, 64
2, 10560, Note_on_c, 0, 81, 64
2, 10680, Note_off_c, 0, 81, 64
2, 10680, Note_on_c, 0, 78, 64
2, 10800, Note_off_c, 0, 78, 64
2, 10800, Note_on_c, 0, 76, 64
2, 10920, Note_off_c, 0, 76, 64
2, 10920, Note_on_c, 0, 80, 64
2, 11040, Note_off_c, 0, 80, 64
2, 11040, Note_on_c, 0, 75, 64
2, 11160, Note_off_c, 0, 75, 64
2, 11160, Note_on_c, 0, 76, 70
2, 11200, Note_off_c, 0, 76, 64
2, 11200, Note_on_c, 0, 75, 56
2, 11240, Note_off_c, 0, 75, 64
2, 11240, Note_on_c, 0, 76, 64
2, 11280, Note_off_c, 0, 76, 64
2, 11280, Note_on_c, 0, 80, 64
2, 11400, Note_off_c, 0, 80, 64
2, 11400, Note_on_c, 0, 72, 64
2, 11520, Note_off_c, 0, 72, 64
2, 11520, Note_on_c, 0, 73, 70
2, 11560, Note_off_c, 0, 73, 64
2, 11560, Note_on_c, 0, 72, 56
2, 11600, Note_off_c, 0, 72, 64
2, 11600, Note_on_c, 0, 73, 64
2, 11640, Note_off_c, 0, 73, 64
2, 11640, Note_on_c, 0, 76, 64
2, 12240, Note_off_c, 0, 76, 64
2, 12600, Note_on_c, 0, 76, 64
2, 13312, Note_on_c, 0, 75, 64
2, 13320, Note_off_c, 0, 76, 64
2, 14392, Note_off_c, 0, 75, 64
2, 14400, Note_on_c, 0, 73, 64
2, 14760, Note_off_c, 0, 73, 64
2, 14760, Note_on_c, 0, 71, 64
2, 15470, Note_off_c, 0, 71, 64
2, 15480, Note_on_c, 0, 71, 70
2, 15520, Note_off_c, 0, 71, 64
2, 15520, Note_on_c, 0, 70, 50
2, 15560, Note_off_c, 0, 70, 64
2, 15560, Note_on_c, 0, 71, 55
2, 15600, Note_off_c, 0, 71, 64
2, 15600, Note_on_c, 0, 70, 60
2, 15840, Note_off_c, 0, 70, 64
2, 15840, Note_on_c, 0, 73, 64
2, 16920, Note_off_c, 0, 73, 64
2, 17280, Note_on_c, 0, 83, 64
2, 17400, Note_off_c, 0, 83, 64
2, 17400, Note_on_c, 0, 82, 64
2, 17520, Note_off_c, 0, 82, 64
2, 17520, Note_on_c, 0, 80, 64
2, 17640, Note_off_c, 0, 80, 64
2, 17640, Note_on_c, 0, 78, 64
2, 17760, Note_off_c, 0, 78, 64
2, 17760, Note_on_c, 0, 76, 64
2, 17880, Note_off_c, 0, 76, 64
2, 17880, Note_on_c, 0, 75, 64
2, 18000, Note_off_c, 0, 75, 64
2, 18000, Note_on_c, 0, 76, 64
2, 18120, Note_off_c, 0, 76, 64
2, 18120, Note_on_c, 0, 73, 64
2, 18240, Note_off_c, 0, 73, 64
2, 18240, Note_on_c, 0, 75, 64
2, 18360, Note_off_c, 0, 75, 64
2, 18360, Note_on_c, 0, 73, 70
2, 18400, Note_off_c, 0, 73, 64
2, 18400, Note_on_c, 0, 71, 49
2, 18440, Note_off_c, 0, 71, 64
2, 18440, Note_on_c, 0, 73, 51
2, 18480, Note_off_c, 0, 73, 64
2, 18480, Note_on_c, 0, 71, 54
2, 18520, Note_off_c, 0, 71, 64
2, 18520, Note_on_c, 0, 73, 56
2, 18560, Note_off_c, 0, 73, 64
2, 18560, Note_on_c, 0, 71, 59
2, 18720, Note_off_c, 0, 71, 64
2, 20520, Note_on_c, 0, 66, 64
2, 20640, Note_off_c, 0, 66, 64
2, 20640, Note_on_c, 0, 68, 64
2, 20760, Note_off_c, 0, 68, 64
2, 20760, Note_on_c, 0, 69, 64
2, 20880, Note_off_c, 0, 69, 64
2, 20880, Note_on_c, 0, 71, 64
2, 21000, Note_off_c, 0, 71, 64
2, 21000, Note_on_c, 0, 73, 64
2, 21120, Note_off_c, 0, 73, 64
2, 21120, Note_on_c, 0, 74, 64
2, 21240, Note_off_c, 0, 74, 64
2, 21240, Note_on_c, 0, 73, 64
2, 21360, Note_off_c, 0, 73, 64
2, 21360, Note_on_c, 0, 74, 64
2, 21480, Note_off_c, 0, 74, 64
2, 21480, Note_on_c, 0, 71, 64
2, 21600, Note_off_c, 0, 71, 64
2, 21600, Note_on_c, 0, 69, 64
2, 21720, Note_off_c, 0, 69, 64
2, 21720, Note_on_c, 0, 71, 64
2, 21840, Note_off_c, 0, 71, 64
2, 21840, Note_on_c, 0, 73, 64
2, 21960, Note_off_c, 0, 73, 64
2, 21960, Note_on_c, 0, 74, 64
2, 22080, Note_off_c, 0, 74, 64
2, 22080, Note_on_c, 0, 76, 64
2, 22200, Note_off_c, 0, 76, 64
2, 22200, Note_on_c, 0, 78, 64
2, 22320, Note_off_c, 0, 78, 64
2, 22320, Note_on_c, 0, 76, 64
2, 22440, Note_off_c, 0, 76, 64
2, 22440, Note_on_c, 0, 78, 64
2, 22560, Note_off_c, 0, 78, 64
2, 22560, Note_on_c, 0, 74, 64
2, 22680, Note_off_c, 0, 74, 64
2, 22680, Note_on_c, 0, 73, 64
2, 22800, Note_off_c, 0, 73, 64
2, 22800, Note_on_c, 0, 75, 64
2, 22920, Note_off_c, 0, 75, 64
2, 22920, Note_on_c, 0, 76, 64
2, 23040, Note_off_c, 0, 76, 64
2, 23040, Note_on_c, 0, 78, 64
2, 23160, Note_off_c, 0, 78, 64
2, 23160, Note_on_c, 0, 80, 64
2, 23280, Note_off_c, 0, 80, 64
2, 23280, Note_on_c, 0, 81, 64
2, 23400, Note_off_c, 0, 81, 64
2, 23400, Note_on_c, 0, 80, 64
2, 23520, Note_off_c, 0, 80, 64
2, 23520, Note_on_c, 0, 81, 64
2, 23640, Note_off_c, 0, 81, 64
2, 23640, Note_on_c, 0, 78, 64
2, 23760, Note_off_c, 0, 78, 64
2, 23760, Note_on_c, 0, 76, 64
2, 24960, Note_off_c, 0, 76, 64
2, 24960, Note_on_c, 0, 76, 64
2, 25080, Note_off_c, 0, 76, 64
2, 25080, Note_on_c, 0, 75, 64
2, 25200, Note_off_c, 0, 75, 64
2, 25200, Note_on_c, 0, 73, 64
2, 25320, Note_off_c, 0, 73, 64
2, 25320, Note_on_c, 0, 71, 64
2, 25440, Note_off_c, 0, 71, 64
2, 25440, Note_on_c, 0, 69, 64
2, 25560, Note_off_c, 0, 69, 64
2, 25560, Note_on_c, 0, 71, 64
2, 25680, Note_off_c, 0, 71, 64
2, 25680, Note_on_c, 0, 69, 64
2, 25800, Note_off_c, 0, 69, 64
2, 25800, Note_on_c, 0, 73, 64
2, 25920, Note_off_c, 0, 73, 64
2, 25920, Note_on_c, 0, 75, 64
2, 26400, Note_off_c, 0, 75, 64
2, 26400, Note_on_c, 0, 76, 64
2, 26520, Note_off_c, 0, 76, 64
2, 26520, Note_on_c, 0, 78, 64
2, 26640, Note_off_c, 0, 78, 64
2, 26640, Note_on_c, 0, 80, 64
2, 26760, Note_off_c, 0, 80, 64
2, 26760, Note_on_c, 0, 78, 64
2, 26880, Note_off_c, 0, 78, 64
2, 26880, Note_on_c, 0, 81, 64
2, 27000, Note_off_c, 0, 81, 64
2, 27000, Note_on_c, 0, 71, 64
2, 28080, Note_off_c, 0, 71, 64
2, 28080, Note_on_c, 0, 69, 64
2, 28800, Note_off_c, 0, 69, 64
2, 28800, Note_on_c, 0, 68, 64
2, 29520, Note_off_c, 0, 68, 64
2, 29520, Note_on_c, 0, 66, 64
2, 30600, Note_off_c, 0, 66, 64
2, 30600, Note_on_c, 0, 64, 64
2, 30960, Note_off_c, 0, 64, 64
2, 30960, Note_on_c, 0, 63, 64
2, 32520, Note_off_c, 0, 63, 64
2, 32520, Note_on_c, 0, 61, 64
2, 32640, Note_off_c, 0, 61, 64
2, 32640, Note_on_c, 0, 63, 64
2, 32760, Note_off_c, 0, 63, 64
2, 32760, Note_on_c, 0, 64, 64
2, 32880, Note_off_c, 0, 64, 64
2, 32880, Note_on_c, 0, 66, 64
2, 33000, Note_off_c, 0, 66, 64
2, 33000, Note_on_c, 0, 68, 64
2, 33120, Note_off_c, 0, 68, 64
2, 33120, Note_on_c, 0, 66, 64
2, 33240, Note_off_c, 0, 66, 64
2, 33240, Note_on_c, 0, 68, 64
2, 33360, Note_off_c, 0, 68, 64
2, 33360, Note_on_c, 0, 64, 64
2, 33480, Note_off_c, 0, 64, 64
2, 33480, Note_on_c, 0, 69, 64
2, 34680, Note_off_c, 0, 69, 64
2, 34680, Note_on_c, 0, 66, 64
2, 34800, Note_off_c, 0, 66, 64
2, 34800, Note_on_c, 0, 68, 64
2, 34920, Note_off_c, 0, 68, 64
2, 34920, Note_on_c, 0, 69, 64
2, 35040, Note_off_c, 0, 69, 64
2, 35040, Note_on_c, 0, 71, 64
2, 35160, Note_off_c, 0, 71, 64
2, 35160, Note_on_c, 0, 73, 64
2, 35280, Note_off_c, 0, 73, 64
2, 35280, Note_on_c, 0, 71, 64
2, 35400, Note_off_c, 0, 71, 64
2, 35400, Note_on_c, 0, 73, 64
2, 35520, Note_off_c, 0, 73, 64
2, 35520, Note_on_c, 0, 69, 64
2, 35640, Note_off_c, 0, 69, 64
2, 35640, Note_on_c, 0, 76, 70
2, 35700, Note_off_c, 0, 76, 64
2, 35700, Note_on_c, 0, 75, 64
2, 36000, Note_off_c, 0, 75, 64
2, 36720, Note_on_c, 0, 76, 64
2, 36840, Note_off_c, 0, 76, 64
2, 36840, Note_on_c, 0, 75, 64
2, 36960, Note_off_c, 0, 75, 64
2, 36960, Note_on_c, 0, 73, 64
2, 37080, Note_off_c, 0, 73, 64
2, 37080, Note_on_c, 0, 71, 64
2, 37200, Note_off_c, 0, 71, 64
2, 37200, Note_on_c, 0, 69, 64
2, 37320, Note_off_c, 0, 69, 64
2, 37320, Note_on_c, 0, 68, 64
2, 37440, Note_off_c, 0, 68, 64
2, 37440, Note_on_c, 0, 69, 64
2, 37560, Note_off_c, 0, 69, 64
2, 37560, Note_on_c, 0, 68, 64
2, 37680, Note_off_c, 0, 68, 64
2, 37680, Note_on_c, 0, 71, 64
2, 37800, Note_off_c, 0, 71, 64
2, 37800, Note_on_c, 0, 73, 64
2, 38160, Note_off_c, 0, 73, 64
2, 38880, Note_on_c, 0, 83, 64
2, 39000, Note_off_c, 0, 83, 64
2, 39000, Note_on_c, 0, 81, 64
2, 39120, Note_off_c, 0, 81, 64
2, 39120, Note_on_c, 0, 80, 64
2, 39240, Note_off_c, 0, 80, 64
2, 39240, Note_on_c, 0, 78, 64
2, 39360, Note_off_c, 0, 78, 64
2, 39360, Note_on_c, 0, 76, 64
2, 39480, Note_off_c, 0, 76, 64
2, 39480, Note_on_c, 0, 75, 64
2, 39600, Note_off_c, 0, 75, 64
2, 39600, Note_on_c, 0, 76, 64
2, 39720, Note_off_c, 0, 76, 64
2, 39720, Note_on_c, 0, 75, 64
2, 39840, Note_off_c, 0, 75, 64
2, 39840, Note_on_c, 0, 78, 70
2, 40020, Note_off_c, 0, 78, 64
2, 40020, Note_on_c, 0, 76, 64
2, 40074, Note_off_c, 0, 76, 64
2, 40080, Note_on_c, 0, 75, 64
2, 40134, Note_off_c, 0, 75, 64
2, 40140, Note_on_c, 0, 73, 64
2, 40194, Note_off_c, 0, 73, 64
2, 40200, Note_on_c, 0, 80, 70
2, 40380, Note_off_c, 0, 80, 64
2, 40380, Note_on_c, 0, 78, 64
2, 40434, Note_off_c, 0, 78, 64
2, 40440, Note_on_c, 0, 76, 64
2, 40494, Note_off_c, 0, 76, 64
2, 40500, Note_on_c, 0, 75, 64
2, 40554, Note_off_c, 0, 75, 64
2, 40560, Note_on_c, 0, 81, 70
2, 40740, Note_off_c, 0, 81, 64
2, 40740, Note_on_c, 0, 80, 64
2, 40794, Note_off_c, 0, 80, 64
2, 40800, Note_on_c, 0, 78, 64
2, 40854, Note_off_c, 0, 78, 64
2, 40860, Note_on_c, 0, 76, 64
2, 40914, Note_off_c, 0, 76, 64
2, 40920, Note_on_c, 0, 83, 64
2, 41160, Note_off_c, 0, 83, 64
2, 41160, Note_on_c, 0, 71, 64
2, 41280, Note_off_c, 0, 71, 64
2, 41280, Note_on_c, 0, 73, 64
2, 41400, Note_off_c, 0, 73, 64
2, 41400, Note_on_c, 0, 75, 64
2, 41520, Note_off_c, 0, 75, 64
2, 41520, Note_on_c, 0, 76, 64
2, 41640, Note_off_c, 0, 76, 64
2, 41640, Note_on_c, 0, 78, 64
2, 41760, Note_off_c, 0, 78, 64
2, 41760, Note_on_c, 0, 76, 64
2, 41880, Note_off_c, 0, 76, 64
2, 41880, Note_on_c, 0, 78, 64
2, 42000, Note_off_c, 0, 78, 64
2, 42000, Note_on_c, 0, 75, 64
2, 42120, Note_off_c, 0, 75, 64
2, 42120, Note_on_c, 0, 76, 64
2, 42480, Note_off_c, 0, 76, 64
2, 42840, Note_on_c, 0, 66, 64
2, 43080, Note_off_c, 0, 66, 64
2, 43080, Note_on_c, 0, 69, 64
2, 43190, Note_off_c, 0, 69, 64
2, 43200, Note_on_c, 0, 69, 80
2, 43260, Note_off_c, 0, 69, 64
2, 43260, Note_on_c, 0, 68, 64
2, 44640, Note_off_c, 0, 68, 64
2, 44640, End_track
3, 0, Start_track
3, 0, Text_t, "RH/LH"
3, 120, Note_on_c, 0, 66, 64
3, 240, Note_off_c, 0, 66, 64
3, 240, Note_on_c, 0, 68, 64
3, 360, Note_off_c, 0, 68, 64
3, 360, Note_on_c, 0, 69, 64
3, 480, Note_off_c, 0, 69, 64
3, 480, Note_on_c, 0, 71, 64
3, 600, Note_off_c, 0, 71, 64
3, 600, Note_on_c, 0, 73, 64
3, 720, Note_off_c, 0, 73, 64
3, 720, Note_on_c, 0, 71, 64
3, 840, Note_off_c, 0, 71, 64
3, 840, Note_on_c, 0, 73, 64
3, 960, Note_off_c, 0, 73, 64
3, 960, Note_on_c, 0, 69, 64
3, 1080, Note_off_c, 0, 69, 64
3, 1080, Note_on_c, 0, 68, 64
3, 1800, Note_off_c, 0, 68, 64
3, 1800, Note_on_c, 0, 70, 64
3, 2160, Note_off_c, 0, 70, 64
3, 2160, Note_on_c, 0, 71, 64
3, 2880, Note_off_c, 0, 71, 64
3, 2880, Note_on_c, 0, 69, 64
3, 3600, Note_off_c, 0, 69, 64
3, 3600, Note_on_c, 0, 68, 64
3, 4320, Note_off_c, 0, 68, 64
3, 4320, Note_on_c, 0, 66, 64
3, 5040, Note_off_c, 0, 66, 64
3, 5040, Note_on_c, 0, 64, 64
3, 5520, Note_off_c, 0, 64, 64
3, 5520, Note_on_c, 0, 66, 64
3, 5640, Note_off_c, 0, 66, 64
3, 5640, Note_on_c, 0, 68, 64
3, 5760, Note_off_c, 0, 68, 64
3, 5760, Note_on_c, 0, 69, 64
3, 5880, Note_off_c, 0, 69, 64
3, 5880, Note_on_c, 0, 71, 64
3, 6000, Note_off_c, 0, 71, 64
3, 6000, Note_on_c, 0, 73, 64
3, 6120, Note_off_c, 0, 73, 64
3, 6120, Note_on_c, 0, 71, 64
3, 6240, Note_off_c, 0, 71, 64
3, 6240, Note_on_c, 0, 73, 64
3, 6360, Note_off_c, 0, 73, 64
3, 6360, Note_on_c, 0, 69, 64
3, 6480, Note_off_c, 0, 69, 64
3, 6480, Note_on_c, 0, 68, 64
3, 6840, Note_off_c, 0, 68, 64
3, 6840, Note_on_c, 0, 66, 64
3, 7560, Note_off_c, 0, 66, 64
3, 7560, Note_on_c, 0, 64, 64
3, 8280, Note_off_c, 0, 64, 64
3, 8280, Note_on_c, 0, 63, 64
3, 8760, Note_off_c, 0, 63, 64
3, 8760, Note_on_c, 0, 64, 64
3, 8880, Note_off_c, 0, 64, 64
3, 8880, Note_on_c, 0, 66, 64
3, 9000, Note_off_c, 0, 66, 64
3, 9000, Note_on_c, 0, 68, 64
3, 9120, Note_off_c, 0, 68, 64
3, 9120, Note_on_c, 0, 69, 64
3, 9240, Note_off_c, 0, 69, 64
3, 9240, Note_on_c, 0, 71, 64
3, 9360, Note_off_c, 0, 71, 64
3, 9360, Note_on_c, 0, 69, 64
3, 9480, Note_off_c, 0, 69, 64
3, 9480, Note_on_c, 0, 71, 64
3, 9600, Note_off_c, 0, 71, 64
3, 9600, Note_on_c, 0, 68, 64
3, 9720, Note_off_c, 0, 68, 64
3, 9720, Note_on_c, 0, 66, 64
3, 10080, Note_off_c, 0, 66, 64
3, 10080, Note_on_c, 0, 60, 64
3, 10800, Note_off_c, 0, 60, 64
3, 10800, Note_on_c, 0, 61, 64
3, 11160, Note_off_c, 0, 61, 64
3, 11760, Note_on_c, 0, 68, 64
3, 11880, Note_off_c, 0, 68, 64
3, 11880, Note_on_c, 0, 70, 64
3, 12000, Note_off_c, 0, 70, 64
3, 12000, Note_on_c, 0, 73, 64
3, 12120, Note_off_c, 0, 73, 64
3, 12120, Note_on_c, 0, 68, 64
3, 12240, Note_off_c, 0, 68, 64
3, 12240, Note_on_c, 0, 70, 64
3, 12360, Note_off_c, 0, 70, 64
3, 12360, Note_on_c, 0, 73, 64
3, 12480, Note_off_c, 0, 73, 64
3, 12480, Note_on_c, 0, 65, 64
3, 12600, Note_off_c, 0, 65, 64
3, 12600, Note_on_c, 0, 66, 64
3, 12720, Note_off_c, 0, 66, 64
3, 12720, Note_on_c, 0, 69, 64
3, 13320, Note_off_c, 0, 69, 64
3, 13320, Note_on_c, 0, 71, 71
3, 13360, Note_off_c, 0, 71, 64
3, 13360, Note_on_c, 0, 69, 56
3, 13400, Note_off_c, 0, 69, 64
3, 13400, Note_on_c, 0, 71, 64
3, 13680, Note_off_c, 0, 71, 64
3, 13680, Note_on_c, 0, 66, 64
3, 14040, Note_off_c, 0, 66, 64
3, 14040, Note_on_c, 0, 64, 64
3, 14760, Note_off_c, 0, 64, 64
3, 14760, Note_on_c, 0, 63, 64
3, 15120, Note_off_c, 0, 63, 64
3, 15120, Note_on_c, 0, 64, 64
3, 16320, Note_off_c, 0, 64, 64
3, 16320, Note_on_c, 0, 66, 64
3, 16440, Note_off_c, 0, 66, 64
3, 16440, Note_on_c, 0, 68, 64
3, 16560, Note_off_c, 0, 68, 64
3, 16560, Note_on_c, 0, 70, 64
3, 16680, Note_off_c, 0, 70, 64
3, 16680, Note_on_c, 0, 71, 64
3, 16800, Note_off_c, 0, 71, 64
3, 16800, Note_on_c, 0, 73, 64
3, 16920, Note_off_c, 0, 73, 64
3, 16920, Note_on_c, 0, 71, 64
3, 17040, Note_off_c, 0, 71, 64
3, 17040, Note_on_c, 0, 73, 64
3, 17160, Note_off_c, 0, 73, 64
3, 17160, Note_on_c, 0, 70, 64
3, 17280, Note_off_c, 0, 70, 64
3, 17280, Note_on_c, 0, 71, 64
3, 18000, Note_off_c, 0, 71, 64
3, 18000, Note_on_c, 0, 70, 64
3, 18360, Note_off_c, 0, 70, 64
3, 19440, Note_on_c, 0, 59, 64
3, 19560, Note_off_c, 0, 59, 64
3, 19560, Note_on_c, 0, 61, 64
3, 19680, Note_off_c, 0, 61, 64
3, 19680, Note_on_c, 0, 63, 64
3, 19800, Note_off_c, 0, 63, 64
3, 19800, Note_on_c, 0, 64, 64
3, 19920, Note_off_c, 0, 64, 64
3, 19920, Note_on_c, 0, 66, 64
3, 20040, Note_off_c, 0, 66, 64
3, 20040, Note_on_c, 0, 68, 64
3, 20160, Note_off_c, 0, 68, 64
3, 20160, Note_on_c, 0, 66, 64
3, 20280, Note_off_c, 0, 66, 64
3, 20280, Note_on_c, 0, 68, 64
3, 20400, Note_off_c, 0, 68, 64
3, 20400, Note_on_c, 0, 64, 64
3, 20520, Note_off_c, 0, 64, 64
3, 20520, Note_on_c, 0, 63, 64
3, 20880, Note_off_c, 0, 63, 64
3, 20880, Note_on_c, 0, 65, 64
3, 21600, Note_off_c, 0, 65, 64
3, 21600, Note_on_c, 0, 66, 64
3, 22320, Note_off_c, 0, 66, 64
3, 22320, Note_on_c, 0, 68, 64
3, 22680, Note_off_c, 0, 68, 64
3, 22680, Note_on_c, 0, 69, 64
3, 23040, Note_off_c, 0, 69, 64
3, 23760, Note_on_c, 0, 73, 64
3, 23880, Note_off_c, 0, 73, 64
3, 23880, Note_on_c, 0, 71, 64
3, 24000, Note_off_c, 0, 71, 64
3, 24000, Note_on_c, 0, 69, 64
3, 24120, Note_off_c, 0, 69, 64
3, 24120, Note_on_c, 0, 68, 64
3, 24240, Note_off_c, 0, 68, 64
3, 24240, Note_on_c, 0, 66, 64
3, 24360, Note_off_c, 0, 66, 64
3, 24360, Note_on_c, 0, 64, 64
3, 24480, Note_off_c, 0, 64, 64
3, 24480, Note_on_c, 0, 66, 64
3, 24600, Note_off_c, 0, 66, 64
3, 24600, Note_on_c, 0, 64, 64
3, 24720, Note_off_c, 0, 64, 64
3, 24720, Note_on_c, 0, 68, 64
3, 24840, Note_off_c, 0, 68, 64
3, 24840, Note_on_c, 0, 69, 64
3, 27120, Note_off_c, 0, 69, 64
3, 27120, Note_on_c, 0, 68, 64
3, 27240, Note_off_c, 0, 68, 64
3, 27240, Note_on_c, 0, 66, 64
3, 27360, Note_off_c, 0, 66, 64
3, 27360, Note_on_c, 0, 64, 64
3, 27480, Note_off_c, 0, 64, 64
3, 27480, Note_on_c, 0, 62, 64
3, 27600, Note_off_c, 0, 62, 64
3, 27600, Note_on_c, 0, 61, 64
3, 27720, Note_off_c, 0, 61, 64
3, 27720, Note_on_c, 0, 62, 64
3, 27840, Note_off_c, 0, 62, 64
3, 27840, Note_on_c, 0, 59, 64
3, 27960, Note_off_c, 0, 59, 64
3, 27960, Note_on_c, 0, 61, 64
3, 28080, Note_off_c, 0, 61, 64
3, 28080, Note_on_c, 0, 61, 64
3, 28200, Note_off_c, 0, 61, 64
3, 28200, Note_on_c, 0, 63, 64
3, 28320, Note_off_c, 0, 63, 64
3, 28320, Note_on_c, 0, 64, 64
3, 28440, Note_off_c, 0, 64, 64
3, 28440, Note_on_c, 0, 63, 64
3, 28560, Note_off_c, 0, 63, 64
3, 28560, Note_on_c, 0, 64, 64
3, 28680, Note_off_c, 0, 64, 64
3, 28680, Note_on_c, 0, 61, 64
3, 28800, Note_off_c, 0, 61, 64
3, 28800, Note_on_c, 0, 59, 64
3, 28920, Note_off_c, 0, 59, 64
3, 28920, Note_on_c, 0, 61, 64
3, 29040, Note_off_c, 0, 61, 64
3, 29040, Note_on_c, 0, 63, 64
3, 29160, Note_off_c, 0, 63, 64
3, 29160, Note_on_c, 0, 61, 64
3, 29280, Note_off_c, 0, 61, 64
3, 29280, Note_on_c, 0, 63, 64
3, 29400, Note_off_c, 0, 63, 64
3, 29400, Note_on_c, 0, 59, 64
3, 29520, Note_off_c, 0, 59, 64
3, 29520, Note_on_c, 0, 57, 64
3, 29640, Note_off_c, 0, 57, 64
3, 29640, Note_on_c, 0, 59, 64
3, 29760, Note_off_c, 0, 59, 64
3, 29760, Note_on_c, 0, 61, 64
3, 29880, Note_off_c, 0, 61, 64
3, 29880, Note_on_c, 0, 59, 64
3, 30000, Note_off_c, 0, 59, 64
3, 30000, Note_on_c, 0, 61, 64
3, 30120, Note_off_c, 0, 61, 64
3, 30120, Note_on_c, 0, 57, 64
3, 30240, Note_off_c, 0, 57, 64
3, 30240, Note_on_c, 0, 56, 64
3, 30960, Note_off_c, 0, 56, 64
3, 30960, Note_on_c, 0, 54, 64
3, 31440, Note_off_c, 0, 54, 64
3, 31440, Note_on_c, 0, 51, 64
3, 31560, Note_off_c, 0, 51, 64
3, 31560, Note_on_c, 0, 52, 64
3, 31680, Note_off_c, 0, 52, 64
3, 31680, Note_on_c, 0, 54, 64
3, 31800, Note_off_c, 0, 54, 64
3, 31800, Note_on_c, 0, 56, 64
3, 31920, Note_off_c, 0, 56, 64
3, 31920, Note_on_c, 0, 57, 64
3, 32040, Note_off_c, 0, 57, 64
3, 32040, Note_on_c, 0, 56, 64
3, 32160, Note_off_c, 0, 56, 64
3, 32160, Note_on_c, 0, 57, 64
3, 32280, Note_off_c, 0, 57, 64
3, 32280, Note_on_c, 0, 54, 64
3, 32400, Note_off_c, 0, 54, 64
3, 32400, Note_on_c, 0, 52, 64
3, 32760, Note_off_c, 0, 52, 64
3, 32760, Note_on_c, 0, 61, 64
3, 33600, Note_off_c, 0, 61, 64
3, 33600, Note_on_c, 0, 57, 64
3, 33720, Note_off_c, 0, 57, 64
3, 33720, Note_on_c, 0, 59, 64
3, 33840, Note_off_c, 0, 59, 64
3, 33840, Note_on_c, 0, 61, 64
3, 33960, Note_off_c, 0, 61, 64
3, 33960, Note_on_c, 0, 63, 64
3, 34080, Note_off_c, 0, 63, 64
3, 34080, Note_on_c, 0, 64, 64
3, 34200, Note_off_c, 0, 64, 64
3, 34200, Note_on_c, 0, 63, 64
3, 34320, Note_off_c, 0, 63, 64
3, 34320, Note_on_c, 0, 64, 64
3, 34440, Note_off_c, 0, 64, 64
3, 34440, Note_on_c, 0, 61, 64
3, 34560, Note_off_c, 0, 61, 64
3, 34560, Note_on_c, 0, 59, 64
3, 34920, Note_off_c, 0, 59, 64
3, 34920, Note_on_c, 0, 66, 64
3, 36000, Note_off_c, 0, 66, 64
3, 36720, Note_on_c, 0, 52, 64
3, 36840, Note_off_c, 0, 52, 64
3, 36840, Note_on_c, 0, 54, 64
3, 36960, Note_off_c, 0, 54, 64
3, 36960, Note_on_c, 0, 56, 64
3, 37080, Note_off_c, 0, 56, 64
3, 37080, Note_on_c, 0, 57, 64
3, 37200, Note_off_c, 0, 57, 64
3, 37200, Note_on_c, 0, 59, 64
3, 37320, Note_off_c, 0, 59, 64
3, 37320, Note_on_c, 0, 61, 64
3, 37440, Note_off_c, 0, 61, 64
3, 37440, Note_on_c, 0, 59, 64
3, 37560, Note_off_c, 0, 59, 64
3, 37560, Note_on_c, 0, 61, 64
3, 37680, Note_off_c, 0, 61, 64
3, 37680, Note_on_c, 0, 57, 64
3, 37800, Note_off_c, 0, 57, 64
3, 37800, Note_on_c, 0, 55, 64
3, 38160, Note_off_c, 0, 55, 64
3, 39000, Note_on_c, 0, 54, 64
3, 39120, Note_off_c, 0, 54, 64
3, 39120, Note_on_c, 0, 56, 64
3, 39240, Note_off_c, 0, 56, 64
3, 39240, Note_on_c, 0, 57, 64
3, 39360, Note_off_c, 0, 57, 64
3, 39360, Note_on_c, 0, 59, 64
3, 39480, Note_off_c, 0, 59, 64
3, 39480, Note_on_c, 0, 61, 64
3, 39600, Note_off_c, 0, 61, 64
3, 39600, Note_on_c, 0, 59, 64
3, 39720, Note_off_c, 0, 59, 64
3, 39720, Note_on_c, 0, 61, 64
3, 39840, Note_off_c, 0, 61, 64
3, 39840, Note_on_c, 0, 57, 64
3, 39960, Note_off_c, 0, 57, 64
3, 39960, Note_on_c, 0, 56, 64
3, 40320, Note_off_c, 0, 56, 64
3, 40320, Note_on_c, 0, 57, 64
3, 40680, Note_off_c, 0, 57, 64
3, 40680, Note_on_c, 0, 59, 64
3, 41040, Note_off_c, 0, 59, 64
3, 41040, Note_on_c, 0, 61, 64
3, 41160, Note_off_c, 0, 61, 64
3, 41160, Note_on_c, 0, 63, 64
3, 41280, Note_off_c, 0, 63, 64
3, 41280, Note_on_c, 0, 64, 64
3, 41400, Note_off_c, 0, 64, 64
3, 41400, Note_on_c, 0, 66, 64
3, 41520, Note_off_c, 0, 66, 64
3, 41520, Note_on_c, 0, 68, 64
3, 41640, Note_off_c, 0, 68, 64
3, 41640, Note_on_c, 0, 69, 64
3, 41760, Note_off_c, 0, 69, 64
3, 41760, Note_on_c, 0, 68, 64
3, 41880, Note_off_c, 0, 68, 64
3, 41880, Note_on_c, 0, 69, 64
3, 42000, Note_off_c, 0, 69, 64
3, 42000, Note_on_c, 0, 66, 64
3, 42120, Note_off_c, 0, 66, 64
3, 42120, Note_on_c, 0, 68, 64
3, 42480, Note_off_c, 0, 68, 64
3, 42840, Note_on_c, 0, 61, 64
3, 42960, Note_off_c, 0, 61, 64
3, 42960, Note_on_c, 0, 63, 70
3, 43000, Note_off_c, 0, 63, 64
3, 43000, Note_on_c, 0, 61, 56
3, 43040, Note_off_c, 0, 61, 64
3, 43040, Note_on_c, 0, 63, 64
3, 43200, Note_off_c, 0, 63, 64
3, 43200, Note_on_c, 0, 64, 64
3, 44640, Note_off_c, 0, 64, 64
3, 44640, End_track
4, 0, Start_track
4, 0, Text_t, "LH"
4, 0, Note_on_c, 0, 64, 64
4, 720, Note_off_c, 0, 64, 64
4, 720, Note_on_c, 0, 63, 64
4, 1080, Note_off_c, 0, 63, 64
4, 1080, Note_on_c, 0, 64, 64
4, 1440, Note_off_c, 0, 64, 64
4, 1440, Note_on_c, 0, 61, 64
4, 1800, Note_off_c, 0, 61, 64
4, 1800, Note_on_c, 0, 66, 64
4, 2160, Note_off_c, 0, 66, 64
4, 2160, Note_on_c, 0, 59, 64
4, 2280, Note_off_c, 0, 59, 64
4, 2280, Note_on_c, 0, 61, 64
4, 2400, Note_off_c, 0, 61, 64
4, 2400, Note_on_c, 0, 63, 64
4, 2520, Note_off_c, 0, 63, 64
4, 2520, Note_on_c, 0, 64, 64
4, 2640, Note_off_c, 0, 64, 64
4, 2640, Note_on_c, 0, 66, 64
4, 2760, Note_off_c, 0, 66, 64
4, 2760, Note_on_c, 0, 68, 64
4, 2880, Note_off_c, 0, 68, 64
4, 2880, Note_on_c, 0, 66, 64
4, 3000, Note_off_c, 0, 66, 64
4, 3000, Note_on_c, 0, 68, 64
4, 3120, Note_off_c, 0, 68, 64
4, 3120, Note_on_c, 0, 64, 64
4, 3240, Note_off_c, 0, 64, 64
4, 3240, Note_on_c, 0, 63, 64
4, 3360, Note_off_c, 0, 63, 64
4, 3360, Note_on_c, 0, 64, 64
4, 3480, Note_off_c, 0, 64, 64
4, 3480, Note_on_c, 0, 66, 64
4, 3600, Note_off_c, 0, 66, 64
4, 3600, Note_on_c, 0, 64, 64
4, 3720, Note_off_c, 0, 64, 64
4, 3720, Note_on_c, 0, 66, 64
4, 3840, Note_off_c, 0, 66, 64
4, 3840, Note_on_c, 0, 63, 64
4, 3960, Note_off_c, 0, 63, 64
4, 3960, Note_on_c, 0, 61, 64
4, 4080, Note_off_c, 0, 61, 64
4, 4080, Note_on_c, 0, 63, 64
4, 4200, Note_off_c, 0, 63, 64
4, 4200, Note_on_c, 0, 64, 64
4, 4320, Note_off_c, 0, 64, 64
4, 4320, Note_on_c, 0, 63, 64
4, 4440, Note_off_c, 0, 63, 64
4, 4440, Note_on_c, 0, 64, 64
4, 4560, Note_off_c, 0, 64, 64
4, 4560, Note_on_c, 0, 61, 64
4, 4680, Note_off_c, 0, 61, 64
4, 4680, Note_on_c, 0, 59, 64
4, 4800, Note_off_c, 0, 59, 64
4, 4800, Note_on_c, 0, 61, 64
4, 4920, Note_off_c, 0, 61, 64
4, 4920, Note_on_c, 0, 63, 64
4, 5040, Note_off_c, 0, 63, 64
4, 5040, Note_on_c, 0, 61, 64
4, 5160, Note_off_c, 0, 61, 64
4, 5160, Note_on_c, 0, 63, 64
4, 5280, Note_off_c, 0, 63, 64
4, 5280, Note_on_c, 0, 59, 64
4, 5400, Note_off_c, 0, 59, 64
4, 5400, Note_on_c, 0, 57, 64
4, 5760, Note_off_c, 0, 57, 64
4, 5760, Note_on_c, 0, 54, 64
4, 6120, Note_off_c, 0, 54, 64
4, 6120, Note_on_c, 0, 59, 64
4, 6480, Note_off_c, 0, 59, 64
4, 6480, Note_on_c, 0, 52, 64
4, 6600, Note_off_c, 0, 52, 64
4, 6600, Note_on_c, 0, 54, 64
4, 6720, Note_off_c, 0, 54, 64
4, 6720, Note_on_c, 0, 56, 64
4, 6840, Note_off_c, 0, 56, 64
4, 6840, Note_on_c, 0, 57, 64
4, 6960, Note_off_c, 0, 57, 64
4, 6960, Note_on_c, 0, 59, 64
4, 7080, Note_off_c, 0, 59, 64
4, 7080, Note_on_c, 0, 61, 64
4, 7200, Note_off_c, 0, 61, 64
4, 7200, Note_on_c, 0, 59, 64
4, 7320, Note_off_c, 0, 59, 64
4, 7320, Note_on_c, 0, 61, 64
4, 7440, Note_off_c, 0, 61, 64
4, 7440, Note_on_c, 0, 57, 64
4, 7560, Note_off_c, 0, 57, 64
4, 7560, Note_on_c, 0, 56, 64
4, 7680, Note_off_c, 0, 56, 64
4, 7680, Note_on_c, 0, 57, 64
4, 7800, Note_off_c, 0, 57, 64
4, 7800, Note_on_c, 0, 59, 64
4, 7920, Note_off_c, 0, 59, 64
4, 7920, Note_on_c, 0, 57, 64
4, 8040, Note_off_c, 0, 57, 64
4, 8040, Note_on_c, 0, 59, 64
4, 8160, Note_off_c, 0, 59, 64
4, 8160, Note_on_c, 0, 56, 64
4, 8280, Note_off_c, 0, 56, 64
4, 8280, Note_on_c, 0, 54, 64
4, 8400, Note_off_c, 0, 54, 64
4, 8400, Note_on_c, 0, 56, 64
4, 8520, Note_off_c, 0, 56, 64
4, 8520, Note_on_c, 0, 57, 64
4, 8640, Note_off_c, 0, 57, 64
4, 8640, Note_on_c, 0, 56, 64
4, 9000, Note_off_c, 0, 56, 64
4, 9000, Note_on_c, 0, 52, 64
4, 9360, Note_off_c, 0, 52, 64
4, 9360, Note_on_c, 0, 54, 64
4, 9720, Note_off_c, 0, 54, 64
4, 9720, Note_on_c, 0, 51, 64
4, 10440, Note_off_c, 0, 51, 64
4, 10440, Note_on_c, 0, 56, 64
4, 10800, Note_off_c, 0, 56, 64
4, 10800, Note_on_c, 0, 49, 64
4, 11160, Note_off_c, 0, 49, 64
4, 11520, Note_on_c, 0, 52, 64
4, 11880, Note_off_c, 0, 52, 64
4, 11880, Note_on_c, 0, 54, 64
4, 12240, Note_off_c, 0, 54, 64
4, 12840, Note_on_c, 0, 61, 64
4, 12960, Note_off_c, 0, 61, 64
4, 12960, Note_on_c, 0, 63, 64
4, 13080, Note_off_c, 0, 63, 64
4, 13080, Note_on_c, 0, 66, 64
4, 13200, Note_off_c, 0, 66, 64
4, 13200, Note_on_c, 0, 61, 64
4, 13320, Note_off_c, 0, 61, 64
4, 13320, Note_on_c, 0, 63, 64
4, 13440, Note_off_c, 0, 63, 64
4, 13440, Note_on_c, 0, 66, 64
4, 13560, Note_off_c, 0, 66, 64
4, 13560, Note_on_c, 0, 58, 64
4, 13680, Note_off_c, 0, 58, 64
4, 13680, Note_on_c, 0, 59, 64
4, 13800, Note_off_c, 0, 59, 64
4, 13800, Note_on_c, 0, 63, 64
4, 13920, Note_off_c, 0, 63, 64
4, 13920, Note_on_c, 0, 54, 64
4, 14040, Note_off_c, 0, 54, 64
4, 14040, Note_on_c, 0, 56, 64
4, 14160, Note_off_c, 0, 56, 64
4, 14160, Note_on_c, 0, 59, 64
4, 14280, Note_off_c, 0, 59, 64
4, 14280, Note_on_c, 0, 54, 64
4, 14400, Note_off_c, 0, 54, 64
4, 14400, Note_on_c, 0, 56, 64
4, 14520, Note_off_c, 0, 56, 64
4, 14520, Note_on_c, 0, 59, 64
4, 14640, Note_off_c, 0, 59, 64
4, 14640, Note_on_c, 0, 51, 64
4, 14760, Note_off_c, 0, 51, 64
4, 14760, Note_on_c, 0, 52, 64
4, 14880, Note_off_c, 0, 52, 64
4, 14880, Note_on_c, 0, 56, 64
4, 15000, Note_off_c, 0, 56, 64
4, 15000, Note_on_c, 0, 47, 64
4, 15120, Note_off_c, 0, 47, 64
4, 15120, Note_on_c, 0, 49, 64
4, 15240, Note_off_c, 0, 49, 64
4, 15240, Note_on_c, 0, 52, 64
4, 15360, Note_off_c, 0, 52, 64
4, 15360, Note_on_c, 0, 47, 64
4, 15480, Note_off_c, 0, 47, 64
4, 15480, Note_on_c, 0, 49, 64
4, 15600, Note_off_c, 0, 49, 64
4, 15600, Note_on_c, 0, 52, 64
4, 15720, Note_off_c, 0, 52, 64
4, 15720, Note_on_c, 0, 44, 64
4, 15840, Note_off_c, 0, 44, 64
4, 15840, Note_on_c, 0, 46, 64
4, 15960, Note_off_c, 0, 46, 64
4, 15960, Note_on_c, 0, 49, 64
4, 16080, Note_off_c, 0, 49, 64
4, 16080, Note_on_c, 0, 40, 64
4, 16200, Note_off_c, 0, 40, 64
4, 16200, Note_on_c, 0, 42, 64
4, 16560, Note_off_c, 0, 42, 64
4, 16560, Note_on_c, 0, 52, 64
4, 16920, Note_off_c, 0, 52, 64
4, 17280, Note_on_c, 0, 51, 64
4, 17640, Note_off_c, 0, 51, 64
4, 17640, Note_on_c, 0, 52, 64
4, 18000, Note_off_c, 0, 52, 64
4, 18000, Note_on_c, 0, 54, 64
4, 18360, Note_off_c, 0, 54, 64
4, 18360, Note_on_c, 0, 47, 64
4, 18480, Note_off_c, 0, 47, 64
4, 18480, Note_on_c, 0, 49, 64
4, 18600, Note_off_c, 0, 49, 64
4, 18600, Note_on_c, 0, 51, 64
4, 18720, Note_off_c, 0, 51, 64
4, 18720, Note_on_c, 0, 52, 64
4, 18840, Note_off_c, 0, 52, 64
4, 18840, Note_on_c, 0, 54, 64
4, 18960, Note_off_c, 0, 54, 64
4, 18960, Note_on_c, 0, 56, 64
4, 19080, Note_off_c, 0, 56, 64
4, 19080, Note_on_c, 0, 54, 64
4, 19200, Note_off_c, 0, 54, 64
4, 19200, Note_on_c, 0, 56, 64
4, 19320, Note_off_c, 0, 56, 64
4, 19320, Note_on_c, 0, 52, 64
4, 19440, Note_off_c, 0, 52, 64
4, 19440, Note_on_c, 0, 51, 64
4, 19560, Note_off_c, 0, 51, 64
4, 19560, Note_on_c, 0, 52, 64
4, 19680, Note_off_c, 0, 52, 64
4, 19680, Note_on_c, 0, 54, 64
4, 19800, Note_off_c, 0, 54, 64
4, 19800, Note_on_c, 0, 56, 64
4, 19920, Note_off_c, 0, 56, 64
4, 19920, Note_on_c, 0, 54, 64
4, 20040, Note_off_c, 0, 54, 64
4, 20040, Note_on_c, 0, 52, 64
4, 20160, Note_off_c, 0, 52, 64
4, 20160, Note_on_c, 0, 57, 64
4, 20880, Note_off_c, 0, 57, 64
4, 20880, Note_on_c, 0, 56, 64
4, 21240, Note_off_c, 0, 56, 64
4, 21240, Note_on_c, 0, 61, 64
4, 21600, Note_off_c, 0, 61, 64
4, 21600, Note_on_c, 0, 54, 64
4, 21960, Note_off_c, 0, 54, 64
4, 21960, Note_on_c, 0, 59, 64
4, 22680, Note_off_c, 0, 59, 64
4, 22680, Note_on_c, 0, 57, 64
4, 22800, Note_off_c, 0, 57, 64
4, 22800, Note_on_c, 0, 56, 64
4, 22920, Note_off_c, 0, 56, 64
4, 22920, Note_on_c, 0, 54, 64
4, 23040, Note_off_c, 0, 54, 64
4, 23040, Note_on_c, 0, 52, 64
4, 23160, Note_off_c, 0, 52, 64
4, 23160, Note_on_c, 0, 51, 64
4, 23280, Note_off_c, 0, 51, 64
4, 23280, Note_on_c, 0, 49, 64
4, 23400, Note_off_c, 0, 49, 64
4, 23400, Note_on_c, 0, 48, 64
4, 23520, Note_off_c, 0, 48, 64
4, 23520, Note_on_c, 0, 49, 64
4, 23640, Note_off_c, 0, 49, 64
4, 23640, Note_on_c, 0, 51, 64
4, 23760, Note_off_c, 0, 51, 64
4, 23760, Note_on_c, 0, 49, 64
4, 24120, Note_off_c, 0, 49, 64
4, 24840, Note_on_c, 0, 54, 64
4, 25200, Note_off_c, 0, 54, 64
4, 25920, Note_on_c, 0, 59, 64
4, 26040, Note_off_c, 0, 59, 64
4, 26040, Note_on_c, 0, 57, 64
4, 26160, Note_off_c, 0, 57, 64
4, 26160, Note_on_c, 0, 56, 64
4, 26280, Note_off_c, 0, 56, 64
4, 26280, Note_on_c, 0, 54, 64
4, 26400, Note_off_c, 0, 54, 64
4, 26400, Note_on_c, 0, 52, 64
4, 26520, Note_off_c, 0, 52, 64
4, 26520, Note_on_c, 0, 51, 64
4, 26640, Note_off_c, 0, 51, 64
4, 26640, Note_on_c, 0, 52, 64
4, 26760, Note_off_c, 0, 52, 64
4, 26760, Note_on_c, 0, 51, 64
4, 26880, Note_off_c, 0, 51, 64
4, 26880, Note_on_c, 0, 54, 64
4, 27000, Note_off_c, 0, 54, 64
4, 27000, Note_on_c, 0, 56, 64
4, 28440, Note_off_c, 0, 56, 64
4, 28440, Note_on_c, 0, 54, 64
4, 29160, Note_off_c, 0, 54, 64
4, 29160, Note_on_c, 0, 52, 64
4, 29880, Note_off_c, 0, 52, 64
4, 29880, Note_on_c, 0, 51, 64
4, 30240, Note_off_c, 0, 51, 64
4, 30240, Note_on_c, 0, 52, 64
4, 30360, Note_off_c, 0, 52, 64
4, 30360, Note_on_c, 0, 51, 64
4, 30480, Note_off_c, 0, 51, 64
4, 30480, Note_on_c, 0, 49, 64
4, 30600, Note_off_c, 0, 49, 64
4, 30600, Note_on_c, 0, 47, 64
4, 30720, Note_off_c, 0, 47, 64
4, 30720, Note_on_c, 0, 45, 64
4, 30840, Note_off_c, 0, 45, 64
4, 30840, Note_on_c, 0, 44, 64
4, 30960, Note_off_c, 0, 44, 64
4, 30960, Note_on_c, 0, 45, 64
4, 31080, Note_off_c, 0, 45, 64
4, 31080, Note_on_c, 0, 44, 64
4, 31200, Note_off_c, 0, 44, 64
4, 31200, Note_on_c, 0, 47, 64
4, 31320, Note_off_c, 0, 47, 64
4, 31320, Note_on_c, 0, 36, 64
4, 31680, Note_off_c, 0, 36, 64
4, 32400, Note_on_c, 0, 37, 64
4, 32760, Note_off_c, 0, 37, 64
4, 33480, Note_on_c, 0, 42, 64
4, 33840, Note_off_c, 0, 42, 64
4, 34560, Note_on_c, 0, 39, 64
4, 34920, Note_off_c, 0, 39, 64
4, 35640, Note_on_c, 0, 45, 64
4, 36000, Note_off_c, 0, 45, 64
4, 36720, Note_on_c, 0, 44, 64
4, 37080, Note_off_c, 0, 44, 64
4, 37800, Note_on_c, 0, 46, 64
4, 37920, Note_off_c, 0, 46, 64
4, 37920, Note_on_c, 0, 49, 64
4, 38040, Note_off_c, 0, 49, 64
4, 38040, Note_on_c, 0, 51, 64
4, 38160, Note_off_c, 0, 51, 64
4, 38160, Note_on_c, 0, 52, 64
4, 38280, Note_off_c, 0, 52, 64
4, 38280, Note_on_c, 0, 54, 64
4, 38400, Note_off_c, 0, 54, 64
4, 38400, Note_on_c, 0, 55, 64
4, 38520, Note_off_c, 0, 55, 64
4, 38520, Note_on_c, 0, 54, 64
4, 38640, Note_off_c, 0, 54, 64
4, 38640, Note_on_c, 0, 55, 64
4, 38760, Note_off_c, 0, 55, 64
4, 38760, Note_on_c, 0, 52, 64
4, 38880, Note_off_c, 0, 52, 64
4, 38880, Note_on_c, 0, 51, 64
4, 39240, Note_off_c, 0, 51, 64
4, 39960, Note_on_c, 0, 52, 64
4, 40320, Note_off_c, 0, 52, 64
4, 40320, Note_on_c, 0, 54, 64
4, 40680, Note_off_c, 0, 54, 64
4, 40680, Note_on_c, 0, 56, 64
4, 41040, Note_off_c, 0, 56, 64
4, 41040, Note_on_c, 0, 57, 64
4, 41400, Note_off_c, 0, 57, 64
4, 42240, Note_on_c, 0, 59, 64
4, 42360, Note_off_c, 0, 59, 64
4, 42360, Note_on_c, 0, 54, 64
4, 42480, Note_off_c, 0, 54, 64
4, 42480, Note_on_c, 0, 56, 64
4, 42600, Note_off_c, 0, 56, 64
4, 42600, Note_on_c, 0, 51, 64
4, 42720, Note_off_c, 0, 51, 64
4, 42720, Note_on_c, 0, 52, 64
4, 42840, Note_off_c, 0, 52, 64
4, 42840, Note_on_c, 0, 46, 64
4, 42960, Note_off_c, 0, 46, 64
4, 42960, Note_on_c, 0, 47, 64
4, 43080, Note_off_c, 0, 47, 64
4, 43080, Note_on_c, 0, 35, 64
4, 43200, Note_off_c, 0, 35, 64
4, 43200, Note_on_c, 0, 40, 64
4, 44640, Note_off_c, 0, 40, 64
4, 44640, End_track
0, 0, End_of_file
